<svg xmlns="http://www.w3.org/2000/svg" xmlns:xlink="http://www.w3.org/1999/xlink" width="468" height="120.521" viewBox="0 0 468 120.521">
  <defs>
    <filter id="Union_22" x="0" y="0" width="468" height="120.521" filterUnits="userSpaceOnUse">
      <feOffset dy="3" input="SourceAlpha"/>
      <feGaussianBlur stdDeviation="3" result="blur"/>
      <feFlood flood-opacity="0.161"/>
      <feComposite operator="in" in2="blur"/>
      <feComposite in="SourceGraphic"/>
    </filter>
  </defs>
  <g transform="matrix(1, 0, 0, 1, 0, 0)" filter="url(#Union_22)">
    <g id="Union_22-2" data-name="Union 22" transform="translate(129 -177)" fill="none">
      <path d="M94.98,275H-120V183H330v92H116.02l-10.52,10.52Z" stroke="none"/>
      <path d="M 105.4997787475586 282.6920471191406 L 114.6056594848633 273.5861511230469 L 115.1914825439453 273.0003967285156 L 116.019889831543 273.0003967285156 L 328.0003051757812 273.0003967285156 L 328.0003051757812 184.9996948242188 L -117.9996948242188 184.9996948242188 L -117.9996948242188 273.0003967285156 L 94.97971343994141 273.0003967285156 L 95.80812835693359 273.0003967285156 L 96.39395141601562 273.5861511230469 L 105.4997787475586 282.6920471191406 M 105.4997787475586 285.5205078125 L 94.97971343994141 275.0003967285156 L -119.9996948242188 275.0003967285156 L -119.9996948242188 182.9996948242188 L 330.0003051757812 182.9996948242188 L 330.0003051757812 275.0003967285156 L 116.019889831543 275.0003967285156 L 105.4997787475586 285.5205078125 Z" stroke="none" fill="#292c45"/>
    </g>
  </g>
</svg>
