<svg xmlns="http://www.w3.org/2000/svg" width="112.83" height="39.528" viewBox="0 0 112.83 39.528"><g transform="translate(-0.002)"><g transform="translate(45.615 2.902)"><g transform="translate(0 0.196)"><path d="M160.788,10.922h6.965v2.467h-4.114v2.245h3.832v2.381h-3.832v2.629h4.114v2.492h-6.965Z" transform="translate(-160.788 -10.922)" fill="#2a1e4d"/></g><g transform="translate(8.262 0.196)"><path d="M189.912,10.922h2.834v8.091a3.206,3.206,0,0,0,.265,1.451.879.879,0,0,0,.8.487.906.906,0,0,0,.837-.444,2.48,2.48,0,0,0,.281-1.323V10.922h2.851v8.416a4.006,4.006,0,0,1-1.041,2.953,4.019,4.019,0,0,1-2.953,1.041,3.882,3.882,0,0,1-2.859-1.007,4.044,4.044,0,0,1-1.016-2.987Z" transform="translate(-189.912 -10.922)" fill="#2a1e4d"/></g><g transform="translate(17.651 0.196)"><path d="M223.008,10.922H227.4a3.594,3.594,0,0,1,2.407.777,2.686,2.686,0,0,1,.93,2.185,3.018,3.018,0,0,1-.666,1.98,4.273,4.273,0,0,1-1.98,1.3,2.392,2.392,0,0,1,2.049,2.1l.828,3.875h-3.115l-.452-3.38a2.985,2.985,0,0,0-.41-1.246,1,1,0,0,0-.871-.4h-.265v5.027h-2.842ZM225.85,13.3h0v2.612h.623a1.277,1.277,0,0,0,1.016-.393,1.469,1.469,0,0,0,.35-1,1.252,1.252,0,0,0-.308-.922,1.309,1.309,0,0,0-.93-.3Z" transform="translate(-223.008 -10.922)" fill="#2a1e4d"/></g><g transform="translate(25.896 0.196)"><path d="M255.264,10.922h2.825l3.226,12.214h-3.107l-.435-2.424h-2.339l-.444,2.424h-2.919Zm1.357,3.337h0l-.785,4.268h1.553Z" transform="translate(-252.072 -10.922)" fill="#2a1e4d"/></g><g transform="translate(35.755)"><path d="M286.823,19a4.1,4.1,0,0,0,2.663,1.315,1.57,1.57,0,0,0,1.1-.418,1.306,1.306,0,0,0,.452-1,1.257,1.257,0,0,0-.324-.836,4.339,4.339,0,0,0-1.246-.828,5.905,5.905,0,0,1-1.955-1.417,2.835,2.835,0,0,1-.691-1.972,3.473,3.473,0,0,1,1.067-2.569,3.918,3.918,0,0,1,2.834-1.041,5.575,5.575,0,0,1,2.51.649V13.8a3.276,3.276,0,0,0-2.211-1.118,1.382,1.382,0,0,0-.913.316.953.953,0,0,0-.384.76,1.006,1.006,0,0,0,.316.751,3.6,3.6,0,0,0,1.135.683,6,6,0,0,1,2.083,1.409,3.076,3.076,0,0,1,.708,2.142,3.926,3.926,0,0,1-1.212,2.9,4.129,4.129,0,0,1-2.988,1.195,6.477,6.477,0,0,1-2.945-.819Z" transform="translate(-286.823 -10.23)" fill="#2a1e4d"/></g><g transform="translate(44.307 0.196)"><path d="M316.971,10.922h2.868V23.136h-2.868Z" transform="translate(-316.971 -10.922)" fill="#2a1e4d"/></g><g transform="translate(48.131 0.196)"><path d="M333.642,10.922h2.834l3.218,12.214h-3.107l-.435-2.424h-2.339l-.444,2.424H330.45ZM335,14.259h0l-.785,4.268h1.545Z" transform="translate(-330.45 -10.922)" fill="#2a1e4d"/></g><g transform="translate(58.237 0.196)"><path d="M366.073,10.922h2.9l1.391,3.875c.418,1.152.725,2.142.947,2.988h.154l-.068-2.066v-4.8h2.731V23.136h-2.893l-1.391-3.866c-.41-1.152-.734-2.151-.956-3h-.154l.068,2.066v4.8h-2.731Z" transform="translate(-366.073 -10.922)" fill="#2a1e4d"/></g><g transform="translate(0.248 21.723)"><path d="M161.66,86.8h5.727v1.05h-4.541v4.566h4.268V93.4h-4.268v5.616H161.66Z" transform="translate(-161.66 -86.802)" fill="#2a1e4d"/></g><g transform="translate(15.637 21.723)"><path d="M215.908,86.8H217.1V99.016h-1.195Z" transform="translate(-215.908 -86.802)" fill="#2a1e4d"/></g><g transform="translate(27.279 21.723)"><path d="M256.947,86.8h1.186V97.983h4.541v1.033h-5.727Z" transform="translate(-256.947 -86.802)" fill="#2a1e4d"/></g><g transform="translate(42.438 21.723)"><path d="M311.824,86.8l2.637,6.726,2.62-6.726h1.425V99.016h-1.075V91.223l.009-2.006c0-.256-.009-.623-.009-1.118a26.371,26.371,0,0,1-.845,2.569l-2.125,5.54-1.809-4.652Q312.127,90.2,311.4,88.2c.077,2.629.111,4.1.111,4.387v6.427h-1.127V86.8Z" transform="translate(-310.381 -86.802)" fill="#2a1e4d"/></g><g transform="translate(60.311 21.518)"><path d="M373.4,96.152a8.98,8.98,0,0,0,1.511,1.05,2.745,2.745,0,0,0,1.186.282,2.466,2.466,0,0,0,1.707-.683,2.291,2.291,0,0,0,.751-1.775,1.992,1.992,0,0,0-.5-1.383,4.952,4.952,0,0,0-1.9-1.058c-1.852-.708-2.782-1.767-2.782-3.192a3.141,3.141,0,0,1,.99-2.339,3.242,3.242,0,0,1,2.364-.973,4.05,4.05,0,0,1,2.322.845V88.5a6.164,6.164,0,0,0-1.255-.965,2.134,2.134,0,0,0-1.05-.264,2,2,0,0,0-1.519.631,2.022,2.022,0,0,0-.614,1.46,1.666,1.666,0,0,0,.546,1.323,7.532,7.532,0,0,0,1.989,1.075,8.116,8.116,0,0,1,1.4.708,2.87,2.87,0,0,1,.879,1.016,3.1,3.1,0,0,1,.35,1.5,3.687,3.687,0,0,1-3.653,3.7A4.8,4.8,0,0,1,373.4,97.68Z" transform="translate(-373.384 -86.08)" fill="#2a1e4d"/></g></g><g transform="translate(44.736 19.563)"><path d="M225.785,69.592h-68.1V68.96h68.1Z" transform="translate(-157.689 -68.96)" fill="#2a1e4d"/></g><path d="M37.933,2.578H39.6V0H0V2.578H1.513a.594.594,0,0,1,.6.6v2.39a.594.594,0,0,1-.6.6H0V39.528H39.6V6.163H37.933a.6.6,0,0,1-.606-.6V3.175A.6.6,0,0,1,37.933,2.578Zm-10.413.6h0a.594.594,0,0,1,.6-.6h2.817a.592.592,0,0,1,.589.6v2.39a.592.592,0,0,1-.589.6H28.118a.594.594,0,0,1-.6-.6Zm-9.807,0h0a.6.6,0,0,1,.606-.6h2.8a.6.6,0,0,1,.606.6v2.39a.6.6,0,0,1-.606.6h-2.8a.6.6,0,0,1-.606-.6Zm-9.807,0h0a.6.6,0,0,1,.606-.6h2.8a.6.6,0,0,1,.606.6v2.39a.6.6,0,0,1-.606.6h-2.8a.6.6,0,0,1-.606-.6ZM38.113,24.181h0a1.145,1.145,0,0,1,1.007,1.426.55.55,0,0,1-.034.879c.649.427.546.725.427.811-.026.307-.341.23-.751.188.742.529.324,1.1-.026,1.135.06.7-.768.589-1.178.418.068.487-.93.35-1.451.026.068.6-.529.538-.768.452a.749.749,0,0,1-.9.375.736.736,0,0,1-.632.026,1.147,1.147,0,0,1-1.118-.657.958.958,0,0,1-.563-.922c-.009-.2-.538-.555-.751-.674s-1.75-.64-1.844-.342a.365.365,0,0,1-.145.213c-.154.1-.316-.2-.222.179a.562.562,0,0,1-.47.649.43.43,0,0,1-.316.58.486.486,0,0,1-.393.563c.026.316-.094.418-.435.589,0,.734-.376.691-.546.776.034.35-.085.521-.393.6.068.487-.222.555-.529.657a.643.643,0,0,1-.631.589c-.06.777-.691.8-.879.879.017.325-.333.435-.751.461.043.427-.5.563-.768.452a1.252,1.252,0,0,1-1.511.085.575.575,0,0,1-.777.512c0,.734-.76.888-1.152.871a1.181,1.181,0,0,1-1.323.606c-.265-.068-.427.376-.632.742s-.751.393-.836.085-.3-.333-.359-.128a6.705,6.705,0,0,1-.64,1.024c-.4.606-1.357,1.519-1.067,1.118a4.952,4.952,0,0,0,.376-2.032c.026-.555-.222-.452-.35-.162a2.989,2.989,0,0,1-.708.913,11.073,11.073,0,0,1-1.315,1.118c-.487.307-.538.248-.145-.179a5.965,5.965,0,0,0,1-1.852c.043-.273-.145-.153-.393.265a2.616,2.616,0,0,1-.632.854,4.071,4.071,0,0,1-1.135.742,2.22,2.22,0,0,1-1.135.316c-.213,0-1-.137-.5-.248a4.824,4.824,0,0,0,1.263-.435,3.093,3.093,0,0,0,1.22-1.238c.205-.35.179-.546-.017-.341a4.527,4.527,0,0,1-1.144,1.178,3.793,3.793,0,0,1-2.433.734c-.708.026-1.016-.136.29-.333a3.477,3.477,0,0,0,2.424-1.178c.435-.384.367-.751.282-.649a3.244,3.244,0,0,1-1.707,1.357,2.923,2.923,0,0,1-3.03-.47c-.248-.324-.273-.555.3-.265.256.128.734.325.734.325a2.544,2.544,0,0,0,3.039-.683,2.565,2.565,0,0,1-3.022.376c-.452-.325-.307-.444-.051-.333a2.852,2.852,0,0,0,3.3-.487,10.1,10.1,0,0,0,2.407-3.747,3.246,3.246,0,0,1-1.041.743c.742-.888,1.7-2.416,2.219-3.124s1.536-1.861,2.7-3.3A29.5,29.5,0,0,0,19.5,24.556a8.3,8.3,0,0,0-2.313-.546,9.6,9.6,0,0,0-1.707-.333c-.154.094-.811.154-.99.222s-.06.29.017.487a.781.781,0,0,1-.478-.589c-.2-1.016.8-1.366,1.186-1.485A3.968,3.968,0,0,1,17.568,21.3a13.3,13.3,0,0,0,1.852-.342,11.782,11.782,0,0,1-2.441-2.834c-.282-.487-.239-1.024.239-.725s1.784,1.6,2.108,1.835.376.034.128-.325-1.365-1.938-1.784-2.535c-.418-.58-.341-.794.563-.256A4.618,4.618,0,0,1,20.1,17.83c.29.6.837,1.1.777.939s-.282-.785-.418-1.169a15.677,15.677,0,0,0-1.5-2.253c-.5-.649.051-.708.342-.6a5.383,5.383,0,0,1,1.63,1.11,3.933,3.933,0,0,1,1.041,2.023c.034.367.077.606.248.239a4.334,4.334,0,0,0-.427-2.424c-.35-.58-.384-1.2.521-.8A2.276,2.276,0,0,1,23.6,16.823c.068.657-.2.965.111.819s.418-1.135.478-1.869.282-.99.8-.725.546,1.033.487,1.434-.41.777-.154.862,1.246-1.041,1.75-1.613.768.128.615.307a1.509,1.509,0,0,0-.222.879c.009.333.572-.239.965-.555a.5.5,0,0,1,.82.171c.478-.435.836.162.734.529.273-.2.9-.188.973-.026s-.128.2-.06.359.359.213.333.461-.2.128-.188.29.359.051.435.231.239.179.444.264.094.128.307.367.119.094.162.6a1.21,1.21,0,0,1,.188,1.98c-.435.222-.521.043-.58.239s2.586.009,3.628.017a1.52,1.52,0,0,1,1.434.939A1.085,1.085,0,0,1,38.113,24.181Z" fill="#2a1e4d" fill-rule="evenodd"/></g></svg>