<svg xmlns="http://www.w3.org/2000/svg" width="157.42" height="89.16" viewBox="0 0 157.42 89.16"><g transform="translate(-310.61 -866)"><g transform="translate(-189.678 330)"><g transform="translate(546.678 536.5)"><path d="M1027.739,189.986l2.557-14.568a2.383,2.383,0,0,0-2.434-2.725h0a2.42,2.42,0,0,0-2.459,2.146l-1.333,15.148Z" transform="translate(-1008.846 -156.569)" fill="none" stroke="#242549" stroke-miterlimit="10" stroke-width="1"/><path d="M1017.794,189.986V175.034a2.406,2.406,0,0,0-2.467-2.341h-.062a2.394,2.394,0,0,0-2.46,2.536l1.3,14.758Z" transform="translate(-1006.262 -156.569)" fill="none" stroke="#242549" stroke-miterlimit="10" stroke-width="1"/><path d="M1021.811,172.693h-.062a2.407,2.407,0,0,0-2.468,2.341v14.953h3.69l1.3-14.758A2.4,2.4,0,0,0,1021.811,172.693Z" transform="translate(-1007.749 -156.569)" fill="none" stroke="#242549" stroke-miterlimit="10" stroke-width="1"/><path d="M1008.839,172.693h0a2.383,2.383,0,0,0-2.434,2.725l2.557,14.568h3.669l-1.333-15.148A2.42,2.42,0,0,0,1008.839,172.693Z" transform="translate(-1004.789 -156.569)" fill="none" stroke="#242549" stroke-miterlimit="10" stroke-width="1"/><line x1="0.634" y1="3.509" transform="translate(3.67 18.507)" fill="none" stroke="#242549" stroke-miterlimit="10" stroke-width="1"/><line x1="0.551" y1="3.217" transform="translate(5.226 26.783)" fill="none" stroke="#242549" stroke-miterlimit="10" stroke-width="1"/><line y1="1.797" x2="0.123" transform="translate(14.38 18.507)" fill="none" stroke="#242549" stroke-miterlimit="10" stroke-width="1"/><line y1="7.847" x2="0.535" transform="translate(13.707 22.328)" fill="none" stroke="#242549" stroke-miterlimit="10" stroke-width="1"/><path d="M1026.307,153.219a1.317,1.317,0,0,0-.192.019,1.129,1.129,0,0,0,.033-.262,1.269,1.269,0,0,0-2.535,0,1.153,1.153,0,0,0,.258.72,1.2,1.2,0,0,0-.735,1.088,1.236,1.236,0,0,0,1.268,1.2,1.272,1.272,0,0,0,1.11-.634,1.3,1.3,0,0,0,.795.272,1.2,1.2,0,1,0,0-2.4Z" transform="translate(-1008.632 -151.773)" fill="none" stroke="#242549" stroke-miterlimit="10" stroke-width="1"/><path d="M1004.854,161.575a1.355,1.355,0,0,0,.168.091,1.243,1.243,0,0,0-.187.2,1.164,1.164,0,0,0,.3,1.676,1.312,1.312,0,0,0,1.767-.286,1.152,1.152,0,0,0,.228-.729,1.3,1.3,0,0,0,1.263-.485,1.164,1.164,0,0,0-.3-1.676,1.32,1.32,0,0,0-1.292-.091,1.189,1.189,0,0,0-.482-.658,1.312,1.312,0,0,0-1.767.287A1.163,1.163,0,0,0,1004.854,161.575Z" transform="translate(-1004.319 -153.52)" fill="none" stroke="#242549" stroke-miterlimit="10" stroke-width="1"/><path d="M1033.773,158.625a1.236,1.236,0,0,0-1.268-1.2,1.285,1.285,0,0,0-1.006.479,1.315,1.315,0,0,0-.483-.092,1.236,1.236,0,0,0-1.267,1.2,1.131,1.131,0,0,0,.022.213,1.169,1.169,0,0,0-.408.879,1.236,1.236,0,0,0,1.268,1.2A1.288,1.288,0,0,1,1032,161.2a1.236,1.236,0,0,0,1.267-1.2,1.128,1.128,0,0,0-.067-.368A1.186,1.186,0,0,0,1033.773,158.625Z" transform="translate(-1010.06 -153.068)" fill="none" stroke="#242549" stroke-miterlimit="10" stroke-width="1"/><path d="M1025.931,170.2a1.236,1.236,0,0,0-1.267-1.2,1.285,1.285,0,0,0-1.006.479,1.321,1.321,0,0,0-.483-.092,1.237,1.237,0,0,0-1.268,1.2" transform="translate(-1008.351 -155.723)" fill="none" stroke="#242549" stroke-miterlimit="10" stroke-width="1"/><path d="M1021.148,167.434a1.442,1.442,0,0,0-.744-.7,1.538,1.538,0,0,0-.95-.076,1.444,1.444,0,0,0-.563-.428,1.509,1.509,0,0,0-1.95.709,1.337,1.337,0,0,0-.113.422,1.466,1.466,0,0,0-1.108.811,1.349,1.349,0,0,0-.128.526" transform="translate(-1006.903 -155.059)" fill="none" stroke="#242549" stroke-miterlimit="10" stroke-width="1"/><path d="M1014.412,155.2a1.236,1.236,0,0,0-1.267-1.2,1.285,1.285,0,0,0-1.006.479,1.319,1.319,0,0,0-.483-.092,1.236,1.236,0,0,0-1.267,1.2,1.131,1.131,0,0,0,.022.213,1.166,1.166,0,0,0-.408.879,1.236,1.236,0,0,0,1.268,1.2,1.3,1.3,0,0,0,.772-.256,1.313,1.313,0,0,0,.6.149,1.236,1.236,0,0,0,1.267-1.2,1.124,1.124,0,0,0-.067-.368A1.187,1.187,0,0,0,1014.412,155.2Z" transform="translate(-1005.622 -152.282)" fill="none" stroke="#242549" stroke-miterlimit="10" stroke-width="1"/><g transform="translate(2.008 6.778)"><path d="M1025.425,170.274a1.236,1.236,0,0,0,1.267-1.2,1.168,1.168,0,0,0-.4-.871,1.151,1.151,0,0,0,.226-.684,1.236,1.236,0,0,0-1.267-1.2,1.32,1.32,0,0,0-.433.077,1.387,1.387,0,0,0,.515-.963,1.236,1.236,0,0,0-1.267-1.2,1.3,1.3,0,0,0-.871.332,1.258,1.258,0,0,0-1.2-.823,1.3,1.3,0,0,0-.846.313,1.256,1.256,0,0,0-1.034-.747.927.927,0,0,0-.02-.431,1.2,1.2,0,0,0,.76-1.1,1.236,1.236,0,0,0-1.267-1.2,1.287,1.287,0,0,0-1.033.509,1.3,1.3,0,0,0-.684-.193,1.283,1.283,0,0,1-2.408-.143,1.237,1.237,0,0,0-1.268,1.2,1.152,1.152,0,0,0,.272.736,1.373,1.373,0,0,0-.272-.029,1.236,1.236,0,0,0-1.267,1.2,1.129,1.129,0,0,0,.068.372,1.256,1.256,0,0,0-.3.205,1.3,1.3,0,0,0-.892-.349,1.284,1.284,0,0,0-1.06.545,1.3,1.3,0,0,0-.737-.227,1.236,1.236,0,0,0-1.268,1.2,1.119,1.119,0,0,1-.244,1.2,1.183,1.183,0,0,0,.512.967l-.2.392a1.31,1.31,0,0,0-.624-.156,1.236,1.236,0,0,0-1.267,1.2,1.2,1.2,0,0,0,.682,1.067" transform="translate(-1006.924 -160.567)" fill="none" stroke="#242549" stroke-miterlimit="2" stroke-width="1"/></g></g><g transform="translate(586.161 536.837)"><path d="M3273.7-424.237h17.333V-406.8H3273.7" transform="translate(-3273.702 424.237)" fill="none" stroke="#242549" stroke-miterlimit="10" stroke-width="1"/><path d="M3286.287-407.675l-5-2.885v5.77Z" transform="translate(-3278.546 415.508)" fill="none" stroke="#242549" stroke-miterlimit="10" stroke-width="1"/><path d="M3273.7-418.314h15.191v11.045H3273.7" transform="translate(-3273.703 420.457)" fill="none" stroke="#242549" stroke-miterlimit="10" stroke-width="1"/><line x2="10.766" transform="translate(4.371 15.239)" fill="none" stroke="#242549" stroke-miterlimit="10" stroke-width="1"/><line x2="1.211" transform="translate(0.001 15.239)" fill="none" stroke="#242549" stroke-miterlimit="10" stroke-width="1"/><line y2="1.612" transform="translate(2.791 14.434)" fill="none" stroke="#242549" stroke-miterlimit="10" stroke-width="1"/><path d="M3273.884-375.952h20.652v2.6h-20.652" transform="translate(-3273.819 393.421)" fill="none" stroke="#242549" stroke-miterlimit="10" stroke-width="1"/><path d="M3273.722-368.777h24.327v2.533h-24.331" transform="translate(-3273.712 388.842)" fill="none" stroke="#242549" stroke-miterlimit="10" stroke-width="1"/><path d="M3323.969-350.957v-10.82H3327v10.82" transform="translate(-3306.278 384.375)" fill="none" stroke="#242549" stroke-miterlimit="10" stroke-width="1"/><line x2="7.168" transform="translate(1.809 18.146)" fill="none" stroke="#242549" stroke-miterlimit="10" stroke-width="1"/></g><g transform="translate(574.343 551.022)"><line y1="5" transform="translate(2.657 -0.022)" fill="none" stroke="#242549" stroke-width="1"/><line y1="5.27" transform="translate(0 2.581) rotate(-90)" fill="none" stroke="#242549" stroke-width="1"/></g></g><path d="M-73.37,0h2.26l-3.06-7.76L-71.11-14h-2.2l-2.88,6.1V-14h-2.2V0h2.2V-4.3l.68-1.28Zm7.36-6.42.9-3.44V0h1.98V-14h-2.42l-1.8,5.78-.8,3.08V-14h-1.96V0h2.26Zm6.64.42h2.5V0h2.24V-14h-2.24v6h-2.5v-6h-2.2V0h2.2Zm8.36-4.78c0-1,.44-1.38,1.14-1.38s1.14.38,1.14,1.38v7.56c0,1-.44,1.38-1.14,1.38s-1.14-.38-1.14-1.38Zm-2.2,7.42c0,2.24,1.18,3.52,3.34,3.52s3.34-1.28,3.34-3.52v-7.28c0-2.24-1.18-3.52-3.34-3.52s-3.34,1.28-3.34,3.52ZM-45.75-12h2.3V0h2.2V-12h2.3v-2h-6.8Zm9.96,0h3.8v-2h-6V0h6V-2h-3.8V-6.1h3.02v-2h-3.02Zm10.04-2h-3.22L-31.21,0h2.02l.38-2.54h2.7L-25.73,0h2.22Zm-1.72,2.48,1.06,7.08h-2.12Zm4.34-.48h2.3V0h2.2V-12h2.3v-2h-6.8Zm11-2h-3.24V0h2.2V-5.26h1.04c2.2,0,3.28-1.22,3.28-3.46v-1.82C-8.85-12.78-9.93-14-12.13-14Zm0,2c.7,0,1.08.32,1.08,1.32v2.1c0,1-.38,1.32-1.08,1.32h-1.04V-12ZM-4.59,0c2.2,0,3.28-1.22,3.28-3.46V-5.28c0-2.24-1.08-3.46-3.28-3.46H-5.63V-14h-2.2V0ZM-5.63-2V-6.74h1.04c.7,0,1.08.32,1.08,1.32v2.1c0,1-.38,1.32-1.08,1.32ZM2.15,0V-14H-.05V0Zm8.64-10.48H9.23v2.7H6.55v1.56H9.23v2.74h1.56V-6.22h2.68V-7.78H10.79ZM21.97-6.42l.9-3.44V0h1.98V-14H22.43l-1.8,5.78-.8,3.08V-14H17.87V0h2.26ZM28.61-6h2.5V0h2.24V-14H31.11v6h-2.5v-6h-2.2V0h2.2Zm5.7-6h2.3V0h2.2V-12h2.3v-2h-6.8Zm9.96,0h3.8v-2h-6V0h6V-2h-3.8V-6.1h3.02v-2H44.27Zm8.4-2H49.43V0h2.2V-5.26h1.04c2.2,0,3.28-1.22,3.28-3.46v-1.82C55.95-12.78,54.87-14,52.67-14Zm0,2c.7,0,1.08.32,1.08,1.32v2.1c0,1-.38,1.32-1.08,1.32H51.63V-12Zm6.5,6h2.5V0h2.24V-14H61.67v6h-2.5v-6h-2.2V0h2.2Zm8.54-6h3.8v-2h-6V0h6V-2h-3.8V-6.1h3.02v-2H67.71Zm4.52,0h2.3V0h2.2V-12h2.3v-2h-6.8Z" transform="translate(389 955)" fill="#242549" opacity="0.5"/><path d="M4.23-16.17c0-1.5.66-2.07,1.71-2.07s1.71.57,1.71,2.07V-4.83c0,1.5-.66,2.07-1.71,2.07S4.23-3.33,4.23-4.83ZM.93-5.04C.93-1.68,2.7.24,5.94.24s5.01-1.92,5.01-5.28V-15.96c0-3.36-1.77-5.28-5.01-5.28S.93-19.32.93-15.96ZM12.78-3.18V0h3.18V-3.18Zm8.31-12.99c0-1.5.66-2.07,1.71-2.07s1.71.57,1.71,2.07V-4.83c0,1.5-.66,2.07-1.71,2.07s-1.71-.57-1.71-2.07ZM17.79-5.04c0,3.36,1.77,5.28,5.01,5.28s5.01-1.92,5.01-5.28V-15.96c0-3.36-1.77-5.28-5.01-5.28s-5.01,1.92-5.01,5.28Zm11.64,0c0,3.36,1.77,5.28,5.01,5.28s5.01-1.92,5.01-5.28V-8.88c0-3.09-1.23-4.8-3.66-4.8a3.141,3.141,0,0,0-3.06,1.86v-3.84c0-2.01.66-2.58,1.83-2.58,1.05,0,1.71.57,1.71,2.07v.75h3.12v-.54c0-3.36-1.68-5.28-4.92-5.28-3.42,0-5.04,1.92-5.04,5.46Zm5.01-5.64c1.05,0,1.71.57,1.71,2.07v3.78c0,1.5-.66,2.04-1.71,2.04s-1.71-.54-1.71-2.04V-8.61C32.73-10.11,33.39-10.68,34.44-10.68ZM50.43-21H45.57V0h3.3V-7.89h1.56c3.3,0,4.92-1.83,4.92-5.19v-2.73C55.35-19.17,53.73-21,50.43-21Zm0,3c1.05,0,1.62.48,1.62,1.98v3.15c0,1.5-.57,1.98-1.62,1.98H48.87V-18Zm17.01-3H63.99l-1.5,7.2-.78,4.89-1.02-4.92L58.89-21H55.62L60.18-4.8l-.03.18c-.27,1.53-1.23,1.83-2.91,1.71V.03c4.59.3,5.88-1.59,6.66-5.37ZM73.77,0c3.3,0,4.98-1.83,4.98-5.19V-7.44c0-3.36-1.68-5.19-4.98-5.19H71.85V-18h5.94v-3H68.55V0ZM71.85-3V-9.63h1.92c1.05,0,1.68.48,1.68,1.98v2.67c0,1.5-.63,1.98-1.68,1.98Zm8.82-.18V0h3.18V-3.18Z" transform="translate(348 932)" fill="#242549"/></g></svg>