<svg xmlns="http://www.w3.org/2000/svg" width="78.74" height="91.16" viewBox="0 0 78.74 91.16"><g transform="translate(-117.63 -486)"><g transform="translate(-402 -50)"><g transform="translate(546.678 536.5)"><path d="M1027.739,189.986l2.557-14.568a2.383,2.383,0,0,0-2.434-2.725h0a2.42,2.42,0,0,0-2.459,2.146l-1.333,15.148Z" transform="translate(-1008.846 -156.569)" fill="none" stroke="#242549" stroke-miterlimit="10" stroke-width="1"/><path d="M1017.794,189.986V175.034a2.406,2.406,0,0,0-2.467-2.341h-.062a2.394,2.394,0,0,0-2.46,2.536l1.3,14.758Z" transform="translate(-1006.262 -156.569)" fill="none" stroke="#242549" stroke-miterlimit="10" stroke-width="1"/><path d="M1021.811,172.693h-.062a2.407,2.407,0,0,0-2.468,2.341v14.953h3.69l1.3-14.758A2.4,2.4,0,0,0,1021.811,172.693Z" transform="translate(-1007.749 -156.569)" fill="none" stroke="#242549" stroke-miterlimit="10" stroke-width="1"/><path d="M1008.839,172.693h0a2.383,2.383,0,0,0-2.434,2.725l2.557,14.568h3.669l-1.333-15.148A2.42,2.42,0,0,0,1008.839,172.693Z" transform="translate(-1004.789 -156.569)" fill="none" stroke="#242549" stroke-miterlimit="10" stroke-width="1"/><line x1="0.634" y1="3.509" transform="translate(3.67 18.507)" fill="none" stroke="#242549" stroke-miterlimit="10" stroke-width="1"/><line x1="0.551" y1="3.217" transform="translate(5.226 26.783)" fill="none" stroke="#242549" stroke-miterlimit="10" stroke-width="1"/><line y1="1.797" x2="0.123" transform="translate(14.38 18.507)" fill="none" stroke="#242549" stroke-miterlimit="10" stroke-width="1"/><line y1="7.847" x2="0.535" transform="translate(13.707 22.328)" fill="none" stroke="#242549" stroke-miterlimit="10" stroke-width="1"/><path d="M1026.307,153.219a1.317,1.317,0,0,0-.192.019,1.129,1.129,0,0,0,.033-.262,1.269,1.269,0,0,0-2.535,0,1.153,1.153,0,0,0,.258.72,1.2,1.2,0,0,0-.735,1.088,1.236,1.236,0,0,0,1.268,1.2,1.272,1.272,0,0,0,1.11-.634,1.3,1.3,0,0,0,.795.272,1.2,1.2,0,1,0,0-2.4Z" transform="translate(-1008.632 -151.773)" fill="none" stroke="#242549" stroke-miterlimit="10" stroke-width="1"/><path d="M1004.854,161.575a1.355,1.355,0,0,0,.168.091,1.243,1.243,0,0,0-.187.2,1.164,1.164,0,0,0,.3,1.676,1.312,1.312,0,0,0,1.767-.286,1.152,1.152,0,0,0,.228-.729,1.3,1.3,0,0,0,1.263-.485,1.164,1.164,0,0,0-.3-1.676,1.32,1.32,0,0,0-1.292-.091,1.189,1.189,0,0,0-.482-.658,1.312,1.312,0,0,0-1.767.287A1.163,1.163,0,0,0,1004.854,161.575Z" transform="translate(-1004.319 -153.52)" fill="none" stroke="#242549" stroke-miterlimit="10" stroke-width="1"/><path d="M1033.773,158.625a1.236,1.236,0,0,0-1.268-1.2,1.285,1.285,0,0,0-1.006.479,1.315,1.315,0,0,0-.483-.092,1.236,1.236,0,0,0-1.267,1.2,1.131,1.131,0,0,0,.022.213,1.169,1.169,0,0,0-.408.879,1.236,1.236,0,0,0,1.268,1.2A1.288,1.288,0,0,1,1032,161.2a1.236,1.236,0,0,0,1.267-1.2,1.128,1.128,0,0,0-.067-.368A1.186,1.186,0,0,0,1033.773,158.625Z" transform="translate(-1010.06 -153.068)" fill="none" stroke="#242549" stroke-miterlimit="10" stroke-width="1"/><path d="M1025.931,170.2a1.236,1.236,0,0,0-1.267-1.2,1.285,1.285,0,0,0-1.006.479,1.321,1.321,0,0,0-.483-.092,1.237,1.237,0,0,0-1.268,1.2" transform="translate(-1008.351 -155.723)" fill="none" stroke="#242549" stroke-miterlimit="10" stroke-width="1"/><path d="M1021.148,167.434a1.442,1.442,0,0,0-.744-.7,1.538,1.538,0,0,0-.95-.076,1.444,1.444,0,0,0-.563-.428,1.509,1.509,0,0,0-1.95.709,1.337,1.337,0,0,0-.113.422,1.466,1.466,0,0,0-1.108.811,1.349,1.349,0,0,0-.128.526" transform="translate(-1006.903 -155.059)" fill="none" stroke="#242549" stroke-miterlimit="10" stroke-width="1"/><path d="M1014.412,155.2a1.236,1.236,0,0,0-1.267-1.2,1.285,1.285,0,0,0-1.006.479,1.319,1.319,0,0,0-.483-.092,1.236,1.236,0,0,0-1.267,1.2,1.131,1.131,0,0,0,.022.213,1.166,1.166,0,0,0-.408.879,1.236,1.236,0,0,0,1.268,1.2,1.3,1.3,0,0,0,.772-.256,1.313,1.313,0,0,0,.6.149,1.236,1.236,0,0,0,1.267-1.2,1.124,1.124,0,0,0-.067-.368A1.187,1.187,0,0,0,1014.412,155.2Z" transform="translate(-1005.622 -152.282)" fill="none" stroke="#242549" stroke-miterlimit="10" stroke-width="1"/><g transform="translate(2.008 6.778)"><path d="M1025.425,170.274a1.236,1.236,0,0,0,1.267-1.2,1.168,1.168,0,0,0-.4-.871,1.151,1.151,0,0,0,.226-.684,1.236,1.236,0,0,0-1.267-1.2,1.32,1.32,0,0,0-.433.077,1.387,1.387,0,0,0,.515-.963,1.236,1.236,0,0,0-1.267-1.2,1.3,1.3,0,0,0-.871.332,1.258,1.258,0,0,0-1.2-.823,1.3,1.3,0,0,0-.846.313,1.256,1.256,0,0,0-1.034-.747.927.927,0,0,0-.02-.431,1.2,1.2,0,0,0,.76-1.1,1.236,1.236,0,0,0-1.267-1.2,1.287,1.287,0,0,0-1.033.509,1.3,1.3,0,0,0-.684-.193,1.283,1.283,0,0,1-2.408-.143,1.237,1.237,0,0,0-1.268,1.2,1.152,1.152,0,0,0,.272.736,1.373,1.373,0,0,0-.272-.029,1.236,1.236,0,0,0-1.267,1.2,1.129,1.129,0,0,0,.068.372,1.256,1.256,0,0,0-.3.205,1.3,1.3,0,0,0-.892-.349,1.284,1.284,0,0,0-1.06.545,1.3,1.3,0,0,0-.737-.227,1.236,1.236,0,0,0-1.268,1.2,1.119,1.119,0,0,1-.244,1.2,1.183,1.183,0,0,0,.512.967l-.2.392a1.31,1.31,0,0,0-.624-.156,1.236,1.236,0,0,0-1.267,1.2,1.2,1.2,0,0,0,.682,1.067" transform="translate(-1006.924 -160.567)" fill="none" stroke="#242549" stroke-miterlimit="2" stroke-width="1"/></g></g></g><path d="M-34.35,0h2.26l-3.06-7.76L-32.09-14h-2.2l-2.88,6.1V-14h-2.2V0h2.2V-4.3l.68-1.28Zm7.16-6.42.9-3.44V0h1.98V-14h-2.42l-1.8,5.78-.8,3.08V-14h-1.96V0h2.26Zm6.44.42h2.5V0h2.24V-14h-2.24v6h-2.5v-6h-2.2V0h2.2Zm8.16-4.78c0-1,.44-1.38,1.14-1.38s1.14.38,1.14,1.38v7.56c0,1-.44,1.38-1.14,1.38s-1.14-.38-1.14-1.38Zm-2.2,7.42c0,2.24,1.18,3.52,3.34,3.52s3.34-1.28,3.34-3.52v-7.28c0-2.24-1.18-3.52-3.34-3.52s-3.34,1.28-3.34,3.52ZM-7.53-12h2.3V0h2.2V-12h2.3v-2h-6.8Zm9.76,0h3.8v-2h-6V0h6V-2H2.23V-6.1H5.25v-2H2.23Zm9.84-2H8.85L6.61,0H8.63l.38-2.54h2.7L12.09,0h2.22Zm-1.72,2.48,1.06,7.08H9.29ZM14.49-12h2.3V0h2.2V-12h2.3v-2h-6.8Zm10.8-2H22.05V0h2.2V-5.26h1.04c2.2,0,3.28-1.22,3.28-3.46v-1.82C28.57-12.78,27.49-14,25.29-14Zm0,2c.7,0,1.08.32,1.08,1.32v2.1c0,1-.38,1.32-1.08,1.32H24.25V-12ZM32.63,0c2.2,0,3.28-1.22,3.28-3.46V-5.28c0-2.24-1.08-3.46-3.28-3.46H31.59V-14h-2.2V0ZM31.59-2V-6.74h1.04c.7,0,1.08.32,1.08,1.32v2.1c0,1-.38,1.32-1.08,1.32Zm7.78,2V-14h-2.2V0Z" transform="translate(157 577)" fill="#242549" opacity="0.5"/><path d="M-25.8-5.65V-4.2c0,2.8,1.4,4.4,4.1,4.4s4.1-1.6,4.1-4.4V-8.1c0-2.575-1.025-4-3.05-4a2.623,2.623,0,0,0-2.4,1.275L-22.825-15h4.775v-2.5H-25.3l-.5,10.15h2.6v-.525c0-1.25.55-1.725,1.425-1.725s1.425.475,1.425,1.725v3.85c0,1.25-.55,1.7-1.425,1.7s-1.425-.45-1.425-1.7V-5.65ZM-7.775-4.2V-5.575c0-1.675-.5-2.975-1.7-3.65a3.676,3.676,0,0,0,1.7-3.525v-.55c0-2.8-1.525-4.4-4.3-4.4s-4.3,1.6-4.3,4.4v.55c0,1.725.55,2.9,1.7,3.525-1.2.675-1.7,1.975-1.7,3.65V-4.2c0,2.8,1.525,4.4,4.3,4.4S-7.775-1.4-7.775-4.2Zm-5.85-.075V-5.9c0-1.375.575-1.975,1.55-1.975s1.55.6,1.55,1.975v1.625C-10.55-2.725-11.2-2.3-12.075-2.3S-13.625-2.725-13.625-4.275Zm0-8.925c0-1.575.675-2,1.55-2s1.55.425,1.55,2v.975c0,1.4-.675,1.85-1.55,1.85-.9,0-1.55-.45-1.55-1.85ZM3.525,0H6.35L2.525-9.7,6.35-17.5H3.6L0-9.875V-17.5H-2.75V0H0V-5.375l.85-1.6Zm6.35-13.475c0-1.25.55-1.725,1.425-1.725s1.425.475,1.425,1.725v9.45c0,1.25-.55,1.725-1.425,1.725S9.875-2.775,9.875-4.025ZM7.125-4.2C7.125-1.4,8.6.2,11.3.2s4.175-1.6,4.175-4.4v-9.1c0-2.8-1.475-4.4-4.175-4.4s-4.175,1.6-4.175,4.4ZM19.75-15h3.125V0h2.8V-17.5H17V0h2.75Z" transform="translate(155 552)" fill="#242549"/></g></svg>