<svg xmlns="http://www.w3.org/2000/svg" width="276.9" height="90.88" viewBox="0 0 276.9 90.88"><g transform="translate(-502.206 -854)"><path d="M-133.5,0h2.26l-3.06-7.76,3.06-6.24h-2.2l-2.88,6.1V-14h-2.2V0h2.2V-4.3l.68-1.28Zm7.2-6.42.9-3.44V0h1.98V-14h-2.42l-1.8,5.78-.8,3.08V-14h-1.96V0h2.26Zm6.48.42h2.5V0h2.24V-14h-2.24v6h-2.5v-6h-2.2V0h2.2Zm8.2-4.78c0-1,.44-1.38,1.14-1.38s1.14.38,1.14,1.38v7.56c0,1-.44,1.38-1.14,1.38s-1.14-.38-1.14-1.38Zm-2.2,7.42c0,2.24,1.18,3.52,3.34,3.52s3.34-1.28,3.34-3.52v-7.28c0-2.24-1.18-3.52-3.34-3.52s-3.34,1.28-3.34,3.52Zm7.3-8.64h2.3V0h2.2V-12h2.3v-2h-6.8Zm9.8,0h3.8v-2h-6V0h6V-2h-3.8V-6.1h3.02v-2h-3.02Zm9.88-2h-3.22L-92.3,0h2.02l.38-2.54h2.7L-86.82,0h2.22Zm-1.72,2.48,1.06,7.08h-2.12Zm4.18-.48h2.3V0h2.2V-12h2.3v-2h-6.8Zm10.84-2h-3.24V0h2.2V-5.26h1.04c2.2,0,3.28-1.22,3.28-3.46v-1.82C-70.26-12.78-71.34-14-73.54-14Zm0,2c.7,0,1.08.32,1.08,1.32v2.1c0,1-.38,1.32-1.08,1.32h-1.04V-12Zm7.38,12c2.2,0,3.28-1.22,3.28-3.46V-5.28c0-2.24-1.08-3.46-3.28-3.46H-67.2V-14h-2.2V0ZM-67.2-2V-6.74h1.04c.7,0,1.08.32,1.08,1.32v2.1c0,1-.38,1.32-1.08,1.32Zm7.78,2V-14h-2.2V0Zm8.32-10.48h-1.56v2.7h-2.68v1.56h2.68v2.74h1.56V-6.22h2.68V-7.78H-51.1Zm10.86,4.06.9-3.44V0h1.98V-14h-2.42l-1.8,5.78-.8,3.08V-14h-1.96V0h2.26Zm6.48.42h2.5V0h2.24V-14h-2.24v6h-2.5v-6h-2.2V0h2.2Zm5.54-6h2.3V0h2.2V-12h2.3v-2h-6.8Zm9.8,0h3.8v-2h-6V0h6V-2h-3.8V-6.1h3.02v-2h-3.02Zm8.24-2h-3.24V0h2.2V-5.26h1.04c2.2,0,3.28-1.22,3.28-3.46v-1.82C-6.9-12.78-7.98-14-10.18-14Zm0,2c.7,0,1.08.32,1.08,1.32v2.1c0,1-.38,1.32-1.08,1.32h-1.04V-12Zm6.34,6h2.5V0H.9V-14H-1.34v6h-2.5v-6h-2.2V0h2.2Zm8.38-6h3.8v-2h-6V0h6V-2H4.54V-6.1H7.56v-2H4.54ZM8.9-12h2.3V0h2.2V-12h2.3v-2H8.9Zm14.48,1.52H21.82v2.7H19.14v1.56h2.68v2.74h1.56V-6.22h2.68V-7.78H23.38ZM29.5-12h2.3V0H34V-12h2.3v-2H29.5Zm10.92-2H37.1V0h3.46c2.2,0,3.34-1.16,3.34-3.32V-4.46c0-1.48-.46-2.54-1.64-3,.98-.46,1.42-1.38,1.42-2.82v-.5C43.68-12.94,42.7-14,40.42-14Zm-.14,7.7c1,0,1.42.4,1.42,1.7v1.22C41.7-2.34,41.3-2,40.56-2H39.3V-6.3Zm.08-5.7c.78,0,1.12.44,1.12,1.44v.78c0,1.12-.5,1.48-1.32,1.48H39.3V-12Zm10.86-2c-2.2,0-3.08.82-3.08,3.06v7.88c0,2.24.88,3.06,3.08,3.06h.68V-1.8h-.54c-.7,0-1.02-.26-1.02-1.26v-7.88c0-1,.32-1.26,1.02-1.26h.54V-14Zm3.66,3.22c0-1,.44-1.38,1.14-1.38s1.14.38,1.14,1.38v7.56c0,1-.44,1.38-1.14,1.38s-1.14-.38-1.14-1.38Zm-2.2,7.42c0,2.24,1.18,3.52,3.34,3.52s3.34-1.28,3.34-3.52v-7.28c0-2.24-1.18-3.52-3.34-3.52s-3.34,1.28-3.34,3.52ZM69.16,1.88V-1.96H68.2V-14H62.04l-.5,10.22A2.9,2.9,0,0,1,61-1.96h-.86V1.88h2.14V0h4.7V1.88ZM64.1-12h1.86V-1.96H63.08a2.48,2.48,0,0,0,.62-1.86ZM74.32-6.42l.9-3.44V0H77.2V-14H74.78l-1.8,5.78-.8,3.08V-14H70.22V0h2.26ZM80.8-6h2.5V0h2.24V-14H83.3v6H80.8v-6H78.6V0h2.2Zm12.44-8H89.92V0h3.46c2.2,0,3.34-1.16,3.34-3.32V-4.46c0-1.48-.46-2.54-1.64-3,.98-.46,1.42-1.38,1.42-2.82v-.5C96.5-12.94,95.52-14,93.24-14ZM93.1-6.3c1,0,1.42.4,1.42,1.7v1.22c0,1.04-.4,1.38-1.14,1.38H92.12V-6.3Zm.08-5.7c.78,0,1.12.44,1.12,1.44v.78c0,1.12-.5,1.48-1.32,1.48h-.86V-12Zm7.94,12c2.2,0,3.28-1.22,3.28-3.46V-5.28c0-2.24-1.08-3.46-3.28-3.46h-1.04V-14h-2.2V0Zm-1.04-2V-6.74h1.04c.7,0,1.08.32,1.08,1.32v2.1c0,1-.38,1.32-1.08,1.32Zm7.78,2V-14h-2.2V0Zm6.74-14-1.7,5.16L111.24-14h-2.28l2.3,6.8L108.8,0h2.06l1.82-5.54L114.48,0h2.32l-2.46-7.2,2.3-6.8Zm5.16,3.22c0-1,.44-1.38,1.14-1.38s1.14.38,1.14,1.38v7.56c0,1-.44,1.38-1.14,1.38s-1.14-.38-1.14-1.38Zm-2.2,7.42c0,2.24,1.18,3.52,3.34,3.52s3.34-1.28,3.34-3.52v-7.28c0-2.24-1.18-3.52-3.34-3.52s-3.34,1.28-3.34,3.52Zm16.48,5.24V-1.96h-.96V-14h-6.16l-.5,10.22a2.9,2.9,0,0,1-.54,1.82h-.86V1.88h2.14V0h4.7V1.88ZM128.98-12h1.86V-1.96h-2.88a2.48,2.48,0,0,0,.62-1.86Zm5.64-2v1.8h.54c.7,0,1.02.26,1.02,1.26v7.88c0,1-.32,1.26-1.02,1.26h-.54V0h.68c2.2,0,3.08-.82,3.08-3.06v-7.88c0-2.24-.88-3.06-3.08-3.06Z" transform="translate(640.726 943)" fill="#242549" opacity="0.5"/><path d="M-38.3-16.17c0-1.5.66-2.07,1.71-2.07s1.71.57,1.71,2.07V-4.83c0,1.5-.66,2.07-1.71,2.07s-1.71-.57-1.71-2.07ZM-41.6-5.04c0,3.36,1.77,5.28,5.01,5.28s5.01-1.92,5.01-5.28V-15.96c0-3.36-1.77-5.28-5.01-5.28s-5.01,1.92-5.01,5.28Zm11.85,1.86V0h3.18V-3.18Zm7.32-12.84h2.55V0h3.3V-21H-18.8c-.51,1.41-1.08,2.64-3.63,2.64ZM-13.1-21v3h6.57l-4.83,18h3.3L-3.2-18.12V-21Zm21,0H3.045V0h3.3V-7.89H7.9c3.3,0,4.92-1.83,4.92-5.19v-2.73C12.825-19.17,11.2-21,7.9-21Zm0,3c1.05,0,1.62.48,1.62,1.98v3.15c0,1.5-.57,1.98-1.62,1.98H6.345V-18Zm17.01-3h-3.45l-1.5,7.2-.78,4.89-1.02-4.92L16.365-21h-3.27l4.56,16.2-.03.18c-.27,1.53-1.23,1.83-2.91,1.71V.03c4.59.3,5.88-1.59,6.66-5.37Zm6.33,21c3.3,0,4.98-1.83,4.98-5.19V-7.44c0-3.36-1.68-5.19-4.98-5.19h-1.92V-18h5.94v-3h-9.24V0Zm-1.92-3V-9.63h1.92c1.05,0,1.68.48,1.68,1.98v2.67c0,1.5-.63,1.98-1.68,1.98Zm8.82-.18V0h3.18V-3.18Z" transform="translate(640.726 920)" fill="#242549"/><g transform="translate(40.726 318)"><g transform="translate(546.678 536.5)"><path d="M1027.739,189.986l2.557-14.568a2.383,2.383,0,0,0-2.434-2.725h0a2.42,2.42,0,0,0-2.459,2.146l-1.333,15.148Z" transform="translate(-1008.846 -156.569)" fill="none" stroke="#242549" stroke-miterlimit="10" stroke-width="1"/><path d="M1017.794,189.986V175.034a2.406,2.406,0,0,0-2.467-2.341h-.062a2.394,2.394,0,0,0-2.46,2.536l1.3,14.758Z" transform="translate(-1006.262 -156.569)" fill="none" stroke="#242549" stroke-miterlimit="10" stroke-width="1"/><path d="M1021.811,172.693h-.062a2.407,2.407,0,0,0-2.468,2.341v14.953h3.69l1.3-14.758A2.4,2.4,0,0,0,1021.811,172.693Z" transform="translate(-1007.749 -156.569)" fill="none" stroke="#242549" stroke-miterlimit="10" stroke-width="1"/><path d="M1008.839,172.693h0a2.383,2.383,0,0,0-2.434,2.725l2.557,14.568h3.669l-1.333-15.148A2.42,2.42,0,0,0,1008.839,172.693Z" transform="translate(-1004.789 -156.569)" fill="none" stroke="#242549" stroke-miterlimit="10" stroke-width="1"/><line x1="0.634" y1="3.509" transform="translate(3.67 18.507)" fill="none" stroke="#242549" stroke-miterlimit="10" stroke-width="1"/><line x1="0.551" y1="3.217" transform="translate(5.226 26.783)" fill="none" stroke="#242549" stroke-miterlimit="10" stroke-width="1"/><line y1="1.797" x2="0.123" transform="translate(14.38 18.507)" fill="none" stroke="#242549" stroke-miterlimit="10" stroke-width="1"/><line y1="7.847" x2="0.535" transform="translate(13.707 22.328)" fill="none" stroke="#242549" stroke-miterlimit="10" stroke-width="1"/><path d="M1026.307,153.219a1.317,1.317,0,0,0-.192.019,1.129,1.129,0,0,0,.033-.262,1.269,1.269,0,0,0-2.535,0,1.153,1.153,0,0,0,.258.72,1.2,1.2,0,0,0-.735,1.088,1.236,1.236,0,0,0,1.268,1.2,1.272,1.272,0,0,0,1.11-.634,1.3,1.3,0,0,0,.795.272,1.2,1.2,0,1,0,0-2.4Z" transform="translate(-1008.632 -151.773)" fill="none" stroke="#242549" stroke-miterlimit="10" stroke-width="1"/><path d="M1004.854,161.575a1.355,1.355,0,0,0,.168.091,1.243,1.243,0,0,0-.187.2,1.164,1.164,0,0,0,.3,1.676,1.312,1.312,0,0,0,1.767-.286,1.152,1.152,0,0,0,.228-.729,1.3,1.3,0,0,0,1.263-.485,1.164,1.164,0,0,0-.3-1.676,1.32,1.32,0,0,0-1.292-.091,1.189,1.189,0,0,0-.482-.658,1.312,1.312,0,0,0-1.767.287A1.163,1.163,0,0,0,1004.854,161.575Z" transform="translate(-1004.319 -153.52)" fill="none" stroke="#242549" stroke-miterlimit="10" stroke-width="1"/><path d="M1033.773,158.625a1.236,1.236,0,0,0-1.268-1.2,1.285,1.285,0,0,0-1.006.479,1.315,1.315,0,0,0-.483-.092,1.236,1.236,0,0,0-1.267,1.2,1.131,1.131,0,0,0,.022.213,1.169,1.169,0,0,0-.408.879,1.236,1.236,0,0,0,1.268,1.2A1.288,1.288,0,0,1,1032,161.2a1.236,1.236,0,0,0,1.267-1.2,1.128,1.128,0,0,0-.067-.368A1.186,1.186,0,0,0,1033.773,158.625Z" transform="translate(-1010.06 -153.068)" fill="none" stroke="#242549" stroke-miterlimit="10" stroke-width="1"/><path d="M1025.931,170.2a1.236,1.236,0,0,0-1.267-1.2,1.285,1.285,0,0,0-1.006.479,1.321,1.321,0,0,0-.483-.092,1.237,1.237,0,0,0-1.268,1.2" transform="translate(-1008.351 -155.723)" fill="none" stroke="#242549" stroke-miterlimit="10" stroke-width="1"/><path d="M1021.148,167.434a1.442,1.442,0,0,0-.744-.7,1.538,1.538,0,0,0-.95-.076,1.444,1.444,0,0,0-.563-.428,1.509,1.509,0,0,0-1.95.709,1.337,1.337,0,0,0-.113.422,1.466,1.466,0,0,0-1.108.811,1.349,1.349,0,0,0-.128.526" transform="translate(-1006.903 -155.059)" fill="none" stroke="#242549" stroke-miterlimit="10" stroke-width="1"/><path d="M1014.412,155.2a1.236,1.236,0,0,0-1.267-1.2,1.285,1.285,0,0,0-1.006.479,1.319,1.319,0,0,0-.483-.092,1.236,1.236,0,0,0-1.267,1.2,1.131,1.131,0,0,0,.022.213,1.166,1.166,0,0,0-.408.879,1.236,1.236,0,0,0,1.268,1.2,1.3,1.3,0,0,0,.772-.256,1.313,1.313,0,0,0,.6.149,1.236,1.236,0,0,0,1.267-1.2,1.124,1.124,0,0,0-.067-.368A1.187,1.187,0,0,0,1014.412,155.2Z" transform="translate(-1005.622 -152.282)" fill="none" stroke="#242549" stroke-miterlimit="10" stroke-width="1"/><g transform="translate(2.008 6.778)"><path d="M1025.425,170.274a1.236,1.236,0,0,0,1.267-1.2,1.168,1.168,0,0,0-.4-.871,1.151,1.151,0,0,0,.226-.684,1.236,1.236,0,0,0-1.267-1.2,1.32,1.32,0,0,0-.433.077,1.387,1.387,0,0,0,.515-.963,1.236,1.236,0,0,0-1.267-1.2,1.3,1.3,0,0,0-.871.332,1.258,1.258,0,0,0-1.2-.823,1.3,1.3,0,0,0-.846.313,1.256,1.256,0,0,0-1.034-.747.927.927,0,0,0-.02-.431,1.2,1.2,0,0,0,.76-1.1,1.236,1.236,0,0,0-1.267-1.2,1.287,1.287,0,0,0-1.033.509,1.3,1.3,0,0,0-.684-.193,1.283,1.283,0,0,1-2.408-.143,1.237,1.237,0,0,0-1.268,1.2,1.152,1.152,0,0,0,.272.736,1.373,1.373,0,0,0-.272-.029,1.236,1.236,0,0,0-1.267,1.2,1.129,1.129,0,0,0,.068.372,1.256,1.256,0,0,0-.3.205,1.3,1.3,0,0,0-.892-.349,1.284,1.284,0,0,0-1.06.545,1.3,1.3,0,0,0-.737-.227,1.236,1.236,0,0,0-1.268,1.2,1.119,1.119,0,0,1-.244,1.2,1.183,1.183,0,0,0,.512.967l-.2.392a1.31,1.31,0,0,0-.624-.156,1.236,1.236,0,0,0-1.267,1.2,1.2,1.2,0,0,0,.682,1.067" transform="translate(-1006.924 -160.567)" fill="none" stroke="#242549" stroke-miterlimit="2" stroke-width="1"/></g></g><g transform="translate(586.161 536.837)"><path d="M3273.7-424.237h17.333V-406.8H3273.7" transform="translate(-3273.702 424.237)" fill="none" stroke="#242549" stroke-miterlimit="10" stroke-width="1"/><path d="M3286.287-407.675l-5-2.885v5.77Z" transform="translate(-3278.546 415.508)" fill="none" stroke="#242549" stroke-miterlimit="10" stroke-width="1"/><path d="M3273.7-418.314h15.191v11.045H3273.7" transform="translate(-3273.703 420.457)" fill="none" stroke="#242549" stroke-miterlimit="10" stroke-width="1"/><line x2="10.766" transform="translate(4.371 15.239)" fill="none" stroke="#242549" stroke-miterlimit="10" stroke-width="1"/><line x2="1.211" transform="translate(0.001 15.239)" fill="none" stroke="#242549" stroke-miterlimit="10" stroke-width="1"/><line y2="1.612" transform="translate(2.791 14.434)" fill="none" stroke="#242549" stroke-miterlimit="10" stroke-width="1"/><path d="M3273.884-375.952h20.652v2.6h-20.652" transform="translate(-3273.819 393.421)" fill="none" stroke="#242549" stroke-miterlimit="10" stroke-width="1"/><path d="M3273.722-368.777h24.327v2.533h-24.331" transform="translate(-3273.712 388.842)" fill="none" stroke="#242549" stroke-miterlimit="10" stroke-width="1"/><path d="M3323.969-350.957v-10.82H3327v10.82" transform="translate(-3306.278 384.375)" fill="none" stroke="#242549" stroke-miterlimit="10" stroke-width="1"/><line x2="7.168" transform="translate(1.809 18.146)" fill="none" stroke="#242549" stroke-miterlimit="10" stroke-width="1"/></g><g transform="translate(629.503 536.837)"><line y2="4.683" transform="translate(24.109 28.734)" fill="none" stroke="#242549" stroke-miterlimit="10" stroke-width="1"/><path d="M3347.137-332.245h21.429v17.379h-13.2" transform="translate(-3347.137 332.245)" fill="none" stroke="#242549" stroke-miterlimit="10" stroke-width="1"/><g transform="translate(0.448 6.502)"><rect width="7.779" height="19.815" fill="none" stroke="#242549" stroke-miterlimit="10" stroke-width="1"/><line x2="2.047" transform="translate(1.433 2.26)" fill="none" stroke="#242549" stroke-miterlimit="10" stroke-width="1"/><g transform="translate(1.433 6.335)"><line x2="0.896" fill="none" stroke="#242549" stroke-miterlimit="10" stroke-width="1"/><line x2="0.896" transform="translate(0 2.271)" fill="none" stroke="#242549" stroke-miterlimit="10" stroke-width="1"/><line x2="0.896" transform="translate(0 4.542)" fill="none" stroke="#242549" stroke-miterlimit="10" stroke-width="1"/><line x2="0.896" transform="translate(2.008)" fill="none" stroke="#242549" stroke-miterlimit="10" stroke-width="1"/><line x2="0.896" transform="translate(2.008 2.271)" fill="none" stroke="#242549" stroke-miterlimit="10" stroke-width="1"/><line x2="0.896" transform="translate(2.008 4.542)" fill="none" stroke="#242549" stroke-miterlimit="10" stroke-width="1"/></g><g transform="translate(5.45 6.335)"><line x2="0.896" fill="none" stroke="#242549" stroke-miterlimit="10" stroke-width="1"/><line x2="0.896" transform="translate(0 2.271)" fill="none" stroke="#242549" stroke-miterlimit="10" stroke-width="1"/><line x2="0.896" transform="translate(0 4.542)" fill="none" stroke="#242549" stroke-miterlimit="10" stroke-width="1"/></g><line y2="3.022" transform="translate(3.889 13.386)" fill="none" stroke="#242549" stroke-miterlimit="10" stroke-width="1"/><line x1="3.022" transform="translate(2.391 14.897)" fill="none" stroke="#242549" stroke-miterlimit="10" stroke-width="1"/></g><line x1="13.202" transform="translate(8.227 15.229)" fill="none" stroke="#242549" stroke-miterlimit="10" stroke-width="1"/><line x1="21.429" transform="translate(0 2.15)" fill="none" stroke="#242549" stroke-miterlimit="10" stroke-width="1"/><line y2="2.857" transform="translate(10.714 17.379)" fill="none" stroke="#242549" stroke-miterlimit="10" stroke-width="1"/><line x1="4.875" transform="translate(8.227 20.243)" fill="none" stroke="#242549" stroke-miterlimit="10" stroke-width="1"/><line x1="4.875" transform="translate(8.227 23.281)" fill="none" stroke="#242549" stroke-miterlimit="10" stroke-width="1"/><line x1="4.875" transform="translate(8.227 30.884)" fill="none" stroke="#242549" stroke-miterlimit="10" stroke-width="1"/><line x1="15.883" transform="translate(8.227 21.131)" fill="none" stroke="#242549" stroke-miterlimit="10" stroke-width="1"/><path d="M3347.138-265.662h24.11v-7.6h-15.883" transform="translate(-3347.138 294.396)" fill="none" stroke="#242549" stroke-miterlimit="10" stroke-width="1"/></g><g transform="translate(574.343 551.022)"><line y1="5" transform="translate(2.657 -0.022)" fill="none" stroke="#242549" stroke-width="1"/><line y1="5.27" transform="translate(0 2.581) rotate(-90)" fill="none" stroke="#242549" stroke-width="1"/></g><g transform="translate(617.343 551.022)"><line y1="5" transform="translate(2.657 -0.022)" fill="none" stroke="#242549" stroke-width="1"/><line y1="5.27" transform="translate(0 2.581) rotate(-90)" fill="none" stroke="#242549" stroke-width="1"/></g></g></g></svg>