<svg xmlns="http://www.w3.org/2000/svg" width="153.42" height="91.16" viewBox="0 0 153.42 91.16"><g transform="translate(-258.61 -486)"><g transform="translate(-244 -50)"><g transform="translate(546.678 536.5)"><path d="M1027.739,189.986l2.557-14.568a2.383,2.383,0,0,0-2.434-2.725h0a2.42,2.42,0,0,0-2.459,2.146l-1.333,15.148Z" transform="translate(-1008.846 -156.569)" fill="none" stroke="#242549" stroke-miterlimit="10" stroke-width="1"/><path d="M1017.794,189.986V175.034a2.406,2.406,0,0,0-2.467-2.341h-.062a2.394,2.394,0,0,0-2.46,2.536l1.3,14.758Z" transform="translate(-1006.262 -156.569)" fill="none" stroke="#242549" stroke-miterlimit="10" stroke-width="1"/><path d="M1021.811,172.693h-.062a2.407,2.407,0,0,0-2.468,2.341v14.953h3.69l1.3-14.758A2.4,2.4,0,0,0,1021.811,172.693Z" transform="translate(-1007.749 -156.569)" fill="none" stroke="#242549" stroke-miterlimit="10" stroke-width="1"/><path d="M1008.839,172.693h0a2.383,2.383,0,0,0-2.434,2.725l2.557,14.568h3.669l-1.333-15.148A2.42,2.42,0,0,0,1008.839,172.693Z" transform="translate(-1004.789 -156.569)" fill="none" stroke="#242549" stroke-miterlimit="10" stroke-width="1"/><line x1="0.634" y1="3.509" transform="translate(3.67 18.507)" fill="none" stroke="#242549" stroke-miterlimit="10" stroke-width="1"/><line x1="0.551" y1="3.217" transform="translate(5.226 26.783)" fill="none" stroke="#242549" stroke-miterlimit="10" stroke-width="1"/><line y1="1.797" x2="0.123" transform="translate(14.38 18.507)" fill="none" stroke="#242549" stroke-miterlimit="10" stroke-width="1"/><line y1="7.847" x2="0.535" transform="translate(13.707 22.328)" fill="none" stroke="#242549" stroke-miterlimit="10" stroke-width="1"/><path d="M1026.307,153.219a1.317,1.317,0,0,0-.192.019,1.129,1.129,0,0,0,.033-.262,1.269,1.269,0,0,0-2.535,0,1.153,1.153,0,0,0,.258.72,1.2,1.2,0,0,0-.735,1.088,1.236,1.236,0,0,0,1.268,1.2,1.272,1.272,0,0,0,1.11-.634,1.3,1.3,0,0,0,.795.272,1.2,1.2,0,1,0,0-2.4Z" transform="translate(-1008.632 -151.773)" fill="none" stroke="#242549" stroke-miterlimit="10" stroke-width="1"/><path d="M1004.854,161.575a1.355,1.355,0,0,0,.168.091,1.243,1.243,0,0,0-.187.2,1.164,1.164,0,0,0,.3,1.676,1.312,1.312,0,0,0,1.767-.286,1.152,1.152,0,0,0,.228-.729,1.3,1.3,0,0,0,1.263-.485,1.164,1.164,0,0,0-.3-1.676,1.32,1.32,0,0,0-1.292-.091,1.189,1.189,0,0,0-.482-.658,1.312,1.312,0,0,0-1.767.287A1.163,1.163,0,0,0,1004.854,161.575Z" transform="translate(-1004.319 -153.52)" fill="none" stroke="#242549" stroke-miterlimit="10" stroke-width="1"/><path d="M1033.773,158.625a1.236,1.236,0,0,0-1.268-1.2,1.285,1.285,0,0,0-1.006.479,1.315,1.315,0,0,0-.483-.092,1.236,1.236,0,0,0-1.267,1.2,1.131,1.131,0,0,0,.022.213,1.169,1.169,0,0,0-.408.879,1.236,1.236,0,0,0,1.268,1.2A1.288,1.288,0,0,1,1032,161.2a1.236,1.236,0,0,0,1.267-1.2,1.128,1.128,0,0,0-.067-.368A1.186,1.186,0,0,0,1033.773,158.625Z" transform="translate(-1010.06 -153.068)" fill="none" stroke="#242549" stroke-miterlimit="10" stroke-width="1"/><path d="M1025.931,170.2a1.236,1.236,0,0,0-1.267-1.2,1.285,1.285,0,0,0-1.006.479,1.321,1.321,0,0,0-.483-.092,1.237,1.237,0,0,0-1.268,1.2" transform="translate(-1008.351 -155.723)" fill="none" stroke="#242549" stroke-miterlimit="10" stroke-width="1"/><path d="M1021.148,167.434a1.442,1.442,0,0,0-.744-.7,1.538,1.538,0,0,0-.95-.076,1.444,1.444,0,0,0-.563-.428,1.509,1.509,0,0,0-1.95.709,1.337,1.337,0,0,0-.113.422,1.466,1.466,0,0,0-1.108.811,1.349,1.349,0,0,0-.128.526" transform="translate(-1006.903 -155.059)" fill="none" stroke="#242549" stroke-miterlimit="10" stroke-width="1"/><path d="M1014.412,155.2a1.236,1.236,0,0,0-1.267-1.2,1.285,1.285,0,0,0-1.006.479,1.319,1.319,0,0,0-.483-.092,1.236,1.236,0,0,0-1.267,1.2,1.131,1.131,0,0,0,.022.213,1.166,1.166,0,0,0-.408.879,1.236,1.236,0,0,0,1.268,1.2,1.3,1.3,0,0,0,.772-.256,1.313,1.313,0,0,0,.6.149,1.236,1.236,0,0,0,1.267-1.2,1.124,1.124,0,0,0-.067-.368A1.187,1.187,0,0,0,1014.412,155.2Z" transform="translate(-1005.622 -152.282)" fill="none" stroke="#242549" stroke-miterlimit="10" stroke-width="1"/><g transform="translate(2.008 6.778)"><path d="M1025.425,170.274a1.236,1.236,0,0,0,1.267-1.2,1.168,1.168,0,0,0-.4-.871,1.151,1.151,0,0,0,.226-.684,1.236,1.236,0,0,0-1.267-1.2,1.32,1.32,0,0,0-.433.077,1.387,1.387,0,0,0,.515-.963,1.236,1.236,0,0,0-1.267-1.2,1.3,1.3,0,0,0-.871.332,1.258,1.258,0,0,0-1.2-.823,1.3,1.3,0,0,0-.846.313,1.256,1.256,0,0,0-1.034-.747.927.927,0,0,0-.02-.431,1.2,1.2,0,0,0,.76-1.1,1.236,1.236,0,0,0-1.267-1.2,1.287,1.287,0,0,0-1.033.509,1.3,1.3,0,0,0-.684-.193,1.283,1.283,0,0,1-2.408-.143,1.237,1.237,0,0,0-1.268,1.2,1.152,1.152,0,0,0,.272.736,1.373,1.373,0,0,0-.272-.029,1.236,1.236,0,0,0-1.267,1.2,1.129,1.129,0,0,0,.068.372,1.256,1.256,0,0,0-.3.205,1.3,1.3,0,0,0-.892-.349,1.284,1.284,0,0,0-1.06.545,1.3,1.3,0,0,0-.737-.227,1.236,1.236,0,0,0-1.268,1.2,1.119,1.119,0,0,1-.244,1.2,1.183,1.183,0,0,0,.512.967l-.2.392a1.31,1.31,0,0,0-.624-.156,1.236,1.236,0,0,0-1.267,1.2,1.2,1.2,0,0,0,.682,1.067" transform="translate(-1006.924 -160.567)" fill="none" stroke="#242549" stroke-miterlimit="2" stroke-width="1"/></g></g><g transform="translate(586.161 536.837)"><path d="M3273.7-424.237h17.333V-406.8H3273.7" transform="translate(-3273.702 424.237)" fill="none" stroke="#242549" stroke-miterlimit="10" stroke-width="1"/><path d="M3286.287-407.675l-5-2.885v5.77Z" transform="translate(-3278.546 415.508)" fill="none" stroke="#242549" stroke-miterlimit="10" stroke-width="1"/><path d="M3273.7-418.314h15.191v11.045H3273.7" transform="translate(-3273.703 420.457)" fill="none" stroke="#242549" stroke-miterlimit="10" stroke-width="1"/><line x2="10.766" transform="translate(4.371 15.239)" fill="none" stroke="#242549" stroke-miterlimit="10" stroke-width="1"/><line x2="1.211" transform="translate(0.001 15.239)" fill="none" stroke="#242549" stroke-miterlimit="10" stroke-width="1"/><line y2="1.612" transform="translate(2.791 14.434)" fill="none" stroke="#242549" stroke-miterlimit="10" stroke-width="1"/><path d="M3273.884-375.952h20.652v2.6h-20.652" transform="translate(-3273.819 393.421)" fill="none" stroke="#242549" stroke-miterlimit="10" stroke-width="1"/><path d="M3273.722-368.777h24.327v2.533h-24.331" transform="translate(-3273.712 388.842)" fill="none" stroke="#242549" stroke-miterlimit="10" stroke-width="1"/><path d="M3323.969-350.957v-10.82H3327v10.82" transform="translate(-3306.278 384.375)" fill="none" stroke="#242549" stroke-miterlimit="10" stroke-width="1"/><line x2="7.168" transform="translate(1.809 18.146)" fill="none" stroke="#242549" stroke-miterlimit="10" stroke-width="1"/></g><g transform="translate(574.343 551.022)"><line y1="5" transform="translate(2.657 -0.022)" fill="none" stroke="#242549" stroke-width="1"/><line y1="5.27" transform="translate(0 2.581) rotate(-90)" fill="none" stroke="#242549" stroke-width="1"/></g></g><path d="M-71.37,0h2.26l-3.06-7.76L-69.11-14h-2.2l-2.88,6.1V-14h-2.2V0h2.2V-4.3l.68-1.28Zm7.16-6.42.9-3.44V0h1.98V-14h-2.42l-1.8,5.78-.8,3.08V-14h-1.96V0h2.26Zm6.44.42h2.5V0h2.24V-14h-2.24v6h-2.5v-6h-2.2V0h2.2Zm8.16-4.78c0-1,.44-1.38,1.14-1.38s1.14.38,1.14,1.38v7.56c0,1-.44,1.38-1.14,1.38s-1.14-.38-1.14-1.38Zm-2.2,7.42c0,2.24,1.18,3.52,3.34,3.52s3.34-1.28,3.34-3.52v-7.28c0-2.24-1.18-3.52-3.34-3.52s-3.34,1.28-3.34,3.52ZM-44.55-12h2.3V0h2.2V-12h2.3v-2h-6.8Zm9.76,0h3.8v-2h-6V0h6V-2h-3.8V-6.1h3.02v-2h-3.02Zm9.84-2h-3.22L-30.41,0h2.02l.38-2.54h2.7L-24.93,0h2.22Zm-1.72,2.48,1.06,7.08h-2.12Zm4.14-.48h2.3V0h2.2V-12h2.3v-2h-6.8Zm10.8-2h-3.24V0h2.2V-5.26h1.04c2.2,0,3.28-1.22,3.28-3.46v-1.82C-8.45-12.78-9.53-14-11.73-14Zm0,2c.7,0,1.08.32,1.08,1.32v2.1c0,1-.38,1.32-1.08,1.32h-1.04V-12ZM-4.39,0c2.2,0,3.28-1.22,3.28-3.46V-5.28c0-2.24-1.08-3.46-3.28-3.46H-5.43V-14h-2.2V0ZM-5.43-2V-6.74h1.04c.7,0,1.08.32,1.08,1.32v2.1c0,1-.38,1.32-1.08,1.32ZM2.35,0V-14H.15V0Zm8.24-10.48H9.03v2.7H6.35v1.56H9.03v2.74h1.56V-6.22h2.68V-7.78H10.59ZM21.37-6.42l.9-3.44V0h1.98V-14H21.83l-1.8,5.78-.8,3.08V-14H17.27V0h2.26ZM27.81-6h2.5V0h2.24V-14H30.31v6h-2.5v-6h-2.2V0h2.2Zm5.5-6h2.3V0h2.2V-12h2.3v-2h-6.8Zm9.76,0h3.8v-2h-6V0h6V-2h-3.8V-6.1h3.02v-2H43.07Zm8.2-2H48.03V0h2.2V-5.26h1.04c2.2,0,3.28-1.22,3.28-3.46v-1.82C54.55-12.78,53.47-14,51.27-14Zm0,2c.7,0,1.08.32,1.08,1.32v2.1c0,1-.38,1.32-1.08,1.32H50.23V-12Zm6.3,6h2.5V0h2.24V-14H60.07v6h-2.5v-6h-2.2V0h2.2Zm8.34-6h3.8v-2h-6V0h6V-2h-3.8V-6.1h3.02v-2H65.91Zm4.32,0h2.3V0h2.2V-12h2.3v-2h-6.8Z" transform="translate(335 577)" fill="#242549" opacity="0.5"/><path d="M.825-4.2C.825-1.4,2.3.2,5,.2S9.175-1.4,9.175-4.2V-7.4c0-2.575-1.025-4-3.05-4a2.617,2.617,0,0,0-2.55,1.55v-3.2c0-1.675.55-2.15,1.525-2.15.875,0,1.425.475,1.425,1.725v.625h2.6v-.45c0-2.8-1.4-4.4-4.1-4.4-2.85,0-4.2,1.6-4.2,4.55ZM5-8.9c.875,0,1.425.475,1.425,1.725v3.15c0,1.25-.55,1.7-1.425,1.7s-1.425-.45-1.425-1.7v-3.15C3.575-8.425,4.125-8.9,5-8.9ZM20.55,0h2.825L19.55-9.7l3.825-7.8h-2.75l-3.6,7.625V-17.5h-2.75V0h2.75V-5.375l.85-1.6ZM26.9-13.475c0-1.25.55-1.725,1.425-1.725s1.425.475,1.425,1.725v9.45c0,1.25-.55,1.725-1.425,1.725S26.9-2.775,26.9-4.025ZM24.15-4.2c0,2.8,1.475,4.4,4.175,4.4S32.5-1.4,32.5-4.2v-9.1c0-2.8-1.475-4.4-4.175-4.4s-4.175,1.6-4.175,4.4ZM36.775-15H39.9V0h2.8V-17.5H34.025V0h2.75Z" transform="translate(311 552)" fill="#242549"/></g></svg>