<svg xmlns="http://www.w3.org/2000/svg" xmlns:xlink="http://www.w3.org/1999/xlink" width="746" height="417" viewBox="0 0 746 417"><defs><filter id="a" x="0" y="0" width="746" height="417" filterUnits="userSpaceOnUse"><feOffset dx="1" dy="3" input="SourceAlpha"/><feGaussianBlur stdDeviation="3" result="b"/><feFlood flood-opacity="0.149"/><feComposite operator="in" in2="b"/><feComposite in="SourceGraphic"/></filter></defs><g transform="translate(-94 -252)"><g transform="matrix(1, 0, 0, 1, 94, 252)" filter="url(#a)"><rect width="728" height="399" rx="8" transform="translate(8 6)" fill="#fff9ea"/></g><g transform="translate(102 258)"><text transform="translate(47 16)" fill="#242549" font-size="10" font-family="Helvetica-Bold, Helvetica" font-weight="700"><tspan x="0" y="0">Финансовая модель</tspan></text><path d="M8,0H182a0,0,0,0,1,0,0V310a0,0,0,0,1,0,0H0a0,0,0,0,1,0,0V8A8,8,0,0,1,8,0Z" fill="#e3ded5" opacity="0.5"/><path d="M0,0H406a8,8,0,0,1,8,8V310a0,0,0,0,1,0,0H0a0,0,0,0,1,0,0V0A0,0,0,0,1,0,0Z" transform="translate(314)" fill="#ffbe28" opacity="0.102"/><path d="M107.906,0h14.159l2.852,8.844-2.852,8.978H107.906l-2.691-8.6Z" transform="translate(288.908 367.267)" fill="#242549"/><text transform="translate(116.587 379.305)" fill="#fff9ea" font-size="17" font-family="BebasNeueBold, Bebas Neue"><tspan x="0" y="0">4%</tspan></text><text transform="translate(483.393 379.305)" fill="#fff9ea" font-size="17" font-family="BebasNeueBold, Bebas Neue"><tspan x="0" y="0">4%</tspan></text><path d="M3.692-14.335H.8V-1.841H2.763V-6.535h.928c1.963,0,2.927-1.089,2.927-3.088v-1.624C6.619-13.247,5.655-14.335,3.692-14.335Zm0,1.785c.625,0,.964.286.964,1.178V-9.5c0,.892-.339,1.178-.964,1.178H2.763v-4.23Zm5.8,0h3.391v-1.785H7.529V-1.841h5.355V-3.626H9.493V-7.285h2.7V-9.07h-2.7Zm9.085,10.71H20.6L17.864-8.766,20.6-14.335H18.632l-2.57,5.444v-5.444H14.1V-1.841h1.963V-5.678l.607-1.142Zm2.356.018h.3c1.963,0,2.785-.892,2.856-3.177l.214-7.55h1.714v10.71h2V-14.335H22.469l-.321,9.442c-.036,1.16-.321,1.285-1.214,1.285ZM33.875-14.335H31L29-1.841h1.8l.339-2.267h2.41l.339,2.267h1.981ZM32.34-12.122,33.286-5.8H31.394ZM39.5-14.335H36.767V-1.841H38.48v-8.835l1.464,8.835H41.8l1.357-8.96v8.96h1.856V-14.335H42.282L40.943-5.464ZM48.4-7.2h2.231v5.355h2V-14.335h-2v5.355H48.4v-5.355H46.441V-1.841H48.4Zm8.55,5.355c1.963,0,2.927-1.089,2.927-3.088V-6.553c0-2-.964-3.088-2.927-3.088h-.928v-4.694H54.063V-1.841Zm-.928-1.785v-4.23h.928c.625,0,.964.286.964,1.178V-4.8c0,.892-.339,1.178-.964,1.178ZM62.97-1.841V-14.335H61.006V-1.841Zm3.445,0H64.4V-14.335h1.749v7.907l.714-2.749,1.606-5.158h2.16V-1.841H68.86v-8.8l-.8,3.07ZM69.628-17.12a1.845,1.845,0,0,1-2.088,1.981,1.842,1.842,0,0,1-2.053-1.981H66.7c.054.66.321.821.839.821.535,0,.839-.161.892-.821ZM77.945-1.841c1.963,0,2.963-1.089,2.963-3.088V-6.268c0-2-1-3.088-2.963-3.088H76.8v-3.2h3.534v-1.785h-5.5V-1.841ZM76.8-3.626V-7.571h1.142c.625,0,1,.286,1,1.178V-4.8c0,.892-.375,1.178-1,1.178ZM85.656-4.84c0,2,1.053,3.142,2.981,3.142S91.618-2.84,91.618-4.84v-6.5c0-2-1.053-3.142-2.981-3.142s-2.981,1.142-2.981,3.142v2.356H84.193v-5.355H82.229V-1.841h1.963V-7.2h1.464Zm1.963-6.622c0-.892.393-1.232,1.017-1.232s1.017.339,1.017,1.232v6.747c0,.892-.393,1.232-1.017,1.232S87.62-3.822,87.62-4.715Zm12.923,11.3V-3.59h-.857V-14.335h-5.5l-.446,9.121A2.588,2.588,0,0,1,93.26-3.59h-.768V-.163H94.4V-1.841H98.6V-.163ZM96.027-12.551h1.66v8.96h-2.57a2.214,2.214,0,0,0,.553-1.66Zm11.263-1.785h-1.946v5.051l-2.32-5.051H101.06l2.428,5.123L101.06-1.841h2.017l1.785-5.551.482.964v4.587h1.946V-6.428l.482-.946,1.785,5.533h2.017l-2.41-7.425,2.41-5.069H109.61l-2.32,5.051Zm7.086,1.785h3.391v-1.785h-5.355V-1.841h5.355V-3.626h-3.391V-7.285h2.7V-9.07h-2.7Zm4.034,0h2.053v10.71h1.963v-10.71h2.053v-1.785H118.41Z" transform="translate(95.587 384.819)" fill="#242549"/><path d="M3.763-14.335H.8V-1.841H3.888A2.656,2.656,0,0,0,6.869-4.8V-5.821c0-1.321-.411-2.267-1.464-2.677a2.454,2.454,0,0,0,1.267-2.517v-.446C6.672-13.389,5.8-14.335,3.763-14.335ZM3.638-7.463c.892,0,1.267.357,1.267,1.517v1.089c0,.928-.357,1.232-1.017,1.232H2.763V-7.463Zm.071-5.087c.7,0,1,.393,1,1.285v.7c0,1-.446,1.321-1.178,1.321H2.763v-3.3Zm6.14,1.089c0-.892.393-1.232,1.017-1.232s1.017.339,1.017,1.232v6.747c0,.892-.393,1.232-1.017,1.232S9.85-3.822,9.85-4.715ZM7.886-4.84c0,2,1.053,3.142,2.981,3.142S13.848-2.84,13.848-4.84v-6.5c0-2-1.053-3.142-2.981-3.142s-2.981,1.142-2.981,3.142ZM18.9-10.569c0,1-.446,1.321-1.178,1.321h-.589v1.785h.482c.892,0,1.285.428,1.285,1.589v.982c0,1.107-.393,1.41-1.017,1.41s-1.017-.339-1.017-1.232v-1.5H15.008V-4.84c0,2,1,3.142,2.927,3.142S20.863-2.84,20.863-4.84v-.982a2.549,2.549,0,0,0-1.374-2.624,2.434,2.434,0,0,0,1.374-2.57v-.321c0-2-1-3.142-2.927-3.142s-2.892,1.107-2.892,3.106v.928h1.8v-1.017c0-.892.411-1.232,1.035-1.232s1.017.3,1.017,1.428Zm6.247-3.766H22.184V-1.841h3.088A2.656,2.656,0,0,0,28.252-4.8V-5.821c0-1.321-.411-2.267-1.464-2.677a2.454,2.454,0,0,0,1.267-2.517v-.446C28.056-13.389,27.182-14.335,25.147-14.335Zm-.125,6.872c.892,0,1.267.357,1.267,1.517v1.089c0,.928-.357,1.232-1.017,1.232H24.147V-7.463Zm.071-5.087c.7,0,1,.393,1,1.285v.7c0,1-.446,1.321-1.178,1.321h-.768v-3.3Zm7.229-1.785H29.431V-1.841h1.963V-6.535h.928c1.963,0,2.927-1.089,2.927-3.088v-1.624C35.249-13.247,34.286-14.335,32.322-14.335Zm0,1.785c.625,0,.964.286.964,1.178V-9.5c0,.892-.339,1.178-.964,1.178h-.928v-4.23Zm8.193-1.785H37.641l-2,12.495h1.8l.339-2.267h2.41l.339,2.267h1.981ZM38.98-12.122,39.926-5.8H38.034Zm3.873-.428h2.053v10.71h1.963v-10.71h2.053v-1.785H42.853ZM56.2-7.571l.8-3.07v8.8h1.767V-14.335h-2.16L55.009-9.177l-.714,2.749v-7.907H52.546V-1.841h2.017Zm5.926.375h2.231v5.355h2V-14.335h-2v5.355H62.131v-5.355H60.167V-1.841h1.963Zm8.621-7.14H67.789V-1.841h3.088A2.656,2.656,0,0,0,73.858-4.8V-5.821c0-1.321-.411-2.267-1.464-2.677a2.454,2.454,0,0,0,1.267-2.517v-.446C73.662-13.389,72.787-14.335,70.752-14.335Zm-.125,6.872c.892,0,1.267.357,1.267,1.517v1.089c0,.928-.357,1.232-1.017,1.232H69.752V-7.463Zm.071-5.087c.7,0,1,.393,1,1.285v.7c0,1-.446,1.321-1.178,1.321h-.768v-3.3Zm6.3,0h3.391v-1.785H75.036V-1.841h5.355V-3.626H77V-7.285h2.7V-9.07H77ZM85.442-6.5v1.785c0,.892-.393,1.214-1.017,1.214s-1.017-.321-1.017-1.214v-6.747c0-.892.393-1.232,1.017-1.232s1.017.339,1.017,1.232v1.339H87.3v-1.214c0-2-1-3.142-2.927-3.142s-2.927,1.142-2.927,3.142v6.5c0,2,1,3.142,2.927,3.142S87.3-2.84,87.3-4.84V-6.5Zm2.481-6.051h2.053v10.71h1.963v-10.71h2.053v-1.785H87.923Zm10.585,4.98.8-3.07v8.8h1.767V-14.335h-2.16L97.312-9.177,96.6-6.428v-7.907H94.849V-1.841h2.017Zm3.588,5.73h5.141V-.163h1.91V-3.59h-.857V-14.335h-2v10.71h-2.231v-10.71H102.1V-1.841Zm11.781-5.73.8-3.07v8.8h1.767V-14.335h-2.16L112.68-9.177l-.714,2.749v-7.907h-1.749V-1.841h2.017Zm5.98,5.73h-2.017V-14.335h1.749v7.907l.714-2.749,1.606-5.158h2.16V-1.841H122.3v-8.8l-.8,3.07Zm3.213-15.279a1.845,1.845,0,0,1-2.088,1.981,1.842,1.842,0,0,1-2.053-1.981h1.214c.054.66.321.821.839.821.535,0,.839-.161.892-.821Z" transform="translate(253.555 384.819)" fill="#242549"/><rect width="14" height="15" rx="3" transform="translate(78 369)" fill="#c2b7f5"/><rect width="14" height="15" rx="3" transform="translate(236 369)" fill="#ff9169"/><path d="M1.929-12.515c0-.553.232-.785.643-.785.393,0,.643.232.643.785v4.284c0,.553-.25.785-.643.785-.411,0-.643-.232-.643-.785ZM.68-8.32a1.753,1.753,0,0,0,1.892,2,1.753,1.753,0,0,0,1.892-2v-4.105a1.753,1.753,0,0,0-1.892-2,1.753,1.753,0,0,0-1.892,2ZM2.572-1.841h1.16L8.659-14.335H7.5Zm5.551-6.1c0-.553.232-.785.643-.785.393,0,.643.232.643.785v4.284c0,.553-.25.785-.643.785-.411,0-.643-.232-.643-.785ZM6.874-3.751a1.753,1.753,0,0,0,1.892,2,1.753,1.753,0,0,0,1.892-2V-7.856a1.753,1.753,0,0,0-1.892-2,1.753,1.753,0,0,0-1.892,2ZM17.708-14.335H14.745V-1.841h3.088A2.656,2.656,0,0,0,20.814-4.8V-5.821c0-1.321-.411-2.267-1.464-2.677a2.454,2.454,0,0,0,1.267-2.517v-.446C20.618-13.389,19.743-14.335,17.708-14.335Zm-.125,6.872c.892,0,1.267.357,1.267,1.517v1.089c0,.928-.357,1.232-1.017,1.232H16.709V-7.463Zm.071-5.087c.7,0,1,.393,1,1.285v.7c0,1-.446,1.321-1.178,1.321h-.768v-3.3Zm6.14,1.089c0-.892.393-1.232,1.017-1.232s1.017.339,1.017,1.232v6.747c0,.892-.393,1.232-1.017,1.232S23.8-3.822,23.8-4.715ZM21.832-4.84c0,2,1.053,3.142,2.981,3.142S27.793-2.84,27.793-4.84v-6.5c0-2-1.053-3.142-2.981-3.142s-2.981,1.142-2.981,3.142Zm11.013-5.73c0,1-.446,1.321-1.178,1.321h-.589v1.785h.482c.892,0,1.285.428,1.285,1.589v.982c0,1.107-.393,1.41-1.017,1.41S30.81-3.822,30.81-4.715v-1.5H28.954V-4.84c0,2,1,3.142,2.927,3.142S34.808-2.84,34.808-4.84v-.982a2.549,2.549,0,0,0-1.374-2.624,2.434,2.434,0,0,0,1.374-2.57v-.321c0-2-1-3.142-2.927-3.142s-2.892,1.107-2.892,3.106v.928h1.8v-1.017c0-.892.411-1.232,1.035-1.232s1.017.3,1.017,1.428Zm6.247-3.766H36.129V-1.841h3.088A2.656,2.656,0,0,0,42.2-4.8V-5.821c0-1.321-.411-2.267-1.464-2.677A2.454,2.454,0,0,0,42-11.015v-.446C42-13.389,41.127-14.335,39.092-14.335Zm-.125,6.872c.892,0,1.267.357,1.267,1.517v1.089c0,.928-.357,1.232-1.017,1.232H38.092V-7.463Zm.071-5.087c.7,0,1,.393,1,1.285v.7c0,1-.446,1.321-1.178,1.321h-.768v-3.3Zm7.229-1.785H43.376V-1.841h1.963V-6.535h.928c1.963,0,2.927-1.089,2.927-3.088v-1.624C49.195-13.247,48.231-14.335,46.268-14.335Zm0,1.785c.625,0,.964.286.964,1.178V-9.5c0,.892-.339,1.178-.964,1.178h-.928v-4.23Zm8.193-1.785H51.587l-2,12.495h1.8l.339-2.267h2.41l.339,2.267H56.46Zm-1.535,2.213L53.871-5.8H51.979Zm3.873-.428h2.053v10.71h1.963v-10.71h2.053v-1.785H56.8ZM68.08-14.335H65.206l-2,12.495h1.8l.339-2.267h2.41L68.1-1.841h1.981Zm-1.535,2.213L67.491-5.8H65.6Zm10.87,4.552.8-3.07v8.8h1.767V-14.335h-2.16L76.219-9.177,75.5-6.428v-7.907H73.756V-1.841h2.017Zm5.926.375h2.231v5.355h2V-14.335h-2v5.355H83.341v-5.355H81.377V-1.841h1.963Zm8.621-7.14H89V-1.841h3.088A2.656,2.656,0,0,0,95.068-4.8V-5.821c0-1.321-.411-2.267-1.464-2.677a2.454,2.454,0,0,0,1.267-2.517v-.446C94.872-13.389,94-14.335,91.962-14.335Zm-.125,6.872c.892,0,1.267.357,1.267,1.517v1.089c0,.928-.357,1.232-1.017,1.232H90.963V-7.463Zm.071-5.087c.7,0,1,.393,1,1.285v.7c0,1-.446,1.321-1.178,1.321h-.768v-3.3Zm6.3,0H101.6v-1.785H96.246V-1.841H101.6V-3.626H98.209V-7.285h2.7V-9.07h-2.7ZM106.652-6.5v1.785c0,.892-.393,1.214-1.017,1.214s-1.017-.321-1.017-1.214v-6.747c0-.892.393-1.232,1.017-1.232s1.017.339,1.017,1.232v1.339h1.856v-1.214c0-2-1-3.142-2.927-3.142s-2.927,1.142-2.927,3.142v6.5c0,2,1,3.142,2.927,3.142s2.927-1.142,2.927-3.142V-6.5Zm2.481-6.051h2.053v10.71h1.963v-10.71H115.2v-1.785h-6.069Zm10.585,4.98.8-3.07v8.8h1.767V-14.335h-2.16l-1.606,5.158-.714,2.749v-7.907h-1.749V-1.841h2.017Zm3.963,5.73h5.141V-.163h1.91V-3.59h-.857V-14.335h-2v10.71h-2.231v-10.71h-1.963Zm11.781-5.73.8-3.07v8.8h1.767V-14.335h-2.16l-1.606,5.158-.714,2.749v-7.907H131.8V-1.841h2.017Zm5.98,5.73h-2.017V-14.335h1.749v7.907l.714-2.749,1.606-5.158h2.16V-1.841h-1.767v-8.8l-.8,3.07Zm3.213-15.279a1.845,1.845,0,0,1-2.088,1.981,1.842,1.842,0,0,1-2.053-1.981h1.214c.054.66.321.821.839.821.535,0,.839-.161.892-.821ZM151.811-7.2h2.231v5.355h2V-14.335h-2v5.355h-2.231v-5.355h-1.963V-1.841h1.963Zm10.014-7.14h-2.874l-2,12.495h1.8l.339-2.267h2.41l.339,2.267h1.981Zm-1.535,2.213.946,6.319h-1.892Zm5.658.75h1.517v9.532h1.963V-14.335h-1.321a1.945,1.945,0,0,1-2.16,1.571Zm7.657-.089c0-.892.393-1.232,1.017-1.232s1.017.339,1.017,1.232v6.747c0,.892-.393,1.232-1.017,1.232s-1.017-.339-1.017-1.232ZM171.642-4.84c0,2,1.053,3.142,2.981,3.142S177.6-2.84,177.6-4.84v-6.5c0-2-1.053-3.142-2.981-3.142s-2.981,1.142-2.981,3.142Zm9.032-6.622c0-.892.393-1.232,1.017-1.232s1.017.339,1.017,1.232v6.747c0,.892-.393,1.232-1.017,1.232s-1.017-.339-1.017-1.232ZM178.711-4.84c0,2,1.053,3.142,2.981,3.142s2.981-1.142,2.981-3.142v-6.5c0-2-1.053-3.142-2.981-3.142s-2.981,1.142-2.981,3.142Zm9.425-7.711h2.053v10.71h1.963v-10.71H194.2v-1.785h-6.069Zm9.817,10.71c1.963,0,2.927-1.089,2.927-3.088V-6.553c0-2-.964-3.088-2.927-3.088h-.928v-4.694h-1.963V-1.841Zm-.928-1.785v-4.23h.928c.625,0,.964.286.964,1.178V-4.8c0,.892-.339,1.178-.964,1.178Zm6.943,1.785V-14.335H202V-1.841ZM209.233-6.5v1.785c0,.892-.393,1.214-1.017,1.214S207.2-3.822,207.2-4.715v-6.747c0-.892.393-1.232,1.017-1.232s1.017.339,1.017,1.232v1.339h1.856v-1.214c0-2-1-3.142-2.927-3.142s-2.927,1.142-2.927,3.142v6.5c0,2,1,3.142,2.927,3.142S211.09-2.84,211.09-4.84V-6.5Zm3.052,2.767v1.892h1.892V-3.733Zm9.871-6.836c0,1-.446,1.321-1.178,1.321h-.589v1.785h.482c.892,0,1.285.428,1.285,1.589v.982c0,1.107-.393,1.41-1.017,1.41s-1.017-.339-1.017-1.232v-1.5h-1.856V-4.84c0,2,1,3.142,2.927,3.142S224.12-2.84,224.12-4.84v-.982a2.549,2.549,0,0,0-1.374-2.624,2.434,2.434,0,0,0,1.374-2.57v-.321c0-2-1-3.142-2.927-3.142s-2.892,1.107-2.892,3.106v.928h1.8v-1.017c0-.892.411-1.232,1.035-1.232s1.017.3,1.017,1.428Zm6.176-3.766h-2.892V-1.841H227.4V-6.535h.928c1.963,0,2.927-1.089,2.927-3.088v-1.624C231.259-13.247,230.3-14.335,228.332-14.335Zm0,1.785c.625,0,.964.286.964,1.178V-9.5c0,.892-.339,1.178-.964,1.178H227.4v-4.23Zm7.5,4.98.8-3.07v8.8H238.4V-14.335h-2.16l-1.606,5.158-.714,2.749v-7.907H232.17V-1.841h2.017Zm3.391-4.98h2.053v10.71h1.963v-10.71h2.053v-1.785H239.22Zm8.889,0H251.5v-1.785h-5.355V-1.841H251.5V-3.626h-3.391V-7.285h2.7V-9.07h-2.7Zm4.052,10.728h.3c1.963,0,2.785-.892,2.856-3.177l.214-7.55h1.714v10.71h2V-14.335H253.7l-.321,9.442c-.036,1.16-.321,1.285-1.214,1.285ZM262.71-12.551H266.1v-1.785h-5.355V-1.841H266.1V-3.626H262.71V-7.285h2.7V-9.07h-2.7Zm6.622,10.71h-2.017V-14.335h1.749v7.907l.714-2.749,1.606-5.158h2.16V-1.841h-1.767v-8.8l-.8,3.07Zm3.213-15.279a1.845,1.845,0,0,1-2.088,1.981A1.842,1.842,0,0,1,268.4-17.12h1.214c.054.66.321.821.839.821.535,0,.839-.161.892-.821Z" transform="translate(419.675 384.819)" fill="#242549"/><g transform="translate(0)"><line y2="285.591" transform="translate(114.214 24.989)" fill="none" stroke="#e3ded5" stroke-linejoin="bevel" stroke-width="2"/><line y2="285.145" transform="translate(181.15 24.989)" fill="none" stroke="#e3ded5" stroke-linejoin="bevel" stroke-width="2"/><line y2="285.591" transform="translate(248.085 24.989)" fill="none" stroke="#e3ded5" stroke-linejoin="bevel" stroke-width="2"/><line y2="310.135" transform="translate(314.151)" fill="none" stroke="#e3ded5" stroke-linejoin="bevel" stroke-width="2"/><line y2="285.591" transform="translate(381.956 24.989)" fill="none" stroke="#e3ded5" stroke-linejoin="bevel" stroke-width="2"/><line y2="285.591" transform="translate(450.677 24.989)" fill="none" stroke="#e3ded5" stroke-linejoin="bevel" stroke-width="2"/><path d="M0,30V315.591" transform="translate(446.66 -5.011)" fill="none" stroke="#e3ded5" stroke-width="2"/><line y2="285.591" transform="translate(515.827 24.989)" fill="none" stroke="#e3ded5" stroke-linejoin="bevel" stroke-width="2"/><line y2="285.591" transform="translate(582.763 24.989)" fill="none" stroke="#e3ded5" stroke-linejoin="bevel" stroke-width="2"/><line y2="285.591" transform="translate(649.698 24.989)" fill="none" stroke="#e3ded5" stroke-linejoin="bevel" stroke-width="2"/><path d="M728.258.07H0" transform="translate(0 222.156)" fill="none" stroke="#e3ded5" stroke-width="22"/><path d="M589.211,0H45" transform="translate(2.301 222.226)" fill="none" stroke="#292b45" stroke-width="2" opacity="0.325"/><g transform="translate(11.881 258.152)" style="isolation:isolate"><path d="M.7-5.557v1.035c0,2,1,3.142,2.927,3.142S6.555-2.522,6.555-4.521V-7.306c0-1.838-.732-2.856-2.178-2.856a1.873,1.873,0,0,0-1.714.91l.161-2.981H6.233v-1.785H1.057L.7-6.77H2.556v-.375c0-.892.393-1.232,1.017-1.232s1.017.339,1.017,1.232V-4.4c0,.892-.393,1.214-1.017,1.214S2.556-3.5,2.556-4.4v-1.16Zm8.96-5.587c0-.892.393-1.232,1.017-1.232s1.017.339,1.017,1.232V-4.4c0,.892-.393,1.232-1.017,1.232S9.66-3.5,9.66-4.4ZM7.7-4.521c0,2,1.053,3.142,2.981,3.142s2.981-1.142,2.981-3.142v-6.5c0-2-1.053-3.142-2.981-3.142S7.7-13.018,7.7-11.018ZM16.068-12.2c0-.553.232-.785.643-.785.393,0,.643.232.643.785v4.284c0,.553-.25.785-.643.785-.411,0-.643-.232-.643-.785ZM14.819-8a1.753,1.753,0,0,0,1.892,2A1.753,1.753,0,0,0,18.6-8v-4.105a1.753,1.753,0,0,0-1.892-2,1.753,1.753,0,0,0-1.892,2Zm1.892,6.479h1.16L22.8-14.017h-1.16Zm5.551-6.1c0-.553.232-.785.643-.785.393,0,.643.232.643.785v4.284c0,.553-.25.785-.643.785-.411,0-.643-.232-.643-.785ZM21.013-3.432a1.753,1.753,0,0,0,1.892,2,1.753,1.753,0,0,0,1.892-2V-7.538a1.753,1.753,0,0,0-1.892-2,1.753,1.753,0,0,0-1.892,2Z" transform="translate(-0.7 14.16)" fill="#242549"/></g><g transform="translate(11.299 215.836)" style="isolation:isolate"><path d="M2.16-11.054H3.677v9.532H5.641V-14.017H4.32a1.945,1.945,0,0,1-2.16,1.571Zm7.657-.089c0-.892.393-1.232,1.017-1.232s1.017.339,1.017,1.232V-4.4c0,.892-.393,1.232-1.017,1.232S9.817-3.5,9.817-4.4ZM7.854-4.521c0,2,1.053,3.142,2.981,3.142s2.981-1.142,2.981-3.142v-6.5c0-2-1.053-3.142-2.981-3.142s-2.981,1.142-2.981,3.142Zm9.032-6.622c0-.892.393-1.232,1.017-1.232s1.017.339,1.017,1.232V-4.4c0,.892-.393,1.232-1.017,1.232S16.886-3.5,16.886-4.4ZM14.922-4.521c0,2,1.053,3.142,2.981,3.142s2.981-1.142,2.981-3.142v-6.5c0-2-1.053-3.142-2.981-3.142s-2.981,1.142-2.981,3.142ZM23.294-12.2c0-.553.232-.785.643-.785.393,0,.643.232.643.785v4.284c0,.553-.25.785-.643.785-.411,0-.643-.232-.643-.785ZM22.044-8a1.753,1.753,0,0,0,1.892,2,1.753,1.753,0,0,0,1.892-2v-4.105a1.753,1.753,0,0,0-1.892-2,1.753,1.753,0,0,0-1.892,2Zm1.892,6.479H25.1l4.926-12.495h-1.16Zm5.551-6.1c0-.553.232-.785.643-.785.393,0,.643.232.643.785v4.284c0,.553-.25.785-.643.785-.411,0-.643-.232-.643-.785ZM28.238-3.432a1.753,1.753,0,0,0,1.892,2,1.753,1.753,0,0,0,1.892-2V-7.538a1.753,1.753,0,0,0-1.892-2,1.753,1.753,0,0,0-1.892,2Z" transform="translate(-2.16 14.16)" fill="#242549"/></g><g transform="translate(11.299 168.932)" style="isolation:isolate"><path d="M2.16-11.054H3.677v9.532H5.641V-14.017H4.32a1.945,1.945,0,0,1-2.16,1.571Zm5.765,5.5v1.035c0,2,1,3.142,2.927,3.142S13.78-2.522,13.78-4.521V-7.306c0-1.838-.732-2.856-2.178-2.856a1.873,1.873,0,0,0-1.714.91l.161-2.981h3.409v-1.785H8.282L7.925-6.77H9.782v-.375c0-.892.393-1.232,1.017-1.232s1.017.339,1.017,1.232V-4.4c0,.892-.393,1.214-1.017,1.214S9.782-3.5,9.782-4.4v-1.16Zm8.96-5.587c0-.892.393-1.232,1.017-1.232s1.017.339,1.017,1.232V-4.4c0,.892-.393,1.232-1.017,1.232S16.886-3.5,16.886-4.4ZM14.922-4.521c0,2,1.053,3.142,2.981,3.142s2.981-1.142,2.981-3.142v-6.5c0-2-1.053-3.142-2.981-3.142s-2.981,1.142-2.981,3.142ZM23.294-12.2c0-.553.232-.785.643-.785.393,0,.643.232.643.785v4.284c0,.553-.25.785-.643.785-.411,0-.643-.232-.643-.785ZM22.044-8a1.753,1.753,0,0,0,1.892,2,1.753,1.753,0,0,0,1.892-2v-4.105a1.753,1.753,0,0,0-1.892-2,1.753,1.753,0,0,0-1.892,2Zm1.892,6.479H25.1l4.926-12.495h-1.16Zm5.551-6.1c0-.553.232-.785.643-.785.393,0,.643.232.643.785v4.284c0,.553-.25.785-.643.785-.411,0-.643-.232-.643-.785ZM28.238-3.432a1.753,1.753,0,0,0,1.892,2,1.753,1.753,0,0,0,1.892-2V-7.538a1.753,1.753,0,0,0-1.892-2,1.753,1.753,0,0,0-1.892,2Z" transform="translate(-2.16 14.16)" fill="#242549"/></g><path d="M4.691-10.947C4.691-7.342.8-6.735.8-3.058v1.535H6.476V-3.308H2.763a1.351,1.351,0,0,1-.018-.268c0-2.053,3.909-3.516,3.909-7.443,0-2-1-3.142-2.927-3.142S.8-13.018.8-11.018V-9.8H2.656v-1.339c0-.892.393-1.232,1.017-1.232S4.691-12.072,4.691-10.947Zm4.98-.2c0-.892.393-1.232,1.017-1.232s1.017.339,1.017,1.232V-4.4c0,.892-.393,1.232-1.017,1.232S9.671-3.5,9.671-4.4ZM7.708-4.521c0,2,1.053,3.142,2.981,3.142s2.981-1.142,2.981-3.142v-6.5c0-2-1.053-3.142-2.981-3.142s-2.981,1.142-2.981,3.142Zm9.032-6.622c0-.892.393-1.232,1.017-1.232s1.017.339,1.017,1.232V-4.4c0,.892-.393,1.232-1.017,1.232S16.74-3.5,16.74-4.4ZM14.776-4.521c0,2,1.053,3.142,2.981,3.142s2.981-1.142,2.981-3.142v-6.5c0-2-1.053-3.142-2.981-3.142s-2.981,1.142-2.981,3.142ZM23.148-12.2c0-.553.232-.785.643-.785.393,0,.643.232.643.785v4.284c0,.553-.25.785-.643.785-.411,0-.643-.232-.643-.785ZM21.9-8A1.753,1.753,0,0,0,23.79-6a1.753,1.753,0,0,0,1.892-2v-4.105a1.753,1.753,0,0,0-1.892-2,1.753,1.753,0,0,0-1.892,2ZM23.79-1.523h1.16l4.926-12.495h-1.16Zm5.551-6.1c0-.553.232-.785.643-.785.393,0,.643.232.643.785v4.284c0,.553-.25.785-.643.785-.411,0-.643-.232-.643-.785ZM28.092-3.432a1.753,1.753,0,0,0,1.892,2,1.753,1.753,0,0,0,1.892-2V-7.538a1.753,1.753,0,0,0-1.892-2,1.753,1.753,0,0,0-1.892,2Z" transform="translate(9.285 138.308)" fill="#242549"/><path d="M4.691-10.947C4.691-7.342.8-6.735.8-3.058v1.535H6.476V-3.308H2.763a1.351,1.351,0,0,1-.018-.268c0-2.053,3.909-3.516,3.909-7.443,0-2-1-3.142-2.927-3.142S.8-13.018.8-11.018V-9.8H2.656v-1.339c0-.892.393-1.232,1.017-1.232S4.691-12.072,4.691-10.947ZM7.779-5.557v1.035c0,2,1,3.142,2.927,3.142s2.927-1.142,2.927-3.142V-7.306c0-1.838-.732-2.856-2.178-2.856a1.873,1.873,0,0,0-1.714.91L9.9-12.232h3.409v-1.785H8.136L7.779-6.77H9.635v-.375c0-.892.393-1.232,1.017-1.232s1.017.339,1.017,1.232V-4.4c0,.892-.393,1.214-1.017,1.214S9.635-3.5,9.635-4.4v-1.16Zm8.96-5.587c0-.892.393-1.232,1.017-1.232s1.017.339,1.017,1.232V-4.4c0,.892-.393,1.232-1.017,1.232S16.74-3.5,16.74-4.4ZM14.776-4.521c0,2,1.053,3.142,2.981,3.142s2.981-1.142,2.981-3.142v-6.5c0-2-1.053-3.142-2.981-3.142s-2.981,1.142-2.981,3.142ZM23.148-12.2c0-.553.232-.785.643-.785.393,0,.643.232.643.785v4.284c0,.553-.25.785-.643.785-.411,0-.643-.232-.643-.785ZM21.9-8A1.753,1.753,0,0,0,23.79-6a1.753,1.753,0,0,0,1.892-2v-4.105a1.753,1.753,0,0,0-1.892-2,1.753,1.753,0,0,0-1.892,2ZM23.79-1.523h1.16l4.926-12.495h-1.16Zm5.551-6.1c0-.553.232-.785.643-.785.393,0,.643.232.643.785v4.284c0,.553-.25.785-.643.785-.411,0-.643-.232-.643-.785ZM28.092-3.432a1.753,1.753,0,0,0,1.892,2,1.753,1.753,0,0,0,1.892-2V-7.538a1.753,1.753,0,0,0-1.892-2,1.753,1.753,0,0,0-1.892,2Z" transform="translate(8.839 93.789)" fill="#242549"/><path d="M4.571-10.251c0,1-.446,1.321-1.178,1.321H2.626v1.785h.66c.892,0,1.285.428,1.285,1.589v.982c0,1.107-.393,1.41-1.017,1.41S2.536-3.5,2.536-4.4v-1.16H.68v1.035c0,2,1,3.142,2.927,3.142S6.535-2.522,6.535-4.521V-5.5A2.549,2.549,0,0,0,5.16-8.127,2.434,2.434,0,0,0,6.535-10.7v-.321c0-2-1-3.142-2.927-3.142S.68-13.018.68-11.018v.678H2.536v-.8c0-.892.393-1.232,1.017-1.232s1.017.3,1.017,1.428Zm5.087-.892c0-.892.393-1.232,1.017-1.232s1.017.339,1.017,1.232V-4.4c0,.892-.393,1.232-1.017,1.232S9.658-3.5,9.658-4.4ZM7.695-4.521c0,2,1.053,3.142,2.981,3.142s2.981-1.142,2.981-3.142v-6.5c0-2-1.053-3.142-2.981-3.142s-2.981,1.142-2.981,3.142Zm9.032-6.622c0-.892.393-1.232,1.017-1.232s1.017.339,1.017,1.232V-4.4c0,.892-.393,1.232-1.017,1.232S16.727-3.5,16.727-4.4ZM14.763-4.521c0,2,1.053,3.142,2.981,3.142s2.981-1.142,2.981-3.142v-6.5c0-2-1.053-3.142-2.981-3.142s-2.981,1.142-2.981,3.142ZM23.135-12.2c0-.553.232-.785.643-.785.393,0,.643.232.643.785v4.284c0,.553-.25.785-.643.785-.411,0-.643-.232-.643-.785ZM21.885-8a1.753,1.753,0,0,0,1.892,2,1.753,1.753,0,0,0,1.892-2v-4.105a1.753,1.753,0,0,0-1.892-2,1.753,1.753,0,0,0-1.892,2Zm1.892,6.479h1.16l4.926-12.495H28.7Zm5.551-6.1c0-.553.232-.785.643-.785.393,0,.643.232.643.785v4.284c0,.553-.25.785-.643.785-.411,0-.643-.232-.643-.785ZM28.079-3.432a1.753,1.753,0,0,0,1.892,2,1.753,1.753,0,0,0,1.892-2V-7.538a1.753,1.753,0,0,0-1.892-2,1.753,1.753,0,0,0-1.892,2Z" transform="translate(8.852 48.824)" fill="#242549"/><line x1="728" transform="translate(0 311)" fill="none" stroke="#e3ded5" stroke-linejoin="bevel" stroke-width="2"/><line x1="669.355" transform="translate(47.279 265.957)" fill="none" stroke="#e3ded5" stroke-linejoin="bevel" stroke-width="2"/><line x1="669.355" transform="translate(47.279 176.71)" fill="none" stroke="#e3ded5" stroke-linejoin="bevel" stroke-width="2"/><line x1="669.355" transform="translate(47.279 132.086)" fill="none" stroke="#e3ded5" stroke-linejoin="bevel" stroke-width="2"/><line x1="669.355" transform="translate(47.279 87.462)" fill="none" stroke="#e3ded5" stroke-linejoin="bevel" stroke-width="2"/><path d="M-3740.205,1651.051l67.342,16.911,66.936,26.774,66.936,22.312,66.936,22.312" transform="translate(3787.077 -1428.78)" fill="none" stroke="#c2b8f3" stroke-miterlimit="10" stroke-width="5"/><line x1="669.355" transform="translate(47.279 42.839)" fill="none" stroke="#e3ded5" stroke-linejoin="bevel" stroke-width="2"/><g transform="translate(95.13 315.793)" style="isolation:isolate"><path d="M-24.39-5.557v1.035c0,2,1,3.142,2.927,3.142s2.927-1.142,2.927-3.142V-7.306c0-1.838-.732-2.856-2.178-2.856a1.873,1.873,0,0,0-1.714.91l.161-2.981h3.409v-1.785h-5.176L-24.39-6.77h1.856v-.375c0-.892.393-1.232,1.017-1.232s1.017.339,1.017,1.232V-4.4c0,.892-.393,1.214-1.017,1.214S-22.534-3.5-22.534-4.4v-1.16Zm8.96-5.587c0-.892.393-1.232,1.017-1.232s1.017.339,1.017,1.232V-4.4c0,.892-.393,1.232-1.017,1.232S-15.43-3.5-15.43-4.4Zm-1.963,6.622c0,2,1.053,3.142,2.981,3.142s2.981-1.142,2.981-3.142v-6.5c0-2-1.053-3.142-2.981-3.142s-2.981,1.142-2.981,3.142Zm9.032-6.622c0-.892.393-1.232,1.017-1.232s1.017.339,1.017,1.232V-4.4c0,.892-.393,1.232-1.017,1.232S-8.361-3.5-8.361-4.4Zm-1.963,6.622c0,2,1.053,3.142,2.981,3.142s2.981-1.142,2.981-3.142v-6.5c0-2-1.053-3.142-2.981-3.142s-2.981,1.142-2.981,3.142Zm6.658-7.711h2.053v10.71H.349v-10.71H2.4v-1.785H-3.667ZM6.15-1.523c1.963,0,2.927-1.089,2.927-3.088V-6.235c0-2-.964-3.088-2.927-3.088H5.222v-4.694H3.259V-1.523ZM5.222-3.308v-4.23H6.15c.625,0,.964.286.964,1.178v1.874c0,.892-.339,1.178-.964,1.178Zm6.943,1.785V-14.017H10.2V-1.523Zm5.266-4.659V-4.4c0,.892-.393,1.214-1.017,1.214S15.4-3.5,15.4-4.4v-6.747c0-.892.393-1.232,1.017-1.232s1.017.339,1.017,1.232V-9.8h1.856v-1.214c0-2-1-3.142-2.927-3.142s-2.927,1.142-2.927,3.142v6.5c0,2,1,3.142,2.927,3.142s2.927-1.142,2.927-3.142v-1.66Z" transform="translate(24.39 14.16)" fill="#242549"/></g><g transform="translate(165.405 316.382)" style="isolation:isolate"><path d="M-17.53-11.037h1.517v9.532h1.963V-14H-15.37a1.945,1.945,0,0,1-2.16,1.571ZM-6.2-14H-8.927V-1.505h1.714v-8.835l1.464,8.835h1.856l1.357-8.96v8.96H-.68V-14H-3.411L-4.75-5.129ZM.195-1.488H.5c1.963,0,2.785-.892,2.856-3.177l.214-7.55H5.282v10.71h2V-14H1.73L1.408-4.558C1.373-3.4,1.087-3.272.195-3.272ZM10.744-6.86h2.231v5.355h2V-14h-2v5.355H10.744V-14H8.78V-1.505h1.963Z" transform="translate(17.53 14)" fill="#242549"/></g><g transform="translate(227.042 315.936)" style="isolation:isolate"><path d="M-23.35-11.037h1.517v9.532h1.963V-14H-21.19a1.945,1.945,0,0,1-2.16,1.571ZM-17.5-3.4v1.892H-15.6V-3.4Zm3.231-2.142V-4.5c0,2,1,3.142,2.927,3.142S-8.41-2.5-8.41-4.5V-7.289c0-1.838-.732-2.856-2.178-2.856a1.873,1.873,0,0,0-1.714.91l.161-2.981h3.409V-14h-5.176l-.357,7.247h1.856v-.375c0-.892.393-1.232,1.017-1.232s1.017.339,1.017,1.232v2.749c0,.892-.393,1.214-1.017,1.214s-1.017-.321-1.017-1.214v-1.16ZM-1.627-14H-4.358V-1.505h1.714v-8.835l1.464,8.835H.675l1.357-8.96v8.96H3.888V-14H1.157L-.181-5.129ZM4.763-1.488h.3c1.963,0,2.785-.892,2.856-3.177l.214-7.55H9.85v10.71h2V-14H6.3L5.977-4.558C5.941-3.4,5.655-3.272,4.763-3.272ZM15.312-6.86h2.231v5.355h2V-14h-2v5.355H15.312V-14H13.349V-1.505h1.963Z" transform="translate(23.35 14)" fill="#242549"/></g><g transform="translate(297.854 316.239)" style="isolation:isolate"><path d="M-15-10.947c0,3.606-3.891,4.212-3.891,7.889v1.535h5.676V-3.308h-3.713a1.351,1.351,0,0,1-.018-.268c0-2.053,3.909-3.516,3.909-7.443,0-2-1-3.142-2.927-3.142s-2.927,1.142-2.927,3.142V-9.8h1.856v-1.339c0-.892.393-1.232,1.017-1.232S-15-12.072-15-10.947Zm8.657-3.07H-9.073V-1.523h1.714v-8.835L-5.9-1.523h1.856l1.357-8.96v8.96H-.826V-14.017H-3.557L-4.9-5.146ZM.048-1.5h.3c1.963,0,2.785-.892,2.856-3.177l.214-7.55H5.135v10.71h2V-14.017H1.583L1.262-4.575C1.226-3.415.941-3.29.048-3.29ZM10.6-6.877h2.231v5.355h2V-14.017h-2v5.355H10.6v-5.355H8.634V-1.523H10.6Z" transform="translate(18.89 14.16)" fill="#242549"/></g><g transform="translate(359.49 315.793)" style="isolation:isolate"><path d="M-20.819-10.947c0,3.606-3.891,4.212-3.891,7.889v1.535h5.676V-3.308h-3.713a1.351,1.351,0,0,1-.018-.268c0-2.053,3.909-3.516,3.909-7.443,0-2-1-3.142-2.927-3.142s-2.927,1.142-2.927,3.142V-9.8h1.856v-1.339c0-.892.393-1.232,1.017-1.232S-20.819-12.072-20.819-10.947Zm3.177,7.532v1.892h1.892V-3.415Zm3.231-2.142v1.035c0,2,1,3.142,2.927,3.142s2.927-1.142,2.927-3.142V-7.306c0-1.838-.732-2.856-2.178-2.856a1.873,1.873,0,0,0-1.714.91l.161-2.981h3.409v-1.785h-5.176l-.357,7.247h1.856v-.375c0-.892.393-1.232,1.017-1.232s1.017.339,1.017,1.232V-4.4c0,.892-.393,1.214-1.017,1.214S-12.555-3.5-12.555-4.4v-1.16Zm12.637-8.461H-4.5V-1.523h1.714v-8.835l1.464,8.835H.529l1.357-8.96v8.96H3.742V-14.017H1.011L-.328-5.146ZM4.617-1.5h.3C6.884-1.5,7.7-2.4,7.776-4.682l.214-7.55H9.7v10.71h2V-14.017H6.152L5.83-4.575C5.795-3.415,5.509-3.29,4.617-3.29ZM15.166-6.877H17.4v5.355h2V-14.017h-2v5.355H15.166v-5.355H13.2V-1.523h1.963Z" transform="translate(24.71 14.16)" fill="#242549"/></g><g transform="translate(431.854 315.793)" style="isolation:isolate"><path d="M-15.119-10.251c0,1-.446,1.321-1.178,1.321h-.768v1.785h.66c.892,0,1.285.428,1.285,1.589v.982c0,1.107-.393,1.41-1.017,1.41S-17.154-3.5-17.154-4.4v-1.16H-19.01v1.035c0,2,1,3.142,2.927,3.142s2.927-1.142,2.927-3.142V-5.5A2.549,2.549,0,0,0-14.53-8.127a2.434,2.434,0,0,0,1.374-2.57v-.321c0-2-1-3.142-2.927-3.142s-2.927,1.142-2.927,3.142v.678h1.856v-.8c0-.892.393-1.232,1.017-1.232s1.017.3,1.017,1.428Zm8.764-3.766H-9.086V-1.523h1.714v-8.835l1.464,8.835h1.856l1.357-8.96v8.96H-.839V-14.017H-3.57L-4.909-5.146ZM.035-1.5h.3C2.3-1.5,3.123-2.4,3.195-4.682l.214-7.55H5.122v10.71h2V-14.017H1.57L1.249-4.575C1.213-3.415.928-3.29.035-3.29ZM10.584-6.877h2.231v5.355h2V-14.017h-2v5.355H10.584v-5.355H8.621V-1.523h1.963Z" transform="translate(19.01 14.16)" fill="#242549"/></g><g transform="translate(498.329 315.936)" style="isolation:isolate"><path d="M-19.41-3.772h3.784v2.267H-13.7V-3.772h.928V-5.557H-13.7V-14H-15.84l-3.57,8.443Zm1.8-1.785,1.981-4.694v4.694ZM-6.4-14H-9.129V-1.505h1.714v-8.835l1.464,8.835H-4.1l1.357-8.96v8.96H-.882V-14H-3.613L-4.952-5.129ZM-.008-1.488H.3c1.963,0,2.785-.892,2.856-3.177l.214-7.55H5.079v10.71h2V-14H1.527L1.206-4.558C1.17-3.4.885-3.272-.008-3.272ZM10.541-6.86h2.231v5.355h2V-14h-2v5.355H10.541V-14H8.578V-1.505h1.963Z" transform="translate(19.41 14)" fill="#242549"/></g><g transform="translate(565.98 315.936)" style="isolation:isolate"><path d="M-18.99-5.539V-4.5c0,2,1,3.142,2.927,3.142S-13.135-2.5-13.135-4.5V-7.289c0-1.838-.732-2.856-2.178-2.856a1.873,1.873,0,0,0-1.714.91l.161-2.981h3.409V-14h-5.176l-.357,7.247h1.856v-.375c0-.892.393-1.232,1.017-1.232S-15.1-8.02-15.1-7.128v2.749c0,.892-.393,1.214-1.017,1.214s-1.017-.321-1.017-1.214v-1.16ZM-6.353-14H-9.084V-1.505H-7.37v-8.835l1.464,8.835H-4.05l1.357-8.96v8.96H-.837V-14H-3.568L-4.907-5.129ZM.038-1.488h.3C2.3-1.488,3.125-2.38,3.2-4.665l.214-7.55H5.125v10.71h2V-14H1.573L1.251-4.558C1.216-3.4.93-3.272.038-3.272ZM10.587-6.86h2.231v5.355h2V-14h-2v5.355H10.587V-14H8.623V-1.505h1.963Z" transform="translate(18.99 14)" fill="#242549"/></g><g transform="translate(632.776 315.793)" style="isolation:isolate"><path d="M-19.03-4.521c0,2,1.053,3.142,2.981,3.142s2.981-1.142,2.981-3.142V-6.806c0-1.838-.732-2.856-2.178-2.856a1.869,1.869,0,0,0-1.821,1.107V-10.84c0-1.2.393-1.535,1.089-1.535.625,0,1.017.339,1.017,1.232v.446H-13.1v-.321c0-2-1-3.142-2.927-3.142-2.035,0-3,1.142-3,3.249Zm2.981-3.356c.625,0,1.017.339,1.017,1.232V-4.4c0,.892-.393,1.214-1.017,1.214S-17.067-3.5-17.067-4.4V-6.645C-17.067-7.538-16.674-7.877-16.049-7.877Zm9.692-6.14H-9.088V-1.523h1.714v-8.835l1.464,8.835h1.856l1.357-8.96v8.96H-.841V-14.017H-3.572L-4.911-5.146ZM.033-1.5h.3C2.3-1.5,3.121-2.4,3.193-4.682l.214-7.55H5.12v10.71h2V-14.017H1.568L1.247-4.575C1.211-3.415.926-3.29.033-3.29ZM10.582-6.877h2.231v5.355h2V-14.017h-2v5.355H10.582v-5.355H8.619V-1.523h1.963Z" transform="translate(19.03 14.16)" fill="#242549"/></g><path d="M-3664.5,1699.427l66.712-26.551,66.96-21.859,66.911-21.872,66.935-18.742,66.936-17.849,66.936-35.7,66.936-35.7,66.936-35.7,71.175-37.707" transform="translate(3778.937 -1406.919)" fill="none" stroke="#ff906d" stroke-miterlimit="10" stroke-width="5"/><line x1="13.387" y2="8.925" transform="translate(442.198 290.5)" fill="none" stroke="#e3ded5" stroke-linejoin="bevel" stroke-width="2"/><line x1="13.387" y2="8.925" transform="translate(442.198 297.193)" fill="none" stroke="#e3ded5" stroke-linejoin="bevel" stroke-width="2"/><circle cx="4.462" cy="4.462" r="4.462" transform="translate(444.429 181.172)" fill="#242549"/><circle cx="4.462" cy="4.462" r="4.462" transform="translate(511.365 145.473)" fill="#242549"/><circle cx="4.462" cy="4.462" r="4.462" transform="translate(578.3 109.774)" fill="#242549"/><circle cx="4.462" cy="4.462" r="4.462" transform="translate(645.236 74.075)" fill="#242549"/><circle cx="4.462" cy="4.462" r="4.462" transform="translate(377.494 199.021)" fill="#242549"/><circle cx="4.462" cy="4.462" r="4.462" transform="translate(310.558 217.763)" fill="#242549"/><circle cx="4.462" cy="4.462" r="4.462" transform="translate(243.623 239.183)" fill="#242549"/><circle cx="4.462" cy="4.462" r="4.462" transform="translate(176.687 261.494)" fill="#242549"/><circle cx="4.462" cy="4.462" r="4.462" transform="translate(109.752 288.269)" fill="#242549"/><circle cx="4.462" cy="4.462" r="4.462" transform="translate(109.752 234.72)" fill="#242549"/><circle cx="4.462" cy="4.462" r="4.462" transform="translate(243.623 283.806)" fill="#242549"/><g transform="translate(172.472 244.308)" style="isolation:isolate"><path d="M3-4.915a2.4,2.4,0,0,0,.567,1.251,1.6,1.6,0,0,0,1.22.44A1.647,1.647,0,0,0,6.2-3.873a2.66,2.66,0,0,0,.484-1.634,2.839,2.839,0,0,0-.453-1.634,1.587,1.587,0,0,0-1.412-.667,2.429,2.429,0,0,0-.784.113,1.559,1.559,0,0,0-.88.776L.92-7.024l.889-6.981H8.772V-11.9H3.6L3.151-9.133a5.193,5.193,0,0,1,.9-.5,3.8,3.8,0,0,1,1.316-.2A3.953,3.953,0,0,1,8.1-8.776,3.922,3.922,0,0,1,9.269-5.708,4.813,4.813,0,0,1,8.145-2.579,4.088,4.088,0,0,1,4.781-1.2a4.468,4.468,0,0,1-2.963-.967A3.758,3.758,0,0,1,.527-4.915ZM12.828-7.73A11.9,11.9,0,0,0,13.185-4.4a1.439,1.439,0,0,0,1.464,1.155A1.419,1.419,0,0,0,16.1-4.4a12.334,12.334,0,0,0,.344-3.334,12.2,12.2,0,0,0-.344-3.382,1.406,1.406,0,0,0-1.451-1.1,1.427,1.427,0,0,0-1.464,1.1A11.771,11.771,0,0,0,12.828-7.73Zm1.822-6.528a3.571,3.571,0,0,1,3.386,1.7,9.834,9.834,0,0,1,.972,4.828,9.782,9.782,0,0,1-.972,4.82,3.576,3.576,0,0,1-3.386,1.691A3.576,3.576,0,0,1,11.263-2.91a9.782,9.782,0,0,1-.972-4.82,9.834,9.834,0,0,1,.972-4.828A3.571,3.571,0,0,1,14.649-14.258Zm8.413,4.776a1.336,1.336,0,0,0,.98-.405,1.336,1.336,0,0,0,.405-.981,1.336,1.336,0,0,0-.405-.981,1.336,1.336,0,0,0-.98-.405,1.336,1.336,0,0,0-.981.405,1.336,1.336,0,0,0-.405.981,1.336,1.336,0,0,0,.405.981A1.336,1.336,0,0,0,23.063-9.482ZM26.3-10.867a3.131,3.131,0,0,1-.946,2.292,3.119,3.119,0,0,1-2.3.95,3.124,3.124,0,0,1-2.292-.95,3.124,3.124,0,0,1-.95-2.292,3.124,3.124,0,0,1,.95-2.292,3.124,3.124,0,0,1,2.292-.95,3.124,3.124,0,0,1,2.292.95A3.124,3.124,0,0,1,26.3-10.867ZM32.92-4.523a1.336,1.336,0,0,0-.405-.981,1.336,1.336,0,0,0-.98-.405,1.336,1.336,0,0,0-.981.405,1.336,1.336,0,0,0-.405.981,1.336,1.336,0,0,0,.405.981,1.336,1.336,0,0,0,.981.405,1.336,1.336,0,0,0,.98-.405A1.336,1.336,0,0,0,32.92-4.523Zm1.856,0a3.124,3.124,0,0,1-.95,2.292,3.124,3.124,0,0,1-2.292.95,3.124,3.124,0,0,1-2.292-.95,3.124,3.124,0,0,1-.95-2.292,3.119,3.119,0,0,1,.95-2.3,3.131,3.131,0,0,1,2.292-.946,3.124,3.124,0,0,1,2.292.95A3.124,3.124,0,0,1,34.777-4.523Zm-4.628-9.648h1.325L24.431-1.2H23.08Z" transform="translate(-0.527 14.258)" fill="#242549"/></g><g transform="translate(104.89 215.749)" style="isolation:isolate"><path d="M3.107-5.2a2.03,2.03,0,0,0,.484,1.447,1.748,1.748,0,0,0,1.338.514,1.748,1.748,0,0,0,1.338-.514A2.03,2.03,0,0,0,6.75-5.2a2.012,2.012,0,0,0-.492-1.469,1.779,1.779,0,0,0-1.329-.5,1.779,1.779,0,0,0-1.329.5A2.012,2.012,0,0,0,3.107-5.2Zm-2.58.166a3.871,3.871,0,0,1,.484-1.926,3.064,3.064,0,0,1,1.416-1.3,2.949,2.949,0,0,1-1.19-1.32,3.7,3.7,0,0,1-.275-1.329A3.1,3.1,0,0,1,2-13.26a4.12,4.12,0,0,1,2.928-.972,4.12,4.12,0,0,1,2.928.972,3.1,3.1,0,0,1,1.037,2.349A3.7,3.7,0,0,1,8.62-9.582,2.538,2.538,0,0,1,7.43-8.349a3.5,3.5,0,0,1,1.4,1.386A3.956,3.956,0,0,1,9.3-5.037,3.6,3.6,0,0,1,8.123-2.322a4.6,4.6,0,0,1-3.3,1.12,4.277,4.277,0,0,1-3.207-1.12A3.75,3.75,0,0,1,.527-5.037Zm2.806-5.6a1.547,1.547,0,0,0,.423,1.124,1.557,1.557,0,0,0,1.172.436A1.54,1.54,0,0,0,6.1-9.508a1.566,1.566,0,0,0,.414-1.124A1.6,1.6,0,0,0,6.1-11.8a1.566,1.566,0,0,0-1.172-.423,1.584,1.584,0,0,0-1.172.423A1.584,1.584,0,0,0,3.334-10.632Zm9.494,2.9A11.9,11.9,0,0,0,13.185-4.4a1.439,1.439,0,0,0,1.464,1.155A1.419,1.419,0,0,0,16.1-4.4a12.334,12.334,0,0,0,.344-3.334,12.2,12.2,0,0,0-.344-3.382,1.406,1.406,0,0,0-1.451-1.1,1.427,1.427,0,0,0-1.464,1.1A11.771,11.771,0,0,0,12.828-7.73Zm1.822-6.528a3.571,3.571,0,0,1,3.386,1.7,9.834,9.834,0,0,1,.972,4.828,9.782,9.782,0,0,1-.972,4.82,3.576,3.576,0,0,1-3.386,1.691A3.576,3.576,0,0,1,11.263-2.91a9.782,9.782,0,0,1-.972-4.82,9.834,9.834,0,0,1,.972-4.828A3.571,3.571,0,0,1,14.649-14.258Zm8.413,4.776a1.336,1.336,0,0,0,.98-.405,1.336,1.336,0,0,0,.405-.981,1.336,1.336,0,0,0-.405-.981,1.336,1.336,0,0,0-.98-.405,1.336,1.336,0,0,0-.981.405,1.336,1.336,0,0,0-.405.981,1.336,1.336,0,0,0,.405.981A1.336,1.336,0,0,0,23.063-9.482ZM26.3-10.867a3.131,3.131,0,0,1-.946,2.292,3.119,3.119,0,0,1-2.3.95,3.124,3.124,0,0,1-2.292-.95,3.124,3.124,0,0,1-.95-2.292,3.124,3.124,0,0,1,.95-2.292,3.124,3.124,0,0,1,2.292-.95,3.124,3.124,0,0,1,2.292.95A3.124,3.124,0,0,1,26.3-10.867ZM32.92-4.523a1.336,1.336,0,0,0-.405-.981,1.336,1.336,0,0,0-.98-.405,1.336,1.336,0,0,0-.981.405,1.336,1.336,0,0,0-.405.981,1.336,1.336,0,0,0,.405.981,1.336,1.336,0,0,0,.981.405,1.336,1.336,0,0,0,.98-.405A1.336,1.336,0,0,0,32.92-4.523Zm1.856,0a3.124,3.124,0,0,1-.95,2.292,3.124,3.124,0,0,1-2.292.95,3.124,3.124,0,0,1-2.292-.95,3.124,3.124,0,0,1-.95-2.292,3.119,3.119,0,0,1,.95-2.3,3.131,3.131,0,0,1,2.292-.946,3.124,3.124,0,0,1,2.292.95A3.124,3.124,0,0,1,34.777-4.523Zm-4.628-9.648h1.325L24.431-1.2H23.08Z" transform="translate(-0.527 14.258)" fill="#242549"/></g><g transform="translate(105.624 266.62)" style="isolation:isolate"><path d="M.625-1.533a5.938,5.938,0,0,1,.584-2.484,7.023,7.023,0,0,1,2.51-2.676A18.407,18.407,0,0,0,5.941-8.453a2.6,2.6,0,0,0,.776-1.813A2.008,2.008,0,0,0,6.273-11.6,1.565,1.565,0,0,0,5-12.131a1.552,1.552,0,0,0-1.543.845,4.193,4.193,0,0,0-.279,1.551H.764a6.105,6.105,0,0,1,.584-2.606,3.637,3.637,0,0,1,3.53-1.891,4.476,4.476,0,0,1,3.19,1.111,3.842,3.842,0,0,1,1.185,2.942,3.982,3.982,0,0,1-.837,2.493,8.336,8.336,0,0,1-1.8,1.612l-.994.706q-.933.662-1.277.959a2.81,2.81,0,0,0-.58.689H9.28v2.188Zm12.213-6.2A11.9,11.9,0,0,0,13.2-4.4,1.439,1.439,0,0,0,14.66-3.241,1.419,1.419,0,0,0,16.111-4.4a12.334,12.334,0,0,0,.344-3.334,12.2,12.2,0,0,0-.344-3.382,1.406,1.406,0,0,0-1.451-1.1,1.427,1.427,0,0,0-1.464,1.1A11.771,11.771,0,0,0,12.838-7.73Zm1.822-6.528a3.571,3.571,0,0,1,3.386,1.7,9.834,9.834,0,0,1,.972,4.828,9.782,9.782,0,0,1-.972,4.82A3.576,3.576,0,0,1,14.66-1.219,3.576,3.576,0,0,1,11.274-2.91,9.782,9.782,0,0,1,10.3-7.73a9.834,9.834,0,0,1,.972-4.828A3.571,3.571,0,0,1,14.66-14.258Zm8.413,4.776a1.336,1.336,0,0,0,.98-.405,1.336,1.336,0,0,0,.405-.981,1.336,1.336,0,0,0-.405-.981,1.336,1.336,0,0,0-.98-.405,1.336,1.336,0,0,0-.981.405,1.336,1.336,0,0,0-.405.981,1.336,1.336,0,0,0,.405.981A1.336,1.336,0,0,0,23.073-9.482Zm3.242-1.386a3.131,3.131,0,0,1-.946,2.292,3.119,3.119,0,0,1-2.3.95,3.124,3.124,0,0,1-2.292-.95,3.124,3.124,0,0,1-.95-2.292,3.124,3.124,0,0,1,.95-2.292,3.124,3.124,0,0,1,2.292-.95,3.124,3.124,0,0,1,2.292.95A3.124,3.124,0,0,1,26.315-10.867Zm6.615,6.345a1.336,1.336,0,0,0-.405-.981,1.336,1.336,0,0,0-.981-.405,1.336,1.336,0,0,0-.981.405,1.336,1.336,0,0,0-.405.981,1.336,1.336,0,0,0,.405.981,1.336,1.336,0,0,0,.981.405,1.336,1.336,0,0,0,.981-.405A1.336,1.336,0,0,0,32.931-4.523Zm1.856,0a3.124,3.124,0,0,1-.95,2.292,3.124,3.124,0,0,1-2.292.95,3.124,3.124,0,0,1-2.292-.95,3.124,3.124,0,0,1-.95-2.292,3.119,3.119,0,0,1,.95-2.3,3.131,3.131,0,0,1,2.292-.946,3.124,3.124,0,0,1,2.292.95A3.124,3.124,0,0,1,34.787-4.523Zm-4.628-9.648h1.325L24.442-1.2H23.091Z" transform="translate(-0.625 14.258)" fill="#242549"/></g><g transform="translate(238.744 215.836)" style="isolation:isolate"><path d="M9.467-12.051a15.693,15.693,0,0,0-1.551,1.957A17.283,17.283,0,0,0,6.251-7.188a17.3,17.3,0,0,0-.959,2.876,11.943,11.943,0,0,0-.427,2.789H2.286A15.188,15.188,0,0,1,4.517-8.591a16.7,16.7,0,0,1,2.292-3.172H.508l.035-2.231H9.467ZM12.678-4.9a2.4,2.4,0,0,0,.567,1.251,1.6,1.6,0,0,0,1.22.44,1.647,1.647,0,0,0,1.408-.649A2.66,2.66,0,0,0,16.356-5.5,2.839,2.839,0,0,0,15.9-7.131,1.587,1.587,0,0,0,14.49-7.8a2.429,2.429,0,0,0-.784.113,1.559,1.559,0,0,0-.88.776l-2.231-.1.889-6.981h6.964v2.109H13.279l-.453,2.763a5.193,5.193,0,0,1,.9-.5,3.8,3.8,0,0,1,1.316-.2,3.953,3.953,0,0,1,2.737,1.055A3.922,3.922,0,0,1,18.944-5.7,4.813,4.813,0,0,1,17.82-2.568a4.088,4.088,0,0,1-3.364,1.377,4.468,4.468,0,0,1-2.963-.967A3.758,3.758,0,0,1,10.2-4.9ZM23.061-9.471a1.336,1.336,0,0,0,.98-.405,1.336,1.336,0,0,0,.405-.981,1.336,1.336,0,0,0-.405-.981,1.336,1.336,0,0,0-.98-.405,1.336,1.336,0,0,0-.981.405,1.336,1.336,0,0,0-.405.981,1.336,1.336,0,0,0,.405.981A1.336,1.336,0,0,0,23.061-9.471ZM26.3-10.857a3.131,3.131,0,0,1-.946,2.292,3.119,3.119,0,0,1-2.3.95,3.124,3.124,0,0,1-2.292-.95,3.124,3.124,0,0,1-.95-2.292,3.124,3.124,0,0,1,.95-2.292,3.124,3.124,0,0,1,2.292-.95,3.124,3.124,0,0,1,2.292.95A3.124,3.124,0,0,1,26.3-10.857Zm6.615,6.345a1.336,1.336,0,0,0-.405-.981,1.336,1.336,0,0,0-.981-.405,1.336,1.336,0,0,0-.981.405,1.336,1.336,0,0,0-.405.981,1.336,1.336,0,0,0,.405.981,1.336,1.336,0,0,0,.981.405,1.336,1.336,0,0,0,.981-.405A1.336,1.336,0,0,0,32.918-4.512Zm1.856,0a3.124,3.124,0,0,1-.95,2.292,3.124,3.124,0,0,1-2.292.95,3.124,3.124,0,0,1-2.292-.95,3.124,3.124,0,0,1-.95-2.292,3.119,3.119,0,0,1,.95-2.3,3.131,3.131,0,0,1,2.292-.946,3.124,3.124,0,0,1,2.292.95A3.124,3.124,0,0,1,34.774-4.512ZM30.146-14.16h1.325L24.429-1.191H23.078Z" transform="translate(-0.508 14.16)" fill="#242549"/></g><g transform="translate(301.756 199.684)" style="isolation:isolate"><path d="M1.387-10.249v-1.691A11.01,11.01,0,0,0,3.034-12.1a2.323,2.323,0,0,0,1.22-.662,2.181,2.181,0,0,0,.488-.906,2.081,2.081,0,0,0,.1-.506H6.9V-1.533H4.359v-8.716ZM12.92-7.73A11.9,11.9,0,0,0,13.278-4.4a1.439,1.439,0,0,0,1.464,1.155A1.419,1.419,0,0,0,16.193-4.4a12.334,12.334,0,0,0,.344-3.334,12.2,12.2,0,0,0-.344-3.382,1.406,1.406,0,0,0-1.451-1.1,1.427,1.427,0,0,0-1.464,1.1A11.771,11.771,0,0,0,12.92-7.73Zm1.822-6.528a3.571,3.571,0,0,1,3.386,1.7A9.834,9.834,0,0,1,19.1-7.73a9.782,9.782,0,0,1-.972,4.82,3.576,3.576,0,0,1-3.386,1.691A3.576,3.576,0,0,1,11.356-2.91a9.782,9.782,0,0,1-.972-4.82,9.834,9.834,0,0,1,.972-4.828A3.571,3.571,0,0,1,14.742-14.258ZM22.6-7.73A11.9,11.9,0,0,0,22.955-4.4a1.439,1.439,0,0,0,1.464,1.155A1.419,1.419,0,0,0,25.87-4.4a12.334,12.334,0,0,0,.344-3.334,12.2,12.2,0,0,0-.344-3.382,1.406,1.406,0,0,0-1.451-1.1,1.427,1.427,0,0,0-1.464,1.1A11.771,11.771,0,0,0,22.6-7.73Zm1.822-6.528a3.571,3.571,0,0,1,3.386,1.7,9.834,9.834,0,0,1,.972,4.828A9.782,9.782,0,0,1,27.8-2.91a3.576,3.576,0,0,1-3.386,1.691A3.576,3.576,0,0,1,21.033-2.91a9.782,9.782,0,0,1-.972-4.82,9.834,9.834,0,0,1,.972-4.828A3.571,3.571,0,0,1,24.419-14.258Zm8.413,4.776a1.336,1.336,0,0,0,.98-.405,1.336,1.336,0,0,0,.405-.981,1.336,1.336,0,0,0-.405-.981,1.336,1.336,0,0,0-.98-.405,1.336,1.336,0,0,0-.981.405,1.336,1.336,0,0,0-.405.981,1.336,1.336,0,0,0,.405.981A1.336,1.336,0,0,0,32.832-9.482Zm3.242-1.386a3.131,3.131,0,0,1-.946,2.292,3.119,3.119,0,0,1-2.3.95,3.124,3.124,0,0,1-2.292-.95,3.124,3.124,0,0,1-.95-2.292,3.124,3.124,0,0,1,.95-2.292,3.124,3.124,0,0,1,2.292-.95,3.124,3.124,0,0,1,2.292.95A3.124,3.124,0,0,1,36.075-10.867ZM42.69-4.523a1.336,1.336,0,0,0-.405-.981,1.336,1.336,0,0,0-.981-.405,1.336,1.336,0,0,0-.98.405,1.336,1.336,0,0,0-.405.981,1.336,1.336,0,0,0,.405.981,1.336,1.336,0,0,0,.98.405,1.336,1.336,0,0,0,.981-.405A1.336,1.336,0,0,0,42.69-4.523Zm1.856,0A3.124,3.124,0,0,1,43.6-2.23a3.124,3.124,0,0,1-2.292.95,3.124,3.124,0,0,1-2.292-.95,3.124,3.124,0,0,1-.95-2.292,3.119,3.119,0,0,1,.95-2.3A3.131,3.131,0,0,1,41.3-7.765a3.124,3.124,0,0,1,2.292.95A3.124,3.124,0,0,1,44.546-4.523Zm-4.628-9.648h1.325L34.2-1.2H32.85Z" transform="translate(-1.387 14.258)" fill="#242549"/></g><g transform="translate(368.691 181.835)" style="isolation:isolate"><path d="M1.387-10.249v-1.691A11.01,11.01,0,0,0,3.034-12.1a2.323,2.323,0,0,0,1.22-.662,2.181,2.181,0,0,0,.488-.906,2.081,2.081,0,0,0,.1-.506H6.9V-1.533H4.359v-8.716Zm9,8.716a5.938,5.938,0,0,1,.584-2.484,7.023,7.023,0,0,1,2.51-2.676A18.408,18.408,0,0,0,15.7-8.453a2.6,2.6,0,0,0,.776-1.813,2.008,2.008,0,0,0-.444-1.333,1.565,1.565,0,0,0-1.272-.532,1.552,1.552,0,0,0-1.543.845,4.193,4.193,0,0,0-.279,1.551H10.523a6.105,6.105,0,0,1,.584-2.606,3.637,3.637,0,0,1,3.53-1.891,4.476,4.476,0,0,1,3.19,1.111,3.842,3.842,0,0,1,1.185,2.942,3.982,3.982,0,0,1-.837,2.493,8.336,8.336,0,0,1-1.8,1.612l-.994.706q-.933.662-1.277.959a2.81,2.81,0,0,0-.58.689h5.517v2.188ZM22.6-7.73A11.9,11.9,0,0,0,22.955-4.4a1.439,1.439,0,0,0,1.464,1.155A1.419,1.419,0,0,0,25.87-4.4a12.334,12.334,0,0,0,.344-3.334,12.2,12.2,0,0,0-.344-3.382,1.406,1.406,0,0,0-1.451-1.1,1.427,1.427,0,0,0-1.464,1.1A11.771,11.771,0,0,0,22.6-7.73Zm1.822-6.528a3.571,3.571,0,0,1,3.386,1.7,9.834,9.834,0,0,1,.972,4.828A9.782,9.782,0,0,1,27.8-2.91a3.576,3.576,0,0,1-3.386,1.691A3.576,3.576,0,0,1,21.033-2.91a9.782,9.782,0,0,1-.972-4.82,9.834,9.834,0,0,1,.972-4.828A3.571,3.571,0,0,1,24.419-14.258Zm8.413,4.776a1.336,1.336,0,0,0,.98-.405,1.336,1.336,0,0,0,.405-.981,1.336,1.336,0,0,0-.405-.981,1.336,1.336,0,0,0-.98-.405,1.336,1.336,0,0,0-.981.405,1.336,1.336,0,0,0-.405.981,1.336,1.336,0,0,0,.405.981A1.336,1.336,0,0,0,32.832-9.482Zm3.242-1.386a3.131,3.131,0,0,1-.946,2.292,3.119,3.119,0,0,1-2.3.95,3.124,3.124,0,0,1-2.292-.95,3.124,3.124,0,0,1-.95-2.292,3.124,3.124,0,0,1,.95-2.292,3.124,3.124,0,0,1,2.292-.95,3.124,3.124,0,0,1,2.292.95A3.124,3.124,0,0,1,36.075-10.867ZM42.69-4.523a1.336,1.336,0,0,0-.405-.981,1.336,1.336,0,0,0-.981-.405,1.336,1.336,0,0,0-.98.405,1.336,1.336,0,0,0-.405.981,1.336,1.336,0,0,0,.405.981,1.336,1.336,0,0,0,.98.405,1.336,1.336,0,0,0,.981-.405A1.336,1.336,0,0,0,42.69-4.523Zm1.856,0A3.124,3.124,0,0,1,43.6-2.23a3.124,3.124,0,0,1-2.292.95,3.124,3.124,0,0,1-2.292-.95,3.124,3.124,0,0,1-.95-2.292,3.119,3.119,0,0,1,.95-2.3A3.131,3.131,0,0,1,41.3-7.765a3.124,3.124,0,0,1,2.292.95A3.124,3.124,0,0,1,44.546-4.523Zm-4.628-9.648h1.325L34.2-1.2H32.85Z" transform="translate(-1.387 14.258)" fill="#242549"/></g><g transform="translate(436.519 163.985)" style="isolation:isolate"><path d="M1.387-10.249v-1.691A11.01,11.01,0,0,0,3.034-12.1a2.323,2.323,0,0,0,1.22-.662,2.181,2.181,0,0,0,.488-.906,2.081,2.081,0,0,0,.1-.506H6.9V-1.533H4.359v-8.716Zm17.774,6H17.731v2.719H15.3V-4.252h-5v-2.17l4.645-7.67h2.789v7.9h1.429ZM15.3-6.2v-5.456L12.136-6.2ZM22.6-7.73A11.9,11.9,0,0,0,22.955-4.4a1.439,1.439,0,0,0,1.464,1.155A1.419,1.419,0,0,0,25.87-4.4a12.334,12.334,0,0,0,.344-3.334,12.2,12.2,0,0,0-.344-3.382,1.406,1.406,0,0,0-1.451-1.1,1.427,1.427,0,0,0-1.464,1.1A11.771,11.771,0,0,0,22.6-7.73Zm1.822-6.528a3.571,3.571,0,0,1,3.386,1.7,9.834,9.834,0,0,1,.972,4.828A9.782,9.782,0,0,1,27.8-2.91a3.576,3.576,0,0,1-3.386,1.691A3.576,3.576,0,0,1,21.033-2.91a9.782,9.782,0,0,1-.972-4.82,9.834,9.834,0,0,1,.972-4.828A3.571,3.571,0,0,1,24.419-14.258Zm8.413,4.776a1.336,1.336,0,0,0,.98-.405,1.336,1.336,0,0,0,.405-.981,1.336,1.336,0,0,0-.405-.981,1.336,1.336,0,0,0-.98-.405,1.336,1.336,0,0,0-.981.405,1.336,1.336,0,0,0-.405.981,1.336,1.336,0,0,0,.405.981A1.336,1.336,0,0,0,32.832-9.482Zm3.242-1.386a3.131,3.131,0,0,1-.946,2.292,3.119,3.119,0,0,1-2.3.95,3.124,3.124,0,0,1-2.292-.95,3.124,3.124,0,0,1-.95-2.292,3.124,3.124,0,0,1,.95-2.292,3.124,3.124,0,0,1,2.292-.95,3.124,3.124,0,0,1,2.292.95A3.124,3.124,0,0,1,36.075-10.867ZM42.69-4.523a1.336,1.336,0,0,0-.405-.981,1.336,1.336,0,0,0-.981-.405,1.336,1.336,0,0,0-.98.405,1.336,1.336,0,0,0-.405.981,1.336,1.336,0,0,0,.405.981,1.336,1.336,0,0,0,.98.405,1.336,1.336,0,0,0,.981-.405A1.336,1.336,0,0,0,42.69-4.523Zm1.856,0A3.124,3.124,0,0,1,43.6-2.23a3.124,3.124,0,0,1-2.292.95,3.124,3.124,0,0,1-2.292-.95,3.124,3.124,0,0,1-.95-2.292,3.119,3.119,0,0,1,.95-2.3A3.131,3.131,0,0,1,41.3-7.765a3.124,3.124,0,0,1,2.292.95A3.124,3.124,0,0,1,44.546-4.523Zm-4.628-9.648h1.325L34.2-1.2H32.85Z" transform="translate(-1.387 14.258)" fill="#242549"/></g><g transform="translate(502.562 128.286)" style="isolation:isolate"><path d="M1.387-10.249v-1.691A11.01,11.01,0,0,0,3.034-12.1a2.323,2.323,0,0,0,1.22-.662,2.181,2.181,0,0,0,.488-.906,2.081,2.081,0,0,0,.1-.506H6.9V-1.533H4.359v-8.716ZM12.877-5.2a2.03,2.03,0,0,0,.484,1.447,1.748,1.748,0,0,0,1.338.514,1.748,1.748,0,0,0,1.338-.514A2.03,2.03,0,0,0,16.52-5.2a2.012,2.012,0,0,0-.492-1.469,1.779,1.779,0,0,0-1.329-.5,1.779,1.779,0,0,0-1.329.5A2.012,2.012,0,0,0,12.877-5.2Zm-2.58.166a3.871,3.871,0,0,1,.484-1.926,3.064,3.064,0,0,1,1.416-1.3,2.949,2.949,0,0,1-1.19-1.32,3.7,3.7,0,0,1-.275-1.329A3.1,3.1,0,0,1,11.77-13.26a4.12,4.12,0,0,1,2.928-.972,4.12,4.12,0,0,1,2.928.972,3.1,3.1,0,0,1,1.037,2.349,3.7,3.7,0,0,1-.275,1.329A2.538,2.538,0,0,1,17.2-8.349a3.5,3.5,0,0,1,1.4,1.386,3.956,3.956,0,0,1,.471,1.926,3.6,3.6,0,0,1-1.181,2.715,4.6,4.6,0,0,1-3.3,1.12,4.277,4.277,0,0,1-3.207-1.12A3.75,3.75,0,0,1,10.3-5.037Zm2.806-5.6a1.547,1.547,0,0,0,.423,1.124,1.557,1.557,0,0,0,1.172.436,1.54,1.54,0,0,0,1.172-.436,1.566,1.566,0,0,0,.414-1.124A1.6,1.6,0,0,0,15.87-11.8a1.566,1.566,0,0,0-1.172-.423,1.584,1.584,0,0,0-1.172.423A1.584,1.584,0,0,0,13.1-10.632ZM22.6-7.73A11.9,11.9,0,0,0,22.955-4.4a1.439,1.439,0,0,0,1.464,1.155A1.419,1.419,0,0,0,25.87-4.4a12.334,12.334,0,0,0,.344-3.334,12.2,12.2,0,0,0-.344-3.382,1.406,1.406,0,0,0-1.451-1.1,1.427,1.427,0,0,0-1.464,1.1A11.771,11.771,0,0,0,22.6-7.73Zm1.822-6.528a3.571,3.571,0,0,1,3.386,1.7,9.834,9.834,0,0,1,.972,4.828A9.782,9.782,0,0,1,27.8-2.91a3.576,3.576,0,0,1-3.386,1.691A3.576,3.576,0,0,1,21.033-2.91a9.782,9.782,0,0,1-.972-4.82,9.834,9.834,0,0,1,.972-4.828A3.571,3.571,0,0,1,24.419-14.258Zm8.413,4.776a1.336,1.336,0,0,0,.98-.405,1.336,1.336,0,0,0,.405-.981,1.336,1.336,0,0,0-.405-.981,1.336,1.336,0,0,0-.98-.405,1.336,1.336,0,0,0-.981.405,1.336,1.336,0,0,0-.405.981,1.336,1.336,0,0,0,.405.981A1.336,1.336,0,0,0,32.832-9.482Zm3.242-1.386a3.131,3.131,0,0,1-.946,2.292,3.119,3.119,0,0,1-2.3.95,3.124,3.124,0,0,1-2.292-.95,3.124,3.124,0,0,1-.95-2.292,3.124,3.124,0,0,1,.95-2.292,3.124,3.124,0,0,1,2.292-.95,3.124,3.124,0,0,1,2.292.95A3.124,3.124,0,0,1,36.075-10.867ZM42.69-4.523a1.336,1.336,0,0,0-.405-.981,1.336,1.336,0,0,0-.981-.405,1.336,1.336,0,0,0-.98.405,1.336,1.336,0,0,0-.405.981,1.336,1.336,0,0,0,.405.981,1.336,1.336,0,0,0,.98.405,1.336,1.336,0,0,0,.981-.405A1.336,1.336,0,0,0,42.69-4.523Zm1.856,0A3.124,3.124,0,0,1,43.6-2.23a3.124,3.124,0,0,1-2.292.95,3.124,3.124,0,0,1-2.292-.95,3.124,3.124,0,0,1-.95-2.292,3.119,3.119,0,0,1,.95-2.3A3.131,3.131,0,0,1,41.3-7.765a3.124,3.124,0,0,1,2.292.95A3.124,3.124,0,0,1,44.546-4.523Zm-4.628-9.648h1.325L34.2-1.2H32.85Z" transform="translate(-1.387 14.258)" fill="#242549"/></g><g transform="translate(568.818 92.587)" style="isolation:isolate"><path d="M.625-1.533a5.938,5.938,0,0,1,.584-2.484,7.023,7.023,0,0,1,2.51-2.676A18.407,18.407,0,0,0,5.941-8.453a2.6,2.6,0,0,0,.776-1.813A2.008,2.008,0,0,0,6.273-11.6,1.565,1.565,0,0,0,5-12.131a1.552,1.552,0,0,0-1.543.845,4.193,4.193,0,0,0-.279,1.551H.764a6.105,6.105,0,0,1,.584-2.606,3.637,3.637,0,0,1,3.53-1.891,4.476,4.476,0,0,1,3.19,1.111,3.842,3.842,0,0,1,1.185,2.942,3.982,3.982,0,0,1-.837,2.493,8.336,8.336,0,0,1-1.8,1.612l-.994.706q-.933.662-1.277.959a2.81,2.81,0,0,0-.58.689H9.28v2.188Zm9.677,0a5.938,5.938,0,0,1,.584-2.484A7.023,7.023,0,0,1,13.4-6.693a18.408,18.408,0,0,0,2.222-1.761,2.6,2.6,0,0,0,.776-1.813A2.008,2.008,0,0,0,15.95-11.6a1.565,1.565,0,0,0-1.272-.532,1.552,1.552,0,0,0-1.543.845,4.193,4.193,0,0,0-.279,1.551H10.442a6.105,6.105,0,0,1,.584-2.606,3.637,3.637,0,0,1,3.53-1.891,4.476,4.476,0,0,1,3.19,1.111,3.842,3.842,0,0,1,1.185,2.942,3.982,3.982,0,0,1-.837,2.493,8.336,8.336,0,0,1-1.8,1.612l-.994.706q-.933.662-1.277.959a2.81,2.81,0,0,0-.58.689h5.517v2.188Zm12.213-6.2A11.9,11.9,0,0,0,22.873-4.4a1.439,1.439,0,0,0,1.464,1.155A1.419,1.419,0,0,0,25.788-4.4a12.334,12.334,0,0,0,.344-3.334,12.2,12.2,0,0,0-.344-3.382,1.406,1.406,0,0,0-1.451-1.1,1.427,1.427,0,0,0-1.464,1.1A11.771,11.771,0,0,0,22.515-7.73Zm1.822-6.528a3.571,3.571,0,0,1,3.386,1.7,9.834,9.834,0,0,1,.972,4.828,9.782,9.782,0,0,1-.972,4.82,3.576,3.576,0,0,1-3.386,1.691A3.576,3.576,0,0,1,20.951-2.91a9.782,9.782,0,0,1-.972-4.82,9.834,9.834,0,0,1,.972-4.828A3.571,3.571,0,0,1,24.337-14.258ZM32.75-9.482a1.336,1.336,0,0,0,.98-.405,1.336,1.336,0,0,0,.405-.981,1.336,1.336,0,0,0-.405-.981,1.336,1.336,0,0,0-.98-.405,1.336,1.336,0,0,0-.981.405,1.336,1.336,0,0,0-.405.981,1.336,1.336,0,0,0,.405.981A1.336,1.336,0,0,0,32.75-9.482Zm3.242-1.386a3.131,3.131,0,0,1-.946,2.292,3.119,3.119,0,0,1-2.3.95,3.124,3.124,0,0,1-2.292-.95,3.124,3.124,0,0,1-.95-2.292,3.124,3.124,0,0,1,.95-2.292,3.124,3.124,0,0,1,2.292-.95,3.124,3.124,0,0,1,2.292.95A3.124,3.124,0,0,1,35.993-10.867Zm6.615,6.345A1.336,1.336,0,0,0,42.2-5.5a1.336,1.336,0,0,0-.981-.405,1.336,1.336,0,0,0-.98.405,1.336,1.336,0,0,0-.405.981,1.336,1.336,0,0,0,.405.981,1.336,1.336,0,0,0,.98.405,1.336,1.336,0,0,0,.981-.405A1.336,1.336,0,0,0,42.608-4.523Zm1.856,0a3.124,3.124,0,0,1-.95,2.292,3.124,3.124,0,0,1-2.292.95,3.124,3.124,0,0,1-2.292-.95,3.124,3.124,0,0,1-.95-2.292,3.119,3.119,0,0,1,.95-2.3,3.131,3.131,0,0,1,2.292-.946,3.124,3.124,0,0,1,2.292.95A3.124,3.124,0,0,1,44.464-4.523Zm-4.628-9.648h1.325L34.119-1.2H32.768Z" transform="translate(-0.625 14.258)" fill="#242549"/></g><g transform="translate(635.753 56.751)" style="isolation:isolate"><path d="M.625-1.533a5.938,5.938,0,0,1,.584-2.484,7.023,7.023,0,0,1,2.51-2.676A18.407,18.407,0,0,0,5.941-8.453a2.6,2.6,0,0,0,.776-1.813A2.008,2.008,0,0,0,6.273-11.6,1.565,1.565,0,0,0,5-12.131a1.552,1.552,0,0,0-1.543.845,4.193,4.193,0,0,0-.279,1.551H.764a6.105,6.105,0,0,1,.584-2.606,3.637,3.637,0,0,1,3.53-1.891,4.476,4.476,0,0,1,3.19,1.111,3.842,3.842,0,0,1,1.185,2.942,3.982,3.982,0,0,1-.837,2.493,8.336,8.336,0,0,1-1.8,1.612l-.994.706q-.933.662-1.277.959a2.81,2.81,0,0,0-.58.689H9.28v2.188Zm21.89-6.2A11.9,11.9,0,0,0,22.873-4.4a1.439,1.439,0,0,0,1.464,1.155A1.419,1.419,0,0,0,25.788-4.4a12.334,12.334,0,0,0,.344-3.334,12.2,12.2,0,0,0-.344-3.382,1.406,1.406,0,0,0-1.451-1.1,1.427,1.427,0,0,0-1.464,1.1A11.771,11.771,0,0,0,22.515-7.73Zm1.822-6.528a3.571,3.571,0,0,1,3.386,1.7,9.834,9.834,0,0,1,.972,4.828,9.782,9.782,0,0,1-.972,4.82,3.576,3.576,0,0,1-3.386,1.691A3.576,3.576,0,0,1,20.951-2.91a9.782,9.782,0,0,1-.972-4.82,9.834,9.834,0,0,1,.972-4.828A3.571,3.571,0,0,1,24.337-14.258ZM32.75-9.482a1.336,1.336,0,0,0,.98-.405,1.336,1.336,0,0,0,.405-.981,1.336,1.336,0,0,0-.405-.981,1.336,1.336,0,0,0-.98-.405,1.336,1.336,0,0,0-.981.405,1.336,1.336,0,0,0-.405.981,1.336,1.336,0,0,0,.405.981A1.336,1.336,0,0,0,32.75-9.482Zm3.242-1.386a3.131,3.131,0,0,1-.946,2.292,3.119,3.119,0,0,1-2.3.95,3.124,3.124,0,0,1-2.292-.95,3.124,3.124,0,0,1-.95-2.292,3.124,3.124,0,0,1,.95-2.292,3.124,3.124,0,0,1,2.292-.95,3.124,3.124,0,0,1,2.292.95A3.124,3.124,0,0,1,35.993-10.867Zm6.615,6.345A1.336,1.336,0,0,0,42.2-5.5a1.336,1.336,0,0,0-.981-.405,1.336,1.336,0,0,0-.98.405,1.336,1.336,0,0,0-.405.981,1.336,1.336,0,0,0,.405.981,1.336,1.336,0,0,0,.98.405,1.336,1.336,0,0,0,.981-.405A1.336,1.336,0,0,0,42.608-4.523Zm1.856,0a3.124,3.124,0,0,1-.95,2.292,3.124,3.124,0,0,1-2.292.95,3.124,3.124,0,0,1-2.292-.95,3.124,3.124,0,0,1-.95-2.292,3.119,3.119,0,0,1,.95-2.3,3.131,3.131,0,0,1,2.292-.946,3.124,3.124,0,0,1,2.292.95A3.124,3.124,0,0,1,44.464-4.523Zm-4.628-9.648h1.325L34.119-1.2H32.768Z" transform="translate(-0.625 14.395)" fill="#242549"/><path d="M3.274-5.815A2.6,2.6,0,0,0,3.85-4.067a1.839,1.839,0,0,0,1.464.677,1.626,1.626,0,0,0,1.368-.654,2.724,2.724,0,0,0,.5-1.7,2.54,2.54,0,0,0-.567-1.78,1.816,1.816,0,0,0-1.391-.618,1.857,1.857,0,0,0-1.181.4A2.279,2.279,0,0,0,3.274-5.815Zm3.67-5.729a1.33,1.33,0,0,0-.247-.7,1.432,1.432,0,0,0-1.272-.622,1.881,1.881,0,0,0-1.812,1.428,8.859,8.859,0,0,0-.4,2.324A2.927,2.927,0,0,1,4.335-9.96,3.8,3.8,0,0,1,5.8-10.226a3.8,3.8,0,0,1,2.9,1.2,4.29,4.29,0,0,1,1.13,3.066A5.175,5.175,0,0,1,8.719-2.685,4.094,4.094,0,0,1,5.278-1.266a3.96,3.96,0,0,1-3.7-2.1A8.545,8.545,0,0,1,.656-7.59a19.226,19.226,0,0,1,.128-2.471,7.556,7.556,0,0,1,.888-2.819,4.542,4.542,0,0,1,1.487-1.547,4.011,4.011,0,0,1,2.2-.586,4.357,4.357,0,0,1,2.947.947,3.6,3.6,0,0,1,1.235,2.521Z" transform="translate(8.542 15.012)" fill="#242549"/></g><g transform="translate(239.495 266.646)" style="isolation:isolate"><path d="M.625-1.53a5.938,5.938,0,0,1,.584-2.484A7.023,7.023,0,0,1,3.719-6.69,18.407,18.407,0,0,0,5.941-8.45a2.6,2.6,0,0,0,.776-1.813A2.008,2.008,0,0,0,6.273-11.6,1.565,1.565,0,0,0,5-12.128a1.552,1.552,0,0,0-1.543.845,4.193,4.193,0,0,0-.279,1.551H.764a6.105,6.105,0,0,1,.584-2.606,3.637,3.637,0,0,1,3.53-1.891,4.476,4.476,0,0,1,3.19,1.111,3.842,3.842,0,0,1,1.185,2.942,3.982,3.982,0,0,1-.837,2.493,8.336,8.336,0,0,1-1.8,1.612l-.994.706q-.933.662-1.277.959a2.81,2.81,0,0,0-.58.689H9.28V-1.53ZM12.69-4.912a2.4,2.4,0,0,0,.567,1.251,1.6,1.6,0,0,0,1.22.44,1.647,1.647,0,0,0,1.408-.649A2.66,2.66,0,0,0,16.368-5.5a2.839,2.839,0,0,0-.453-1.634A1.587,1.587,0,0,0,14.5-7.805a2.429,2.429,0,0,0-.784.113,1.559,1.559,0,0,0-.88.776l-2.231-.1L11.5-14H18.46v2.109H13.292L12.838-9.13a5.193,5.193,0,0,1,.9-.5,3.8,3.8,0,0,1,1.316-.2,3.953,3.953,0,0,1,2.737,1.055A3.922,3.922,0,0,1,18.957-5.7a4.813,4.813,0,0,1-1.124,3.129A4.088,4.088,0,0,1,14.468-1.2,4.468,4.468,0,0,1,11.5-2.166a3.758,3.758,0,0,1-1.29-2.745ZM23.073-9.479a1.336,1.336,0,0,0,.98-.405,1.336,1.336,0,0,0,.405-.981,1.336,1.336,0,0,0-.405-.981,1.336,1.336,0,0,0-.98-.405,1.336,1.336,0,0,0-.981.405,1.336,1.336,0,0,0-.405.981,1.336,1.336,0,0,0,.405.981A1.336,1.336,0,0,0,23.073-9.479Zm3.242-1.386a3.131,3.131,0,0,1-.946,2.292,3.119,3.119,0,0,1-2.3.95,3.124,3.124,0,0,1-2.292-.95,3.124,3.124,0,0,1-.95-2.292,3.124,3.124,0,0,1,.95-2.292,3.124,3.124,0,0,1,2.292-.95,3.124,3.124,0,0,1,2.292.95A3.124,3.124,0,0,1,26.315-10.864Zm6.615,6.345a1.336,1.336,0,0,0-.405-.981,1.336,1.336,0,0,0-.981-.405,1.336,1.336,0,0,0-.981.405,1.336,1.336,0,0,0-.405.981,1.336,1.336,0,0,0,.405.981,1.336,1.336,0,0,0,.981.405,1.336,1.336,0,0,0,.981-.405A1.336,1.336,0,0,0,32.931-4.519Zm1.856,0a3.124,3.124,0,0,1-.95,2.292,3.124,3.124,0,0,1-2.292.95,3.124,3.124,0,0,1-2.292-.95,3.124,3.124,0,0,1-.95-2.292,3.119,3.119,0,0,1,.95-2.3,3.131,3.131,0,0,1,2.292-.946,3.124,3.124,0,0,1,2.292.95A3.124,3.124,0,0,1,34.787-4.519Zm-4.628-9.648h1.325L24.442-1.2H23.091Z" transform="translate(-0.625 14.229)" fill="#242549"/></g><path d="M-3611.559,1785h-49.288l-5.153,8.925,5.153,8.925h49.288l5.153-8.925Z" transform="translate(3779.098 -1443.183)" fill="#242549"/><g transform="translate(134.823 346.99)" style="isolation:isolate"><path d="M6.1-2.757H5.175V-.99H3.595V-2.757H.343V-4.168l3.02-4.985H5.175v5.133H6.1ZM3.595-4.021V-7.567L1.538-4.021ZM8.863-6.156A.868.868,0,0,0,9.5-6.42a.868.868,0,0,0,.263-.637A.868.868,0,0,0,9.5-7.694a.868.868,0,0,0-.637-.263.868.868,0,0,0-.637.263.868.868,0,0,0-.263.637.868.868,0,0,0,.263.637A.868.868,0,0,0,8.863-6.156Zm2.107-.9a2.035,2.035,0,0,1-.615,1.49,2.028,2.028,0,0,1-1.493.617,2.03,2.03,0,0,1-1.49-.617,2.03,2.03,0,0,1-.617-1.49,2.03,2.03,0,0,1,.617-1.49,2.03,2.03,0,0,1,1.49-.617,2.03,2.03,0,0,1,1.49.617A2.03,2.03,0,0,1,10.971-7.057Zm4.3,4.124a.868.868,0,0,0-.263-.637.868.868,0,0,0-.637-.263.868.868,0,0,0-.637.263.868.868,0,0,0-.263.637.868.868,0,0,0,.263.637.868.868,0,0,0,.637.263.868.868,0,0,0,.637-.263A.868.868,0,0,0,15.27-2.933Zm1.207,0a2.03,2.03,0,0,1-.617,1.49,2.03,2.03,0,0,1-1.49.617,2.03,2.03,0,0,1-1.49-.617,2.03,2.03,0,0,1-.617-1.49,2.028,2.028,0,0,1,.617-1.493,2.035,2.035,0,0,1,1.49-.615,2.03,2.03,0,0,1,1.49.617A2.03,2.03,0,0,1,16.477-2.933ZM13.469-9.2h.861L9.753-.774H8.874Z" transform="translate(-0.343 9.204)" fill="#fff9ea"/></g><path d="M-3468.441,1785h-106.406l-5.153,8.925,5.153,8.925h106.406l5.153-8.925Z" transform="translate(3769.851 -1443.183)" fill="#242549"/><path d="M-7.443-3.188a1.558,1.558,0,0,0,.368.813,1.043,1.043,0,0,0,.793.286,1.07,1.07,0,0,0,.915-.422,1.729,1.729,0,0,0,.314-1.062,1.845,1.845,0,0,0-.295-1.062,1.032,1.032,0,0,0-.918-.433,1.579,1.579,0,0,0-.51.074,1.013,1.013,0,0,0-.572.5L-8.8-4.559-8.219-9.1h4.526v1.371H-7.052l-.295,1.8a3.375,3.375,0,0,1,.584-.323,2.47,2.47,0,0,1,.855-.13A2.57,2.57,0,0,1-4.129-5.7,2.549,2.549,0,0,1-3.37-3.7,3.128,3.128,0,0,1-4.1-1.669a2.657,2.657,0,0,1-2.187.9A2.9,2.9,0,0,1-8.213-1.4a2.443,2.443,0,0,1-.838-1.785ZM-.531-6.156A.868.868,0,0,0,.106-6.42a.868.868,0,0,0,.263-.637.868.868,0,0,0-.263-.637.868.868,0,0,0-.637-.263.868.868,0,0,0-.637.263.868.868,0,0,0-.263.637.868.868,0,0,0,.263.637A.868.868,0,0,0-.531-6.156Zm2.107-.9a2.035,2.035,0,0,1-.615,1.49A2.028,2.028,0,0,1-.531-4.95a2.03,2.03,0,0,1-1.49-.617,2.03,2.03,0,0,1-.617-1.49,2.03,2.03,0,0,1,.617-1.49,2.03,2.03,0,0,1,1.49-.617,2.03,2.03,0,0,1,1.49.617A2.03,2.03,0,0,1,1.576-7.057Zm4.3,4.124a.868.868,0,0,0-.263-.637.868.868,0,0,0-.637-.263.868.868,0,0,0-.637.263.868.868,0,0,0-.263.637.868.868,0,0,0,.263.637.868.868,0,0,0,.637.263A.868.868,0,0,0,5.612-2.3.868.868,0,0,0,5.876-2.933Zm1.207,0a2.03,2.03,0,0,1-.617,1.49,2.03,2.03,0,0,1-1.49.617,2.03,2.03,0,0,1-1.49-.617,2.03,2.03,0,0,1-.617-1.49,2.028,2.028,0,0,1,.617-1.493,2.035,2.035,0,0,1,1.49-.615,2.03,2.03,0,0,1,1.49.617A2.03,2.03,0,0,1,7.082-2.933ZM4.074-9.2h.861L.358-.774H-.52Z" transform="translate(250.62 356.194)" fill="#fff9ea"/><path d="M-3046.236,1785h-378.611l-5.153,8.925,5.153,8.925h378.611l5.153-8.925Z" transform="translate(3753.722 -1443.183)" fill="#242549"/><g transform="translate(509.662 346.99)" style="isolation:isolate"><path d="M6.1-2.757H5.175V-.99H3.595V-2.757H.343V-4.168l3.02-4.985H5.175v5.133H6.1ZM3.595-4.021V-7.567L1.538-4.021ZM8.863-6.156A.868.868,0,0,0,9.5-6.42a.868.868,0,0,0,.263-.637A.868.868,0,0,0,9.5-7.694a.868.868,0,0,0-.637-.263.868.868,0,0,0-.637.263.868.868,0,0,0-.263.637.868.868,0,0,0,.263.637A.868.868,0,0,0,8.863-6.156Zm2.107-.9a2.035,2.035,0,0,1-.615,1.49,2.028,2.028,0,0,1-1.493.617,2.03,2.03,0,0,1-1.49-.617,2.03,2.03,0,0,1-.617-1.49,2.03,2.03,0,0,1,.617-1.49,2.03,2.03,0,0,1,1.49-.617,2.03,2.03,0,0,1,1.49.617A2.03,2.03,0,0,1,10.971-7.057Zm4.3,4.124a.868.868,0,0,0-.263-.637.868.868,0,0,0-.637-.263.868.868,0,0,0-.637.263.868.868,0,0,0-.263.637.868.868,0,0,0,.263.637.868.868,0,0,0,.637.263.868.868,0,0,0,.637-.263A.868.868,0,0,0,15.27-2.933Zm1.207,0a2.03,2.03,0,0,1-.617,1.49,2.03,2.03,0,0,1-1.49.617,2.03,2.03,0,0,1-1.49-.617,2.03,2.03,0,0,1-.617-1.49,2.028,2.028,0,0,1,.617-1.493,2.035,2.035,0,0,1,1.49-.615,2.03,2.03,0,0,1,1.49.617A2.03,2.03,0,0,1,16.477-2.933ZM13.469-9.2h.861L9.753-.774H8.874Z" transform="translate(-0.343 9.204)" fill="#fff9ea"/></g><g transform="translate(16.372 302.999)" style="isolation:isolate"><path d="M2.583-11.143c0-.892.393-1.232,1.017-1.232s1.017.339,1.017,1.232V-4.4c0,.892-.393,1.232-1.017,1.232S2.583-3.5,2.583-4.4ZM.62-4.521c0,2,1.053,3.142,2.981,3.142S6.582-2.522,6.582-4.521v-6.5c0-2-1.053-3.142-2.981-3.142S.62-13.018.62-11.018ZM8.991-12.2c0-.553.232-.785.643-.785.393,0,.643.232.643.785v4.284c0,.553-.25.785-.643.785-.411,0-.643-.232-.643-.785ZM7.742-8A1.753,1.753,0,0,0,9.634-6a1.753,1.753,0,0,0,1.892-2v-4.105a1.753,1.753,0,0,0-1.892-2,1.753,1.753,0,0,0-1.892,2ZM9.634-1.523h1.16l4.926-12.495H14.56Zm5.551-6.1c0-.553.232-.785.643-.785.393,0,.643.232.643.785v4.284c0,.553-.25.785-.643.785-.411,0-.643-.232-.643-.785ZM13.936-3.432a1.753,1.753,0,0,0,1.892,2,1.753,1.753,0,0,0,1.892-2V-7.538a1.753,1.753,0,0,0-1.892-2,1.753,1.753,0,0,0-1.892,2Z" transform="translate(-0.62 14.16)" fill="#242549"/></g></g><path d="M5.08-7.15v1.963c0,.982-.432,1.335-1.119,1.335S2.842-4.2,2.842-5.186v-7.422c0-.982.432-1.355,1.119-1.355s1.119.373,1.119,1.355v1.473H7.122V-12.47c0-2.2-1.1-3.456-3.22-3.456S.682-14.67.682-12.47v7.147c0,2.2,1.1,3.456,3.22,3.456s3.22-1.257,3.22-3.456V-7.15Zm2.729-6.656h2.258V-2.025h2.16V-13.806h2.258v-1.963H7.809Zm12.409-1.963H17.057l-2.2,13.744h1.983l.373-2.494h2.651l.373,2.494h2.179ZM18.53-13.334,19.57-6.384H17.489Zm8.07-2.435H23.419V-2.025h2.16V-7.189H26.6c2.16,0,3.22-1.2,3.22-3.4v-1.787C29.819-14.571,28.759-15.769,26.6-15.769Zm0,1.963c.687,0,1.06.314,1.06,1.3v2.062c0,.982-.373,1.3-1.06,1.3H25.578v-4.653Zm3.593,0H32.45V-2.025h2.16V-13.806h2.258v-1.963H30.193Zm9.6,1.2c0-.982.432-1.355,1.119-1.355s1.119.373,1.119,1.355v7.422c0,.982-.432,1.355-1.119,1.355S39.794-4.2,39.794-5.186Zm-2.16,7.284c0,2.2,1.158,3.456,3.279,3.456s3.279-1.257,3.279-3.456V-12.47c0-2.2-1.158-3.456-3.279-3.456s-3.279,1.257-3.279,3.456ZM48.845-15.769H45.586V-2.025h3.4a2.922,2.922,0,0,0,3.279-3.259V-6.4c0-1.453-.452-2.494-1.61-2.945.962-.452,1.394-1.355,1.394-2.768v-.491C52.046-14.728,51.084-15.769,48.845-15.769ZM48.708-8.21c.982,0,1.394.393,1.394,1.669v1.2c0,1.021-.393,1.355-1.119,1.355H47.746V-8.21Zm.079-5.6c.766,0,1.1.432,1.1,1.414v.766c0,1.1-.491,1.453-1.3,1.453h-.844v-3.632ZM56.738-2.025c2.16,0,3.22-1.2,3.22-3.4V-7.208c0-2.2-1.06-3.4-3.22-3.4H55.717v-5.164h-2.16V-2.025ZM55.717-3.988V-8.642h1.021c.687,0,1.06.314,1.06,1.3v2.062c0,.982-.373,1.3-1.06,1.3Zm7.638,1.963V-15.769H61.2V-2.025Zm3.789,0H64.926V-15.769H66.85v8.7l.785-3.024L69.4-15.769h2.376V-2.025H69.834V-11.7l-.884,3.377Zm3.534-16.807a2.03,2.03,0,0,1-2.3,2.179,2.026,2.026,0,0,1-2.258-2.179h1.335c.059.726.353.9.923.9.589,0,.923-.177.982-.9Zm5.085,5.026h2.258V-2.025h2.16V-13.806H82.44v-1.963H75.764Zm12.409-1.963H85.012l-2.2,13.744H84.8l.373-2.494H87.82l.373,2.494h2.179Zm-1.689,2.435,1.041,6.951H85.444Zm8.07-2.435H91.373V-2.025h2.16V-7.189h1.021c2.16,0,3.22-1.2,3.22-3.4v-1.787C97.774-14.571,96.714-15.769,94.554-15.769Zm0,1.963c.687,0,1.06.314,1.06,1.3v2.062c0,.982-.373,1.3-1.06,1.3H93.533v-4.653ZM102.8-8.328l.884-3.377v9.68h1.944V-15.769h-2.376l-1.767,5.674L100.7-7.071v-8.7H98.776V-2.025h2.219Zm8.207,6.3h2.121V-3.576h.805c2.16,0,3.22-1.2,3.22-3.4v-3.75c0-2.2-1.06-3.4-3.22-3.4h-.805v-1.649h-2.121v1.649H110.2c-2.16,0-3.22,1.2-3.22,3.4v3.75c0,2.2,1.06,3.4,3.22,3.4h.805Zm2.926-10.19c.687,0,1.08.373,1.08,1.355v4.025c0,.982-.393,1.374-1.08,1.374h-.805v-6.754Zm-2.926,6.754H110.2c-.687,0-1.08-.393-1.08-1.374V-10.86c0-.982.393-1.355,1.08-1.355h.805Z" transform="translate(595.206 231.391)" fill="#a6a4a6"/><path d="M-130.593-4.828a1.661,1.661,0,0,1,.191-.8,1.533,1.533,0,0,1,.5-.541,2.255,2.255,0,0,1,.753-.306,4.3,4.3,0,0,1,.936-.1,3.089,3.089,0,0,1,.973.136,2.031,2.031,0,0,1,.675.361,1.4,1.4,0,0,1,.392.515,1.482,1.482,0,0,1,.126.594,1.273,1.273,0,0,1-.073.447,1.092,1.092,0,0,1-.2.34,1.121,1.121,0,0,1-.29.238,1.421,1.421,0,0,1-.343.141v.021a1.373,1.373,0,0,1,.507.175,1.18,1.18,0,0,1,.34.306,1.211,1.211,0,0,1,.191.39,1.518,1.518,0,0,1,.06.416,1.818,1.818,0,0,1-.209.9,1.813,1.813,0,0,1-.546.607,2.308,2.308,0,0,1-.758.343,3.41,3.41,0,0,1-.845.107,4.731,4.731,0,0,1-1.017-.1,2.19,2.19,0,0,1-.795-.335,1.613,1.613,0,0,1-.52-.607,2.071,2.071,0,0,1-.193-.918h1.412a.9.9,0,0,0,.073.366.847.847,0,0,0,.2.288.941.941,0,0,0,.314.188,1.164,1.164,0,0,0,.408.068,1.047,1.047,0,0,0,.452-.086.8.8,0,0,0,.285-.217.822.822,0,0,0,.149-.28.966.966,0,0,0,.044-.275.668.668,0,0,0-.222-.573,1.2,1.2,0,0,0-.709-.165H-129v-.988h.57a1.108,1.108,0,0,0,.7-.173.617.617,0,0,0,.207-.5.775.775,0,0,0-.06-.324.546.546,0,0,0-.167-.212A.663.663,0,0,0-128-5.494a1.41,1.41,0,0,0-.319-.034,1.04,1.04,0,0,0-.635.18.608.608,0,0,0-.243.52Zm5.642-1.579h1.412v.816h.021a2.749,2.749,0,0,1,.319-.442,1.578,1.578,0,0,1,.371-.306,1.591,1.591,0,0,1,.452-.178,2.5,2.5,0,0,1,.562-.058,2.436,2.436,0,0,1,.539.063,2.214,2.214,0,0,1,.541.2,2.251,2.251,0,0,1,.5.361,2.2,2.2,0,0,1,.413.546,3.073,3.073,0,0,1,.282.756,4.2,4.2,0,0,1,.1.986,5.041,5.041,0,0,1-.149,1.265,2.9,2.9,0,0,1-.45.988,2.081,2.081,0,0,1-.758.643,2.364,2.364,0,0,1-1.075.23,2.316,2.316,0,0,1-.434-.042,1.767,1.767,0,0,1-.429-.141,1.6,1.6,0,0,1-.395-.269,1.652,1.652,0,0,1-.327-.426h-.021V1.5h-1.48Zm2.7,1.161a1.111,1.111,0,0,0-.6.152,1.2,1.2,0,0,0-.392.392,1.751,1.751,0,0,0-.217.544,2.743,2.743,0,0,0-.068.6q0,.162.018.353a2.383,2.383,0,0,0,.071.387,2,2,0,0,0,.144.379,1.238,1.238,0,0,0,.233.324,1.087,1.087,0,0,0,.34.227,1.176,1.176,0,0,0,.471.086,1.176,1.176,0,0,0,.471-.086,1.087,1.087,0,0,0,.34-.227,1.238,1.238,0,0,0,.233-.324,2,2,0,0,0,.144-.379,2.383,2.383,0,0,0,.071-.387q.018-.191.018-.353a2.743,2.743,0,0,0-.068-.6,1.751,1.751,0,0,0-.217-.544,1.2,1.2,0,0,0-.395-.392A1.114,1.114,0,0,0-122.252-5.246Zm3.885-1.161h1.48v3.514h.021l2.076-3.514h1.553v5.7h-1.475V-4.143h-.026l-2.013,3.436h-1.616Zm7.776,1.2h-1.726v-1.2h4.926v1.2h-1.726v4.5h-1.475Zm5.182,2.107a1.846,1.846,0,0,0,.016.209,1.6,1.6,0,0,0,.063.282,1.511,1.511,0,0,0,.136.306,1.054,1.054,0,0,0,.238.28,1.19,1.19,0,0,0,.366.2,1.535,1.535,0,0,0,.52.078,1.119,1.119,0,0,0,.311-.044,1.034,1.034,0,0,0,.285-.131.962.962,0,0,0,.227-.209.766.766,0,0,0,.139-.28h1.532a1.137,1.137,0,0,1-.068.358,1.729,1.729,0,0,1-.207.408,2.434,2.434,0,0,1-.348.405,2.282,2.282,0,0,1-.5.353,2.924,2.924,0,0,1-.651.248,3.223,3.223,0,0,1-.808.094,3.3,3.3,0,0,1-1.069-.17,2.269,2.269,0,0,1-.873-.539,2.544,2.544,0,0,1-.588-.954A4.156,4.156,0,0,1-106.9-3.62a4.017,4.017,0,0,1,.154-1.116,2.674,2.674,0,0,1,.481-.944,2.348,2.348,0,0,1,.837-.651,2.828,2.828,0,0,1,1.226-.243,2.937,2.937,0,0,1,1.276.248,2.1,2.1,0,0,1,.834.7,2.981,2.981,0,0,1,.452,1.1A6.918,6.918,0,0,1-101.5-3.1Zm2.369-.983a1.537,1.537,0,0,0-.112-.628,1.143,1.143,0,0,0-.282-.4.986.986,0,0,0-.374-.209,1.385,1.385,0,0,0-.392-.06,1.369,1.369,0,0,0-.387.06.986.986,0,0,0-.374.209,1.144,1.144,0,0,0-.282.4,1.537,1.537,0,0,0-.112.628Zm7.959,3.373h-1.475V-5.2H-98.3l-.031,1.062a15.669,15.669,0,0,1-.115,1.569,4.115,4.115,0,0,1-.29,1.127,1.557,1.557,0,0,1-.544.682,1.54,1.54,0,0,1-.876.23,2.944,2.944,0,0,1-.439-.029,1.265,1.265,0,0,1-.309-.081V-1.884a1.13,1.13,0,0,0,.186.058,1.232,1.232,0,0,0,.275.026.472.472,0,0,0,.3-.1.8.8,0,0,0,.225-.371,3.517,3.517,0,0,0,.146-.745q.052-.476.068-1.229l.042-2.16h4.586Zm1.553-5.7h1.48v3.514h.021l2.076-3.514H-88.4v5.7h-1.475V-4.143H-89.9L-91.912-.707h-1.616Zm11.039,2.238h1.14a1.873,1.873,0,0,0,.418-.039.675.675,0,0,0,.264-.115.4.4,0,0,0,.136-.188.8.8,0,0,0,.039-.264.672.672,0,0,0-.039-.233.416.416,0,0,0-.133-.183.7.7,0,0,0-.251-.12,1.464,1.464,0,0,0-.392-.044h-1.182Zm-1.48-2.238h2.949a4.1,4.1,0,0,1,.756.068,1.872,1.872,0,0,1,.641.238,1.258,1.258,0,0,1,.442.46,1.474,1.474,0,0,1,.165.735,1.6,1.6,0,0,1-.055.444,1.076,1.076,0,0,1-.149.322.988.988,0,0,1-.217.225,1.541,1.541,0,0,1-.254.154,1.273,1.273,0,0,1,.654.484,1.379,1.379,0,0,1,.225.792,1.851,1.851,0,0,1-.139.729,1.593,1.593,0,0,1-.392.56,1.77,1.77,0,0,1-.617.361,2.434,2.434,0,0,1-.813.128h-3.2Zm1.48,4.649h1.14a1.608,1.608,0,0,0,.515-.068A.807.807,0,0,0-80.53-2a.505.505,0,0,0,.141-.23.9.9,0,0,0,.034-.235.951.951,0,0,0-.055-.348.486.486,0,0,0-.173-.222.732.732,0,0,0-.309-.115,2.868,2.868,0,0,0-.458-.031h-1.14Zm7.881-4.649h1.48v2.165l2.134-2.165h1.966l-2.353,2.369,2.453,3.331h-1.93l-1.673-2.405-.6.6v1.8h-1.48Zm6.5,0h1.48v3.514h.021l2.076-3.514h1.553v5.7h-1.475V-4.143h-.026L-66.492-.707h-1.616Zm6.542,0h1.48v2.06h2.175v-2.06h1.475v5.7h-1.475V-3.149h-2.175V-.707h-1.48Zm6.2,2.85a3.529,3.529,0,0,1,.2-1.213,2.716,2.716,0,0,1,.58-.954,2.656,2.656,0,0,1,.918-.625,3.122,3.122,0,0,1,1.213-.225,3.171,3.171,0,0,1,1.226.225,2.6,2.6,0,0,1,.915.625,2.725,2.725,0,0,1,.573.954,3.571,3.571,0,0,1,.2,1.213,3.571,3.571,0,0,1-.2,1.213,2.753,2.753,0,0,1-.573.957,2.581,2.581,0,0,1-.915.628,3.171,3.171,0,0,1-1.226.225,3.122,3.122,0,0,1-1.213-.225,2.639,2.639,0,0,1-.918-.628,2.744,2.744,0,0,1-.58-.957A3.529,3.529,0,0,1-55.364-3.557Zm1.543,0a2.933,2.933,0,0,0,.071.641,1.7,1.7,0,0,0,.233.565,1.242,1.242,0,0,0,.424.4,1.264,1.264,0,0,0,.643.152,1.331,1.331,0,0,0,.662-.149,1.184,1.184,0,0,0,.421-.392,1.63,1.63,0,0,0,.222-.56,3.236,3.236,0,0,0,.065-.656,3.248,3.248,0,0,0-.065-.654,1.63,1.63,0,0,0-.222-.562,1.184,1.184,0,0,0-.421-.392,1.331,1.331,0,0,0-.662-.149,1.264,1.264,0,0,0-.643.152,1.242,1.242,0,0,0-.424.4,1.7,1.7,0,0,0-.233.565A2.933,2.933,0,0,0-53.821-3.557ZM-47.238-5.2h-1.726v-1.2h4.926v1.2h-1.726v4.5h-1.475ZM-42.055-3.1a1.846,1.846,0,0,0,.016.209,1.6,1.6,0,0,0,.063.282,1.511,1.511,0,0,0,.136.306,1.054,1.054,0,0,0,.238.28,1.19,1.19,0,0,0,.366.2,1.535,1.535,0,0,0,.52.078,1.119,1.119,0,0,0,.311-.044,1.034,1.034,0,0,0,.285-.131.962.962,0,0,0,.227-.209.766.766,0,0,0,.139-.28h1.532a1.137,1.137,0,0,1-.068.358,1.729,1.729,0,0,1-.207.408,2.434,2.434,0,0,1-.348.405,2.282,2.282,0,0,1-.5.353,2.924,2.924,0,0,1-.651.248,3.223,3.223,0,0,1-.808.094A3.3,3.3,0,0,1-41.87-.7a2.269,2.269,0,0,1-.873-.539,2.543,2.543,0,0,1-.588-.954,4.156,4.156,0,0,1-.214-1.422,4.017,4.017,0,0,1,.154-1.116,2.674,2.674,0,0,1,.481-.944,2.348,2.348,0,0,1,.837-.651,2.828,2.828,0,0,1,1.226-.243,2.937,2.937,0,0,1,1.276.248,2.1,2.1,0,0,1,.834.7,2.981,2.981,0,0,1,.452,1.1A6.918,6.918,0,0,1-38.149-3.1Zm2.369-.983a1.537,1.537,0,0,0-.112-.628,1.143,1.143,0,0,0-.282-.4.986.986,0,0,0-.374-.209,1.385,1.385,0,0,0-.392-.06,1.369,1.369,0,0,0-.387.06.986.986,0,0,0-.374.209,1.144,1.144,0,0,0-.282.4A1.537,1.537,0,0,0-42-4.08Zm7.133,2.249a2.524,2.524,0,0,0,.029.421,1.007,1.007,0,0,0,.076.261.376.376,0,0,0,.107.141.425.425,0,0,0,.128.065v.235H-33.85a2.756,2.756,0,0,1-.092-.264,1.4,1.4,0,0,1-.05-.4q-.173.178-.337.329a1.886,1.886,0,0,1-.369.264,1.917,1.917,0,0,1-.471.178,2.737,2.737,0,0,1-.643.065,2.118,2.118,0,0,1-.7-.112,1.559,1.559,0,0,1-.557-.332,1.489,1.489,0,0,1-.366-.549,2.06,2.06,0,0,1-.131-.763,1.884,1.884,0,0,1,.11-.651,1.634,1.634,0,0,1,.311-.528,1.662,1.662,0,0,1,.492-.377,2.062,2.062,0,0,1,.651-.2l1.449-.214q.078-.01.17-.031a.54.54,0,0,0,.17-.071.408.408,0,0,0,.131-.136.447.447,0,0,0,.052-.233.727.727,0,0,0-.044-.259.484.484,0,0,0-.149-.2.734.734,0,0,0-.28-.133,1.713,1.713,0,0,0-.437-.047,1.554,1.554,0,0,0-.478.06.7.7,0,0,0-.285.167.639.639,0,0,0-.152.251,1.668,1.668,0,0,0-.068.306h-1.48a1.721,1.721,0,0,1,.034-.29,2,2,0,0,1,.126-.405,2.168,2.168,0,0,1,.256-.444,1.788,1.788,0,0,1,.434-.411,2.412,2.412,0,0,1,.656-.306,3.246,3.246,0,0,1,.926-.126,4.086,4.086,0,0,1,1.237.154,1.94,1.94,0,0,1,.737.4,1.251,1.251,0,0,1,.356.554,2.117,2.117,0,0,1,.092.609Zm-1.48-1.658q-.136.073-.272.133a1.668,1.668,0,0,1-.361.1l-.392.073a3.547,3.547,0,0,0-.45.11,1.014,1.014,0,0,0-.322.165.655.655,0,0,0-.193.248.9.9,0,0,0-.065.366.8.8,0,0,0,.058.316.587.587,0,0,0,.159.22.668.668,0,0,0,.238.128.991.991,0,0,0,.293.042,1.608,1.608,0,0,0,.214-.018,1.408,1.408,0,0,0,.277-.071,1.515,1.515,0,0,0,.293-.144,1.02,1.02,0,0,0,.261-.238,1.22,1.22,0,0,0,.188-.358,1.531,1.531,0,0,0,.073-.5ZM-29.97-5.2H-31.7v-1.2h4.926v1.2H-28.5v4.5H-29.97Zm4.079-1.2h1.412v.816h.021a2.749,2.749,0,0,1,.319-.442,1.578,1.578,0,0,1,.371-.306,1.591,1.591,0,0,1,.452-.178,2.5,2.5,0,0,1,.562-.058,2.436,2.436,0,0,1,.539.063,2.214,2.214,0,0,1,.541.2,2.251,2.251,0,0,1,.5.361,2.2,2.2,0,0,1,.413.546,3.073,3.073,0,0,1,.282.756,4.2,4.2,0,0,1,.1.986A5.041,5.041,0,0,1-20.523-2.4a2.9,2.9,0,0,1-.45.988,2.081,2.081,0,0,1-.758.643,2.364,2.364,0,0,1-1.075.23,2.316,2.316,0,0,1-.434-.042,1.767,1.767,0,0,1-.429-.141,1.6,1.6,0,0,1-.395-.269,1.652,1.652,0,0,1-.327-.426h-.021V1.5h-1.48Zm2.7,1.161a1.111,1.111,0,0,0-.6.152,1.2,1.2,0,0,0-.392.392,1.751,1.751,0,0,0-.217.544,2.743,2.743,0,0,0-.068.6q0,.162.018.353a2.384,2.384,0,0,0,.071.387,2,2,0,0,0,.144.379A1.238,1.238,0,0,0-24-2.114a1.087,1.087,0,0,0,.34.227,1.176,1.176,0,0,0,.471.086,1.176,1.176,0,0,0,.471-.086,1.087,1.087,0,0,0,.34-.227,1.238,1.238,0,0,0,.233-.324,2,2,0,0,0,.144-.379,2.384,2.384,0,0,0,.071-.387q.018-.191.018-.353a2.743,2.743,0,0,0-.068-.6A1.751,1.751,0,0,0-22.2-4.7a1.2,1.2,0,0,0-.395-.392A1.114,1.114,0,0,0-23.193-5.246ZM-18.246-3.1a1.846,1.846,0,0,0,.016.209,1.6,1.6,0,0,0,.063.282,1.511,1.511,0,0,0,.136.306,1.054,1.054,0,0,0,.238.28,1.19,1.19,0,0,0,.366.2,1.535,1.535,0,0,0,.52.078,1.119,1.119,0,0,0,.311-.044,1.034,1.034,0,0,0,.285-.131.962.962,0,0,0,.227-.209.766.766,0,0,0,.139-.28h1.532a1.137,1.137,0,0,1-.068.358,1.729,1.729,0,0,1-.207.408,2.434,2.434,0,0,1-.348.405,2.282,2.282,0,0,1-.5.353,2.924,2.924,0,0,1-.651.248,3.223,3.223,0,0,1-.808.094A3.3,3.3,0,0,1-18.06-.7a2.269,2.269,0,0,1-.873-.539,2.544,2.544,0,0,1-.588-.954,4.156,4.156,0,0,1-.214-1.422,4.017,4.017,0,0,1,.154-1.116A2.674,2.674,0,0,1-19.1-5.68a2.348,2.348,0,0,1,.837-.651,2.828,2.828,0,0,1,1.226-.243,2.937,2.937,0,0,1,1.276.248,2.1,2.1,0,0,1,.834.7,2.981,2.981,0,0,1,.452,1.1A6.918,6.918,0,0,1-14.34-3.1Zm2.369-.983a1.537,1.537,0,0,0-.112-.628,1.143,1.143,0,0,0-.282-.4.986.986,0,0,0-.374-.209,1.385,1.385,0,0,0-.392-.06,1.369,1.369,0,0,0-.387.06.986.986,0,0,0-.374.209,1.143,1.143,0,0,0-.282.4,1.537,1.537,0,0,0-.112.628Z" transform="translate(680.735 305.933)" fill="#242549"/><path d="M3.843-15.769h-3V-2.025H2.724v-9.719l1.61,9.719H6.376l1.492-9.856v9.856H9.91V-15.769h-3L5.434-6.011Zm12.429,0H13.111l-2.2,13.744h1.983l.373-2.494h2.651l.373,2.494h2.179Zm-1.689,2.435,1.041,6.951H13.543Zm4.28,11.329H19.2c2.16,0,3.063-.982,3.142-3.495l.236-8.305h1.885V-2.025h2.2V-15.769H20.552L20.2-5.382c-.039,1.276-.353,1.414-1.335,1.414Zm11.427-10.6c0-.982.432-1.355,1.119-1.355s1.119.373,1.119,1.355v7.422c0,.982-.432,1.355-1.119,1.355S30.291-4.2,30.291-5.186Zm-2.16,7.284c0,2.2,1.158,3.456,3.279,3.456s3.279-1.257,3.279-3.456V-12.47c0-2.2-1.158-3.456-3.279-3.456s-3.279,1.257-3.279,3.456ZM39.342-15.769H36.083V-2.025h3.4a2.922,2.922,0,0,0,3.279-3.259V-6.4c0-1.453-.452-2.494-1.61-2.945.962-.452,1.394-1.355,1.394-2.768v-.491C42.543-14.728,41.58-15.769,39.342-15.769ZM39.2-8.21c.982,0,1.394.393,1.394,1.669v1.2c0,1.021-.393,1.355-1.119,1.355H38.243V-8.21Zm.079-5.6c.766,0,1.1.432,1.1,1.414v.766c0,1.1-.491,1.453-1.3,1.453h-.844v-3.632Zm6.931,0h3.731v-1.963h-5.89V-2.025h5.89V-3.988H46.214V-8.013h2.965V-9.977H46.214Zm8.246-1.963H51.28V-2.025h2.16V-7.189h1.021c2.16,0,3.22-1.2,3.22-3.4v-1.787C57.681-14.571,56.62-15.769,54.461-15.769Zm0,1.963c.687,0,1.06.314,1.06,1.3v2.062c0,.982-.373,1.3-1.06,1.3H53.44v-4.653Zm6.2,1.2c0-.982.432-1.355,1.119-1.355s1.119.373,1.119,1.355v7.422c0,.982-.432,1.355-1.119,1.355S60.665-4.2,60.665-5.186Zm-2.16,7.284c0,2.2,1.158,3.456,3.279,3.456s3.279-1.257,3.279-3.456V-12.47c0-2.2-1.158-3.456-3.279-3.456s-3.279,1.257-3.279,3.456Zm9.758,3.3a4.227,4.227,0,0,0,.2-1.689v-2.16c0-1.276.432-1.747,1.414-1.747h.746v5.6h2.16V-15.769H69.52c-2.238,0-3.2,1.041-3.2,3.161v1.08A2.74,2.74,0,0,0,67.734-8.74c-1.08.452-1.433,1.492-1.433,2.926v2.121a4.048,4.048,0,0,1-.236,1.669ZM70.62-13.806v4.221h-.844c-.805,0-1.3-.353-1.3-1.453v-1.355c0-.982.334-1.414,1.1-1.414Zm3.1,0H75.98V-2.025h2.16V-13.806H80.4v-1.963H73.722ZM83.5-7.915h2.454v5.89h2.2V-15.769h-2.2v5.89H83.5v-5.89H81.34V-2.025H83.5Zm9.4,5.89c2.16,0,3.22-1.2,3.22-3.4V-7.208c0-2.2-1.06-3.4-3.22-3.4H91.884v-5.164h-2.16V-2.025ZM91.884-3.988V-8.642H92.9c.687,0,1.06.314,1.06,1.3v2.062c0,.982-.373,1.3-1.06,1.3Zm7.638,1.963V-15.769h-2.16V-2.025Zm3.789,0h-2.219V-15.769h1.924v8.7l.785-3.024,1.767-5.674h2.376V-2.025H106V-11.7l-.884,3.377Zm3.534-16.807a2.03,2.03,0,0,1-2.3,2.179,2.026,2.026,0,0,1-2.258-2.179h1.335c.059.726.353.9.923.9.589,0,.923-.177.982-.9ZM5.08,10.7v1.963C5.08,13.645,4.648,14,3.961,14s-1.119-.353-1.119-1.335V5.242c0-.982.432-1.355,1.119-1.355S5.08,4.26,5.08,5.242V6.714H7.122V5.379c0-2.2-1.1-3.456-3.22-3.456S.682,3.18.682,5.379v7.147c0,2.2,1.1,3.456,3.22,3.456s3.22-1.257,3.22-3.456V10.7Zm3.357,5.125h5.655V17.67h2.1V13.9h-.942V2.08h-2.2V13.861H10.6V2.08H8.438ZM19.531,4.044h3.731V2.08h-5.89V15.825h5.89V13.861H19.531V9.836H22.5V7.873H19.531Zm7.225,5.89h2.454v5.89h2.2V2.08h-2.2v5.89H26.757V2.08H24.6V15.825h2.16ZM37.771,2.08H34.61l-2.2,13.744h1.983l.373-2.494h2.651l.373,2.494H39.97ZM36.083,4.515l1.041,6.951H35.042Zm8.07-2.435H40.972V15.825h2.16V10.661h1.021c2.16,0,3.22-1.2,3.22-3.4V5.477C47.373,3.278,46.312,2.08,44.153,2.08Zm0,1.963c.687,0,1.06.314,1.06,1.3V7.4c0,.982-.373,1.3-1.06,1.3H43.132V4.044ZM52.4,9.522l.884-3.377v9.68h1.944V2.08H52.851L51.084,7.755,50.3,10.778V2.08H48.374V15.825h2.219Zm6.578,6.3H56.758V2.08h1.924v8.7l.785-3.024L61.235,2.08H63.61V15.825H61.666V6.145l-.884,3.377ZM62.511-.983a2.03,2.03,0,0,1-2.3,2.179A2.026,2.026,0,0,1,57.956-.983h1.335c.059.726.353.9.923.9.589,0,.923-.177.982-.9Z" transform="translate(60.615 49.505)" fill="#a6a4a6"/><path d="M4.039-15.769H.859V-2.025h2.16V-7.189H4.039c2.16,0,3.22-1.2,3.22-3.4v-1.787C7.26-14.571,6.2-15.769,4.039-15.769Zm0,1.963c.687,0,1.06.314,1.06,1.3v2.062c0,.982-.373,1.3-1.06,1.3H3.018v-4.653Zm6.381,0h3.731v-1.963H8.261V-2.025h5.89V-3.988H10.421V-8.013h2.965V-9.977H10.421Zm9.856-1.963H17.116l-2.2,13.744H16.9l.373-2.494h2.651L20.3-2.025h2.179Zm-1.689,2.435,1.041,6.951H17.548Zm4.28,11.329H23.2c2.16,0,3.063-.982,3.142-3.495l.236-8.305h1.885V-2.025h2.2V-15.769H24.557L24.2-5.382c-.039,1.276-.353,1.414-1.335,1.414ZM36.338-8.328l.884-3.377v9.68h1.944V-15.769H36.79l-1.767,5.674-.785,3.024v-8.7H32.313V-2.025h2.219Zm8.58,1.178v1.963c0,.982-.432,1.335-1.119,1.335S42.68-4.2,42.68-5.186v-7.422c0-.982.432-1.355,1.119-1.355s1.119.373,1.119,1.355v1.473H46.96V-12.47c0-2.2-1.1-3.456-3.22-3.456s-3.22,1.257-3.22,3.456v7.147c0,2.2,1.1,3.456,3.22,3.456s3.22-1.257,3.22-3.456V-7.15Zm2.729-6.656h2.258V-2.025h2.16V-13.806h2.258v-1.963H47.648ZM59.291-8.328l.884-3.377v9.68h1.944V-15.769H59.742l-1.767,5.674L57.19-7.071v-8.7H55.266V-2.025h2.219Zm8.757-7.441v5.576c0,.923-.432,1.414-1.119,1.414a1.213,1.213,0,0,1-1.257-1.355v-5.635h-2.16v5.812c0,1.885.923,3.161,2.69,3.161a2.67,2.67,0,0,0,1.846-.766v5.537h2.16V-15.769Zm5.91,7.854h2.454v5.89h2.2V-15.769h-2.2v5.89H73.958v-5.89H71.8V-2.025h2.16Zm9.4,5.89c2.16,0,3.22-1.2,3.22-3.4V-7.208c0-2.2-1.06-3.4-3.22-3.4H82.342v-5.164h-2.16V-2.025ZM82.342-3.988V-8.642h1.021c.687,0,1.06.314,1.06,1.3v2.062c0,.982-.373,1.3-1.06,1.3Zm7.638,1.963V-15.769H87.82V-2.025Zm3.789,0H91.55V-15.769h1.924v8.7l.785-3.024,1.767-5.674H98.4V-2.025H96.459V-11.7l-.884,3.377ZM97.3-18.832a2.03,2.03,0,0,1-2.3,2.179,2.026,2.026,0,0,1-2.258-2.179h1.335c.059.726.353.9.923.9.589,0,.923-.177.982-.9ZM5.08,10.7v1.963C5.08,13.645,4.648,14,3.961,14s-1.119-.353-1.119-1.335V5.242c0-.982.432-1.355,1.119-1.355S5.08,4.26,5.08,5.242V6.714H7.122V5.379c0-2.2-1.1-3.456-3.22-3.456S.682,3.18.682,5.379v7.147c0,2.2,1.1,3.456,3.22,3.456s3.22-1.257,3.22-3.456V10.7Zm3.357,5.125h5.655V17.67h2.1V13.9h-.942V2.08h-2.2V13.861H10.6V2.08H8.438ZM19.531,4.044h3.731V2.08h-5.89V15.825h5.89V13.861H19.531V9.836H22.5V7.873H19.531Zm7.225,5.89h2.454v5.89h2.2V2.08h-2.2v5.89H26.757V2.08H24.6V15.825h2.16ZM37.771,2.08H34.61l-2.2,13.744h1.983l.373-2.494h2.651l.373,2.494H39.97ZM36.083,4.515l1.041,6.951H35.042Zm8.07-2.435H40.972V15.825h2.16V10.661h1.021c2.16,0,3.22-1.2,3.22-3.4V5.477C47.373,3.278,46.312,2.08,44.153,2.08Zm0,1.963c.687,0,1.06.314,1.06,1.3V7.4c0,.982-.373,1.3-1.06,1.3H43.132V4.044ZM52.4,9.522l.884-3.377v9.68h1.944V2.08H52.851L51.084,7.755,50.3,10.778V2.08H48.374V15.825h2.219Zm6.578,6.3H56.758V2.08h1.924v8.7l.785-3.024L61.235,2.08H63.61V15.825H61.666V6.145l-.884,3.377ZM62.511-.983a2.03,2.03,0,0,1-2.3,2.179A2.026,2.026,0,0,1,57.956-.983h1.335c.059.726.353.9.923.9.589,0,.923-.177.982-.9Z" transform="translate(193.593 49.505)" fill="#a6a4a6"/><path d="M3.862-15.419h-3V-1.675H2.743v-9.719l1.61,9.719H6.395l1.492-9.856v9.856H9.929V-15.419h-3L5.452-5.661Zm12.429,0H13.13L10.93-1.675h1.983l.373-2.494h2.651l.373,2.494H18.49ZM14.6-12.984l1.041,6.951H13.561ZM21.67-1.675V-13.455H25.2v-1.963H19.511V-1.675Zm9.012-6.3.884-3.377v9.68H33.51V-15.419H31.134L29.367-9.745l-.785,3.024v-8.7H26.658V-1.675h2.219Zm6.165,6.3a4.227,4.227,0,0,0,.2-1.689v-2.16c0-1.276.432-1.747,1.414-1.747H39.2v5.6h2.16V-15.419H38.1c-2.238,0-3.2,1.041-3.2,3.161v1.08A2.74,2.74,0,0,0,36.318-8.39c-1.08.452-1.433,1.492-1.433,2.926v2.121a4.048,4.048,0,0,1-.236,1.669ZM39.2-13.455v4.221H38.36c-.805,0-1.3-.353-1.3-1.453v-1.355c0-.982.334-1.414,1.1-1.414Zm11.7,11.781h2.219l-3-7.618,3-6.126h-2.16L48.138-9.43v-5.988h-2.16V-1.675h2.16V-5.9l.668-1.257Zm7.225-6.3.884-3.377v9.68h1.944V-15.419H58.583L56.816-9.745l-.785,3.024v-8.7H54.107V-1.675h2.219Zm6.519.412H67.1v5.89h2.2V-15.419H67.1v5.89H64.65v-5.89H62.49V-1.675h2.16Zm8.207-4.693c0-.982.432-1.355,1.119-1.355s1.119.373,1.119,1.355v7.422c0,.982-.432,1.355-1.119,1.355s-1.119-.373-1.119-1.355ZM70.7-4.973c0,2.2,1.158,3.456,3.279,3.456s3.279-1.257,3.279-3.456V-12.12c0-2.2-1.158-3.456-3.279-3.456S70.7-14.319,70.7-12.12Z" transform="translate(327.445 49.155)" fill="#a6a4a6"/></g></g></svg>