<svg xmlns="http://www.w3.org/2000/svg" width="21" height="21" viewBox="0 0 21 21"><g transform="translate(5776 -12948)"><rect width="21" height="21" transform="translate(-5776 12948)" fill="#292c45"/><g transform="translate(-5773 12951)"><g transform="translate(0 0)"><path d="M-1001.574-430.4c-.917,0-1.833.01-2.75,0a4.593,4.593,0,0,1-4.083-2.332,4.284,4.284,0,0,1-.625-2.252q-.01-2.883,0-5.766a4.662,4.662,0,0,1,3.93-4.522,5.675,5.675,0,0,1,.8-.061c1.828-.005,3.655-.012,5.483,0a4.582,4.582,0,0,1,4.1,2.331,4.284,4.284,0,0,1,.625,2.252q.01,2.883,0,5.766a4.661,4.661,0,0,1-3.93,4.521,6.169,6.169,0,0,1-.83.061C-999.763-430.4-1000.669-430.4-1001.574-430.4Zm.01-1.4v0c.978,0,1.956.025,2.933-.006a3.248,3.248,0,0,0,3.132-3.255q0-2.808,0-5.616a2.974,2.974,0,0,0-.051-.563,3.255,3.255,0,0,0-3.257-2.69c-1.333,0-2.666,0-4,0-.572,0-1.145-.015-1.716.009a3.257,3.257,0,0,0-3.107,3.248q0,2.808,0,5.616a3.006,3.006,0,0,0,.049.563,3.258,3.258,0,0,0,3.268,2.7C-1003.4-431.8-1002.48-431.8-1001.564-431.8Z" transform="translate(1009.037 445.344)" fill="#fffaea"/><path d="M-949.369-381.913a3.733,3.733,0,0,1-3.728-3.765,3.734,3.734,0,0,1,3.74-3.7,3.734,3.734,0,0,1,3.728,3.781A3.736,3.736,0,0,1-949.369-381.913Zm-2.327-3.741a2.337,2.337,0,0,0,2.322,2.34,2.34,2.34,0,0,0,2.345-2.317,2.336,2.336,0,0,0-2.33-2.348A2.338,2.338,0,0,0-951.7-385.654Z" transform="translate(956.834 393.119)" fill="#fffaea"/><path d="M-844.064-400.977a.487.487,0,0,1,.495.494.493.493,0,0,1-.494.5.5.5,0,0,1-.5-.5A.493.493,0,0,1-844.064-400.977Z" transform="translate(855.549 403.941)" fill="#fffaea"/></g></g></g></svg>