<svg xmlns="http://www.w3.org/2000/svg" width="145.95" height="24.596" viewBox="0 0 145.95 24.596"><g transform="translate(-6.322 -3.668)"><g transform="translate(-200.528 -287.793)"><path d="M209.584,291.484c1.085-.007,2.6-.022,2.694-.023a6.959,6.959,0,0,0,.866.021,1.34,1.34,0,0,1,.888.17c1.1.725,1.211,1.033,1.211,1.132a.869.869,0,0,1-.019.2.606.606,0,0,0-.268-.107.368.368,0,0,1-.267-.136.375.375,0,0,1-.025-.293.1.1,0,1,0-.187-.047.494.494,0,0,0,.452.668.536.536,0,0,1,.282.151.753.753,0,0,0,.534.218h.064c.378,0,.446,0,.67.244s.226.263.23.516v.052a.553.553,0,0,1-.186.455l-.068.084c-.045,0-.092,0-.142,0a.78.78,0,0,1-.629-.323c-.039-.039-.08-.081-.126-.126a.1.1,0,0,0-.134.139c.045.043.085.084.123.122a.971.971,0,0,0,.758.38c.072,0,.136,0,.2,0h.04a.609.609,0,0,1,.641.29c.24.322.24.324.229.47,0,.034-.006.074-.007.124a.8.8,0,0,1-.319.508l-.057.054a1.886,1.886,0,0,1-.788.112,2.161,2.161,0,0,0-.449-.15.1.1,0,0,0-.027.191,4.117,4.117,0,0,1,.732.279c.241.107.491.217.683.277a11.992,11.992,0,0,0,2.323.2,1.96,1.96,0,0,1,.756.146,1.969,1.969,0,0,0,.428.118,8.442,8.442,0,0,0,.936.05c.177,0,.359.007.546.015l.078,0c.175.008.307.013.411.023a.305.305,0,0,0-.052.037.68.68,0,0,0-.16.509.462.462,0,0,0,.442.518,3.952,3.952,0,0,1-.991.176,3.4,3.4,0,0,1-.6-.013c-.207-.017-.464-.039-.936-.043a10.019,10.019,0,0,1-1.725-.157c-.2-.03-.428-.065-.705-.1a5.919,5.919,0,0,0-1.743.021,17.427,17.427,0,0,1-1.749.132,6.16,6.16,0,0,0-2.324.434,11.988,11.988,0,0,1-1.4.427.1.1,0,0,0,.021.191.089.089,0,0,0,.023,0,11.614,11.614,0,0,0,1.258-.375,3.672,3.672,0,0,0-1.137,1.879,4.36,4.36,0,0,0,.34,1.768c.087.268.185.572.293.939a3.37,3.37,0,0,1-.133,2.431,1.5,1.5,0,0,0-.06-.716.521.521,0,0,0-.67-.365.1.1,0,0,0,.04.189.333.333,0,0,1,.445.233,1.114,1.114,0,0,1,.034.684.732.732,0,0,1-.649.355c-.2-.027-.174-.778-.167-1.026,0-.076,0-.136,0-.18a2.061,2.061,0,0,0-.2-.715c-.031-.08-.065-.169-.1-.269-.073-.2-.132-.374-.2-.579-.1-.3-.21-.636-.4-1.144a6.818,6.818,0,0,0-.576-1.11,3.176,3.176,0,0,1-.418-.852,5.138,5.138,0,0,0-.658-1.561c-.123-.228-.252-.425-.377-.615a2.591,2.591,0,0,1-.574-1.506c-.025-2.363.027-4.244.926-5.159A2.42,2.42,0,0,1,209.584,291.484Z" fill="#2a2846"/><path d="M245.961,307.635c.008-.21.037-.32.095-.371a.333.333,0,0,1,.223-.052c.037,0,.078,0,.125.007.317.029.353.218.344.417a.331.331,0,0,1-.091.245.453.453,0,0,1-.331.082C245.949,307.945,245.957,307.743,245.961,307.635Z" transform="translate(-23.323 -9.392)" fill="#2a2846"/><path d="M236.661,344.265a6.709,6.709,0,0,0,1.261-.428.761.761,0,0,0,.032.09,1.822,1.822,0,0,1,.122.516c.017.14.029.24.106.295a.166.166,0,0,0,.1.03.236.236,0,0,0,.054-.006.73.73,0,0,0,.088-.027,2.675,2.675,0,0,1-.4.288l-.136.085a2.043,2.043,0,0,1-.873.393,3.917,3.917,0,0,0-.909.24,4.575,4.575,0,0,1-.785.221c-.086.006-.16.01-.226.012a.1.1,0,0,0-.08,0,.758.758,0,0,1-.432-.137c-.053-.034-.1-.062-.145-.086a.468.468,0,0,1-.3-.425.719.719,0,0,1,.107-.692c.4-.034,1.307-.184,1.916-.285C236.373,344.311,236.55,344.282,236.661,344.265Z" transform="translate(-16.25 -31.234)" fill="#2a2846"/><path d="M220.579,320.956a5.541,5.541,0,0,1,1.1-.1c.273,0,.622-.033.93-.057.29-.023.564-.045.719-.044.106,0,.244.015.42.032a11.631,11.631,0,0,0,1.489.069,9.145,9.145,0,0,0,1.014-.078,6.783,6.783,0,0,1,1.1-.062,8.914,8.914,0,0,0,2.7-.406,2.909,2.909,0,0,0-.346.85.1.1,0,0,0,.074.115l.02,0a.1.1,0,0,0,.095-.076,4.723,4.723,0,0,1,1.206-1.937c.1-.113.193-.219.272-.315.438-.531.532-.781.377-1.837a8.2,8.2,0,0,0-.311-1.239,4.712,4.712,0,0,1-.292-1.467,3.486,3.486,0,0,1,.943-2.275.468.468,0,0,1,.382-.088.257.257,0,0,1,.136.1,1.35,1.35,0,0,0-.127,1.139,1.26,1.26,0,0,0,.019.21c.072.407.349,1.591.484,2.036l.012.037a6.078,6.078,0,0,0,.487,1.286c.04.063.1.14.16.229a2.484,2.484,0,0,1,.553,1.093,5.63,5.63,0,0,0,.943,2.214,3.964,3.964,0,0,1,.848,1.62c.022.25.054.5.084.747.2,1.613.394,3.136-2.032,4.5a8.289,8.289,0,0,1-3.212.532,10.8,10.8,0,0,0-3.195.349l-.084.034a.821.821,0,0,1-.8.023c-.423-.169-.444-.251-.505-.494a.475.475,0,0,1,.1-.5c.079,0,.165-.006.26-.013a4.45,4.45,0,0,0,.833-.23,4.157,4.157,0,0,1,.846-.23,1.089,1.089,0,0,0,.459-.123.543.543,0,0,0,.027.435l.006.015.011.012a.413.413,0,0,0,.294.109.682.682,0,0,0,.2-.032l-.023.018a3.542,3.542,0,0,1-.834.435.1.1,0,0,0,.031.188.1.1,0,0,0,.032-.005,3.684,3.684,0,0,0,.886-.463c.381-.284.371-.5.366-.627,0-.013,0-.025,0-.037a.41.41,0,0,0-.352-.426l.006,0c.313-.193.637-.43.69-.725a.71.71,0,0,0,.087-.122.537.537,0,0,0,.033-.454.629.629,0,0,0-.39-.395.554.554,0,0,0,.175-.195.649.649,0,0,0,.214-.628.6.6,0,0,0-.327-.4c-.385-.371-.658-.3-1.183-.129a6.118,6.118,0,0,1-1.569.224.1.1,0,0,0-.019-.063c-.067-.087-.128-.167-.184-.241-.082-.107-.154-.2-.222-.284a.092.092,0,0,0-.017-.021c-.386-.467-.628-.563-1.538-.549a19.759,19.759,0,0,1-1.985-.076c-.205-.016-.4-.031-.586-.04-.659-.034-1.471-.041-1.974-.016l-.128.007a1.244,1.244,0,0,1-.853-.128.519.519,0,0,1-.151-.381c-.024-.472.462-.568.919-.62A1.472,1.472,0,0,0,220.579,320.956Z" transform="translate(-7.53 -12.264)" fill="#2a2846"/><path d="M232.871,339.824a1.914,1.914,0,0,0,1.15-.575c.046.058.094.122.147.192l.147.192c-.23,0-.465,0-.7-.014a.1.1,0,0,0-.011.193c.157.009.316.014.474.015a7.172,7.172,0,0,0,2.072-.239,1.162,1.162,0,0,1,.7-.107.873.873,0,0,0-.228.076c-.442.218-.415.373-.335.83.008.049.018.1.027.16a.321.321,0,0,0,.138.236.342.342,0,0,0,.186.048.717.717,0,0,0,.076,0,5.673,5.673,0,0,1-1.418.513l-.5.082c-.632.1-1.586.263-1.948.287h0a1.167,1.167,0,0,1-.936-.446,1.468,1.468,0,0,1,.033-.844,1.209,1.209,0,0,1,.553-.488A1.859,1.859,0,0,1,232.871,339.824Z" transform="translate(-14.92 -28.498)" fill="#2a2846"/><path d="M252.151,312.673a2.517,2.517,0,0,1-.078.4c-.013.048-.028.1-.044.154A.874.874,0,0,1,252.151,312.673Z" transform="translate(-26.941 -12.65)" fill="#2a2846"/><path d="M243.355,348l0,.022c.023.134.043.249-.16.32a.34.34,0,0,1-.315-.007.335.335,0,0,1-.006-.288.277.277,0,0,1,.207-.131.668.668,0,0,1,.1-.008C243.265,347.909,243.342,347.928,243.355,348Z" transform="translate(-21.466 -33.661)" fill="#2a2846"/><path d="M244.18,344.138a2,2,0,0,0-.136-.567.364.364,0,0,1-.031-.1c.071-.035.139-.07.2-.106a.443.443,0,0,1,.45.3.34.34,0,0,1-.021.3.778.778,0,0,1-.438.325A.964.964,0,0,1,244.18,344.138Z" transform="translate(-22.162 -30.953)" fill="#2a2846"/><path d="M243.312,341.225c-.009-.006-.037-.024-.051-.1-.01-.058-.019-.112-.027-.161-.078-.443-.082-.47.23-.624a.626.626,0,0,1,.279-.069.468.468,0,0,1,.2.044.411.411,0,0,1,.228.272.534.534,0,0,1-.434.595C243.574,341.223,243.383,341.27,243.312,341.225Z" transform="translate(-21.671 -29.104)" fill="#2a2846"/></g><path d="M9.6,0h3.729L8.283-12.8l5.049-10.3H9.7L4.95-13.035V-23.1H1.32V0H4.95V-7.1L6.072-9.207ZM23.034-23.1H17.721L14.025,0h3.333l.627-4.191H22.44L23.067,0H26.73ZM20.2-19.008,21.945-7.326h-3.5ZM36.7,0h3.729L35.376-12.8l5.049-10.3h-3.63L32.043-13.035V-23.1h-3.63V0h3.63V-7.1l1.122-2.112ZM52.668-23.1H47.19V0H52.9c3.63,0,5.511-1.914,5.511-5.478V-7.359c0-2.442-.759-4.191-2.706-4.95,1.617-.759,2.343-2.277,2.343-4.653v-.825C58.047-21.351,56.43-23.1,52.668-23.1Zm-.231,12.705c1.65,0,2.343.66,2.343,2.8v2.013c0,1.716-.66,2.277-1.881,2.277H50.82v-7.095Zm.132-9.405c1.287,0,1.848.726,1.848,2.376v1.287c0,1.848-.825,2.442-2.178,2.442H50.82V-19.8ZM73.986,0h3.729L72.666-12.8l5.049-10.3h-3.63L69.333-13.035V-23.1H65.7V0h3.63V-7.1l1.122-2.112ZM86.13-10.593l1.485-5.676V0h3.267V-23.1H86.889l-2.97,9.537L82.6-8.481V-23.1H79.365V0h3.729ZM97.086-9.9h4.125V0h3.7V-23.1h-3.7v9.9H97.086v-9.9h-3.63V0h3.63Zm13.794-7.887c0-1.65.726-2.277,1.881-2.277s1.881.627,1.881,2.277V-5.313c0,1.65-.726,2.277-1.881,2.277s-1.881-.627-1.881-2.277ZM107.25-5.544c0,3.7,1.947,5.808,5.511,5.808s5.511-2.112,5.511-5.808V-17.556c0-3.7-1.947-5.808-5.511-5.808s-5.511,2.112-5.511,5.808Z" transform="translate(34 28)" fill="#2a2846"/></g></svg>