<svg xmlns="http://www.w3.org/2000/svg" width="116.991" height="39.334" viewBox="0 0 116.991 39.334"><g transform="translate(4146.653 44.879)"><path d="M-4146.649-24.949c-.017-2.835.023-5.71.059-8.584q.01-.78.062-1.558a13.708,13.708,0,0,1,.483-2.889,9.374,9.374,0,0,1,.709-1.787,7.6,7.6,0,0,1,2.715-2.924,10.473,10.473,0,0,1,2.207-1.04,16.894,16.894,0,0,1,2.365-.613q.721-.136,1.45-.226c.5-.061.993-.106,1.491-.146,1.983-.16,3.971-.173,5.959-.154.724.007,1.448.018,2.171.025,1.489.015,2.977.012,4.465-.031.123,0,.245,0,.367,0a.094.094,0,0,1,.08.08c0,.051.008.1.007.152-.015.632-.034,1.264-.046,1.9-.009.469-.021.938-.013,1.407a8.148,8.148,0,0,0,.1,1.218,3.916,3.916,0,0,0,.236.852,2.207,2.207,0,0,0,1.162,1.2,3.548,3.548,0,0,0,.846.258,6.041,6.041,0,0,0,.759.086c1.243.067,2.486.072,3.73.044.387-.009.774-.034,1.16-.068a4.8,4.8,0,0,0,.932-.167,2.918,2.918,0,0,0,.511-.2,1.867,1.867,0,0,0,.845-.855,3.339,3.339,0,0,0,.286-.963,10.27,10.27,0,0,0,.108-1.34c.025-1.019.049-2.038.024-3.058,0-.061,0-.122,0-.183,0-.034.048-.081.08-.079.082.005.164.007.244.02a17.49,17.49,0,0,1,2.965.724,10.929,10.929,0,0,1,2.022.935,8.188,8.188,0,0,1,3.357,3.817,11.047,11.047,0,0,1,.681,2.153,9.79,9.79,0,0,1,.177,1.363c.036.508.063,1.017.095,1.526,0,.041.005.081.007.122.024.642.054,1.283.07,1.925.106,4.2.109,8.4.063,12.6q-.015,1.376-.063,2.752a17.918,17.918,0,0,1-.288,2.734,11.623,11.623,0,0,1-.862,2.765,8.161,8.161,0,0,1-2.257,2.93,8.9,8.9,0,0,1-1.7,1.079,12.158,12.158,0,0,1-2.354.849,17.543,17.543,0,0,1-2.041.393.368.368,0,0,1-.12,0,.1.1,0,0,1-.065-.056.392.392,0,0,1-.014-.12c-.006-.224-.008-.449-.017-.673A10.683,10.683,0,0,0-4111.549-8a2.951,2.951,0,0,0-.189-.676,1.884,1.884,0,0,0-.994-1.03,2.862,2.862,0,0,0-.579-.194,6.493,6.493,0,0,0-.906-.133c-1.15-.085-2.3-.085-3.454-.07-.275,0-.551.008-.825.023a10.16,10.16,0,0,0-1.156.114,4.055,4.055,0,0,0-.882.243,3.537,3.537,0,0,0-.413.2,1.911,1.911,0,0,0-.827.951,3.437,3.437,0,0,0-.238,1.07c-.022.3-.031.611-.041.916-.009.275-.012.55-.02.825a.111.111,0,0,1-.119.111c-.071,0-.142,0-.214,0q-2.416.006-4.832.062c-1.8.043-3.609.062-5.413.013q-.917-.025-1.833-.093c-.528-.04-1.057-.087-1.583-.148q-.957-.112-1.9-.3a16.76,16.76,0,0,1-2.066-.548,11.441,11.441,0,0,1-2.3-1.057,8.155,8.155,0,0,1-2.644-2.544,8.867,8.867,0,0,1-1.07-2.391,9.022,9.022,0,0,1-.272-1.222c-.035-.252-.066-.506-.084-.76-.032-.437-.057-.875-.078-1.313-.134-2.842-.139-5.687-.165-8.531C-4146.65-24.624-4146.649-24.766-4146.649-24.949Zm24.565-5.472h0c0,.1-.01.2-.014.305a17.584,17.584,0,0,0,.019,2.2,6.684,6.684,0,0,0,.131.875,3.176,3.176,0,0,0,.192.579,2.192,2.192,0,0,0,1.1,1.135,3.469,3.469,0,0,0,.753.247,6.124,6.124,0,0,0,1.03.124c.245.01.489.014.733.024.846.035,1.691.038,2.537.02a17.02,17.02,0,0,0,1.708-.107,3.959,3.959,0,0,0,1.035-.257,1.937,1.937,0,0,0,1.126-1.178,3.975,3.975,0,0,0,.185-.74,8.935,8.935,0,0,0,.1-1.218c.02-.907.033-1.814.034-2.721a18.076,18.076,0,0,0-.076-1.924,4.78,4.78,0,0,0-.171-.93,1.964,1.964,0,0,0-1.313-1.343l-.087-.027a4.277,4.277,0,0,0-.867-.175c-.365-.036-.73-.07-1.1-.075-.326,0-.652-.02-.979-.027a28.5,28.5,0,0,0-3.237.086,5.269,5.269,0,0,0-.842.147,3.306,3.306,0,0,0-.85.337,1.924,1.924,0,0,0-.845.973,3.064,3.064,0,0,0-.109.318,3.6,3.6,0,0,0-.128.752c-.018.285-.033.57-.039.855C-4122.066-31.583-4122.074-31-4122.084-30.421Zm10.674,13.078h0c0-.234,0-.469,0-.7-.009-.754-.005-1.508-.082-2.26a4.7,4.7,0,0,0-.165-.9,1.959,1.959,0,0,0-1.3-1.352,4.7,4.7,0,0,0-.833-.191,9.679,9.679,0,0,0-1-.079,35.437,35.437,0,0,0-4.094.015c-.244.017-.488.042-.729.079a4.3,4.3,0,0,0-.856.223,2.831,2.831,0,0,0-.547.268,1.91,1.91,0,0,0-.739.874,2.8,2.8,0,0,0-.122.346,3.629,3.629,0,0,0-.134.782c-.016.295-.03.59-.039.885-.021.733-.036,1.467-.057,2.2a17.15,17.15,0,0,0,.037,2.108,4.665,4.665,0,0,0,.261,1.221,2.234,2.234,0,0,0,1.339,1.342,4.038,4.038,0,0,0,.735.2,7.464,7.464,0,0,0,1.095.1c1.223.041,2.445.061,3.668.013a10.755,10.755,0,0,0,1.309-.119,3.358,3.358,0,0,0,.961-.292,1.884,1.884,0,0,0,.884-.9,2.811,2.811,0,0,0,.2-.576,4.788,4.788,0,0,0,.126-.814c.025-.407.047-.814.061-1.221S-4111.417-16.926-4111.41-17.344Z" transform="translate(0 0)" fill="#2a1d4d"/><path d="M-2047.442,228.493q0-2.89,0-5.78,0-.153.005-.306a.113.113,0,0,1,.118-.113q.122-.006.244-.006l8.472-.03c.632,0,1.264,0,1.895.053a6.629,6.629,0,0,1,1.412.248,3.43,3.43,0,0,1,.729.313,2.471,2.471,0,0,1,1.068,1.219,3.465,3.465,0,0,1,.23.885,4.867,4.867,0,0,1,.042.487,13.7,13.7,0,0,1-.07,1.8,5.742,5.742,0,0,1-.153.872,3.61,3.61,0,0,1-.25.688,2.485,2.485,0,0,1-1.247,1.209,3.909,3.909,0,0,1-1.025.293,5.882,5.882,0,0,1-.914.072c-.041,0-.081,0-.122.005a.065.065,0,0,0-.052.089,1.232,1.232,0,0,0,.285.355,9.783,9.783,0,0,1,1.04,1.034c.32.357.651.7.989,1.043q.688.7,1.367,1.4c.085.087.159.185.237.278.017.02-.006.068-.033.07-.051,0-.1.011-.151.011l-3.731.006c-.051,0-.1,0-.153,0a.2.2,0,0,1-.136-.06c-.043-.043-.086-.087-.128-.131l-3.465-3.626c-.077-.081-.154-.163-.227-.248a.629.629,0,0,0-.484-.223l-.092,0h-1.713a.719.719,0,0,0-.152.012.073.073,0,0,0-.061.061c-.007.071-.016.141-.016.212,0,.377,0,.754,0,1.132q0,1.285,0,2.569c0,.3-.008.288-.284.3-1.08.041-2.161.028-3.241,0-.051,0-.1-.009-.151-.016a.1.1,0,0,1-.074-.086c0-.03-.007-.061-.007-.091,0-.092,0-.184,0-.275Zm6.386-.889c.42-.008,1.062-.018,1.7-.036a8.416,8.416,0,0,0,1.216-.116,1.568,1.568,0,0,0,.7-.293.96.96,0,0,0,.379-1.054.959.959,0,0,0-.687-.751,3.5,3.5,0,0,0-.385-.094,9.088,9.088,0,0,0-1.062-.121c-.56-.03-1.119-.062-1.68-.059q-1.268.008-2.537.021a1.542,1.542,0,0,0-.212.02.065.065,0,0,0-.04.041.459.459,0,0,0-.019.119c0,.194,0,.387,0,.581q0,.672,0,1.345c0,.081,0,.163,0,.244a.108.108,0,0,0,.109.12c.041,0,.081,0,.122,0Z" transform="translate(-2032.314 -258.623)" fill="#2a1d4d"/><path d="M-2525.716,233.566c-.652.01-1.3.021-1.957.028a15.076,15.076,0,0,1-1.619-.059,7.14,7.14,0,0,1-1.351-.245,3.911,3.911,0,0,1-.762-.312,2.629,2.629,0,0,1-1.327-1.712,2.473,2.473,0,0,1-.087-.511c-.013-.275-.037-.549-.045-.824q-.079-2.629-.016-5.258a6.293,6.293,0,0,1,.068-.914,3.874,3.874,0,0,1,.185-.708,2.453,2.453,0,0,1,1.128-1.318,3.721,3.721,0,0,1,.908-.357,7.821,7.821,0,0,1,1.235-.2,17.067,17.067,0,0,1,1.741-.056c1.264.014,2.528,0,3.791-.027.489-.011.978,0,1.467.037a6.908,6.908,0,0,1,1.445.237,3.725,3.725,0,0,1,.817.338,2.615,2.615,0,0,1,1.138,1.277,3.524,3.524,0,0,1,.274,1.278c.027.733.054,1.467.064,2.2.011.815,0,1.631,0,2.446q0,.749-.05,1.5a4.3,4.3,0,0,1-.191,1.019c-.031.1-.067.192-.105.287a2.6,2.6,0,0,1-1.287,1.374,4.005,4.005,0,0,1-.953.323,7.618,7.618,0,0,1-1.06.142c-.651.046-1.3.045-1.956.034-.5-.009-1-.015-1.5-.022Zm3.354-6.263h0c0-.051,0-.1,0-.153-.014-.479-.025-.957-.044-1.436a2.812,2.812,0,0,0-.12-.722,1.22,1.22,0,0,0-.759-.822c-.057-.022-.115-.042-.173-.059a3.478,3.478,0,0,0-.722-.119c-.733-.052-1.466-.064-2.2-.046-.316.008-.631.032-.946.056a2.846,2.846,0,0,0-.393.06,2.325,2.325,0,0,0-.659.237,1.226,1.226,0,0,0-.474.465,1.6,1.6,0,0,0-.157.4,3.638,3.638,0,0,0-.092.818c-.017.662-.033,1.324-.043,1.987,0,.265.006.53.015.794a3.307,3.307,0,0,0,.107.693,1.488,1.488,0,0,0,1.149,1.143c.02.005.04.008.06.013a3.888,3.888,0,0,0,.817.1c.764.022,1.528.029,2.292.011a7.707,7.707,0,0,0,.822-.067,2.235,2.235,0,0,0,.674-.189,1.193,1.193,0,0,0,.6-.625,1.868,1.868,0,0,0,.088-.26,3.355,3.355,0,0,0,.112-.754C-2522.39,228.322-2522.377,227.813-2522.363,227.3Z" transform="translate(-1562.32 -257.489)" fill="#2a1d4d"/><path d="M-916.487,221.77c.759,0,1.615.011,2.471.014.4,0,.8.026,1.19.065a6.23,6.23,0,0,1,1.259.241,3.743,3.743,0,0,1,.676.283,2.349,2.349,0,0,1,1.111,1.292,4.45,4.45,0,0,1,.242,1.164c.036.417.058.834.054,1.252-.012,1.193,0,2.385.016,3.578,0,.316,0,.632-.011.948a6.2,6.2,0,0,1-.182,1.33,3.188,3.188,0,0,1-.26.684,2.454,2.454,0,0,1-.908.971,3.485,3.485,0,0,1-.839.364,6.034,6.034,0,0,1-1.568.237q-1.36.033-2.721.046c-1.162.01-2.324.007-3.486-.025-.388-.011-.774-.035-1.158-.084a5.783,5.783,0,0,1-1.134-.244,4.645,4.645,0,0,1-.482-.192,2.357,2.357,0,0,1-1.322-1.591,5.834,5.834,0,0,1-.182-1.3c-.012-.3-.014-.591-.012-.887.009-1.193,0-2.385-.018-3.578-.007-.418.009-.836.026-1.253a4.8,4.8,0,0,1,.179-1.114q.029-.1.064-.2a2.455,2.455,0,0,1,1.255-1.435,4.213,4.213,0,0,1,1.068-.361,7.466,7.466,0,0,1,1.121-.143C-918.888,221.769-917.736,221.784-916.487,221.77Zm.005,2.833a14.907,14.907,0,0,0-1.6.052c-.162.016-.325.035-.484.067a2.321,2.321,0,0,0-.607.2,1.243,1.243,0,0,0-.644.741,2.255,2.255,0,0,0-.119.629c-.011.285-.022.57-.026.856q-.014.856-.021,1.712a7.125,7.125,0,0,0,.049.916,2.869,2.869,0,0,0,.081.419,1.418,1.418,0,0,0,1.133,1.075,4.715,4.715,0,0,0,.787.1q.641.034,1.283.054c.214.007.428.011.642,0a9.067,9.067,0,0,0,1.218-.1,4.015,4.015,0,0,0,.534-.13,1.761,1.761,0,0,0,.362-.162.878.878,0,0,0,.388-.456,3.527,3.527,0,0,0,.184-.771,12.945,12.945,0,0,0,.114-1.646,18,18,0,0,0-.058-1.8c-.015-.162-.034-.324-.063-.485a1.676,1.676,0,0,0-.156-.462,1.129,1.129,0,0,0-.507-.513,2.039,2.039,0,0,0-.312-.124,3.025,3.025,0,0,0-.691-.119C-915.506,224.623-916.015,224.6-916.481,224.6Z" transform="translate(-3120.195 -258.151)" fill="#2a1d4d"/><path d="M-1398.337,220.833l5.167.028c.332,0,.322-.016.322.311q0,1.116,0,2.232c0,.071,0,.142-.008.213a.1.1,0,0,1-.082.078c-.03,0-.061.008-.091.009-.071,0-.143,0-.214,0q-3.057,0-6.115,0c-.622,0-1.243.014-1.865.028a3.981,3.981,0,0,0-.908.116,2.473,2.473,0,0,0-.375.128,1.024,1.024,0,0,0-.545.553,2.141,2.141,0,0,0-.13.407,3.846,3.846,0,0,0-.073.545c-.02.346-.035.692-.037,1.039,0,.581,0,1.162.01,1.743a3.9,3.9,0,0,0,.082.881,2.676,2.676,0,0,0,.093.322,1.3,1.3,0,0,0,1.059.864,4.271,4.271,0,0,0,.455.057c.417.028.834.058,1.251.07q1.635.047,3.271,0c.122,0,.244-.01.366-.018a.116.116,0,0,0,.118-.115c0-.092,0-.183,0-.275q0-1.62,0-3.241c0-.092,0-.183,0-.275a.21.21,0,0,1,.015-.089.114.114,0,0,1,.063-.057.646.646,0,0,1,.151-.014h3.272a.671.671,0,0,1,.152.012.114.114,0,0,1,.062.058.213.213,0,0,1,.016.089c0,.081,0,.163,0,.245q0,3.057,0,6.115c0,.082,0,.163,0,.245,0,.14-.049.151-.168.156h-.092q-3.287.023-6.573.045c-.479,0-.958-.006-1.437-.006-.734,0-1.467-.033-2.2-.069a6.989,6.989,0,0,1-1.538-.234,3.82,3.82,0,0,1-.74-.286,2.336,2.336,0,0,1-1.145-1.3,4.68,4.68,0,0,1-.251-1.131,10.483,10.483,0,0,1-.061-1.1q0-.459,0-.917,0-1.223,0-2.446c0-.418.006-.836.012-1.253a7.678,7.678,0,0,1,.122-1.215,3.683,3.683,0,0,1,.2-.705,2.383,2.383,0,0,1,1.161-1.287,3.96,3.96,0,0,1,1.008-.347,7.6,7.6,0,0,1,1.028-.142c.814-.058,1.629-.062,2.444-.073.917-.013,1.834-.012,2.752-.017Z" transform="translate(-2652.287 -257.226)" fill="#2a1d4d"/><path d="M-1571.984,228.567q0,2.905,0,5.811c0,.415.04.383-.373.385l-3.028.012c-.091,0-.183-.007-.274-.015-.016,0-.035-.024-.042-.041a.289.289,0,0,1-.015-.09c0-.092,0-.184,0-.275q0-5.765,0-11.53c0-.112,0-.224.007-.336a.091.091,0,0,1,.075-.083c.061-.005.121-.012.182-.013l3.242-.026a1.141,1.141,0,0,1,.181.016.07.07,0,0,1,.042.04.255.255,0,0,1,.019.089c0,.1,0,.2,0,.306q0,2.875,0,5.75Z" transform="translate(-2489.007 -258.729)" fill="#2a1d4d"/><path d="M-1534.828,730.172q0-1.36,0-2.72c0-.091,0-.183.008-.275a.106.106,0,0,1,.1-.094c.051,0,.1,0,.153,0h2.873a3.072,3.072,0,0,1,.815.11,2,2,0,0,1,1.291,1.044,3.018,3.018,0,0,1,.3.9,5.95,5.95,0,0,1,.006,2.068,2.973,2.973,0,0,1-.288.866,2.148,2.148,0,0,1-1.708,1.188,3.705,3.705,0,0,1-.488.029c-.927,0-1.854,0-2.781,0-.061,0-.122,0-.183-.008a.112.112,0,0,1-.092-.106c0-.092-.006-.183-.006-.275Q-1534.829,731.532-1534.828,730.172Zm1.4-.008q0,.871,0,1.741a1.8,1.8,0,0,0,.014.243.094.094,0,0,0,.062.057.626.626,0,0,0,.151.015h1.344c.051,0,.1,0,.153-.006a.981.981,0,0,0,.747-.419,1.7,1.7,0,0,0,.161-.293,2.291,2.291,0,0,0,.172-.678,6.413,6.413,0,0,0-.006-1.372,2.5,2.5,0,0,0-.116-.536,2.035,2.035,0,0,0-.118-.281.853.853,0,0,0-.61-.464,1.723,1.723,0,0,0-.363-.044h-1.405l-.061,0a.115.115,0,0,0-.121.11c0,.092,0,.183,0,.275Q-1533.431,729.339-1533.431,730.164Z" transform="translate(-2528.592 -747.357)" fill="#2a1d4d"/><path d="M-1251.718,725.745c.168.009.4.021.637.032a3.169,3.169,0,0,1,.543.085,2.11,2.11,0,0,1,.865.438,1.283,1.283,0,0,1,.323.4,3.508,3.508,0,0,1,.375,1.126,7.308,7.308,0,0,1,.037,1.677,4.516,4.516,0,0,1-.144.9c-.028.1-.051.2-.086.293a1.784,1.784,0,0,1-1.327,1.19,4.3,4.3,0,0,1-.816.117,10,10,0,0,1-1.588-.043,2.429,2.429,0,0,1-.969-.35,1.243,1.243,0,0,1-.352-.336,2.467,2.467,0,0,1-.441-1.03,7.249,7.249,0,0,1-.1-.972,6.623,6.623,0,0,1,.1-1.613,4.855,4.855,0,0,1,.135-.533,1.866,1.866,0,0,1,.59-.875,1.789,1.789,0,0,1,.7-.362,4.947,4.947,0,0,1,1.179-.152C-1251.967,725.743-1251.875,725.745-1251.718,725.745Zm1.411,3.1c-.007-.214-.01-.438-.023-.661a2.034,2.034,0,0,0-.256-.9.689.689,0,0,0-.413-.34,2.054,2.054,0,0,0-.237-.059,4.142,4.142,0,0,0-1.277.006.815.815,0,0,0-.592.388,1.03,1.03,0,0,0-.146.334c-.027.119-.047.24-.065.36a8.137,8.137,0,0,0-.055,1.341,4.7,4.7,0,0,0,.061.638,1.806,1.806,0,0,0,.122.44.7.7,0,0,0,.374.384,1.74,1.74,0,0,0,.29.094,3.352,3.352,0,0,0,1.094.043,1.627,1.627,0,0,0,.5-.126.713.713,0,0,0,.371-.347,2.054,2.054,0,0,0,.122-.312,2.93,2.93,0,0,0,.114-.691C-1250.314,729.238-1250.312,729.044-1250.307,728.841Z" transform="translate(-2799.721 -746.065)" fill="#2a1d4d"/><path d="M-1736.763,729.172q0,.733,0,1.467a4.926,4.926,0,0,1-.074.912,2.342,2.342,0,0,1-.493,1.1,1.553,1.553,0,0,1-.552.423,2.573,2.573,0,0,1-.945.228,13.9,13.9,0,0,1-1.527,0c-.192-.011-.383-.052-.574-.081a.914.914,0,0,1-.118-.03,1.754,1.754,0,0,1-.98-.866,3.6,3.6,0,0,1-.252-.973,6.433,6.433,0,0,1-.052-.823q0-1.558,0-3.117c0-.081.005-.162.009-.244a.1.1,0,0,1,.078-.081.275.275,0,0,1,.03-.006h1.161a.127.127,0,0,1,.059.013c.017.009.039.027.041.043.009.091.017.182.017.273q0,1.528,0,3.056a4.91,4.91,0,0,0,.056.852,1.986,1.986,0,0,0,.095.353.738.738,0,0,0,.409.431,1.124,1.124,0,0,0,.412.106c.234.009.468.01.7.01a1.34,1.34,0,0,0,.36-.064.814.814,0,0,0,.526-.434,1.875,1.875,0,0,0,.188-.7c.014-.162.017-.326.017-.488q0-1.528,0-3.056c0-.1,0-.2.009-.3a.1.1,0,0,1,.077-.082c.041,0,.081-.009.121-.009h1.008a.444.444,0,0,1,.121.013.074.074,0,0,1,.057.064c.005.081.012.162.012.243q0,.886,0,1.772Z" transform="translate(-2327.703 -747.358)" fill="#2a1d4d"/><path d="M-1041.718,726.365h-1.155a1.68,1.68,0,0,0-.454.051,1.208,1.208,0,0,0-.171.063.276.276,0,0,0-.126.129.543.543,0,0,0-.044.114,2.36,2.36,0,0,0,0,.789.385.385,0,0,0,.306.306,2.2,2.2,0,0,0,.516.054q.489,0,.978,0c.143,0,.285.008.427.016a1.6,1.6,0,0,1,.532.13,1.27,1.27,0,0,1,.675.634,1.756,1.756,0,0,1,.188.734c.005.234,0,.469,0,.7a1.662,1.662,0,0,1-.086.48,1.26,1.26,0,0,1-.678.786,2.225,2.225,0,0,1-.732.205,5.587,5.587,0,0,1-.824.032c-.346-.014-.693-.02-1.038-.042a8.389,8.389,0,0,1-1.3-.175.669.669,0,0,1-.088-.025.1.1,0,0,1-.071-.09c0-.254,0-.509,0-.763a.089.089,0,0,1,.08-.077c.041,0,.081,0,.122,0a21.259,21.259,0,0,0,2.32.076,3.124,3.124,0,0,0,.4-.031,1,1,0,0,0,.262-.079.373.373,0,0,0,.235-.332,4.267,4.267,0,0,0-.006-.579.43.43,0,0,0-.337-.389,1.177,1.177,0,0,0-.333-.037c-.377,0-.754,0-1.131,0a2.642,2.642,0,0,1-.636-.069,2.366,2.366,0,0,1-.348-.111,1.272,1.272,0,0,1-.776-.885,1.33,1.33,0,0,1-.041-.178,5.123,5.123,0,0,1,0-1.31,1.565,1.565,0,0,1,.1-.351,1.106,1.106,0,0,1,.517-.582,2.236,2.236,0,0,1,.781-.249,6.853,6.853,0,0,1,1.342-.033c.4.022.793.043,1.188.1.182.025.363.049.544.077a1.593,1.593,0,0,1,.207.053.094.094,0,0,1,.072.089c0,.254,0,.509,0,.763,0,.027-.058.073-.089.072-.071,0-.143,0-.214-.007Z" transform="translate(-3002.713 -745.601)" fill="#2a1d4d"/><path d="M-2102.338,726.358h-1.178a1.819,1.819,0,0,0-.483.062.378.378,0,0,0-.3.314,2.123,2.123,0,0,0,0,.73.39.39,0,0,0,.363.356,2.412,2.412,0,0,0,.456.043q.489,0,.978,0c.143,0,.285.008.427.015a1.633,1.633,0,0,1,.532.128,1.264,1.264,0,0,1,.666.6,1.6,1.6,0,0,1,.2.7c.007.275,0,.55,0,.825a1.444,1.444,0,0,1-.077.42,1.267,1.267,0,0,1-.7.8,2.239,2.239,0,0,1-.7.2,5.992,5.992,0,0,1-.885.032c-.326-.013-.652-.019-.977-.041a8.376,8.376,0,0,1-1.3-.174.412.412,0,0,1-.115-.038.168.168,0,0,1-.052-.07.139.139,0,0,1-.009-.06c0-.224,0-.448,0-.672,0-.085.05-.124.14-.12l.061,0a21.159,21.159,0,0,0,2.29.078,3.751,3.751,0,0,0,.426-.03,1.022,1.022,0,0,0,.262-.077.383.383,0,0,0,.243-.327,2.554,2.554,0,0,0,0-.579.437.437,0,0,0-.362-.4,1.461,1.461,0,0,0-.3-.032c-.377,0-.754,0-1.131,0a2.8,2.8,0,0,1-.637-.067,2.223,2.223,0,0,1-.264-.075,1.34,1.34,0,0,1-.913-1.124.965.965,0,0,1-.014-.152c0-.326,0-.652,0-.977a1.362,1.362,0,0,1,.114-.5,1.152,1.152,0,0,1,.515-.584,2.214,2.214,0,0,1,.78-.252,6.774,6.774,0,0,1,1.342-.035c.406.023.814.044,1.218.1a5.684,5.684,0,0,1,.692.117c.079.021.112.053.112.122,0,.244,0,.489,0,.733a.087.087,0,0,1-.08.077c-.071,0-.142,0-.213,0Z" transform="translate(-1975.91 -745.594)" fill="#2a1d4d"/><path d="M-1934.159,727.07h2.293c.092,0,.184,0,.275,0,.074,0,.121.042.121.108q0,.443,0,.886a.1.1,0,0,1-.1.093q-.122,0-.245,0h-1.345a2.028,2.028,0,0,0-.244.012.106.106,0,0,0-.062.056.217.217,0,0,0-.014.089c0,.092,0,.183,0,.275q0,2.14,0,4.28c0,.1-.005.2-.009.305a.121.121,0,0,1-.083.079,1.206,1.206,0,0,1-.121.009h-.978a.989.989,0,0,1-.121-.013.1.1,0,0,1-.076-.084c0-.03-.006-.061-.007-.091,0-.092,0-.183,0-.275q0-2.124,0-4.249c0-.1,0-.2-.009-.305a.093.093,0,0,0-.078-.08c-.081,0-.162-.009-.244-.009h-1.284c-.082,0-.163,0-.244,0a.1.1,0,0,1-.1-.092c0-.03-.006-.061-.006-.091q0-.367,0-.734a.762.762,0,0,1,.01-.091.1.1,0,0,1,.084-.074c.092,0,.183-.007.275-.007Z" transform="translate(-2139.38 -747.349)" fill="#2a1d4d"/><path d="M-1327.83,730.253q0-1.391,0-2.783a2.218,2.218,0,0,1,.016-.243c0-.016.024-.033.041-.042a.129.129,0,0,1,.059-.014h1.162a.283.283,0,0,1,.03.005.1.1,0,0,1,.08.079c0,.091.01.183.01.274q0,2.309,0,4.617c0,.336,0,.673,0,1.009a.744.744,0,0,1-.018.149c0,.016-.024.032-.041.042a.121.121,0,0,1-.058.017h-1.162a.216.216,0,0,1-.03-.005.106.106,0,0,1-.081-.08c0-.091-.008-.183-.008-.275Q-1327.83,731.629-1327.83,730.253Z" transform="translate(-2728.995 -747.447)" fill="#2a1d4d"/></g></svg>