<svg xmlns="http://www.w3.org/2000/svg" width="84.065" height="47.751" viewBox="0 0 84.065 47.751"><g transform="translate(-19.955 -14.269)"><path d="M31.262,31.666A11.146,11.146,0,0,0,20.073,42.743l-.118,23.381a1.114,1.114,0,0,0,2.227.013h0L22.3,42.755a8.905,8.905,0,1,1,3.207,6.89,1.113,1.113,0,1,0-1.428,1.708,11.133,11.133,0,1,0,7.183-19.687Z" transform="translate(0 -5.223)" fill="#2a204c"/><path d="M56.334,14.269a1.114,1.114,0,0,0-1.12,1.108l-.162,32.287a1.113,1.113,0,0,0,1.106,1.12h0a1.114,1.114,0,0,0,1.12-1.107h0l.162-32.287a1.113,1.113,0,0,0-1.107-1.119Z" transform="translate(-10.537 0)" fill="#2a204c"/><path d="M119.431,32.11a11.145,11.145,0,0,0-11.19,11.077l-.05,10.02a1.114,1.114,0,0,0,1.107,1.12h0a1.114,1.114,0,0,0,1.12-1.107h0l.05-10.02a8.907,8.907,0,0,1,17.814.09l-.05,10.02a1.113,1.113,0,0,0,1.106,1.12h0a1.114,1.114,0,0,0,1.12-1.107h0l.05-10.02A11.146,11.146,0,0,0,119.431,32.11Z" transform="translate(-26.49 -5.356)" fill="#2a204c"/><path d="M91.053,47.321l-11.469-20.1A3.3,3.3,0,0,0,76.7,25.539h0a3.3,3.3,0,0,0-2.9,1.655L69.03,35.36l-6.9,11.816a3.378,3.378,0,0,0-.344.815c-.01.034-.017.069-.024.1s-.019.07-.026.109A3.345,3.345,0,0,0,65,52.2l10.549.054h.007l12.584.063a3.351,3.351,0,0,0,3.357-3.525A3.355,3.355,0,0,0,91.053,47.321ZM76.688,27.766a1.092,1.092,0,0,1,.962.56l4.533,7.942a1.329,1.329,0,0,1-.008,1.33l-2.709,4.638a.9.9,0,0,1-1.566-.008l-4.711-8.257a1.329,1.329,0,0,1,.006-1.33l2.527-4.325a1.07,1.07,0,0,1,.775-.536A1.087,1.087,0,0,1,76.688,27.766Z" transform="translate(-12.523 -3.383)" fill="#2a204c"/></g></svg>