<svg xmlns="http://www.w3.org/2000/svg" width="118.111" height="69.929" viewBox="0 0 118.111 69.929"><g transform="translate(-128.439 -534.844)"><g transform="translate(108.484 520.575)"><path d="M35.841,31.666a15.66,15.66,0,0,0-15.72,15.563l-.166,34.849a1.565,1.565,0,0,0,3.129.018h0l.166-34.849a12.512,12.512,0,1,1,4.506,9.681,1.564,1.564,0,1,0-2.007,2.4,15.641,15.641,0,1,0,10.091-27.66Z" transform="translate(0 -0.292)" fill="#fff9ea"/><path d="M56.853,14.269a1.565,1.565,0,0,0-1.573,1.556l-.228,45.362a1.563,1.563,0,0,0,1.553,1.573h0a1.565,1.565,0,0,0,1.573-1.555h0l.228-45.363a1.564,1.564,0,0,0-1.555-1.572Z" transform="translate(-0.59 0)" fill="#fff9ea"/><path d="M123.983,32.11a15.659,15.659,0,0,0-15.721,15.563l-.071,14.078a1.565,1.565,0,0,0,1.555,1.573h0a1.565,1.565,0,0,0,1.573-1.555h0l.071-14.078a12.514,12.514,0,0,1,25.028.126l-.071,14.078a1.564,1.564,0,0,0,1.553,1.573h0a1.565,1.565,0,0,0,1.573-1.555v0l.071-14.077A15.66,15.66,0,0,0,123.983,32.11Z" transform="translate(-1.483 -0.3)" fill="#fff9ea"/><path d="M102.954,56.143,86.84,27.906a4.641,4.641,0,0,0-4.052-2.367h0a4.642,4.642,0,0,0-4.075,2.325l-6.7,11.473-9.7,16.6a4.747,4.747,0,0,0-.483,1.144c-.014.047-.024.1-.034.144s-.027.1-.036.153A4.7,4.7,0,0,0,66.343,63l14.822.076h.01l17.681.088a4.708,4.708,0,0,0,4.716-4.952A4.713,4.713,0,0,0,102.954,56.143ZM82.771,28.668a1.534,1.534,0,0,1,1.351.787L90.49,40.612a1.868,1.868,0,0,1-.011,1.868L86.674,49a1.271,1.271,0,0,1-2.2-.012l-6.619-11.6a1.868,1.868,0,0,1,.009-1.868l3.55-6.077a1.5,1.5,0,0,1,1.089-.753A1.527,1.527,0,0,1,82.771,28.668Z" transform="translate(-0.701 -0.189)" fill="#fff9ea"/></g><path d="M.7,2.574h5V9H4.851V3.294H1.557V9H.7ZM8.991,9.1a2.4,2.4,0,0,1-.976-.184A2,2,0,0,1,7.308,8.4a2.178,2.178,0,0,1-.432-.769,3.056,3.056,0,0,1-.144-.954,3.1,3.1,0,0,1,.144-.959,2.172,2.172,0,0,1,.432-.774,2.045,2.045,0,0,1,.707-.517,2.353,2.353,0,0,1,.976-.189,2.361,2.361,0,0,1,.972.189,2.035,2.035,0,0,1,.711.517,2.172,2.172,0,0,1,.432.774,3.1,3.1,0,0,1,.144.959,3.056,3.056,0,0,1-.144.954,2.178,2.178,0,0,1-.432.769,1.987,1.987,0,0,1-.711.513A2.411,2.411,0,0,1,8.991,9.1Zm0-.666a1.38,1.38,0,0,0,.563-.117,1.347,1.347,0,0,0,.464-.338,1.572,1.572,0,0,0,.31-.549,2.315,2.315,0,0,0,.113-.752,2.315,2.315,0,0,0-.113-.752,1.622,1.622,0,0,0-.31-.554,1.322,1.322,0,0,0-.464-.342,1.411,1.411,0,0,0-1.125,0,1.322,1.322,0,0,0-.463.342,1.622,1.622,0,0,0-.311.554,2.315,2.315,0,0,0-.112.752,2.315,2.315,0,0,0,.112.752,1.572,1.572,0,0,0,.311.549,1.347,1.347,0,0,0,.463.338A1.38,1.38,0,0,0,8.991,8.433ZM12.15,4.347h.765v3.8l2.2-3.8h.981V9h-.765V5.2L13.131,9H12.15ZM19.17,9.1a2.424,2.424,0,0,1-.941-.171,1.824,1.824,0,0,1-.684-.486,2.107,2.107,0,0,1-.414-.747,3.123,3.123,0,0,1-.14-.963,3.414,3.414,0,0,1,.135-.977,2.258,2.258,0,0,1,.41-.792,1.932,1.932,0,0,1,.684-.531,2.245,2.245,0,0,1,.968-.194,2.812,2.812,0,0,1,.743.095,1.808,1.808,0,0,1,.612.293,1.6,1.6,0,0,1,.437.5,1.839,1.839,0,0,1,.216.715H20.4a1.071,1.071,0,0,0-1.152-.927,1.426,1.426,0,0,0-.693.153,1.235,1.235,0,0,0-.445.405,1.7,1.7,0,0,0-.239.58,3.165,3.165,0,0,0-.072.68,2.588,2.588,0,0,0,.076.63,1.689,1.689,0,0,0,.238.544,1.221,1.221,0,0,0,.419.382,1.455,1.455,0,0,0,1.512-.153,1.341,1.341,0,0,0,.392-.837h.783a2.144,2.144,0,0,1-.639,1.337A2.031,2.031,0,0,1,19.17,9.1Zm2.907-4.752h.765V6.57l2.133-2.223h1.017L24.12,6.183,26.235,9h-.981L23.571,6.714l-.729.711V9h-.765ZM30.987,9.1a2.062,2.062,0,0,1-1.368-.436,1.709,1.709,0,0,1-.585-1.238h.783A1.11,1.11,0,0,0,31,8.46a1.324,1.324,0,0,0,1-.4,1.784,1.784,0,0,0,.428-1.165H30.492V6.273h1.935a1.864,1.864,0,0,0-.445-1.026A1.274,1.274,0,0,0,31,4.878a1.086,1.086,0,0,0-1.143.846H29.07A1.682,1.682,0,0,1,29.7,4.617a2.129,2.129,0,0,1,1.319-.378,2.59,2.59,0,0,1,.927.158,1.854,1.854,0,0,1,.7.464,2.115,2.115,0,0,1,.446.742,2.948,2.948,0,0,1,.157,1,3.366,3.366,0,0,1-.148,1.03,2.124,2.124,0,0,1-.441.787,1.971,1.971,0,0,1-.711.5A2.46,2.46,0,0,1,30.987,9.1Zm5.805-.45a1.434,1.434,0,0,1-.2.162,1.837,1.837,0,0,1-.248.144,1.729,1.729,0,0,1-.27.1.981.981,0,0,1-.275.04,1.719,1.719,0,0,1-.877-.207,1.668,1.668,0,0,1-.576-.554,2.451,2.451,0,0,1-.319-.8,4.345,4.345,0,0,1-.1-.936,2.776,2.776,0,0,1,.486-1.741,1.586,1.586,0,0,1,1.323-.626,1.1,1.1,0,0,1,.3.045,1.61,1.61,0,0,1,.3.117,1.906,1.906,0,0,1,.261.162,1.035,1.035,0,0,1,.194.18V2.574h.756V4.743a1.1,1.1,0,0,1,.189-.18A1.6,1.6,0,0,1,38,4.4a1.8,1.8,0,0,1,.3-.117,1.08,1.08,0,0,1,.306-.045,1.586,1.586,0,0,1,1.323.626,2.776,2.776,0,0,1,.486,1.741,4.345,4.345,0,0,1-.1.936,2.451,2.451,0,0,1-.319.8,1.668,1.668,0,0,1-.576.554,1.719,1.719,0,0,1-.877.207,1.5,1.5,0,0,1-.99-.45v2.124h-.756Zm-.9-.18a1.028,1.028,0,0,0,.6-.175.659.659,0,0,0,.3-.427V5.526a.783.783,0,0,0-.162-.311.986.986,0,0,0-.239-.2.935.935,0,0,0-.274-.108,1.267,1.267,0,0,0-.27-.031.95.95,0,0,0-.508.131,1.062,1.062,0,0,0-.351.36,1.674,1.674,0,0,0-.2.554,3.68,3.68,0,0,0-.063.7,4.017,4.017,0,0,0,.054.652,2.118,2.118,0,0,0,.184.594,1.169,1.169,0,0,0,.355.432A.943.943,0,0,0,35.892,8.469Zm2.556,0a.943.943,0,0,0,.576-.167,1.169,1.169,0,0,0,.356-.432,2.118,2.118,0,0,0,.184-.594,4.017,4.017,0,0,0,.054-.652,3.68,3.68,0,0,0-.063-.7,1.674,1.674,0,0,0-.2-.554A1.062,1.062,0,0,0,39,5.009a.95.95,0,0,0-.508-.131,1.267,1.267,0,0,0-.27.031.935.935,0,0,0-.274.108.986.986,0,0,0-.239.2.783.783,0,0,0-.162.311v2.34a.659.659,0,0,0,.3.427A1.028,1.028,0,0,0,38.448,8.469Zm5.544.18a1.434,1.434,0,0,1-.2.162,1.837,1.837,0,0,1-.247.144,1.729,1.729,0,0,1-.27.1A.981.981,0,0,1,43,9.1a1.719,1.719,0,0,1-.877-.207,1.668,1.668,0,0,1-.576-.554,2.451,2.451,0,0,1-.319-.8,4.345,4.345,0,0,1-.1-.936,2.776,2.776,0,0,1,.486-1.741,1.586,1.586,0,0,1,1.323-.626,1.1,1.1,0,0,1,.3.045,1.61,1.61,0,0,1,.3.117,1.906,1.906,0,0,1,.261.162,1.035,1.035,0,0,1,.194.18V2.574h.756V4.743a1.1,1.1,0,0,1,.189-.18A1.6,1.6,0,0,1,45.2,4.4a1.8,1.8,0,0,1,.3-.117,1.08,1.08,0,0,1,.306-.045,1.586,1.586,0,0,1,1.323.626,2.776,2.776,0,0,1,.486,1.741,4.345,4.345,0,0,1-.1.936,2.451,2.451,0,0,1-.319.8,1.668,1.668,0,0,1-.576.554,1.719,1.719,0,0,1-.878.207,1.5,1.5,0,0,1-.99-.45v2.124h-.756Zm-.9-.18a1.028,1.028,0,0,0,.6-.175.659.659,0,0,0,.3-.427V5.526a.783.783,0,0,0-.162-.311.986.986,0,0,0-.239-.2.935.935,0,0,0-.274-.108,1.267,1.267,0,0,0-.27-.031.95.95,0,0,0-.508.131,1.062,1.062,0,0,0-.351.36,1.674,1.674,0,0,0-.2.554,3.68,3.68,0,0,0-.063.7,4.017,4.017,0,0,0,.054.652,2.118,2.118,0,0,0,.184.594,1.169,1.169,0,0,0,.355.432A.943.943,0,0,0,43.092,8.469Zm2.556,0a.943.943,0,0,0,.576-.167,1.169,1.169,0,0,0,.356-.432,2.118,2.118,0,0,0,.184-.594,4.017,4.017,0,0,0,.054-.652,3.68,3.68,0,0,0-.063-.7,1.674,1.674,0,0,0-.2-.554,1.062,1.062,0,0,0-.351-.36.95.95,0,0,0-.508-.131,1.267,1.267,0,0,0-.27.031.935.935,0,0,0-.275.108.986.986,0,0,0-.238.2.783.783,0,0,0-.162.311v2.34a.659.659,0,0,0,.3.427A1.028,1.028,0,0,0,45.648,8.469Zm4.878.63a2.455,2.455,0,0,1-.977-.18,1.89,1.89,0,0,1-.7-.5,2.141,2.141,0,0,1-.418-.774,3.3,3.3,0,0,1-.139-.981,2.811,2.811,0,0,1,.162-.967,2.314,2.314,0,0,1,.454-.77,2.062,2.062,0,0,1,.693-.5,2.116,2.116,0,0,1,.878-.18,1.909,1.909,0,0,1,1.03.257,2.038,2.038,0,0,1,.657.653,2.579,2.579,0,0,1,.342.864,3.7,3.7,0,0,1,.076.891H49.1a1.847,1.847,0,0,0,.072.581,1.315,1.315,0,0,0,.261.486,1.288,1.288,0,0,0,.459.338,1.585,1.585,0,0,0,.657.126,1.324,1.324,0,0,0,.8-.225,1.088,1.088,0,0,0,.41-.684h.756a1.847,1.847,0,0,1-.675,1.184A2.129,2.129,0,0,1,50.526,9.1Zm1.251-2.871a1.565,1.565,0,0,0-.121-.513,1.311,1.311,0,0,0-.279-.418,1.325,1.325,0,0,0-.414-.279,1.309,1.309,0,0,0-.527-.1,1.332,1.332,0,0,0-.535.1,1.237,1.237,0,0,0-.41.283,1.356,1.356,0,0,0-.27.418,1.594,1.594,0,0,0-.117.509Zm1.6-1.881h.765V6.57l2.133-2.223h1.017L55.422,6.183,57.537,9h-.981L54.873,6.714l-.729.711V9h-.765Zm5.859.675H57.573V4.347h4.1v.675H60V9h-.765Zm3.042-.675h.765v3.8l2.2-3.8h.981V9h-.765V5.2L63.261,9H62.28Zm5.094,0h2.151a3.757,3.757,0,0,1,.59.045,1.585,1.585,0,0,1,.508.167.928.928,0,0,1,.36.346,1.106,1.106,0,0,1,.135.576.976.976,0,0,1-.18.612,1.344,1.344,0,0,1-.5.387v.009a1.063,1.063,0,0,1,.644.378,1.184,1.184,0,0,1,.238.765,1.431,1.431,0,0,1-.1.549,1.238,1.238,0,0,1-.292.432,1.384,1.384,0,0,1-.45.283A1.524,1.524,0,0,1,69.9,9H67.374Zm2.385,4.005a.72.72,0,0,0,.572-.22.809.809,0,0,0,.193-.554.649.649,0,0,0-.207-.5,1.019,1.019,0,0,0-.693-.189H68.13V8.352Zm-.315-2.1a1.014,1.014,0,0,0,.689-.18.621.621,0,0,0,.193-.477.548.548,0,0,0-.189-.445,1.119,1.119,0,0,0-.693-.158H68.13v1.26Zm2.79-1.908H73V6.2h2.358V4.347h.765V9h-.765V6.858H73V9h-.765Zm5.04,0h.765V6.129h1.44a1.577,1.577,0,0,1,1.1.374,1.34,1.34,0,0,1,.414,1.048A1.423,1.423,0,0,1,80.6,8.6a1.459,1.459,0,0,1-1.08.4H77.274Zm1.962,3.978q.963,0,.963-.774t-.963-.765h-1.2V8.325Zm2.493-3.978h.765V9h-.765ZM84.9,6.552l-1.62-2.205h.981l1.116,1.629,1.161-1.629h.918l-1.6,2.142L87.651,9H86.67l-1.3-1.926L84.078,9h-.927ZM.6,13.347h.765v.63h.018a1.145,1.145,0,0,1,.594-.562,2.217,2.217,0,0,1,.891-.175,2.1,2.1,0,0,1,.941.2,1.913,1.913,0,0,1,.666.535,2.365,2.365,0,0,1,.4.778,3.181,3.181,0,0,1,.135.936,3.269,3.269,0,0,1-.131.941,2.209,2.209,0,0,1-.4.765,1.867,1.867,0,0,1-.666.517,2.161,2.161,0,0,1-.931.189,2.266,2.266,0,0,1-.387-.036,2.142,2.142,0,0,1-.414-.117,1.635,1.635,0,0,1-.391-.22,1.232,1.232,0,0,1-.31-.347H1.368v2.394H.6Zm2.205,4.086a1.314,1.314,0,0,0,.657-.153,1.218,1.218,0,0,0,.432-.405,1.762,1.762,0,0,0,.234-.576,3.061,3.061,0,0,0,.072-.666A2.379,2.379,0,0,0,4.118,15a1.712,1.712,0,0,0-.261-.554,1.279,1.279,0,0,0-.45-.387,1.366,1.366,0,0,0-.644-.144,1.263,1.263,0,0,0-1.1.554,1.675,1.675,0,0,0-.247.563,2.725,2.725,0,0,0,0,1.3,1.637,1.637,0,0,0,.257.563,1.31,1.31,0,0,0,.454.392A1.42,1.42,0,0,0,2.808,17.433Zm5.085.666a2.455,2.455,0,0,1-.976-.18,1.89,1.89,0,0,1-.7-.5,2.141,2.141,0,0,1-.418-.774,3.3,3.3,0,0,1-.14-.981,2.811,2.811,0,0,1,.162-.967,2.314,2.314,0,0,1,.455-.769,2.062,2.062,0,0,1,.693-.5,2.116,2.116,0,0,1,.878-.18,1.909,1.909,0,0,1,1.03.257,2.038,2.038,0,0,1,.657.653,2.579,2.579,0,0,1,.342.864,3.7,3.7,0,0,1,.076.891H6.471a1.847,1.847,0,0,0,.072.58,1.315,1.315,0,0,0,.261.486,1.288,1.288,0,0,0,.459.337,1.585,1.585,0,0,0,.657.126,1.324,1.324,0,0,0,.8-.225,1.088,1.088,0,0,0,.41-.684h.756a1.847,1.847,0,0,1-.675,1.184A2.129,2.129,0,0,1,7.893,18.1Zm1.251-2.871a1.565,1.565,0,0,0-.122-.513,1.311,1.311,0,0,0-.279-.418,1.325,1.325,0,0,0-.414-.279,1.309,1.309,0,0,0-.527-.1,1.332,1.332,0,0,0-.536.1,1.237,1.237,0,0,0-.41.283,1.356,1.356,0,0,0-.27.418,1.593,1.593,0,0,0-.117.509Zm1.6-1.881h.765v3.978h1.917V13.347h.765v3.978H16.11V13.347h.765V18H10.746ZM20.007,18.1a2.455,2.455,0,0,1-.976-.18,1.89,1.89,0,0,1-.7-.5,2.141,2.141,0,0,1-.418-.774,3.3,3.3,0,0,1-.14-.981,2.811,2.811,0,0,1,.162-.967,2.314,2.314,0,0,1,.455-.769,2.062,2.062,0,0,1,.693-.5,2.116,2.116,0,0,1,.878-.18,1.909,1.909,0,0,1,1.031.257,2.038,2.038,0,0,1,.657.653,2.579,2.579,0,0,1,.342.864,3.7,3.7,0,0,1,.076.891H18.585a1.847,1.847,0,0,0,.072.58,1.315,1.315,0,0,0,.261.486,1.288,1.288,0,0,0,.459.337,1.585,1.585,0,0,0,.657.126,1.324,1.324,0,0,0,.8-.225,1.088,1.088,0,0,0,.41-.684H22a1.847,1.847,0,0,1-.675,1.184A2.129,2.129,0,0,1,20.007,18.1Zm1.251-2.871a1.565,1.565,0,0,0-.121-.513,1.311,1.311,0,0,0-.279-.418,1.325,1.325,0,0,0-.414-.279,1.309,1.309,0,0,0-.527-.1,1.332,1.332,0,0,0-.535.1,1.237,1.237,0,0,0-.41.283,1.356,1.356,0,0,0-.27.418,1.593,1.593,0,0,0-.117.509Zm1.6-1.881h.765V15.2h2.358V13.347h.765V18h-.765V15.858H23.625V18H22.86Zm5.04,0h.765v3.8l2.2-3.8h.981V18h-.765V14.2l-2.2,3.8H27.9Zm5.094,0h.765v3.8l2.2-3.8h.981V18h-.765V14.2l-2.2,3.8h-.981Zm1.971-.684a1.224,1.224,0,0,1-.878-.329,1.411,1.411,0,0,1-.418-.868h.459a.859.859,0,0,0,.311.472.878.878,0,0,0,.518.149.853.853,0,0,0,.517-.149.927.927,0,0,0,.311-.472h.459a1.566,1.566,0,0,1-.414.868A1.159,1.159,0,0,1,34.965,12.663Z" transform="translate(140 585)" fill="#fff9ea"/></g></svg>