<svg xmlns="http://www.w3.org/2000/svg" width="261.394" height="84.736" viewBox="0 0 261.394 84.736"><g transform="translate(-987 -171.264)"><path d="M3.381-3.24,5.66-5.725H7.09L5.016-3.111l.744,2.7H4.553Zm-2.4.006L3.4-5.725H4.811L2.7-3.123,3.469-.416H2.291ZM8.909-8.59h1.752L9.888-4.945a1.26,1.26,0,0,0,.773-.208,4.864,4.864,0,0,0,.855-1.21,11.852,11.852,0,0,1,.949-1.462,2.027,2.027,0,0,1,.756-.583A3.4,3.4,0,0,1,14.5-8.59h.469L14.581-7.3h-.287a.957.957,0,0,0-.5.105,1.4,1.4,0,0,0-.4.516A9.336,9.336,0,0,1,12.29-4.951a1.865,1.865,0,0,1-.908.568,1.876,1.876,0,0,1,1.166,1.547q.018.07.035.135L13.357,0H11.54l-.721-2.66q-.012-.047-.205-.562a1,1,0,0,0-.99-.51L8.821,0H7.075Zm7.755,4.131L15.024-4.6a2.469,2.469,0,0,1,.981-1.3,3.282,3.282,0,0,1,1.854-.469,2.719,2.719,0,0,1,1.775.483,1.489,1.489,0,0,1,.574,1.181,3.852,3.852,0,0,1-.05.6q-.05.316-.349,1.664a8.543,8.543,0,0,0-.246,1.559A3.212,3.212,0,0,0,19.705,0H18.071a3.232,3.232,0,0,1-.123-.7,2.578,2.578,0,0,1-.85.63,2.306,2.306,0,0,1-.967.22A1.726,1.726,0,0,1,14.854-.36a1.77,1.77,0,0,1-.5-1.3A1.885,1.885,0,0,1,14.9-3.088a3.223,3.223,0,0,1,1.978-.645,7.853,7.853,0,0,0,1.605-.24,2.077,2.077,0,0,0,.105-.562.566.566,0,0,0-.217-.451.983.983,0,0,0-.645-.182,1.213,1.213,0,0,0-.712.185A.917.917,0,0,0,16.664-4.459Zm1.6,1.559a3.452,3.452,0,0,1-.4.076,3.842,3.842,0,0,0-1.652.445.679.679,0,0,0-.275.568.659.659,0,0,0,.211.5.771.771,0,0,0,.557.2,1.471,1.471,0,0,0,.718-.185,1.262,1.262,0,0,0,.5-.475,3.242,3.242,0,0,0,.3-.905ZM21.49-6.223h1.688l-.27,1.242a5.027,5.027,0,0,0-.129.832.667.667,0,0,0,.27.58,1.387,1.387,0,0,0,.809.193,2.506,2.506,0,0,0,.967-.2l.563-2.648h1.652L25.714,0H24.05l.533-2.479a5.414,5.414,0,0,1-1.629.246A1.923,1.923,0,0,1,21.6-2.7a1.577,1.577,0,0,1-.5-1.219,4.363,4.363,0,0,1,.117-.949l.023-.117ZM33.323-2.59H29.1q-.006.1-.006.152a1.412,1.412,0,0,0,.354,1,1.136,1.136,0,0,0,.864.381,1.439,1.439,0,0,0,1.307-.867l1.506.252A3.168,3.168,0,0,1,31.955-.308a3.076,3.076,0,0,1-1.649.454,2.742,2.742,0,0,1-2.039-.794,2.857,2.857,0,0,1-.785-2.1,3.823,3.823,0,0,1,.709-2.273,3.192,3.192,0,0,1,2.76-1.348,2.393,2.393,0,0,1,1.816.706,2.749,2.749,0,0,1,.674,1.978A4.689,4.689,0,0,1,33.323-2.59ZM31.9-3.615q.006-.111.006-.17A1.51,1.51,0,0,0,31.6-4.822a1.063,1.063,0,0,0-.832-.346,1.322,1.322,0,0,0-.935.393,2.094,2.094,0,0,0-.56,1.16Zm6.278,1.271,1.635.264a3.447,3.447,0,0,1-1.2,1.658,3.061,3.061,0,0,1-1.834.568A2.526,2.526,0,0,1,34.9-.562a2.662,2.662,0,0,1-.7-1.951,4.469,4.469,0,0,1,.422-1.916A3.235,3.235,0,0,1,35.9-5.851a3.509,3.509,0,0,1,1.863-.519,2.575,2.575,0,0,1,1.758.574,2.179,2.179,0,0,1,.738,1.512l-1.6.17a1.206,1.206,0,0,0-.319-.768.954.954,0,0,0-.683-.246,1.368,1.368,0,0,0-.908.363A2.3,2.3,0,0,0,36.1-3.677a4.57,4.57,0,0,0-.226,1.356,1.225,1.225,0,0,0,.27.85.87.87,0,0,0,.674.3,1.251,1.251,0,0,0,.779-.293A1.894,1.894,0,0,0,38.183-2.344Zm3.583-3.879h1.582l-.158.756a2.775,2.775,0,0,1,1.945-.9,1.746,1.746,0,0,1,1.084.293,1.312,1.312,0,0,1,.486.809,2.5,2.5,0,0,1,.926-.785,2.667,2.667,0,0,1,1.254-.316,1.609,1.609,0,0,1,1.16.4,1.393,1.393,0,0,1,.416,1.055A6.435,6.435,0,0,1,50.3-3.8L49.5,0H47.819l.8-3.8q.146-.715.146-.809a.539.539,0,0,0-.155-.407.648.648,0,0,0-.466-.149,1.4,1.4,0,0,0-1.119.662,4.481,4.481,0,0,0-.609,1.682L45.821,0H44.139l.785-3.762a5.536,5.536,0,0,0,.135-.844.532.532,0,0,0-.167-.4.642.642,0,0,0-.46-.158A1.162,1.162,0,0,0,43.864-5a1.674,1.674,0,0,0-.513.451,2.658,2.658,0,0,0-.378.738q-.07.211-.229.955L42.147,0H40.466ZM56-3.135a1.84,1.84,0,0,1,.879.524,1.258,1.258,0,0,1,.293.847,1.675,1.675,0,0,1-.709,1.336,3.523,3.523,0,0,1-2.215.568,2.976,2.976,0,0,1-2.15-.718,2.642,2.642,0,0,1-.744-2,3.958,3.958,0,0,1,.958-2.687,3.5,3.5,0,0,1,2.8-1.1,2.5,2.5,0,0,1,1.778.5,1.574,1.574,0,0,1,.507,1.151,1.412,1.412,0,0,1-.349.973A2.224,2.224,0,0,1,56-3.135Zm-2.982-.475H54.3a2.447,2.447,0,0,0,1.263-.223.756.756,0,0,0,.325-.668.551.551,0,0,0-.237-.489,1.289,1.289,0,0,0-.718-.161,2,2,0,0,0-1.283.384A1.883,1.883,0,0,0,53.014-3.609Zm-.088,1a1.811,1.811,0,0,0,.331,1.137,1.477,1.477,0,0,0,1.192.393,1.57,1.57,0,0,0,.832-.176.584.584,0,0,0,.275-.527.7.7,0,0,0-.325-.6,1.252,1.252,0,0,0-.724-.223Zm5.218.029a3.841,3.841,0,0,1,.976-2.757,3.371,3.371,0,0,1,2.563-1.028,2.939,2.939,0,0,1,2.15.759,2.73,2.73,0,0,1,.773,2.042A3.831,3.831,0,0,1,63.64-.955a3.273,3.273,0,0,1-2.59,1.1,3.344,3.344,0,0,1-1.559-.352,2.294,2.294,0,0,1-1.014-1A2.962,2.962,0,0,1,58.144-2.584Zm4.793-1.2a1.319,1.319,0,0,0-.349-.958,1.2,1.2,0,0,0-.9-.36,1.506,1.506,0,0,0-.967.337,2.165,2.165,0,0,0-.656.979,3.465,3.465,0,0,0-.234,1.181,1.5,1.5,0,0,0,.363,1.061,1.193,1.193,0,0,0,.914.393,1.427,1.427,0,0,0,1.16-.592A3.169,3.169,0,0,0,62.936-3.785ZM69.57-6.223h1.594l-.135.639a3.781,3.781,0,0,1,.955-.6,2.5,2.5,0,0,1,.955-.182,2,2,0,0,1,1.573.674,2.958,2.958,0,0,1,.595,2.01A4.138,4.138,0,0,1,74.081-.844,2.7,2.7,0,0,1,72,.146a2.071,2.071,0,0,1-1.869-1l-.674,3.229H67.777Zm1.014,3.568a1.648,1.648,0,0,0,.354,1.128,1.082,1.082,0,0,0,.835.4,1.29,1.29,0,0,0,.8-.3,2.187,2.187,0,0,0,.642-1,3.814,3.814,0,0,0,.255-1.3A1.549,1.549,0,0,0,73.138-4.8a1.091,1.091,0,0,0-.85-.372,1.307,1.307,0,0,0-.876.343A2.2,2.2,0,0,0,70.8-3.817,3.829,3.829,0,0,0,70.583-2.654Zm5.194.07a3.841,3.841,0,0,1,.976-2.757,3.371,3.371,0,0,1,2.563-1.028,2.939,2.939,0,0,1,2.15.759,2.73,2.73,0,0,1,.773,2.042,3.831,3.831,0,0,1-.967,2.613,3.273,3.273,0,0,1-2.59,1.1,3.344,3.344,0,0,1-1.559-.352,2.294,2.294,0,0,1-1.014-1A2.962,2.962,0,0,1,75.778-2.584Zm4.793-1.2a1.319,1.319,0,0,0-.349-.958,1.2,1.2,0,0,0-.9-.36,1.506,1.506,0,0,0-.967.337,2.165,2.165,0,0,0-.656.979,3.465,3.465,0,0,0-.234,1.181,1.5,1.5,0,0,0,.363,1.061,1.193,1.193,0,0,0,.914.393,1.427,1.427,0,0,0,1.16-.592A3.169,3.169,0,0,0,80.571-3.785Zm6.39,1.441L88.6-2.08A3.447,3.447,0,0,1,87.4-.422a3.061,3.061,0,0,1-1.834.568,2.526,2.526,0,0,1-1.887-.709,2.662,2.662,0,0,1-.7-1.951A4.469,4.469,0,0,1,83.4-4.43a3.235,3.235,0,0,1,1.271-1.421,3.509,3.509,0,0,1,1.863-.519,2.575,2.575,0,0,1,1.758.574,2.179,2.179,0,0,1,.738,1.512l-1.6.17a1.206,1.206,0,0,0-.319-.768.954.954,0,0,0-.683-.246,1.368,1.368,0,0,0-.908.363,2.3,2.3,0,0,0-.647,1.087,4.57,4.57,0,0,0-.226,1.356,1.225,1.225,0,0,0,.27.85.87.87,0,0,0,.674.3,1.251,1.251,0,0,0,.779-.293A1.894,1.894,0,0,0,86.96-2.344Zm6.554,0,1.635.264a3.447,3.447,0,0,1-1.2,1.658A3.061,3.061,0,0,1,92.12.146a2.526,2.526,0,0,1-1.887-.709,2.662,2.662,0,0,1-.7-1.951,4.469,4.469,0,0,1,.422-1.916,3.235,3.235,0,0,1,1.271-1.421,3.509,3.509,0,0,1,1.863-.519,2.575,2.575,0,0,1,1.758.574,2.179,2.179,0,0,1,.738,1.512l-1.6.17a1.206,1.206,0,0,0-.319-.768.954.954,0,0,0-.683-.246,1.368,1.368,0,0,0-.908.363,2.3,2.3,0,0,0-.647,1.087,4.57,4.57,0,0,0-.226,1.356,1.225,1.225,0,0,0,.27.85.87.87,0,0,0,.674.3,1.251,1.251,0,0,0,.779-.293A1.894,1.894,0,0,0,93.514-2.344Zm3.624-3.879H98.82l-.768,3.686a5.785,5.785,0,0,0-.141.826.622.622,0,0,0,.2.463.7.7,0,0,0,.51.193,1.2,1.2,0,0,0,.439-.085,1.89,1.89,0,0,0,.445-.258,2.382,2.382,0,0,0,.41-.4,2.521,2.521,0,0,0,.34-.586,5.533,5.533,0,0,0,.24-.879l.621-2.965H102.8L101.5,0h-1.57l.176-.844a3.188,3.188,0,0,1-2.244.99,1.631,1.631,0,0,1-1.207-.439,1.592,1.592,0,0,1-.439-1.178,7.988,7.988,0,0,1,.2-1.283Zm7.21,0h1.682l-.768,3.686a5.785,5.785,0,0,0-.141.826.622.622,0,0,0,.2.463.7.7,0,0,0,.51.193,1.2,1.2,0,0,0,.439-.085,1.89,1.89,0,0,0,.445-.258,2.382,2.382,0,0,0,.41-.4,2.521,2.521,0,0,0,.34-.586,5.533,5.533,0,0,0,.24-.879l.621-2.965h1.682L108.708,0h-1.57l.176-.844a3.188,3.188,0,0,1-2.244.99,1.631,1.631,0,0,1-1.207-.439,1.592,1.592,0,0,1-.439-1.178,7.988,7.988,0,0,1,.2-1.283Zm1.219-2.5h.814a1.312,1.312,0,0,0,.36.662.864.864,0,0,0,.571.188,1.334,1.334,0,0,0,1.154-.85h.773a2.5,2.5,0,0,1-.779,1.254,1.84,1.84,0,0,1-1.2.445,1.572,1.572,0,0,1-1.131-.425A2.1,2.1,0,0,1,105.567-8.719Zm8.921,6.375,1.635.264a3.447,3.447,0,0,1-1.2,1.658,3.061,3.061,0,0,1-1.834.568,2.526,2.526,0,0,1-1.887-.709,2.662,2.662,0,0,1-.7-1.951,4.469,4.469,0,0,1,.422-1.916A3.235,3.235,0,0,1,112.2-5.851a3.509,3.509,0,0,1,1.863-.519,2.575,2.575,0,0,1,1.758.574,2.179,2.179,0,0,1,.738,1.512l-1.6.17a1.206,1.206,0,0,0-.319-.768.954.954,0,0,0-.683-.246,1.368,1.368,0,0,0-.908.363,2.3,2.3,0,0,0-.647,1.087,4.57,4.57,0,0,0-.226,1.356,1.225,1.225,0,0,0,.27.85.87.87,0,0,0,.674.3,1.251,1.251,0,0,0,.779-.293A1.894,1.894,0,0,0,114.488-2.344Zm3.618-3.879h1.652L119.2-3.574a1.155,1.155,0,0,0,.68-.167,2.76,2.76,0,0,0,.551-.759,5.117,5.117,0,0,1,1.037-1.45,2.178,2.178,0,0,1,1.248-.272h.434l-.229,1.148h-.205a.574.574,0,0,0-.372.1,2.026,2.026,0,0,0-.319.425,4.622,4.622,0,0,1-.826,1.1,1.734,1.734,0,0,1-.621.3q.615.111.885,1.066L122.044,0h-1.582l-.5-1.84a1.387,1.387,0,0,0-.331-.688,1.055,1.055,0,0,0-.624-.138L118.423,0h-1.641Zm5.968,0h1.682l-.768,3.686a5.785,5.785,0,0,0-.141.826.622.622,0,0,0,.2.463.7.7,0,0,0,.51.193A1.2,1.2,0,0,0,126-1.14a1.89,1.89,0,0,0,.445-.258,2.382,2.382,0,0,0,.41-.4,2.521,2.521,0,0,0,.34-.586,5.533,5.533,0,0,0,.24-.879l.621-2.965h1.682L128.434,0h-1.57l.176-.844a3.188,3.188,0,0,1-2.244.99,1.631,1.631,0,0,1-1.207-.439,1.592,1.592,0,0,1-.439-1.178,7.988,7.988,0,0,1,.2-1.283Zm8.786,4.477L131.314,0h-2.062l2.877-3.187-1.582-3.035h1.787l.908,1.775,1.576-1.775h2.045l-2.889,3.229L135.544,0h-1.787Zm14.1-6.99-.674,2.982a1.929,1.929,0,0,1,1.459-.609,1.825,1.825,0,0,1,1.468.706,2.9,2.9,0,0,1,.583,1.9,4.4,4.4,0,0,1-.891,2.7,2.621,2.621,0,0,1-2.15,1.192,2.056,2.056,0,0,1-1.564-.85l-.656,3.146h-1.646L143.525-.4a2.465,2.465,0,0,1-1.436.539,1.82,1.82,0,0,1-1.465-.7,2.892,2.892,0,0,1-.58-1.9,4.406,4.406,0,0,1,.885-2.73,2.585,2.585,0,0,1,2.1-1.172,1.958,1.958,0,0,1,1.605.832l.668-3.205Zm-5.209,6.123a2.072,2.072,0,0,0,.255,1.066.781.781,0,0,0,.7.434,1.256,1.256,0,0,0,1.025-.741,3.287,3.287,0,0,0,.451-1.743,1.809,1.809,0,0,0-.284-1.116.81.81,0,0,0-.642-.366q-.545,0-1.025.8A3.187,3.187,0,0,0,141.755-2.613Zm3.9.041a2,2,0,0,0,.255,1.02.78.78,0,0,0,.7.439,1.256,1.256,0,0,0,1.025-.741,3.287,3.287,0,0,0,.451-1.743,1.849,1.849,0,0,0-.278-1.1.8.8,0,0,0-.647-.381q-.539,0-1.022.794A3.237,3.237,0,0,0,145.658-2.572Zm5.892-3.65h1.682l-.768,3.686a5.785,5.785,0,0,0-.141.826.622.622,0,0,0,.2.463.7.7,0,0,0,.51.193,1.2,1.2,0,0,0,.439-.085,1.89,1.89,0,0,0,.445-.258,2.382,2.382,0,0,0,.41-.4,2.521,2.521,0,0,0,.34-.586,5.533,5.533,0,0,0,.24-.879l.621-2.965h1.682L155.909,0h-1.57l.176-.844a3.188,3.188,0,0,1-2.244.99,1.631,1.631,0,0,1-1.207-.439,1.592,1.592,0,0,1-.439-1.178,7.988,7.988,0,0,1,.2-1.283Zm7.726,0h5.309L163.26,0H161.6l1.043-4.91h-2.121l-.691,3.275a2.351,2.351,0,0,1-.691,1.362,2.071,2.071,0,0,1-1.371.413A5.343,5.343,0,0,1,156.7,0l.264-1.4a2.838,2.838,0,0,0,.615.076.655.655,0,0,0,.6-.281,4.167,4.167,0,0,0,.363-1.148Zm6.806,0h1.67L167.2-3.645h1.922a2.539,2.539,0,0,1,1.538.387,1.361,1.361,0,0,1,.513,1.16,1.952,1.952,0,0,1-.642,1.515A2.694,2.694,0,0,1,168.659,0h-3.908Zm.563,5.168h1.2a2.717,2.717,0,0,0,1.286-.211.7.7,0,0,0,.349-.639.579.579,0,0,0-.325-.562,3.233,3.233,0,0,0-1.269-.164h-.9Zm6.489-5.168h2.045l.645,4.3,2.5-4.3h2L178.986,0h-1.412l.873-4.066L176.092,0h-1.406L174.1-4.143,173.209,0h-1.4Zm7.691,3.639a3.841,3.841,0,0,1,.976-2.757,3.371,3.371,0,0,1,2.563-1.028,2.939,2.939,0,0,1,2.15.759,2.73,2.73,0,0,1,.773,2.042,3.831,3.831,0,0,1-.967,2.613,3.273,3.273,0,0,1-2.59,1.1,3.344,3.344,0,0,1-1.559-.352,2.294,2.294,0,0,1-1.014-1A2.962,2.962,0,0,1,180.823-2.584Zm4.793-1.2a1.319,1.319,0,0,0-.349-.958,1.2,1.2,0,0,0-.9-.36,1.506,1.506,0,0,0-.967.337,2.165,2.165,0,0,0-.656.979,3.465,3.465,0,0,0-.234,1.181,1.5,1.5,0,0,0,.363,1.061,1.193,1.193,0,0,0,.914.393,1.427,1.427,0,0,0,1.16-.592A3.169,3.169,0,0,0,185.616-3.785Zm7.1.65a1.84,1.84,0,0,1,.879.524,1.258,1.258,0,0,1,.293.847,1.675,1.675,0,0,1-.709,1.336,3.523,3.523,0,0,1-2.215.568,2.976,2.976,0,0,1-2.15-.718,2.642,2.642,0,0,1-.744-2,3.958,3.958,0,0,1,.958-2.687,3.5,3.5,0,0,1,2.8-1.1,2.5,2.5,0,0,1,1.778.5,1.574,1.574,0,0,1,.507,1.151,1.412,1.412,0,0,1-.349.973A2.224,2.224,0,0,1,192.715-3.135Zm-2.982-.475h1.283a2.447,2.447,0,0,0,1.263-.223A.756.756,0,0,0,192.6-4.5a.551.551,0,0,0-.237-.489,1.289,1.289,0,0,0-.718-.161,2,2,0,0,0-1.283.384A1.883,1.883,0,0,0,189.733-3.609Zm-.088,1a1.811,1.811,0,0,0,.331,1.137,1.477,1.477,0,0,0,1.192.393A1.57,1.57,0,0,0,192-1.26a.584.584,0,0,0,.275-.527.7.7,0,0,0-.325-.6,1.252,1.252,0,0,0-.724-.223Zm10.289-3.609h5.309L203.918,0H202.26L203.3-4.91h-2.121l-.691,3.275A2.351,2.351,0,0,1,199.8-.272a2.071,2.071,0,0,1-1.371.413A5.343,5.343,0,0,1,197.356,0l.264-1.4a2.838,2.838,0,0,0,.615.076.655.655,0,0,0,.6-.281,4.167,4.167,0,0,0,.363-1.148Zm5.9,0h1.676l.422,3.1q.158,1.2.176,1.676a13.43,13.43,0,0,1,.9-2.016l1.488-2.76h1.781L208.439.609a9.52,9.52,0,0,1-.747,1.189,1.967,1.967,0,0,1-.656.533,2.031,2.031,0,0,1-.923.193,4.494,4.494,0,0,1-1.2-.187l.146-1.254a2.131,2.131,0,0,0,.592.088q.773,0,1.271-1.172Zm7.134,0h1.688l-.27,1.242a5.027,5.027,0,0,0-.129.832.667.667,0,0,0,.27.58,1.387,1.387,0,0,0,.809.193,2.506,2.506,0,0,0,.967-.2l.563-2.648h1.652L217.2,0h-1.664l.533-2.479a5.414,5.414,0,0,1-1.629.246,1.923,1.923,0,0,1-1.354-.463,1.577,1.577,0,0,1-.5-1.219,4.363,4.363,0,0,1,.117-.949l.023-.117Zm7.11,0h1.664l-.873,4.078a3.276,3.276,0,0,0-.088.557.49.49,0,0,0,.152.346.59.59,0,0,0,.445.158,1.492,1.492,0,0,0,.946-.422,2.7,2.7,0,0,0,.729-1.518l.686-3.2h1.676l-.861,4.031a3.219,3.219,0,0,0-.088.539.531.531,0,0,0,.176.4.635.635,0,0,0,.451.164,1.417,1.417,0,0,0,.929-.419,2.354,2.354,0,0,0,.659-1.321l.727-3.4h1.664L227.752,0h-1.541l.17-.779a3.014,3.014,0,0,1-2.074.92,1.521,1.521,0,0,1-.981-.316,1.245,1.245,0,0,1-.478-.744,3.463,3.463,0,0,1-1.022.794,2.562,2.562,0,0,1-1.146.267,1.642,1.642,0,0,1-1.148-.384,1.433,1.433,0,0,1-.422-1.116,3.9,3.9,0,0,1,.1-.785ZM235.355-2.59h-4.219q-.006.1-.006.152a1.412,1.412,0,0,0,.354,1,1.136,1.136,0,0,0,.864.381,1.439,1.439,0,0,0,1.307-.867l1.506.252a3.168,3.168,0,0,1-1.175,1.362,3.076,3.076,0,0,1-1.649.454A2.742,2.742,0,0,1,230.3-.647a2.857,2.857,0,0,1-.785-2.1,3.823,3.823,0,0,1,.709-2.273,3.192,3.192,0,0,1,2.76-1.348,2.393,2.393,0,0,1,1.816.706,2.749,2.749,0,0,1,.674,1.978A4.689,4.689,0,0,1,235.355-2.59Zm-1.418-1.025q.006-.111.006-.17a1.51,1.51,0,0,0-.311-1.037,1.063,1.063,0,0,0-.832-.346,1.322,1.322,0,0,0-.935.393,2.094,2.094,0,0,0-.56,1.16Zm2.288,1.992h1.693l-.281,1.342a3.013,3.013,0,0,1-.771,1.644,2.026,2.026,0,0,1-1.374.5l.164-.779a1.25,1.25,0,0,0,.653-.337A1.558,1.558,0,0,0,236.652,0h-.773ZM1.582,7.777H3.27L3,9.02a5.027,5.027,0,0,0-.129.832.667.667,0,0,0,.27.58,1.387,1.387,0,0,0,.809.193,2.506,2.506,0,0,0,.967-.2l.563-2.648H7.131L5.807,14H4.143l.533-2.479a5.414,5.414,0,0,1-1.629.246A1.923,1.923,0,0,1,1.693,11.3a1.577,1.577,0,0,1-.5-1.219,4.363,4.363,0,0,1,.117-.949L1.33,9.02ZM13.415,11.41H9.2q-.006.1-.006.152a1.412,1.412,0,0,0,.354,1,1.136,1.136,0,0,0,.864.381,1.439,1.439,0,0,0,1.307-.867l1.506.252a3.168,3.168,0,0,1-1.175,1.362,3.076,3.076,0,0,1-1.649.454,2.742,2.742,0,0,1-2.039-.794,2.857,2.857,0,0,1-.785-2.1,3.823,3.823,0,0,1,.709-2.273,3.192,3.192,0,0,1,2.76-1.348,2.393,2.393,0,0,1,1.816.706,2.749,2.749,0,0,1,.674,1.978A4.689,4.689,0,0,1,13.415,11.41ZM12,10.385q.006-.111.006-.17a1.51,1.51,0,0,0-.311-1.037,1.063,1.063,0,0,0-.832-.346,1.322,1.322,0,0,0-.935.393,2.094,2.094,0,0,0-.56,1.16Zm3.226-2.607h2.045l.645,4.3,2.5-4.3h2L21.076,14H19.664l.873-4.066L18.182,14H16.776L16.19,9.857,15.3,14H13.9ZM30.1,11.656l1.635.264a3.447,3.447,0,0,1-1.2,1.658,3.061,3.061,0,0,1-1.834.568,2.526,2.526,0,0,1-1.887-.709,2.662,2.662,0,0,1-.7-1.951,4.469,4.469,0,0,1,.422-1.916,3.235,3.235,0,0,1,1.271-1.421,3.509,3.509,0,0,1,1.863-.519,2.575,2.575,0,0,1,1.758.574,2.179,2.179,0,0,1,.738,1.512l-1.6.17a1.206,1.206,0,0,0-.319-.768.954.954,0,0,0-.683-.246,1.368,1.368,0,0,0-.908.363,2.3,2.3,0,0,0-.647,1.087,4.57,4.57,0,0,0-.226,1.356,1.225,1.225,0,0,0,.27.85.87.87,0,0,0,.674.3,1.251,1.251,0,0,0,.779-.293A1.894,1.894,0,0,0,30.1,11.656Zm3.6-3.879h1.664l-.492,2.3h2.314l.492-2.3h1.664L38.019,14H36.355l.557-2.613h-2.32L34.035,14H32.377Zm12.571,0L44.86,14H43.19l.545-2.437h-.463a1.115,1.115,0,0,0-.615.173,3.487,3.487,0,0,0-.744.829L40.876,14H38.848l1.4-1.822a2.789,2.789,0,0,1,.9-.785,1.319,1.319,0,0,1-.741-.431,1.429,1.429,0,0,1-.39-1.058,2.231,2.231,0,0,1,.557-1.459,2.978,2.978,0,0,1,2.309-.668ZM44.327,8.832H43.137a4.606,4.606,0,0,0-.817.085.864.864,0,0,0-.41.308.825.825,0,0,0-.208.533.7.7,0,0,0,.267.565,2.16,2.16,0,0,0,1.216.22h.768Zm3.431-1.055H49.34l-.158.756a2.775,2.775,0,0,1,1.945-.9,1.746,1.746,0,0,1,1.084.293,1.312,1.312,0,0,1,.486.809,2.5,2.5,0,0,1,.926-.785,2.667,2.667,0,0,1,1.254-.316,1.609,1.609,0,0,1,1.16.4,1.393,1.393,0,0,1,.416,1.055,6.435,6.435,0,0,1-.164,1.113l-.8,3.8H53.81l.8-3.8q.146-.715.146-.809a.539.539,0,0,0-.155-.407.648.648,0,0,0-.466-.149,1.4,1.4,0,0,0-1.119.662,4.481,4.481,0,0,0-.609,1.682L51.812,14H50.131l.785-3.762a5.536,5.536,0,0,0,.135-.844.532.532,0,0,0-.167-.4.642.642,0,0,0-.46-.158A1.162,1.162,0,0,0,49.855,9a1.674,1.674,0,0,0-.513.451,2.658,2.658,0,0,0-.378.738q-.07.211-.229.955L48.139,14H46.457Zm17.569,0h1.664L65.661,14H64Zm-6.938,0h1.67l-.551,2.578h1.922a2.539,2.539,0,0,1,1.538.387,1.361,1.361,0,0,1,.513,1.16,1.952,1.952,0,0,1-.642,1.515A2.694,2.694,0,0,1,60.968,14H57.06Zm.563,5.168h1.2a2.717,2.717,0,0,0,1.286-.211.7.7,0,0,0,.349-.639.579.579,0,0,0-.325-.562,3.233,3.233,0,0,0-1.269-.164h-.9Zm11.1-.691L68.506,14H66.443l2.877-3.187L67.738,7.777h1.787l.908,1.775L72.01,7.777h2.045l-2.889,3.229L72.736,14H70.949Zm9.094-2.713L77.67,9.283a2.253,2.253,0,0,1,2.4-1.646,3.01,3.01,0,0,1,1.989.521,1.606,1.606,0,0,1,.595,1.248,1.45,1.45,0,0,1-.551,1.207,5.75,5.75,0,0,1-2.092.791,6.422,6.422,0,0,0-1.318.4.517.517,0,0,0-.281.48.552.552,0,0,0,.29.475,1.39,1.39,0,0,0,.765.188,1.268,1.268,0,0,0,1.389-.908l1.582.258a2.249,2.249,0,0,1-1,1.389,3.974,3.974,0,0,1-2.068.451,2.694,2.694,0,0,1-1.9-.577,1.754,1.754,0,0,1-.612-1.3,1.492,1.492,0,0,1,.255-.864,1.75,1.75,0,0,1,.68-.583,8.919,8.919,0,0,1,1.579-.5,8.144,8.144,0,0,0,1.494-.451.531.531,0,0,0,.27-.51.415.415,0,0,0-.217-.384,1.325,1.325,0,0,0-.65-.126A1.047,1.047,0,0,0,79.147,9.541Zm4.04,1.875a3.841,3.841,0,0,1,.976-2.757,3.371,3.371,0,0,1,2.563-1.028,2.939,2.939,0,0,1,2.15.759,2.73,2.73,0,0,1,.773,2.042,3.831,3.831,0,0,1-.967,2.613,3.273,3.273,0,0,1-2.59,1.1,3.344,3.344,0,0,1-1.559-.352,2.294,2.294,0,0,1-1.014-1A2.962,2.962,0,0,1,83.187,11.416Zm4.793-1.2a1.319,1.319,0,0,0-.349-.958,1.2,1.2,0,0,0-.9-.36,1.506,1.506,0,0,0-.967.337,2.165,2.165,0,0,0-.656.979,3.465,3.465,0,0,0-.234,1.181,1.5,1.5,0,0,0,.363,1.061,1.193,1.193,0,0,0,.914.393,1.427,1.427,0,0,0,1.16-.592A3.169,3.169,0,0,0,87.98,10.215Zm5.042-3.961.3-1.225h.533a3.5,3.5,0,0,1,2.666.762,3.665,3.665,0,0,1,.656,2.42,8.678,8.678,0,0,1-.935,4.239,3.168,3.168,0,0,1-2.991,1.69,3.061,3.061,0,0,1-2.057-.688,2.468,2.468,0,0,1-.809-1.989A3.9,3.9,0,0,1,91.4,8.771a3.27,3.27,0,0,1,2.54-1.134,2.629,2.629,0,0,1,.929.161,2.593,2.593,0,0,1,.8.483q.018-.346.018-.557a1.374,1.374,0,0,0-.413-1.163,2.565,2.565,0,0,0-1.468-.308Zm1.16,2.619a1.759,1.759,0,0,0-1.541.864,3.2,3.2,0,0,0-.568,1.778,1.326,1.326,0,0,0,.34.976,1.176,1.176,0,0,0,.873.343,1.7,1.7,0,0,0,1.494-.961,3.674,3.674,0,0,0,.574-1.893,1.048,1.048,0,0,0-.319-.817A1.219,1.219,0,0,0,94.182,8.873Zm3.589,1.219h3.264l-.34,1.623H97.431ZM104.2,6.254l.3-1.225h.533a3.5,3.5,0,0,1,2.666.762,3.665,3.665,0,0,1,.656,2.42,8.678,8.678,0,0,1-.935,4.239,3.168,3.168,0,0,1-2.991,1.69,3.061,3.061,0,0,1-2.057-.688,2.468,2.468,0,0,1-.809-1.989,3.9,3.9,0,0,1,1.017-2.692,3.27,3.27,0,0,1,2.54-1.134,2.629,2.629,0,0,1,.929.161,2.593,2.593,0,0,1,.8.483q.018-.346.018-.557a1.374,1.374,0,0,0-.413-1.163,2.565,2.565,0,0,0-1.468-.308Zm1.16,2.619a1.759,1.759,0,0,0-1.541.864,3.2,3.2,0,0,0-.568,1.778,1.326,1.326,0,0,0,.34.976,1.176,1.176,0,0,0,.873.343,1.7,1.7,0,0,0,1.494-.961,3.674,3.674,0,0,0,.574-1.893,1.048,1.048,0,0,0-.319-.817A1.219,1.219,0,0,0,105.356,8.873Zm8.194,1.992a1.84,1.84,0,0,1,.879.524,1.258,1.258,0,0,1,.293.847,1.675,1.675,0,0,1-.709,1.336,3.523,3.523,0,0,1-2.215.568,2.976,2.976,0,0,1-2.15-.718,2.642,2.642,0,0,1-.744-2,3.958,3.958,0,0,1,.958-2.687,3.5,3.5,0,0,1,2.8-1.1,2.5,2.5,0,0,1,1.778.5,1.574,1.574,0,0,1,.507,1.151,1.412,1.412,0,0,1-.349.973A2.224,2.224,0,0,1,113.551,10.865Zm-2.982-.475h1.283a2.447,2.447,0,0,0,1.263-.223.756.756,0,0,0,.325-.668.551.551,0,0,0-.237-.489,1.289,1.289,0,0,0-.718-.161,2,2,0,0,0-1.283.384A1.883,1.883,0,0,0,110.568,10.391Zm-.088,1a1.811,1.811,0,0,0,.331,1.137,1.477,1.477,0,0,0,1.192.393,1.57,1.57,0,0,0,.832-.176.584.584,0,0,0,.275-.527.7.7,0,0,0-.325-.6,1.252,1.252,0,0,0-.724-.223Zm7.485-1.846L116.325,9.4a2.469,2.469,0,0,1,.981-1.3,3.282,3.282,0,0,1,1.854-.469,2.719,2.719,0,0,1,1.775.483,1.489,1.489,0,0,1,.574,1.181,3.852,3.852,0,0,1-.05.6q-.05.316-.349,1.664a8.543,8.543,0,0,0-.246,1.559,3.212,3.212,0,0,0,.141.885h-1.635a3.232,3.232,0,0,1-.123-.7,2.578,2.578,0,0,1-.85.63,2.306,2.306,0,0,1-.967.22,1.726,1.726,0,0,1-1.277-.507,1.77,1.77,0,0,1-.5-1.3,1.885,1.885,0,0,1,.554-1.424,3.223,3.223,0,0,1,1.978-.645,7.853,7.853,0,0,0,1.605-.24,2.077,2.077,0,0,0,.105-.562.566.566,0,0,0-.217-.451.983.983,0,0,0-.645-.182,1.213,1.213,0,0,0-.712.185A.917.917,0,0,0,117.966,9.541Zm1.6,1.559a3.452,3.452,0,0,1-.4.076,3.842,3.842,0,0,0-1.652.445.679.679,0,0,0-.275.568.659.659,0,0,0,.211.5.771.771,0,0,0,.557.2,1.471,1.471,0,0,0,.718-.185,1.262,1.262,0,0,0,.5-.475,3.242,3.242,0,0,0,.3-.905Zm7.061-3.322h1.664l-.492,2.3h2.314l.492-2.3h1.664L130.945,14h-1.664l.557-2.613h-2.32L126.96,14H125.3Zm8.235,1.764L133.221,9.4a2.469,2.469,0,0,1,.981-1.3,3.282,3.282,0,0,1,1.854-.469,2.719,2.719,0,0,1,1.775.483,1.489,1.489,0,0,1,.574,1.181,3.852,3.852,0,0,1-.05.6q-.05.316-.349,1.664a8.543,8.543,0,0,0-.246,1.559A3.212,3.212,0,0,0,137.9,14h-1.635a3.232,3.232,0,0,1-.123-.7,2.578,2.578,0,0,1-.85.63,2.306,2.306,0,0,1-.967.22,1.726,1.726,0,0,1-1.277-.507,1.77,1.77,0,0,1-.5-1.3,1.885,1.885,0,0,1,.554-1.424,3.223,3.223,0,0,1,1.978-.645,7.853,7.853,0,0,0,1.605-.24,2.077,2.077,0,0,0,.105-.562.566.566,0,0,0-.217-.451.983.983,0,0,0-.645-.182,1.213,1.213,0,0,0-.712.185A.917.917,0,0,0,134.862,9.541Zm1.6,1.559a3.452,3.452,0,0,1-.4.076,3.842,3.842,0,0,0-1.652.445.679.679,0,0,0-.275.568.659.659,0,0,0,.211.5.771.771,0,0,0,.557.2,1.471,1.471,0,0,0,.718-.185,1.262,1.262,0,0,0,.5-.475,3.242,3.242,0,0,0,.3-.905Zm4.544-1.652-1.383-.234a3.006,3.006,0,0,1,4.257-1.107,1.5,1.5,0,0,1,.548,1.2,1.367,1.367,0,0,1-.41,1.011,1.9,1.9,0,0,1-.932.524,1.367,1.367,0,0,1,.8.5,1.381,1.381,0,0,1,.313.885,1.744,1.744,0,0,1-.674,1.33,3.215,3.215,0,0,1-2.15.592q-2.209,0-2.648-1.74l1.576-.158a1.163,1.163,0,0,0,1.189.861,1.029,1.029,0,0,0,.724-.261.837.837,0,0,0,.284-.642.67.67,0,0,0-.281-.609,1.774,1.774,0,0,0-.926-.182l.141-1.025a4.879,4.879,0,0,0,.838-.05.768.768,0,0,0,.445-.284.839.839,0,0,0,.193-.551.7.7,0,0,0-.243-.542.855.855,0,0,0-.595-.22A1.223,1.223,0,0,0,141.005,9.447Zm6.413.094L145.778,9.4a2.469,2.469,0,0,1,.981-1.3,3.282,3.282,0,0,1,1.854-.469,2.719,2.719,0,0,1,1.775.483,1.489,1.489,0,0,1,.574,1.181,3.852,3.852,0,0,1-.05.6q-.05.316-.349,1.664a8.543,8.543,0,0,0-.246,1.559,3.212,3.212,0,0,0,.141.885h-1.635a3.232,3.232,0,0,1-.123-.7,2.578,2.578,0,0,1-.85.63,2.306,2.306,0,0,1-.967.22,1.726,1.726,0,0,1-1.277-.507,1.77,1.77,0,0,1-.5-1.3,1.885,1.885,0,0,1,.554-1.424,3.223,3.223,0,0,1,1.978-.645,7.853,7.853,0,0,0,1.605-.24,2.077,2.077,0,0,0,.105-.562.566.566,0,0,0-.217-.451.983.983,0,0,0-.645-.182,1.213,1.213,0,0,0-.712.185A.917.917,0,0,0,147.419,9.541Zm1.6,1.559a3.452,3.452,0,0,1-.4.076,3.842,3.842,0,0,0-1.652.445.679.679,0,0,0-.275.568.659.659,0,0,0,.211.5.771.771,0,0,0,.557.2,1.471,1.471,0,0,0,.718-.185,1.262,1.262,0,0,0,.5-.475,3.242,3.242,0,0,0,.3-.905Zm5.452-4.846.3-1.225h.533a3.5,3.5,0,0,1,2.666.762,3.665,3.665,0,0,1,.656,2.42,8.678,8.678,0,0,1-.935,4.239,3.168,3.168,0,0,1-2.991,1.69,3.061,3.061,0,0,1-2.057-.688,2.468,2.468,0,0,1-.809-1.989,3.9,3.9,0,0,1,1.017-2.692,3.27,3.27,0,0,1,2.54-1.134,2.629,2.629,0,0,1,.929.161,2.593,2.593,0,0,1,.8.483q.018-.346.018-.557a1.374,1.374,0,0,0-.413-1.163,2.565,2.565,0,0,0-1.468-.308Zm1.16,2.619a1.759,1.759,0,0,0-1.541.864,3.2,3.2,0,0,0-.568,1.778,1.326,1.326,0,0,0,.34.976,1.176,1.176,0,0,0,.873.343,1.7,1.7,0,0,0,1.494-.961A3.674,3.674,0,0,0,156.8,9.98a1.048,1.048,0,0,0-.319-.817A1.219,1.219,0,0,0,155.631,8.873Zm6.888,2.982h-1.512a3.411,3.411,0,0,1,.489-1.362,8.375,8.375,0,0,1,1.491-1.544,7.732,7.732,0,0,0,1.11-1.09.954.954,0,0,0,.167-.51.763.763,0,0,0-.287-.606A1.337,1.337,0,0,0,163.1,6.5a1.587,1.587,0,0,0-1.072.357A2.049,2.049,0,0,0,161.434,8l-1.541-.27a3.242,3.242,0,0,1,1.154-1.8,3.3,3.3,0,0,1,2.08-.662,2.9,2.9,0,0,1,1.992.636,1.968,1.968,0,0,1,.715,1.521,2,2,0,0,1-.3,1.028,8.509,8.509,0,0,1-1.67,1.644,7.239,7.239,0,0,0-1.055,1A1.912,1.912,0,0,0,162.518,11.855Zm-1.687.521h1.664L162.155,14h-1.664Zm8.775-1.283-2.279,2.49H165.9l2.068-2.619-.738-2.689h1.207Zm2.4-.006-2.42,2.5h-1.406l2.115-2.607-.779-2.7H170.7Z" transform="translate(987 180)" fill="#2a2846"/><g transform="translate(987 203)" fill="none" stroke="#2a1e4d" stroke-width="2"><rect width="170" height="24" stroke="none"/><rect x="1" y="1" width="168" height="22" fill="none"/></g><g transform="translate(987 232)" fill="none" stroke="#2a1e4d" stroke-width="2"><rect width="162" height="24" stroke="none"/><rect x="1" y="1" width="160" height="22" fill="none"/></g><path d="M.66-3.36v-7.16q0-3.64,3.36-3.64a3.156,3.156,0,0,1,2.44.91,3.712,3.712,0,0,1,.84,2.61v.36H5.22v-.5q0-1.38-1.14-1.38a1.1,1.1,0,0,0-.92.38,2.229,2.229,0,0,0-.3,1.34v2.56A2.068,2.068,0,0,1,4.9-9.12q2.44,0,2.44,3.2v2.56a3.663,3.663,0,0,1-.86,2.6A3.23,3.23,0,0,1,4,.16,3.23,3.23,0,0,1,1.52-.76,3.663,3.663,0,0,1,.66-3.36ZM5.14-5.74Q5.14-7.12,4-7.12T2.86-5.74v2.52Q2.86-1.86,4-1.86T5.14-3.22Zm4.94-4.94v-1.56a2.379,2.379,0,0,0,1.62-.44A3.282,3.282,0,0,0,12.5-14h1.48V0h-2.2V-10.68Zm7.84-1.28v4.8q0,.88.72.88t.72-.88v-4.8q0-.88-.72-.88T17.92-11.96Zm-1.4,4.7v-4.6a2.347,2.347,0,0,1,.54-1.66,2.054,2.054,0,0,1,1.58-.58,2.054,2.054,0,0,1,1.58.58,2.347,2.347,0,0,1,.54,1.66v4.6a2.347,2.347,0,0,1-.54,1.66,2.054,2.054,0,0,1-1.58.58,2.054,2.054,0,0,1-1.58-.58A2.347,2.347,0,0,1,16.52-7.26ZM18.64,0l5.52-14h1.3L19.94,0Zm6.22-6.84v4.8q0,.88.72.88t.72-.88v-4.8q0-.88-.72-.88T24.86-6.84Zm-1.4,4.7v-4.6A2.347,2.347,0,0,1,24-8.4a2.054,2.054,0,0,1,1.58-.58,2.054,2.054,0,0,1,1.58.58,2.347,2.347,0,0,1,.54,1.66v4.6a2.347,2.347,0,0,1-.54,1.66A2.054,2.054,0,0,1,25.58.1,2.054,2.054,0,0,1,24-.48,2.347,2.347,0,0,1,23.46-2.14Z" transform="translate(1162 222)" fill="#291d4c"/><path d="M9.65-7.8,7.339-4.825,9.65-1.846,8.429-.923l-3.665-3.9,3.665-3.9Zm-4.017.026-2.3,2.953,2.3,2.979L4.412-.923.756-4.825l3.656-3.9Zm13.02,9.47H16.692V0h-4.23V1.692H10.536V-1.764h.774A2.824,2.824,0,0,0,11.8-3.4l.45-9.2H17.79V-1.764h.864ZM14.1-10.8l-.36,7.362a2.5,2.5,0,0,1-.558,1.674h2.592V-10.8Zm10.044-1.8L26.16,0h-2L23.82-2.286H21.39L21.048,0H19.23l2.016-12.6ZM22.6-10.368,21.642-4H23.55ZM26.956-7.8l2.312,2.979L26.956-1.846l1.222.923,3.665-3.9-3.665-3.9Zm4.017.026,2.3,2.953-2.3,2.979,1.222.923,3.656-3.9-3.656-3.9ZM43.1-12.6a3.029,3.029,0,0,1,2.232.711,3,3,0,0,1,.7,2.187v.45A2.5,2.5,0,0,1,44.76-6.714q1.476.576,1.476,2.7v1.026a3.011,3.011,0,0,1-.765,2.223A3.037,3.037,0,0,1,43.23,0H40.116V-12.6Zm-.126,6.93H42.1V-1.8H43.23A.992.992,0,0,0,44-2.079a1.437,1.437,0,0,0,.252-.963v-1.1a1.824,1.824,0,0,0-.3-1.2A1.258,1.258,0,0,0,42.978-5.67Zm.072-5.13H42.1v3.33h.774a1.188,1.188,0,0,0,.891-.306,1.446,1.446,0,0,0,.3-1.026v-.7Q44.058-10.8,43.05-10.8ZM54.138-9.5a1.809,1.809,0,0,0-.261-1.125.936.936,0,0,0-.765-.315q-1.026,0-1.026,1.242v1.35H50.214V-9.576a3.34,3.34,0,0,1,.756-2.349,2.841,2.841,0,0,1,2.2-.819,2.841,2.841,0,0,1,2.2.819,3.34,3.34,0,0,1,.756,2.349,5.461,5.461,0,0,1-.4,2.088,6.415,6.415,0,0,1-.99,1.692q-.585.7-1.161,1.314a8.912,8.912,0,0,0-.981,1.233,2.176,2.176,0,0,0-.4,1.179,1.491,1.491,0,0,0,.018.27h3.744V0H50.214V-1.548a4.338,4.338,0,0,1,.4-1.881A6.137,6.137,0,0,1,51.6-4.923q.576-.639,1.152-1.26a5.857,5.857,0,0,0,.981-1.467A4.238,4.238,0,0,0,54.138-9.5Zm5.022-.2v6.8q0,1.242,1.026,1.242T61.212-2.9V-9.7q0-1.242-1.026-1.242T59.16-9.7ZM57.18-3.024V-9.576a3.3,3.3,0,0,1,.774-2.34,2.907,2.907,0,0,1,2.232-.828,2.907,2.907,0,0,1,2.232.828,3.3,3.3,0,0,1,.774,2.34v6.552a3.3,3.3,0,0,1-.774,2.34,2.907,2.907,0,0,1-2.232.828,2.907,2.907,0,0,1-2.232-.828A3.3,3.3,0,0,1,57.18-3.024Zm8.514-6.588v-1.4a2.141,2.141,0,0,0,1.458-.4,2.953,2.953,0,0,0,.72-1.188H69.2V0h-1.98V-9.612ZM77.538-3.024a3.228,3.228,0,0,1-.8,2.34,3.046,3.046,0,0,1-2.295.828,3.046,3.046,0,0,1-2.3-.828,3.228,3.228,0,0,1-.8-2.34v-.99A2.74,2.74,0,0,1,72.57-6.642,2.624,2.624,0,0,1,71.346-9.18v-.4a3.228,3.228,0,0,1,.8-2.34,3.046,3.046,0,0,1,2.3-.828,3.046,3.046,0,0,1,2.295.828,3.228,3.228,0,0,1,.8,2.34v.4a2.648,2.648,0,0,1-1.224,2.538,2.74,2.74,0,0,1,1.224,2.628Zm-4.212-.054q0,1.422,1.116,1.422,1.1,0,1.116-1.422v-1.17q0-1.422-1.116-1.422T73.326-4.248Zm0-6.426v.7q0,1.332,1.116,1.332T75.558-8.8v-.7q0-1.44-1.116-1.44T73.326-9.5Zm7.4,9.5h-1.98V-12.6h5.22v1.8h-3.24Z" transform="translate(992 221)" fill="#291d4c" opacity="0.499"/><path d="M9.65-7.8,7.339-4.825,9.65-1.846,8.429-.923l-3.665-3.9,3.665-3.9Zm-4.017.026-2.3,2.953,2.3,2.979L4.412-.923.756-4.825l3.656-3.9Zm13.02,9.47H16.692V0h-4.23V1.692H10.536V-1.764h.774A2.824,2.824,0,0,0,11.8-3.4l.45-9.2H17.79V-1.764h.864ZM14.1-10.8l-.36,7.362a2.5,2.5,0,0,1-.558,1.674h2.592V-10.8Zm10.044-1.8L26.16,0h-2L23.82-2.286H21.39L21.048,0H19.23l2.016-12.6ZM22.6-10.368,21.642-4H23.55ZM26.956-7.8l2.312,2.979L26.956-1.846l1.222.923,3.665-3.9-3.665-3.9Zm4.017.026,2.3,2.953-2.3,2.979,1.222.923,3.656-3.9-3.656-3.9ZM43.1-12.6a3.029,3.029,0,0,1,2.232.711,3,3,0,0,1,.7,2.187v.45A2.5,2.5,0,0,1,44.76-6.714q1.476.576,1.476,2.7v1.026a3.011,3.011,0,0,1-.765,2.223A3.037,3.037,0,0,1,43.23,0H40.116V-12.6Zm-.126,6.93H42.1V-1.8H43.23A.992.992,0,0,0,44-2.079a1.437,1.437,0,0,0,.252-.963v-1.1a1.824,1.824,0,0,0-.3-1.2A1.258,1.258,0,0,0,42.978-5.67Zm.072-5.13H42.1v3.33h.774a1.188,1.188,0,0,0,.891-.306,1.446,1.446,0,0,0,.3-1.026v-.7Q44.058-10.8,43.05-10.8ZM54.138-9.5a1.809,1.809,0,0,0-.261-1.125.936.936,0,0,0-.765-.315q-1.026,0-1.026,1.242v1.35H50.214V-9.576a3.34,3.34,0,0,1,.756-2.349,2.841,2.841,0,0,1,2.2-.819,2.841,2.841,0,0,1,2.2.819,3.34,3.34,0,0,1,.756,2.349,5.461,5.461,0,0,1-.4,2.088,6.415,6.415,0,0,1-.99,1.692q-.585.7-1.161,1.314a8.912,8.912,0,0,0-.981,1.233,2.176,2.176,0,0,0-.4,1.179,1.491,1.491,0,0,0,.018.27h3.744V0H50.214V-1.548a4.338,4.338,0,0,1,.4-1.881A6.137,6.137,0,0,1,51.6-4.923q.576-.639,1.152-1.26a5.857,5.857,0,0,0,.981-1.467A4.238,4.238,0,0,0,54.138-9.5Zm5.022-.2v6.8q0,1.242,1.026,1.242T61.212-2.9V-9.7q0-1.242-1.026-1.242T59.16-9.7ZM57.18-3.024V-9.576a3.3,3.3,0,0,1,.774-2.34,2.907,2.907,0,0,1,2.232-.828,2.907,2.907,0,0,1,2.232.828,3.3,3.3,0,0,1,.774,2.34v6.552a3.3,3.3,0,0,1-.774,2.34,2.907,2.907,0,0,1-2.232.828,2.907,2.907,0,0,1-2.232-.828A3.3,3.3,0,0,1,57.18-3.024Zm8.514-6.588v-1.4a2.141,2.141,0,0,0,1.458-.4,2.953,2.953,0,0,0,.72-1.188H69.2V0h-1.98V-9.612ZM71.472-12.6h5.94v1.728L74.5,0h-1.98l2.9-10.8H71.472ZM80.724,0h-1.98V-12.6h5.22v1.8h-3.24Z" transform="translate(992 250)" fill="#291d4c" opacity="0.499"/><path d="M.7-4.52H2.78v1.3q0,1.36,1.14,1.36T5.06-3.22V-6.3q0-1.38-1.14-1.38T2.78-6.3v.42H.7L1.1-14H6.9v2H3.08L2.9-8.66A2.089,2.089,0,0,1,4.82-9.68q2.44,0,2.44,3.2v3.12A3.712,3.712,0,0,1,6.42-.75,3.156,3.156,0,0,1,3.98.16,3.156,3.156,0,0,1,1.54-.75,3.712,3.712,0,0,1,.7-3.36ZM15.32-3.36a3.586,3.586,0,0,1-.89,2.6,3.385,3.385,0,0,1-2.55.92A3.385,3.385,0,0,1,9.33-.76a3.586,3.586,0,0,1-.89-2.6v-1.1A3.044,3.044,0,0,1,9.8-7.38,2.916,2.916,0,0,1,8.44-10.2v-.44a3.586,3.586,0,0,1,.89-2.6,3.385,3.385,0,0,1,2.55-.92,3.385,3.385,0,0,1,2.55.92,3.586,3.586,0,0,1,.89,2.6v.44a2.942,2.942,0,0,1-1.36,2.82,3.044,3.044,0,0,1,1.36,2.92Zm-4.68-.06q0,1.58,1.24,1.58,1.22,0,1.24-1.58v-1.3q0-1.58-1.24-1.58T10.64-4.72Zm0-7.14v.78q0,1.48,1.24,1.48t1.24-1.48v-.78q0-1.6-1.24-1.6T10.64-10.56Zm7.28-1.4v4.8q0,.88.72.88t.72-.88v-4.8q0-.88-.72-.88T17.92-11.96Zm-1.4,4.7v-4.6a2.347,2.347,0,0,1,.54-1.66,2.054,2.054,0,0,1,1.58-.58,2.054,2.054,0,0,1,1.58.58,2.347,2.347,0,0,1,.54,1.66v4.6a2.347,2.347,0,0,1-.54,1.66,2.054,2.054,0,0,1-1.58.58,2.054,2.054,0,0,1-1.58-.58A2.347,2.347,0,0,1,16.52-7.26ZM18.64,0l5.52-14h1.3L19.94,0Zm6.22-6.84v4.8q0,.88.72.88t.72-.88v-4.8q0-.88-.72-.88T24.86-6.84Zm-1.4,4.7v-4.6A2.347,2.347,0,0,1,24-8.4a2.054,2.054,0,0,1,1.58-.58,2.054,2.054,0,0,1,1.58.58,2.347,2.347,0,0,1,.54,1.66v4.6a2.347,2.347,0,0,1-.54,1.66A2.054,2.054,0,0,1,25.58.1,2.054,2.054,0,0,1,24-.48,2.347,2.347,0,0,1,23.46-2.14Z" transform="translate(1156 251)" fill="#291d4c"/><path d="M7,0l7,12H0Z" transform="translate(1197 209)" fill="#9ccc65"/><path d="M4.266-9.432h-1.4V-7H.45v1.4H2.862v2.466h1.4V-5.6H6.678V-7H4.266Zm7.4.63c0,1.008-.45,1.332-1.188,1.332H9.7v1.8h.666c.9,0,1.3.432,1.3,1.6v.99c0,1.116-.4,1.422-1.026,1.422S9.612-2,9.612-2.9v-1.17H7.74v1.044C7.74-1.008,8.748.144,10.692.144s2.952-1.152,2.952-3.168v-.99A2.571,2.571,0,0,0,12.258-6.66c.954-.4,1.386-1.242,1.386-2.592v-.324c0-2.016-1.008-3.168-2.952-3.168S7.74-11.592,7.74-9.576v.684H9.612V-9.7c0-.9.4-1.242,1.026-1.242s1.026.306,1.026,1.44Zm8.082-2H22V0h2.016V-12.6H17.766V0h1.98Zm5.706,8.892V0H27.36V-1.908ZM30.78-10.8h2.25V0h2.016V-12.6H28.8V0h1.98Zm5.706,8.892V0h1.908V-1.908Z" transform="translate(1210 221)" fill="#9ccc65"/></g></svg>