<svg xmlns="http://www.w3.org/2000/svg" width="261.394" height="88" viewBox="0 0 261.394 88"><g transform="translate(-987 -168)"><text transform="translate(987 180)" fill="#2a2846" font-size="12" font-family="HelveticaNeue-BoldItalic, Helvetica Neue" font-weight="700" font-style="italic" letter-spacing="-0.01em"><tspan x="0" y="0">«Качество российских фильмов лучше,</tspan><tspan x="0" y="14">чем снятых год-два назад?»</tspan></text><g transform="translate(987 203)" fill="none" stroke="#2a1e4d" stroke-width="2"><rect width="170" height="24" stroke="none"/><rect x="1" y="1" width="168" height="22" fill="none"/></g><g transform="translate(987 232)" fill="none" stroke="#2a1e4d" stroke-width="2"><rect width="162" height="24" stroke="none"/><rect x="1" y="1" width="160" height="22" fill="none"/></g><g transform="translate(1147 203)" fill="#2a1e4d" stroke="#2a1e4d" stroke-width="2" opacity="0.012"><rect width="10" height="24" stroke="none"/><rect x="1" y="1" width="8" height="22" fill="none"/></g><path d="M.66-3.36v-7.16q0-3.64,3.36-3.64a3.156,3.156,0,0,1,2.44.91,3.712,3.712,0,0,1,.84,2.61v.36H5.22v-.5q0-1.38-1.14-1.38a1.1,1.1,0,0,0-.92.38,2.229,2.229,0,0,0-.3,1.34v2.56A2.068,2.068,0,0,1,4.9-9.12q2.44,0,2.44,3.2v2.56a3.663,3.663,0,0,1-.86,2.6A3.23,3.23,0,0,1,4,.16,3.23,3.23,0,0,1,1.52-.76,3.663,3.663,0,0,1,.66-3.36ZM5.14-5.74Q5.14-7.12,4-7.12T2.86-5.74v2.52Q2.86-1.86,4-1.86T5.14-3.22Zm4.94-4.94v-1.56a2.379,2.379,0,0,0,1.62-.44A3.282,3.282,0,0,0,12.5-14h1.48V0h-2.2V-10.68Zm7.84-1.28v4.8q0,.88.72.88t.72-.88v-4.8q0-.88-.72-.88T17.92-11.96Zm-1.4,4.7v-4.6a2.347,2.347,0,0,1,.54-1.66,2.054,2.054,0,0,1,1.58-.58,2.054,2.054,0,0,1,1.58.58,2.347,2.347,0,0,1,.54,1.66v4.6a2.347,2.347,0,0,1-.54,1.66,2.054,2.054,0,0,1-1.58.58,2.054,2.054,0,0,1-1.58-.58A2.347,2.347,0,0,1,16.52-7.26ZM18.64,0l5.52-14h1.3L19.94,0Zm6.22-6.84v4.8q0,.88.72.88t.72-.88v-4.8q0-.88-.72-.88T24.86-6.84Zm-1.4,4.7v-4.6A2.347,2.347,0,0,1,24-8.4a2.054,2.054,0,0,1,1.58-.58,2.054,2.054,0,0,1,1.58.58,2.347,2.347,0,0,1,.54,1.66v4.6a2.347,2.347,0,0,1-.54,1.66A2.054,2.054,0,0,1,25.58.1,2.054,2.054,0,0,1,24-.48,2.347,2.347,0,0,1,23.46-2.14Z" transform="translate(1162 222)" fill="#291d4c"/><path d="M9.65-7.8,7.339-4.825,9.65-1.846,8.429-.923l-3.665-3.9,3.665-3.9Zm-4.017.026-2.3,2.953,2.3,2.979L4.412-.923.756-4.825l3.656-3.9Zm13.02,9.47H16.692V0h-4.23V1.692H10.536V-1.764h.774A2.824,2.824,0,0,0,11.8-3.4l.45-9.2H17.79V-1.764h.864ZM14.1-10.8l-.36,7.362a2.5,2.5,0,0,1-.558,1.674h2.592V-10.8Zm10.044-1.8L26.16,0h-2L23.82-2.286H21.39L21.048,0H19.23l2.016-12.6ZM22.6-10.368,21.642-4H23.55ZM26.956-7.8l2.312,2.979L26.956-1.846l1.222.923,3.665-3.9-3.665-3.9Zm4.017.026,2.3,2.953-2.3,2.979,1.222.923,3.656-3.9-3.656-3.9ZM43.1-12.6a3.029,3.029,0,0,1,2.232.711,3,3,0,0,1,.7,2.187v.45A2.5,2.5,0,0,1,44.76-6.714q1.476.576,1.476,2.7v1.026a3.011,3.011,0,0,1-.765,2.223A3.037,3.037,0,0,1,43.23,0H40.116V-12.6Zm-.126,6.93H42.1V-1.8H43.23A.992.992,0,0,0,44-2.079a1.437,1.437,0,0,0,.252-.963v-1.1a1.824,1.824,0,0,0-.3-1.2A1.258,1.258,0,0,0,42.978-5.67Zm.072-5.13H42.1v3.33h.774a1.188,1.188,0,0,0,.891-.306,1.446,1.446,0,0,0,.3-1.026v-.7Q44.058-10.8,43.05-10.8ZM54.138-9.5a1.809,1.809,0,0,0-.261-1.125.936.936,0,0,0-.765-.315q-1.026,0-1.026,1.242v1.35H50.214V-9.576a3.34,3.34,0,0,1,.756-2.349,2.841,2.841,0,0,1,2.2-.819,2.841,2.841,0,0,1,2.2.819,3.34,3.34,0,0,1,.756,2.349,5.461,5.461,0,0,1-.4,2.088,6.415,6.415,0,0,1-.99,1.692q-.585.7-1.161,1.314a8.912,8.912,0,0,0-.981,1.233,2.176,2.176,0,0,0-.4,1.179,1.491,1.491,0,0,0,.018.27h3.744V0H50.214V-1.548a4.338,4.338,0,0,1,.4-1.881A6.137,6.137,0,0,1,51.6-4.923q.576-.639,1.152-1.26a5.857,5.857,0,0,0,.981-1.467A4.238,4.238,0,0,0,54.138-9.5Zm5.022-.2v6.8q0,1.242,1.026,1.242T61.212-2.9V-9.7q0-1.242-1.026-1.242T59.16-9.7ZM57.18-3.024V-9.576a3.3,3.3,0,0,1,.774-2.34,2.907,2.907,0,0,1,2.232-.828,2.907,2.907,0,0,1,2.232.828,3.3,3.3,0,0,1,.774,2.34v6.552a3.3,3.3,0,0,1-.774,2.34,2.907,2.907,0,0,1-2.232.828,2.907,2.907,0,0,1-2.232-.828A3.3,3.3,0,0,1,57.18-3.024Zm8.514-6.588v-1.4a2.141,2.141,0,0,0,1.458-.4,2.953,2.953,0,0,0,.72-1.188H69.2V0h-1.98V-9.612ZM77.538-3.024a3.228,3.228,0,0,1-.8,2.34,3.046,3.046,0,0,1-2.295.828,3.046,3.046,0,0,1-2.3-.828,3.228,3.228,0,0,1-.8-2.34v-.99A2.74,2.74,0,0,1,72.57-6.642,2.624,2.624,0,0,1,71.346-9.18v-.4a3.228,3.228,0,0,1,.8-2.34,3.046,3.046,0,0,1,2.3-.828,3.046,3.046,0,0,1,2.295.828,3.228,3.228,0,0,1,.8,2.34v.4a2.648,2.648,0,0,1-1.224,2.538,2.74,2.74,0,0,1,1.224,2.628Zm-4.212-.054q0,1.422,1.116,1.422,1.1,0,1.116-1.422v-1.17q0-1.422-1.116-1.422T73.326-4.248Zm0-6.426v.7q0,1.332,1.116,1.332T75.558-8.8v-.7q0-1.44-1.116-1.44T73.326-9.5Zm7.4,9.5h-1.98V-12.6h5.22v1.8h-3.24Z" transform="translate(992 221)" fill="#291d4c" opacity="0.499"/><path d="M9.65-7.8,7.339-4.825,9.65-1.846,8.429-.923l-3.665-3.9,3.665-3.9Zm-4.017.026-2.3,2.953,2.3,2.979L4.412-.923.756-4.825l3.656-3.9Zm13.02,9.47H16.692V0h-4.23V1.692H10.536V-1.764h.774A2.824,2.824,0,0,0,11.8-3.4l.45-9.2H17.79V-1.764h.864ZM14.1-10.8l-.36,7.362a2.5,2.5,0,0,1-.558,1.674h2.592V-10.8Zm10.044-1.8L26.16,0h-2L23.82-2.286H21.39L21.048,0H19.23l2.016-12.6ZM22.6-10.368,21.642-4H23.55ZM26.956-7.8l2.312,2.979L26.956-1.846l1.222.923,3.665-3.9-3.665-3.9Zm4.017.026,2.3,2.953-2.3,2.979,1.222.923,3.656-3.9-3.656-3.9ZM43.1-12.6a3.029,3.029,0,0,1,2.232.711,3,3,0,0,1,.7,2.187v.45A2.5,2.5,0,0,1,44.76-6.714q1.476.576,1.476,2.7v1.026a3.011,3.011,0,0,1-.765,2.223A3.037,3.037,0,0,1,43.23,0H40.116V-12.6Zm-.126,6.93H42.1V-1.8H43.23A.992.992,0,0,0,44-2.079a1.437,1.437,0,0,0,.252-.963v-1.1a1.824,1.824,0,0,0-.3-1.2A1.258,1.258,0,0,0,42.978-5.67Zm.072-5.13H42.1v3.33h.774a1.188,1.188,0,0,0,.891-.306,1.446,1.446,0,0,0,.3-1.026v-.7Q44.058-10.8,43.05-10.8ZM54.138-9.5a1.809,1.809,0,0,0-.261-1.125.936.936,0,0,0-.765-.315q-1.026,0-1.026,1.242v1.35H50.214V-9.576a3.34,3.34,0,0,1,.756-2.349,2.841,2.841,0,0,1,2.2-.819,2.841,2.841,0,0,1,2.2.819,3.34,3.34,0,0,1,.756,2.349,5.461,5.461,0,0,1-.4,2.088,6.415,6.415,0,0,1-.99,1.692q-.585.7-1.161,1.314a8.912,8.912,0,0,0-.981,1.233,2.176,2.176,0,0,0-.4,1.179,1.491,1.491,0,0,0,.018.27h3.744V0H50.214V-1.548a4.338,4.338,0,0,1,.4-1.881A6.137,6.137,0,0,1,51.6-4.923q.576-.639,1.152-1.26a5.857,5.857,0,0,0,.981-1.467A4.238,4.238,0,0,0,54.138-9.5Zm5.022-.2v6.8q0,1.242,1.026,1.242T61.212-2.9V-9.7q0-1.242-1.026-1.242T59.16-9.7ZM57.18-3.024V-9.576a3.3,3.3,0,0,1,.774-2.34,2.907,2.907,0,0,1,2.232-.828,2.907,2.907,0,0,1,2.232.828,3.3,3.3,0,0,1,.774,2.34v6.552a3.3,3.3,0,0,1-.774,2.34,2.907,2.907,0,0,1-2.232.828,2.907,2.907,0,0,1-2.232-.828A3.3,3.3,0,0,1,57.18-3.024Zm8.514-6.588v-1.4a2.141,2.141,0,0,0,1.458-.4,2.953,2.953,0,0,0,.72-1.188H69.2V0h-1.98V-9.612ZM71.472-12.6h5.94v1.728L74.5,0h-1.98l2.9-10.8H71.472ZM80.724,0h-1.98V-12.6h5.22v1.8h-3.24Z" transform="translate(992 250)" fill="#291d4c" opacity="0.499"/><path d="M.7-4.52H2.78v1.3q0,1.36,1.14,1.36T5.06-3.22V-6.3q0-1.38-1.14-1.38T2.78-6.3v.42H.7L1.1-14H6.9v2H3.08L2.9-8.66A2.089,2.089,0,0,1,4.82-9.68q2.44,0,2.44,3.2v3.12A3.712,3.712,0,0,1,6.42-.75,3.156,3.156,0,0,1,3.98.16,3.156,3.156,0,0,1,1.54-.75,3.712,3.712,0,0,1,.7-3.36ZM15.32-3.36a3.586,3.586,0,0,1-.89,2.6,3.385,3.385,0,0,1-2.55.92A3.385,3.385,0,0,1,9.33-.76a3.586,3.586,0,0,1-.89-2.6v-1.1A3.044,3.044,0,0,1,9.8-7.38,2.916,2.916,0,0,1,8.44-10.2v-.44a3.586,3.586,0,0,1,.89-2.6,3.385,3.385,0,0,1,2.55-.92,3.385,3.385,0,0,1,2.55.92,3.586,3.586,0,0,1,.89,2.6v.44a2.942,2.942,0,0,1-1.36,2.82,3.044,3.044,0,0,1,1.36,2.92Zm-4.68-.06q0,1.58,1.24,1.58,1.22,0,1.24-1.58v-1.3q0-1.58-1.24-1.58T10.64-4.72Zm0-7.14v.78q0,1.48,1.24,1.48t1.24-1.48v-.78q0-1.6-1.24-1.6T10.64-10.56Zm7.28-1.4v4.8q0,.88.72.88t.72-.88v-4.8q0-.88-.72-.88T17.92-11.96Zm-1.4,4.7v-4.6a2.347,2.347,0,0,1,.54-1.66,2.054,2.054,0,0,1,1.58-.58,2.054,2.054,0,0,1,1.58.58,2.347,2.347,0,0,1,.54,1.66v4.6a2.347,2.347,0,0,1-.54,1.66,2.054,2.054,0,0,1-1.58.58,2.054,2.054,0,0,1-1.58-.58A2.347,2.347,0,0,1,16.52-7.26ZM18.64,0l5.52-14h1.3L19.94,0Zm6.22-6.84v4.8q0,.88.72.88t.72-.88v-4.8q0-.88-.72-.88T24.86-6.84Zm-1.4,4.7v-4.6A2.347,2.347,0,0,1,24-8.4a2.054,2.054,0,0,1,1.58-.58,2.054,2.054,0,0,1,1.58.58,2.347,2.347,0,0,1,.54,1.66v4.6a2.347,2.347,0,0,1-.54,1.66A2.054,2.054,0,0,1,25.58.1,2.054,2.054,0,0,1,24-.48,2.347,2.347,0,0,1,23.46-2.14Z" transform="translate(1156 251)" fill="#291d4c"/><g transform="translate(29 -5)"><path d="M7,0l7,12H0Z" transform="translate(1168 214)" fill="#9ccc65"/><path d="M4.266-9.432V-7H6.678v1.4H4.266v2.466h-1.4V-5.6H.45V-7H2.862v-2.43Zm7.4.63v-.7a1.809,1.809,0,0,0-.261-1.125.936.936,0,0,0-.765-.315q-1.026,0-1.026,1.242v.81H7.74v-.684A3.34,3.34,0,0,1,8.5-11.925a2.841,2.841,0,0,1,2.2-.819,2.841,2.841,0,0,1,2.2.819,3.34,3.34,0,0,1,.756,2.349v.324A2.489,2.489,0,0,1,12.258-6.66a2.579,2.579,0,0,1,1.386,2.646v.99a3.34,3.34,0,0,1-.756,2.349,2.841,2.841,0,0,1-2.2.819A2.841,2.841,0,0,1,8.5-.675,3.34,3.34,0,0,1,7.74-3.024V-4.068H9.612V-2.9q0,1.242,1.026,1.242a.936.936,0,0,0,.765-.315,1.771,1.771,0,0,0,.261-1.107v-.99A1.944,1.944,0,0,0,11.358-5.3a1.216,1.216,0,0,0-.99-.369H9.7v-1.8h.774a1.188,1.188,0,0,0,.891-.306A1.446,1.446,0,0,0,11.664-8.8Zm8.082-2V0h-1.98V-12.6h6.246V0H22V-10.8Zm5.706,8.892H27.36V0H25.452ZM30.78-10.8V0H28.8V-12.6h6.246V0H33.03V-10.8Zm5.706,8.892h1.908V0H36.486Z" transform="translate(1181 226)" fill="#9ccc65"/></g></g></svg>