<svg xmlns="http://www.w3.org/2000/svg" width="85.5" height="178.607" viewBox="0 0 85.5 178.607"><g transform="translate(-1032.127 -3654.683)"><path d="M2.96,3.875H6.127v.892H3.7L3.388,6.325l.017.017A1.274,1.274,0,0,1,3.918,6a1.726,1.726,0,0,1,.617-.118,2.055,2.055,0,0,1,.814.153,1.675,1.675,0,0,1,.6.429,1.865,1.865,0,0,1,.372.652,2.531,2.531,0,0,1,.127.814,2.6,2.6,0,0,1-.118.757,2.077,2.077,0,0,1-.376.709,2.011,2.011,0,0,1-.661.525,2.093,2.093,0,0,1-.962.206A2.777,2.777,0,0,1,3.506,10a1.964,1.964,0,0,1-.669-.354,1.732,1.732,0,0,1-.459-.582,1.98,1.98,0,0,1-.188-.809h1a1.114,1.114,0,0,0,.341.766,1.135,1.135,0,0,0,.787.267,1.226,1.226,0,0,0,.534-.1A.934.934,0,0,0,5.2,8.9,1.151,1.151,0,0,0,5.4,8.469a2.317,2.317,0,0,0,.057-.525,1.671,1.671,0,0,0-.07-.486,1.2,1.2,0,0,0-.21-.407,1,1,0,0,0-.363-.28,1.211,1.211,0,0,0-.521-.1,1.483,1.483,0,0,0-.591.118.734.734,0,0,0-.4.442h-1Z" transform="translate(1091 3650.811)" fill="#2a244a" opacity="0.9"/><g transform="translate(1040 3744.815)"><path d="M158.087,450.05H103.348a2.339,2.339,0,0,0-2.34,2.34V488.2a.468.468,0,0,0,.468.468h58.482a.468.468,0,0,0,.468-.468V452.389A2.339,2.339,0,0,0,158.087,450.05Zm.854,36.2a.936.936,0,0,1-.936.936H103.429a.936.936,0,0,1-.936-.936V452.471a.936.936,0,0,1,.936-.936H158a.936.936,0,0,1,.936.936Z" transform="translate(-95.706 -450.05)" fill="#2a2746"/><path d="M157.883,568.788H131.119a.742.742,0,0,1-.742.742h-10.4a.742.742,0,0,1-.742-.742H92.472s-1.7,0-2.154-1.088a.057.057,0,0,0-.111.02v1.057c.01,1.661,2.265,1.661,2.265,1.661h65.411s2.255,0,2.265-1.661v-1.09a.05.05,0,0,0-.1-.018C159.615,568.788,157.883,568.788,157.883,568.788Z" transform="translate(-90.166 -510.36)" fill="#2a2746"/><path d="M159.958,546.018l-5.008-15.026a.468.468,0,0,0-.444-.32H95.762a.468.468,0,0,0-.444.32L90.31,546.018a2.2,2.2,0,0,0,2.118,3.135h26.764c0-.3.332-.536.742-.536h10.4c.41,0,.742.24.742.536H157.84A2.2,2.2,0,0,0,159.958,546.018Z" transform="translate(-90.123 -491.401)" fill="#2a2746"/></g><g transform="translate(1057.476 3705.336)"><path d="M139.384,381.151c-2.691-.8-4.384-1.969-4.384-3.267,0-2.421,5.888-4.384,13.152-4.384a37.607,37.607,0,0,1,4.384.249" transform="translate(-130.616 -371.308)" fill="none" stroke="#2a2746" stroke-linecap="round" stroke-linejoin="round" stroke-width="1.5"/><path d="M166.152,375.792c2.691.8,4.384,1.969,4.384,3.268,0,2.421-5.888,4.384-13.152,4.384a37.614,37.614,0,0,1-4.384-.249" transform="translate(-139.848 -372.484)" fill="none" stroke="#2a2746" stroke-linecap="round" stroke-linejoin="round" stroke-width="1.5"/><ellipse cx="17.536" cy="6.576" rx="17.536" ry="6.576" transform="translate(0 0)" stroke-width="1.5" stroke="#2a2746" stroke-linecap="round" stroke-linejoin="round" fill="none"/><path d="M152.3,392.58a44.136,44.136,0,0,1-17.536,0c-5.241-1.137-8.768-3.262-8.768-5.7V382.5" transform="translate(-126 -375.924)" fill="none" stroke="#2a2746" stroke-linecap="round" stroke-linejoin="round" stroke-width="1.5"/><path d="M193.384,382.5v4.384c0,1.668-1.656,3.19-4.384,4.35" transform="translate(-158.313 -375.924)" fill="none" stroke="#2a2746" stroke-linecap="round" stroke-linejoin="round" stroke-width="1.5"/><path d="M152.3,401.58a41.885,41.885,0,0,1-8.768.88c-9.684,0-17.536-2.944-17.536-6.576V391.5" transform="translate(-126 -380.54)" fill="none" stroke="#2a2746" stroke-linecap="round" stroke-linejoin="round" stroke-width="1.5"/><path d="M193.384,391.5v4.384c0,1.668-1.656,3.19-4.384,4.35" transform="translate(-158.313 -380.54)" fill="none" stroke="#2a2746" stroke-linecap="round" stroke-linejoin="round" stroke-width="1.5"/><path d="M161.071,400.5v4.384c0,3.632-7.851,6.576-17.536,6.576S126,408.516,126,404.884V400.5" transform="translate(-126 -385.156)" fill="none" stroke="#2a2746" stroke-linecap="round" stroke-linejoin="round" stroke-width="1.5"/></g><g transform="translate(1060.019 3654.683)"><path d="M172.317,290.486c1.063,0,1.884-.547,1.884-2.249v-1.185c0-1.915-.821-2.432-1.884-2.432s-1.885.517-1.885,2.432v1.185C170.432,289.939,171.223,290.486,172.317,290.486Z" transform="translate(-151.332 -278.068)" fill="#2a2746"/><path d="M131.221,271.859v37.288a.69.69,0,0,0,.69.69h9.6a.692.692,0,0,1,.488.2l3.7,3.7a.691.691,0,0,0,.976,0l3.7-3.7a.693.693,0,0,1,.489-.2h9.968a.69.69,0,0,0,.691-.69V271.859a.69.69,0,0,0-.691-.69H131.911A.69.69,0,0,0,131.221,271.859Zm4.147,21.726c0-6.261,6.626-7.294,6.626-13.433,0-1.915-.669-2.432-1.732-2.432s-1.733.578-1.733,2.1v1.934a.345.345,0,0,1-.345.345h-2.47a.345.345,0,0,1-.345-.345v-1.721c0-3.4,1.7-5.349,4.984-5.349s4.984,1.945,4.984,5.349c0,6.686-6.656,9.178-6.656,12.673v.456h6.007a.345.345,0,0,1,.345.345v2.349a.345.345,0,0,1-.345.345h-8.974a.345.345,0,0,1-.345-.345Zm3.129,12.356h-1.1l-1.042-2.718-.331.623v2.1H134.95V299.12h1.072v2.972l1.4-2.972H138.5l-1.491,3.04Zm3.653-1.637a1.63,1.63,0,1,1-3.255,0v-3.547a1.63,1.63,0,1,1,3.255,0Zm4.072,1.637h-1.091v-5.846h-1.218v5.846h-1.072V299.12h3.381Zm3.7-5.846h-1.851v1.9h1.472v.974h-1.472v2h1.851v.974H147V299.12h2.923Zm-2.946-9v-1.671c0-2.037.608-3.617,2.066-4.437-1.4-.76-2.066-2.188-2.066-4.285v-.669c0-3.4,1.854-5.349,5.228-5.349s5.227,1.945,5.227,5.349v.669c0,2.1-.7,3.525-2.067,4.285,1.459.821,2.067,2.4,2.067,4.438v1.671c0,3.4-1.854,5.349-5.227,5.349S146.978,294.5,146.978,291.093Zm6.531,9h-1.851v1.9h1.472v.974h-1.472v2h1.851v.974h-2.923V299.12h2.923Zm4.209,5.846h-1.1l-1.043-2.718-.331.623v2.1h-1.072V299.12h1.072v2.972l1.4-2.972h1.072l-1.491,3.04Z" transform="translate(-131.221 -271.169)" fill="#2a2746"/><path d="M149.733,330.393c-.341,0-.555.185-.555.672v3.683c0,.487.214.673.555.673s.555-.186.555-.673v-3.683C150.289,330.578,150.074,330.393,149.733,330.393Z" transform="translate(-140.431 -301.545)" fill="#2a2746"/><path d="M174.2,307.278V305.3c0-1.672-.7-2.4-1.884-2.4s-1.885.73-1.885,2.4v1.975c0,1.884.821,2.4,1.885,2.4S174.17,309.162,174.2,307.278Z" transform="translate(-151.332 -287.444)" fill="#2a2746"/></g><path d="M-37.73,0l-2.14-5.58-.68,1.28V0h-2.2V-14h2.2v6.1l2.88-6.1h2.2l-3.06,6.24L-35.47,0Zm7.36-6.42L-32.21,0h-2.26V-14h1.96v8.86l.8-3.08,1.8-5.78h2.42V0h-1.98V-9.86Zm6.64.42V0h-2.2V-14h2.2v6h2.5v-6h2.24V0h-2.24V-6Zm8.36-4.78v7.56q0,1.38,1.14,1.38t1.14-1.38v-7.56q0-1.38-1.14-1.38T-15.37-10.78Zm-2.2,7.42v-7.28a3.663,3.663,0,0,1,.86-2.6,3.23,3.23,0,0,1,2.48-.92,3.23,3.23,0,0,1,2.48.92,3.663,3.663,0,0,1,.86,2.6v7.28a3.663,3.663,0,0,1-.86,2.6,3.23,3.23,0,0,1-2.48.92,3.23,3.23,0,0,1-2.48-.92A3.663,3.663,0,0,1-17.57-3.36Zm13.22-7.42v7.56q0,1.38,1.14,1.38t1.14-1.38v-7.56q0-1.38-1.14-1.38T-4.35-10.78Zm-2.2,7.42v-7.28a3.663,3.663,0,0,1,.86-2.6,3.23,3.23,0,0,1,2.48-.92,3.23,3.23,0,0,1,2.48.92,3.663,3.663,0,0,1,.86,2.6v7.28A3.663,3.663,0,0,1-.73-.76,3.23,3.23,0,0,1-3.21.16,3.23,3.23,0,0,1-5.69-.76,3.663,3.663,0,0,1-6.55-3.36ZM3.75-6V0H1.55V-14h2.2v6h2.5v-6H8.49V0H6.25V-6ZM9.47.02v-2a1.636,1.636,0,0,0,1.07-.25,1.789,1.789,0,0,0,.29-1.19L11.19-14h6.22V0H15.17V-12H13.25l-.24,8.46a4.267,4.267,0,0,1-.8,2.74,3.091,3.091,0,0,1-2.4.82ZM23.97-14,26.21,0H23.99l-.38-2.54h-2.7L20.53,0H18.51l2.24-14Zm-1.72,2.48L21.19-4.44h2.12ZM27.23,0V-14h1.96v8.86l.8-3.08L31.79-14h2.42V0H32.23V-9.86l-.9,3.44L29.49,0Zm4.52-17.12h1.34a2.182,2.182,0,0,1-.6,1.63,2.38,2.38,0,0,1-1.74.59,2.269,2.269,0,0,1-1.69-.58,2.376,2.376,0,0,1-.61-1.64h1.36a1.053,1.053,0,0,0,.26.73,1.022,1.022,0,0,0,.68.19,1.1,1.1,0,0,0,.72-.2A1,1,0,0,0,31.75-17.12ZM38.01-6V0h-2.2V-14h2.2v6h2.5v-6h2.24V0H40.51V-6Z" transform="translate(1074.877 3833.13)" fill="#2a2746"/></g></svg>