<svg xmlns="http://www.w3.org/2000/svg" width="70.796" height="211.31" viewBox="0 0 70.796 211.31"><g transform="translate(-1168.182 -3622)"><g transform="translate(1168.182 3747.563)"><g transform="translate(0 4.129)"><path d="M389.47,505.262c-3.548-.057-7.1-.1-10.645-.176q-3.5-.077-6.987-.244a87.042,87.042,0,0,1-9.555-.841,8.744,8.744,0,0,1-7.326-5.844,18.292,18.292,0,0,1-.811-3.723,100.286,100.286,0,0,1-.823-16.925c.076-3,.31-5.994.552-8.984a23.549,23.549,0,0,1,.957-5.394,8.62,8.62,0,0,1,6.46-6.049,33.117,33.117,0,0,1,5.509-.71c8.241-.608,16.5-.731,24.753-.663,4.522.037,9.044.171,13.562.353,2.743.11,5.482.358,8.216.613a13.347,13.347,0,0,1,4.161.912,8.721,8.721,0,0,1,5.239,6.332,51.983,51.983,0,0,1,1.059,8.015c.27,3.634.332,7.274.245,10.912-.066,2.755-.275,5.508-.457,8.259a37.3,37.3,0,0,1-.843,5.909,8.509,8.509,0,0,1-5.959,6.611,19.441,19.441,0,0,1-4.059.72c-7.591.738-15.211.79-22.829.879-.139,0-.278,0-.417,0Zm-7.133-14.588,17.026-9.8a.479.479,0,0,0,0-.83l-17.026-9.8a.478.478,0,0,0-.717.414V490.26A.478.478,0,0,0,382.337,490.674Z" transform="translate(-353.276 -455.691)" fill="#2a2746"/></g></g><g transform="translate(1188.992 3674.649)"><path d="M436.152,312.792c2.691.8,4.384,1.969,4.384,3.267,0,2.421-5.888,4.384-13.152,4.384a37.61,37.61,0,0,1-4.384-.249" transform="translate(-409.848 -309.484)" fill="none" stroke="#2a2746" stroke-linecap="round" stroke-linejoin="round" stroke-width="1.5"/><path d="M409.384,318.151c-2.691-.8-4.384-1.969-4.384-3.267,0-2.421,5.888-4.384,13.152-4.384a37.607,37.607,0,0,1,4.384.249" transform="translate(-400.616 -308.308)" fill="none" stroke="#2a2746" stroke-linecap="round" stroke-linejoin="round" stroke-width="1.5"/><ellipse cx="17.536" cy="6.576" rx="17.536" ry="6.576" transform="translate(0 0)" stroke-width="1.5" stroke="#2a2746" stroke-linecap="round" stroke-linejoin="round" fill="none"/><path d="M422.3,329.58a41.892,41.892,0,0,1-8.768.88c-9.685,0-17.535-2.944-17.535-6.576V319.5" transform="translate(-396 -312.924)" fill="none" stroke="#2a2746" stroke-linecap="round" stroke-linejoin="round" stroke-width="1.5"/><path d="M463.384,319.5v4.384c0,1.668-1.656,3.19-4.384,4.35" transform="translate(-428.313 -312.924)" fill="none" stroke="#2a2746" stroke-linecap="round" stroke-linejoin="round" stroke-width="1.5"/><path d="M422.3,338.58a41.886,41.886,0,0,1-8.768.88c-9.685,0-17.535-2.944-17.535-6.576V328.5" transform="translate(-396 -317.54)" fill="none" stroke="#2a2746" stroke-linecap="round" stroke-linejoin="round" stroke-width="1.5"/><path d="M463.384,328.5v4.384c0,1.668-1.656,3.191-4.384,4.35" transform="translate(-428.313 -317.54)" fill="none" stroke="#2a2746" stroke-linecap="round" stroke-linejoin="round" stroke-width="1.5"/><path d="M422.3,347.58a41.884,41.884,0,0,1-8.768.88c-9.685,0-17.535-2.944-17.535-6.576V337.5" transform="translate(-396 -322.156)" fill="none" stroke="#2a2746" stroke-linecap="round" stroke-linejoin="round" stroke-width="1.5"/><path d="M463.384,337.5v4.384c0,1.668-1.656,3.19-4.384,4.35" transform="translate(-428.313 -322.156)" fill="none" stroke="#2a2746" stroke-linecap="round" stroke-linejoin="round" stroke-width="1.5"/><path d="M422.3,356.58a41.886,41.886,0,0,1-8.768.88c-9.685,0-17.535-2.944-17.535-6.576V346.5" transform="translate(-396 -326.773)" fill="none" stroke="#2a2746" stroke-linecap="round" stroke-linejoin="round" stroke-width="1.5"/><path d="M463.384,346.5v4.384c0,1.668-1.656,3.191-4.384,4.35" transform="translate(-428.313 -326.773)" fill="none" stroke="#2a2746" stroke-linecap="round" stroke-linejoin="round" stroke-width="1.5"/><path d="M422.3,365.58a41.888,41.888,0,0,1-8.768.88c-9.685,0-17.535-2.944-17.535-6.576V355.5" transform="translate(-396 -331.389)" fill="none" stroke="#2a2746" stroke-linecap="round" stroke-linejoin="round" stroke-width="1.5"/><path d="M463.384,355.5v4.384c0,1.668-1.656,3.19-4.384,4.35" transform="translate(-428.313 -331.389)" fill="none" stroke="#2a2746" stroke-linecap="round" stroke-linejoin="round" stroke-width="1.5"/><path d="M422.3,374.58a41.89,41.89,0,0,1-8.768.88c-9.685,0-17.535-2.944-17.535-6.576V364.5" transform="translate(-396 -336.005)" fill="none" stroke="#2a2746" stroke-linecap="round" stroke-linejoin="round" stroke-width="1.5"/><path d="M463.384,364.5v4.384c0,1.668-1.656,3.19-4.384,4.35" transform="translate(-428.313 -336.005)" fill="none" stroke="#2a2746" stroke-linecap="round" stroke-linejoin="round" stroke-width="1.5"/><path d="M422.3,383.58a41.888,41.888,0,0,1-8.768.88c-9.685,0-17.535-2.944-17.535-6.576V373.5" transform="translate(-396 -340.621)" fill="none" stroke="#2a2746" stroke-linecap="round" stroke-linejoin="round" stroke-width="1.5"/><path d="M463.384,373.5v4.384c0,1.668-1.656,3.19-4.384,4.35" transform="translate(-428.313 -340.621)" fill="none" stroke="#2a2746" stroke-linecap="round" stroke-linejoin="round" stroke-width="1.5"/><path d="M422.3,392.58a41.892,41.892,0,0,1-8.768.88c-9.685,0-17.535-2.944-17.535-6.576V382.5" transform="translate(-396 -345.237)" fill="none" stroke="#2a2746" stroke-linecap="round" stroke-linejoin="round" stroke-width="1.5"/><path d="M463.384,382.5v4.384c0,1.668-1.656,3.19-4.384,4.35" transform="translate(-428.313 -345.237)" fill="none" stroke="#2a2746" stroke-linecap="round" stroke-linejoin="round" stroke-width="1.5"/><path d="M422.3,401.58a41.886,41.886,0,0,1-8.768.88c-9.685,0-17.535-2.944-17.535-6.576V391.5" transform="translate(-396 -349.853)" fill="none" stroke="#2a2746" stroke-linecap="round" stroke-linejoin="round" stroke-width="1.5"/><path d="M463.384,391.5v4.384c0,1.668-1.656,3.19-4.384,4.35" transform="translate(-428.313 -349.853)" fill="none" stroke="#2a2746" stroke-linecap="round" stroke-linejoin="round" stroke-width="1.5"/><path d="M431.071,400.5v4.384c0,3.632-7.851,6.576-17.536,6.576S396,408.516,396,404.884V400.5" transform="translate(-396 -354.469)" fill="none" stroke="#2a2746" stroke-linecap="round" stroke-linejoin="round" stroke-width="1.5"/></g><g transform="translate(1186.502 3624)"><path d="M452.327,222.629c-1.064,0-1.733.578-1.733,2.1v11.488c0,1.519.669,2.1,1.733,2.1s1.732-.578,1.732-2.1V224.726C454.059,223.207,453.39,222.629,452.327,222.629Z" transform="translate(-421.511 -217.59)" fill="#2a2746"/><path d="M427.62,238.311c1.063,0,1.732-.578,1.732-2.1V224.726c0-1.519-.669-2.1-1.732-2.1s-1.733.578-1.733,2.1v11.488C425.887,237.733,426.556,238.311,427.62,238.311Z" transform="translate(-408.839 -217.59)" fill="#2a2746"/><path d="M420.25,265.4c-.341,0-.555.185-.555.673v3.683c0,.487.214.672.555.672s.556-.185.556-.672v-3.683C420.806,265.586,420.592,265.4,420.25,265.4Z" transform="translate(-405.663 -237.528)" fill="#2a2746"/><path d="M430.249,206.178H391.578a.69.69,0,0,0-.691.69v39.288a.69.69,0,0,0,.69.69h14.47a.692.692,0,0,1,.488.2l3.7,3.7a.691.691,0,0,0,.976,0l3.7-3.7a.693.693,0,0,1,.489-.2h14.84a.69.69,0,0,0,.69-.69V206.868A.69.69,0,0,0,430.249,206.178Zm-25.656,9.349c0-3.4,1.793-5.349,5.076-5.349s5.075,1.945,5.075,5.349v11.063c0,3.4-1.793,5.349-5.075,5.349s-5.076-1.945-5.076-5.349Zm-7.111,15.823V215.466h-2.238a.345.345,0,0,1-.345-.345v-1.689a.349.349,0,0,1,.338-.344,3.164,3.164,0,0,0,3.256-2.441.347.347,0,0,1,.323-.226h1.663a.345.345,0,0,1,.345.345V231.35a.345.345,0,0,1-.345.345h-2.652A.345.345,0,0,1,397.481,231.35Zm5.967,10.626h-1.1l-1.043-2.719-.331.624v2.1H399.9v-6.821h1.072v2.972l1.4-2.972h1.072l-1.49,3.04Zm3.653-1.637a1.629,1.629,0,1,1-3.254,0v-3.547a1.629,1.629,0,1,1,3.254,0Zm4.072,1.637h-1.092v-5.847h-1.218v5.847h-1.072v-6.821h3.381Zm3.7-5.847h-1.851v1.9H414.5V239h-1.471v2h1.851v.975h-2.923v-6.821h2.923Zm3.585,0h-1.851v1.9h1.472V239h-1.472v2h1.851v.975h-2.923v-6.821h2.923Zm4.209,5.847h-1.1l-1.043-2.719-.331.624v2.1h-1.072v-6.821h1.072v2.972l1.4-2.972h1.072l-1.491,3.04Zm4.108-15.386c0,3.4-1.793,5.349-5.075,5.349s-5.076-1.945-5.076-5.349V215.527c0-3.4,1.793-5.349,5.076-5.349s5.075,1.945,5.075,5.349Z" transform="translate(-390.887 -208.178)" fill="#2a2746"/></g><path d="M-25.72,0h2.2V-4.64L-20.74-14h-2.1l-1.68,6.38L-26.2-14h-2.3l2.78,9.36Zm7.58-10.78c0-1,.44-1.38,1.14-1.38s1.14.38,1.14,1.38v7.56c0,1-.44,1.38-1.14,1.38s-1.14-.38-1.14-1.38Zm-2.2,7.42c0,2.24,1.18,3.52,3.34,3.52s3.34-1.28,3.34-3.52v-7.28c0-2.24-1.18-3.52-3.34-3.52s-3.34,1.28-3.34,3.52Zm8-10.64V-3.34c0,2.24,1.12,3.52,3.28,3.52S-5.78-1.1-5.78-3.34V-14H-7.86V-3.2c0,1-.44,1.36-1.14,1.36s-1.14-.36-1.14-1.36V-14Zm10.52,2H.48V0h2.2V-12h2.3v-2h-6.8Zm7.66-2V-3.34C5.84-1.1,6.96.18,9.12.18S12.4-1.1,12.4-3.34V-14H10.32V-3.2c0,1-.44,1.36-1.14,1.36S8.04-2.2,8.04-3.2V-14Zm11.38,0H13.9V0h3.46c2.2,0,3.34-1.16,3.34-3.32V-4.46c0-1.48-.46-2.54-1.64-3,.98-.46,1.42-1.38,1.42-2.82v-.5C20.48-12.94,19.5-14,17.22-14Zm-.14,7.7c1,0,1.42.4,1.42,1.7v1.22C18.5-2.34,18.1-2,17.36-2H16.1V-6.3Zm.08-5.7c.78,0,1.12.44,1.12,1.44v.78c0,1.12-.5,1.48-1.32,1.48H16.1V-12Zm7.06,0h3.8v-2h-6V0h6V-2h-3.8V-6.1h3.02v-2H24.22Z" transform="translate(1203.877 3833.13)" fill="#2a2746"/></g></svg>