<svg xmlns="http://www.w3.org/2000/svg" width="275.38" height="103.88" viewBox="0 0 275.38 103.88"><g transform="translate(-488.24 -550)"><g transform="translate(26 14)"><g transform="translate(546.678 536.5)"><path d="M1027.739,189.986l2.557-14.568a2.383,2.383,0,0,0-2.434-2.725h0a2.42,2.42,0,0,0-2.459,2.146l-1.333,15.148Z" transform="translate(-1008.846 -156.569)" fill="none" stroke="#fffdec" stroke-miterlimit="10" stroke-width="1"/><path d="M1017.794,189.986V175.034a2.406,2.406,0,0,0-2.467-2.341h-.062a2.394,2.394,0,0,0-2.46,2.536l1.3,14.758Z" transform="translate(-1006.262 -156.569)" fill="none" stroke="#fffdec" stroke-miterlimit="10" stroke-width="1"/><path d="M1021.811,172.693h-.062a2.407,2.407,0,0,0-2.468,2.341v14.953h3.69l1.3-14.758A2.4,2.4,0,0,0,1021.811,172.693Z" transform="translate(-1007.749 -156.569)" fill="none" stroke="#fffdec" stroke-miterlimit="10" stroke-width="1"/><path d="M1008.839,172.693h0a2.383,2.383,0,0,0-2.434,2.725l2.557,14.568h3.669l-1.333-15.148A2.42,2.42,0,0,0,1008.839,172.693Z" transform="translate(-1004.789 -156.569)" fill="none" stroke="#fffdec" stroke-miterlimit="10" stroke-width="1"/><line x1="0.634" y1="3.509" transform="translate(3.67 18.507)" fill="none" stroke="#fffdec" stroke-miterlimit="10" stroke-width="1"/><line x1="0.551" y1="3.217" transform="translate(5.226 26.783)" fill="none" stroke="#fffdec" stroke-miterlimit="10" stroke-width="1"/><line y1="1.797" x2="0.123" transform="translate(14.38 18.507)" fill="none" stroke="#fffdec" stroke-miterlimit="10" stroke-width="1"/><line y1="7.847" x2="0.535" transform="translate(13.707 22.328)" fill="none" stroke="#fffdec" stroke-miterlimit="10" stroke-width="1"/><path d="M1026.307,153.219a1.317,1.317,0,0,0-.192.019,1.129,1.129,0,0,0,.033-.262,1.269,1.269,0,0,0-2.535,0,1.153,1.153,0,0,0,.258.72,1.2,1.2,0,0,0-.735,1.088,1.236,1.236,0,0,0,1.268,1.2,1.272,1.272,0,0,0,1.11-.634,1.3,1.3,0,0,0,.795.272,1.2,1.2,0,1,0,0-2.4Z" transform="translate(-1008.632 -151.773)" fill="none" stroke="#fffdec" stroke-miterlimit="10" stroke-width="1"/><path d="M1004.854,161.575a1.355,1.355,0,0,0,.168.091,1.243,1.243,0,0,0-.187.2,1.164,1.164,0,0,0,.3,1.676,1.312,1.312,0,0,0,1.767-.286,1.152,1.152,0,0,0,.228-.729,1.3,1.3,0,0,0,1.263-.485,1.164,1.164,0,0,0-.3-1.676,1.32,1.32,0,0,0-1.292-.091,1.189,1.189,0,0,0-.482-.658,1.312,1.312,0,0,0-1.767.287A1.163,1.163,0,0,0,1004.854,161.575Z" transform="translate(-1004.319 -153.52)" fill="none" stroke="#fffdec" stroke-miterlimit="10" stroke-width="1"/><path d="M1033.773,158.625a1.236,1.236,0,0,0-1.268-1.2,1.285,1.285,0,0,0-1.006.479,1.315,1.315,0,0,0-.483-.092,1.236,1.236,0,0,0-1.267,1.2,1.131,1.131,0,0,0,.022.213,1.169,1.169,0,0,0-.408.879,1.236,1.236,0,0,0,1.268,1.2A1.288,1.288,0,0,1,1032,161.2a1.236,1.236,0,0,0,1.267-1.2,1.128,1.128,0,0,0-.067-.368A1.186,1.186,0,0,0,1033.773,158.625Z" transform="translate(-1010.06 -153.068)" fill="none" stroke="#fffdec" stroke-miterlimit="10" stroke-width="1"/><path d="M1025.931,170.2a1.236,1.236,0,0,0-1.267-1.2,1.285,1.285,0,0,0-1.006.479,1.321,1.321,0,0,0-.483-.092,1.237,1.237,0,0,0-1.268,1.2" transform="translate(-1008.351 -155.723)" fill="none" stroke="#fffdec" stroke-miterlimit="10" stroke-width="1"/><path d="M1021.148,167.434a1.442,1.442,0,0,0-.744-.7,1.538,1.538,0,0,0-.95-.076,1.444,1.444,0,0,0-.563-.428,1.509,1.509,0,0,0-1.95.709,1.337,1.337,0,0,0-.113.422,1.466,1.466,0,0,0-1.108.811,1.349,1.349,0,0,0-.128.526" transform="translate(-1006.903 -155.059)" fill="none" stroke="#fffdec" stroke-miterlimit="10" stroke-width="1"/><path d="M1014.412,155.2a1.236,1.236,0,0,0-1.267-1.2,1.285,1.285,0,0,0-1.006.479,1.319,1.319,0,0,0-.483-.092,1.236,1.236,0,0,0-1.267,1.2,1.131,1.131,0,0,0,.022.213,1.166,1.166,0,0,0-.408.879,1.236,1.236,0,0,0,1.268,1.2,1.3,1.3,0,0,0,.772-.256,1.313,1.313,0,0,0,.6.149,1.236,1.236,0,0,0,1.267-1.2,1.124,1.124,0,0,0-.067-.368A1.187,1.187,0,0,0,1014.412,155.2Z" transform="translate(-1005.622 -152.282)" fill="none" stroke="#fffdec" stroke-miterlimit="10" stroke-width="1"/><g transform="translate(2.008 6.778)"><path d="M1025.425,170.274a1.236,1.236,0,0,0,1.267-1.2,1.168,1.168,0,0,0-.4-.871,1.151,1.151,0,0,0,.226-.684,1.236,1.236,0,0,0-1.267-1.2,1.32,1.32,0,0,0-.433.077,1.387,1.387,0,0,0,.515-.963,1.236,1.236,0,0,0-1.267-1.2,1.3,1.3,0,0,0-.871.332,1.258,1.258,0,0,0-1.2-.823,1.3,1.3,0,0,0-.846.313,1.256,1.256,0,0,0-1.034-.747.927.927,0,0,0-.02-.431,1.2,1.2,0,0,0,.76-1.1,1.236,1.236,0,0,0-1.267-1.2,1.287,1.287,0,0,0-1.033.509,1.3,1.3,0,0,0-.684-.193,1.283,1.283,0,0,1-2.408-.143,1.237,1.237,0,0,0-1.268,1.2,1.152,1.152,0,0,0,.272.736,1.373,1.373,0,0,0-.272-.029,1.236,1.236,0,0,0-1.267,1.2,1.129,1.129,0,0,0,.068.372,1.256,1.256,0,0,0-.3.205,1.3,1.3,0,0,0-.892-.349,1.284,1.284,0,0,0-1.06.545,1.3,1.3,0,0,0-.737-.227,1.236,1.236,0,0,0-1.268,1.2,1.119,1.119,0,0,1-.244,1.2,1.183,1.183,0,0,0,.512.967l-.2.392a1.31,1.31,0,0,0-.624-.156,1.236,1.236,0,0,0-1.267,1.2,1.2,1.2,0,0,0,.682,1.067" transform="translate(-1006.924 -160.567)" fill="none" stroke="#fffdec" stroke-miterlimit="2" stroke-width="1"/></g></g><g transform="translate(586.161 536.837)"><path d="M3273.7-424.237h17.333V-406.8H3273.7" transform="translate(-3273.702 424.237)" fill="none" stroke="#fffdec" stroke-miterlimit="10" stroke-width="1"/><path d="M3286.287-407.675l-5-2.885v5.77Z" transform="translate(-3278.546 415.508)" fill="none" stroke="#fffdec" stroke-miterlimit="10" stroke-width="1"/><path d="M3273.7-418.314h15.191v11.045H3273.7" transform="translate(-3273.703 420.457)" fill="none" stroke="#fffdec" stroke-miterlimit="10" stroke-width="1"/><line x2="10.766" transform="translate(4.371 15.239)" fill="none" stroke="#fffdec" stroke-miterlimit="10" stroke-width="1"/><line x2="1.211" transform="translate(0.001 15.239)" fill="none" stroke="#fffdec" stroke-miterlimit="10" stroke-width="1"/><line y2="1.612" transform="translate(2.791 14.434)" fill="none" stroke="#fffdec" stroke-miterlimit="10" stroke-width="1"/><path d="M3273.884-375.952h20.652v2.6h-20.652" transform="translate(-3273.819 393.421)" fill="none" stroke="#fffdec" stroke-miterlimit="10" stroke-width="1"/><path d="M3273.722-368.777h24.327v2.533h-24.331" transform="translate(-3273.712 388.842)" fill="none" stroke="#fffdec" stroke-miterlimit="10" stroke-width="1"/><path d="M3323.969-350.957v-10.82H3327v10.82" transform="translate(-3306.278 384.375)" fill="none" stroke="#fffdec" stroke-miterlimit="10" stroke-width="1"/><line x2="7.168" transform="translate(1.809 18.146)" fill="none" stroke="#fffdec" stroke-miterlimit="10" stroke-width="1"/></g><g transform="translate(629.503 536.837)"><line y2="4.683" transform="translate(24.109 28.734)" fill="none" stroke="#fffdec" stroke-miterlimit="10" stroke-width="1"/><path d="M3347.137-332.245h21.429v17.379h-13.2" transform="translate(-3347.137 332.245)" fill="none" stroke="#fffdec" stroke-miterlimit="10" stroke-width="1"/><g transform="translate(0.448 6.502)"><rect width="7.779" height="19.815" fill="none" stroke="#fffdec" stroke-miterlimit="10" stroke-width="1"/><line x2="2.047" transform="translate(1.433 2.26)" fill="none" stroke="#fffdec" stroke-miterlimit="10" stroke-width="1"/><g transform="translate(1.433 6.335)"><line x2="0.896" fill="none" stroke="#fffdec" stroke-miterlimit="10" stroke-width="1"/><line x2="0.896" transform="translate(0 2.271)" fill="none" stroke="#fffdec" stroke-miterlimit="10" stroke-width="1"/><line x2="0.896" transform="translate(0 4.542)" fill="none" stroke="#fffdec" stroke-miterlimit="10" stroke-width="1"/><line x2="0.896" transform="translate(2.008)" fill="none" stroke="#fffdec" stroke-miterlimit="10" stroke-width="1"/><line x2="0.896" transform="translate(2.008 2.271)" fill="none" stroke="#fffdec" stroke-miterlimit="10" stroke-width="1"/><line x2="0.896" transform="translate(2.008 4.542)" fill="none" stroke="#fffdec" stroke-miterlimit="10" stroke-width="1"/></g><g transform="translate(5.45 6.335)"><line x2="0.896" fill="none" stroke="#fffdec" stroke-miterlimit="10" stroke-width="1"/><line x2="0.896" transform="translate(0 2.271)" fill="none" stroke="#fffdec" stroke-miterlimit="10" stroke-width="1"/><line x2="0.896" transform="translate(0 4.542)" fill="none" stroke="#fffdec" stroke-miterlimit="10" stroke-width="1"/></g><line y2="3.022" transform="translate(3.889 13.386)" fill="none" stroke="#fffdec" stroke-miterlimit="10" stroke-width="1"/><line x1="3.022" transform="translate(2.391 14.897)" fill="none" stroke="#fffdec" stroke-miterlimit="10" stroke-width="1"/></g><line x1="13.202" transform="translate(8.227 15.229)" fill="none" stroke="#fffdec" stroke-miterlimit="10" stroke-width="1"/><line x1="21.429" transform="translate(0 2.15)" fill="none" stroke="#fffdec" stroke-miterlimit="10" stroke-width="1"/><line y2="2.857" transform="translate(10.714 17.379)" fill="none" stroke="#fffdec" stroke-miterlimit="10" stroke-width="1"/><line x1="4.875" transform="translate(8.227 20.243)" fill="none" stroke="#fffdec" stroke-miterlimit="10" stroke-width="1"/><line x1="4.875" transform="translate(8.227 23.281)" fill="none" stroke="#fffdec" stroke-miterlimit="10" stroke-width="1"/><line x1="4.875" transform="translate(8.227 30.884)" fill="none" stroke="#fffdec" stroke-miterlimit="10" stroke-width="1"/><line x1="15.883" transform="translate(8.227 21.131)" fill="none" stroke="#fffdec" stroke-miterlimit="10" stroke-width="1"/><path d="M3347.138-265.662h24.11v-7.6h-15.883" transform="translate(-3347.138 294.396)" fill="none" stroke="#fffdec" stroke-miterlimit="10" stroke-width="1"/></g><g transform="translate(574.343 551.022)"><line y1="5" transform="translate(2.657 -0.022)" fill="none" stroke="#fffeec" stroke-width="1"/><line y1="5.27" transform="translate(0 2.581) rotate(-90)" fill="none" stroke="#fffeec" stroke-width="1"/></g><g transform="translate(617.343 551.022)"><line y1="5" transform="translate(2.657 -0.022)" fill="none" stroke="#fffeec" stroke-width="1"/><line y1="5.27" transform="translate(0 2.581) rotate(-90)" fill="none" stroke="#fffeec" stroke-width="1"/></g></g><path d="M-132.74,0h2.26l-3.06-7.76,3.06-6.24h-2.2l-2.88,6.1V-14h-2.2V0h2.2V-4.3l.68-1.28Zm7.16-6.42.9-3.44V0h1.98V-14h-2.42l-1.8,5.78-.8,3.08V-14h-1.96V0h2.26Zm6.44.42h2.5V0h2.24V-14h-2.24v6h-2.5v-6h-2.2V0h2.2Zm8.16-4.78c0-1,.44-1.38,1.14-1.38s1.14.38,1.14,1.38v7.56c0,1-.44,1.38-1.14,1.38s-1.14-.38-1.14-1.38Zm-2.2,7.42c0,2.24,1.18,3.52,3.34,3.52s3.34-1.28,3.34-3.52v-7.28c0-2.24-1.18-3.52-3.34-3.52s-3.34,1.28-3.34,3.52Zm7.26-8.64h2.3V0h2.2V-12h2.3v-2h-6.8Zm9.76,0h3.8v-2h-6V0h6V-2h-3.8V-6.1h3.02v-2h-3.02Zm9.84-2h-3.22L-91.78,0h2.02l.38-2.54h2.7L-86.3,0h2.22Zm-1.72,2.48,1.06,7.08H-89.1ZM-83.9-12h2.3V0h2.2V-12h2.3v-2h-6.8Zm10.8-2h-3.24V0h2.2V-5.26h1.04c2.2,0,3.28-1.22,3.28-3.46v-1.82C-69.82-12.78-70.9-14-73.1-14Zm0,2c.7,0,1.08.32,1.08,1.32v2.1c0,1-.38,1.32-1.08,1.32h-1.04V-12Zm7.34,12c2.2,0,3.28-1.22,3.28-3.46V-5.28c0-2.24-1.08-3.46-3.28-3.46H-66.8V-14H-69V0ZM-66.8-2V-6.74h1.04c.7,0,1.08.32,1.08,1.32v2.1c0,1-.38,1.32-1.08,1.32Zm7.78,2V-14h-2.2V0Zm8.24-10.48h-1.56v2.7h-2.68v1.56h2.68v2.74h1.56V-6.22h2.68V-7.78h-2.68ZM-40-6.42l.9-3.44V0h1.98V-14h-2.42l-1.8,5.78-.8,3.08V-14H-44.1V0h2.26Zm6.44.42h2.5V0h2.24V-14h-2.24v6h-2.5v-6h-2.2V0h2.2Zm5.5-6h2.3V0h2.2V-12h2.3v-2h-6.8Zm9.76,0h3.8v-2h-6V0h6V-2h-3.8V-6.1h3.02v-2H-18.3Zm8.2-2h-3.24V0h2.2V-5.26h1.04c2.2,0,3.28-1.22,3.28-3.46v-1.82C-6.82-12.78-7.9-14-10.1-14Zm0,2c.7,0,1.08.32,1.08,1.32v2.1c0,1-.38,1.32-1.08,1.32h-1.04V-12Zm6.3,6h2.5V0H.94V-14H-1.3v6H-3.8v-6H-6V0h2.2Zm8.34-6h3.8v-2h-6V0h6V-2H4.54V-6.1H7.56v-2H4.54Zm4.32,0h2.3V0h2.2V-12h2.3v-2H8.86Zm14.4,1.52H21.7v2.7H19.02v1.56H21.7v2.74h1.56V-6.22h2.68V-7.78H23.26ZM29.3-12h2.3V0h2.2V-12h2.3v-2H29.3Zm10.88-2H36.86V0h3.46c2.2,0,3.34-1.16,3.34-3.32V-4.46c0-1.48-.46-2.54-1.64-3,.98-.46,1.42-1.38,1.42-2.82v-.5C43.44-12.94,42.46-14,40.18-14Zm-.14,7.7c1,0,1.42.4,1.42,1.7v1.22c0,1.04-.4,1.38-1.14,1.38H39.06V-6.3Zm.08-5.7c.78,0,1.12.44,1.12,1.44v.78c0,1.12-.5,1.48-1.32,1.48h-.86V-12ZM50.9-14c-2.2,0-3.08.82-3.08,3.06v7.88C47.82-.82,48.7,0,50.9,0h.68V-1.8h-.54c-.7,0-1.02-.26-1.02-1.26v-7.88c0-1,.32-1.26,1.02-1.26h.54V-14Zm3.62,3.22c0-1,.44-1.38,1.14-1.38s1.14.38,1.14,1.38v7.56c0,1-.44,1.38-1.14,1.38s-1.14-.38-1.14-1.38Zm-2.2,7.42c0,2.24,1.18,3.52,3.34,3.52S59-1.12,59-3.36v-7.28c0-2.24-1.18-3.52-3.34-3.52s-3.34,1.28-3.34,3.52ZM68.76,1.88V-1.96H67.8V-14H61.64l-.5,10.22a2.9,2.9,0,0,1-.54,1.82h-.86V1.88h2.14V0h4.7V1.88ZM63.7-12h1.86V-1.96H62.68a2.48,2.48,0,0,0,.62-1.86ZM73.88-6.42l.9-3.44V0h1.98V-14H74.34l-1.8,5.78-.8,3.08V-14H69.78V0h2.26ZM80.32-6h2.5V0h2.24V-14H82.82v6h-2.5v-6h-2.2V0h2.2Zm12.36-8H89.36V0h3.46c2.2,0,3.34-1.16,3.34-3.32V-4.46c0-1.48-.46-2.54-1.64-3,.98-.46,1.42-1.38,1.42-2.82v-.5C95.94-12.94,94.96-14,92.68-14Zm-.14,7.7c1,0,1.42.4,1.42,1.7v1.22c0,1.04-.4,1.38-1.14,1.38H91.56V-6.3Zm.08-5.7c.78,0,1.12.44,1.12,1.44v.78c0,1.12-.5,1.48-1.32,1.48h-.86V-12Zm7.9,12c2.2,0,3.28-1.22,3.28-3.46V-5.28c0-2.24-1.08-3.46-3.28-3.46H99.48V-14h-2.2V0ZM99.48-2V-6.74h1.04c.7,0,1.08.32,1.08,1.32v2.1c0,1-.38,1.32-1.08,1.32Zm7.78,2V-14h-2.2V0Zm6.7-14-1.7,5.16L110.6-14h-2.28l2.3,6.8L108.16,0h2.06l1.82-5.54L113.84,0h2.32L113.7-7.2,116-14Zm5.12,3.22c0-1,.44-1.38,1.14-1.38s1.14.38,1.14,1.38v7.56c0,1-.44,1.38-1.14,1.38s-1.14-.38-1.14-1.38Zm-2.2,7.42c0,2.24,1.18,3.52,3.34,3.52s3.34-1.28,3.34-3.52v-7.28c0-2.24-1.18-3.52-3.34-3.52s-3.34,1.28-3.34,3.52Zm16.44,5.24V-1.96h-.96V-14H126.2l-.5,10.22a2.9,2.9,0,0,1-.54,1.82h-.86V1.88h2.14V0h4.7V1.88ZM128.26-12h1.86V-1.96h-2.88a2.48,2.48,0,0,0,.62-1.86Zm5.6-2v1.8h.54c.7,0,1.02.26,1.02,1.26v7.88c0,1-.32,1.26-1.02,1.26h-.54V0h.68c2.2,0,3.08-.82,3.08-3.06v-7.88c0-2.24-.88-3.06-3.08-3.06Z" transform="translate(626 652)" fill="#fffcec" opacity="0.5"/><path d="M-21.5-3.175h5.3V0h2.7V-3.175h1.3v-2.5h-1.3V-17.5h-3l-5,11.825Zm2.525-2.5L-16.2-12.25v6.575ZM-1.3,0H1.525L-2.3-9.7l3.825-7.8h-2.75l-3.6,7.625V-17.5h-2.75V0h2.75V-5.375l.85-1.6ZM5.05-13.475c0-1.25.55-1.725,1.425-1.725S7.9-14.725,7.9-13.475v9.45C7.9-2.775,7.35-2.3,6.475-2.3S5.05-2.775,5.05-4.025ZM2.3-4.2C2.3-1.4,3.775.2,6.475.2S10.65-1.4,10.65-4.2v-9.1c0-2.8-1.475-4.4-4.175-4.4S2.3-16.1,2.3-13.3ZM14.925-15H18.05V0h2.8V-17.5H12.175V0h2.75Z" transform="translate(626 620)" fill="#fffcec" opacity="0.895"/></g></svg>