<?xml version="1.0" encoding="utf-8"?>
<!-- Generator: Adobe Illustrator 24.0.3, SVG Export Plug-In . SVG Version: 6.00 Build 0)  -->
<svg version="1.1" id="Слой_1" xmlns="http://www.w3.org/2000/svg" xmlns:xlink="http://www.w3.org/1999/xlink" x="0px" y="0px"
	 viewBox="0 0 8192 45" style="enable-background:new 0 0 8192 45;" xml:space="preserve">
<style type="text/css">
	.st0{fill:#C2C1C5;}
	.st1{font-family:'Helvetica-Bold';}
	.st2{font-size:7.6566px;}
	.st3{fill:none;}
</style>
<text transform="matrix(1 0 0 1 5770.207 18.3984)" class="st0 st1 st2">Экипаж</text>
<text transform="matrix(1 0 0 1 6294.5176 18.3984)" class="st0 st1 st2">Викинг</text>
<text transform="matrix(1 0 0 1 6956.6514 18.3984)" class="st0 st1 st2">Лёд</text>
<text transform="matrix(1 0 0 1 7474.0195 18.3984)" class="st0 st1 st2">Полицейский с Рублёвки. Новогодний беспредел</text>
<text transform="matrix(1 0 0 1 7872.126 18.3984)" class="st0 st1 st2">Последний богатырь</text>
<text transform="matrix(1 0 0 1 8047.0605 16.7578)" class="st0 st1 st2">T-34</text>
<text transform="matrix(1 0 0 1 8128.4111 16.7578)" class="st0 st1 st2">Движение вверх</text>
<text transform="matrix(1 0 0 1 79.936 18.3984)" class="st0 st1 st2">Ночная смена</text>
<text transform="matrix(1 0 0 1 183.5171 18.3984)" class="st0 st1 st2">Напарник</text>
<text transform="matrix(1 0 0 1 278.7227 18.3984)" class="st0 st1 st2">8 лучших свиданий</text>
<text transform="matrix(1 0 0 1 365.2627 18.3984)" class="st0 st1 st2">Подарок с характером</text>
<text transform="matrix(1 0 0 1 477.2417 18.3984)" class="st0 st1 st2">Трезвый водитель</text>
<text transform="matrix(1 0 0 1 559.707 18.3984)" class="st0 st1 st2">Корпоратив</text>
<path class="st0" d="M83.9,23.3L80.6,20h6.6L83.9,23.3z"/>
<path class="st0" d="M187,23.3l-3.3-3.3h6.6L187,23.3z"/>
<path class="st0" d="M282.2,23.3l-3.3-3.3h6.6L282.2,23.3z"/>
<path class="st0" d="M368.6,23.3l-3.3-3.3h6.6L368.6,23.3z"/>
<path class="st0" d="M480.2,23.3l-3.3-3.3h6.6L480.2,23.3z"/>
<path class="st0" d="M563.3,23.3L560,20h6.6L563.3,23.3z"/>
<text transform="matrix(1 0 0 1 798.4014 18.3984)" class="st0 st1 st2">Гуляй, Вася</text>
<text transform="matrix(1 0 0 1 882.9268 18.3984)" class="st0 st1 st2">В спорте только девушки</text>
<text transform="matrix(1 0 0 1 1013.3369 18.3984)" class="st0 st1 st2">Любовницы</text>
<text transform="matrix(1 0 0 1 1086.0488 18.3984)" class="st0 st1 st2">Супербобровы</text>
<text transform="matrix(1 0 0 1 1173.7793 18.3984)" class="st0 st1 st2">О чём говорят мужчины. Продолжение</text>
<path class="st0" d="M801.8,23.3l-3.3-3.3h6.6L801.8,23.3z"/>
<path class="st0" d="M887.1,23.3l-3.3-3.3h6.6L887.1,23.3z"/>
<path class="st0" d="M1016.7,23.3l-3.3-3.3h6.6L1016.7,23.3z"/>
<path class="st0" d="M1089.4,23.3l-3.3-3.3h6.6L1089.4,23.3z"/>
<path class="st0" d="M1176.9,23.3l-3.3-3.3h6.6L1176.9,23.3z"/>
<text transform="matrix(1 0 0 1 1354.3262 18.3984)" class="st0 st1 st2">Бабушка лёгкого поведения</text>
<text transform="matrix(1 0 0 1 1498.877 18.3984)" class="st0 st1 st2">Млиилард</text>
<text transform="matrix(1 0 0 1 1572.2773 18.3984)" class="st0 st1 st2">Призрак</text>
<text transform="matrix(1 0 0 1 1753.2266 18.3984)" class="st0 st1 st2">Духless 2</text>
<text transform="matrix(1 0 0 1 1834.5801 18.3984)" class="st0 st1 st2">Бабушка лёгкого повеления 2</text>
<path class="st0" d="M1502.9,23.3l-3.3-3.3h6.6L1502.9,23.3z"/>
<path class="st0" d="M1576.2,23.3l-3.3-3.3h6.6L1576.2,23.3z"/>
<path class="st0" d="M1756.4,23.3l-3.3-3.3h6.6L1756.4,23.3z"/>
<path class="st0" d="M1838.7,23.3l-3.3-3.3h6.6L1838.7,23.3z"/>
<text transform="matrix(1 0 0 1 1965.7422 18.3984)" class="st0 st1 st2">Гоголь. Вий</text>
<text transform="matrix(1 0 0 1 2096.9883 18.3984)" class="st0 st1 st2">Жених</text>
<text transform="matrix(1 0 0 1 2150.4727 18.3984)" class="st0 st1 st2">Громкая связь</text>
<text transform="matrix(1 0 0 1 2359.665 18.3984)" class="st0 st1 st2">Кухня в Париже</text>
<text transform="matrix(1 0 0 1 2490.709 18.3984)" class="st0 st1 st2">Горько! 2</text>
<path class="st0" d="M1969.4,23.3l-3.3-3.3h6.6L1969.4,23.3z"/>
<path class="st0" d="M2100.1,23.3l-3.3-3.3h6.6L2100.1,23.3z"/>
<path class="st0" d="M2153.1,23.3l-3.3-3.3h6.6L2153.1,23.3z"/>
<path class="st0" d="M2363.2,23.3l-3.3-3.3h6.6L2363.2,23.3z"/>
<path class="st0" d="M2494.4,23.3l-3.3-3.3h6.6L2494.4,23.3z"/>
<text transform="matrix(1 0 0 1 2622.1885 18.3984)" class="st0 st1 st2">Легенда о Коловрате</text>
<text transform="matrix(1 0 0 1 2884.8945 18.3984)" class="st0 st1 st2">Я худею</text>
<text transform="matrix(1 0 0 1 3015.3535 18.3984)" class="st0 st1 st2">Самый лучший день</text>
<text transform="matrix(1 0 0 1 3145.9775 18.3984)" class="st0 st1 st2">Ёлки 1914</text>
<text transform="matrix(1 0 0 1 3206.9482 18.3984)" class="st0 st1 st2">Ёлки последние</text>
<path class="st0" d="M2625.7,23.3l-3.3-3.3h6.6L2625.7,23.3z"/>
<path class="st0" d="M2888.2,23.3l-3.3-3.3h6.6L2888.2,23.3z"/>
<path class="st0" d="M3018.9,23.3l-3.3-3.3h6.6L3018.9,23.3z"/>
<path class="st0" d="M3210.8,23.3l-3.3-3.3h6.6L3210.8,23.3z"/>
<path class="st0" d="M3149.3,23.3L3146,20h6.6L3149.3,23.3z"/>
<text transform="matrix(1 0 0 1 3539.9414 18.3984)" class="st0 st1 st2">Ёлки 5</text>
<text transform="matrix(1 0 0 1 3409.292 18.3984)" class="st0 st1 st2">Салют-7</text>
<path class="st0" d="M3412.6,23.3l-3.3-3.3h6.6L3412.6,23.3z"/>
<path class="st0" d="M3543.4,23.3l-3.3-3.3h6.6L3543.4,23.3z"/>
<text transform="matrix(1 0 0 1 3933.958 18.3984)" class="st0 st1 st2">Тренер</text>
<text transform="matrix(1 0 0 1 4064.5723 18.3984)" class="st0 st1 st2">Ёлки новые</text>
<path class="st0" d="M3937.1,23.3l-3.3-3.3h6.6L3937.1,23.3z"/>
<path class="st0" d="M4067.8,23.3l-3.3-3.3h6.6L4067.8,23.3z"/>
<text transform="matrix(1 0 0 1 4589.5127 18.3984)" class="st0 st1 st2">Притяжение</text>
<path class="st0" d="M4592.9,23.3l-3.3-3.3h6.6L4592.9,23.3z"/>
<text transform="matrix(1 0 0 1 5123.7803 18.3984)" class="st0 st1 st2">Вий</text>
<g>
	<text transform="matrix(1 0 0 1 5783.3779 34.0713)" class="st0 st1 st2">2016</text>
	<text transform="matrix(1 0 0 1 6305.1191 34.0713)" class="st0 st1 st2">2016</text>
	<text transform="matrix(1 0 0 1 6954.2891 34.0713)" class="st0 st1 st2">2018</text>
	<text transform="matrix(1 0 0 1 7648.3037 34.0713)" class="st0 st1 st2">2018</text>
	<text transform="matrix(1 0 0 1 7935.9727 34.0713)" class="st0 st1 st2">2017</text>
	<text transform="matrix(1 0 0 1 8045.3525 32.4302)" class="st0 st1 st2">2019</text>
	<text transform="matrix(1 0 0 1 8174.9678 32.4302)" class="st0 st1 st2">2017</text>
	<text transform="matrix(1 0 0 1 116.0957 34.0713)" class="st0 st1 st2">2018</text>
	<text transform="matrix(1 0 0 1 203.9141 34.0713)" class="st0 st1 st2">2017</text>
	<text transform="matrix(1 0 0 1 335.7168 34.0713)" class="st0 st1 st2">2016</text>
	<text transform="matrix(1 0 0 1 435.2524 34.0713)" class="st0 st1 st2">2014</text>
	<text transform="matrix(1 0 0 1 531.5068 34.0713)" class="st0 st1 st2">2019</text>
	<text transform="matrix(1 0 0 1 588.9312 34.0713)" class="st0 st1 st2">2014</text>
	<text transform="matrix(1 0 0 1 827.3789 34.0713)" class="st0 st1 st2">2017</text>
	<text transform="matrix(1 0 0 1 965.1973 34.0713)" class="st0 st1 st2">2014</text>
	<text transform="matrix(1 0 0 1 1042.3105 34.0713)" class="st0 st1 st2">2019</text>
	<text transform="matrix(1 0 0 1 1126.5332 34.0713)" class="st0 st1 st2">2016</text>
	<text transform="matrix(1 0 0 1 1307.5566 34.0713)" class="st0 st1 st2">2018</text>
	<text transform="matrix(1 0 0 1 1447.0156 34.0713)" class="st0 st1 st2">2017</text>
	<text transform="matrix(1 0 0 1 1521.3945 34.0713)" class="st0 st1 st2">2019</text>
	<text transform="matrix(1 0 0 1 1587.5684 34.0713)" class="st0 st1 st2">2015</text>
	<text transform="matrix(1 0 0 1 1771.6387 34.0713)" class="st0 st1 st2">2015</text>
	<text transform="matrix(1 0 0 1 1933.7559 34.0713)" class="st0 st1 st2">2019</text>
	<text transform="matrix(1 0 0 1 1994.4609 34.0713)" class="st0 st1 st2">2018</text>
	<text transform="matrix(1 0 0 1 2105.4824 34.0713)" class="st0 st1 st2">2016</text>
	<text transform="matrix(1 0 0 1 2190.252 34.0713)" class="st0 st1 st2">2019</text>
	<text transform="matrix(1 0 0 1 2404.6357 34.0713)" class="st0 st1 st2">2014</text>
	<text transform="matrix(1 0 0 1 2510.1875 34.0713)" class="st0 st1 st2">2014</text>
	<text transform="matrix(1 0 0 1 2686.8359 34.0713)" class="st0 st1 st2">2017</text>
	<text transform="matrix(1 0 0 1 2899.5801 34.0713)" class="st0 st1 st2">2018</text>
	<text transform="matrix(1 0 0 1 3076.2285 34.0713)" class="st0 st1 st2">2015</text>
	<text transform="matrix(1 0 0 1 3167.5605 34.0713)" class="st0 st1 st2">2014</text>
	<text transform="matrix(1 0 0 1 3252.876 34.0713)" class="st0 st1 st2">2018</text>
	<text transform="matrix(1 0 0 1 3548.748 34.0713)" class="st0 st1 st2">2016</text>
	<text transform="matrix(1 0 0 1 3424.0557 34.0713)" class="st0 st1 st2">2017</text>
	<text transform="matrix(1 0 0 1 3944.1562 34.0713)" class="st0 st1 st2">2018</text>
	<text transform="matrix(1 0 0 1 4093.46 34.0713)" class="st0 st1 st2">2017</text>
	<text transform="matrix(1 0 0 1 4620.123 34.0713)" class="st0 st1 st2">2017</text>
	<text transform="matrix(1 0 0 1 5121.6299 34.0713)" class="st0 st1 st2">2014</text>
</g>
<path class="st0" d="M5117.9,23.3l-3.3-3.3h6.6L5117.9,23.3z"/>
<path class="st0" d="M5773.6,23.3l-3.3-3.3h6.6L5773.6,23.3z"/>
<path class="st0" d="M6298.1,23.3l-3.3-3.3h6.6L6298.1,23.3z"/>
<path class="st0" d="M6953.3,23.3L6950,20h6.6L6953.3,23.3z"/>
<path class="st0" d="M7477.8,23.3l-3.3-3.3h6.6L7477.8,23.3z"/>
<path class="st0" d="M7875.9,23.3l-3.3-3.3h6.6L7875.9,23.3z"/>
<path class="st0" d="M8042.1,23.3l-3.3-3.3h6.6L8042.1,23.3z"/>
<path class="st0" d="M8131.8,23.3l-3.3-3.3h6.6L8131.8,23.3z"/>
<rect x="0" y="14" class="st3" width="77.3" height="9.3"/>
<path class="st0" d="M801.8,23.3l-3.3-3.3h6.6L801.8,23.3z"/>
<path class="st0" d="M887.1,23.3l-3.3-3.3h6.6L887.1,23.3z"/>
<path class="st0" d="M1016.7,23.3l-3.3-3.3h6.6L1016.7,23.3z"/>
<path class="st0" d="M1089.4,23.3l-3.3-3.3h6.6L1089.4,23.3z"/>
<path class="st0" d="M1176.9,23.3l-3.3-3.3h6.6L1176.9,23.3z"/>
<path class="st0" d="M1502.9,23.3l-3.3-3.3h6.6L1502.9,23.3z"/>
<path class="st0" d="M1576.2,23.3l-3.3-3.3h6.6L1576.2,23.3z"/>
<path class="st0" d="M1756.4,23.3l-3.3-3.3h6.6L1756.4,23.3z"/>
<path class="st0" d="M1838.7,23.3l-3.3-3.3h6.6L1838.7,23.3z"/>
<path class="st0" d="M1969.4,23.3l-3.3-3.3h6.6L1969.4,23.3z"/>
<path class="st0" d="M2100.1,23.3l-3.3-3.3h6.6L2100.1,23.3z"/>
<path class="st0" d="M2153.1,23.3l-3.3-3.3h6.6L2153.1,23.3z"/>
<rect x="0" y="14" class="st3" width="77.3" height="9.3"/>
</svg>
