<svg xmlns="http://www.w3.org/2000/svg" width="3929.36" height="49.28" viewBox="0 0 3929.36 49.28"><g transform="translate(3017.2 -3330.88) rotate(-90)"><path d="M5.82,0H8.08L5.02-7.76,8.08-14H5.88L3-7.9V-14H.8V0H3V-4.3l.68-1.28Zm8.14-14H10.74L8.5,0h2.02l.38-2.54h2.7L13.98,0H16.2Zm-1.72,2.48L13.3-4.44H11.18ZM22.24,0H24.5L21.44-7.76,24.5-14H22.3L19.42-7.9V-14h-2.2V0h2.2V-4.3l.68-1.28Zm8.2,0a4.306,4.306,0,0,0,.2-1.72v-2.2c0-1.3.44-1.78,1.44-1.78h.76V0h2.2V-14H31.72c-2.28,0-3.26,1.06-3.26,3.22v1.1A2.791,2.791,0,0,0,29.9-6.84c-1.1.46-1.46,1.52-1.46,2.98V-1.7A4.123,4.123,0,0,1,28.2,0Zm2.4-12v4.3h-.86c-.82,0-1.32-.36-1.32-1.48v-1.38c0-1,.34-1.44,1.12-1.44Zm11.2,6.78v2c0,1-.44,1.36-1.14,1.36s-1.14-.36-1.14-1.36v-7.56c0-1,.44-1.38,1.14-1.38s1.14.38,1.14,1.38v1.5h2.08v-1.36c0-2.24-1.12-3.52-3.28-3.52s-3.28,1.28-3.28,3.52v7.28c0,2.24,1.12,3.52,3.28,3.52s3.28-1.28,3.28-3.52V-5.22ZM46.82-12h2.3V0h2.2V-12h2.3v-2h-6.8Zm12.64-2H56.24L54,0h2.02l.38-2.54h2.7L59.48,0H61.7Zm-1.72,2.48L58.8-4.44H56.68ZM62.1.02h.34c2.2,0,3.12-1,3.2-3.56L65.88-12H67.8V0h2.24V-14H63.82L63.46-3.42c-.04,1.3-.36,1.44-1.36,1.44ZM78.06-14H74.82V0h2.2V-5.26h1.04c2.2,0,3.28-1.22,3.28-3.46v-1.82C81.34-12.78,80.26-14,78.06-14Zm0,2c.7,0,1.08.32,1.08,1.32v2.1c0,1-.38,1.32-1.08,1.32H77.02V-12ZM89.6-14H87.3l-1,4.8-.52,3.26L85.1-9.22,83.9-14H81.72L84.76-3.2l-.02.12c-.18,1.02-.82,1.22-1.94,1.14V.02c3.06.2,3.92-1.06,4.44-3.58Zm5.22,8.78v2c0,1-.44,1.36-1.14,1.36s-1.14-.36-1.14-1.36v-7.56c0-1,.44-1.38,1.14-1.38s1.14.38,1.14,1.38v1.5H96.9v-1.36c0-2.24-1.12-3.52-3.28-3.52s-3.28,1.28-3.28,3.52v7.28c0,2.24,1.12,3.52,3.28,3.52S96.9-1.12,96.9-3.36V-5.22Zm7.72,0v2c0,1-.44,1.36-1.14,1.36s-1.14-.36-1.14-1.36v-7.56c0-1,.44-1.38,1.14-1.38s1.14.38,1.14,1.38v1.5h2.08v-1.36c0-2.24-1.12-3.52-3.28-3.52s-3.28,1.28-3.28,3.52v7.28c0,2.24,1.12,3.52,3.28,3.52s3.28-1.28,3.28-3.52V-5.22ZM110.98,0h2.26l-3.06-7.76L113.24-14h-2.2l-2.88,6.1V-14h-2.2V0h2.2V-4.3l.68-1.28Zm7.36-6.42.9-3.44V0h1.98V-14H118.8L117-8.22l-.8,3.08V-14h-1.96V0h2.26ZM125.82-14h-3.06V0h1.92V-9.9L126.32,0h2.08l1.52-10.04V0H132V-14h-3.06l-1.5,9.94ZM5.16,21.44C5.16,25.48.8,26.16.8,30.28V32H7.16V30H3a1.514,1.514,0,0,1-.02-.3c0-2.3,4.38-3.94,4.38-8.34,0-2.24-1.12-3.52-3.28-3.52S.8,19.12.8,21.36v1.36H2.88v-1.5c0-1,.44-1.38,1.14-1.38S5.16,20.18,5.16,21.44Zm5.58-.22c0-1,.44-1.38,1.14-1.38s1.14.38,1.14,1.38v7.56c0,1-.44,1.38-1.14,1.38s-1.14-.38-1.14-1.38Zm-2.2,7.42c0,2.24,1.18,3.52,3.34,3.52s3.34-1.28,3.34-3.52V21.36c0-2.24-1.18-3.52-3.34-3.52s-3.34,1.28-3.34,3.52ZM18,21.32h1.7V32h2.2V18H20.42A2.179,2.179,0,0,1,18,19.76Zm13.02.04c0-2.24-1.18-3.52-3.34-3.52s-3.34,1.28-3.34,3.52v2.56c0,2.06.82,3.2,2.44,3.2a2.094,2.094,0,0,0,2.04-1.24v2.56c0,1.34-.44,1.72-1.22,1.72-.7,0-1.14-.38-1.14-1.38v-.5H24.38v.36c0,2.24,1.12,3.52,3.28,3.52,2.28,0,3.36-1.28,3.36-3.64Zm-3.34,3.76c-.7,0-1.14-.38-1.14-1.38V21.22c0-1,.44-1.36,1.14-1.36s1.14.36,1.14,1.36v2.52C28.82,24.74,28.38,25.12,27.68,25.12Z" transform="translate(-3348 -3018) rotate(90)" fill="#948f9a"/><path d="M.18.02H.52c2.2,0,3.12-1,3.2-3.56L3.96-12H5.88V0H8.12V-14H1.9L1.54-3.42C1.5-2.12,1.18-1.98.18-1.98ZM13.64-3.36c0,2.24,1.18,3.52,3.34,3.52s3.34-1.28,3.34-3.52v-7.28c0-2.24-1.18-3.52-3.34-3.52s-3.34,1.28-3.34,3.52V-8H12v-6H9.8V0H12V-6h1.64Zm2.2-7.42c0-1,.44-1.38,1.14-1.38s1.14.38,1.14,1.38v7.56c0,1-.44,1.38-1.14,1.38s-1.14-.38-1.14-1.38ZM25.28,0c2.2,0,3.32-1.22,3.32-3.46v-1.5c0-2.24-1.12-3.46-3.32-3.46H24V-12h3.96v-2H21.8V0ZM24-2V-6.42h1.28c.7,0,1.12.32,1.12,1.32v1.78c0,1-.42,1.32-1.12,1.32ZM34.18-6.42l.9-3.44V0h1.98V-14H34.64l-1.8,5.78-.8,3.08V-14H30.08V0h2.26ZM37.98-12h2.3V0h2.2V-12h2.3v-2h-6.8ZM51.04-6h2.5V0h2.24V-14H53.54v6h-2.5v-6h-2.2V0h2.2Zm8.54-6h3.8v-2h-6V0h6V-2h-3.8V-6.1H62.6v-2H59.58ZM67.22.02h.34c2.2,0,3.12-1,3.2-3.56L71-12h1.92V0h2.24V-14H68.94L68.58-3.42c-.04,1.3-.36,1.44-1.36,1.44ZM80.68-3.36c0,2.24,1.18,3.52,3.34,3.52s3.34-1.28,3.34-3.52v-7.28c0-2.24-1.18-3.52-3.34-3.52s-3.34,1.28-3.34,3.52V-8H79.04v-6h-2.2V0h2.2V-6h1.64Zm2.2-7.42c0-1,.44-1.38,1.14-1.38s1.14.38,1.14,1.38v7.56c0,1-.44,1.38-1.14,1.38s-1.14-.38-1.14-1.38ZM92.32,0c2.2,0,3.32-1.22,3.32-3.46v-1.5c0-2.24-1.12-3.46-3.32-3.46H91.04V-12H95v-2H88.84V0ZM91.04-2V-6.42h1.28c.7,0,1.12.32,1.12,1.32v1.78c0,1-.42,1.32-1.12,1.32Zm10.18-4.42.9-3.44V0h1.98V-14h-2.42l-1.8,5.78-.8,3.08V-14H97.12V0h2.26Zm3.8-5.58h2.3V0h2.2V-12h2.3v-2h-6.8ZM5.16,21.44C5.16,25.48.8,26.16.8,30.28V32H7.16V30H3a1.514,1.514,0,0,1-.02-.3c0-2.3,4.38-3.94,4.38-8.34,0-2.24-1.12-3.52-3.28-3.52S.8,19.12.8,21.36v1.36H2.88v-1.5c0-1,.44-1.38,1.14-1.38S5.16,20.18,5.16,21.44Zm5.58-.22c0-1,.44-1.38,1.14-1.38s1.14.38,1.14,1.38v7.56c0,1-.44,1.38-1.14,1.38s-1.14-.38-1.14-1.38Zm-2.2,7.42c0,2.24,1.18,3.52,3.34,3.52s3.34-1.28,3.34-3.52V21.36c0-2.24-1.18-3.52-3.34-3.52s-3.34,1.28-3.34,3.52ZM18,21.32h1.7V32h2.2V18H20.42A2.179,2.179,0,0,1,18,19.76Zm6.04,8.14h4.24V32h2.16V29.46h1.04v-2H30.44V18h-2.4l-4,9.46Zm2.02-2,2.22-5.26v5.26Z" transform="translate(-3348 -2854) rotate(90)" fill="#948f9a"/><path d="M9.34,1.88V-1.96H8.38V-14H2.22L1.72-3.78a2.9,2.9,0,0,1-.54,1.82H.32V1.88H2.46V0h4.7V1.88ZM4.28-12H6.14V-1.96H3.26a2.48,2.48,0,0,0,.62-1.86Zm8.3,1.22c0-1,.44-1.38,1.14-1.38s1.14.38,1.14,1.38v7.56c0,1-.44,1.38-1.14,1.38s-1.14-.38-1.14-1.38Zm-2.2,7.42c0,2.24,1.18,3.52,3.34,3.52s3.34-1.28,3.34-3.52v-7.28c0-2.24-1.18-3.52-3.34-3.52s-3.34,1.28-3.34,3.52ZM21.52-14H18.46V0h1.92V-9.9L22.02,0H24.1l1.52-10.04V0H27.7V-14H24.64l-1.5,9.94Zm9.8,3.22c0-1,.44-1.38,1.14-1.38s1.14.38,1.14,1.38v7.56c0,1-.44,1.38-1.14,1.38s-1.14-.38-1.14-1.38Zm-2.2,7.42c0,2.24,1.18,3.52,3.34,3.52S35.8-1.12,35.8-3.36v-7.28c0-2.24-1.18-3.52-3.34-3.52s-3.34,1.28-3.34,3.52ZM40.54-14H37.22V0h3.46c2.2,0,3.34-1.16,3.34-3.32V-4.46c0-1.48-.46-2.54-1.64-3,.98-.46,1.42-1.38,1.42-2.82v-.5C43.8-12.94,42.82-14,40.54-14ZM40.4-6.3c1,0,1.42.4,1.42,1.7v1.22c0,1.04-.4,1.38-1.14,1.38H39.42V-6.3Zm.08-5.7c.78,0,1.12.44,1.12,1.44v.78c0,1.12-.5,1.48-1.32,1.48h-.86V-12Zm6.88,1.22c0-1,.44-1.38,1.14-1.38s1.14.38,1.14,1.38v7.56c0,1-.44,1.38-1.14,1.38s-1.14-.38-1.14-1.38Zm-2.2,7.42c0,2.24,1.18,3.52,3.34,3.52s3.34-1.28,3.34-3.52v-7.28c0-2.24-1.18-3.52-3.34-3.52s-3.34,1.28-3.34,3.52ZM55.52,0H53.26V-14h1.96v8.86l.8-3.08L57.82-14h2.42V0H58.26V-9.86l-.9,3.44Zm3.6-17.12a2.067,2.067,0,0,1-2.34,2.22,2.064,2.064,0,0,1-2.3-2.22h1.36c.06.74.36.92.94.92.6,0,.94-.18,1-.92ZM5.16,21.44C5.16,25.48.8,26.16.8,30.28V32H7.16V30H3a1.514,1.514,0,0,1-.02-.3c0-2.3,4.38-3.94,4.38-8.34,0-2.24-1.12-3.52-3.28-3.52S.8,19.12.8,21.36v1.36H2.88v-1.5c0-1,.44-1.38,1.14-1.38S5.16,20.18,5.16,21.44Zm5.58-.22c0-1,.44-1.38,1.14-1.38s1.14.38,1.14,1.38v7.56c0,1-.44,1.38-1.14,1.38s-1.14-.38-1.14-1.38Zm-2.2,7.42c0,2.24,1.18,3.52,3.34,3.52s3.34-1.28,3.34-3.52V21.36c0-2.24-1.18-3.52-3.34-3.52s-3.34,1.28-3.34,3.52ZM18,21.32h1.7V32h2.2V18H20.42A2.179,2.179,0,0,1,18,19.76Zm13.02.04c0-2.24-1.18-3.52-3.34-3.52s-3.34,1.28-3.34,3.52v2.56c0,2.06.82,3.2,2.44,3.2a2.094,2.094,0,0,0,2.04-1.24v2.56c0,1.34-.44,1.72-1.22,1.72-.7,0-1.14-.38-1.14-1.38v-.5H24.38v.36c0,2.24,1.12,3.52,3.28,3.52,2.28,0,3.36-1.28,3.36-3.64Zm-3.34,3.76c-.7,0-1.14-.38-1.14-1.38V21.22c0-1,.44-1.36,1.14-1.36s1.14.36,1.14,1.36v2.52C28.82,24.74,28.38,25.12,27.68,25.12Z" transform="translate(-3348 -2701) rotate(90)" fill="#948f9a"/><path d="M4.12-14H.8V0H4.26C6.46,0,7.6-1.16,7.6-3.32V-4.46c0-1.48-.46-2.54-1.64-3,.98-.46,1.42-1.38,1.42-2.82v-.5C7.38-12.94,6.4-14,4.12-14ZM3.98-6.3c1,0,1.42.4,1.42,1.7v1.22C5.4-2.34,5-2,4.26-2H3V-6.3ZM4.06-12c.78,0,1.12.44,1.12,1.44v.78c0,1.12-.5,1.48-1.32,1.48H3V-12Zm9.16,6.78v2c0,1-.44,1.36-1.14,1.36s-1.14-.36-1.14-1.36v-7.56c0-1,.44-1.38,1.14-1.38s1.14.38,1.14,1.38v1.5H15.3v-1.36c0-2.24-1.12-3.52-3.28-3.52s-3.28,1.28-3.28,3.52v7.28C8.74-1.12,9.86.16,12.02.16S15.3-1.12,15.3-3.36V-5.22ZM18.84-12h3.8v-2h-6V0h6V-2h-3.8V-6.1h3.02v-2H18.84Zm-1.7-4.66v1.92h1.92v-1.92Zm3.04,0v1.92H22.1v-1.92ZM31.2-6.42l.9-3.44V0h1.98V-14H31.66l-1.8,5.78-.8,3.08V-14H27.1V0h2.26Zm11.84,1.2v2c0,1-.44,1.36-1.14,1.36s-1.14-.36-1.14-1.36v-7.56c0-1,.44-1.38,1.14-1.38s1.14.38,1.14,1.38v1.5h2.08v-1.36c0-2.24-1.12-3.52-3.28-3.52s-3.28,1.28-3.28,3.52v7.28c0,2.24,1.12,3.52,3.28,3.52s3.28-1.28,3.28-3.52V-5.22ZM49.7-14H46.46V0h2.2V-5.26H49.7c2.2,0,3.28-1.22,3.28-3.46v-1.82C52.98-12.78,51.9-14,49.7-14Zm0,2c.7,0,1.08.32,1.08,1.32v2.1c0,1-.38,1.32-1.08,1.32H48.66V-12Zm9.18-2H55.66L53.42,0h2.02l.38-2.54h2.7L58.9,0h2.22Zm-1.72,2.48,1.06,7.08H56.1Zm9.22,1.74c0,1.12-.5,1.48-1.32,1.48H64.4v2h.54c1,0,1.44.48,1.44,1.78v1.1c0,1.24-.44,1.58-1.14,1.58S64.1-2.22,64.1-3.22V-4.9H62.02v1.54c0,2.24,1.12,3.52,3.28,3.52s3.28-1.28,3.28-3.52v-1.1c0-1.42-.44-2.46-1.54-2.94,1.06-.44,1.54-1.38,1.54-2.88v-.36c0-2.24-1.12-3.52-3.28-3.52s-3.24,1.24-3.24,3.48v1.04h2.02v-1.14c0-1,.46-1.38,1.16-1.38s1.14.34,1.14,1.6ZM77.3-14H75L74-9.2l-.52,3.26L72.8-9.22,71.6-14H69.42L72.46-3.2l-.02.12c-.18,1.02-.82,1.22-1.94,1.14V.02c3.06.2,3.92-1.06,4.44-3.58ZM5.16,21.44C5.16,25.48.8,26.16.8,30.28V32H7.16V30H3a1.514,1.514,0,0,1-.02-.3c0-2.3,4.38-3.94,4.38-8.34,0-2.24-1.12-3.52-3.28-3.52S.8,19.12.8,21.36v1.36H2.88v-1.5c0-1,.44-1.38,1.14-1.38S5.16,20.18,5.16,21.44Zm5.58-.22c0-1,.44-1.38,1.14-1.38s1.14.38,1.14,1.38v7.56c0,1-.44,1.38-1.14,1.38s-1.14-.38-1.14-1.38Zm-2.2,7.42c0,2.24,1.18,3.52,3.34,3.52s3.34-1.28,3.34-3.52V21.36c0-2.24-1.18-3.52-3.34-3.52s-3.34,1.28-3.34,3.52ZM18,21.32h1.7V32h2.2V18H20.42A2.179,2.179,0,0,1,18,19.76Zm6.04,8.14h4.24V32h2.16V29.46h1.04v-2H30.44V18h-2.4l-4,9.46Zm2.02-2,2.22-5.26v5.26Z" transform="translate(-3348 -2579) rotate(90)" fill="#948f9a"/><path d="M4.3,0C6.5,0,7.62-1.22,7.62-3.46v-1.5C7.62-7.2,6.5-8.42,4.3-8.42H3.02V-12H6.98v-2H.82V0ZM3.02-2V-6.42H4.3c.7,0,1.12.32,1.12,1.32v1.78C5.42-2.32,5-2,4.3-2Zm9.32,2c2.2,0,3.28-1.22,3.28-3.46V-5.28c0-2.24-1.08-3.46-3.28-3.46H11.3V-14H9.1V0ZM11.3-2V-6.74h1.04c.7,0,1.08.32,1.08,1.32v2.1c0,1-.38,1.32-1.08,1.32Zm7.78,2V-14h-2.2V0Zm5.9-5.22v2c0,1-.44,1.36-1.14,1.36S22.7-2.22,22.7-3.22v-7.56c0-1,.44-1.38,1.14-1.38s1.14.38,1.14,1.38v1.5h2.08v-1.36c0-2.24-1.12-3.52-3.28-3.52s-3.28,1.28-3.28,3.52v7.28c0,2.24,1.12,3.52,3.28,3.52s3.28-1.28,3.28-3.52V-5.22ZM27.76-12h2.3V0h2.2V-12h2.3v-2h-6.8Zm11-2H35.52V0h2.2V-5.26h1.04c2.2,0,3.28-1.22,3.28-3.46v-1.82C42.04-12.78,40.96-14,38.76-14Zm0,2c.7,0,1.08.32,1.08,1.32v2.1c0,1-.38,1.32-1.08,1.32H37.72V-12Zm6.5,0h3.8v-2h-6V0h6V-2h-3.8V-6.1h3.02v-2H45.26Zm7.36,0h3.8v-2h-6V0h6V-2h-3.8V-6.1h3.02v-2H52.62Zm6,12-.58,2h.9L59.9-.22v-1.9H57.78V0ZM69.08-14v5.68c0,.94-.44,1.44-1.14,1.44a1.236,1.236,0,0,1-1.28-1.38V-14h-2.2v5.92c0,1.92.94,3.22,2.74,3.22a2.72,2.72,0,0,0,1.88-.78V0h2.2V-14Zm6.02,2h3.8v-2h-6V0h6V-2H75.1V-6.1h3.02v-2H75.1Zm8.2-2H80.24V0h1.92V-9.9L83.8,0h2.08L87.4-10.04V0h2.08V-14H86.42l-1.5,9.94ZM99.2,0h2.26L98.4-7.76,101.46-14h-2.2L96.38-7.9V-14h-2.2V0h2.2V-4.3l.68-1.28Zm6.5-14h-3.24V0h2.2V-5.26h1.04c2.2,0,3.28-1.22,3.28-3.46v-1.82C108.98-12.78,107.9-14,105.7-14Zm0,2c.7,0,1.08.32,1.08,1.32v2.1c0,1-.38,1.32-1.08,1.32h-1.04V-12Zm6.32,1.22c0-1,.44-1.38,1.14-1.38s1.14.38,1.14,1.38v7.56c0,1-.44,1.38-1.14,1.38s-1.14-.38-1.14-1.38Zm-2.2,7.42c0,2.24,1.18,3.52,3.34,3.52s3.34-1.28,3.34-3.52v-7.28c0-2.24-1.18-3.52-3.34-3.52s-3.34,1.28-3.34,3.52ZM117.3.02h.34c2.2,0,3.12-1,3.2-3.56l.24-8.46H123V0h2.24V-14h-6.22l-.36,10.58c-.04,1.3-.36,1.44-1.36,1.44Zm13.72-6.44.9-3.44V0h1.98V-14h-2.42l-1.8,5.78-.8,3.08V-14h-1.96V0h2.26ZM140.48,0h2.26l-3.06-7.76L142.74-14h-2.2l-2.88,6.1V-14h-2.2V0h2.2V-4.3l.68-1.28Zm7.36-6.42.9-3.44V0h1.98V-14H148.3l-1.8,5.78-.8,3.08V-14h-1.96V0H146ZM5.16,21.44C5.16,25.48.8,26.16.8,30.28V32H7.16V30H3a1.514,1.514,0,0,1-.02-.3c0-2.3,4.38-3.94,4.38-8.34,0-2.24-1.12-3.52-3.28-3.52S.8,19.12.8,21.36v1.36H2.88v-1.5c0-1,.44-1.38,1.14-1.38S5.16,20.18,5.16,21.44Zm5.58-.22c0-1,.44-1.38,1.14-1.38s1.14.38,1.14,1.38v7.56c0,1-.44,1.38-1.14,1.38s-1.14-.38-1.14-1.38Zm-2.2,7.42c0,2.24,1.18,3.52,3.34,3.52s3.34-1.28,3.34-3.52V21.36c0-2.24-1.18-3.52-3.34-3.52s-3.34,1.28-3.34,3.52ZM18,21.32h1.7V32h2.2V18H20.42A2.179,2.179,0,0,1,18,19.76Zm6.04,8.14h4.24V32h2.16V29.46h1.04v-2H30.44V18h-2.4l-4,9.46Zm2.02-2,2.22-5.26v5.26Z" transform="translate(-3348 -2391) rotate(90)" fill="#948f9a"/><path d="M3-12H5.5V0H7.74V-14H.8V0H3ZM13.44-6.42l.9-3.44V0h1.98V-14H13.9L12.1-8.22l-.8,3.08V-14H9.34V0H11.6ZM22.9,0h2.26L22.1-7.76,25.16-14h-2.2L20.08-7.9V-14h-2.2V0h2.2V-4.3l.68-1.28Zm5.28-10.78c0-1,.44-1.38,1.14-1.38s1.14.38,1.14,1.38v7.56c0,1-.44,1.38-1.14,1.38s-1.14-.38-1.14-1.38Zm-2.2,7.42c0,2.24,1.18,3.52,3.34,3.52s3.34-1.28,3.34-3.52v-7.28c0-2.24-1.18-3.52-3.34-3.52s-3.34,1.28-3.34,3.52ZM37.4-14H34.08V0h3.46c2.2,0,3.34-1.16,3.34-3.32V-4.46c0-1.48-.46-2.54-1.64-3,.98-.46,1.42-1.38,1.42-2.82v-.5C40.66-12.94,39.68-14,37.4-14Zm-.14,7.7c1,0,1.42.4,1.42,1.7v1.22c0,1.04-.4,1.38-1.14,1.38H36.28V-6.3Zm.08-5.7c.78,0,1.12.44,1.12,1.44v.78c0,1.12-.5,1.48-1.32,1.48h-.86V-12Zm9.74-2H43.86L41.62,0h2.02l.38-2.54h2.7L47.1,0h2.22Zm-1.72,2.48,1.06,7.08H44.3ZM52.18,0a4.306,4.306,0,0,0,.2-1.72v-2.2c0-1.3.44-1.78,1.44-1.78h.76V0h2.2V-14H53.46c-2.28,0-3.26,1.06-3.26,3.22v1.1a2.791,2.791,0,0,0,1.44,2.84c-1.1.46-1.46,1.52-1.46,2.98V-1.7A4.123,4.123,0,0,1,49.94,0Zm2.4-12v4.3h-.86c-.82,0-1.32-.36-1.32-1.48v-1.38c0-1,.34-1.44,1.12-1.44ZM70.02,1.88V-1.96h-.96V-14H62.9L62.4-3.78a2.9,2.9,0,0,1-.54,1.82H61V1.88h2.14V0h4.7V1.88ZM64.96-12h1.86V-1.96H63.94a2.48,2.48,0,0,0,.62-1.86Zm11.16-2H72.9L70.66,0h2.02l.38-2.54h2.7L76.14,0h2.22ZM74.4-11.52l1.06,7.08H73.34ZM82.42-14H79.36V0h1.92V-9.9L82.92,0H85l1.52-10.04V0H88.6V-14H85.54l-1.5,9.94Zm12.66,0H91.86L89.62,0h2.02l.38-2.54h2.7L95.1,0h2.22Zm-1.72,2.48,1.06,7.08H92.3ZM5.16,21.44C5.16,25.48.8,26.16.8,30.28V32H7.16V30H3a1.514,1.514,0,0,1-.02-.3c0-2.3,4.38-3.94,4.38-8.34,0-2.24-1.12-3.52-3.28-3.52S.8,19.12.8,21.36v1.36H2.88v-1.5c0-1,.44-1.38,1.14-1.38S5.16,20.18,5.16,21.44Zm5.58-.22c0-1,.44-1.38,1.14-1.38s1.14.38,1.14,1.38v7.56c0,1-.44,1.38-1.14,1.38s-1.14-.38-1.14-1.38Zm-2.2,7.42c0,2.24,1.18,3.52,3.34,3.52s3.34-1.28,3.34-3.52V21.36c0-2.24-1.18-3.52-3.34-3.52s-3.34,1.28-3.34,3.52ZM18,21.32h1.7V32h2.2V18H20.42A2.179,2.179,0,0,1,18,19.76Zm6.46,6.16v1.16c0,2.24,1.12,3.52,3.28,3.52s3.28-1.28,3.28-3.52V25.52c0-2.06-.82-3.2-2.44-3.2a2.1,2.1,0,0,0-1.92,1.02L26.84,20h3.82V18h-5.8l-.4,8.12h2.08V25.7c0-1,.44-1.38,1.14-1.38s1.14.38,1.14,1.38v3.08c0,1-.44,1.36-1.14,1.36s-1.14-.36-1.14-1.36v-1.3Z" transform="translate(-3348 -2127) rotate(90)" fill="#948f9a"/><path d="M3-6H5.5V0H7.74V-14H5.5v6H3v-6H.8V0H3Zm11.22-8H11L8.76,0h2.02l.38-2.54h2.7L14.24,0h2.22ZM12.5-11.52l1.06,7.08H11.44ZM19.68-12h2.5V0h2.24V-14H17.48V0h2.2ZM30.9-14H27.68L25.44,0h2.02l.38-2.54h2.7L30.92,0h2.22Zm-1.72,2.48,1.06,7.08H28.12ZM37.4-14H34.16V0h2.2V-5.26H37.4c2.2,0,3.28-1.22,3.28-3.46v-1.82C40.68-12.78,39.6-14,37.4-14Zm0,2c.7,0,1.08.32,1.08,1.32v2.1c0,1-.38,1.32-1.08,1.32H36.36V-12Zm6.5,6h2.5V0h2.24V-14H46.4v6H43.9v-6H41.7V0h2.2Zm10.44-.42.9-3.44V0h1.98V-14H54.8L53-8.22l-.8,3.08V-14H50.24V0H52.5ZM63.8,0h2.26L63-7.76,66.06-14h-2.2L60.98-7.9V-14h-2.2V0h2.2V-4.3l.68-1.28ZM5.16,21.44C5.16,25.48.8,26.16.8,30.28V32H7.16V30H3a1.514,1.514,0,0,1-.02-.3c0-2.3,4.38-3.94,4.38-8.34,0-2.24-1.12-3.52-3.28-3.52S.8,19.12.8,21.36v1.36H2.88v-1.5c0-1,.44-1.38,1.14-1.38S5.16,20.18,5.16,21.44Zm5.58-.22c0-1,.44-1.38,1.14-1.38s1.14.38,1.14,1.38v7.56c0,1-.44,1.38-1.14,1.38s-1.14-.38-1.14-1.38Zm-2.2,7.42c0,2.24,1.18,3.52,3.34,3.52s3.34-1.28,3.34-3.52V21.36c0-2.24-1.18-3.52-3.34-3.52s-3.34,1.28-3.34,3.52ZM18,21.32h1.7V32h2.2V18H20.42A2.179,2.179,0,0,1,18,19.76ZM24.42,18v2H28.8L25.58,32h2.2l3.24-12.08V18Z" transform="translate(-3348 -2018) rotate(90)" fill="#948f9a"/><path d="M7.14-14H4.96v5.66L2.36-14H.16L2.88-8.26.16,0H2.42l2-6.22.54,1.08V0H7.14V-5.14L7.68-6.2l2,6.2h2.26L9.24-8.32,11.94-14H9.74L7.14-8.34Zm7.94,2h3.8v-2h-6V0h6V-2h-3.8V-6.1H18.1v-2H15.08Zm7.36,6h2.5V0h2.24V-14H24.94v6h-2.5v-6h-2.2V0h2.2Zm16.74-8h-2.2V-2h-1.9V-14h-2.2V-2h-1.9V-14h-2.2V0h9.24V1.88h2.14V-1.96h-.98Zm6.28,7.58.9-3.44V0h1.98V-14H45.92l-1.8,5.78-.8,3.08V-14H41.36V0h2.26ZM52.1-6h2.5V0h2.24V-14H54.6v6H52.1v-6H49.9V0h2.2Zm9.58,6c2.2,0,3.28-1.22,3.28-3.46V-5.28c0-2.24-1.08-3.46-3.28-3.46H60.64V-14h-2.2V0ZM60.64-2V-6.74h1.04c.7,0,1.08.32,1.08,1.32v2.1c0,1-.38,1.32-1.08,1.32Zm7.78,2V-14h-2.2V0Zm6.9-12h2.5V0h2.24V-14H73.12V0h2.2Zm9.58-2H81.66V0h2.2V-5.26H84.9c2.2,0,3.28-1.22,3.28-3.46v-1.82C88.18-12.78,87.1-14,84.9-14Zm0,2c.7,0,1.08.32,1.08,1.32v2.1c0,1-.38,1.32-1.08,1.32H83.86V-12Zm6.32,1.22c0-1,.44-1.38,1.14-1.38s1.14.38,1.14,1.38v7.56c0,1-.44,1.38-1.14,1.38s-1.14-.38-1.14-1.38Zm-2.2,7.42c0,2.24,1.18,3.52,3.34,3.52S95.7-1.12,95.7-3.36v-7.28c0-2.24-1.18-3.52-3.34-3.52s-3.34,1.28-3.34,3.52ZM96.48-12h2.3V0h2.2V-12h2.3v-2h-6.8Zm11.86,5.58.9-3.44V0h1.98V-14H108.8L107-8.22l-.8,3.08V-14h-1.96V0h2.26ZM116.1-14h-3.32V0h3.46c2.2,0,3.34-1.16,3.34-3.32V-4.46c0-1.48-.46-2.54-1.64-3,.98-.46,1.42-1.38,1.42-2.82v-.5C119.36-12.94,118.38-14,116.1-14Zm-.14,7.7c1,0,1.42.4,1.42,1.7v1.22c0,1.04-.4,1.38-1.14,1.38h-1.26V-6.3Zm.08-5.7c.78,0,1.12.44,1.12,1.44v.78c0,1.12-.5,1.48-1.32,1.48h-.86V-12Zm11-2h-3.06V0h1.92V-9.9L127.54,0h2.08l1.52-10.04V0h2.08V-14h-3.06l-1.5,9.94Zm15.02,0h-2.3l-1,4.8-.52,3.26-.68-3.28L136.36-14h-2.18l3.04,10.8-.02.12c-.18,1.02-.82,1.22-1.94,1.14V.02c3.06.2,3.92-1.06,4.44-3.58Zm7.26,0h-2.18v5.66L144.54-14h-2.2l2.72,5.74L142.34,0h2.26l2-6.22.54,1.08V0h2.18V-5.14l.54-1.06,2,6.2h2.26l-2.7-8.32,2.7-5.68h-2.2l-2.6,5.66Zm10.22,0v5.68c0,.94-.44,1.44-1.14,1.44a1.236,1.236,0,0,1-1.28-1.38V-14h-2.2v5.92c0,1.92.94,3.22,2.74,3.22a2.72,2.72,0,0,0,1.88-.78V0h2.2V-14Zm7.92,7.58.9-3.44V0h1.98V-14h-2.42l-1.8,5.78-.8,3.08V-14h-1.96V0h2.26ZM174.1-6h2.5V0h2.24V-14H176.6v6h-2.5v-6h-2.2V0h2.2ZM5.16,21.44C5.16,25.48.8,26.16.8,30.28V32H7.16V30H3a1.514,1.514,0,0,1-.02-.3c0-2.3,4.38-3.94,4.38-8.34,0-2.24-1.12-3.52-3.28-3.52S.8,19.12.8,21.36v1.36H2.88v-1.5c0-1,.44-1.38,1.14-1.38S5.16,20.18,5.16,21.44Zm5.58-.22c0-1,.44-1.38,1.14-1.38s1.14.38,1.14,1.38v7.56c0,1-.44,1.38-1.14,1.38s-1.14-.38-1.14-1.38Zm-2.2,7.42c0,2.24,1.18,3.52,3.34,3.52s3.34-1.28,3.34-3.52V21.36c0-2.24-1.18-3.52-3.34-3.52s-3.34,1.28-3.34,3.52ZM18,21.32h1.7V32h2.2V18H20.42A2.179,2.179,0,0,1,18,19.76Zm6.46,6.16v1.16c0,2.24,1.12,3.52,3.28,3.52s3.28-1.28,3.28-3.52V25.52c0-2.06-.82-3.2-2.44-3.2a2.1,2.1,0,0,0-1.92,1.02L26.84,20h3.82V18h-5.8l-.4,8.12h2.08V25.7c0-1,.44-1.38,1.14-1.38s1.14.38,1.14,1.38v3.08c0,1-.44,1.36-1.14,1.36s-1.14-.36-1.14-1.36v-1.3Z" transform="translate(-3348 -1908) rotate(90)" fill="#948f9a"/><path d="M5.1-5.22v2c0,1-.44,1.36-1.14,1.36S2.82-2.22,2.82-3.22v-7.56c0-1,.44-1.38,1.14-1.38s1.14.38,1.14,1.38v1.5H7.18v-1.36c0-2.24-1.12-3.52-3.28-3.52S.62-12.88.62-10.64v7.28C.62-1.12,1.74.16,3.9.16S7.18-1.12,7.18-3.36V-5.22ZM7.88-12h2.3V0h2.2V-12h2.3v-2H7.88Zm12.64-2H17.3L15.06,0h2.02l.38-2.54h2.7L20.54,0h2.22ZM18.8-11.52l1.06,7.08H17.74ZM23.14-12h2.3V0h2.2V-12h2.3v-2h-6.8Zm15-2h-2.3l-1,4.8-.52,3.26-.68-3.28L32.44-14H30.26L33.3-3.2l-.02.12c-.18,1.02-.82,1.22-1.94,1.14V.02c3.06.2,3.92-1.06,4.44-3.58Zm5.22,8.78v2c0,1-.44,1.36-1.14,1.36s-1.14-.36-1.14-1.36v-7.56c0-1,.44-1.38,1.14-1.38s1.14.38,1.14,1.38v1.5h2.08v-1.36c0-2.24-1.12-3.52-3.28-3.52s-3.28,1.28-3.28,3.52v7.28C38.88-1.12,40,.16,42.16.16s3.28-1.28,3.28-3.52V-5.22Zm3.42,3.1V0H48.9V-2.12Zm0-7.62v2.12H48.9V-9.74ZM57.9-5.22v2c0,1-.44,1.36-1.14,1.36s-1.14-.36-1.14-1.36v-7.56c0-1,.44-1.38,1.14-1.38s1.14.38,1.14,1.38v1.5h2.08v-1.36c0-2.24-1.12-3.52-3.28-3.52s-3.28,1.28-3.28,3.52v7.28c0,2.24,1.12,3.52,3.28,3.52s3.28-1.28,3.28-3.52V-5.22ZM64.64-14H61.32V0h3.46c2.2,0,3.34-1.16,3.34-3.32V-4.46c0-1.48-.46-2.54-1.64-3,.98-.46,1.42-1.38,1.42-2.82v-.5C67.9-12.94,66.92-14,64.64-14ZM64.5-6.3c1,0,1.42.4,1.42,1.7v1.22c0,1.04-.4,1.38-1.14,1.38H63.52V-6.3Zm.08-5.7c.78,0,1.12.44,1.12,1.44v.78c0,1.12-.5,1.48-1.32,1.48h-.86V-12Zm6.88,1.22c0-1,.44-1.38,1.14-1.38s1.14.38,1.14,1.38v7.56c0,1-.44,1.38-1.14,1.38s-1.14-.38-1.14-1.38Zm-2.2,7.42c0,2.24,1.18,3.52,3.34,3.52s3.34-1.28,3.34-3.52v-7.28c0-2.24-1.18-3.52-3.34-3.52s-3.34,1.28-3.34,3.52ZM80.86,0c2.2,0,3.32-1.22,3.32-3.46v-1.5c0-2.24-1.12-3.46-3.32-3.46H79.58V-12h3.96v-2H77.38V0ZM79.58-2V-6.42h1.28c.7,0,1.12.32,1.12,1.32v1.78c0,1-.42,1.32-1.12,1.32Zm8.1-8.78c0-1,.44-1.38,1.14-1.38s1.14.38,1.14,1.38v7.56c0,1-.44,1.38-1.14,1.38s-1.14-.38-1.14-1.38Zm-2.2,7.42c0,2.24,1.18,3.52,3.34,3.52s3.34-1.28,3.34-3.52v-7.28c0-2.24-1.18-3.52-3.34-3.52s-3.34,1.28-3.34,3.52Zm16.64,5.24V-1.96h-.96V-14H95L94.5-3.78a2.9,2.9,0,0,1-.54,1.82H93.1V1.88h2.14V0h4.7V1.88ZM97.06-12h1.86V-1.96H96.04a2.48,2.48,0,0,0,.62-1.86Zm8.48,0h3.8v-2h-6V0h6V-2h-3.8V-6.1h3.02v-2h-3.02Zm7.36,6h2.5V0h2.24V-14H115.4v6h-2.5v-6h-2.2V0h2.2ZM5.16,21.44C5.16,25.48.8,26.16.8,30.28V32H7.16V30H3a1.514,1.514,0,0,1-.02-.3c0-2.3,4.38-3.94,4.38-8.34,0-2.24-1.12-3.52-3.28-3.52S.8,19.12.8,21.36v1.36H2.88v-1.5c0-1,.44-1.38,1.14-1.38S5.16,20.18,5.16,21.44Zm5.58-.22c0-1,.44-1.38,1.14-1.38s1.14.38,1.14,1.38v7.56c0,1-.44,1.38-1.14,1.38s-1.14-.38-1.14-1.38Zm-2.2,7.42c0,2.24,1.18,3.52,3.34,3.52s3.34-1.28,3.34-3.52V21.36c0-2.24-1.18-3.52-3.34-3.52s-3.34,1.28-3.34,3.52ZM18,21.32h1.7V32h2.2V18H20.42A2.179,2.179,0,0,1,18,19.76Zm6.42,7.32c0,2.24,1.18,3.52,3.34,3.52s3.34-1.28,3.34-3.52V26.08c0-2.06-.82-3.2-2.44-3.2a2.094,2.094,0,0,0-2.04,1.24V21.56c0-1.34.44-1.72,1.22-1.72.7,0,1.14.38,1.14,1.38v.5h2.08v-.36c0-2.24-1.12-3.52-3.28-3.52-2.28,0-3.36,1.28-3.36,3.64Zm3.34-3.76c.7,0,1.14.38,1.14,1.38v2.52c0,1-.44,1.36-1.14,1.36s-1.14-.36-1.14-1.36V26.26C26.62,25.26,27.06,24.88,27.76,24.88Z" transform="translate(-3348 -1707) rotate(90)" fill="#948f9a"/><path d="M6.1-14,4.4-8.84,2.74-14H.46l2.3,6.8L.3,0H2.36L4.18-5.54,5.98,0H8.3L5.84-7.2,8.14-14Zm8.18,0H11.06L8.82,0h2.02l.38-2.54h2.7L14.3,0h2.22Zm-1.72,2.48,1.06,7.08H11.5ZM20.78-14H17.54V0h2.2V-5.26h1.04c2.2,0,3.28-1.22,3.28-3.46v-1.82C24.06-12.78,22.98-14,20.78-14Zm0,2c.7,0,1.08.32,1.08,1.32v2.1c0,1-.38,1.32-1.08,1.32H19.74V-12ZM33.62,1.88V-1.96h-.96V-14H26.5L26-3.78a2.9,2.9,0,0,1-.54,1.82H24.6V1.88h2.14V0h4.7V1.88ZM28.56-12h1.86V-1.96H27.54a2.48,2.48,0,0,0,.62-1.86ZM39.86,0h2.26L39.06-7.76,42.12-14h-2.2L37.04-7.9V-14h-2.2V0h2.2V-4.3l.68-1.28Zm5.28-10.78c0-1,.44-1.38,1.14-1.38s1.14.38,1.14,1.38v7.56c0,1-.44,1.38-1.14,1.38s-1.14-.38-1.14-1.38Zm-2.2,7.42c0,2.24,1.18,3.52,3.34,3.52s3.34-1.28,3.34-3.52v-7.28c0-2.24-1.18-3.52-3.34-3.52s-3.34,1.28-3.34,3.52ZM54.28-14H51.04V0h2.2V-5.26h1.04c2.2,0,3.28-1.22,3.28-3.46v-1.82C57.56-12.78,56.48-14,54.28-14Zm0,2c.7,0,1.08.32,1.08,1.32v2.1c0,1-.38,1.32-1.08,1.32H53.24V-12ZM5.16,21.44C5.16,25.48.8,26.16.8,30.28V32H7.16V30H3a1.514,1.514,0,0,1-.02-.3c0-2.3,4.38-3.94,4.38-8.34,0-2.24-1.12-3.52-3.28-3.52S.8,19.12.8,21.36v1.36H2.88v-1.5c0-1,.44-1.38,1.14-1.38S5.16,20.18,5.16,21.44Zm5.58-.22c0-1,.44-1.38,1.14-1.38s1.14.38,1.14,1.38v7.56c0,1-.44,1.38-1.14,1.38s-1.14-.38-1.14-1.38Zm-2.2,7.42c0,2.24,1.18,3.52,3.34,3.52s3.34-1.28,3.34-3.52V21.36c0-2.24-1.18-3.52-3.34-3.52s-3.34,1.28-3.34,3.52ZM18,21.32h1.7V32h2.2V18H20.42A2.179,2.179,0,0,1,18,19.76Zm6.42,7.32c0,2.24,1.18,3.52,3.34,3.52s3.34-1.28,3.34-3.52V26.08c0-2.06-.82-3.2-2.44-3.2a2.094,2.094,0,0,0-2.04,1.24V21.56c0-1.34.44-1.72,1.22-1.72.7,0,1.14.38,1.14,1.38v.5h2.08v-.36c0-2.24-1.12-3.52-3.28-3.52-2.28,0-3.36,1.28-3.36,3.64Zm3.34-3.76c.7,0,1.14.38,1.14,1.38v2.52c0,1-.44,1.36-1.14,1.36s-1.14-.36-1.14-1.36V26.26C26.62,25.26,27.06,24.88,27.76,24.88Z" transform="translate(-3348 -1518) rotate(90)" fill="#948f9a"/><path d="M.66-14v2H4.64L.46-1.96V0H6.9V-2H2.72L6.9-12.04V-14Zm9.56,3.22c0-1,.44-1.38,1.14-1.38s1.14.38,1.14,1.38v7.56c0,1-.44,1.38-1.14,1.38s-1.14-.38-1.14-1.38ZM8.02-3.36C8.02-1.12,9.2.16,11.36.16S14.7-1.12,14.7-3.36v-7.28c0-2.24-1.18-3.52-3.34-3.52s-3.34,1.28-3.34,3.52ZM19.16-14H16.1V0h1.92V-9.9L19.66,0h2.08l1.52-10.04V0h2.08V-14H22.28l-1.5,9.94ZM30.44,0c2.2,0,3.32-1.22,3.32-3.46v-1.5c0-2.24-1.12-3.46-3.32-3.46H29.16V-12h3.96v-2H26.96V0ZM29.16-2V-6.42h1.28c.7,0,1.12.32,1.12,1.32v1.78c0,1-.42,1.32-1.12,1.32Zm8.1-8.78c0-1,.44-1.38,1.14-1.38s1.14.38,1.14,1.38v7.56c0,1-.44,1.38-1.14,1.38s-1.14-.38-1.14-1.38Zm-2.2,7.42c0,2.24,1.18,3.52,3.34,3.52s3.34-1.28,3.34-3.52v-7.28c0-2.24-1.18-3.52-3.34-3.52s-3.34,1.28-3.34,3.52ZM45,0a4.306,4.306,0,0,0,.2-1.72v-2.2c0-1.3.44-1.78,1.44-1.78h.76V0h2.2V-14H46.28c-2.28,0-3.26,1.06-3.26,3.22v1.1a2.791,2.791,0,0,0,1.44,2.84C43.36-6.38,43-5.32,43-3.86V-1.7A4.123,4.123,0,0,1,42.76,0Zm2.4-12v4.3h-.86c-.82,0-1.32-.36-1.32-1.48v-1.38c0-1,.34-1.44,1.12-1.44Zm14.2-2H59.4V-2H57.5V-14H55.3V-2H53.4V-14H51.2V0h9.24V1.88h2.14V-1.96H61.6Zm6.28,7.58.9-3.44V0h1.98V-14H68.34l-1.8,5.78-.8,3.08V-14H63.78V0h2.26ZM77.34,0H79.6L76.54-7.76,79.6-14H77.4L74.52-7.9V-14h-2.2V0h2.2V-4.3l.68-1.28ZM5.16,21.44C5.16,25.48.8,26.16.8,30.28V32H7.16V30H3a1.514,1.514,0,0,1-.02-.3c0-2.3,4.38-3.94,4.38-8.34,0-2.24-1.12-3.52-3.28-3.52S.8,19.12.8,21.36v1.36H2.88v-1.5c0-1,.44-1.38,1.14-1.38S5.16,20.18,5.16,21.44Zm5.58-.22c0-1,.44-1.38,1.14-1.38s1.14.38,1.14,1.38v7.56c0,1-.44,1.38-1.14,1.38s-1.14-.38-1.14-1.38Zm-2.2,7.42c0,2.24,1.18,3.52,3.34,3.52s3.34-1.28,3.34-3.52V21.36c0-2.24-1.18-3.52-3.34-3.52s-3.34,1.28-3.34,3.52ZM18,21.32h1.7V32h2.2V18H20.42A2.179,2.179,0,0,1,18,19.76Zm13.16,7.32v-1.1a3.076,3.076,0,0,0-1.36-2.92,2.941,2.941,0,0,0,1.36-2.82v-.44c0-2.24-1.22-3.52-3.44-3.52s-3.44,1.28-3.44,3.52v.44a2.905,2.905,0,0,0,1.36,2.82,3.076,3.076,0,0,0-1.36,2.92v1.1c0,2.24,1.22,3.52,3.44,3.52S31.16,30.88,31.16,28.64Zm-4.68-.06v-1.3c0-1.1.46-1.58,1.24-1.58s1.24.48,1.24,1.58v1.3c-.02,1.24-.54,1.58-1.24,1.58S26.48,29.82,26.48,28.58Zm0-7.14c0-1.26.54-1.6,1.24-1.6s1.24.34,1.24,1.6v.78c0,1.12-.54,1.48-1.24,1.48-.72,0-1.24-.36-1.24-1.48Z" transform="translate(-3348 -1379) rotate(90)" fill="#948f9a"/><path d="M2.82-10.78c0-1,.44-1.38,1.14-1.38s1.14.38,1.14,1.38v7.56c0,1-.44,1.38-1.14,1.38S2.82-2.22,2.82-3.22ZM.62-3.36C.62-1.12,1.8.16,3.96.16S7.3-1.12,7.3-3.36v-7.28c0-2.24-1.18-3.52-3.34-3.52S.62-12.88.62-10.64ZM17.26,1.88V-1.96H16.3V-14H10.14L9.64-3.78A2.9,2.9,0,0,1,9.1-1.96H8.24V1.88h2.14V0h4.7V1.88ZM12.2-12h1.86V-1.96H11.18a2.48,2.48,0,0,0,.62-1.86Zm8.48,6h2.5V0h2.24V-14H23.18v6h-2.5v-6h-2.2V0h2.2Zm8.36-4.78c0-1,.44-1.38,1.14-1.38s1.14.38,1.14,1.38v7.56c0,1-.44,1.38-1.14,1.38s-1.14-.38-1.14-1.38Zm-2.2,7.42c0,2.24,1.18,3.52,3.34,3.52s3.34-1.28,3.34-3.52v-7.28c0-2.24-1.18-3.52-3.34-3.52s-3.34,1.28-3.34,3.52ZM37.2,0H34.94V-14H36.9v8.86l.8-3.08L39.5-14h2.42V0H39.94V-9.86l-.9,3.44Zm3.6-17.12a2.067,2.067,0,0,1-2.34,2.22,2.064,2.064,0,0,1-2.3-2.22h1.36c.06.74.36.92.94.92.6,0,.94-.18,1-.92ZM46,.02h.34c2.2,0,3.12-1,3.2-3.56L49.78-12H51.7V0h2.24V-14H47.72L47.36-3.42C47.32-2.12,47-1.98,46-1.98ZM57.82-12h3.8v-2h-6V0h6V-2h-3.8V-6.1h3.02v-2H57.82Zm8.48-2H62.98V0h3.46c2.2,0,3.34-1.16,3.34-3.32V-4.46c0-1.48-.46-2.54-1.64-3,.98-.46,1.42-1.38,1.42-2.82v-.5C69.56-12.94,68.58-14,66.3-14Zm-.14,7.7c1,0,1.42.4,1.42,1.7v1.22c0,1.04-.4,1.38-1.14,1.38H65.18V-6.3Zm.08-5.7c.78,0,1.12.44,1.12,1.44v.78c0,1.12-.5,1.48-1.32,1.48h-.86V-12Zm6.88,1.22c0-1,.44-1.38,1.14-1.38s1.14.38,1.14,1.38v7.56c0,1-.44,1.38-1.14,1.38s-1.14-.38-1.14-1.38Zm-2.2,7.42c0,2.24,1.18,3.52,3.34,3.52S77.6-1.12,77.6-3.36v-7.28c0-2.24-1.18-3.52-3.34-3.52s-3.34,1.28-3.34,3.52ZM81.28,0H79.02V-14h1.96v8.86l.8-3.08L83.58-14H86V0H84.02V-9.86l-.9,3.44Zm3.6-17.12a2.067,2.067,0,0,1-2.34,2.22,2.064,2.064,0,0,1-2.3-2.22H81.6c.06.74.36.92.94.92.6,0,.94-.18,1-.92ZM5.16,21.44C5.16,25.48.8,26.16.8,30.28V32H7.16V30H3a1.514,1.514,0,0,1-.02-.3c0-2.3,4.38-3.94,4.38-8.34,0-2.24-1.12-3.52-3.28-3.52S.8,19.12.8,21.36v1.36H2.88v-1.5c0-1,.44-1.38,1.14-1.38S5.16,20.18,5.16,21.44Zm5.58-.22c0-1,.44-1.38,1.14-1.38s1.14.38,1.14,1.38v7.56c0,1-.44,1.38-1.14,1.38s-1.14-.38-1.14-1.38Zm-2.2,7.42c0,2.24,1.18,3.52,3.34,3.52s3.34-1.28,3.34-3.52V21.36c0-2.24-1.18-3.52-3.34-3.52s-3.34,1.28-3.34,3.52ZM18,21.32h1.7V32h2.2V18H20.42A2.179,2.179,0,0,1,18,19.76Zm6.46,6.16v1.16c0,2.24,1.12,3.52,3.28,3.52s3.28-1.28,3.28-3.52V25.52c0-2.06-.82-3.2-2.44-3.2a2.1,2.1,0,0,0-1.92,1.02L26.84,20h3.82V18h-5.8l-.4,8.12h2.08V25.7c0-1,.44-1.38,1.14-1.38s1.14.38,1.14,1.38v3.08c0,1-.44,1.36-1.14,1.36s-1.14-.36-1.14-1.36v-1.3Z" transform="translate(-3348 -1198) rotate(90)" fill="#948f9a"/><path d="M3-12H5.5V0H7.74V-14H.8V0H3Zm8.36,1.22c0-1,.44-1.38,1.14-1.38s1.14.38,1.14,1.38v7.56c0,1-.44,1.38-1.14,1.38s-1.14-.38-1.14-1.38ZM9.16-3.36C9.16-1.12,10.34.16,12.5.16s3.34-1.28,3.34-3.52v-7.28c0-2.24-1.18-3.52-3.34-3.52s-3.34,1.28-3.34,3.52ZM25.8,1.88V-1.96h-.96V-14H18.68l-.5,10.22a2.9,2.9,0,0,1-.54,1.82h-.86V1.88h2.14V0h4.7V1.88ZM20.74-12H22.6V-1.96H19.72a2.48,2.48,0,0,0,.62-1.86ZM31.9-14H28.68L26.44,0h2.02l.38-2.54h2.7L31.92,0h2.22Zm-1.72,2.48,1.06,7.08H29.12ZM38.4-14H35.16V0h2.2V-5.26H38.4c2.2,0,3.28-1.22,3.28-3.46v-1.82C41.68-12.78,40.6-14,38.4-14Zm0,2c.7,0,1.08.32,1.08,1.32v2.1c0,1-.38,1.32-1.08,1.32H37.36V-12Zm6.32,1.22c0-1,.44-1.38,1.14-1.38S47-11.78,47-10.78v7.56c0,1-.44,1.38-1.14,1.38s-1.14-.38-1.14-1.38Zm-2.2,7.42c0,2.24,1.18,3.52,3.34,3.52S49.2-1.12,49.2-3.36v-7.28c0-2.24-1.18-3.52-3.34-3.52s-3.34,1.28-3.34,3.52ZM55.64,0H57.9L54.84-7.76,57.9-14H55.7L52.82-7.9V-14h-2.2V0h2.2V-4.3l.68-1.28ZM66.3-5.22v2c0,1-.44,1.36-1.14,1.36s-1.14-.36-1.14-1.36v-7.56c0-1,.44-1.38,1.14-1.38s1.14.38,1.14,1.38v1.5h2.08v-1.36c0-2.24-1.12-3.52-3.28-3.52s-3.28,1.28-3.28,3.52v7.28c0,2.24,1.12,3.52,3.28,3.52s3.28-1.28,3.28-3.52V-5.22ZM78.12-14l-1.7,5.16L74.76-14H72.48l2.3,6.8L72.32,0h2.06L76.2-5.54,78,0h2.32L77.86-7.2l2.3-6.8Zm8.18,0H83.08L80.84,0h2.02l.38-2.54h2.7L86.32,0h2.22Zm-1.72,2.48,1.06,7.08H83.52ZM92.8-14H89.56V0h2.2V-5.26H92.8c2.2,0,3.28-1.22,3.28-3.46v-1.82C96.08-12.78,95-14,92.8-14Zm0,2c.7,0,1.08.32,1.08,1.32v2.1c0,1-.38,1.32-1.08,1.32H91.76V-12Zm9.18-2H98.76L96.52,0h2.02l.38-2.54h2.7L102,0h2.22Zm-1.72,2.48,1.06,7.08H99.2ZM110.26,0h2.26l-3.06-7.76L112.52-14h-2.2l-2.88,6.1V-14h-2.2V0h2.2V-4.3l.68-1.28Zm2.62-12h2.3V0h2.2V-12h2.3v-2h-6.8Zm9.96,0h3.8v-2h-6V0h6V-2h-3.8V-6.1h3.02v-2h-3.02Zm8.4-2H128V0h2.2V-5.26h1.04c2.2,0,3.28-1.22,3.28-3.46v-1.82C134.52-12.78,133.44-14,131.24-14Zm0,2c.7,0,1.08.32,1.08,1.32v2.1c0,1-.38,1.32-1.08,1.32H130.2V-12Zm6.32,1.22c0-1,.44-1.38,1.14-1.38s1.14.38,1.14,1.38v7.56c0,1-.44,1.38-1.14,1.38s-1.14-.38-1.14-1.38Zm-2.2,7.42c0,2.24,1.18,3.52,3.34,3.52s3.34-1.28,3.34-3.52v-7.28c0-2.24-1.18-3.52-3.34-3.52s-3.34,1.28-3.34,3.52ZM146.5-14h-3.06V0h1.92V-9.9L147,0h2.08l1.52-10.04V0h2.08V-14h-3.06l-1.5,9.94ZM5.16,21.44C5.16,25.48.8,26.16.8,30.28V32H7.16V30H3a1.514,1.514,0,0,1-.02-.3c0-2.3,4.38-3.94,4.38-8.34,0-2.24-1.12-3.52-3.28-3.52S.8,19.12.8,21.36v1.36H2.88v-1.5c0-1,.44-1.38,1.14-1.38S5.16,20.18,5.16,21.44Zm5.58-.22c0-1,.44-1.38,1.14-1.38s1.14.38,1.14,1.38v7.56c0,1-.44,1.38-1.14,1.38s-1.14-.38-1.14-1.38Zm-2.2,7.42c0,2.24,1.18,3.52,3.34,3.52s3.34-1.28,3.34-3.52V21.36c0-2.24-1.18-3.52-3.34-3.52s-3.34,1.28-3.34,3.52ZM18,21.32h1.7V32h2.2V18H20.42A2.179,2.179,0,0,1,18,19.76Zm6.04,8.14h4.24V32h2.16V29.46h1.04v-2H30.44V18h-2.4l-4,9.46Zm2.02-2,2.22-5.26v5.26Z" transform="translate(-3348 -975) rotate(90)" fill="#948f9a"/><path d="M3-6H5.5V0H7.74V-14H5.5v6H3v-6H.8V0H3Zm8.54-6h3.8v-2h-6V0h6V-2h-3.8V-6.1h3.02v-2H11.54Zm8.48-2H16.7V0h3.46c2.2,0,3.34-1.16,3.34-3.32V-4.46c0-1.48-.46-2.54-1.64-3,.98-.46,1.42-1.38,1.42-2.82v-.5C23.28-12.94,22.3-14,20.02-14Zm-.14,7.7c1,0,1.42.4,1.42,1.7v1.22C21.3-2.34,20.9-2,20.16-2H18.9V-6.3Zm.08-5.7c.78,0,1.12.44,1.12,1.44v.78c0,1.12-.5,1.48-1.32,1.48H18.9V-12Zm7.06,0h3.8v-2h-6V0h6V-2h-3.8V-6.1h3.02v-2H27.02Zm9.46,6.78v2c0,1-.44,1.36-1.14,1.36S34.2-2.22,34.2-3.22v-7.56c0-1,.44-1.38,1.14-1.38s1.14.38,1.14,1.38v1.5h2.08v-1.36c0-2.24-1.12-3.52-3.28-3.52S32-12.88,32-10.64v7.28C32-1.12,33.12.16,35.28.16s3.28-1.28,3.28-3.52V-5.22ZM39.26-12h2.3V0h2.2V-12h2.3v-2h-6.8ZM51.9-14H48.68L46.44,0h2.02l.38-2.54h2.7L51.92,0h2.22Zm-1.72,2.48,1.06,7.08H49.12ZM5.16,21.44C5.16,25.48.8,26.16.8,30.28V32H7.16V30H3a1.514,1.514,0,0,1-.02-.3c0-2.3,4.38-3.94,4.38-8.34,0-2.24-1.12-3.52-3.28-3.52S.8,19.12.8,21.36v1.36H2.88v-1.5c0-1,.44-1.38,1.14-1.38S5.16,20.18,5.16,21.44Zm5.58-.22c0-1,.44-1.38,1.14-1.38s1.14.38,1.14,1.38v7.56c0,1-.44,1.38-1.14,1.38s-1.14-.38-1.14-1.38Zm-2.2,7.42c0,2.24,1.18,3.52,3.34,3.52s3.34-1.28,3.34-3.52V21.36c0-2.24-1.18-3.52-3.34-3.52s-3.34,1.28-3.34,3.52ZM18,21.32h1.7V32h2.2V18H20.42A2.179,2.179,0,0,1,18,19.76ZM24.42,18v2H28.8L25.58,32h2.2l3.24-12.08V18Z" transform="translate(-3348 -794) rotate(90)" fill="#948f9a"/><path d="M4.3,0C6.5,0,7.62-1.22,7.62-3.46v-1.5C7.62-7.2,6.5-8.42,4.3-8.42H3.02V-12H6.98v-2H.82V0ZM3.02-2V-6.42H4.3c.7,0,1.12.32,1.12,1.32v1.78C5.42-2.32,5-2,4.3-2ZM11.3-12h3.8v-2h-6V0h6V-2H11.3V-6.1h3.02v-2H11.3Zm9.4,2.22c0,1.12-.5,1.48-1.32,1.48h-.66v2h.54c1,0,1.44.48,1.44,1.78v1.1c0,1.24-.44,1.58-1.14,1.58s-1.14-.38-1.14-1.38V-4.9H16.34v1.54c0,2.24,1.12,3.52,3.28,3.52S22.9-1.12,22.9-3.36v-1.1c0-1.42-.44-2.46-1.54-2.94,1.06-.44,1.54-1.38,1.54-2.88v-.36c0-2.24-1.12-3.52-3.28-3.52s-3.24,1.24-3.24,3.48v1.04H18.4v-1.14c0-1,.46-1.38,1.16-1.38s1.14.34,1.14,1.6ZM29.7,0V-12h3.6v-2H27.5V0Zm8.32-14H34.78V0h2.2V-5.26h1.04c2.2,0,3.28-1.22,3.28-3.46v-1.82C41.3-12.78,40.22-14,38.02-14Zm0,2c.7,0,1.08.32,1.08,1.32v2.1c0,1-.38,1.32-1.08,1.32H36.98V-12Zm9.18-2H43.98L41.74,0h2.02l.38-2.54h2.7L47.22,0h2.22Zm-1.72,2.48,1.06,7.08H44.42ZM52.66-6h2.5V0H57.4V-14H55.16v6h-2.5v-6h-2.2V0h2.2ZM63.1-6.42,64-9.86V0h1.98V-14H63.56l-1.8,5.78-.8,3.08V-14H59V0h2.26ZM67.54,0H73.3V1.88h2.14V-1.96h-.96V-14H72.24V-2h-2.5V-14h-2.2ZM5.16,21.44C5.16,25.48.8,26.16.8,30.28V32H7.16V30H3a1.514,1.514,0,0,1-.02-.3c0-2.3,4.38-3.94,4.38-8.34,0-2.24-1.12-3.52-3.28-3.52S.8,19.12.8,21.36v1.36H2.88v-1.5c0-1,.44-1.38,1.14-1.38S5.16,20.18,5.16,21.44Zm5.58-.22c0-1,.44-1.38,1.14-1.38s1.14.38,1.14,1.38v7.56c0,1-.44,1.38-1.14,1.38s-1.14-.38-1.14-1.38Zm-2.2,7.42c0,2.24,1.18,3.52,3.34,3.52s3.34-1.28,3.34-3.52V21.36c0-2.24-1.18-3.52-3.34-3.52s-3.34,1.28-3.34,3.52ZM18,21.32h1.7V32h2.2V18H20.42A2.179,2.179,0,0,1,18,19.76Zm6.46,6.16v1.16c0,2.24,1.12,3.52,3.28,3.52s3.28-1.28,3.28-3.52V25.52c0-2.06-.82-3.2-2.44-3.2a2.1,2.1,0,0,0-1.92,1.02L26.84,20h3.82V18h-5.8l-.4,8.12h2.08V25.7c0-1,.44-1.38,1.14-1.38s1.14.38,1.14,1.38v3.08c0,1-.44,1.36-1.14,1.36s-1.14-.36-1.14-1.36v-1.3Z" transform="translate(-3348 -636) rotate(90)" fill="#948f9a"/><path d="M5.1-5.22v2c0,1-.44,1.36-1.14,1.36S2.82-2.22,2.82-3.22v-7.56c0-1,.44-1.38,1.14-1.38s1.14.38,1.14,1.38v1.5H7.18v-1.36c0-2.24-1.12-3.52-3.28-3.52S.62-12.88.62-10.64v7.28C.62-1.12,1.74.16,3.9.16S7.18-1.12,7.18-3.36V-5.22ZM15.76-14h-2.3l-1,4.8-.52,3.26-.68-3.28L10.06-14H7.88L10.92-3.2l-.02.12c-.18,1.02-.82,1.22-1.94,1.14V.02c3.06.2,3.92-1.06,4.44-3.58Zm3.12,2h2.5V0h2.24V-14H16.68V0h2.2Zm8.54,0h3.8v-2h-6V0h6V-2h-3.8V-6.1h3.02v-2H27.42Zm8.4-2H32.58V0h2.2V-5.26h1.04c2.2,0,3.28-1.22,3.28-3.46v-1.82C39.1-12.78,38.02-14,35.82-14Zm0,2c.7,0,1.08.32,1.08,1.32v2.1c0,1-.38,1.32-1.08,1.32H34.78V-12Zm7.8,12c2.2,0,3.32-1.22,3.32-3.46v-1.5c0-2.24-1.12-3.46-3.32-3.46H42.34V-12H46.3v-2H40.14V0ZM42.34-2V-6.42h1.28c.7,0,1.12.32,1.12,1.32v1.78c0,1-.42,1.32-1.12,1.32Zm8.1-8.78c0-1,.44-1.38,1.14-1.38s1.14.38,1.14,1.38v7.56c0,1-.44,1.38-1.14,1.38s-1.14-.38-1.14-1.38Zm-2.2,7.42c0,2.24,1.18,3.52,3.34,3.52s3.34-1.28,3.34-3.52v-7.28c0-2.24-1.18-3.52-3.34-3.52s-3.34,1.28-3.34,3.52ZM59.84,0c2.2,0,3.32-1.22,3.32-3.46v-1.5c0-2.24-1.12-3.46-3.32-3.46H58.56V-12h3.96v-2H56.36V0ZM58.56-2V-6.42h1.28c.7,0,1.12.32,1.12,1.32v1.78c0,1-.42,1.32-1.12,1.32Zm9.32-12H64.64V0h2.2V-5.26h1.04c2.2,0,3.28-1.22,3.28-3.46v-1.82C71.16-12.78,70.08-14,67.88-14Zm0,2c.7,0,1.08.32,1.08,1.32v2.1c0,1-.38,1.32-1.08,1.32H66.84V-12Zm6.32,1.22c0-1,.44-1.38,1.14-1.38s1.14.38,1.14,1.38v7.56c0,1-.44,1.38-1.14,1.38S74.2-2.22,74.2-3.22ZM72-3.36C72-1.12,73.18.16,75.34.16s3.34-1.28,3.34-3.52v-7.28c0-2.24-1.18-3.52-3.34-3.52S72-12.88,72-10.64ZM83.42-14H80.1V0h3.46c2.2,0,3.34-1.16,3.34-3.32V-4.46c0-1.48-.46-2.54-1.64-3,.98-.46,1.42-1.38,1.42-2.82v-.5C86.68-12.94,85.7-14,83.42-14Zm-.14,7.7c1,0,1.42.4,1.42,1.7v1.22C84.7-2.34,84.3-2,83.56-2H82.3V-6.3Zm.08-5.7c.78,0,1.12.44,1.12,1.44v.78c0,1.12-.5,1.48-1.32,1.48H82.3V-12Zm8.1,12c2.2,0,3.28-1.22,3.28-3.46V-5.28c0-2.24-1.08-3.46-3.28-3.46H90.42V-14h-2.2V0ZM90.42-2V-6.74h1.04c.7,0,1.08.32,1.08,1.32v2.1c0,1-.38,1.32-1.08,1.32ZM98.2,0V-14H96V0Zm9.06-10.56c0,4.04-4.36,4.72-4.36,8.84V0h6.36V-2H105.1a1.514,1.514,0,0,1-.02-.3c0-2.3,4.38-3.94,4.38-8.34,0-2.24-1.12-3.52-3.28-3.52s-3.28,1.28-3.28,3.52v1.36h2.08v-1.5c0-1,.44-1.38,1.14-1.38S107.26-11.82,107.26-10.56Zm-102.1,32C5.16,25.48.8,26.16.8,30.28V32H7.16V30H3a1.514,1.514,0,0,1-.02-.3c0-2.3,4.38-3.94,4.38-8.34,0-2.24-1.12-3.52-3.28-3.52S.8,19.12.8,21.36v1.36H2.88v-1.5c0-1,.44-1.38,1.14-1.38S5.16,20.18,5.16,21.44Zm5.58-.22c0-1,.44-1.38,1.14-1.38s1.14.38,1.14,1.38v7.56c0,1-.44,1.38-1.14,1.38s-1.14-.38-1.14-1.38Zm-2.2,7.42c0,2.24,1.18,3.52,3.34,3.52s3.34-1.28,3.34-3.52V21.36c0-2.24-1.18-3.52-3.34-3.52s-3.34,1.28-3.34,3.52ZM18,21.32h1.7V32h2.2V18H20.42A2.179,2.179,0,0,1,18,19.76Zm13.16,7.32v-1.1a3.076,3.076,0,0,0-1.36-2.92,2.941,2.941,0,0,0,1.36-2.82v-.44c0-2.24-1.22-3.52-3.44-3.52s-3.44,1.28-3.44,3.52v.44a2.905,2.905,0,0,0,1.36,2.82,3.076,3.076,0,0,0-1.36,2.92v1.1c0,2.24,1.22,3.52,3.44,3.52S31.16,30.88,31.16,28.64Zm-4.68-.06v-1.3c0-1.1.46-1.58,1.24-1.58s1.24.48,1.24,1.58v1.3c-.02,1.24-.54,1.58-1.24,1.58S26.48,29.82,26.48,28.58Zm0-7.14c0-1.26.54-1.6,1.24-1.6s1.24.34,1.24,1.6v.78c0,1.12-.54,1.48-1.24,1.48-.72,0-1.24-.36-1.24-1.48Z" transform="translate(-3348 -393) rotate(90)" fill="#948f9a"/><path d="M5.28-14v5.68c0,.94-.44,1.44-1.14,1.44A1.236,1.236,0,0,1,2.86-8.26V-14H.66v5.92c0,1.92.94,3.22,2.74,3.22a2.72,2.72,0,0,0,1.88-.78V0h2.2V-14Zm6.02,2h3.8v-2h-6V0h6V-2H11.3V-6.1h3.02v-2H11.3Zm8.4-2H16.46V0h2.2V-5.26H19.7c2.2,0,3.28-1.22,3.28-3.46v-1.82C22.98-12.78,21.9-14,19.7-14Zm0,2c.7,0,1.08.32,1.08,1.32v2.1c0,1-.38,1.32-1.08,1.32H18.66V-12Zm6.5,6h2.5V0h2.24V-14H28.7v6H26.2v-6H24V0h2.2Zm8.36-4.78c0-1,.44-1.38,1.14-1.38s1.14.38,1.14,1.38v7.56c0,1-.44,1.38-1.14,1.38s-1.14-.38-1.14-1.38Zm-2.2,7.42c0,2.24,1.18,3.52,3.34,3.52s3.34-1.28,3.34-3.52v-7.28c0-2.24-1.18-3.52-3.34-3.52s-3.34,1.28-3.34,3.52ZM43.78-14H40.46V0h3.46c2.2,0,3.34-1.16,3.34-3.32V-4.46c0-1.48-.46-2.54-1.64-3,.98-.46,1.42-1.38,1.42-2.82v-.5C47.04-12.94,46.06-14,43.78-14Zm-.14,7.7c1,0,1.42.4,1.42,1.7v1.22c0,1.04-.4,1.38-1.14,1.38H42.66V-6.3Zm.08-5.7c.78,0,1.12.44,1.12,1.44v.78c0,1.12-.5,1.48-1.32,1.48h-.86V-12Zm8.96,5.58.9-3.44V0h1.98V-14H53.14l-1.8,5.78-.8,3.08V-14H48.58V0h2.26ZM62.14,0H64.4L61.34-7.76,64.4-14H62.2L59.32-7.9V-14h-2.2V0h2.2V-4.3L60-5.58ZM5.16,21.44C5.16,25.48.8,26.16.8,30.28V32H7.16V30H3a1.514,1.514,0,0,1-.02-.3c0-2.3,4.38-3.94,4.38-8.34,0-2.24-1.12-3.52-3.28-3.52S.8,19.12.8,21.36v1.36H2.88v-1.5c0-1,.44-1.38,1.14-1.38S5.16,20.18,5.16,21.44Zm5.58-.22c0-1,.44-1.38,1.14-1.38s1.14.38,1.14,1.38v7.56c0,1-.44,1.38-1.14,1.38s-1.14-.38-1.14-1.38Zm-2.2,7.42c0,2.24,1.18,3.52,3.34,3.52s3.34-1.28,3.34-3.52V21.36c0-2.24-1.18-3.52-3.34-3.52s-3.34,1.28-3.34,3.52ZM18,21.32h1.7V32h2.2V18H20.42A2.179,2.179,0,0,1,18,19.76Zm13.16,7.32v-1.1a3.076,3.076,0,0,0-1.36-2.92,2.941,2.941,0,0,0,1.36-2.82v-.44c0-2.24-1.22-3.52-3.44-3.52s-3.44,1.28-3.44,3.52v.44a2.905,2.905,0,0,0,1.36,2.82,3.076,3.076,0,0,0-1.36,2.92v1.1c0,2.24,1.22,3.52,3.44,3.52S31.16,30.88,31.16,28.64Zm-4.68-.06v-1.3c0-1.1.46-1.58,1.24-1.58s1.24.48,1.24,1.58v1.3c-.02,1.24-.54,1.58-1.24,1.58S26.48,29.82,26.48,28.58Zm0-7.14c0-1.26.54-1.6,1.24-1.6s1.24.34,1.24,1.6v.78c0,1.12-.54,1.48-1.24,1.48-.72,0-1.24-.36-1.24-1.48Z" transform="translate(-3348 -239) rotate(90)" fill="#948f9a"/><path d="M5.28-14v5.68c0,.94-.44,1.44-1.14,1.44A1.236,1.236,0,0,1,2.86-8.26V-14H.66v5.92c0,1.92.94,3.22,2.74,3.22a2.72,2.72,0,0,0,1.88-.78V0h2.2V-14Zm6.02,2h3.8v-2h-6V0h6V-2H11.3V-6.1h3.02v-2H11.3Zm8.2-2H16.44V0h1.92V-9.9L20,0h2.08L23.6-10.04V0h2.08V-14H22.62l-1.5,9.94Zm9.98,2h2.5V0h2.24V-14H27.28V0h2.2ZM39.92-6.42l.9-3.44V0H42.8V-14H40.38l-1.8,5.78-.8,3.08V-14H35.82V0h2.26Zm6.46-4.36c0-1,.44-1.38,1.14-1.38s1.14.38,1.14,1.38v7.56c0,1-.44,1.38-1.14,1.38s-1.14-.38-1.14-1.38Zm-2.2,7.42c0,2.24,1.18,3.52,3.34,3.52s3.34-1.28,3.34-3.52v-7.28c0-2.24-1.18-3.52-3.34-3.52s-3.34,1.28-3.34,3.52ZM54.48-6h2.5V0h2.24V-14H56.98v6h-2.5v-6h-2.2V0h2.2Zm9.58,6c2.2,0,3.28-1.22,3.28-3.46V-5.28c0-2.24-1.08-3.46-3.28-3.46H63.02V-14h-2.2V0ZM63.02-2V-6.74h1.04c.7,0,1.08.32,1.08,1.32v2.1c0,1-.38,1.32-1.08,1.32ZM70.8,0V-14H68.6V0ZM5.16,21.44C5.16,25.48.8,26.16.8,30.28V32H7.16V30H3a1.514,1.514,0,0,1-.02-.3c0-2.3,4.38-3.94,4.38-8.34,0-2.24-1.12-3.52-3.28-3.52S.8,19.12.8,21.36v1.36H2.88v-1.5c0-1,.44-1.38,1.14-1.38S5.16,20.18,5.16,21.44Zm5.58-.22c0-1,.44-1.38,1.14-1.38s1.14.38,1.14,1.38v7.56c0,1-.44,1.38-1.14,1.38s-1.14-.38-1.14-1.38Zm-2.2,7.42c0,2.24,1.18,3.52,3.34,3.52s3.34-1.28,3.34-3.52V21.36c0-2.24-1.18-3.52-3.34-3.52s-3.34,1.28-3.34,3.52ZM18,21.32h1.7V32h2.2V18H20.42A2.179,2.179,0,0,1,18,19.76Zm6.04,8.14h4.24V32h2.16V29.46h1.04v-2H30.44V18h-2.4l-4,9.46Zm2.02-2,2.22-5.26v5.26Z" transform="translate(-3348 -166) rotate(90)" fill="#948f9a"/><path d="M5.04-9.78c0,1.12-.5,1.48-1.32,1.48H3.06v2H3.6c1,0,1.44.48,1.44,1.78v1.1c0,1.24-.44,1.58-1.14,1.58S2.76-2.22,2.76-3.22V-4.9H.68v1.54C.68-1.12,1.8.16,3.96.16S7.24-1.12,7.24-3.36v-1.1c0-1.42-.44-2.46-1.54-2.94,1.06-.44,1.54-1.38,1.54-2.88v-.36c0-2.24-1.12-3.52-3.28-3.52S.72-12.92.72-10.68v1.04H2.74v-1.14c0-1,.46-1.38,1.16-1.38s1.14.34,1.14,1.6ZM10.92-12h3.8v-2h-6V0h6V-2h-3.8V-6.1h3.02v-2H10.92Zm8.2-2H16.06V0h1.92V-9.9L19.62,0H21.7l1.52-10.04V0H25.3V-14H22.24l-1.5,9.94ZM26.28.02h.34c2.2,0,3.12-1,3.2-3.56L30.06-12h1.92V0h2.24V-14H28L27.64-3.42c-.04,1.3-.36,1.44-1.36,1.44ZM38.1-12h3.8v-2h-6V0h6V-2H38.1V-6.1h3.02v-2H38.1Zm4.52,0h2.3V0h2.2V-12h2.3v-2h-6.8Zm11-2H50.38V0h2.2V-5.26h1.04c2.2,0,3.28-1.22,3.28-3.46v-1.82C56.9-12.78,55.82-14,53.62-14Zm0,2c.7,0,1.08.32,1.08,1.32v2.1c0,1-.38,1.32-1.08,1.32H52.58V-12ZM59.76,0a4.306,4.306,0,0,0,.2-1.72v-2.2c0-1.3.44-1.78,1.44-1.78h.76V0h2.2V-14H61.04c-2.28,0-3.26,1.06-3.26,3.22v1.1a2.791,2.791,0,0,0,1.44,2.84c-1.1.46-1.46,1.52-1.46,2.98V-1.7A4.123,4.123,0,0,1,57.52,0Zm2.4-12v4.3H61.3c-.82,0-1.32-.36-1.32-1.48v-1.38c0-1,.34-1.44,1.12-1.44Zm8.1,6.78v2c0,1-.44,1.36-1.14,1.36s-1.14-.36-1.14-1.36v-7.56c0-1,.44-1.38,1.14-1.38s1.14.38,1.14,1.38v1.5h2.08v-1.36c0-2.24-1.12-3.52-3.28-3.52s-3.28,1.28-3.28,3.52v7.28c0,2.24,1.12,3.52,3.28,3.52s3.28-1.28,3.28-3.52V-5.22ZM75.88-12h3.8v-2h-6V0h6V-2h-3.8V-6.1H78.9v-2H75.88Zm7.36,6h2.5V0h2.24V-14H85.74v6h-2.5v-6h-2.2V0h2.2Zm10.44-.42.9-3.44V0h1.98V-14H94.14l-1.8,5.78-.8,3.08V-14H89.58V0h2.26ZM100.32-12h3.8v-2h-6V0h6V-2h-3.8V-6.1h3.02v-2h-3.02ZM5.16,21.44C5.16,25.48.8,26.16.8,30.28V32H7.16V30H3a1.514,1.514,0,0,1-.02-.3c0-2.3,4.38-3.94,4.38-8.34,0-2.24-1.12-3.52-3.28-3.52S.8,19.12.8,21.36v1.36H2.88v-1.5c0-1,.44-1.38,1.14-1.38S5.16,20.18,5.16,21.44Zm5.58-.22c0-1,.44-1.38,1.14-1.38s1.14.38,1.14,1.38v7.56c0,1-.44,1.38-1.14,1.38s-1.14-.38-1.14-1.38Zm-2.2,7.42c0,2.24,1.18,3.52,3.34,3.52s3.34-1.28,3.34-3.52V21.36c0-2.24-1.18-3.52-3.34-3.52s-3.34,1.28-3.34,3.52ZM18,21.32h1.7V32h2.2V18H20.42A2.179,2.179,0,0,1,18,19.76Zm6.42,7.32c0,2.24,1.18,3.52,3.34,3.52s3.34-1.28,3.34-3.52V26.08c0-2.06-.82-3.2-2.44-3.2a2.094,2.094,0,0,0-2.04,1.24V21.56c0-1.34.44-1.72,1.22-1.72.7,0,1.14.38,1.14,1.38v.5h2.08v-.36c0-2.24-1.12-3.52-3.28-3.52-2.28,0-3.36,1.28-3.36,3.64Zm3.34-3.76c.7,0,1.14.38,1.14,1.38v2.52c0,1-.44,1.36-1.14,1.36s-1.14-.36-1.14-1.36V26.26C26.62,25.26,27.06,24.88,27.76,24.88Z" transform="translate(-3348 -11) rotate(90)" fill="#948f9a"/><path d="M.18.02H.52c2.2,0,3.12-1,3.2-3.56L3.96-12H5.88V0H8.12V-14H1.9L1.54-3.42C1.5-2.12,1.18-1.98.18-1.98ZM12-12h3.8v-2h-6V0h6V-2H12V-6.1h3.02v-2H12Zm-1.7-4.66v1.92h1.92v-1.92Zm3.04,0v1.92h1.92v-1.92ZM19.38,0V-12h3.6v-2h-5.8V0Zm7.1-10.78c0-1,.44-1.38,1.14-1.38s1.14.38,1.14,1.38v7.56c0,1-.44,1.38-1.14,1.38s-1.14-.38-1.14-1.38Zm-2.2,7.42c0,2.24,1.18,3.52,3.34,3.52s3.34-1.28,3.34-3.52v-7.28c0-2.24-1.18-3.52-3.34-3.52s-3.34,1.28-3.34,3.52ZM37.4,0h2.26L36.6-7.76,39.66-14h-2.2L34.58-7.9V-14h-2.2V0h2.2V-4.3l.68-1.28Zm8.56-6h2.5V0H50.7V-14H48.46v6h-2.5v-6h-2.2V0h2.2Zm11.22-8H53.96L51.72,0h2.02l.38-2.54h2.7L57.2,0h2.22Zm-1.72,2.48,1.06,7.08H54.4ZM65.74-12h2.5V0h2.24V-14H63.54V0h2.2Zm8.36,1.22c0-1,.44-1.38,1.14-1.38s1.14.38,1.14,1.38v7.56c0,1-.44,1.38-1.14,1.38S74.1-2.22,74.1-3.22ZM71.9-3.36c0,2.24,1.18,3.52,3.34,3.52s3.34-1.28,3.34-3.52v-7.28c0-2.24-1.18-3.52-3.34-3.52s-3.34,1.28-3.34,3.52ZM83.04-14H79.98V0H81.9V-9.9L83.54,0h2.08l1.52-10.04V0h2.08V-14H86.16l-1.5,9.94ZM94.92-6.42l.9-3.44V0H97.8V-14H95.38l-1.8,5.78-.8,3.08V-14H90.82V0h2.26Zm6.64.42h2.5V0h2.24V-14h-2.24v6h-2.5v-6h-2.2V0h2.2Zm8.54-6h3.8v-2h-6V0h6V-2h-3.8V-6.1h3.02v-2H110.1ZM5.16,21.44C5.16,25.48.8,26.16.8,30.28V32H7.16V30H3a1.514,1.514,0,0,1-.02-.3c0-2.3,4.38-3.94,4.38-8.34,0-2.24-1.12-3.52-3.28-3.52S.8,19.12.8,21.36v1.36H2.88v-1.5c0-1,.44-1.38,1.14-1.38S5.16,20.18,5.16,21.44Zm5.58-.22c0-1,.44-1.38,1.14-1.38s1.14.38,1.14,1.38v7.56c0,1-.44,1.38-1.14,1.38s-1.14-.38-1.14-1.38Zm-2.2,7.42c0,2.24,1.18,3.52,3.34,3.52s3.34-1.28,3.34-3.52V21.36c0-2.24-1.18-3.52-3.34-3.52s-3.34,1.28-3.34,3.52ZM18,21.32h1.7V32h2.2V18H20.42A2.179,2.179,0,0,1,18,19.76Zm6.04,8.14h4.24V32h2.16V29.46h1.04v-2H30.44V18h-2.4l-4,9.46Zm2.02-2,2.22-5.26v5.26Z" transform="translate(-3348 123) rotate(90)" fill="#948f9a"/><path d="M5.1-5.22v2c0,1-.44,1.36-1.14,1.36S2.82-2.22,2.82-3.22v-7.56c0-1,.44-1.38,1.14-1.38s1.14.38,1.14,1.38v1.5H7.18v-1.36c0-2.24-1.12-3.52-3.28-3.52S.62-12.88.62-10.64v7.28C.62-1.12,1.74.16,3.9.16S7.18-1.12,7.18-3.36V-5.22ZM10.72-12h2.5V0h2.24V-14H8.52V0h2.2Zm11.22-2H18.72L16.48,0H18.5l.38-2.54h2.7L21.96,0h2.22Zm-1.72,2.48,1.06,7.08H19.16Zm9.28,6.3v2c0,1-.44,1.36-1.14,1.36s-1.14-.36-1.14-1.36v-7.56c0-1,.44-1.38,1.14-1.38s1.14.38,1.14,1.38v1.5h2.08v-1.36c0-2.24-1.12-3.52-3.28-3.52s-3.28,1.28-3.28,3.52v7.28c0,2.24,1.12,3.52,3.28,3.52s3.28-1.28,3.28-3.52V-5.22ZM32.28-12h2.3V0h2.2V-12h2.3v-2h-6.8ZM44.14-6.42l.9-3.44V0h1.98V-14H44.6L42.8-8.22,42-5.14V-14H40.04V0H42.3ZM51.06.02h.34c2.2,0,3.12-1,3.2-3.56L54.84-12h1.92V0H59V-14H52.78L52.42-3.42c-.04,1.3-.36,1.44-1.36,1.44ZM62.88-12h3.8v-2h-6V0h6V-2h-3.8V-6.1H65.9v-2H62.88Zm7.36,6h2.5V0h2.24V-14H72.74v6h-2.5v-6h-2.2V0h2.2Zm10.44-.42.9-3.44V0h1.98V-14H81.14l-1.8,5.78-.8,3.08V-14H76.58V0h2.26ZM87.32-6h2.5V0h2.24V-14H89.82v6h-2.5v-6h-2.2V0h2.2Zm8.56,6V-12h3.6v-2h-5.8V0Zm8.32-14h-3.24V0h2.2V-5.26h1.04c2.2,0,3.28-1.22,3.28-3.46v-1.82C107.48-12.78,106.4-14,104.2-14Zm0,2c.7,0,1.08.32,1.08,1.32v2.1c0,1-.38,1.32-1.08,1.32h-1.04V-12Zm9.18-2h-3.22L107.92,0h2.02l.38-2.54h2.7L113.4,0h2.22Zm-1.72,2.48,1.06,7.08H110.6Zm13.52,13.4V-1.96h-.96V-14h-6.16l-.5,10.22a2.9,2.9,0,0,1-.54,1.82h-.86V1.88h2.14V0H123V1.88ZM120.12-12h1.86V-1.96H119.1a2.48,2.48,0,0,0,.62-1.86ZM5.16,21.44C5.16,25.48.8,26.16.8,30.28V32H7.16V30H3a1.514,1.514,0,0,1-.02-.3c0-2.3,4.38-3.94,4.38-8.34,0-2.24-1.12-3.52-3.28-3.52S.8,19.12.8,21.36v1.36H2.88v-1.5c0-1,.44-1.38,1.14-1.38S5.16,20.18,5.16,21.44Zm5.58-.22c0-1,.44-1.38,1.14-1.38s1.14.38,1.14,1.38v7.56c0,1-.44,1.38-1.14,1.38s-1.14-.38-1.14-1.38Zm-2.2,7.42c0,2.24,1.18,3.52,3.34,3.52s3.34-1.28,3.34-3.52V21.36c0-2.24-1.18-3.52-3.34-3.52s-3.34,1.28-3.34,3.52ZM18,21.32h1.7V32h2.2V18H20.42A2.179,2.179,0,0,1,18,19.76Zm13.02.04c0-2.24-1.18-3.52-3.34-3.52s-3.34,1.28-3.34,3.52v2.56c0,2.06.82,3.2,2.44,3.2a2.094,2.094,0,0,0,2.04-1.24v2.56c0,1.34-.44,1.72-1.22,1.72-.7,0-1.14-.38-1.14-1.38v-.5H24.38v.36c0,2.24,1.12,3.52,3.28,3.52,2.28,0,3.36-1.28,3.36-3.64Zm-3.34,3.76c-.7,0-1.14-.38-1.14-1.38V21.22c0-1,.44-1.36,1.14-1.36s1.14.36,1.14,1.36v2.52C28.82,24.74,28.38,25.12,27.68,25.12Z" transform="translate(-3348 253) rotate(90)" fill="#948f9a"/><path d="M4.3,0C6.5,0,7.62-1.22,7.62-3.46v-1.5C7.62-7.2,6.5-8.42,4.3-8.42H3.02V-12H6.98v-2H.82V0ZM3.02-2V-6.42H4.3c.7,0,1.12.32,1.12,1.32v1.78C5.42-2.32,5-2,4.3-2Zm8.1-8.78c0-1,.44-1.38,1.14-1.38s1.14.38,1.14,1.38v7.56c0,1-.44,1.38-1.14,1.38s-1.14-.38-1.14-1.38ZM8.92-3.36C8.92-1.12,10.1.16,12.26.16S15.6-1.12,15.6-3.36v-7.28c0-2.24-1.18-3.52-3.34-3.52s-3.34,1.28-3.34,3.52ZM16.4.02h.34c2.2,0,3.12-1,3.2-3.56L20.18-12H22.1V0h2.24V-14H18.12L17.76-3.42c-.04,1.3-.36,1.44-1.36,1.44ZM29.26,0c2.2,0,3.28-1.22,3.28-3.46V-5.28c0-2.24-1.08-3.46-3.28-3.46H28.22V-14h-2.2V0ZM28.22-2V-6.74h1.04c.7,0,1.08.32,1.08,1.32v2.1c0,1-.38,1.32-1.08,1.32ZM44.26,0V-14h-2.2V-2h-1.9V-14h-2.2V-2h-1.9V-14h-2.2V0Zm3.62-10.78c0-1,.44-1.38,1.14-1.38s1.14.38,1.14,1.38v7.56c0,1-.44,1.38-1.14,1.38s-1.14-.38-1.14-1.38Zm-2.2,7.42c0,2.24,1.18,3.52,3.34,3.52s3.34-1.28,3.34-3.52v-7.28c0-2.24-1.18-3.52-3.34-3.52s-3.34,1.28-3.34,3.52ZM56.04,0H53.78V-14h1.96v8.86l.8-3.08L58.34-14h2.42V0H58.78V-9.86l-.9,3.44Zm3.6-17.12A2.067,2.067,0,0,1,57.3-14.9,2.064,2.064,0,0,1,55-17.12h1.36c.06.74.36.92.94.92.6,0,.94-.18,1-.92ZM5.16,21.44C5.16,25.48.8,26.16.8,30.28V32H7.16V30H3a1.514,1.514,0,0,1-.02-.3c0-2.3,4.38-3.94,4.38-8.34,0-2.24-1.12-3.52-3.28-3.52S.8,19.12.8,21.36v1.36H2.88v-1.5c0-1,.44-1.38,1.14-1.38S5.16,20.18,5.16,21.44Zm5.58-.22c0-1,.44-1.38,1.14-1.38s1.14.38,1.14,1.38v7.56c0,1-.44,1.38-1.14,1.38s-1.14-.38-1.14-1.38Zm-2.2,7.42c0,2.24,1.18,3.52,3.34,3.52s3.34-1.28,3.34-3.52V21.36c0-2.24-1.18-3.52-3.34-3.52s-3.34,1.28-3.34,3.52ZM18,21.32h1.7V32h2.2V18H20.42A2.179,2.179,0,0,1,18,19.76ZM24.42,18v2H28.8L25.58,32h2.2l3.24-12.08V18Z" transform="translate(-3348 668) rotate(90)" fill="#948f9a"/><path d="M3-12H5.5V0H7.74V-14H.8V0H3Zm8.36,1.22c0-1,.44-1.38,1.14-1.38s1.14.38,1.14,1.38v7.56c0,1-.44,1.38-1.14,1.38s-1.14-.38-1.14-1.38ZM9.16-3.36C9.16-1.12,10.34.16,12.5.16s3.34-1.28,3.34-3.52v-7.28c0-2.24-1.18-3.52-3.34-3.52s-3.34,1.28-3.34,3.52ZM25.8,1.88V-1.96h-.96V-14H18.68l-.5,10.22a2.9,2.9,0,0,1-.54,1.82h-.86V1.88h2.14V0h4.7V1.88ZM20.74-12H22.6V-1.96H19.72a2.48,2.48,0,0,0,.62-1.86ZM35.56,1.88V-1.96H34.6V-14H28.44l-.5,10.22a2.9,2.9,0,0,1-.54,1.82h-.86V1.88h2.14V0h4.7V1.88ZM30.5-12h1.86V-1.96H29.48a2.48,2.48,0,0,0,.62-1.86Zm13.52-2h-2.3l-1,4.8L40.2-5.94l-.68-3.28L38.32-14H36.14L39.18-3.2l-.02.12c-.18,1.02-.82,1.22-1.94,1.14V.02c3.06.2,3.92-1.06,4.44-3.58ZM48.44,0c2.2,0,3.32-1.22,3.32-3.46v-1.5c0-2.24-1.12-3.46-3.32-3.46H47.16V-12h3.96v-2H44.96V0ZM47.16-2V-6.42h1.28c.7,0,1.12.32,1.12,1.32v1.78c0,1-.42,1.32-1.12,1.32Zm8.28-4h2.5V0h2.24V-14H57.94v6h-2.5v-6h-2.2V0h2.2Zm9.58,6c2.2,0,3.28-1.22,3.28-3.46V-5.28c0-2.24-1.08-3.46-3.28-3.46H63.98V-14h-2.2V0ZM63.98-2V-6.74h1.04c.7,0,1.08.32,1.08,1.32v2.1c0,1-.38,1.32-1.08,1.32Zm7.78,2V-14h-2.2V0Zm3.86,0H73.36V-14h1.96v8.86l.8-3.08L77.92-14h2.42V0H78.36V-9.86l-.9,3.44Zm3.6-17.12a2.067,2.067,0,0,1-2.34,2.22,2.064,2.064,0,0,1-2.3-2.22h1.36c.06.74.36.92.94.92.6,0,.94-.18,1-.92Zm7.08,6.56c0,4.04-4.36,4.72-4.36,8.84V0H88.3V-2H84.14a1.514,1.514,0,0,1-.02-.3c0-2.3,4.38-3.94,4.38-8.34,0-2.24-1.12-3.52-3.28-3.52s-3.28,1.28-3.28,3.52v1.36h2.08v-1.5c0-1,.44-1.38,1.14-1.38S86.3-11.82,86.3-10.56Zm5.58-.22c0-1,.44-1.38,1.14-1.38s1.14.38,1.14,1.38v7.56c0,1-.44,1.38-1.14,1.38s-1.14-.38-1.14-1.38Zm-2.2,7.42c0,2.24,1.18,3.52,3.34,3.52s3.34-1.28,3.34-3.52v-7.28c0-2.24-1.18-3.52-3.34-3.52s-3.34,1.28-3.34,3.52Zm9.46-7.32h1.7V0h2.2V-14h-1.48a2.179,2.179,0,0,1-2.42,1.76ZM105.56-14v2h4.38L106.72,0h2.2l3.24-12.08V-14Z" transform="translate(-3348 800) rotate(90)" fill="#948f9a"/></g></svg>