<svg xmlns="http://www.w3.org/2000/svg" width="14979" height="37" viewBox="0 0 14979 37"><g transform="translate(-286 4774) rotate(-90)"><g transform="translate(5818 12255)"><text transform="translate(-1058 -1363) rotate(90)" fill="#2a2547" font-size="14" font-family="Helvetica-Bold, Helvetica" font-weight="700" opacity="0.5"><tspan x="-55.228" y="0">Экипаж</tspan><tspan x="-31.145" y="20">2016</tspan></text><text transform="translate(-1058 -409) rotate(90)" fill="#2a2547" font-size="14" font-family="Helvetica-Bold, Helvetica" font-weight="700" opacity="0.5"><tspan x="-50.531" y="0">Викинг</tspan><tspan x="-31.145" y="20">2016</tspan></text><text transform="translate(-1058 778) rotate(90)" fill="#2a2547" font-size="14" font-family="Helvetica-Bold, Helvetica" font-weight="700" opacity="0.5"><tspan x="-26.824" y="0">Лёд</tspan><tspan x="-31.145" y="20">2018</tspan></text><text transform="translate(-1058 2047) rotate(90)" fill="#2a2547" font-size="14" font-family="Helvetica-Bold, Helvetica" font-weight="700" opacity="0.5"><tspan x="-349.822" y="0">Полицейский с Рублёвки. Новогодний беспредел</tspan><tspan x="-31.145" y="20">2018</tspan></text><text transform="translate(-1058 2573) rotate(90)" fill="#2a2547" font-size="14" font-family="Helvetica-Bold, Helvetica" font-weight="700" opacity="0.5"><tspan x="-147.889" y="0">Последний богатырь</tspan><tspan x="-31.145" y="20">2017</tspan></text><text transform="translate(-1055 2773) rotate(90)" fill="#2a2547" font-size="14" font-family="Helvetica-Bold, Helvetica" font-weight="700" opacity="0.5"><tspan x="-28.021" y="0">T-34</tspan><tspan x="-31.145" y="20">2019</tspan></text><text transform="translate(-1055 3010) rotate(90)" fill="#2a2547" font-size="14" font-family="Helvetica-Bold, Helvetica" font-weight="700" opacity="0.5"><tspan x="-116.272" y="0">Движение вверх</tspan><tspan x="-31.145" y="20">2017</tspan></text><g transform="translate(0 -14391)"><text transform="translate(-1058 2574) rotate(90)" fill="#2a2547" font-size="14" font-family="Helvetica-Bold, Helvetica" font-weight="700" opacity="0.5"><tspan x="-97.262" y="0">Ночная смена</tspan><tspan x="-31.145" y="20">2018</tspan></text><text transform="translate(-1058 2826) rotate(90)" fill="#2a2547" font-size="14" font-family="Helvetica-Bold, Helvetica" font-weight="700" opacity="0.5"><tspan x="-68.441" y="0">Напарник</tspan><tspan x="-31.145" y="20">2017</tspan></text><text transform="translate(-1058 3067) rotate(90)" fill="#2a2547" font-size="14" font-family="Helvetica-Bold, Helvetica" font-weight="700" opacity="0.5"><tspan x="-135.358" y="0">8 лучших свиданий</tspan><tspan x="-31.145" y="20">2016</tspan></text><text transform="translate(-1058 3249) rotate(90)" fill="#2a2547" font-size="14" font-family="Helvetica-Bold, Helvetica" font-weight="700" opacity="0.5"><tspan x="-159.12" y="0">Подарок с характером</tspan><tspan x="-31.145" y="20">2014</tspan></text><text transform="translate(-1058 3425) rotate(90)" fill="#2a2547" font-size="14" font-family="Helvetica-Bold, Helvetica" font-weight="700" opacity="0.5"><tspan x="-130.368" y="0">Трезвый водитель</tspan><tspan x="-31.145" y="20">2019</tspan></text><text transform="translate(-1058 3530) rotate(90)" fill="#2a2547" font-size="14" font-family="Helvetica-Bold, Helvetica" font-weight="700" opacity="0.5"><tspan x="-84.581" y="0">Корпоратив</tspan><tspan x="-31.145" y="20">2014</tspan></text><path d="M6,0l6,6H0Z" transform="translate(-1067 2490) rotate(-90)" fill="#2a2647" opacity="0.5"/><path d="M6,0l6,6H0Z" transform="translate(-1067 2770) rotate(-90)" fill="#2a2647" opacity="0.5"/><path d="M6,0l6,6H0Z" transform="translate(-1067 2944) rotate(-90)" fill="#2a2647" opacity="0.5"/><path d="M6,0l6,6H0Z" transform="translate(-1067 3102) rotate(-90)" fill="#2a2647" opacity="0.5"/><path d="M6,0l6,6H0Z" transform="translate(-1067 3306) rotate(-90)" fill="#2a2647" opacity="0.5"/><path d="M6,0l6,6H0Z" transform="translate(-1067 3458) rotate(-90)" fill="#2a2647" opacity="0.5"/></g><g transform="translate(0 -13191)"><text transform="translate(-1058 2766) rotate(90)" fill="#2a2547" font-size="14" font-family="Helvetica-Bold, Helvetica" font-weight="700" opacity="0.5"><tspan x="-84.13" y="0">Гуляй, Вася</tspan><tspan x="-31.145" y="20">2017</tspan></text><text transform="translate(-1058 3018) rotate(90)" fill="#2a2547" font-size="14" font-family="Helvetica-Bold, Helvetica" font-weight="700" opacity="0.5"><tspan x="-181.576" y="0">В спорте только девушки</tspan><tspan x="-31.145" y="20">2014</tspan></text><text transform="translate(-1058 3159) rotate(90)" fill="#2a2547" font-size="14" font-family="Helvetica-Bold, Helvetica" font-weight="700" opacity="0.5"><tspan x="-84.123" y="0">Любовницы</tspan><tspan x="-31.145" y="20">2019</tspan></text><text transform="translate(-1058 3313) rotate(90)" fill="#2a2547" font-size="14" font-family="Helvetica-Bold, Helvetica" font-weight="700" opacity="0.5"><tspan x="-105.171" y="0">Супербобровы</tspan><tspan x="-31.145" y="20">2016</tspan></text><text transform="translate(-1058 3644) rotate(90)" fill="#2a2547" font-size="14" font-family="Helvetica-Bold, Helvetica" font-weight="700" opacity="0.5"><tspan x="-275.755" y="0">О чём говорят мужчины. Продолжение</tspan><tspan x="-31.145" y="20">2018</tspan></text><path d="M6,0l6,6H0Z" transform="translate(-1067 2694) rotate(-90)" fill="#2a2647" opacity="0.5"/><path d="M6,0l6,6H0Z" transform="translate(-1067 2850) rotate(-90)" fill="#2a2647" opacity="0.5"/><path d="M6,0l6,6H0Z" transform="translate(-1067 3087) rotate(-90)" fill="#2a2647" opacity="0.5"/><path d="M6,0l6,6H0Z" transform="translate(-1067 3220) rotate(-90)" fill="#2a2647" opacity="0.5"/><path d="M6,0l6,6H0Z" transform="translate(-1067 3380) rotate(-90)" fill="#2a2647" opacity="0.5"/></g><g transform="translate(0 -11991)"><text transform="translate(-1058 2699) rotate(90)" fill="#2a2547" font-size="14" font-family="Helvetica-Bold, Helvetica" font-weight="700" opacity="0.5"><tspan x="-200.628" y="0">Бабушка лёгкого поведения</tspan><tspan x="-31.145" y="20">2017</tspan></text><text transform="translate(-1058 2835) rotate(90)" fill="#2a2547" font-size="14" font-family="Helvetica-Bold, Helvetica" font-weight="700" opacity="0.5"><tspan x="-72.317" y="0">Млиилард</tspan><tspan x="-31.145" y="20">2019</tspan></text><text transform="translate(-1058 2956) rotate(90)" fill="#2a2547" font-size="14" font-family="Helvetica-Bold, Helvetica" font-weight="700" opacity="0.5"><tspan x="-59.104" y="0">Призрак</tspan><tspan x="-31.145" y="20">2015</tspan></text><text transform="translate(-1058 3206) rotate(90)" fill="#2a2547" font-size="14" font-family="Helvetica-Bold, Helvetica" font-weight="700" opacity="0.5"><tspan x="-64.812" y="0">Духless 2</tspan><tspan x="-31.145" y="20">2015</tspan></text><text transform="translate(-1058 3589) rotate(90)" fill="#2a2547" font-size="14" font-family="Helvetica-Bold, Helvetica" font-weight="700" opacity="0.5"><tspan x="-212.488" y="0">Бабушка лёгкого повеления 2</tspan><tspan x="-31.145" y="20">2019</tspan></text><path d="M6,0l6,6H0Z" transform="translate(-1067 2776) rotate(-90)" fill="#2a2647" opacity="0.5"/><path d="M6,0l6,6H0Z" transform="translate(-1067 2910) rotate(-90)" fill="#2a2647" opacity="0.5"/><path d="M6,0l6,6H0Z" transform="translate(-1067 3153) rotate(-90)" fill="#2a2647" opacity="0.5"/><path d="M6,0l6,6H0Z" transform="translate(-1067 3390) rotate(-90)" fill="#2a2647" opacity="0.5"/></g><g transform="translate(0 -10792)"><text transform="translate(-1058 2501) rotate(90)" fill="#2a2547" font-size="14" font-family="Helvetica-Bold, Helvetica" font-weight="700" opacity="0.5"><tspan x="-83.658" y="0">Гоголь. Вий</tspan><tspan x="-31.145" y="20">2018</tspan></text><text transform="translate(-1058 2704) rotate(90)" fill="#2a2547" font-size="14" font-family="Helvetica-Bold, Helvetica" font-weight="700" opacity="0.5"><tspan x="-46.676" y="0">Жених</tspan><tspan x="-31.145" y="20">2016</tspan></text><text transform="translate(-1058 2859) rotate(90)" fill="#2a2547" font-size="14" font-family="Helvetica-Bold, Helvetica" font-weight="700" opacity="0.5"><tspan x="-103.879" y="0">Громкая связь</tspan><tspan x="-31.145" y="20">2019</tspan></text><text transform="translate(-1058 3251) rotate(90)" fill="#2a2547" font-size="14" font-family="Helvetica-Bold, Helvetica" font-weight="700" opacity="0.5"><tspan x="-113.374" y="0">Кухня в Париже</tspan><tspan x="-31.145" y="20">2014</tspan></text><text transform="translate(-1058 3444) rotate(90)" fill="#2a2547" font-size="14" font-family="Helvetica-Bold, Helvetica" font-weight="700" opacity="0.5"><tspan x="-66.76" y="0">Горько! 2</tspan><tspan x="-31.145" y="20">2014</tspan></text><path d="M6,0l6,6H0Z" transform="translate(-1067 2430) rotate(-90)" fill="#2a2647" opacity="0.5"/><path d="M6,0l6,6H0Z" transform="translate(-1067 2669) rotate(-90)" fill="#2a2647" opacity="0.5"/><path d="M6,0l6,6H0Z" transform="translate(-1067 2766) rotate(-90)" fill="#2a2647" opacity="0.5"/><path d="M6,0l6,6H0Z" transform="translate(-1067 3150) rotate(-90)" fill="#2a2647" opacity="0.5"/><path d="M6,0l6,6H0Z" transform="translate(-1067 3390) rotate(-90)" fill="#2a2647" opacity="0.5"/></g><g transform="translate(0 -9593)"><text transform="translate(-1058 2568) rotate(90)" fill="#2a2547" font-size="14" font-family="Helvetica-Bold, Helvetica" font-weight="700" opacity="0.5"><tspan x="-149.352" y="0">Легенда о Коловрате</tspan><tspan x="-31.145" y="20">2017</tspan></text><text transform="translate(-1058 2957) rotate(90)" fill="#2a2547" font-size="14" font-family="Helvetica-Bold, Helvetica" font-weight="700" opacity="0.5"><tspan x="-57.996" y="0">Я худею</tspan><tspan x="-31.145" y="20">2018</tspan></text><text transform="translate(-1058 3280) rotate(90)" fill="#2a2547" font-size="14" font-family="Helvetica-Bold, Helvetica" font-weight="700" opacity="0.5"><tspan x="-142.454" y="0">Самый лучший день</tspan><tspan x="-31.145" y="20">2015</tspan></text><text transform="translate(-1058 3447) rotate(90)" fill="#2a2547" font-size="14" font-family="Helvetica-Bold, Helvetica" font-weight="700" opacity="0.5"><tspan x="-70.608" y="0">Ёлки 1914</tspan><tspan x="-31.145" y="20">2014</tspan></text><text transform="translate(-1058 3603) rotate(90)" fill="#2a2547" font-size="14" font-family="Helvetica-Bold, Helvetica" font-weight="700" opacity="0.5"><tspan x="-115.124" y="0">Ёлки последние</tspan><tspan x="-31.145" y="20">2018</tspan></text><path d="M6,0l6,6H0Z" transform="translate(-1067 2431) rotate(-90)" fill="#2a2647" opacity="0.5"/><path d="M6,0l6,6H0Z" transform="translate(-1067 2911) rotate(-90)" fill="#2a2647" opacity="0.5"/><path d="M6,0l6,6H0Z" transform="translate(-1067 3150) rotate(-90)" fill="#2a2647" opacity="0.5"/><path d="M6,0l6,6H0Z" transform="translate(-1067 3501) rotate(-90)" fill="#2a2647" opacity="0.5"/></g><g transform="translate(0 -8394)"><text transform="translate(-1058 2945) rotate(90)" fill="#2a2547" font-size="14" font-family="Helvetica-Bold, Helvetica" font-weight="700" opacity="0.5"><tspan x="-47.25" y="0">Ёлки 5</tspan><tspan x="-31.145" y="20">2016</tspan></text><text transform="translate(-1058 2717) rotate(90)" fill="#2a2547" font-size="14" font-family="Helvetica-Bold, Helvetica" font-weight="700" opacity="0.5"><tspan x="-58.14" y="0">Салют-7</tspan><tspan x="-31.145" y="20">2017</tspan></text><path d="M6,0l6,6H0Z" transform="translate(-1067 2671) rotate(-90)" fill="#2a2647" opacity="0.5"/><path d="M6,0l6,6H0Z" transform="translate(-1067 2910) rotate(-90)" fill="#2a2647" opacity="0.5"/></g><g transform="translate(0 -7195)"><text transform="translate(-1058 2469) rotate(90)" fill="#2a2547" font-size="14" font-family="Helvetica-Bold, Helvetica" font-weight="700" opacity="0.5"><tspan x="-49.793" y="0">Тренер</tspan><tspan x="-31.145" y="20">2018</tspan></text><text transform="translate(-1058 2742) rotate(90)" fill="#2a2547" font-size="14" font-family="Helvetica-Bold, Helvetica" font-weight="700" opacity="0.5"><tspan x="-83.966" y="0">Ёлки новые</tspan><tspan x="-31.145" y="20">2017</tspan></text><path d="M6,0l6,6H0Z" transform="translate(-1067 2431) rotate(-90)" fill="#2a2647" opacity="0.5"/><path d="M6,0l6,6H0Z" transform="translate(-1067 2670) rotate(-90)" fill="#2a2647" opacity="0.5"/></g><g transform="translate(0 -5996)"><text transform="translate(-1058 2506) rotate(90)" fill="#2a2547" font-size="14" font-family="Helvetica-Bold, Helvetica" font-weight="700" opacity="0.5"><tspan x="-87.117" y="0">Притяжение</tspan><tspan x="-31.145" y="20">2017</tspan></text><path d="M6,0l6,6H0Z" transform="translate(-1067 2431) rotate(-90)" fill="#2a2647" opacity="0.5"/><text transform="translate(-1058 3423) rotate(90)" fill="#2a2547" font-size="14" font-family="Helvetica-Bold, Helvetica" font-weight="700" opacity="0.5"><tspan x="-27.214" y="0">Вий</tspan><tspan x="-31.145" y="20">2014</tspan></text><path d="M6,0l6,6H0Z" transform="translate(-1067 3391) rotate(-90)" fill="#2a2647" opacity="0.5"/></g><path d="M6,0l6,6H0Z" transform="translate(-1067 -1406) rotate(-90)" fill="#2a2647" opacity="0.5"/><path d="M6,0l6,6H0Z" transform="translate(-1067 -447) rotate(-90)" fill="#2a2647" opacity="0.5"/><path d="M6,0l6,6H0Z" transform="translate(-1067 751) rotate(-90)" fill="#2a2647" opacity="0.5"/><path d="M6,0l6,6H0Z" transform="translate(-1067 1710) rotate(-90)" fill="#2a2647" opacity="0.5"/><path d="M6,0l6,6H0Z" transform="translate(-1067 2438) rotate(-90)" fill="#2a2647" opacity="0.5"/><path d="M6,0l6,6H0Z" transform="translate(-1067 2742) rotate(-90)" fill="#2a2647" opacity="0.5"/><path d="M6,0l6,6H0Z" transform="translate(-1067 2906) rotate(-90)" fill="#2a2647" opacity="0.5"/><rect width="17" height="50" transform="translate(-1067 -11969)" fill="none"/></g><g transform="translate(5818 12255)"><text transform="translate(-1058 -1363) rotate(90)" fill="#fffbee" font-size="14" font-family="Helvetica-Bold, Helvetica" font-weight="700" opacity="0.5"><tspan x="-55.228" y="0">Экипаж</tspan><tspan x="-31.145" y="20">2016</tspan></text><text transform="translate(-1058 -409) rotate(90)" fill="#fffbee" font-size="14" font-family="Helvetica-Bold, Helvetica" font-weight="700" opacity="0.5"><tspan x="-50.531" y="0">Викинг</tspan><tspan x="-31.145" y="20">2016</tspan></text><text transform="translate(-1058 778) rotate(90)" fill="#fffbee" font-size="14" font-family="Helvetica-Bold, Helvetica" font-weight="700" opacity="0.5"><tspan x="-26.824" y="0">Лёд</tspan><tspan x="-31.145" y="20">2018</tspan></text><text transform="translate(-1058 2047) rotate(90)" fill="#fffbee" font-size="14" font-family="Helvetica-Bold, Helvetica" font-weight="700" opacity="0.5"><tspan x="-349.822" y="0">Полицейский с Рублёвки. Новогодний беспредел</tspan><tspan x="-31.145" y="20">2018</tspan></text><text transform="translate(-1058 2573) rotate(90)" fill="#fffbee" font-size="14" font-family="Helvetica-Bold, Helvetica" font-weight="700" opacity="0.5"><tspan x="-147.889" y="0">Последний богатырь</tspan><tspan x="-31.145" y="20">2017</tspan></text><text transform="translate(-1055 2773) rotate(90)" fill="#fffbee" font-size="14" font-family="Helvetica-Bold, Helvetica" font-weight="700" opacity="0.5"><tspan x="-28.021" y="0">T-34</tspan><tspan x="-31.145" y="20">2019</tspan></text><text transform="translate(-1055 3010) rotate(90)" fill="#fffbee" font-size="14" font-family="Helvetica-Bold, Helvetica" font-weight="700" opacity="0.5"><tspan x="-116.272" y="0">Движение вверх</tspan><tspan x="-31.145" y="20">2017</tspan></text><g transform="translate(0 -14391)"><text transform="translate(-1058 2574) rotate(90)" fill="#fffbee" font-size="14" font-family="Helvetica-Bold, Helvetica" font-weight="700" opacity="0.5"><tspan x="-97.262" y="0">Ночная смена</tspan><tspan x="-31.145" y="20">2018</tspan></text><text transform="translate(-1058 2826) rotate(90)" fill="#fffbee" font-size="14" font-family="Helvetica-Bold, Helvetica" font-weight="700" opacity="0.5"><tspan x="-68.441" y="0">Напарник</tspan><tspan x="-31.145" y="20">2017</tspan></text><text transform="translate(-1058 3067) rotate(90)" fill="#fffbee" font-size="14" font-family="Helvetica-Bold, Helvetica" font-weight="700" opacity="0.5"><tspan x="-135.358" y="0">8 лучших свиданий</tspan><tspan x="-31.145" y="20">2016</tspan></text><text transform="translate(-1058 3249) rotate(90)" fill="#fffbee" font-size="14" font-family="Helvetica-Bold, Helvetica" font-weight="700" opacity="0.5"><tspan x="-159.12" y="0">Подарок с характером</tspan><tspan x="-31.145" y="20">2014</tspan></text><text transform="translate(-1058 3425) rotate(90)" fill="#fffbee" font-size="14" font-family="Helvetica-Bold, Helvetica" font-weight="700" opacity="0.5"><tspan x="-130.368" y="0">Трезвый водитель</tspan><tspan x="-31.145" y="20">2019</tspan></text><text transform="translate(-1058 3530) rotate(90)" fill="#fffbee" font-size="14" font-family="Helvetica-Bold, Helvetica" font-weight="700" opacity="0.5"><tspan x="-84.581" y="0">Корпоратив</tspan><tspan x="-31.145" y="20">2014</tspan></text><path d="M6,0l6,6H0Z" transform="translate(-1067 2490) rotate(-90)" fill="#f2f0e9" opacity="0.5"/><path d="M6,0l6,6H0Z" transform="translate(-1067 2770) rotate(-90)" fill="#f2f0e9" opacity="0.5"/><path d="M6,0l6,6H0Z" transform="translate(-1067 2944) rotate(-90)" fill="#f2f0e9" opacity="0.5"/><path d="M6,0l6,6H0Z" transform="translate(-1067 3102) rotate(-90)" fill="#f2f0e9" opacity="0.5"/><path d="M6,0l6,6H0Z" transform="translate(-1067 3306) rotate(-90)" fill="#f2f0e9" opacity="0.5"/><path d="M6,0l6,6H0Z" transform="translate(-1067 3458) rotate(-90)" fill="#f2f0e9" opacity="0.5"/></g><g transform="translate(0 -13191)"><text transform="translate(-1058 2766) rotate(90)" fill="#fffbee" font-size="14" font-family="Helvetica-Bold, Helvetica" font-weight="700" opacity="0.5"><tspan x="-84.13" y="0">Гуляй, Вася</tspan><tspan x="-31.145" y="20">2017</tspan></text><text transform="translate(-1058 3018) rotate(90)" fill="#fffbee" font-size="14" font-family="Helvetica-Bold, Helvetica" font-weight="700" opacity="0.5"><tspan x="-181.576" y="0">В спорте только девушки</tspan><tspan x="-31.145" y="20">2014</tspan></text><text transform="translate(-1058 3159) rotate(90)" fill="#fffbee" font-size="14" font-family="Helvetica-Bold, Helvetica" font-weight="700" opacity="0.5"><tspan x="-84.123" y="0">Любовницы</tspan><tspan x="-31.145" y="20">2019</tspan></text><text transform="translate(-1058 3313) rotate(90)" fill="#fffbee" font-size="14" font-family="Helvetica-Bold, Helvetica" font-weight="700" opacity="0.5"><tspan x="-105.171" y="0">Супербобровы</tspan><tspan x="-31.145" y="20">2016</tspan></text><text transform="translate(-1058 3644) rotate(90)" fill="#fffbee" font-size="14" font-family="Helvetica-Bold, Helvetica" font-weight="700" opacity="0.5"><tspan x="-275.755" y="0">О чём говорят мужчины. Продолжение</tspan><tspan x="-31.145" y="20">2018</tspan></text><path d="M6,0l6,6H0Z" transform="translate(-1067 2694) rotate(-90)" fill="#f2f0e9" opacity="0.5"/><path d="M6,0l6,6H0Z" transform="translate(-1067 2850) rotate(-90)" fill="#f2f0e9" opacity="0.5"/><path d="M6,0l6,6H0Z" transform="translate(-1067 3087) rotate(-90)" fill="#f2f0e9" opacity="0.5"/><path d="M6,0l6,6H0Z" transform="translate(-1067 3220) rotate(-90)" fill="#f2f0e9" opacity="0.5"/><path d="M6,0l6,6H0Z" transform="translate(-1067 3380) rotate(-90)" fill="#f2f0e9" opacity="0.5"/></g><g transform="translate(0 -11991)"><text transform="translate(-1058 2699) rotate(90)" fill="#fffbee" font-size="14" font-family="Helvetica-Bold, Helvetica" font-weight="700" opacity="0.5"><tspan x="-200.628" y="0">Бабушка лёгкого поведения</tspan><tspan x="-31.145" y="20">2017</tspan></text><text transform="translate(-1058 2835) rotate(90)" fill="#fffbee" font-size="14" font-family="Helvetica-Bold, Helvetica" font-weight="700" opacity="0.5"><tspan x="-72.317" y="0">Млиилард</tspan><tspan x="-31.145" y="20">2019</tspan></text><text transform="translate(-1058 2956) rotate(90)" fill="#fffbee" font-size="14" font-family="Helvetica-Bold, Helvetica" font-weight="700" opacity="0.5"><tspan x="-59.104" y="0">Призрак</tspan><tspan x="-31.145" y="20">2015</tspan></text><text transform="translate(-1058 3206) rotate(90)" fill="#fffbee" font-size="14" font-family="Helvetica-Bold, Helvetica" font-weight="700" opacity="0.5"><tspan x="-64.812" y="0">Духless 2</tspan><tspan x="-31.145" y="20">2015</tspan></text><text transform="translate(-1058 3589) rotate(90)" fill="#fffbee" font-size="14" font-family="Helvetica-Bold, Helvetica" font-weight="700" opacity="0.5"><tspan x="-212.488" y="0">Бабушка лёгкого повеления 2</tspan><tspan x="-31.145" y="20">2019</tspan></text><path d="M6,0l6,6H0Z" transform="translate(-1067 2776) rotate(-90)" fill="#f2f0e9" opacity="0.5"/><path d="M6,0l6,6H0Z" transform="translate(-1067 2910) rotate(-90)" fill="#f2f0e9" opacity="0.5"/><path d="M6,0l6,6H0Z" transform="translate(-1067 3153) rotate(-90)" fill="#f2f0e9" opacity="0.5"/><path d="M6,0l6,6H0Z" transform="translate(-1067 3390) rotate(-90)" fill="#f2f0e9" opacity="0.5"/></g><g transform="translate(0 -10792)"><text transform="translate(-1058 2501) rotate(90)" fill="#fffbee" font-size="14" font-family="Helvetica-Bold, Helvetica" font-weight="700" opacity="0.5"><tspan x="-83.658" y="0">Гоголь. Вий</tspan><tspan x="-31.145" y="20">2018</tspan></text><text transform="translate(-1058 2704) rotate(90)" fill="#fffbee" font-size="14" font-family="Helvetica-Bold, Helvetica" font-weight="700" opacity="0.5"><tspan x="-46.676" y="0">Жених</tspan><tspan x="-31.145" y="20">2016</tspan></text><text transform="translate(-1058 2859) rotate(90)" fill="#fffbee" font-size="14" font-family="Helvetica-Bold, Helvetica" font-weight="700" opacity="0.5"><tspan x="-103.879" y="0">Громкая связь</tspan><tspan x="-31.145" y="20">2019</tspan></text><text transform="translate(-1058 3251) rotate(90)" fill="#fffbee" font-size="14" font-family="Helvetica-Bold, Helvetica" font-weight="700" opacity="0.5"><tspan x="-113.374" y="0">Кухня в Париже</tspan><tspan x="-31.145" y="20">2014</tspan></text><text transform="translate(-1058 3444) rotate(90)" fill="#fffbee" font-size="14" font-family="Helvetica-Bold, Helvetica" font-weight="700" opacity="0.5"><tspan x="-66.76" y="0">Горько! 2</tspan><tspan x="-31.145" y="20">2014</tspan></text><path d="M6,0l6,6H0Z" transform="translate(-1067 2430) rotate(-90)" fill="#f2f0e9" opacity="0.5"/><path d="M6,0l6,6H0Z" transform="translate(-1067 2669) rotate(-90)" fill="#f2f0e9" opacity="0.5"/><path d="M6,0l6,6H0Z" transform="translate(-1067 2766) rotate(-90)" fill="#f2f0e9" opacity="0.5"/><path d="M6,0l6,6H0Z" transform="translate(-1067 3150) rotate(-90)" fill="#f2f0e9" opacity="0.5"/><path d="M6,0l6,6H0Z" transform="translate(-1067 3390) rotate(-90)" fill="#f2f0e9" opacity="0.5"/></g><g transform="translate(0 -9593)"><text transform="translate(-1058 2568) rotate(90)" fill="#fffbee" font-size="14" font-family="Helvetica-Bold, Helvetica" font-weight="700" opacity="0.5"><tspan x="-149.352" y="0">Легенда о Коловрате</tspan><tspan x="-31.145" y="20">2017</tspan></text><text transform="translate(-1058 2957) rotate(90)" fill="#fffbee" font-size="14" font-family="Helvetica-Bold, Helvetica" font-weight="700" opacity="0.5"><tspan x="-57.996" y="0">Я худею</tspan><tspan x="-31.145" y="20">2018</tspan></text><text transform="translate(-1058 3280) rotate(90)" fill="#fffbee" font-size="14" font-family="Helvetica-Bold, Helvetica" font-weight="700" opacity="0.5"><tspan x="-142.454" y="0">Самый лучший день</tspan><tspan x="-31.145" y="20">2015</tspan></text><text transform="translate(-1058 3447) rotate(90)" fill="#fffbee" font-size="14" font-family="Helvetica-Bold, Helvetica" font-weight="700" opacity="0.5"><tspan x="-70.608" y="0">Ёлки 1914</tspan><tspan x="-31.145" y="20">2014</tspan></text><text transform="translate(-1058 3603) rotate(90)" fill="#fffbee" font-size="14" font-family="Helvetica-Bold, Helvetica" font-weight="700" opacity="0.5"><tspan x="-115.124" y="0">Ёлки последние</tspan><tspan x="-31.145" y="20">2018</tspan></text><path d="M6,0l6,6H0Z" transform="translate(-1067 2431) rotate(-90)" fill="#f2f0e9" opacity="0.5"/><path d="M6,0l6,6H0Z" transform="translate(-1067 2911) rotate(-90)" fill="#f2f0e9" opacity="0.5"/><path d="M6,0l6,6H0Z" transform="translate(-1067 3150) rotate(-90)" fill="#f2f0e9" opacity="0.5"/><path d="M6,0l6,6H0Z" transform="translate(-1067 3501) rotate(-90)" fill="#f2f0e9" opacity="0.5"/></g><g transform="translate(0 -8394)"><text transform="translate(-1058 2945) rotate(90)" fill="#fffbee" font-size="14" font-family="Helvetica-Bold, Helvetica" font-weight="700" opacity="0.5"><tspan x="-47.25" y="0">Ёлки 5</tspan><tspan x="-31.145" y="20">2016</tspan></text><text transform="translate(-1058 2717) rotate(90)" fill="#fffbee" font-size="14" font-family="Helvetica-Bold, Helvetica" font-weight="700" opacity="0.5"><tspan x="-58.14" y="0">Салют-7</tspan><tspan x="-31.145" y="20">2017</tspan></text><path d="M6,0l6,6H0Z" transform="translate(-1067 2671) rotate(-90)" fill="#f2f0e9" opacity="0.5"/><path d="M6,0l6,6H0Z" transform="translate(-1067 2910) rotate(-90)" fill="#f2f0e9" opacity="0.5"/></g><g transform="translate(0 -7195)"><text transform="translate(-1058 2469) rotate(90)" fill="#fffbee" font-size="14" font-family="Helvetica-Bold, Helvetica" font-weight="700" opacity="0.5"><tspan x="-49.793" y="0">Тренер</tspan><tspan x="-31.145" y="20">2018</tspan></text><text transform="translate(-1058 2742) rotate(90)" fill="#fffbee" font-size="14" font-family="Helvetica-Bold, Helvetica" font-weight="700" opacity="0.5"><tspan x="-83.966" y="0">Ёлки новые</tspan><tspan x="-31.145" y="20">2017</tspan></text><path d="M6,0l6,6H0Z" transform="translate(-1067 2431) rotate(-90)" fill="#f2f0e9" opacity="0.5"/><path d="M6,0l6,6H0Z" transform="translate(-1067 2670) rotate(-90)" fill="#f2f0e9" opacity="0.5"/></g><g transform="translate(0 -5996)"><text transform="translate(-1058 2506) rotate(90)" fill="#fffbee" font-size="14" font-family="Helvetica-Bold, Helvetica" font-weight="700" opacity="0.5"><tspan x="-87.117" y="0">Притяжение</tspan><tspan x="-31.145" y="20">2017</tspan></text><path d="M6,0l6,6H0Z" transform="translate(-1067 2431) rotate(-90)" fill="#f2f0e9" opacity="0.5"/><text transform="translate(-1058 3423) rotate(90)" fill="#fffbee" font-size="14" font-family="Helvetica-Bold, Helvetica" font-weight="700" opacity="0.5"><tspan x="-27.214" y="0">Вий</tspan><tspan x="-31.145" y="20">2014</tspan></text><path d="M6,0l6,6H0Z" transform="translate(-1067 3391) rotate(-90)" fill="#f2f0e9" opacity="0.5"/></g><path d="M6,0l6,6H0Z" transform="translate(-1067 -1406) rotate(-90)" fill="#f2f0e9" opacity="0.5"/><path d="M6,0l6,6H0Z" transform="translate(-1067 -447) rotate(-90)" fill="#f2f0e9" opacity="0.5"/><path d="M6,0l6,6H0Z" transform="translate(-1067 751) rotate(-90)" fill="#f2f0e9" opacity="0.5"/><path d="M6,0l6,6H0Z" transform="translate(-1067 1710) rotate(-90)" fill="#f2f0e9" opacity="0.5"/><path d="M6,0l6,6H0Z" transform="translate(-1067 2438) rotate(-90)" fill="#f2f0e9" opacity="0.5"/><path d="M6,0l6,6H0Z" transform="translate(-1067 2742) rotate(-90)" fill="#f2f0e9" opacity="0.5"/><path d="M6,0l6,6H0Z" transform="translate(-1067 2906) rotate(-90)" fill="#f2f0e9" opacity="0.5"/><rect width="17" height="50" transform="translate(-1067 -11969)" fill="none"/></g></g></svg>