<svg xmlns="http://www.w3.org/2000/svg" width="21" height="21" viewBox="0 0 21 21"><g transform="translate(5844 -12948)"><rect width="21" height="21" transform="translate(-5844 12948)" fill="#292c45"/><g transform="translate(-5840.636 12951.525)"><path d="M-742.359-431.5l.458-1.37c.123-.366.241-.734.371-1.1a.253.253,0,0,0-.038-.258,6.731,6.731,0,0,1-1.252-4.036,6.866,6.866,0,0,1,2.971-5.7,6.81,6.81,0,0,1,4.493-1.28,6.969,6.969,0,0,1,6.488,5.817,6.786,6.786,0,0,1-2.864,6.929,6.718,6.718,0,0,1-4.913,1.247,6.921,6.921,0,0,1-2.914-1.037.307.307,0,0,0-.226-.026c-.8.249-1.593.506-2.389.761C-742.228-431.532-742.282-431.519-742.359-431.5Zm3.99-10.54a1.09,1.09,0,0,0-.919.379,2.328,2.328,0,0,0-.505,2.183,4.757,4.757,0,0,0,.812,1.613,8.111,8.111,0,0,0,4.714,3.452,2.32,2.32,0,0,0,1.419.011,1.645,1.645,0,0,0,1.3-1.706.3.3,0,0,0-.178-.317c-.538-.254-1.073-.516-1.613-.768a.394.394,0,0,0-.546.152c-.135.186-.269.373-.411.555-.24.308-.376.34-.744.187a5.544,5.544,0,0,1-2.628-2.312c-.145-.235-.131-.318.053-.531.154-.178.313-.352.457-.537a.429.429,0,0,0,.048-.459c-.209-.49-.424-.978-.613-1.476-.11-.291-.272-.463-.6-.425A.316.316,0,0,1-738.369-442.038Z" transform="translate(742.822 445.252)" fill="#fffaea"/></g></g></svg>