<svg xmlns="http://www.w3.org/2000/svg" width="290" height="250" viewBox="0 0 290 250"><g transform="translate(-20 -568)"><rect width="290" height="250" transform="translate(20 568)" fill="none"/><g transform="translate(-3 0.446)"><g transform="translate(29 772)" fill="none" stroke="#242549" stroke-width="2"><rect width="278" height="33" rx="10" stroke="none"/><rect x="1" y="1" width="276" height="31" rx="9" fill="none"/></g><g transform="translate(30 772)" fill="#242549" stroke="#242549" stroke-width="2"><path d="M10,0H83a0,0,0,0,1,0,0V33a0,0,0,0,1,0,0H10A10,10,0,0,1,0,23V10A10,10,0,0,1,10,0Z" stroke="none"/><path d="M10,1H81a1,1,0,0,1,1,1V31a1,1,0,0,1-1,1H10a9,9,0,0,1-9-9V10A9,9,0,0,1,10,1Z" fill="none"/></g><g transform="translate(112 772)" fill="#242549" stroke="#242549" stroke-width="2" opacity="0.66"><rect width="91" height="33" stroke="none"/><rect x="1" y="1" width="89" height="31" fill="none"/></g><g transform="translate(203 772)" fill="#242549" stroke="#242549" stroke-width="2" opacity="0.331"><rect width="91" height="33" stroke="none"/><rect x="1" y="1" width="89" height="31" fill="none"/></g><path d="M-17.224-12.18a2.687,2.687,0,0,0-.388-1.671,1.391,1.391,0,0,0-1.136-.468q-1.524,0-1.524,1.845v2h-2.78v-1.818a4.961,4.961,0,0,1,1.123-3.489,4.219,4.219,0,0,1,3.261-1.216,4.219,4.219,0,0,1,3.261,1.216,4.961,4.961,0,0,1,1.123,3.489,8.111,8.111,0,0,1-.6,3.1,9.528,9.528,0,0,1-1.47,2.513q-.869,1.043-1.724,1.952A13.236,13.236,0,0,0-19.537-2.89a3.232,3.232,0,0,0-.6,1.751,2.214,2.214,0,0,0,.027.4h5.56V1.935h-8.5v-2.3a6.442,6.442,0,0,1,.6-2.794,9.115,9.115,0,0,1,1.457-2.219q.855-.949,1.711-1.871a8.7,8.7,0,0,0,1.457-2.179A6.294,6.294,0,0,0-17.224-12.18Zm13.393-.107v9.57q0,4.865-4.491,4.865A4.219,4.219,0,0,1-11.584.933a4.961,4.961,0,0,1-1.123-3.489v-.481h2.78v.668q0,1.845,1.524,1.845a1.471,1.471,0,0,0,1.23-.508,2.979,2.979,0,0,0,.4-1.791V-6.245A2.764,2.764,0,0,1-9.5-4.588q-3.261,0-3.261-4.277v-3.422a4.9,4.9,0,0,1,1.15-3.475A4.317,4.317,0,0,1-8.3-16.992a4.317,4.317,0,0,1,3.315,1.23A4.9,4.9,0,0,1-3.831-12.287ZM-9.819-9.106q0,1.845,1.524,1.845t1.524-1.845v-3.368q0-1.818-1.524-1.818t-1.524,1.818ZM-1.879-.9H.954V1.935H-1.879ZM2.959-4.107H5.74v1.738q0,1.818,1.524,1.818T8.787-2.369V-6.486q0-1.845-1.524-1.845T5.74-6.486v.561H2.959l.535-10.854h7.753V-14.1H6.141L5.9-9.64A2.792,2.792,0,0,1,8.466-11q3.261,0,3.261,4.277v4.17A4.961,4.961,0,0,1,10.6.933,4.219,4.219,0,0,1,7.344,2.149,4.219,4.219,0,0,1,4.082.933,4.961,4.961,0,0,1,2.959-2.556ZM15.39-14.051v6.416q0,1.176.962,1.176t.962-1.176v-6.416q0-1.176-.962-1.176T15.39-14.051ZM13.519-7.769v-6.149a3.137,3.137,0,0,1,.722-2.219,2.746,2.746,0,0,1,2.112-.775,2.746,2.746,0,0,1,2.112.775,3.137,3.137,0,0,1,.722,2.219v6.149a3.137,3.137,0,0,1-.722,2.219,2.746,2.746,0,0,1-2.112.775,2.746,2.746,0,0,1-2.112-.775A3.137,3.137,0,0,1,13.519-7.769Zm2.834,9.7,7.378-18.713h1.738L18.09,1.935Zm8.314-9.143V-.792q0,1.176.962,1.176t.962-1.176V-7.208q0-1.176-.962-1.176T24.667-7.208ZM22.8-.925V-7.074a3.137,3.137,0,0,1,.722-2.219,2.746,2.746,0,0,1,2.112-.775,2.746,2.746,0,0,1,2.112.775,3.137,3.137,0,0,1,.722,2.219V-.925a3.137,3.137,0,0,1-.722,2.219,2.746,2.746,0,0,1-2.112.775,2.746,2.746,0,0,1-2.112-.775A3.137,3.137,0,0,1,22.8-.925Z" transform="translate(70.46 741.464)" fill="#242549"/><path d="M-17.368-11.137V-12.18a2.687,2.687,0,0,0-.388-1.671,1.391,1.391,0,0,0-1.136-.468q-1.524,0-1.524,1.845v1.2H-23.2v-1.016a4.961,4.961,0,0,1,1.123-3.489,4.219,4.219,0,0,1,3.261-1.216,4.219,4.219,0,0,1,3.261,1.216,4.961,4.961,0,0,1,1.123,3.489v.481q0,2.994-2.058,3.85,2.058.909,2.058,3.93v1.47A4.961,4.961,0,0,1-15.55.933a4.219,4.219,0,0,1-3.261,1.216A4.219,4.219,0,0,1-22.073.933,4.961,4.961,0,0,1-23.2-2.556V-4.107h2.78v1.738q0,1.845,1.524,1.845a1.391,1.391,0,0,0,1.136-.468,2.631,2.631,0,0,0,.388-1.644v-1.47a2.887,2.887,0,0,0-.454-1.831,1.806,1.806,0,0,0-1.47-.548h-.989V-9.159h1.15a1.765,1.765,0,0,0,1.323-.454A2.147,2.147,0,0,0-17.368-11.137Zm10.586,0V-12.18a2.687,2.687,0,0,0-.388-1.671,1.391,1.391,0,0,0-1.136-.468q-1.524,0-1.524,1.845v1.2h-2.78v-1.016a4.961,4.961,0,0,1,1.123-3.489,4.219,4.219,0,0,1,3.261-1.216,4.219,4.219,0,0,1,3.261,1.216,4.961,4.961,0,0,1,1.123,3.489v.481q0,2.994-2.058,3.85,2.058.909,2.058,3.93v1.47A4.961,4.961,0,0,1-4.964.933,4.219,4.219,0,0,1-8.225,2.149,4.219,4.219,0,0,1-11.487.933,4.961,4.961,0,0,1-12.61-2.556V-4.107h2.78v1.738q0,1.845,1.524,1.845A1.391,1.391,0,0,0-7.17-.992a2.631,2.631,0,0,0,.388-1.644v-1.47a2.887,2.887,0,0,0-.454-1.831,1.806,1.806,0,0,0-1.47-.548H-9.7V-9.159h1.15a1.765,1.765,0,0,0,1.323-.454A2.147,2.147,0,0,0-6.782-11.137ZM-1.863-.9H.971V1.935H-1.863ZM4.927-12.34v-2.085a3.18,3.18,0,0,0,2.165-.588,4.386,4.386,0,0,0,1.069-1.764H10.14V1.935H7.2V-12.34Zm10.479-1.711v6.416q0,1.176.962,1.176t.962-1.176v-6.416q0-1.176-.962-1.176T15.407-14.051ZM13.535-7.769v-6.149a3.137,3.137,0,0,1,.722-2.219,2.746,2.746,0,0,1,2.112-.775,2.746,2.746,0,0,1,2.112.775,3.137,3.137,0,0,1,.722,2.219v6.149a3.137,3.137,0,0,1-.722,2.219,2.746,2.746,0,0,1-2.112.775,2.746,2.746,0,0,1-2.112-.775A3.137,3.137,0,0,1,13.535-7.769Zm2.834,9.7,7.378-18.713h1.738L18.107,1.935Zm8.314-9.143V-.792q0,1.176.962,1.176t.962-1.176V-7.208q0-1.176-.962-1.176T24.683-7.208ZM22.812-.925V-7.074a3.137,3.137,0,0,1,.722-2.219,2.746,2.746,0,0,1,2.112-.775,2.746,2.746,0,0,1,2.112.775,3.137,3.137,0,0,1,.722,2.219V-.925a3.137,3.137,0,0,1-.722,2.219,2.746,2.746,0,0,1-2.112.775,2.746,2.746,0,0,1-2.112-.775A3.137,3.137,0,0,1,22.812-.925Z" transform="translate(159.554 741.464)" fill="#242549"/><path d="M-17.368-11.137V-12.18a2.687,2.687,0,0,0-.388-1.671,1.391,1.391,0,0,0-1.136-.468q-1.524,0-1.524,1.845v1.2H-23.2v-1.016a4.961,4.961,0,0,1,1.123-3.489,4.219,4.219,0,0,1,3.261-1.216,4.219,4.219,0,0,1,3.261,1.216,4.961,4.961,0,0,1,1.123,3.489v.481q0,2.994-2.058,3.85,2.058.909,2.058,3.93v1.47A4.961,4.961,0,0,1-15.55.933a4.219,4.219,0,0,1-3.261,1.216A4.219,4.219,0,0,1-22.073.933,4.961,4.961,0,0,1-23.2-2.556V-4.107h2.78v1.738q0,1.845,1.524,1.845a1.391,1.391,0,0,0,1.136-.468,2.631,2.631,0,0,0,.388-1.644v-1.47a2.887,2.887,0,0,0-.454-1.831,1.806,1.806,0,0,0-1.47-.548h-.989V-9.159h1.15a1.765,1.765,0,0,0,1.323-.454A2.147,2.147,0,0,0-17.368-11.137Zm7.619-1.337V-2.369q0,1.845,1.524,1.845T-6.7-2.369V-12.474q0-1.845-1.524-1.845T-9.749-12.474ZM-12.69-2.556v-9.731a4.9,4.9,0,0,1,1.15-3.475,4.317,4.317,0,0,1,3.315-1.23,4.317,4.317,0,0,1,3.315,1.23,4.9,4.9,0,0,1,1.15,3.475v9.731A4.9,4.9,0,0,1-4.911.919a4.317,4.317,0,0,1-3.315,1.23A4.317,4.317,0,0,1-11.54.919,4.9,4.9,0,0,1-12.69-2.556ZM-1.863-.9H.971V1.935H-1.863ZM4.927-12.34v-2.085a3.18,3.18,0,0,0,2.165-.588,4.386,4.386,0,0,0,1.069-1.764H10.14V1.935H7.2V-12.34Zm10.479-1.711v6.416q0,1.176.962,1.176t.962-1.176v-6.416q0-1.176-.962-1.176T15.407-14.051ZM13.535-7.769v-6.149a3.137,3.137,0,0,1,.722-2.219,2.746,2.746,0,0,1,2.112-.775,2.746,2.746,0,0,1,2.112.775,3.137,3.137,0,0,1,.722,2.219v6.149a3.137,3.137,0,0,1-.722,2.219,2.746,2.746,0,0,1-2.112.775,2.746,2.746,0,0,1-2.112-.775A3.137,3.137,0,0,1,13.535-7.769Zm2.834,9.7,7.378-18.713h1.738L18.107,1.935Zm8.314-9.143V-.792q0,1.176.962,1.176t.962-1.176V-7.208q0-1.176-.962-1.176T24.683-7.208ZM22.812-.925V-7.074a3.137,3.137,0,0,1,.722-2.219,2.746,2.746,0,0,1,2.112-.775,2.746,2.746,0,0,1,2.112.775,3.137,3.137,0,0,1,.722,2.219V-.925a3.137,3.137,0,0,1-.722,2.219,2.746,2.746,0,0,1-2.112.775,2.746,2.746,0,0,1-2.112-.775A3.137,3.137,0,0,1,22.812-.925Z" transform="translate(248.665 741.464)" fill="#242549"/><path d="M6.674,1.212a1,1,0,0,1,1.652,0l5.608,8.225A1,1,0,0,1,13.108,11H1.892a1,1,0,0,1-.826-1.563Z" transform="translate(80 763) rotate(180)" fill="#242549"/><path d="M6.674,1.212a1,1,0,0,1,1.652,0l5.608,8.225A1,1,0,0,1,13.108,11H1.892a1,1,0,0,1-.826-1.563Z" transform="translate(169 763) rotate(180)" fill="#242549"/><path d="M6.156,1.326a1,1,0,0,1,1.687,0l5.178,8.137A1,1,0,0,1,12.178,11H1.822A1,1,0,0,1,.978,9.463Z" transform="translate(258 763) rotate(180)" fill="#242549"/><g transform="translate(39.084 627.912)"><path d="M3595.1,795.289v4.626a4.537,4.537,0,1,0,9.074,0v-5.576" transform="translate(-3547.758 -755.99)" fill="none" stroke="#242549" stroke-linejoin="round" stroke-width="2"/><path d="M3559.709,809.683v14.781h20.417V804.933h9.717" transform="translate(-3554.109 -754.107)" fill="none" stroke="#242549" stroke-linecap="square" stroke-miterlimit="10" stroke-width="2"/><path d="M3566.264,797.684h-3.413a7.917,7.917,0,0,0-7.916,7.916v20.115h5.6" transform="translate(-3554.934 -755.358)" fill="none" stroke="#242549" stroke-miterlimit="10" stroke-width="2"/><line x1="23.996" transform="translate(20.544 42.266)" fill="none" stroke="#242549" stroke-miterlimit="10" stroke-width="2"/><path d="M3564.5,794.339v5.576a4.537,4.537,0,0,0,9.075,0v-5.576" transform="translate(-3553.226 -755.99)" fill="none" stroke="#242549" stroke-linejoin="round" stroke-width="2"/><line y2="14.781" transform="translate(41.678 55.577)" fill="none" stroke="#242549" stroke-linecap="square" stroke-miterlimit="10" stroke-width="2"/><line y2="14.781" transform="translate(62.335 55.577)" fill="none" stroke="#242549" stroke-linecap="square" stroke-miterlimit="10" stroke-width="2"/><path d="M3617.159,806.85v18.865h-31.616V805.6a7.917,7.917,0,0,1,7.917-7.916h3.1" transform="translate(-3549.343 -755.358)" fill="none" stroke="#242549" stroke-linecap="square" stroke-miterlimit="10" stroke-width="2"/><path d="M3602.944,797.684h3.295a7.894,7.894,0,0,1,2.3.34" transform="translate(-3546.339 -755.418)" fill="none" stroke="#242549" stroke-miterlimit="10" stroke-width="2"/><rect width="6.968" height="10.458" rx="1.35" stroke-width="2" fill="none" stroke="#242549" stroke-linecap="square" stroke-miterlimit="10" transform="translate(69.185 51.445) rotate(-180)"/><g transform="translate(0.875 0)"><path d="M3579.787,780.553l.927.079a2.746,2.746,0,0,1,2.507,2.966l-.091,1.078a2.745,2.745,0,0,1-2.965,2.507l-.927-.077" transform="translate(-3551.614 -758.466)" fill="none" stroke="#242549" stroke-linecap="square" stroke-linejoin="round" stroke-width="2"/><path d="M3559.143,785.391l-.945-.079a2.746,2.746,0,0,1-2.507-2.966l.09-1.079a2.745,2.745,0,0,1,2.965-2.507l.926.077" transform="translate(-3555.681 -758.777)" fill="none" stroke="#242549" stroke-linejoin="round" stroke-width="2"/><path d="M3564.841,787.2a5,5,0,0,0,9.141.766" transform="translate(-3554.099 -757.318)" fill="none" stroke="#242549" stroke-linecap="square" stroke-linejoin="round" stroke-width="2"/><line x1="0.124" y2="1.475" transform="translate(21.935 21.327)" stroke-width="2" stroke="#242549" stroke-linecap="square" stroke-linejoin="round" fill="none"/><line y1="1.475" x2="0.124" transform="translate(9.874 20.316)" stroke-width="2" stroke="#242549" stroke-linecap="square" stroke-linejoin="round" fill="none"/><path d="M3585.361,784.027l4.438-18.137a15.04,15.04,0,0,1-8.748-.4l-9.868-3.5a4.748,4.748,0,0,0-4.76.94l-3.517,3.156-1.924-.161a4.049,4.049,0,0,0-4.375,3.7l-.447,5.334a9.109,9.109,0,0,0,.057,2.029l.718,5.063" transform="translate(-3555.603 -761.718)" fill="none" stroke="#242549" stroke-miterlimit="10" stroke-width="2"/><path d="M3583.695,777.826c-1.941.421-10.129,1.879-16.321-2.844a15.655,15.655,0,0,1-2.762-2.713.221.221,0,0,0-.394.125,3.682,3.682,0,0,1-1.057,2.485,5.005,5.005,0,0,1-3.674,1.228l-.815,9.719a12.133,12.133,0,0,0,11.078,13.1h0a12.132,12.132,0,0,0,13.1-11.077Z" transform="translate(-3555.171 -759.911)" fill="none" stroke="#242549" stroke-linecap="square" stroke-miterlimit="10" stroke-width="2"/></g><g transform="translate(33.352 0.061)"><path d="M3611.03,775.54l1.081,9.693a12.134,12.134,0,0,1-10.714,13.4h0a12.135,12.135,0,0,1-13.4-10.713l-1.15-10.311" transform="translate(-3582.471 -759.392)" fill="none" stroke="#242549" stroke-linecap="square" stroke-miterlimit="10" stroke-width="2"/><path d="M3607.835,778.844l.924-.1a2.748,2.748,0,0,1,3.034,2.425l.12,1.075a2.746,2.746,0,0,1-2.425,3.034l-.923.1" transform="translate(-3578.847 -758.843)" fill="none" stroke="#242549" stroke-linecap="square" stroke-linejoin="round" stroke-width="2"/><path d="M3588.514,787.652l-.944.106a2.748,2.748,0,0,1-3.033-2.425l-.12-1.075a2.745,2.745,0,0,1,2.424-3.034l.924-.1" transform="translate(-3582.892 -758.429)" fill="none" stroke="#242549" stroke-linecap="square" stroke-linejoin="round" stroke-width="2"/><path d="M3594.537,788.375a5,5,0,0,0,9.117-1.018" transform="translate(-3581.143 -757.352)" fill="none" stroke="#242549" stroke-linecap="square" stroke-linejoin="round" stroke-width="2"/><line x2="0.164" y2="1.471" transform="translate(22.842 20.438)" stroke-width="2" stroke="#242549" stroke-linecap="square" stroke-linejoin="round" fill="none"/><line x1="0.164" y1="1.471" transform="translate(10.814 21.781)" stroke-width="2" stroke="#242549" stroke-linecap="square" stroke-linejoin="round" fill="none"/><path d="M3583.124,772.2a12.132,12.132,0,0,0,.065,1.836l.471,4.223.771,6.9,1.143,10.25a4.75,4.75,0,0,0,5.248,4.194l6.556-.732" transform="translate(-3583.114 -759.969)" fill="none" stroke="#242549" stroke-miterlimit="10" stroke-width="2"/><path d="M3606.2,799.666l6.672-.745a4.75,4.75,0,0,0,4.195-5.248l-2.616-23.448a6.334,6.334,0,0,0-7-5.591l-2.458.273a4.434,4.434,0,0,0-4.729-3.111l-6.648.742a12.021,12.021,0,0,0-9.329,6.379" transform="translate(-3582.912 -761.769)" fill="none" stroke="#242549" stroke-miterlimit="10" stroke-width="2"/><g transform="translate(4.129 7.535)"><path d="M3611.457,780.322l-.659-5.912a12.064,12.064,0,0,0-2.572-6.215,27.979,27.979,0,0,1-16.953,8.261,28.273,28.273,0,0,1-4.638.13c.013.171.026.342.045.515l.694,6.22" transform="translate(-3586.636 -768.195)" fill="none" stroke="#242549" stroke-linecap="square" stroke-miterlimit="10" stroke-width="2"/></g></g></g><g transform="translate(125.858 627.912)"><path d="M3652.607,793.677v4.968a4.043,4.043,0,0,0,8.087,0v-4.968" transform="translate(-3641.373 -757.916)" fill="none" stroke="#242549" stroke-linejoin="round" stroke-width="2"/><path d="M3665.32,780.645h.828a2.447,2.447,0,0,1,2.446,2.447v.964a2.446,2.446,0,0,1-2.446,2.446h-.828" transform="translate(-3639.148 -760.256)" fill="none" stroke="#242549" stroke-linecap="square" stroke-linejoin="round" stroke-width="2"/><path d="M3647.382,786.5h-.846a2.447,2.447,0,0,1-2.447-2.446v-.964a2.448,2.448,0,0,1,2.447-2.447h.828" transform="translate(-3642.87 -760.256)" fill="none" stroke="#242549" stroke-linejoin="round" stroke-width="2"/><path d="M3652.616,788.376a4.458,4.458,0,0,0,8.173,0" transform="translate(-3641.372 -758.881)" fill="none" stroke="#242549" stroke-linecap="square" stroke-linejoin="round" stroke-width="2"/><line y2="1.318" transform="translate(20.672 20.161)" stroke-width="2" stroke="#242549" stroke-linecap="square" stroke-linejoin="round" fill="none"/><line y1="1.318" transform="translate(9.846 20.161)" stroke-width="2" stroke="#242549" stroke-linecap="square" stroke-linejoin="round" fill="none"/><line y2="19.153" transform="translate(24.45 51.205)" fill="none" stroke="#242549" stroke-linecap="square" stroke-miterlimit="10" stroke-width="2"/><line y2="19.153" transform="translate(6.104 51.205)" fill="none" stroke="#242549" stroke-linecap="square" stroke-miterlimit="10" stroke-width="2"/><path d="M3644.089,804.825v22.791h28.17V803.711a7.053,7.053,0,0,0-7.053-7.053h-3.041" transform="translate(-3642.87 -757.259)" fill="none" stroke="#242549" stroke-linecap="square" stroke-miterlimit="10" stroke-width="2"/><path d="M3653.342,796.658h-2.936a7.055,7.055,0,0,0-2.051.3" transform="translate(-3642.134 -757.409)" fill="none" stroke="#242549" stroke-miterlimit="10" stroke-width="2"/><rect width="6.209" height="9.318" rx="1.203" stroke-width="2" fill="none" stroke="#242549" stroke-linecap="square" stroke-miterlimit="10" transform="translate(0 38.121)"/><path d="M3646.9,777.666l-.018,9.078a10.81,10.81,0,0,0,10.811,10.81h0a10.811,10.811,0,0,0,10.811-10.81v-11.1" transform="translate(-3642.388 -761.125)" fill="none" stroke="#242549" stroke-miterlimit="10" stroke-width="2"/><path d="M3644.089,786.38V769.756a2.853,2.853,0,0,1,2.854-2.853h19.052a7.342,7.342,0,0,0,5.537-2.513,7.35,7.35,0,0,1,3.106,6.2,7.466,7.466,0,0,1-7.521,7.169h-18.324a1.411,1.411,0,0,0-1.411,1.412v2.507" transform="translate(-3642.87 -763.169)" fill="none" stroke="#242549" stroke-linecap="square" stroke-miterlimit="10" stroke-width="2"/><line y1="7.059" transform="translate(28.319 13.516)" fill="none" stroke="#242549" stroke-miterlimit="10" stroke-width="2"/><path d="M3679.815,791.211a10.76,10.76,0,0,1-5.481,1.49h0a10.8,10.8,0,0,1-9.148-5.047" transform="translate(-3639.16 -759.004)" fill="none" stroke="#242549" stroke-linecap="square" stroke-miterlimit="10" stroke-width="2"/><path d="M3669.5,791.307v4.968a4.042,4.042,0,0,0,8.085,0v-4.968" transform="translate(-3638.412 -758.34)" fill="none" stroke="#242549" stroke-linejoin="round" stroke-width="2"/><path d="M3669.5,786.005a4.457,4.457,0,0,0,8.172,0" transform="translate(-3638.41 -759.304)" fill="none" stroke="#242549" stroke-linecap="square" stroke-linejoin="round" stroke-width="2"/><line y2="1.318" transform="translate(40.515 17.368)" stroke-width="2" stroke="#242549" stroke-linecap="square" stroke-linejoin="round" fill="none"/><line y1="1.318" transform="translate(29.709 17.368)" stroke-width="2" stroke="#242549" stroke-linecap="square" stroke-linejoin="round" fill="none"/><line x1="11.434" transform="translate(29.462 70.358)" fill="none" stroke="#242549" stroke-miterlimit="10" stroke-width="2"/><path d="M3659.5,794.719l.688-.089a40.718,40.718,0,0,1,5.277-.342h5.752" transform="translate(-3640.161 -757.831)" fill="none" stroke="#242549" stroke-miterlimit="10" stroke-width="2"/><line y1="0.692" x2="5.304" transform="translate(5.914 37.951)" fill="none" stroke="#242549" stroke-miterlimit="10" stroke-width="2"/><path d="M3688.107,794.719l-.687-.089a40.715,40.715,0,0,0-5.277-.342h-5.753" transform="translate(-3637.197 -757.831)" fill="none" stroke="#242549" stroke-miterlimit="10" stroke-width="2"/><line x1="5.304" y1="0.692" transform="translate(59.034 37.951)" fill="none" stroke="#242549" stroke-miterlimit="10" stroke-width="2"/><path d="M3669.5,772.291l5.727,3.654a.983.983,0,0,0,.547.167h3.529" transform="translate(-3638.408 -761.805)" fill="none" stroke="#242549" stroke-miterlimit="10" stroke-width="2"/><path d="M3684.96,766.883a7.716,7.716,0,0,0-6.472-3.534h-7.907a2.1,2.1,0,0,0-2.1,2.1" transform="translate(-3638.578 -763.349)" fill="none" stroke="#242549" stroke-miterlimit="10" stroke-width="2"/><g transform="translate(40.968 0.6)"><path d="M3680.673,778.61h3.746a14.5,14.5,0,0,0,11.067-5.115.548.548,0,0,1,.967.337,5.16,5.16,0,0,0,.071.643,4.944,4.944,0,0,0,4.227,4.027,5.05,5.05,0,0,0,1.526-.042v8.69a10.812,10.812,0,0,1-10.812,10.81h0a10.811,10.811,0,0,1-10.811-10.81Z" transform="translate(-3677.38 -762.148)" fill="none" stroke="#242549" stroke-linecap="square" stroke-miterlimit="10" stroke-width="2"/><path d="M3686.382,793.677v4.968a4.042,4.042,0,1,0,8.085,0v-4.968" transform="translate(-3676.393 -758.517)" fill="none" stroke="#242549" stroke-linejoin="round" stroke-width="2"/><path d="M3687.852,798.8h-8.061a1.929,1.929,0,0,1-1.929-1.929V777.945a14.085,14.085,0,0,1,14.084-14.084h0a14.085,14.085,0,0,1,14.086,14.084v18.927a1.93,1.93,0,0,1-1.929,1.929h-8.166" transform="translate(-3677.863 -763.861)" fill="none" stroke="#242549" stroke-linejoin="round" stroke-width="2"/><path d="M3699.094,780.645h.827a2.447,2.447,0,0,1,2.447,2.447v.964a2.446,2.446,0,0,1-2.447,2.446h-.827" transform="translate(-3674.198 -760.858)" fill="none" stroke="#242549" stroke-linecap="square" stroke-linejoin="round" stroke-width="2"/><path d="M3681.156,786.5h-.846a2.447,2.447,0,0,1-2.447-2.446v-.964a2.448,2.448,0,0,1,2.447-2.447h.827" transform="translate(-3677.863 -760.858)" fill="none" stroke="#242549" stroke-linecap="square" stroke-linejoin="round" stroke-width="2"/><path d="M3686.39,787.654a4.458,4.458,0,0,0,8.172,0" transform="translate(-3676.391 -759.612)" fill="none" stroke="#242549" stroke-linecap="square" stroke-linejoin="round" stroke-width="2"/><line y2="1.318" transform="translate(19.41 19.559)" stroke-width="2" stroke="#242549" stroke-linecap="square" stroke-linejoin="round" fill="none"/><line y1="1.318" transform="translate(8.626 19.559)" stroke-width="2" stroke="#242549" stroke-linecap="square" stroke-linejoin="round" fill="none"/><rect width="6.209" height="9.318" rx="1.203" stroke-width="2" fill="none" stroke="#242549" stroke-linecap="square" stroke-miterlimit="10" transform="translate(29.389 46.837) rotate(-180)"/><line y2="19.153" transform="translate(4.989 50.605)" fill="none" stroke="#242549" stroke-linecap="square" stroke-miterlimit="10" stroke-width="2"/><line y2="19.153" transform="translate(23.286 50.605)" fill="none" stroke="#242549" stroke-linecap="square" stroke-miterlimit="10" stroke-width="2"/><path d="M3706.033,804.825v22.791h-28.17V803.711a7.053,7.053,0,0,1,7.054-7.053h2.936" transform="translate(-3677.863 -757.86)" fill="none" stroke="#242549" stroke-linecap="square" stroke-miterlimit="10" stroke-width="2"/><path d="M3693.367,796.658h2.937a7.055,7.055,0,0,1,2.051.3" transform="translate(-3675.187 -758.01)" fill="none" stroke="#242549" stroke-miterlimit="10" stroke-width="2"/></g></g><g transform="translate(219.669 627.913)"><g transform="translate(0 0)"><g transform="translate(22.366 24.55)"><path d="M3667.923,874.708l-.014,7.112a9,9,0,0,0,9,9h0a9,9,0,0,0,9-9v-7.239l-10.529.087-1.226-3.063a.7.7,0,0,0-1.309,0l-1.225,3.063Z" transform="translate(-3665.182 -861.066)" fill="none" stroke="#242549" stroke-linecap="square" stroke-miterlimit="10" stroke-width="2"/><path d="M3672.679,887.387v4.139a3.367,3.367,0,0,0,6.735,0v-4.139" transform="translate(-3664.358 -858.265)" fill="none" stroke="#242549" stroke-linejoin="round" stroke-width="2"/><path d="M3673.9,891.655h-6.715a1.606,1.606,0,0,1-1.606-1.607V874.284a11.732,11.732,0,0,1,11.732-11.732h0a11.732,11.732,0,0,1,11.731,11.732v15.765a1.606,1.606,0,0,1-1.607,1.607h-6.8" transform="translate(-3665.583 -862.552)" fill="none" stroke="#242549" stroke-linejoin="round" stroke-width="2"/><path d="M3683.266,876.533h.689a2.037,2.037,0,0,1,2.038,2.037v.8a2.038,2.038,0,0,1-2.038,2.038h-.689" transform="translate(-3662.531 -860.138)" fill="none" stroke="#242549" stroke-linecap="square" stroke-linejoin="round" stroke-width="2"/><path d="M3668.324,881.411h-.7a2.038,2.038,0,0,1-2.038-2.038v-.8a2.038,2.038,0,0,1,2.038-2.037h.689" transform="translate(-3665.583 -860.138)" fill="none" stroke="#242549" stroke-linecap="square" stroke-linejoin="round" stroke-width="2"/><path d="M3672.685,882.37a3.713,3.713,0,0,0,6.807,0" transform="translate(-3664.357 -859.131)" fill="none" stroke="#242549" stroke-linecap="square" stroke-linejoin="round" stroke-width="2"/><line y2="1.098" transform="translate(16.167 16.211)" stroke-width="2" stroke="#242549" stroke-linecap="square" stroke-linejoin="round" fill="none"/><line y1="1.098" transform="translate(7.185 16.211)" stroke-width="2" stroke="#242549" stroke-linecap="square" stroke-linejoin="round" fill="none"/><path d="M3673.9,889.87h-2.446a5.875,5.875,0,0,0-5.875,5.875v7.9h23.463v-7.9a5.875,5.875,0,0,0-5.875-5.875h-2.533" transform="translate(-3665.583 -857.836)" fill="none" stroke="#242549" stroke-linecap="square" stroke-miterlimit="10" stroke-width="2"/></g><line y1="9.213" transform="translate(39.859 16.856)" fill="none" stroke="#242549" stroke-miterlimit="10" stroke-width="2"/><path d="M3703.82,856.5v9.736a12.112,12.112,0,0,1-12.112,12.112h0a12.048,12.048,0,0,1-6.117-1.656" transform="translate(-3639.611 -839.027)" fill="none" stroke="#242549" stroke-miterlimit="10" stroke-width="2"/><path d="M3686.9,874.4v5.567a4.529,4.529,0,1,0,9.059,0V874.4" transform="translate(-3639.445 -835.945)" fill="none" stroke="#242549" stroke-linejoin="round" stroke-width="2"/><path d="M3701.136,859.8h.928a2.74,2.74,0,0,1,2.74,2.742v1.08a2.74,2.74,0,0,1-2.74,2.742h-.928" transform="translate(-3636.927 -838.456)" fill="none" stroke="#242549" stroke-linecap="square" stroke-linejoin="round" stroke-width="2"/><path d="M3677.35,863.084v-.541a2.742,2.742,0,0,1,2.741-2.742h.927" transform="translate(-3641.167 -838.456)" fill="none" stroke="#242549" stroke-linecap="square" stroke-linejoin="round" stroke-width="2"/><path d="M3686.9,867.385a4.994,4.994,0,0,0,9.156,0" transform="translate(-3639.443 -837.151)" fill="none" stroke="#242549" stroke-linecap="square" stroke-linejoin="round" stroke-width="2"/><line y2="1.477" transform="translate(58.063 21.1)" stroke-width="2" stroke="#242549" stroke-linecap="square" stroke-linejoin="round" fill="none"/><line y1="1.477" transform="translate(45.882 21.1)" stroke-width="2" stroke="#242549" stroke-linecap="square" stroke-linejoin="round" fill="none"/><line y1="3.194" transform="translate(41.79 53.679)" fill="none" stroke="#242549" stroke-miterlimit="10" stroke-width="2"/><path d="M3701.9,889.023V903.79h-16.307" transform="translate(-3639.611 -833.432)" fill="none" stroke="#242549" stroke-linecap="square" stroke-miterlimit="10" stroke-width="2"/><path d="M3694.62,877.743h3.407a7.9,7.9,0,0,1,7.9,7.9v20.092h-5.59" transform="translate(-3638.052 -835.38)" fill="none" stroke="#242549" stroke-linecap="square" stroke-miterlimit="10" stroke-width="2"/><path d="M3686.9,877.743" transform="translate(-3639.478 -835.367)" fill="none" stroke="#242549" stroke-linecap="square" stroke-miterlimit="10" stroke-width="2"/><path d="M3666.467,877.743" transform="translate(-3643.112 -835.367)" fill="none" stroke="#242549" stroke-linecap="square" stroke-miterlimit="10" stroke-width="2"/><path d="M3656.34,874.4v5.567a4.529,4.529,0,1,0,9.058,0V874.4" transform="translate(-3644.906 -835.945)" fill="none" stroke="#242549" stroke-linejoin="round" stroke-width="2"/><path d="M3670.582,859.8h.928a2.741,2.741,0,0,1,2.74,2.742v.691" transform="translate(-3642.373 -838.456)" fill="none" stroke="#242549" stroke-linejoin="round" stroke-width="2"/><path d="M3650.484,866.365h-.947a2.741,2.741,0,0,1-2.74-2.742v-1.08a2.741,2.741,0,0,1,2.74-2.742h.928" transform="translate(-3646.613 -838.456)" fill="none" stroke="#242549" stroke-linejoin="round" stroke-width="2"/><path d="M3656.349,867.385a4.994,4.994,0,0,0,9.156,0" transform="translate(-3644.905 -837.151)" fill="none" stroke="#242549" stroke-linecap="square" stroke-linejoin="round" stroke-width="2"/><line y2="1.477" transform="translate(22.028 21.1)" stroke-width="2" stroke="#242549" stroke-linecap="square" stroke-linejoin="round" fill="none"/><line y1="1.477" transform="translate(9.847 21.1)" stroke-width="2" stroke="#242549" stroke-linecap="square" stroke-linejoin="round" fill="none"/><line y2="3.239" transform="translate(26.271 53.679)" fill="none" stroke="#242549" stroke-miterlimit="10" stroke-width="2"/><line y2="14.767" transform="translate(5.655 55.591)" fill="none" stroke="#242549" stroke-linecap="square" stroke-miterlimit="10" stroke-width="2"/><line x1="1.779" transform="translate(20.528 42.376)" fill="none" stroke="#242549" stroke-linecap="square" stroke-miterlimit="10" stroke-width="2"/><line y1="11.373" transform="translate(28.201 14.773)" fill="none" stroke="#242549" stroke-miterlimit="10" stroke-width="2"/><path d="M3649.944,856.13l-.02,10.171a12.111,12.111,0,0,0,12.112,12.112h0a12.058,12.058,0,0,0,6.25-1.734" transform="translate(-3646.073 -839.091)" fill="none" stroke="#242549" stroke-miterlimit="10" stroke-width="2"/><line x2="1.528" transform="translate(45.887 38.461)" fill="none" stroke="#242549" stroke-miterlimit="10" stroke-width="2"/><path d="M3697.621,880.03h6.7a4.742,4.742,0,0,0,4.742-4.741V851.738a6.323,6.323,0,0,0-6.323-6.323h-2.469a4.425,4.425,0,0,0-4.348-3.611h-6.677a12.014,12.014,0,0,0-12.013,12.014v12.474" transform="translate(-3641.053 -841.553)" fill="none" stroke="#242549" stroke-miterlimit="10" stroke-width="2"/><g transform="translate(39.986 8.626)"><path d="M3704.7,861.336V855.4a12.065,12.065,0,0,0-1.862-6.452,27.93,27.93,0,0,1-17.734,6.32,28.236,28.236,0,0,1-4.615-.385c-.007.171-.013.342-.013.516v6.247" transform="translate(-3680.479 -848.946)" fill="none" stroke="#242549" stroke-linecap="square" stroke-miterlimit="10" stroke-width="2"/></g><path d="M3646.8,866.228V847.6a3.2,3.2,0,0,1,3.2-3.2h21.346a8.223,8.223,0,0,0,6.2-2.815,8.23,8.23,0,0,1,3.48,6.942,8.365,8.365,0,0,1-8.426,8.034h-20.531a1.581,1.581,0,0,0-1.581,1.581v2.809" transform="translate(-3646.613 -841.59)" fill="none" stroke="#242549" stroke-linecap="square" stroke-miterlimit="10" stroke-width="2"/><line y1="7.909" transform="translate(30.616 13.688)" fill="none" stroke="#242549" stroke-miterlimit="10" stroke-width="2"/><path d="M3657.95,877.743h-3.408a7.9,7.9,0,0,0-7.9,7.9v20.092h22.213" transform="translate(-3646.64 -835.38)" fill="none" stroke="#242549" stroke-linecap="square" stroke-miterlimit="10" stroke-width="2"/></g><line y2="5.715" transform="translate(41.789 64.642)" fill="none" stroke="#242549" stroke-linecap="square" stroke-miterlimit="10" stroke-width="2"/><line y2="5.715" transform="translate(26.271 64.642)" fill="none" stroke="#242549" stroke-linecap="square" stroke-miterlimit="10" stroke-width="2"/></g><text transform="translate(71 715)" fill="#242549" font-size="12" font-family="Arial-BoldMT, Arial" font-weight="700"><tspan x="-22.09" y="0">парами</tspan></text><text transform="translate(158 715)" fill="#242549" font-size="12" font-family="Arial-BoldMT, Arial" font-weight="700"><tspan x="-33.955" y="0">с друзьями</tspan></text><text transform="translate(249 715)" fill="#242549" font-size="12" font-family="Arial-BoldMT, Arial" font-weight="700"><tspan x="-26.35" y="0">семьями</tspan></text><text transform="translate(31.315 595.554)" fill="#242549" font-size="15" font-family="Helvetica-Bold, Helvetica" font-weight="700"><tspan x="0" y="0">Состав посещения</tspan></text></g></g></svg>