<svg xmlns="http://www.w3.org/2000/svg" width="291.001" height="250" viewBox="0 0 291.001 250"><g transform="translate(-3350.892 -1481)"><path d="M-14.652-11.748h1.87V0h2.42V-15.4H-11.99a2.4,2.4,0,0,1-2.662,1.936Zm9.042-.11c0-1.1.484-1.518,1.254-1.518s1.254.418,1.254,1.518v8.316c0,1.1-.484,1.518-1.254,1.518S-5.61-2.442-5.61-3.542ZM-8.03-3.7c0,2.464,1.3,3.872,3.674,3.872S-.682-1.232-.682-3.7V-11.7c0-2.464-1.3-3.872-3.674-3.872S-8.03-14.168-8.03-11.7Z" transform="translate(3367.172 1669.215)" fill="#242549"/><path d="M-14.652-11.748h1.87V0h2.42V-15.4H-11.99a2.4,2.4,0,0,1-2.662,1.936Zm6.71,6.776V-3.7C-7.942-1.232-6.71.176-4.334.176S-.726-1.232-.726-3.7V-7.128c0-2.266-.9-3.52-2.684-3.52A2.309,2.309,0,0,0-5.522-9.526l.2-3.674h4.2v-2.2H-7.5l-.44,8.932h2.288V-6.93c0-1.1.484-1.518,1.254-1.518s1.254.418,1.254,1.518v3.388c0,1.1-.484,1.5-1.254,1.5s-1.254-.4-1.254-1.5v-1.43Z" transform="translate(3367.172 1627.018)" fill="#242549"/><path d="M-11.352-11.616c0,4.444-4.8,5.192-4.8,9.724V0h7V-2.2h-4.576a1.665,1.665,0,0,1-.022-.33c0-2.53,4.818-4.334,4.818-9.174,0-2.464-1.232-3.872-3.608-3.872s-3.608,1.408-3.608,3.872v1.5h2.288v-1.65c0-1.1.484-1.518,1.254-1.518S-11.352-13-11.352-11.616Zm5.742-.242c0-1.1.484-1.518,1.254-1.518s1.254.418,1.254,1.518v8.316c0,1.1-.484,1.518-1.254,1.518S-5.61-2.442-5.61-3.542ZM-8.03-3.7c0,2.464,1.3,3.872,3.674,3.872S-.682-1.232-.682-3.7V-11.7c0-2.464-1.3-3.872-3.674-3.872S-8.03-14.168-8.03-11.7Z" transform="translate(3367.172 1584.819)" fill="#242549"/><path d="M-11.352-11.616c0,4.444-4.8,5.192-4.8,9.724V0h7V-2.2h-4.576a1.665,1.665,0,0,1-.022-.33c0-2.53,4.818-4.334,4.818-9.174,0-2.464-1.232-3.872-3.608-3.872s-3.608,1.408-3.608,3.872v1.5h2.288v-1.65c0-1.1.484-1.518,1.254-1.518S-11.352-13-11.352-11.616Zm3.41,6.644V-3.7C-7.942-1.232-6.71.176-4.334.176S-.726-1.232-.726-3.7V-7.128c0-2.266-.9-3.52-2.684-3.52A2.309,2.309,0,0,0-5.522-9.526l.2-3.674h4.2v-2.2H-7.5l-.44,8.932h2.288V-6.93c0-1.1.484-1.518,1.254-1.518s1.254.418,1.254,1.518v3.388c0,1.1-.484,1.5-1.254,1.5s-1.254-.4-1.254-1.5v-1.43Z" transform="translate(3367.172 1542.621)" fill="#242549"/><path d="M-11.484-10.758c0,1.232-.55,1.628-1.452,1.628h-.946v2.2h.814c1.1,0,1.584.528,1.584,1.958v1.21c0,1.364-.484,1.738-1.254,1.738s-1.254-.418-1.254-1.518v-1.43H-16.28V-3.7c0,2.464,1.232,3.872,3.608,3.872S-9.064-1.232-9.064-3.7v-1.21c0-1.562-.484-2.706-1.694-3.234,1.166-.484,1.694-1.518,1.694-3.168v-.4c0-2.464-1.232-3.872-3.608-3.872S-16.28-14.168-16.28-11.7v.836h2.288v-.99c0-1.1.484-1.518,1.254-1.518s1.254.374,1.254,1.76Zm5.874-1.1c0-1.1.484-1.518,1.254-1.518s1.254.418,1.254,1.518v8.316c0,1.1-.484,1.518-1.254,1.518S-5.61-2.442-5.61-3.542ZM-8.03-3.7c0,2.464,1.3,3.872,3.674,3.872S-.682-1.232-.682-3.7V-11.7c0-2.464-1.3-3.872-3.674-3.872S-8.03-14.168-8.03-11.7Z" transform="translate(3367.172 1500.422)" fill="#242549"/><path d="M.42-4.62H1.98a.712.712,0,0,1,.276-.588A1.176,1.176,0,0,1,2.964-5.4a1.663,1.663,0,0,1,.36.036,1.039,1.039,0,0,1,.288.12.9.9,0,0,1,.18.24.9.9,0,0,1,.072.372.74.74,0,0,1-.228.564,1.318,1.318,0,0,1-.792.192H2.208v1.1h.756a1.379,1.379,0,0,1,.792.18.759.759,0,0,1,.252.648.919.919,0,0,1-.048.3,1.191,1.191,0,0,1-.168.324.936.936,0,0,1-.312.24,1.32,1.32,0,0,1-.516.1,1.347,1.347,0,0,1-.456-.072,1.426,1.426,0,0,1-.348-.216A.763.763,0,0,1,1.932-1.6.921.921,0,0,1,1.848-2H.264A2.142,2.142,0,0,0,.48-.984,1.723,1.723,0,0,0,1.068-.3a2.4,2.4,0,0,0,.888.384A5.575,5.575,0,0,0,3.1.192a3.668,3.668,0,0,0,.948-.12A2.388,2.388,0,0,0,4.9-.312,2.062,2.062,0,0,0,5.5-1,1.874,1.874,0,0,0,5.736-2a2.085,2.085,0,0,0-.06-.468A1.459,1.459,0,0,0,5.46-2.9a1.53,1.53,0,0,0-.384-.348A1.551,1.551,0,0,0,4.5-3.444v-.024a1.6,1.6,0,0,0,.4-.156A1.168,1.168,0,0,0,5.22-3.9a1.125,1.125,0,0,0,.216-.372,1.347,1.347,0,0,0,.084-.5,1.651,1.651,0,0,0-.144-.672,1.615,1.615,0,0,0-.432-.564,2.078,2.078,0,0,0-.756-.408A3.683,3.683,0,0,0,3.1-6.576a4.92,4.92,0,0,0-1.056.108,2.638,2.638,0,0,0-.84.348,1.685,1.685,0,0,0-.564.6A2.073,2.073,0,0,0,.42-4.62Zm7.908-.852v-.912H6.744V2.472H8.4V-.792h.024a1.9,1.9,0,0,0,.372.48,1.608,1.608,0,0,0,.444.3,1.73,1.73,0,0,0,.48.156,2.172,2.172,0,0,0,.48.048A2.733,2.733,0,0,0,11.412-.06a2.558,2.558,0,0,0,.84-.72,3.174,3.174,0,0,0,.5-1.116,5.21,5.21,0,0,0,.168-1.416,4.381,4.381,0,0,0-.12-1.1,3.139,3.139,0,0,0-.312-.84,2.5,2.5,0,0,0-.468-.624,2.463,2.463,0,0,0-.552-.4A2.538,2.538,0,0,0,10.86-6.5a2.641,2.641,0,0,0-.6-.072,2.411,2.411,0,0,0-.624.072,1.766,1.766,0,0,0-.516.192,1.789,1.789,0,0,0-.408.336,2.7,2.7,0,0,0-.36.5Zm1.44.384a1.328,1.328,0,0,1,.672.168,1.565,1.565,0,0,1,.444.444,2.325,2.325,0,0,1,.24.612,3.2,3.2,0,0,1,.072.672c0,.12,0,.252-.012.4s-.048.288-.084.432a4.34,4.34,0,0,1-.156.42,1.723,1.723,0,0,1-.264.372,1.772,1.772,0,0,1-.384.252,1.383,1.383,0,0,1-.528.1,1.383,1.383,0,0,1-.528-.1,1.772,1.772,0,0,1-.384-.252A1.134,1.134,0,0,1,8.6-1.944a2.556,2.556,0,0,1-.168-.42A2.705,2.705,0,0,1,8.364-2.8a2.33,2.33,0,0,1-.024-.4,3.2,3.2,0,0,1,.072-.672,1.992,1.992,0,0,1,.252-.612A1.386,1.386,0,0,1,9.1-4.92,1.3,1.3,0,0,1,9.768-5.088Zm6.012,2.64V-6.384H14.124V0h1.812l2.256-3.852h.024V0h1.656V-6.384h-1.74L15.8-2.448ZM20.9-6.384V-5.04h1.932V0h1.656V-5.04h1.932V-6.384Zm7.74,3.708h4.38a8.086,8.086,0,0,0-.156-1.6,3.193,3.193,0,0,0-.5-1.236,2.507,2.507,0,0,0-.936-.792A3.365,3.365,0,0,0,30-6.576a2.96,2.96,0,0,0-1.368.276,2.519,2.519,0,0,0-.948.732,2.823,2.823,0,0,0-.528,1.056,4.3,4.3,0,0,0-.18,1.248,4.806,4.806,0,0,0,.24,1.6A2.884,2.884,0,0,0,27.876-.6a2.373,2.373,0,0,0,.984.6,3.475,3.475,0,0,0,1.188.192A3.587,3.587,0,0,0,30.96.084a3.206,3.206,0,0,0,.72-.276,2.244,2.244,0,0,0,.564-.4,2.763,2.763,0,0,0,.4-.456,2.7,2.7,0,0,0,.228-.456,1.261,1.261,0,0,0,.072-.4H31.224a.953.953,0,0,1-.156.312,1.142,1.142,0,0,1-.252.228.869.869,0,0,1-.324.144,1.115,1.115,0,0,1-.348.06,1.6,1.6,0,0,1-.576-.1,1.034,1.034,0,0,1-.408-.228.853.853,0,0,1-.276-.312,2.1,2.1,0,0,1-.156-.336,1.094,1.094,0,0,1-.06-.324A2.116,2.116,0,0,1,28.644-2.676ZM31.3-3.78H28.7a1.589,1.589,0,0,1,.132-.708,1.1,1.1,0,0,1,.312-.444,1.128,1.128,0,0,1,.42-.24A1.869,1.869,0,0,1,30-5.232a1.785,1.785,0,0,1,.432.06,1.282,1.282,0,0,1,.432.24,1.4,1.4,0,0,1,.312.444A1.784,1.784,0,0,1,31.3-3.78Zm7.272-1.26V0h1.644V-6.384H35.076l-.048,2.412c-.012.564-.036,1.02-.072,1.38a4.454,4.454,0,0,1-.168.84.851.851,0,0,1-.252.408.482.482,0,0,1-.336.12,2.023,2.023,0,0,1-.3-.024,2.266,2.266,0,0,1-.216-.072V.072a1.776,1.776,0,0,0,.348.1c.144.012.3.024.492.024a1.761,1.761,0,0,0,.984-.252,1.894,1.894,0,0,0,.612-.768,5.043,5.043,0,0,0,.324-1.26c.06-.5.108-1.092.132-1.764L36.6-5.04Zm5.04,2.592V-6.384H41.952V0h1.812L46.02-3.852h.024V0H47.7V-6.384H45.96L43.632-2.448Zm12.36-3.936h-3.3V0h3.576a2.744,2.744,0,0,0,.912-.144,1.908,1.908,0,0,0,.7-.408,1.8,1.8,0,0,0,.444-.624,2.2,2.2,0,0,0,.144-.816,1.545,1.545,0,0,0-.252-.888,1.361,1.361,0,0,0-.732-.54,1.444,1.444,0,0,0,.288-.18.971.971,0,0,0,.24-.252,1,1,0,0,0,.168-.36,1.492,1.492,0,0,0,.06-.492,1.693,1.693,0,0,0-.18-.828,1.449,1.449,0,0,0-.492-.516,2.7,2.7,0,0,0-.72-.264A4.9,4.9,0,0,0,55.968-6.384ZM55.6-3.876H54.324V-5.208h1.32a1.568,1.568,0,0,1,.444.048.845.845,0,0,1,.276.132.491.491,0,0,1,.156.2.646.646,0,0,1,.048.264.788.788,0,0,1-.048.3.378.378,0,0,1-.156.2.8.8,0,0,1-.288.132A2.584,2.584,0,0,1,55.6-3.876Zm0,2.7H54.324v-1.6H55.6a3.155,3.155,0,0,1,.516.036.706.706,0,0,1,.348.132.467.467,0,0,1,.192.24.983.983,0,0,1,.06.4,1.07,1.07,0,0,1-.036.264.558.558,0,0,1-.156.252,1,1,0,0,1-.336.2A1.958,1.958,0,0,1,55.6-1.176Zm7.488-.492A4.014,4.014,0,0,0,62.688,0h5.82V-1.476H64.8a2.043,2.043,0,0,1,.4-.456c.144-.132.432-.348.852-.648l.672-.468A5.98,5.98,0,0,0,67.932-4.14,2.668,2.668,0,0,0,68.5-5.808a2.543,2.543,0,0,0-.8-1.98,2.972,2.972,0,0,0-2.136-.744A2.439,2.439,0,0,0,63.18-7.26a4.108,4.108,0,0,0-.4,1.752H64.4A2.821,2.821,0,0,1,64.6-6.552a1.034,1.034,0,0,1,1.032-.576,1.072,1.072,0,0,1,.864.36,1.4,1.4,0,0,1,.3.9,1.738,1.738,0,0,1-.528,1.212,12.235,12.235,0,0,1-1.488,1.188A4.7,4.7,0,0,0,63.084-1.668ZM74.568-7.416a2.4,2.4,0,0,0-2.28-1.14,2.394,2.394,0,0,0-2.268,1.14,6.548,6.548,0,0,0-.66,3.252,6.467,6.467,0,0,0,.66,3.24A2.394,2.394,0,0,0,72.288.216a2.4,2.4,0,0,0,2.28-1.14,6.6,6.6,0,0,0,.66-3.24A6.683,6.683,0,0,0,74.568-7.416ZM71.3-1.932a8.1,8.1,0,0,1-.24-2.232,8.079,8.079,0,0,1,.24-2.28.962.962,0,0,1,.984-.732.945.945,0,0,1,.984.732,8.173,8.173,0,0,1,.228,2.28,8.187,8.187,0,0,1-.228,2.232.952.952,0,0,1-.984.78A.969.969,0,0,1,71.3-1.932ZM76.488-7v1.14h2V0h1.7V-8.5h-1.38a1.2,1.2,0,0,1-.072.336,1.488,1.488,0,0,1-.324.612A1.56,1.56,0,0,1,77.6-7.1,7.449,7.449,0,0,1,76.488-7Zm7-.732a3.144,3.144,0,0,0-.792,2.22,2.586,2.586,0,0,0,.78,2.016,2.645,2.645,0,0,0,1.8.708,2.159,2.159,0,0,0,1.152-.288,1.793,1.793,0,0,0,.492-.432,5.574,5.574,0,0,1-.228,1.464,1.194,1.194,0,0,1-1.164.912.963.963,0,0,1-.684-.228,1,1,0,0,1-.312-.612H82.86a2.184,2.184,0,0,0,.876,1.644,2.766,2.766,0,0,0,1.716.576A2.743,2.743,0,0,0,88.2-1.716a7.218,7.218,0,0,0,.4-2.568,6.647,6.647,0,0,0-.408-2.568,2.652,2.652,0,0,0-2.664-1.716A2.677,2.677,0,0,0,83.484-7.728Zm2.808,3.384a1.234,1.234,0,0,1-.66.192,1.13,1.13,0,0,1-.936-.372,1.794,1.794,0,0,1-.312-1.14,1.524,1.524,0,0,1,.48-1.272,1.166,1.166,0,0,1,.732-.24,1.106,1.106,0,0,1,.924.432,1.744,1.744,0,0,1,.336,1.14A1.386,1.386,0,0,1,86.292-4.344Zm11.136-.7V-6.384h-4.3V0h1.656V-5.04Zm.648,1.848A4.067,4.067,0,0,0,98.3-1.836a2.889,2.889,0,0,0,.648,1.08,3.13,3.13,0,0,0,1.032.7,3.5,3.5,0,0,0,1.356.252,3.581,3.581,0,0,0,1.38-.252,2.96,2.96,0,0,0,1.02-.7,3.241,3.241,0,0,0,.648-1.08,4.069,4.069,0,0,0,.216-1.356,4.069,4.069,0,0,0-.216-1.356,3.241,3.241,0,0,0-.648-1.08,2.8,2.8,0,0,0-1.02-.7,3.581,3.581,0,0,0-1.38-.252,3.5,3.5,0,0,0-1.356.252,2.958,2.958,0,0,0-1.032.7,2.889,2.889,0,0,0-.648,1.08A4.067,4.067,0,0,0,98.076-3.192Zm1.728,0a3.682,3.682,0,0,1,.084-.72,1.664,1.664,0,0,1,.264-.636,1.382,1.382,0,0,1,.468-.444,1.452,1.452,0,0,1,.72-.168,1.521,1.521,0,0,1,.744.156,1.508,1.508,0,0,1,.468.444,1.767,1.767,0,0,1,.252.636,3.694,3.694,0,0,1,.072.732,3.694,3.694,0,0,1-.072.732,1.707,1.707,0,0,1-.252.624,1.382,1.382,0,0,1-.468.444,1.517,1.517,0,0,1-.744.168,1.452,1.452,0,0,1-.72-.168,1.31,1.31,0,0,1-.468-.456,1.589,1.589,0,0,1-.264-.636A3.461,3.461,0,0,1,99.8-3.192Zm6.108,1.848h-.66v2.88h1.56V0H111V1.536h1.56v-2.88h-.8v-5.04h-4.992v.54c0,.228,0,.48-.012.756s-.036.576-.06.876a9.045,9.045,0,0,1-.144.972,9.567,9.567,0,0,1-.24.972A5.788,5.788,0,0,1,105.912-1.344Zm2.292-3.7h1.9v3.7h-2.52a4.389,4.389,0,0,0,.252-.636q.108-.342.18-.684c.048-.24.084-.468.108-.708s.048-.456.06-.66.024-.408.024-.576Zm8.784,4.932,2.2-6.276h-1.776L116.1-1.68h-.024l-1.368-4.7h-1.86l2.34,6.72a.7.7,0,0,1-.048.24.755.755,0,0,1-.156.288.96.96,0,0,1-.288.24.972.972,0,0,1-.444.1A2.043,2.043,0,0,1,114,1.188a1.238,1.238,0,0,1-.24-.024V2.508c.132.012.24.024.348.024a2.315,2.315,0,0,0,.3.012,4.013,4.013,0,0,0,.708-.048,1.431,1.431,0,0,0,.528-.156,1.153,1.153,0,0,0,.384-.3,2.224,2.224,0,0,0,.324-.48c.1-.2.192-.432.3-.708S116.868.264,116.988-.108ZM123.9-6.456a7.779,7.779,0,0,0-.7,3.192A8.738,8.738,0,0,0,124.02.312a8.3,8.3,0,0,0,.864,1.536l.42.576h1.236A15.162,15.162,0,0,1,125.46.132a9.965,9.965,0,0,1-.528-3.3,11.507,11.507,0,0,1,.192-2.112,9.753,9.753,0,0,1,1.032-2.844l.348-.648h-1.26A11.886,11.886,0,0,0,123.9-6.456Zm7.152,4.7-1.08-4.632h-2.5V0h1.56V-5.136h.024L130.26,0h1.512l1.2-5.136H133V0h1.56V-6.384h-2.424l-1.056,4.632ZM140.58-5.04V0h1.644V-6.384h-5.136l-.048,2.412c-.012.564-.036,1.02-.072,1.38a4.452,4.452,0,0,1-.168.84.851.851,0,0,1-.252.408.482.482,0,0,1-.336.12,2.023,2.023,0,0,1-.3-.024,2.265,2.265,0,0,1-.216-.072V.072a1.775,1.775,0,0,0,.348.1c.144.012.3.024.492.024a1.761,1.761,0,0,0,.984-.252,1.894,1.894,0,0,0,.612-.768,5.043,5.043,0,0,0,.324-1.26c.06-.5.108-1.092.132-1.764l.024-1.188Zm5.04.96v-2.3h-1.656V0h1.656V-2.736h2.436V0h1.656V-6.384h-1.656v2.3Zm12.444,1.56V0h1.656V-6.384h-1.656v2.64a2.1,2.1,0,0,1-.4.18,2.487,2.487,0,0,1-.672.072,3.1,3.1,0,0,1-.5-.036.764.764,0,0,1-.348-.144.556.556,0,0,1-.2-.288,1.143,1.143,0,0,1-.072-.444v-1.98h-1.656v2.3a2.217,2.217,0,0,0,.144.852,1.31,1.31,0,0,0,.432.576,2.015,2.015,0,0,0,.708.312,4.675,4.675,0,0,0,.972.1,2.981,2.981,0,0,0,.456-.024c.156-.012.312-.036.456-.06s.276-.06.4-.1S157.992-2.5,158.064-2.52Zm4.428-.156h4.38a8.085,8.085,0,0,0-.156-1.6,3.193,3.193,0,0,0-.5-1.236,2.507,2.507,0,0,0-.936-.792,3.365,3.365,0,0,0-1.428-.276,2.96,2.96,0,0,0-1.368.276,2.519,2.519,0,0,0-.948.732A2.823,2.823,0,0,0,161-4.512a4.3,4.3,0,0,0-.18,1.248,4.806,4.806,0,0,0,.24,1.6,2.884,2.884,0,0,0,.66,1.068,2.373,2.373,0,0,0,.984.6A3.475,3.475,0,0,0,163.9.192a3.587,3.587,0,0,0,.912-.108,3.206,3.206,0,0,0,.72-.276,2.244,2.244,0,0,0,.564-.4,2.762,2.762,0,0,0,.4-.456,2.694,2.694,0,0,0,.228-.456,1.261,1.261,0,0,0,.072-.4h-1.716a.953.953,0,0,1-.156.312,1.142,1.142,0,0,1-.252.228.869.869,0,0,1-.324.144,1.115,1.115,0,0,1-.348.06,1.6,1.6,0,0,1-.576-.1,1.034,1.034,0,0,1-.408-.228.853.853,0,0,1-.276-.312,2.106,2.106,0,0,1-.156-.336,1.094,1.094,0,0,1-.06-.324A2.117,2.117,0,0,1,162.492-2.676Zm2.652-1.1h-2.592a1.589,1.589,0,0,1,.132-.708A1.1,1.1,0,0,1,163-4.932a1.128,1.128,0,0,1,.42-.24,1.869,1.869,0,0,1,.432-.06,1.785,1.785,0,0,1,.432.06,1.282,1.282,0,0,1,.432.24,1.4,1.4,0,0,1,.312.444A1.784,1.784,0,0,1,165.144-3.78Zm7.272-1.26V0h1.644V-6.384h-5.136l-.048,2.412c-.012.564-.036,1.02-.072,1.38a4.452,4.452,0,0,1-.168.84.851.851,0,0,1-.252.408.482.482,0,0,1-.336.12,2.023,2.023,0,0,1-.3-.024,2.265,2.265,0,0,1-.216-.072V.072a1.775,1.775,0,0,0,.348.1c.144.012.3.024.492.024a1.761,1.761,0,0,0,.984-.252,1.894,1.894,0,0,0,.612-.768,5.043,5.043,0,0,0,.324-1.26c.06-.5.108-1.092.132-1.764l.024-1.188Zm5.352-1.416a11.885,11.885,0,0,0-1.344-2.316h-1.26l.348.648a9.753,9.753,0,0,1,1.032,2.844,11.506,11.506,0,0,1,.192,2.112,9.965,9.965,0,0,1-.528,3.3,15.162,15.162,0,0,1-1.08,2.292h1.236l.42-.576a8.3,8.3,0,0,0,.864-1.536,8.738,8.738,0,0,0,.816-3.576A7.779,7.779,0,0,0,177.768-6.456Z" transform="translate(3405.6 1722.527)" fill="#242647"/><path d="M2.8,0h8.4A2.8,2.8,0,0,1,14,2.8v8.4A2.8,2.8,0,0,1,11.2,14H2.8A2.8,2.8,0,0,1,0,11.2V2.8A2.8,2.8,0,0,1,2.8,0Z" transform="translate(3389.915 1711.894)" fill="#f2a947"/><path d="M.42-4.62H1.98a.712.712,0,0,1,.276-.588A1.176,1.176,0,0,1,2.964-5.4a1.663,1.663,0,0,1,.36.036,1.039,1.039,0,0,1,.288.12.9.9,0,0,1,.18.24.9.9,0,0,1,.072.372.74.74,0,0,1-.228.564,1.318,1.318,0,0,1-.792.192H2.208v1.1h.756a1.379,1.379,0,0,1,.792.18.759.759,0,0,1,.252.648.919.919,0,0,1-.048.3,1.191,1.191,0,0,1-.168.324.936.936,0,0,1-.312.24,1.32,1.32,0,0,1-.516.1,1.347,1.347,0,0,1-.456-.072,1.426,1.426,0,0,1-.348-.216A.763.763,0,0,1,1.932-1.6.921.921,0,0,1,1.848-2H.264A2.142,2.142,0,0,0,.48-.984,1.723,1.723,0,0,0,1.068-.3a2.4,2.4,0,0,0,.888.384A5.575,5.575,0,0,0,3.1.192a3.668,3.668,0,0,0,.948-.12A2.388,2.388,0,0,0,4.9-.312,2.062,2.062,0,0,0,5.5-1,1.874,1.874,0,0,0,5.736-2a2.085,2.085,0,0,0-.06-.468A1.459,1.459,0,0,0,5.46-2.9a1.53,1.53,0,0,0-.384-.348A1.551,1.551,0,0,0,4.5-3.444v-.024a1.6,1.6,0,0,0,.4-.156A1.168,1.168,0,0,0,5.22-3.9a1.125,1.125,0,0,0,.216-.372,1.347,1.347,0,0,0,.084-.5,1.651,1.651,0,0,0-.144-.672,1.615,1.615,0,0,0-.432-.564,2.078,2.078,0,0,0-.756-.408A3.683,3.683,0,0,0,3.1-6.576a4.92,4.92,0,0,0-1.056.108,2.638,2.638,0,0,0-.84.348,1.685,1.685,0,0,0-.564.6A2.073,2.073,0,0,0,.42-4.62Zm7.908-.852v-.912H6.744V2.472H8.4V-.792h.024a1.9,1.9,0,0,0,.372.48,1.608,1.608,0,0,0,.444.3,1.73,1.73,0,0,0,.48.156,2.172,2.172,0,0,0,.48.048A2.733,2.733,0,0,0,11.412-.06a2.558,2.558,0,0,0,.84-.72,3.174,3.174,0,0,0,.5-1.116,5.21,5.21,0,0,0,.168-1.416,4.381,4.381,0,0,0-.12-1.1,3.139,3.139,0,0,0-.312-.84,2.5,2.5,0,0,0-.468-.624,2.463,2.463,0,0,0-.552-.4A2.538,2.538,0,0,0,10.86-6.5a2.641,2.641,0,0,0-.6-.072,2.411,2.411,0,0,0-.624.072,1.766,1.766,0,0,0-.516.192,1.789,1.789,0,0,0-.408.336,2.7,2.7,0,0,0-.36.5Zm1.44.384a1.328,1.328,0,0,1,.672.168,1.565,1.565,0,0,1,.444.444,2.325,2.325,0,0,1,.24.612,3.2,3.2,0,0,1,.072.672c0,.12,0,.252-.012.4s-.048.288-.084.432a4.34,4.34,0,0,1-.156.42,1.723,1.723,0,0,1-.264.372,1.772,1.772,0,0,1-.384.252,1.383,1.383,0,0,1-.528.1,1.383,1.383,0,0,1-.528-.1,1.772,1.772,0,0,1-.384-.252A1.134,1.134,0,0,1,8.6-1.944a2.556,2.556,0,0,1-.168-.42A2.705,2.705,0,0,1,8.364-2.8a2.33,2.33,0,0,1-.024-.4,3.2,3.2,0,0,1,.072-.672,1.992,1.992,0,0,1,.252-.612A1.386,1.386,0,0,1,9.1-4.92,1.3,1.3,0,0,1,9.768-5.088Zm6.012,2.64V-6.384H14.124V0h1.812l2.256-3.852h.024V0h1.656V-6.384h-1.74L15.8-2.448ZM20.9-6.384V-5.04h1.932V0h1.656V-5.04h1.932V-6.384Zm7.74,3.708h4.38a8.086,8.086,0,0,0-.156-1.6,3.193,3.193,0,0,0-.5-1.236,2.507,2.507,0,0,0-.936-.792A3.365,3.365,0,0,0,30-6.576a2.96,2.96,0,0,0-1.368.276,2.519,2.519,0,0,0-.948.732,2.823,2.823,0,0,0-.528,1.056,4.3,4.3,0,0,0-.18,1.248,4.806,4.806,0,0,0,.24,1.6A2.884,2.884,0,0,0,27.876-.6a2.373,2.373,0,0,0,.984.6,3.475,3.475,0,0,0,1.188.192A3.587,3.587,0,0,0,30.96.084a3.206,3.206,0,0,0,.72-.276,2.244,2.244,0,0,0,.564-.4,2.763,2.763,0,0,0,.4-.456,2.7,2.7,0,0,0,.228-.456,1.261,1.261,0,0,0,.072-.4H31.224a.953.953,0,0,1-.156.312,1.142,1.142,0,0,1-.252.228.869.869,0,0,1-.324.144,1.115,1.115,0,0,1-.348.06,1.6,1.6,0,0,1-.576-.1,1.034,1.034,0,0,1-.408-.228.853.853,0,0,1-.276-.312,2.1,2.1,0,0,1-.156-.336,1.094,1.094,0,0,1-.06-.324A2.116,2.116,0,0,1,28.644-2.676ZM31.3-3.78H28.7a1.589,1.589,0,0,1,.132-.708,1.1,1.1,0,0,1,.312-.444,1.128,1.128,0,0,1,.42-.24A1.869,1.869,0,0,1,30-5.232a1.785,1.785,0,0,1,.432.06,1.282,1.282,0,0,1,.432.24,1.4,1.4,0,0,1,.312.444A1.784,1.784,0,0,1,31.3-3.78Zm7.272-1.26V0h1.644V-6.384H35.076l-.048,2.412c-.012.564-.036,1.02-.072,1.38a4.454,4.454,0,0,1-.168.84.851.851,0,0,1-.252.408.482.482,0,0,1-.336.12,2.023,2.023,0,0,1-.3-.024,2.266,2.266,0,0,1-.216-.072V.072a1.776,1.776,0,0,0,.348.1c.144.012.3.024.492.024a1.761,1.761,0,0,0,.984-.252,1.894,1.894,0,0,0,.612-.768,5.043,5.043,0,0,0,.324-1.26c.06-.5.108-1.092.132-1.764L36.6-5.04Zm5.04,2.592V-6.384H41.952V0h1.812L46.02-3.852h.024V0H47.7V-6.384H45.96L43.632-2.448Zm12.36-3.936h-3.3V0h3.576a2.744,2.744,0,0,0,.912-.144,1.908,1.908,0,0,0,.7-.408,1.8,1.8,0,0,0,.444-.624,2.2,2.2,0,0,0,.144-.816,1.545,1.545,0,0,0-.252-.888,1.361,1.361,0,0,0-.732-.54,1.444,1.444,0,0,0,.288-.18.971.971,0,0,0,.24-.252,1,1,0,0,0,.168-.36,1.492,1.492,0,0,0,.06-.492,1.693,1.693,0,0,0-.18-.828,1.449,1.449,0,0,0-.492-.516,2.7,2.7,0,0,0-.72-.264A4.9,4.9,0,0,0,55.968-6.384ZM55.6-3.876H54.324V-5.208h1.32a1.568,1.568,0,0,1,.444.048.845.845,0,0,1,.276.132.491.491,0,0,1,.156.2.646.646,0,0,1,.048.264.788.788,0,0,1-.048.3.378.378,0,0,1-.156.2.8.8,0,0,1-.288.132A2.584,2.584,0,0,1,55.6-3.876Zm0,2.7H54.324v-1.6H55.6a3.155,3.155,0,0,1,.516.036.706.706,0,0,1,.348.132.467.467,0,0,1,.192.24.983.983,0,0,1,.06.4,1.07,1.07,0,0,1-.036.264.558.558,0,0,1-.156.252,1,1,0,0,1-.336.2A1.958,1.958,0,0,1,55.6-1.176Zm7.488-.492A4.014,4.014,0,0,0,62.688,0h5.82V-1.476H64.8a2.043,2.043,0,0,1,.4-.456c.144-.132.432-.348.852-.648l.672-.468A5.98,5.98,0,0,0,67.932-4.14,2.668,2.668,0,0,0,68.5-5.808a2.543,2.543,0,0,0-.8-1.98,2.972,2.972,0,0,0-2.136-.744A2.439,2.439,0,0,0,63.18-7.26a4.108,4.108,0,0,0-.4,1.752H64.4A2.821,2.821,0,0,1,64.6-6.552a1.034,1.034,0,0,1,1.032-.576,1.072,1.072,0,0,1,.864.36,1.4,1.4,0,0,1,.3.9,1.738,1.738,0,0,1-.528,1.212,12.235,12.235,0,0,1-1.488,1.188A4.7,4.7,0,0,0,63.084-1.668ZM74.568-7.416a2.4,2.4,0,0,0-2.28-1.14,2.394,2.394,0,0,0-2.268,1.14,6.548,6.548,0,0,0-.66,3.252,6.467,6.467,0,0,0,.66,3.24A2.394,2.394,0,0,0,72.288.216a2.4,2.4,0,0,0,2.28-1.14,6.6,6.6,0,0,0,.66-3.24A6.683,6.683,0,0,0,74.568-7.416ZM71.3-1.932a8.1,8.1,0,0,1-.24-2.232,8.079,8.079,0,0,1,.24-2.28.962.962,0,0,1,.984-.732.945.945,0,0,1,.984.732,8.173,8.173,0,0,1,.228,2.28,8.187,8.187,0,0,1-.228,2.232.952.952,0,0,1-.984.78A.969.969,0,0,1,71.3-1.932ZM76.488-7v1.14h2V0h1.7V-8.5h-1.38a1.2,1.2,0,0,1-.072.336,1.488,1.488,0,0,1-.324.612A1.56,1.56,0,0,1,77.6-7.1,7.449,7.449,0,0,1,76.488-7ZM82.98-3.648a2.6,2.6,0,0,0-.336,1.3,2.567,2.567,0,0,0,.732,1.824,2.885,2.885,0,0,0,2.16.756,3.092,3.092,0,0,0,2.22-.756,2.436,2.436,0,0,0,.792-1.824,2.722,2.722,0,0,0-.312-1.3,2.452,2.452,0,0,0-.948-.936,1.664,1.664,0,0,0,.8-.828,2.544,2.544,0,0,0,.18-.888,2.068,2.068,0,0,0-.7-1.584,2.78,2.78,0,0,0-1.968-.648,2.76,2.76,0,0,0-1.968.648,2.068,2.068,0,0,0-.7,1.584,2.544,2.544,0,0,0,.18.888,2.047,2.047,0,0,0,.8.888A2.039,2.039,0,0,0,82.98-3.648Zm1.848-1.716a.977.977,0,0,1-.288-.756,1.025,1.025,0,0,1,.288-.792,1.065,1.065,0,0,1,.78-.276,1.115,1.115,0,0,1,.792.276,1.115,1.115,0,0,1,.276.792,1.064,1.064,0,0,1-.276.756,1.077,1.077,0,0,1-.792.3A1.03,1.03,0,0,1,84.828-5.364ZM84.708-1.5a1.359,1.359,0,0,1-.324-.972,1.323,1.323,0,0,1,.336-.984,1.167,1.167,0,0,1,.888-.336,1.213,1.213,0,0,1,.9.336,1.37,1.37,0,0,1,.324.984,1.359,1.359,0,0,1-.324.972,1.142,1.142,0,0,1-.9.348A1.142,1.142,0,0,1,84.708-1.5Zm12.72-3.54V-6.384h-4.3V0h1.656V-5.04Zm.648,1.848A4.067,4.067,0,0,0,98.3-1.836a2.889,2.889,0,0,0,.648,1.08,3.13,3.13,0,0,0,1.032.7,3.5,3.5,0,0,0,1.356.252,3.581,3.581,0,0,0,1.38-.252,2.96,2.96,0,0,0,1.02-.7,3.241,3.241,0,0,0,.648-1.08,4.069,4.069,0,0,0,.216-1.356,4.069,4.069,0,0,0-.216-1.356,3.241,3.241,0,0,0-.648-1.08,2.8,2.8,0,0,0-1.02-.7,3.581,3.581,0,0,0-1.38-.252,3.5,3.5,0,0,0-1.356.252,2.958,2.958,0,0,0-1.032.7,2.889,2.889,0,0,0-.648,1.08A4.067,4.067,0,0,0,98.076-3.192Zm1.728,0a3.682,3.682,0,0,1,.084-.72,1.664,1.664,0,0,1,.264-.636,1.382,1.382,0,0,1,.468-.444,1.452,1.452,0,0,1,.72-.168,1.521,1.521,0,0,1,.744.156,1.508,1.508,0,0,1,.468.444,1.767,1.767,0,0,1,.252.636,3.694,3.694,0,0,1,.072.732,3.694,3.694,0,0,1-.072.732,1.707,1.707,0,0,1-.252.624,1.382,1.382,0,0,1-.468.444,1.517,1.517,0,0,1-.744.168,1.452,1.452,0,0,1-.72-.168,1.31,1.31,0,0,1-.468-.456,1.589,1.589,0,0,1-.264-.636A3.461,3.461,0,0,1,99.8-3.192Zm6.108,1.848h-.66v2.88h1.56V0H111V1.536h1.56v-2.88h-.8v-5.04h-4.992v.54c0,.228,0,.48-.012.756s-.036.576-.06.876a9.045,9.045,0,0,1-.144.972,9.567,9.567,0,0,1-.24.972A5.788,5.788,0,0,1,105.912-1.344Zm2.292-3.7h1.9v3.7h-2.52a4.389,4.389,0,0,0,.252-.636q.108-.342.18-.684c.048-.24.084-.468.108-.708s.048-.456.06-.66.024-.408.024-.576Zm8.784,4.932,2.2-6.276h-1.776L116.1-1.68h-.024l-1.368-4.7h-1.86l2.34,6.72a.7.7,0,0,1-.048.24.755.755,0,0,1-.156.288.96.96,0,0,1-.288.24.972.972,0,0,1-.444.1A2.043,2.043,0,0,1,114,1.188a1.238,1.238,0,0,1-.24-.024V2.508c.132.012.24.024.348.024a2.315,2.315,0,0,0,.3.012,4.013,4.013,0,0,0,.708-.048,1.431,1.431,0,0,0,.528-.156,1.153,1.153,0,0,0,.384-.3,2.224,2.224,0,0,0,.324-.48c.1-.2.192-.432.3-.708S116.868.264,116.988-.108ZM123.9-6.456a7.779,7.779,0,0,0-.7,3.192A8.738,8.738,0,0,0,124.02.312a8.3,8.3,0,0,0,.864,1.536l.42.576h1.236A15.162,15.162,0,0,1,125.46.132a9.965,9.965,0,0,1-.528-3.3,11.507,11.507,0,0,1,.192-2.112,9.753,9.753,0,0,1,1.032-2.844l.348-.648h-1.26A11.886,11.886,0,0,0,123.9-6.456Zm7.152,4.7-1.08-4.632h-2.5V0h1.56V-5.136h.024L130.26,0h1.512l1.2-5.136H133V0h1.56V-6.384h-2.424l-1.056,4.632ZM140.58-5.04V0h1.644V-6.384h-5.136l-.048,2.412c-.012.564-.036,1.02-.072,1.38a4.452,4.452,0,0,1-.168.84.851.851,0,0,1-.252.408.482.482,0,0,1-.336.12,2.023,2.023,0,0,1-.3-.024,2.265,2.265,0,0,1-.216-.072V.072a1.775,1.775,0,0,0,.348.1c.144.012.3.024.492.024a1.761,1.761,0,0,0,.984-.252,1.894,1.894,0,0,0,.612-.768,5.043,5.043,0,0,0,.324-1.26c.06-.5.108-1.092.132-1.764l.024-1.188Zm5.04.96v-2.3h-1.656V0h1.656V-2.736h2.436V0h1.656V-6.384h-1.656v2.3Zm12.444,1.56V0h1.656V-6.384h-1.656v2.64a2.1,2.1,0,0,1-.4.18,2.487,2.487,0,0,1-.672.072,3.1,3.1,0,0,1-.5-.036.764.764,0,0,1-.348-.144.556.556,0,0,1-.2-.288,1.143,1.143,0,0,1-.072-.444v-1.98h-1.656v2.3a2.217,2.217,0,0,0,.144.852,1.31,1.31,0,0,0,.432.576,2.015,2.015,0,0,0,.708.312,4.675,4.675,0,0,0,.972.1,2.981,2.981,0,0,0,.456-.024c.156-.012.312-.036.456-.06s.276-.06.4-.1S157.992-2.5,158.064-2.52Zm4.428-.156h4.38a8.085,8.085,0,0,0-.156-1.6,3.193,3.193,0,0,0-.5-1.236,2.507,2.507,0,0,0-.936-.792,3.365,3.365,0,0,0-1.428-.276,2.96,2.96,0,0,0-1.368.276,2.519,2.519,0,0,0-.948.732A2.823,2.823,0,0,0,161-4.512a4.3,4.3,0,0,0-.18,1.248,4.806,4.806,0,0,0,.24,1.6,2.884,2.884,0,0,0,.66,1.068,2.373,2.373,0,0,0,.984.6A3.475,3.475,0,0,0,163.9.192a3.587,3.587,0,0,0,.912-.108,3.206,3.206,0,0,0,.72-.276,2.244,2.244,0,0,0,.564-.4,2.762,2.762,0,0,0,.4-.456,2.694,2.694,0,0,0,.228-.456,1.261,1.261,0,0,0,.072-.4h-1.716a.953.953,0,0,1-.156.312,1.142,1.142,0,0,1-.252.228.869.869,0,0,1-.324.144,1.115,1.115,0,0,1-.348.06,1.6,1.6,0,0,1-.576-.1,1.034,1.034,0,0,1-.408-.228.853.853,0,0,1-.276-.312,2.106,2.106,0,0,1-.156-.336,1.094,1.094,0,0,1-.06-.324A2.117,2.117,0,0,1,162.492-2.676Zm2.652-1.1h-2.592a1.589,1.589,0,0,1,.132-.708A1.1,1.1,0,0,1,163-4.932a1.128,1.128,0,0,1,.42-.24,1.869,1.869,0,0,1,.432-.06,1.785,1.785,0,0,1,.432.06,1.282,1.282,0,0,1,.432.24,1.4,1.4,0,0,1,.312.444A1.784,1.784,0,0,1,165.144-3.78Zm7.272-1.26V0h1.644V-6.384h-5.136l-.048,2.412c-.012.564-.036,1.02-.072,1.38a4.452,4.452,0,0,1-.168.84.851.851,0,0,1-.252.408.482.482,0,0,1-.336.12,2.023,2.023,0,0,1-.3-.024,2.265,2.265,0,0,1-.216-.072V.072a1.775,1.775,0,0,0,.348.1c.144.012.3.024.492.024a1.761,1.761,0,0,0,.984-.252,1.894,1.894,0,0,0,.612-.768,5.043,5.043,0,0,0,.324-1.26c.06-.5.108-1.092.132-1.764l.024-1.188Zm5.352-1.416a11.885,11.885,0,0,0-1.344-2.316h-1.26l.348.648a9.753,9.753,0,0,1,1.032,2.844,11.506,11.506,0,0,1,.192,2.112,9.965,9.965,0,0,1-.528,3.3,15.162,15.162,0,0,1-1.08,2.292h1.236l.42-.576a8.3,8.3,0,0,0,.864-1.536,8.738,8.738,0,0,0,.816-3.576A7.779,7.779,0,0,0,177.768-6.456Z" transform="translate(3405.6 1703.548)" fill="#242647"/><rect width="14" height="14" rx="2.8" transform="translate(3389.915 1692.916)" fill="#ef8f6d"/><g transform="translate(3385.201 1492.066)"><path d="M-124.562-49.6c0,18.976-20.479,22.169-20.479,41.521V0h29.872V-9.394h-19.539A7.109,7.109,0,0,1-134.8-10.8c0-10.8,20.573-18.506,20.573-39.172,0-10.521-5.261-16.533-15.406-16.533s-15.406,6.012-15.406,16.533v6.388h9.77v-7.045c0-4.7,2.067-6.482,5.354-6.482S-124.562-55.518-124.562-49.6Zm26.209-1.033c0-4.7,2.067-6.482,5.354-6.482s5.354,1.785,5.354,6.482v35.509c0,4.7-2.067,6.482-5.354,6.482s-5.354-1.785-5.354-6.482Zm-10.333,34.851C-108.687-5.261-103.144.752-93,.752s15.688-6.012,15.688-16.533V-49.975c0-10.521-5.542-16.533-15.688-16.533s-15.688,6.012-15.688,16.533Zm44.433-34.381h7.985V0h10.333V-65.757h-6.951c-1.6,4.415-3.382,8.267-11.367,8.267Zm61.154.188c0-10.521-5.542-16.533-15.688-16.533S-34.475-60.5-34.475-49.975v12.024c0,9.676,3.851,15.03,11.46,15.03,4.6,0,7.8-2.067,9.582-5.824v12.024c0,6.294-2.067,8.079-5.73,8.079-3.288,0-5.354-1.785-5.354-6.482v-2.348h-9.77v1.691C-34.288-5.261-29.027.752-18.882.752-8.173.752-3.1-5.261-3.1-16.345Zm-15.688,17.66c-3.288,0-5.354-1.785-5.354-6.482V-50.633c0-4.7,2.067-6.388,5.354-6.388s5.354,1.691,5.354,6.388V-38.8C-13.433-34.1-15.5-32.315-18.788-32.315Z" transform="translate(178.641 91.103)" fill="#e1dcd5" opacity="0.5"/><g transform="translate(0 4.135)"><line y2="171.809" transform="translate(255.692)" stroke-width="2" stroke="#e3ddd5" stroke-linecap="round" stroke-linejoin="round" fill="none"/><line y2="171.809" transform="translate(213.494)" stroke-width="2" stroke="#e3ddd5" stroke-linecap="round" stroke-linejoin="round" fill="none"/><line y2="171.809" transform="translate(171.464)" stroke-width="2" stroke="#e3ddd5" stroke-linecap="round" stroke-linejoin="round" fill="none"/><line y2="171.809" transform="translate(129.35)" stroke-width="2" stroke="#e3ddd5" stroke-linecap="round" stroke-linejoin="round" fill="none"/><line y2="171.809" transform="translate(87.236)" stroke-width="2" stroke="#e3ddd5" stroke-linecap="round" stroke-linejoin="round" fill="none"/><line y2="171.809" transform="translate(45.213)" stroke-width="2" stroke="#e3ddd5" stroke-linecap="round" stroke-linejoin="round" fill="none"/><line y2="171.809" transform="translate(3.014)" stroke-width="2" stroke="#e3ddd5" stroke-linecap="round" stroke-linejoin="round" fill="none"/><line x2="255.692" transform="translate(0 171.809)" stroke-width="2" stroke="#e3ddd5" stroke-linecap="round" stroke-linejoin="round" fill="none"/><line x2="255.692" transform="translate(0 129.61)" stroke-width="2" stroke="#e3ddd5" stroke-linecap="round" stroke-linejoin="round" fill="none"/><line x2="255.692" transform="translate(0 87.412)" stroke-width="2" stroke="#e3ddd5" stroke-linecap="round" stroke-linejoin="round" fill="none"/><line x2="255.692" transform="translate(0 45.213)" stroke-width="2" stroke="#e3ddd5" stroke-linecap="round" stroke-linejoin="round" fill="none"/><line x2="255.692" transform="translate(0 3.014)" stroke-width="2" stroke="#e3ddd5" stroke-linecap="round" stroke-linejoin="round" fill="none"/></g><path d="M-2253.608,715.283h18.719a3.015,3.015,0,0,1,3.015,3.015V867.223h-24.748V718.3A3.014,3.014,0,0,1-2253.608,715.283Z" transform="translate(2262.651 -692.334)" fill="#ef8f6d"/><path d="M-2244.09,702.544h20.624a3.015,3.015,0,0,1,3.014,3.014V867.223H-2247.1V705.558A3.015,3.015,0,0,1-2244.09,702.544Z" transform="translate(2262.651 -692.334)" fill="#f2a947"/><path d="M-2211.41,810.828h18.72a3.013,3.013,0,0,1,3.014,3.014v53.381h-24.748V813.842A3.014,3.014,0,0,1-2211.41,810.828Z" transform="translate(2262.543 -692.334)" fill="#ef8f6d"/><path d="M-2201.891,817.2h20.623a3.015,3.015,0,0,1,3.015,3.014v47.012h-26.652V820.211A3.014,3.014,0,0,1-2201.891,817.2Z" transform="translate(2262.521 -692.334)" fill="#f2a947"/><path d="M-2169.211,795.965h18.72a3.014,3.014,0,0,1,3.014,3.014v68.244h-24.748V798.979A3.014,3.014,0,0,1-2169.211,795.965Z" transform="translate(2262.45 -692.334)" fill="#ef8f6d"/><path d="M-2159.692,794.9h20.623a3.014,3.014,0,0,1,3.014,3.014v69.3h-26.652v-69.3A3.014,3.014,0,0,1-2159.692,794.9Z" transform="translate(2262.427 -692.334)" fill="#f2a947"/><path d="M-2127.012,843.737h18.72a3.015,3.015,0,0,1,3.014,3.015v20.471h-24.748V846.752A3.014,3.014,0,0,1-2127.012,843.737Z" transform="translate(2262.356 -692.334)" fill="#ef8f6d"/><path d="M-2117.494,834.183h20.624a3.014,3.014,0,0,1,3.014,3.014v30.026h-26.652V837.2A3.014,3.014,0,0,1-2117.494,834.183Z" transform="translate(2262.332 -692.334)" fill="#f2a947"/><path d="M-2084.813,801.273h18.719a3.015,3.015,0,0,1,3.015,3.014v62.936h-24.749V804.287A3.015,3.015,0,0,1-2084.813,801.273Z" transform="translate(2262.262 -692.334)" fill="#ef8f6d"/><path d="M-2075.295,792.78h20.624a3.015,3.015,0,0,1,3.014,3.015v71.428h-26.652V795.795A3.014,3.014,0,0,1-2075.295,792.78Z" transform="translate(2262.238 -692.334)" fill="#f2a947"/><path d="M-2042.578,833.121h18.695a3.015,3.015,0,0,1,3.014,3.014v31.088h-24.724V836.135A3.015,3.015,0,0,1-2042.578,833.121Z" transform="translate(2262.136 -692.334)" fill="#ef8f6d"/><path d="M-2033.069,816.136h20.6a3.014,3.014,0,0,1,3.015,3.014v48.073h-26.626V819.15A3.014,3.014,0,0,1-2033.069,816.136Z" transform="translate(2262.136 -692.334)" fill="#f2a947"/><path d="M-7.083-2.993H-8.9v1.165h1.82V0h1.165V-1.829H-4.1V-2.993h-1.82v-1.82H-7.083Zm4.667,1.274H-3.68A1.89,1.89,0,0,0-3.016-.328a2.272,2.272,0,0,0,1.51.5A2.072,2.072,0,0,0,.2-.537,2.428,2.428,0,0,0,.778-2.129,2.03,2.03,0,0,0,.187-3.694a2.045,2.045,0,0,0-1.4-.537,2.041,2.041,0,0,0-.664.1,2.82,2.82,0,0,0-.464.255l.237-1.41H.523V-6.359H-3.025L-3.48-2.8l1.137.055a.833.833,0,0,1,.455-.391,1.056,1.056,0,0,1,.4-.064.819.819,0,0,1,.719.346,1.409,1.409,0,0,1,.227.828,1.363,1.363,0,0,1-.246.837.839.839,0,0,1-.719.328.784.784,0,0,1-.619-.227A1.126,1.126,0,0,1-2.415-1.719ZM3.7.173,7.292-6.441H6.619L3.016.173Zm.473-3.766a1.559,1.559,0,0,0,.482-1.165,1.559,1.559,0,0,0-.482-1.165,1.582,1.582,0,0,0-1.165-.491,1.587,1.587,0,0,0-1.174.491,1.594,1.594,0,0,0-.482,1.165,1.594,1.594,0,0,0,.482,1.165A1.587,1.587,0,0,0,3.007-3.1,1.567,1.567,0,0,0,4.171-3.594Zm-.664-.664a.7.7,0,0,1-.5.209.68.68,0,0,1-.5-.209.68.68,0,0,1-.209-.5.7.7,0,0,1,.209-.5.68.68,0,0,1,.5-.209.7.7,0,0,1,.5.209.686.686,0,0,1,.2.5A.672.672,0,0,1,3.507-4.258Zm4.986,3.9a1.608,1.608,0,0,0,.482-1.165,1.614,1.614,0,0,0-.482-1.174,1.593,1.593,0,0,0-1.174-.482,1.559,1.559,0,0,0-1.165.482,1.565,1.565,0,0,0-.482,1.174A1.573,1.573,0,0,0,6.155-.355,1.559,1.559,0,0,0,7.319.127,1.593,1.593,0,0,0,8.493-.355ZM7.819-2.029a.666.666,0,0,1,.209.509.641.641,0,0,1-.209.491.68.68,0,0,1-.5.209.674.674,0,0,1-.491-.209.641.641,0,0,1-.209-.491.666.666,0,0,1,.209-.509.666.666,0,0,1,.491-.2A.672.672,0,0,1,7.819-2.029Z" transform="translate(24.114 7)" fill="#242647"/><path d="M-8.133-1.265A3.043,3.043,0,0,0-8.434,0h4.412V-1.119H-6.832a1.549,1.549,0,0,1,.3-.346c.109-.1.328-.264.646-.491l.509-.355a4.534,4.534,0,0,0,.919-.828A2.023,2.023,0,0,0-4.03-4.4a1.928,1.928,0,0,0-.61-1.5,2.253,2.253,0,0,0-1.619-.564,1.849,1.849,0,0,0-1.8.964,3.114,3.114,0,0,0-.3,1.328h1.228a2.139,2.139,0,0,1,.146-.791A.784.784,0,0,1-6.2-5.4a.813.813,0,0,1,.655.273,1.063,1.063,0,0,1,.227.682,1.317,1.317,0,0,1-.4.919,9.276,9.276,0,0,1-1.128.9A3.563,3.563,0,0,0-8.133-1.265Zm5.258-4.594a2.383,2.383,0,0,0-.6,1.683,1.961,1.961,0,0,0,.591,1.528,2.006,2.006,0,0,0,1.365.537,1.637,1.637,0,0,0,.873-.218,1.359,1.359,0,0,0,.373-.328,4.226,4.226,0,0,1-.173,1.11.905.905,0,0,1-.882.691.73.73,0,0,1-.519-.173.762.762,0,0,1-.237-.464H-3.348A1.655,1.655,0,0,0-2.684-.246a2.1,2.1,0,0,0,1.3.437A2.08,2.08,0,0,0,.7-1.3,5.473,5.473,0,0,0,1-3.248,5.039,5.039,0,0,0,.691-5.195a2.011,2.011,0,0,0-2.02-1.3A2.029,2.029,0,0,0-2.875-5.859ZM-.746-3.293a.936.936,0,0,1-.5.146.857.857,0,0,1-.71-.282,1.36,1.36,0,0,1-.237-.864,1.155,1.155,0,0,1,.364-.964.884.884,0,0,1,.555-.182.839.839,0,0,1,.7.328,1.323,1.323,0,0,1,.255.864A1.051,1.051,0,0,1-.746-3.293ZM3.13,0V-1.328H1.783V0ZM5.158-1.719H3.894A1.89,1.89,0,0,0,4.558-.328a2.272,2.272,0,0,0,1.51.5,2.072,2.072,0,0,0,1.71-.71,2.428,2.428,0,0,0,.573-1.592A2.03,2.03,0,0,0,7.76-3.694a2.045,2.045,0,0,0-1.4-.537,2.041,2.041,0,0,0-.664.1,2.82,2.82,0,0,0-.464.255l.237-1.41H8.1V-6.359H4.549L4.094-2.8l1.137.055a.833.833,0,0,1,.455-.391,1.056,1.056,0,0,1,.4-.064.819.819,0,0,1,.719.346,1.409,1.409,0,0,1,.227.828,1.363,1.363,0,0,1-.246.837.839.839,0,0,1-.719.328.784.784,0,0,1-.619-.227A1.126,1.126,0,0,1,5.158-1.719Z" transform="translate(28.873 19.289)" fill="#fff9ea"/><path d="M-4.565-2.83V0h1.45V-7.18h-3c-.2,0-.39,0-.59.01a2.88,2.88,0,0,0-.59.06,2.636,2.636,0,0,0-.55.15,1.628,1.628,0,0,0-.49.29,2.755,2.755,0,0,0-.29.3,1.833,1.833,0,0,0-.23.38,2.226,2.226,0,0,0-.16.43,2.626,2.626,0,0,0-.05.49,1.776,1.776,0,0,0,.14.74,1.649,1.649,0,0,0,.37.58,1.133,1.133,0,0,0,.35.26,1.514,1.514,0,0,0,.3.13,1.68,1.68,0,0,0-.52.25,1,1,0,0,0-.3.35,1.267,1.267,0,0,0-.16.45,4.266,4.266,0,0,0-.09.57l-.07.68-.04.37c-.01.09-.03.18-.04.25s-.05.14-.07.21l-.12.23h1.56c.01-.04.03-.08.04-.13a.655.655,0,0,0,.05-.18,1.333,1.333,0,0,0,.05-.26,3.378,3.378,0,0,0,.04-.39l.05-.68a1.653,1.653,0,0,1,.17-.69.847.847,0,0,1,.34-.36,1.219,1.219,0,0,1,.49-.12,6.018,6.018,0,0,1,.62-.02Zm-1.81-3.09h1.81v1.91H-6.5l-.28-.03a1.612,1.612,0,0,1-.29-.09.626.626,0,0,1-.25-.16.692.692,0,0,1-.17-.26.907.907,0,0,1-.07-.39,1.25,1.25,0,0,1,.05-.36.809.809,0,0,1,.15-.26.769.769,0,0,1,.18-.18,1.24,1.24,0,0,1,.2-.1.9.9,0,0,1,.19-.04l.23-.03A1.148,1.148,0,0,0-6.375-5.92Zm6,2.52V-5.32h-1.38V0h1.38V-2.28h2.03V0h1.38V-5.32H1.655V-3.4Zm7.52-1.92H4.395V0h2.98a2.286,2.286,0,0,0,.76-.12,1.59,1.59,0,0,0,.58-.34,1.5,1.5,0,0,0,.37-.52,1.831,1.831,0,0,0,.12-.68,1.288,1.288,0,0,0-.21-.74,1.134,1.134,0,0,0-.61-.45A1.2,1.2,0,0,0,8.625-3a.809.809,0,0,0,.2-.21.834.834,0,0,0,.14-.3,1.243,1.243,0,0,0,.05-.41,1.41,1.41,0,0,0-.15-.69,1.207,1.207,0,0,0-.41-.43,2.252,2.252,0,0,0-.6-.22A4.08,4.08,0,0,0,7.145-5.32Zm-.31,2.09H5.775V-4.34h1.1a1.307,1.307,0,0,1,.37.04.7.7,0,0,1,.23.11.409.409,0,0,1,.13.17.538.538,0,0,1,.04.22.657.657,0,0,1-.04.25.315.315,0,0,1-.13.17.669.669,0,0,1-.24.11A2.153,2.153,0,0,1,6.835-3.23Zm0,2.25H5.775V-2.31h1.06a2.629,2.629,0,0,1,.43.03.588.588,0,0,1,.29.11.389.389,0,0,1,.16.2.819.819,0,0,1,.05.33.892.892,0,0,1-.03.22.465.465,0,0,1-.13.21.835.835,0,0,1-.28.17A1.632,1.632,0,0,1,6.835-.98Z" transform="translate(24.114 189.844)" fill="#242647"/><path d="M-6.48-.78V0h1.44V-.78a4.416,4.416,0,0,0,1.31-.26,3.253,3.253,0,0,0,.99-.59,2.7,2.7,0,0,0,.63-.87,2.655,2.655,0,0,0,.22-1.09,3.089,3.089,0,0,0-.06-.58,2.487,2.487,0,0,0-.2-.62,2.641,2.641,0,0,0-.37-.59,2.584,2.584,0,0,0-.58-.5,3.72,3.72,0,0,0-.83-.37A4.514,4.514,0,0,0-5.04-6.4v-.78H-6.48v.78a4.43,4.43,0,0,0-1.1.15,3.351,3.351,0,0,0-.83.37,2.437,2.437,0,0,0-.59.5,2.641,2.641,0,0,0-.37.59,2.487,2.487,0,0,0-.2.62,3.089,3.089,0,0,0-.06.58A2.655,2.655,0,0,0-9.41-2.5a2.7,2.7,0,0,0,.63.87,3.188,3.188,0,0,0,1,.59A4.286,4.286,0,0,0-6.48-.78Zm0-4.58v3.54a2.086,2.086,0,0,1-.59-.1,1.569,1.569,0,0,1-.56-.32,1.577,1.577,0,0,1-.4-.56,1.938,1.938,0,0,1-.16-.84,1.959,1.959,0,0,1,.07-.58,1.487,1.487,0,0,1,.27-.55,1.5,1.5,0,0,1,.53-.41A2.01,2.01,0,0,1-6.48-5.36Zm1.44,3.53V-5.36a2.01,2.01,0,0,1,.84.18,1.554,1.554,0,0,1,.52.41,1.552,1.552,0,0,1,.28.54,2.357,2.357,0,0,1,.07.58,2.137,2.137,0,0,1-.15.84,1.731,1.731,0,0,1-.41.56,1.618,1.618,0,0,1-.55.32A2.214,2.214,0,0,1-5.04-1.83Zm5.1-.4H3.71a6.738,6.738,0,0,0-.13-1.33,2.661,2.661,0,0,0-.42-1.03,2.089,2.089,0,0,0-.78-.66,2.8,2.8,0,0,0-1.19-.23,2.467,2.467,0,0,0-1.14.23,2.1,2.1,0,0,0-.79.61,2.352,2.352,0,0,0-.44.88,3.583,3.583,0,0,0-.15,1.04,4,4,0,0,0,.2,1.33A2.4,2.4,0,0,0-.58-.5,1.977,1.977,0,0,0,.24,0a2.9,2.9,0,0,0,.99.16A2.989,2.989,0,0,0,1.99.07a2.672,2.672,0,0,0,.6-.23,1.87,1.87,0,0,0,.47-.33,2.3,2.3,0,0,0,.33-.38,2.246,2.246,0,0,0,.19-.38,1.051,1.051,0,0,0,.06-.33H2.21a.794.794,0,0,1-.13.26.952.952,0,0,1-.21.19.724.724,0,0,1-.27.12.929.929,0,0,1-.29.05,1.337,1.337,0,0,1-.48-.08.862.862,0,0,1-.34-.19.711.711,0,0,1-.23-.26,1.754,1.754,0,0,1-.13-.28.912.912,0,0,1-.05-.27A1.763,1.763,0,0,1,.06-2.23Zm2.21-.92H.11a1.324,1.324,0,0,1,.11-.59.917.917,0,0,1,.26-.37.94.94,0,0,1,.35-.2,1.558,1.558,0,0,1,.36-.05,1.487,1.487,0,0,1,.36.05,1.068,1.068,0,0,1,.36.2,1.162,1.162,0,0,1,.26.37A1.487,1.487,0,0,1,2.27-3.15ZM7.42-5.32H4.67V0H7.65a2.286,2.286,0,0,0,.76-.12,1.59,1.59,0,0,0,.58-.34,1.5,1.5,0,0,0,.37-.52,1.831,1.831,0,0,0,.12-.68,1.288,1.288,0,0,0-.21-.74,1.134,1.134,0,0,0-.61-.45A1.2,1.2,0,0,0,8.9-3a.809.809,0,0,0,.2-.21.834.834,0,0,0,.14-.3,1.243,1.243,0,0,0,.05-.41,1.41,1.41,0,0,0-.15-.69,1.207,1.207,0,0,0-.41-.43,2.252,2.252,0,0,0-.6-.22A4.08,4.08,0,0,0,7.42-5.32ZM7.11-3.23H6.05V-4.34h1.1a1.307,1.307,0,0,1,.37.04.7.7,0,0,1,.23.11.409.409,0,0,1,.13.17.538.538,0,0,1,.04.22.657.657,0,0,1-.04.25.315.315,0,0,1-.13.17.669.669,0,0,1-.24.11A2.153,2.153,0,0,1,7.11-3.23Zm0,2.25H6.05V-2.31H7.11a2.629,2.629,0,0,1,.43.03.588.588,0,0,1,.29.11.389.389,0,0,1,.16.2.819.819,0,0,1,.05.33.892.892,0,0,1-.03.22.465.465,0,0,1-.13.21.835.835,0,0,1-.28.17A1.632,1.632,0,0,1,7.11-.98Z" transform="translate(66.19 189.844)" fill="#242647"/><path d="M-8.35-1.59-9.61-7.18H-11.8V0h1.38V-6h.02l1.31,6h1.46l1.36-6h.02V0h1.38V-7.18h-2.2L-8.33-1.59Zm9.14.54V-3.87a2.239,2.239,0,0,0-.08-.57,1.275,1.275,0,0,0-.33-.52,2.041,2.041,0,0,0-.69-.38,4.126,4.126,0,0,0-1.16-.14,3.424,3.424,0,0,0-.86.12,2.158,2.158,0,0,0-.61.28,1.541,1.541,0,0,0-.41.39,1.976,1.976,0,0,0-.24.41,1.813,1.813,0,0,0-.12.38,1.8,1.8,0,0,0-.03.27h1.38l.06-.29a.651.651,0,0,1,.15-.23.689.689,0,0,1,.27-.16,1.663,1.663,0,0,1,.44-.05,1.624,1.624,0,0,1,.41.04.636.636,0,0,1,.26.13A.45.45,0,0,1-.63-4a.86.86,0,0,1,.04.24.477.477,0,0,1-.05.22.345.345,0,0,1-.12.12.329.329,0,0,1-.16.07,1.1,1.1,0,0,1-.16.03l-1.35.2a1.679,1.679,0,0,0-.61.19,1.6,1.6,0,0,0-.46.35,1.59,1.59,0,0,0-.29.49,1.736,1.736,0,0,0-.1.61,1.919,1.919,0,0,0,.12.71,1.469,1.469,0,0,0,.34.52,1.6,1.6,0,0,0,.52.31,1.987,1.987,0,0,0,.66.1A2.644,2.644,0,0,0-1.65.1a1.754,1.754,0,0,0,.44-.17A2.164,2.164,0,0,0-.86-.31l.31-.31A1,1,0,0,0-.5-.25L-.42,0H1.11V-.22A.273.273,0,0,1,.99-.28a.316.316,0,0,1-.1-.14A.624.624,0,0,1,.82-.66,2.057,2.057,0,0,1,.79-1.05ZM-.59-2.6v.54a1.535,1.535,0,0,1-.07.46.849.849,0,0,1-.18.34.829.829,0,0,1-.24.22,1.739,1.739,0,0,1-.27.14,1.579,1.579,0,0,1-.26.06,1.909,1.909,0,0,1-.2.02.863.863,0,0,1-.28-.04A.549.549,0,0,1-2.3-.98a.56.56,0,0,1-.16-.21.836.836,0,0,1-.05-.29.829.829,0,0,1,.06-.34.69.69,0,0,1,.18-.24,1.051,1.051,0,0,1,.3-.15,3.262,3.262,0,0,1,.42-.1l.37-.07a1.254,1.254,0,0,0,.34-.1A1.424,1.424,0,0,0-.59-2.6ZM3.33-4.56v-.76H2.01V2.06H3.39V-.66h.02a1.58,1.58,0,0,0,.31.4,1.34,1.34,0,0,0,.37.25,1.441,1.441,0,0,0,.4.13,1.81,1.81,0,0,0,.4.04A2.277,2.277,0,0,0,5.9-.05a2.132,2.132,0,0,0,.7-.6,2.645,2.645,0,0,0,.42-.93,4.341,4.341,0,0,0,.14-1.18,3.651,3.651,0,0,0-.1-.92,2.616,2.616,0,0,0-.26-.7,2.082,2.082,0,0,0-.39-.52,2.052,2.052,0,0,0-.46-.33,2.115,2.115,0,0,0-.51-.19,2.2,2.2,0,0,0-.5-.06,2.009,2.009,0,0,0-.52.06,1.472,1.472,0,0,0-.43.16,1.491,1.491,0,0,0-.34.28,2.252,2.252,0,0,0-.3.42Zm1.2.32a1.107,1.107,0,0,1,.56.14,1.3,1.3,0,0,1,.37.37,1.937,1.937,0,0,1,.2.51,2.666,2.666,0,0,1,.06.56c0,.1,0,.21-.01.33s-.04.24-.07.36a3.616,3.616,0,0,1-.13.35,1.436,1.436,0,0,1-.22.31,1.477,1.477,0,0,1-.32.21,1.152,1.152,0,0,1-.44.08,1.152,1.152,0,0,1-.44-.08,1.477,1.477,0,0,1-.32-.21.945.945,0,0,1-.21-.31,2.13,2.13,0,0,1-.14-.35,2.254,2.254,0,0,1-.06-.36,1.942,1.942,0,0,1-.02-.33,2.666,2.666,0,0,1,.06-.56,1.66,1.66,0,0,1,.21-.51,1.155,1.155,0,0,1,.36-.37A1.081,1.081,0,0,1,4.53-4.24ZM7.7-5.32V-4.2H9.31V0h1.38V-4.2H12.3V-5.32Z" transform="translate(108.296 189.844)" fill="#242647"/><path d="M-2.7,0-5.24-7.18H-6.95L-9.52,0h1.58l.5-1.48h2.65L-4.33,0ZM-6.1-5.56l.89,2.84H-7.04l.92-2.84ZM2.95,0V-5.32H-1.84V0H-.46V-4.2H1.57V0Zm2.6-4.56v-.76H4.23V2.06H5.61V-.66h.02a1.58,1.58,0,0,0,.31.4,1.34,1.34,0,0,0,.37.25,1.441,1.441,0,0,0,.4.13,1.81,1.81,0,0,0,.4.04A2.277,2.277,0,0,0,8.12-.05a2.132,2.132,0,0,0,.7-.6,2.645,2.645,0,0,0,.42-.93,4.341,4.341,0,0,0,.14-1.18,3.651,3.651,0,0,0-.1-.92,2.616,2.616,0,0,0-.26-.7,2.082,2.082,0,0,0-.39-.52,2.052,2.052,0,0,0-.46-.33,2.115,2.115,0,0,0-.51-.19,2.2,2.2,0,0,0-.5-.06,2.009,2.009,0,0,0-.52.06,1.472,1.472,0,0,0-.43.16,1.491,1.491,0,0,0-.34.28,2.252,2.252,0,0,0-.3.42Zm1.2.32a1.107,1.107,0,0,1,.56.14,1.3,1.3,0,0,1,.37.37,1.937,1.937,0,0,1,.2.51,2.666,2.666,0,0,1,.06.56c0,.1,0,.21-.01.33s-.04.24-.07.36a3.616,3.616,0,0,1-.13.35,1.436,1.436,0,0,1-.22.31,1.477,1.477,0,0,1-.32.21,1.152,1.152,0,0,1-.44.08,1.152,1.152,0,0,1-.44-.08,1.477,1.477,0,0,1-.32-.21.945.945,0,0,1-.21-.31,2.13,2.13,0,0,1-.14-.35,2.254,2.254,0,0,1-.06-.36,1.942,1.942,0,0,1-.02-.33,2.666,2.666,0,0,1,.06-.56,1.66,1.66,0,0,1,.21-.51,1.155,1.155,0,0,1,.36-.37A1.081,1.081,0,0,1,6.75-4.24Z" transform="translate(150.403 189.844)" fill="#242647"/><path d="M-5.85-1.59-7.11-7.18H-9.3V0h1.38V-6h.02l1.31,6h1.46l1.36-6h.02V0h1.38V-7.18h-2.2L-5.83-1.59Zm9.14.54V-3.87a2.239,2.239,0,0,0-.08-.57,1.275,1.275,0,0,0-.33-.52,2.041,2.041,0,0,0-.69-.38,4.126,4.126,0,0,0-1.16-.14,3.424,3.424,0,0,0-.86.12,2.158,2.158,0,0,0-.61.28,1.541,1.541,0,0,0-.41.39,1.976,1.976,0,0,0-.24.41,1.813,1.813,0,0,0-.12.38,1.8,1.8,0,0,0-.03.27H.14L.2-3.92a.651.651,0,0,1,.15-.23.689.689,0,0,1,.27-.16,1.663,1.663,0,0,1,.44-.05,1.624,1.624,0,0,1,.41.04.636.636,0,0,1,.26.13A.45.45,0,0,1,1.87-4a.86.86,0,0,1,.04.24.477.477,0,0,1-.05.22.345.345,0,0,1-.12.12.329.329,0,0,1-.16.07,1.1,1.1,0,0,1-.16.03l-1.35.2a1.679,1.679,0,0,0-.61.19A1.6,1.6,0,0,0-1-2.58a1.59,1.59,0,0,0-.29.49,1.736,1.736,0,0,0-.1.61,1.919,1.919,0,0,0,.12.71,1.469,1.469,0,0,0,.34.52A1.6,1.6,0,0,0-.41.06a1.987,1.987,0,0,0,.66.1A2.644,2.644,0,0,0,.85.1a1.754,1.754,0,0,0,.44-.17,2.164,2.164,0,0,0,.35-.24l.31-.31A1,1,0,0,0,2-.25L2.08,0H3.61V-.22a.273.273,0,0,1-.12-.06.316.316,0,0,1-.1-.14.624.624,0,0,1-.07-.24A2.057,2.057,0,0,1,3.29-1.05ZM1.91-2.6v.54a1.535,1.535,0,0,1-.07.46.849.849,0,0,1-.18.34.829.829,0,0,1-.24.22,1.739,1.739,0,0,1-.27.14,1.579,1.579,0,0,1-.26.06,1.909,1.909,0,0,1-.2.02A.863.863,0,0,1,.41-.86.549.549,0,0,1,.2-.98a.56.56,0,0,1-.16-.21.836.836,0,0,1-.05-.29.829.829,0,0,1,.06-.34.69.69,0,0,1,.18-.24,1.051,1.051,0,0,1,.3-.15,3.262,3.262,0,0,1,.42-.1l.37-.07a1.254,1.254,0,0,0,.34-.1A1.424,1.424,0,0,0,1.91-2.6ZM8.62-7.55h-1a.882.882,0,0,1-.02.29.433.433,0,0,1-.11.2.5.5,0,0,1-.21.13,1.133,1.133,0,0,1-.34.04,1,1,0,0,1-.33-.05.552.552,0,0,1-.21-.14.512.512,0,0,1-.1-.21,2.024,2.024,0,0,1-.04-.26h-1a1.615,1.615,0,0,0,.13.66,1.012,1.012,0,0,0,.35.44,1.46,1.46,0,0,0,.53.26,2.8,2.8,0,0,0,.67.08,2.8,2.8,0,0,0,.67-.08,1.46,1.46,0,0,0,.53-.26,1.089,1.089,0,0,0,.35-.44A1.615,1.615,0,0,0,8.62-7.55ZM5.93-2.04V-5.32H4.55V0H6.06L7.94-3.21h.02V0H9.34V-5.32H7.89L5.95-2.04Z" transform="translate(192.51 189.844)" fill="#242647"/><path d="M-11.58-2.29V-7.18h-1.44V0h1.52l2.84-4.86h.02V0H-7.2V-7.18H-8.72l-2.84,4.89Zm7.12-.94V-5.32H-5.84V0h1.38V-2.19h.92a3.105,3.105,0,0,0,.29,1.11,2.122,2.122,0,0,0,.55.72,2.1,2.1,0,0,0,.77.4,3.336,3.336,0,0,0,.91.12A2.77,2.77,0,0,0-.17.04,2.027,2.027,0,0,0,.49-.28,1.95,1.95,0,0,0,.97-.75a3.083,3.083,0,0,0,.33-.59A3.565,3.565,0,0,0,1.48-2a3.793,3.793,0,0,0,.06-.67,3.9,3.9,0,0,0-.15-1.1,2.431,2.431,0,0,0-.46-.89,2.088,2.088,0,0,0-.8-.6,2.745,2.745,0,0,0-1.15-.22,3.224,3.224,0,0,0-.91.13,2.211,2.211,0,0,0-.76.4,2.157,2.157,0,0,0-.54.71,3.157,3.157,0,0,0-.31,1.01ZM.1-2.66a3.34,3.34,0,0,1-.06.65,1.6,1.6,0,0,1-.19.52,1.03,1.03,0,0,1-.35.34.98.98,0,0,1-.52.13.957.957,0,0,1-.52-.13.975.975,0,0,1-.36-.34,1.878,1.878,0,0,1-.2-.52,3.34,3.34,0,0,1-.06-.65,3.34,3.34,0,0,1,.06-.65,1.878,1.878,0,0,1,.2-.52,1.063,1.063,0,0,1,.36-.34.957.957,0,0,1,.52-.13.98.98,0,0,1,.52.13,1.132,1.132,0,0,1,.35.34,1.6,1.6,0,0,1,.19.52A3.34,3.34,0,0,1,.1-2.66ZM3.87-3.4V-5.32H2.49V0H3.87V-2.28H5.9V0H7.28V-5.32H5.9V-3.4Zm6.1-.07V-5.32H8.59V0h2.94c.06,0,.16,0,.28-.01a2.176,2.176,0,0,0,.4-.08,2.142,2.142,0,0,0,.44-.16,1.347,1.347,0,0,0,.41-.31,1.408,1.408,0,0,0,.3-.48,2,2,0,0,0,.11-.69,2.05,2.05,0,0,0-.14-.78,1.3,1.3,0,0,0-.41-.54,1.882,1.882,0,0,0-.65-.32,3.461,3.461,0,0,0-.89-.1Zm1.17,2.43H9.97V-2.43h1.05a2.376,2.376,0,0,1,.39.03,1.007,1.007,0,0,1,.32.11.5.5,0,0,1,.22.21.648.648,0,0,1,.08.35.627.627,0,0,1-.08.35.578.578,0,0,1-.2.21.771.771,0,0,1-.29.1A1.733,1.733,0,0,1,11.14-1.04Z" transform="translate(234.593 189.844)" fill="#242647"/><path d="M-5.331-1.938v-1.2H-7.879v1.2Zm1.774.218H-4.822A1.89,1.89,0,0,0-4.158-.328a2.272,2.272,0,0,0,1.51.5,2.072,2.072,0,0,0,1.71-.71A2.428,2.428,0,0,0-.364-2.129,2.03,2.03,0,0,0-.955-3.694a2.045,2.045,0,0,0-1.4-.537,2.041,2.041,0,0,0-.664.1,2.82,2.82,0,0,0-.464.255l.237-1.41H-.619V-6.359H-4.167L-4.622-2.8l1.137.055a.833.833,0,0,1,.455-.391,1.056,1.056,0,0,1,.4-.064.819.819,0,0,1,.719.346,1.409,1.409,0,0,1,.227.828,1.363,1.363,0,0,1-.246.837.839.839,0,0,1-.719.328.784.784,0,0,1-.619-.227A1.126,1.126,0,0,1-3.557-1.719ZM2.556.173,6.15-6.441H5.477L1.874.173ZM3.03-3.594a1.559,1.559,0,0,0,.482-1.165A1.559,1.559,0,0,0,3.03-5.923a1.582,1.582,0,0,0-1.165-.491,1.587,1.587,0,0,0-1.174.491A1.594,1.594,0,0,0,.209-4.758,1.594,1.594,0,0,0,.691-3.594,1.587,1.587,0,0,0,1.865-3.1,1.567,1.567,0,0,0,3.03-3.594Zm-.664-.664a.7.7,0,0,1-.5.209.68.68,0,0,1-.5-.209.68.68,0,0,1-.209-.5.7.7,0,0,1,.209-.5.68.68,0,0,1,.5-.209.7.7,0,0,1,.5.209.686.686,0,0,1,.2.5A.672.672,0,0,1,2.365-4.258Zm4.986,3.9a1.608,1.608,0,0,0,.482-1.165,1.614,1.614,0,0,0-.482-1.174,1.593,1.593,0,0,0-1.174-.482,1.559,1.559,0,0,0-1.165.482,1.565,1.565,0,0,0-.482,1.174A1.573,1.573,0,0,0,5.013-.355,1.559,1.559,0,0,0,6.177.127,1.593,1.593,0,0,0,7.351-.355ZM6.678-2.029a.666.666,0,0,1,.209.509.641.641,0,0,1-.209.491.68.68,0,0,1-.5.209.674.674,0,0,1-.491-.209.641.641,0,0,1-.209-.491.666.666,0,0,1,.209-.509.666.666,0,0,1,.491-.2A.672.672,0,0,1,6.678-2.029Z" transform="translate(66.187 115.434)" fill="#242647"/><path d="M-7.083-2.993H-8.9v1.165h1.82V0h1.165V-1.829H-4.1V-2.993h-1.82v-1.82H-7.083Zm4.039-2.866a2.383,2.383,0,0,0-.6,1.683,1.961,1.961,0,0,0,.591,1.528,2.006,2.006,0,0,0,1.365.537,1.637,1.637,0,0,0,.873-.218,1.359,1.359,0,0,0,.373-.328,4.226,4.226,0,0,1-.173,1.11A.905.905,0,0,1-1.5-.855a.73.73,0,0,1-.519-.173.762.762,0,0,1-.237-.464H-3.516A1.655,1.655,0,0,0-2.852-.246a2.1,2.1,0,0,0,1.3.437A2.08,2.08,0,0,0,.532-1.3a5.473,5.473,0,0,0,.3-1.947A5.039,5.039,0,0,0,.523-5.195,2.011,2.011,0,0,0-1.5-6.5,2.029,2.029,0,0,0-3.043-5.859ZM-.914-3.293a.936.936,0,0,1-.5.146.857.857,0,0,1-.71-.282,1.36,1.36,0,0,1-.237-.864A1.155,1.155,0,0,1-2-5.258a.884.884,0,0,1,.555-.182.839.839,0,0,1,.7.328,1.323,1.323,0,0,1,.255.864A1.051,1.051,0,0,1-.914-3.293ZM3.7.173,7.292-6.441H6.619L3.016.173Zm.473-3.766a1.559,1.559,0,0,0,.482-1.165,1.559,1.559,0,0,0-.482-1.165,1.582,1.582,0,0,0-1.165-.491,1.587,1.587,0,0,0-1.174.491,1.594,1.594,0,0,0-.482,1.165,1.594,1.594,0,0,0,.482,1.165A1.587,1.587,0,0,0,3.007-3.1,1.567,1.567,0,0,0,4.171-3.594Zm-.664-.664a.7.7,0,0,1-.5.209.68.68,0,0,1-.5-.209.68.68,0,0,1-.209-.5.7.7,0,0,1,.209-.5.68.68,0,0,1,.5-.209.7.7,0,0,1,.5.209.686.686,0,0,1,.2.5A.672.672,0,0,1,3.507-4.258Zm4.986,3.9a1.608,1.608,0,0,0,.482-1.165,1.614,1.614,0,0,0-.482-1.174,1.593,1.593,0,0,0-1.174-.482,1.559,1.559,0,0,0-1.165.482,1.565,1.565,0,0,0-.482,1.174A1.573,1.573,0,0,0,6.155-.355,1.559,1.559,0,0,0,7.319.127,1.593,1.593,0,0,0,8.493-.355ZM7.819-2.029a.666.666,0,0,1,.209.509.641.641,0,0,1-.209.491.68.68,0,0,1-.5.209.674.674,0,0,1-.491-.209.641.641,0,0,1-.209-.491.666.666,0,0,1,.209-.509.666.666,0,0,1,.491-.2A.672.672,0,0,1,7.819-2.029Z" transform="translate(150.404 138.79)" fill="#242647"/><path d="M-7.083-2.993H-8.9v1.165h1.82V0h1.165V-1.829H-4.1V-2.993h-1.82v-1.82H-7.083Zm7.4-2.629a1.821,1.821,0,0,0-1.729-.864,1.815,1.815,0,0,0-1.719.864,4.964,4.964,0,0,0-.5,2.465A4.9,4.9,0,0,0-3.134-.7,1.815,1.815,0,0,0-1.415.164,1.821,1.821,0,0,0,.314-.7a5,5,0,0,0,.5-2.456A5.066,5.066,0,0,0,.314-5.622ZM-2.161-1.465a6.144,6.144,0,0,1-.182-1.692,6.125,6.125,0,0,1,.182-1.729.73.73,0,0,1,.746-.555.717.717,0,0,1,.746.555A6.2,6.2,0,0,1-.5-3.157,6.207,6.207,0,0,1-.669-1.465a.722.722,0,0,1-.746.591A.734.734,0,0,1-2.161-1.465ZM3.7.173,7.292-6.441H6.619L3.016.173Zm.473-3.766a1.559,1.559,0,0,0,.482-1.165,1.559,1.559,0,0,0-.482-1.165,1.582,1.582,0,0,0-1.165-.491,1.587,1.587,0,0,0-1.174.491,1.594,1.594,0,0,0-.482,1.165,1.594,1.594,0,0,0,.482,1.165A1.587,1.587,0,0,0,3.007-3.1,1.567,1.567,0,0,0,4.171-3.594Zm-.664-.664a.7.7,0,0,1-.5.209.68.68,0,0,1-.5-.209.68.68,0,0,1-.209-.5.7.7,0,0,1,.209-.5.68.68,0,0,1,.5-.209.7.7,0,0,1,.5.209.686.686,0,0,1,.2.5A.672.672,0,0,1,3.507-4.258Zm4.986,3.9a1.608,1.608,0,0,0,.482-1.165,1.614,1.614,0,0,0-.482-1.174,1.593,1.593,0,0,0-1.174-.482,1.559,1.559,0,0,0-1.165.482,1.565,1.565,0,0,0-.482,1.174A1.573,1.573,0,0,0,6.155-.355,1.559,1.559,0,0,0,7.319.127,1.593,1.593,0,0,0,8.493-.355ZM7.819-2.029a.666.666,0,0,1,.209.509.641.641,0,0,1-.209.491.68.68,0,0,1-.5.209.674.674,0,0,1-.491-.209.641.641,0,0,1-.209-.491.666.666,0,0,1,.209-.509.666.666,0,0,1,.491-.2A.672.672,0,0,1,7.819-2.029Z" transform="translate(108.296 99.51)" fill="#242647"/><path d="M-7.083-2.993H-8.9v1.165h1.82V0h1.165V-1.829H-4.1V-2.993h-1.82v-1.82H-7.083Zm6.5-1.829H.678a1.735,1.735,0,0,0-.6-1.228A2.135,2.135,0,0,0-1.351-6.5a1.938,1.938,0,0,0-1.064.282,2.224,2.224,0,0,0-.728.755A3.709,3.709,0,0,0-3.571-4.1a10.362,10.362,0,0,0-.064,1.2A4.146,4.146,0,0,0-3.18-.846,1.918,1.918,0,0,0-1.387.173,1.985,1.985,0,0,0,.277-.519,2.485,2.485,0,0,0,.823-2.111,2.116,2.116,0,0,0,.268-3.6a1.845,1.845,0,0,0-1.4-.573,1.706,1.706,0,0,0-.71.127,1.4,1.4,0,0,0-.555.409,4.362,4.362,0,0,1,.2-1.128.914.914,0,0,1,.882-.7A.72.72,0,0,1-.7-5.158.684.684,0,0,1-.578-4.822Zm-1.5,3.63a1.236,1.236,0,0,1-.282-.846,1.124,1.124,0,0,1,.373-.937.907.907,0,0,1,.573-.191.878.878,0,0,1,.673.3A1.231,1.231,0,0,1-.469-2a1.287,1.287,0,0,1-.237.819.775.775,0,0,1-.664.318A.88.88,0,0,1-2.079-1.192ZM3.7.173,7.292-6.441H6.619L3.016.173Zm.473-3.766a1.559,1.559,0,0,0,.482-1.165,1.559,1.559,0,0,0-.482-1.165,1.582,1.582,0,0,0-1.165-.491,1.587,1.587,0,0,0-1.174.491,1.594,1.594,0,0,0-.482,1.165,1.594,1.594,0,0,0,.482,1.165A1.587,1.587,0,0,0,3.007-3.1,1.567,1.567,0,0,0,4.171-3.594Zm-.664-.664a.7.7,0,0,1-.5.209.68.68,0,0,1-.5-.209.68.68,0,0,1-.209-.5.7.7,0,0,1,.209-.5.68.68,0,0,1,.5-.209.7.7,0,0,1,.5.209.686.686,0,0,1,.2.5A.672.672,0,0,1,3.507-4.258Zm4.986,3.9a1.608,1.608,0,0,0,.482-1.165,1.614,1.614,0,0,0-.482-1.174,1.593,1.593,0,0,0-1.174-.482,1.559,1.559,0,0,0-1.165.482,1.565,1.565,0,0,0-.482,1.174A1.573,1.573,0,0,0,6.155-.355,1.559,1.559,0,0,0,7.319.127,1.593,1.593,0,0,0,8.493-.355ZM7.819-2.029a.666.666,0,0,1,.209.509.641.641,0,0,1-.209.491.68.68,0,0,1-.5.209.674.674,0,0,1-.491-.209.641.641,0,0,1-.209-.491.666.666,0,0,1,.209-.509.666.666,0,0,1,.491-.2A.672.672,0,0,1,7.819-2.029Z" transform="translate(192.511 97.386)" fill="#242647"/><path d="M-9.612-2.993h-1.82v1.165h1.82V0h1.165V-1.829h1.82V-2.993h-1.82v-1.82H-9.612ZM-5.818-5.3v.864H-4.3V0h1.292V-6.441H-4.053a.913.913,0,0,1-.055.255,1.128,1.128,0,0,1-.246.464,1.183,1.183,0,0,1-.619.337A5.647,5.647,0,0,1-5.818-5.3ZM.114-1.719H-1.151A1.89,1.89,0,0,0-.487-.328a2.272,2.272,0,0,0,1.51.5,2.072,2.072,0,0,0,1.71-.71,2.428,2.428,0,0,0,.573-1.592,2.03,2.03,0,0,0-.591-1.565,2.045,2.045,0,0,0-1.4-.537,2.041,2.041,0,0,0-.664.1,2.82,2.82,0,0,0-.464.255l.237-1.41H3.052V-6.359H-.5L-.951-2.8l1.137.055a.833.833,0,0,1,.455-.391,1.056,1.056,0,0,1,.4-.064.819.819,0,0,1,.719.346,1.409,1.409,0,0,1,.227.828,1.363,1.363,0,0,1-.246.837.839.839,0,0,1-.719.328A.784.784,0,0,1,.4-1.092,1.126,1.126,0,0,1,.114-1.719ZM6.227.173,9.821-6.441H9.148L5.545.173ZM6.7-3.594a1.559,1.559,0,0,0,.482-1.165A1.559,1.559,0,0,0,6.7-5.923a1.582,1.582,0,0,0-1.165-.491,1.587,1.587,0,0,0-1.174.491A1.594,1.594,0,0,0,3.88-4.758a1.594,1.594,0,0,0,.482,1.165A1.587,1.587,0,0,0,5.536-3.1,1.567,1.567,0,0,0,6.7-3.594Zm-.664-.664a.7.7,0,0,1-.5.209.68.68,0,0,1-.5-.209.68.68,0,0,1-.209-.5.7.7,0,0,1,.209-.5.68.68,0,0,1,.5-.209.7.7,0,0,1,.5.209.686.686,0,0,1,.2.5A.672.672,0,0,1,6.036-4.258Zm4.986,3.9A1.608,1.608,0,0,0,11.5-1.519a1.614,1.614,0,0,0-.482-1.174,1.593,1.593,0,0,0-1.174-.482,1.559,1.559,0,0,0-1.165.482A1.565,1.565,0,0,0,8.2-1.519,1.573,1.573,0,0,0,8.684-.355,1.559,1.559,0,0,0,9.848.127,1.593,1.593,0,0,0,11.022-.355Zm-.673-1.674a.666.666,0,0,1,.209.509.641.641,0,0,1-.209.491.68.68,0,0,1-.5.209.674.674,0,0,1-.491-.209.641.641,0,0,1-.209-.491.666.666,0,0,1,.209-.509.666.666,0,0,1,.491-.2A.672.672,0,0,1,10.349-2.029Z" transform="translate(234.593 120.742)" fill="#242647"/><path d="M-8.088-5.3v.864h1.519V0h1.292V-6.441H-6.323a.913.913,0,0,1-.055.255,1.128,1.128,0,0,1-.246.464,1.183,1.183,0,0,1-.619.337A5.647,5.647,0,0,1-8.088-5.3Zm7.678.482H.846a1.735,1.735,0,0,0-.6-1.228A2.135,2.135,0,0,0-1.183-6.5a1.938,1.938,0,0,0-1.064.282,2.224,2.224,0,0,0-.728.755A3.709,3.709,0,0,0-3.4-4.1a10.362,10.362,0,0,0-.064,1.2A4.146,4.146,0,0,0-3.011-.846,1.918,1.918,0,0,0-1.219.173,1.985,1.985,0,0,0,.446-.519,2.485,2.485,0,0,0,.992-2.111,2.116,2.116,0,0,0,.437-3.6a1.845,1.845,0,0,0-1.4-.573,1.706,1.706,0,0,0-.71.127,1.4,1.4,0,0,0-.555.409,4.362,4.362,0,0,1,.2-1.128.914.914,0,0,1,.882-.7.72.72,0,0,1,.619.309A.684.684,0,0,1-.409-4.822Zm-1.5,3.63a1.236,1.236,0,0,1-.282-.846,1.124,1.124,0,0,1,.373-.937.907.907,0,0,1,.573-.191.878.878,0,0,1,.673.3A1.231,1.231,0,0,1-.3-2a1.287,1.287,0,0,1-.237.819A.775.775,0,0,1-1.2-.864.88.88,0,0,1-1.911-1.192ZM3.13,0V-1.328H1.783V0ZM7.888-5.622a1.821,1.821,0,0,0-1.729-.864,1.815,1.815,0,0,0-1.719.864,4.964,4.964,0,0,0-.5,2.465A4.9,4.9,0,0,0,4.44-.7,1.815,1.815,0,0,0,6.159.164,1.821,1.821,0,0,0,7.888-.7a5,5,0,0,0,.5-2.456A5.066,5.066,0,0,0,7.888-5.622ZM5.413-1.465a6.144,6.144,0,0,1-.182-1.692,6.125,6.125,0,0,1,.182-1.729.73.73,0,0,1,.746-.555.717.717,0,0,1,.746.555,6.2,6.2,0,0,1,.173,1.729,6.207,6.207,0,0,1-.173,1.692.722.722,0,0,1-.746.591A.734.734,0,0,1,5.413-1.465Z" transform="translate(70.938 134.998)" fill="#fff9ea"/><path d="M-8.088-5.3v.864h1.519V0h1.292V-6.441H-6.323a.913.913,0,0,1-.055.255,1.128,1.128,0,0,1-.246.464,1.183,1.183,0,0,1-.619.337A5.647,5.647,0,0,1-8.088-5.3Zm4.831,2.538a1.975,1.975,0,0,0-.255.983A1.946,1.946,0,0,0-2.957-.4,2.188,2.188,0,0,0-1.319.173,2.344,2.344,0,0,0,.364-.4a1.847,1.847,0,0,0,.6-1.383,2.064,2.064,0,0,0-.237-.983,1.859,1.859,0,0,0-.719-.71A1.261,1.261,0,0,0,.619-4.1a1.929,1.929,0,0,0,.136-.673,1.568,1.568,0,0,0-.528-1.2,2.108,2.108,0,0,0-1.492-.491,2.093,2.093,0,0,0-1.492.491,1.568,1.568,0,0,0-.528,1.2,1.929,1.929,0,0,0,.136.673,1.552,1.552,0,0,0,.61.673A1.546,1.546,0,0,0-3.257-2.766Zm1.4-1.3a.741.741,0,0,1-.218-.573.777.777,0,0,1,.218-.6.807.807,0,0,1,.591-.209.845.845,0,0,1,.6.209.845.845,0,0,1,.209.6.807.807,0,0,1-.209.573.816.816,0,0,1-.6.227A.781.781,0,0,1-1.856-4.067Zm-.091,2.929a1.03,1.03,0,0,1-.246-.737,1,1,0,0,1,.255-.746.885.885,0,0,1,.673-.255.92.92,0,0,1,.682.255,1.039,1.039,0,0,1,.246.746,1.03,1.03,0,0,1-.246.737.865.865,0,0,1-.682.264A.865.865,0,0,1-1.947-1.137ZM3.13,0V-1.328H1.783V0ZM4.149-2.766a1.975,1.975,0,0,0-.255.983A1.946,1.946,0,0,0,4.449-.4,2.188,2.188,0,0,0,6.086.173,2.344,2.344,0,0,0,7.769-.4a1.847,1.847,0,0,0,.6-1.383,2.064,2.064,0,0,0-.237-.983,1.859,1.859,0,0,0-.719-.71,1.261,1.261,0,0,0,.61-.628,1.929,1.929,0,0,0,.136-.673,1.568,1.568,0,0,0-.528-1.2,2.108,2.108,0,0,0-1.492-.491,2.093,2.093,0,0,0-1.492.491,1.568,1.568,0,0,0-.528,1.2,1.929,1.929,0,0,0,.136.673,1.552,1.552,0,0,0,.61.673A1.546,1.546,0,0,0,4.149-2.766Zm1.4-1.3a.741.741,0,0,1-.218-.573.777.777,0,0,1,.218-.6.807.807,0,0,1,.591-.209.845.845,0,0,1,.6.209.845.845,0,0,1,.209.6.807.807,0,0,1-.209.573.816.816,0,0,1-.6.227A.781.781,0,0,1,5.55-4.067ZM5.459-1.137a1.03,1.03,0,0,1-.246-.737,1,1,0,0,1,.255-.746.885.885,0,0,1,.673-.255.92.92,0,0,1,.682.255,1.039,1.039,0,0,1,.246.746,1.03,1.03,0,0,1-.246.737.865.865,0,0,1-.682.264A.865.865,0,0,1,5.459-1.137Z" transform="translate(113.045 112.703)" fill="#fff9ea"/><path d="M-8.088-5.3v.864h1.519V0h1.292V-6.441H-6.323a.913.913,0,0,1-.055.255,1.128,1.128,0,0,1-.246.464,1.183,1.183,0,0,1-.619.337A5.647,5.647,0,0,1-8.088-5.3Zm5.823,3.33H-3.512A2.629,2.629,0,0,0-3.193-.737a2.016,2.016,0,0,0,1.9.9A2.135,2.135,0,0,0,.382-.464,2.014,2.014,0,0,0,.946-1.892,1.552,1.552,0,0,0,.464-3.12a.914.914,0,0,0-.5-.3,1.134,1.134,0,0,0,.446-.337,1.394,1.394,0,0,0,.337-.955A1.577,1.577,0,0,0,.182-6,2.224,2.224,0,0,0-1.31-6.468a2.472,2.472,0,0,0-.837.118A1.664,1.664,0,0,0-2.738-6a1.894,1.894,0,0,0-.491.7,3.228,3.228,0,0,0-.164.91h1.183a1.227,1.227,0,0,1,.2-.764.775.775,0,0,1,.664-.282.817.817,0,0,1,.61.227.877.877,0,0,1,.209.6.742.742,0,0,1-.418.755,2.331,2.331,0,0,1-.864.118v.91a2.538,2.538,0,0,1,.919.118.832.832,0,0,1,.519.846.954.954,0,0,1-.273.737A.944.944,0,0,1-1.3-.873a.855.855,0,0,1-.837-.464A1.349,1.349,0,0,1-2.265-1.974ZM3.13,0V-1.328H1.783V0Zm1.4-5.859a2.383,2.383,0,0,0-.6,1.683,1.961,1.961,0,0,0,.591,1.528,2.006,2.006,0,0,0,1.365.537,1.637,1.637,0,0,0,.873-.218,1.359,1.359,0,0,0,.373-.328,4.226,4.226,0,0,1-.173,1.11.905.905,0,0,1-.882.691.73.73,0,0,1-.519-.173.762.762,0,0,1-.237-.464H4.058A1.655,1.655,0,0,0,4.722-.246a2.1,2.1,0,0,0,1.3.437A2.08,2.08,0,0,0,8.106-1.3a5.473,5.473,0,0,0,.3-1.947A5.039,5.039,0,0,0,8.1-5.195a2.011,2.011,0,0,0-2.02-1.3A2.029,2.029,0,0,0,4.531-5.859ZM6.659-3.293a.936.936,0,0,1-.5.146.857.857,0,0,1-.71-.282,1.36,1.36,0,0,1-.237-.864,1.155,1.155,0,0,1,.364-.964.884.884,0,0,1,.555-.182.839.839,0,0,1,.7.328,1.323,1.323,0,0,1,.255.864A1.051,1.051,0,0,1,6.659-3.293Z" transform="translate(155.153 151.982)" fill="#fff9ea"/><path d="M-8.088-5.3v.864h1.519V0h1.292V-6.441H-6.323a.913.913,0,0,1-.055.255,1.128,1.128,0,0,1-.246.464,1.183,1.183,0,0,1-.619.337A5.647,5.647,0,0,1-8.088-5.3Zm4.831,2.538a1.975,1.975,0,0,0-.255.983A1.946,1.946,0,0,0-2.957-.4,2.188,2.188,0,0,0-1.319.173,2.344,2.344,0,0,0,.364-.4a1.847,1.847,0,0,0,.6-1.383,2.064,2.064,0,0,0-.237-.983,1.859,1.859,0,0,0-.719-.71A1.261,1.261,0,0,0,.619-4.1a1.929,1.929,0,0,0,.136-.673,1.568,1.568,0,0,0-.528-1.2,2.108,2.108,0,0,0-1.492-.491,2.093,2.093,0,0,0-1.492.491,1.568,1.568,0,0,0-.528,1.2,1.929,1.929,0,0,0,.136.673,1.552,1.552,0,0,0,.61.673A1.546,1.546,0,0,0-3.257-2.766Zm1.4-1.3a.741.741,0,0,1-.218-.573.777.777,0,0,1,.218-.6.807.807,0,0,1,.591-.209.845.845,0,0,1,.6.209.845.845,0,0,1,.209.6.807.807,0,0,1-.209.573.816.816,0,0,1-.6.227A.781.781,0,0,1-1.856-4.067Zm-.091,2.929a1.03,1.03,0,0,1-.246-.737,1,1,0,0,1,.255-.746.885.885,0,0,1,.673-.255.92.92,0,0,1,.682.255,1.039,1.039,0,0,1,.246.746,1.03,1.03,0,0,1-.246.737.865.865,0,0,1-.682.264A.865.865,0,0,1-1.947-1.137ZM3.13,0V-1.328H1.783V0Zm1.4-5.859a2.383,2.383,0,0,0-.6,1.683,1.961,1.961,0,0,0,.591,1.528,2.006,2.006,0,0,0,1.365.537,1.637,1.637,0,0,0,.873-.218,1.359,1.359,0,0,0,.373-.328,4.226,4.226,0,0,1-.173,1.11.905.905,0,0,1-.882.691.73.73,0,0,1-.519-.173.762.762,0,0,1-.237-.464H4.058A1.655,1.655,0,0,0,4.722-.246a2.1,2.1,0,0,0,1.3.437A2.08,2.08,0,0,0,8.106-1.3a5.473,5.473,0,0,0,.3-1.947A5.039,5.039,0,0,0,8.1-5.195a2.011,2.011,0,0,0-2.02-1.3A2.029,2.029,0,0,0,4.531-5.859ZM6.659-3.293a.936.936,0,0,1-.5.146.857.857,0,0,1-.71-.282,1.36,1.36,0,0,1-.237-.864,1.155,1.155,0,0,1,.364-.964.884.884,0,0,1,.555-.182.839.839,0,0,1,.7.328,1.323,1.323,0,0,1,.255.864A1.051,1.051,0,0,1,6.659-3.293Z" transform="translate(197.26 110.58)" fill="#fff9ea"/><path d="M-8.088-5.3v.864h1.519V0h1.292V-6.441H-6.323a.913.913,0,0,1-.055.255,1.128,1.128,0,0,1-.246.464,1.183,1.183,0,0,1-.619.337A5.647,5.647,0,0,1-8.088-5.3Zm7.678.482H.846a1.735,1.735,0,0,0-.6-1.228A2.135,2.135,0,0,0-1.183-6.5a1.938,1.938,0,0,0-1.064.282,2.224,2.224,0,0,0-.728.755A3.709,3.709,0,0,0-3.4-4.1a10.362,10.362,0,0,0-.064,1.2A4.146,4.146,0,0,0-3.011-.846,1.918,1.918,0,0,0-1.219.173,1.985,1.985,0,0,0,.446-.519,2.485,2.485,0,0,0,.992-2.111,2.116,2.116,0,0,0,.437-3.6a1.845,1.845,0,0,0-1.4-.573,1.706,1.706,0,0,0-.71.127,1.4,1.4,0,0,0-.555.409,4.362,4.362,0,0,1,.2-1.128.914.914,0,0,1,.882-.7.72.72,0,0,1,.619.309A.684.684,0,0,1-.409-4.822Zm-1.5,3.63a1.236,1.236,0,0,1-.282-.846,1.124,1.124,0,0,1,.373-.937.907.907,0,0,1,.573-.191.878.878,0,0,1,.673.3A1.231,1.231,0,0,1-.3-2a1.287,1.287,0,0,1-.237.819A.775.775,0,0,1-1.2-.864.88.88,0,0,1-1.911-1.192ZM3.13,0V-1.328H1.783V0ZM5.14-1.974H3.894A2.629,2.629,0,0,0,4.212-.737a2.016,2.016,0,0,0,1.9.9A2.135,2.135,0,0,0,7.788-.464a2.014,2.014,0,0,0,.564-1.428A1.552,1.552,0,0,0,7.869-3.12a.914.914,0,0,0-.5-.3,1.134,1.134,0,0,0,.446-.337,1.394,1.394,0,0,0,.337-.955A1.577,1.577,0,0,0,7.587-6,2.224,2.224,0,0,0,6.1-6.468a2.472,2.472,0,0,0-.837.118A1.664,1.664,0,0,0,4.667-6a1.894,1.894,0,0,0-.491.7,3.228,3.228,0,0,0-.164.91H5.195a1.227,1.227,0,0,1,.2-.764.775.775,0,0,1,.664-.282.817.817,0,0,1,.61.227.877.877,0,0,1,.209.6.742.742,0,0,1-.418.755,2.331,2.331,0,0,1-.864.118v.91a2.538,2.538,0,0,1,.919.118.832.832,0,0,1,.519.846.954.954,0,0,1-.273.737A.944.944,0,0,1,6.1-.873a.855.855,0,0,1-.837-.464A1.349,1.349,0,0,1,5.14-1.974Z" transform="translate(239.366 133.936)" fill="#fff9ea"/><g transform="translate(86.897 7.151)"><rect width="164.795" height="40.197" transform="translate(2 1)" fill="#fdf8eb"/><path d="M-40.325-17.877h-2.661v4.606h-4.572v2.661h4.572v4.674h2.661V-10.61h4.572v-2.661h-4.572Zm17.809-.273c0-3.821-2.013-6-5.7-6s-5.7,2.183-5.7,6v4.367c0,3.514,1.4,5.459,4.162,5.459a3.572,3.572,0,0,0,3.48-2.115v4.367c0,2.286-.751,2.934-2.081,2.934-1.194,0-1.945-.648-1.945-2.354v-.853h-3.548v.614c0,3.821,1.911,6,5.6,6,3.889,0,5.732-2.183,5.732-6.209Zm-5.7,6.414c-1.194,0-1.945-.648-1.945-2.354v-4.3c0-1.706.751-2.32,1.945-2.32s1.945.614,1.945,2.32v4.3C-26.269-12.384-27.02-11.736-28.214-11.736ZM-17.843-20.4c0-1.058.444-1.5,1.228-1.5.751,0,1.228.444,1.228,1.5v8.188c0,1.058-.478,1.5-1.228,1.5-.785,0-1.228-.444-1.228-1.5Zm-2.388,8.017c0,2.456,1.262,3.821,3.616,3.821S-13-9.928-13-12.384v-7.847c0-2.456-1.262-3.821-3.616-3.821s-3.616,1.365-3.616,3.821ZM-16.615,0H-14.4l9.416-23.881H-7.2ZM-6-11.668c0-1.058.444-1.5,1.228-1.5.751,0,1.228.444,1.228,1.5V-3.48c0,1.058-.478,1.5-1.228,1.5C-5.561-1.979-6-2.422-6-3.48ZM-8.393-3.65C-8.393-1.194-7.13.171-4.776.171S-1.16-1.194-1.16-3.65V-11.5c0-2.456-1.262-3.821-3.616-3.821S-8.393-13.954-8.393-11.5Z" transform="translate(53.349 32.7)" fill="#242647"/><path d="M3.092,4.492H.6V15H3.2A2.234,2.234,0,0,0,5.7,12.508v-.856A2.125,2.125,0,0,0,4.473,9.4,2.064,2.064,0,0,0,5.539,7.284V6.909C5.539,5.288,4.8,4.492,3.092,4.492Zm-.105,5.779c.751,0,1.066.3,1.066,1.276v.916c0,.781-.3,1.036-.856,1.036H2.252V10.271Zm.06-4.278c.585,0,.841.33.841,1.081V7.66c0,.841-.375,1.111-.991,1.111H2.252V5.993Zm9.716.12c0,3.4-3.669,3.972-3.669,7.439V15h5.352V13.317h-3.5a1.274,1.274,0,0,1-.017-.252c0-1.936,3.686-3.316,3.686-7.018,0-1.885-.943-2.962-2.76-2.962s-2.76,1.077-2.76,2.962V7.191h1.75V5.928c0-.842.37-1.161.959-1.161S12.764,5.053,12.764,6.113Zm4.7-.185c0-.842.37-1.161.959-1.161s.959.32.959,1.161V12.29c0,.842-.37,1.161-.959,1.161s-.959-.32-.959-1.161Zm-1.851,6.244c0,1.885.993,2.962,2.811,2.962s2.811-1.077,2.811-2.962V6.046c0-1.885-.993-2.962-2.811-2.962s-2.811,1.077-2.811,2.962Zm7.961-6.16H25V15h1.851V3.219H25.605A1.834,1.834,0,0,1,23.569,4.7Zm10.957.034c0-1.885-.993-2.962-2.811-2.962S28.9,4.161,28.9,6.046V8.2c0,1.734.69,2.693,2.053,2.693A1.762,1.762,0,0,0,32.674,9.85V12c0,1.128-.37,1.447-1.027,1.447-.589,0-.959-.32-.959-1.161v-.421h-1.75v.3c0,1.885.943,2.962,2.76,2.962,1.919,0,2.828-1.077,2.828-3.063ZM31.715,9.21c-.589,0-.959-.32-.959-1.161V5.928c0-.842.37-1.144.959-1.144s.959.3.959,1.144V8.049C32.674,8.89,32.3,9.21,31.715,9.21Zm7.945-3.217h1.876V15h1.681V4.492H38.008V15h1.651Zm6.275.916c0-.751.33-1.036.856-1.036s.856.285.856,1.036v5.674c0,.751-.33,1.036-.856,1.036s-.856-.285-.856-1.036Zm-1.651,5.569a2.51,2.51,0,1,0,5.014,0V7.014a2.51,2.51,0,1,0-5.014,0ZM3.828,24.729v1.5c0,.751-.33,1.021-.856,1.021s-.856-.27-.856-1.021V20.555c0-.751.33-1.036.856-1.036s.856.285.856,1.036v1.126H5.389V20.661c0-1.681-.841-2.642-2.462-2.642S.465,18.979.465,20.661v5.464c0,1.681.841,2.642,2.462,2.642s2.462-.961,2.462-2.642v-1.4Zm5-6.59H6.395V28.646H8.046V24.7h.781c1.651,0,2.462-.916,2.462-2.6V20.736C11.288,19.054,10.478,18.139,8.827,18.139Zm0,1.5c.525,0,.811.24.811.991v1.576c0,.751-.285.991-.811.991H8.046V19.64Zm6.89-1.5H13.3L11.619,28.646h1.516l.285-1.906h2.027l.285,1.906H17.4ZM14.426,20l.8,5.314H13.63Zm6.23-1.861H18.163V28.646h2.6a2.234,2.234,0,0,0,2.507-2.492V25.3a2.125,2.125,0,0,0-1.231-2.252A2.064,2.064,0,0,0,23.1,20.931v-.375C23.1,18.934,22.367,18.139,20.655,18.139Zm-.105,5.779c.751,0,1.066.3,1.066,1.276v.916c0,.781-.3,1.036-.856,1.036h-.946V23.918Zm.06-4.278c.585,0,.841.33.841,1.081v.585c0,.841-.375,1.111-.991,1.111h-.645V19.64Zm5.3,4.5h1.876v4.5h1.681V18.139H27.786v4.5H25.909v-4.5H24.258V28.646h1.651Zm6.41-4.5h2.852v-1.5h-4.5V28.646h4.5v-1.5H32.319V24.068h2.267v-1.5H32.319Zm5.524,4.5h1.876v4.5H41.4V18.139H39.719v4.5H37.843v-4.5H36.192V28.646h1.651Zm7.836-.315.675-2.582v7.4h1.486V18.139H46.024l-1.351,4.338-.6,2.312v-6.65H42.6V28.646h1.7Zm6.215,2.3a2.51,2.51,0,1,0,5.014,0V20.661a2.51,2.51,0,1,0-5.014,0v1.981H50.663v-4.5H49.011V28.646h1.651v-4.5h1.231Zm1.651-5.569c0-.751.33-1.036.856-1.036s.856.285.856,1.036V26.23c0,.751-.33,1.036-.856,1.036s-.856-.285-.856-1.036Zm10.012,4.173v1.5c0,.751-.33,1.021-.856,1.021s-.856-.27-.856-1.021V20.555c0-.751.33-1.036.856-1.036s.856.285.856,1.036v1.126h1.561V20.661c0-1.681-.841-2.642-2.462-2.642s-2.462.961-2.462,2.642v5.464c0,1.681.841,2.642,2.462,2.642s2.462-.961,2.462-2.642v-1.4Z" transform="translate(57.898 6.258)" fill="#242549"/></g></g><g transform="translate(3377.407 1481)"><path d="M-2270.444,681.268v250" transform="translate(2270.444 -681.268)" fill="none" stroke="#242549" stroke-width="2"/></g></g></svg>