<svg xmlns="http://www.w3.org/2000/svg" width="306.416" height="138.574" viewBox="0 0 306.416 138.574"><g transform="translate(-34.496 -4694.815)"><g transform="translate(135.818 4694.815)"><path d="M158.087,450.05H103.348a2.339,2.339,0,0,0-2.34,2.34V488.2a.468.468,0,0,0,.468.468h58.482a.468.468,0,0,0,.468-.468V452.389A2.339,2.339,0,0,0,158.087,450.05Zm.854,36.2a.936.936,0,0,1-.936.936H103.429a.936.936,0,0,1-.936-.936V452.471a.936.936,0,0,1,.936-.936H158a.936.936,0,0,1,.936.936Z" transform="translate(-95.706 -450.05)" fill="#2a2746"/><path d="M157.883,568.788H131.119a.742.742,0,0,1-.742.742h-10.4a.742.742,0,0,1-.742-.742H92.472s-1.7,0-2.154-1.088a.057.057,0,0,0-.111.02v1.057c.01,1.661,2.265,1.661,2.265,1.661h65.411s2.255,0,2.265-1.661v-1.09a.05.05,0,0,0-.1-.018C159.615,568.788,157.883,568.788,157.883,568.788Z" transform="translate(-90.166 -510.36)" fill="#2a2746"/><path d="M159.958,546.018l-5.008-15.026a.468.468,0,0,0-.444-.32H95.762a.468.468,0,0,0-.444.32L90.31,546.018a2.2,2.2,0,0,0,2.118,3.135h26.764c0-.3.332-.536.742-.536h10.4c.41,0,.742.24.742.536H157.84A2.2,2.2,0,0,0,159.958,546.018Z" transform="translate(-90.123 -491.401)" fill="#2a2746"/></g><g transform="translate(135 4774.563)"><g transform="translate(0 4.129)"><path d="M389.47,505.262c-3.548-.057-7.1-.1-10.645-.176q-3.5-.077-6.987-.244a87.042,87.042,0,0,1-9.555-.841,8.744,8.744,0,0,1-7.326-5.844,18.292,18.292,0,0,1-.811-3.723,100.286,100.286,0,0,1-.823-16.925c.076-3,.31-5.994.552-8.984a23.549,23.549,0,0,1,.957-5.394,8.62,8.62,0,0,1,6.46-6.049,33.117,33.117,0,0,1,5.509-.71c8.241-.608,16.5-.731,24.753-.663,4.522.037,9.044.171,13.562.353,2.743.11,5.482.358,8.216.613a13.347,13.347,0,0,1,4.161.912,8.721,8.721,0,0,1,5.239,6.332,51.983,51.983,0,0,1,1.059,8.015c.27,3.634.332,7.274.245,10.912-.066,2.755-.275,5.508-.457,8.259a37.3,37.3,0,0,1-.843,5.909,8.509,8.509,0,0,1-5.959,6.611,19.441,19.441,0,0,1-4.059.72c-7.591.738-15.211.79-22.829.879-.139,0-.278,0-.417,0Zm-7.133-14.588,17.026-9.8a.479.479,0,0,0,0-.83l-17.026-9.8a.478.478,0,0,0-.717.414V490.26A.478.478,0,0,0,382.337,490.674Z" transform="translate(-353.276 -455.691)" fill="#2a2746"/></g></g><g transform="translate(237.81 4775.648)"><path d="M436.152,312.792c2.691.8,4.384,1.969,4.384,3.267,0,2.421-5.888,4.384-13.152,4.384a37.61,37.61,0,0,1-4.384-.249" transform="translate(-409.848 -309.484)" fill="none" stroke="#2a2746" stroke-linecap="round" stroke-linejoin="round" stroke-width="1.5"/><path d="M409.384,318.151c-2.691-.8-4.384-1.969-4.384-3.267,0-2.421,5.888-4.384,13.152-4.384a37.607,37.607,0,0,1,4.384.249" transform="translate(-400.616 -308.308)" fill="none" stroke="#2a2746" stroke-linecap="round" stroke-linejoin="round" stroke-width="1.5"/><ellipse cx="17.536" cy="6.576" rx="17.536" ry="6.576" transform="translate(0 0)" stroke-width="1.5" stroke="#2a2746" stroke-linecap="round" stroke-linejoin="round" fill="none"/><path d="M422.3,329.58a41.892,41.892,0,0,1-8.768.88c-9.685,0-17.535-2.944-17.535-6.576V319.5" transform="translate(-396 -312.924)" fill="none" stroke="#2a2746" stroke-linecap="round" stroke-linejoin="round" stroke-width="1.5"/><path d="M463.384,319.5v4.384c0,1.668-1.656,3.19-4.384,4.35" transform="translate(-428.313 -312.924)" fill="none" stroke="#2a2746" stroke-linecap="round" stroke-linejoin="round" stroke-width="1.5"/><path d="M422.3,338.58a41.886,41.886,0,0,1-8.768.88c-9.685,0-17.535-2.944-17.535-6.576V328.5" transform="translate(-396 -317.54)" fill="none" stroke="#2a2746" stroke-linecap="round" stroke-linejoin="round" stroke-width="1.5"/><path d="M463.384,328.5v4.384c0,1.668-1.656,3.191-4.384,4.35" transform="translate(-428.313 -317.54)" fill="none" stroke="#2a2746" stroke-linecap="round" stroke-linejoin="round" stroke-width="1.5"/><path d="M422.3,347.58a41.884,41.884,0,0,1-8.768.88c-9.685,0-17.535-2.944-17.535-6.576V337.5" transform="translate(-396 -322.156)" fill="none" stroke="#2a2746" stroke-linecap="round" stroke-linejoin="round" stroke-width="1.5"/><path d="M463.384,337.5v4.384c0,1.668-1.656,3.19-4.384,4.35" transform="translate(-428.313 -322.156)" fill="none" stroke="#2a2746" stroke-linecap="round" stroke-linejoin="round" stroke-width="1.5"/><path d="M422.3,356.58a41.886,41.886,0,0,1-8.768.88c-9.685,0-17.535-2.944-17.535-6.576V346.5" transform="translate(-396 -326.773)" fill="none" stroke="#2a2746" stroke-linecap="round" stroke-linejoin="round" stroke-width="1.5"/><path d="M463.384,346.5v4.384c0,1.668-1.656,3.191-4.384,4.35" transform="translate(-428.313 -326.773)" fill="none" stroke="#2a2746" stroke-linecap="round" stroke-linejoin="round" stroke-width="1.5"/><path d="M422.3,365.58a41.888,41.888,0,0,1-8.768.88c-9.685,0-17.535-2.944-17.535-6.576V355.5" transform="translate(-396 -331.389)" fill="none" stroke="#2a2746" stroke-linecap="round" stroke-linejoin="round" stroke-width="1.5"/><path d="M463.384,355.5v4.384c0,1.668-1.656,3.19-4.384,4.35" transform="translate(-428.313 -331.389)" fill="none" stroke="#2a2746" stroke-linecap="round" stroke-linejoin="round" stroke-width="1.5"/><path d="M422.3,374.58a41.89,41.89,0,0,1-8.768.88c-9.685,0-17.535-2.944-17.535-6.576V364.5" transform="translate(-396 -336.005)" fill="none" stroke="#2a2746" stroke-linecap="round" stroke-linejoin="round" stroke-width="1.5"/><path d="M463.384,364.5v4.384c0,1.668-1.656,3.19-4.384,4.35" transform="translate(-428.313 -336.005)" fill="none" stroke="#2a2746" stroke-linecap="round" stroke-linejoin="round" stroke-width="1.5"/><path d="M422.3,383.58a41.888,41.888,0,0,1-8.768.88c-9.685,0-17.535-2.944-17.535-6.576V373.5" transform="translate(-396 -340.621)" fill="none" stroke="#2a2746" stroke-linecap="round" stroke-linejoin="round" stroke-width="1.5"/><path d="M463.384,373.5v4.384c0,1.668-1.656,3.19-4.384,4.35" transform="translate(-428.313 -340.621)" fill="none" stroke="#2a2746" stroke-linecap="round" stroke-linejoin="round" stroke-width="1.5"/><path d="M422.3,392.58a41.892,41.892,0,0,1-8.768.88c-9.685,0-17.535-2.944-17.535-6.576V382.5" transform="translate(-396 -345.237)" fill="none" stroke="#2a2746" stroke-linecap="round" stroke-linejoin="round" stroke-width="1.5"/><path d="M463.384,382.5v4.384c0,1.668-1.656,3.19-4.384,4.35" transform="translate(-428.313 -345.237)" fill="none" stroke="#2a2746" stroke-linecap="round" stroke-linejoin="round" stroke-width="1.5"/><path d="M422.3,401.58a41.886,41.886,0,0,1-8.768.88c-9.685,0-17.535-2.944-17.535-6.576V391.5" transform="translate(-396 -349.853)" fill="none" stroke="#2a2746" stroke-linecap="round" stroke-linejoin="round" stroke-width="1.5"/><path d="M463.384,391.5v4.384c0,1.668-1.656,3.19-4.384,4.35" transform="translate(-428.313 -349.853)" fill="none" stroke="#2a2746" stroke-linecap="round" stroke-linejoin="round" stroke-width="1.5"/><path d="M431.071,400.5v4.384c0,3.632-7.851,6.576-17.536,6.576S396,408.516,396,404.884V400.5" transform="translate(-396 -354.469)" fill="none" stroke="#2a2746" stroke-linecap="round" stroke-linejoin="round" stroke-width="1.5"/></g><g transform="translate(238.294 4713.336)"><path d="M139.384,381.151c-2.691-.8-4.384-1.969-4.384-3.267,0-2.421,5.888-4.384,13.152-4.384a37.607,37.607,0,0,1,4.384.249" transform="translate(-130.616 -371.308)" fill="none" stroke="#2a2746" stroke-linecap="round" stroke-linejoin="round" stroke-width="1.5"/><path d="M166.152,375.792c2.691.8,4.384,1.969,4.384,3.268,0,2.421-5.888,4.384-13.152,4.384a37.614,37.614,0,0,1-4.384-.249" transform="translate(-139.848 -372.484)" fill="none" stroke="#2a2746" stroke-linecap="round" stroke-linejoin="round" stroke-width="1.5"/><ellipse cx="17.536" cy="6.576" rx="17.536" ry="6.576" transform="translate(0 0)" stroke-width="1.5" stroke="#2a2746" stroke-linecap="round" stroke-linejoin="round" fill="none"/><path d="M152.3,392.58a44.136,44.136,0,0,1-17.536,0c-5.241-1.137-8.768-3.262-8.768-5.7V382.5" transform="translate(-126 -375.924)" fill="none" stroke="#2a2746" stroke-linecap="round" stroke-linejoin="round" stroke-width="1.5"/><path d="M193.384,382.5v4.384c0,1.668-1.656,3.19-4.384,4.35" transform="translate(-158.313 -375.924)" fill="none" stroke="#2a2746" stroke-linecap="round" stroke-linejoin="round" stroke-width="1.5"/><path d="M152.3,401.58a41.885,41.885,0,0,1-8.768.88c-9.684,0-17.536-2.944-17.536-6.576V391.5" transform="translate(-126 -380.54)" fill="none" stroke="#2a2746" stroke-linecap="round" stroke-linejoin="round" stroke-width="1.5"/><path d="M193.384,391.5v4.384c0,1.668-1.656,3.19-4.384,4.35" transform="translate(-158.313 -380.54)" fill="none" stroke="#2a2746" stroke-linecap="round" stroke-linejoin="round" stroke-width="1.5"/><path d="M161.071,400.5v4.384c0,3.632-7.851,6.576-17.536,6.576S126,408.516,126,404.884V400.5" transform="translate(-126 -385.156)" fill="none" stroke="#2a2746" stroke-linecap="round" stroke-linejoin="round" stroke-width="1.5"/></g><path d="M5.82,0H8.08L5.02-7.76,8.08-14H5.88L3-7.9V-14H.8V0H3V-4.3l.68-1.28Zm7.36-6.42.9-3.44V0h1.98V-14H13.64l-1.8,5.78-.8,3.08V-14H9.08V0h2.26ZM19.82-6h2.5V0h2.24V-14H22.32v6h-2.5v-6h-2.2V0h2.2Zm8.36-4.78c0-1,.44-1.38,1.14-1.38s1.14.38,1.14,1.38v7.56c0,1-.44,1.38-1.14,1.38s-1.14-.38-1.14-1.38Zm-2.2,7.42c0,2.24,1.18,3.52,3.34,3.52s3.34-1.28,3.34-3.52v-7.28c0-2.24-1.18-3.52-3.34-3.52s-3.34,1.28-3.34,3.52ZM39.2-10.78c0-1,.44-1.38,1.14-1.38s1.14.38,1.14,1.38v7.56c0,1-.44,1.38-1.14,1.38S39.2-2.22,39.2-3.22ZM37-3.36C37-1.12,38.18.16,40.34.16s3.34-1.28,3.34-3.52v-7.28c0-2.24-1.18-3.52-3.34-3.52S37-12.88,37-10.64ZM47.3-6h2.5V0h2.24V-14H49.8v6H47.3v-6H45.1V0h2.2ZM53.02.02h.34c2.2,0,3.12-1,3.2-3.56L56.8-12h1.92V0h2.24V-14H54.74L54.38-3.42c-.04,1.3-.36,1.44-1.36,1.44ZM67.52-14H64.3L62.06,0h2.02l.38-2.54h2.7L67.54,0h2.22ZM65.8-11.52l1.06,7.08H64.74ZM73.04,0H70.78V-14h1.96v8.86l.8-3.08L75.34-14h2.42V0H75.78V-9.86l-.9,3.44Zm3.6-17.12A2.067,2.067,0,0,1,74.3-14.9,2.064,2.064,0,0,1,72-17.12h1.36c.06.74.36.92.94.92.6,0,.94-.18,1-.92ZM81.56-6h2.5V0H86.3V-14H84.06v6h-2.5v-6h-2.2V0h2.2Z" transform="translate(33.696 4745.131)" fill="#2a2746"/><path d="M-25.72,0h2.2V-4.64L-20.74-14h-2.1l-1.68,6.38L-26.2-14h-2.3l2.78,9.36Zm7.58-10.78c0-1,.44-1.38,1.14-1.38s1.14.38,1.14,1.38v7.56c0,1-.44,1.38-1.14,1.38s-1.14-.38-1.14-1.38Zm-2.2,7.42c0,2.24,1.18,3.52,3.34,3.52s3.34-1.28,3.34-3.52v-7.28c0-2.24-1.18-3.52-3.34-3.52s-3.34,1.28-3.34,3.52Zm8-10.64V-3.34c0,2.24,1.12,3.52,3.28,3.52S-5.78-1.1-5.78-3.34V-14H-7.86V-3.2c0,1-.44,1.36-1.14,1.36s-1.14-.36-1.14-1.36V-14Zm10.52,2H.48V0h2.2V-12h2.3v-2h-6.8Zm7.66-2V-3.34C5.84-1.1,6.96.18,9.12.18S12.4-1.1,12.4-3.34V-14H10.32V-3.2c0,1-.44,1.36-1.14,1.36S8.04-2.2,8.04-3.2V-14Zm11.38,0H13.9V0h3.46c2.2,0,3.34-1.16,3.34-3.32V-4.46c0-1.48-.46-2.54-1.64-3,.98-.46,1.42-1.38,1.42-2.82v-.5C20.48-12.94,19.5-14,17.22-14Zm-.14,7.7c1,0,1.42.4,1.42,1.7v1.22C18.5-2.34,18.1-2,17.36-2H16.1V-6.3Zm.08-5.7c.78,0,1.12.44,1.12,1.44v.78c0,1.12-.5,1.48-1.32,1.48H16.1V-12Zm7.06,0h3.8v-2h-6V0h6V-2h-3.8V-6.1h3.02v-2H24.22Z" transform="translate(91.696 4822.131)" fill="#2a2746"/><path d="M-6.317-13.955v1.015c0,1.96.98,3.08,2.87,3.08s2.87-1.12,2.87-3.08v-2.73c0-1.8-.717-2.8-2.135-2.8a1.836,1.836,0,0,0-1.68.892l.157-2.922H-.892v-1.75H-5.967l-.35,7.1H-4.5v-.367c0-.875.385-1.207,1-1.207s1,.332,1,1.207v2.695c0,.875-.385,1.19-1,1.19s-1-.315-1-1.19v-1.137Z" transform="translate(340.318 4731.313)" fill="#2a244a"/><g transform="translate(68.715 4004.563)"><path d="M263.605,786.486c-1.064,0-1.733.578-1.733,2.1v11.488c0,1.519.669,2.1,1.733,2.1s1.732-.578,1.732-2.1V788.583C265.337,787.064,264.669,786.486,263.605,786.486Z" fill="#2a2646"/><path d="M251.57,802.168c1.063,0,1.732-.578,1.732-2.1V788.583c0-1.519-.669-2.1-1.732-2.1s-1.733.578-1.733,2.1v11.488C249.837,801.59,250.506,802.168,251.57,802.168Z" fill="#2a2646"/><path d="M247.376,809.319c-.341,0-.555.185-.555.673v3.683c0,.487.214.672.555.672s.556-.185.556-.672v-3.683C247.932,809.505,247.718,809.319,247.376,809.319Z" fill="#2a2646"/><path d="M272.2,817.058v-35.93a.691.691,0,0,0-.689-.691H234.218a.69.69,0,0,0-.69.69h0v13.1a.7.7,0,0,1-.2.488l-3.7,3.7a.691.691,0,0,0,0,.976l3.7,3.7a.693.693,0,0,1,.2.489v13.469a.69.69,0,0,0,.69.69h37.288A.69.69,0,0,0,272.2,817.058Zm-25.7-28.262c0-3.4,1.793-5.349,5.076-5.349s5.075,1.945,5.075,5.349v11.063c0,3.4-1.793,5.349-5.075,5.349s-5.076-1.945-5.076-5.349Zm-7.111,15.823V788.735h-2.238a.345.345,0,0,1-.345-.345h0V786.7a.35.35,0,0,1,.338-.344,3.162,3.162,0,0,0,3.256-2.441.348.348,0,0,1,.323-.226h1.663a.345.345,0,0,1,.345.345h0v20.584a.344.344,0,0,1-.345.345h-2.652a.345.345,0,0,1-.346-.344h0Zm5.967,10.626h-1.1l-1.043-2.719-.331.624v2.1H241.8v-6.821h1.072V811.4l1.4-2.972h1.072l-1.49,3.04Zm3.654-1.637a1.629,1.629,0,0,1-3.254.162,1.457,1.457,0,0,1,0-.162v-3.547a1.629,1.629,0,0,1,3.254-.161c0,.054,0,.108,0,.161Zm4.071,1.637h-1.092V809.4h-1.218v5.847H249.7v-6.821h3.381Zm3.7-5.847h-1.852v1.9H256.4v.971h-1.471v2h1.851v.975h-2.923v-6.821h2.923Zm3.584,0H258.51v1.9h1.472v.971H258.51v2h1.851v.975h-2.923v-6.821h2.923Zm4.21,5.847h-1.1l-1.043-2.719-.331.624v2.1h-1.072v-6.821H262.1V811.4l1.4-2.972h1.071l-1.49,3.04Zm4.108-15.386c0,3.4-1.793,5.349-5.075,5.349s-5.076-1.945-5.076-5.349V788.8c0-3.4,1.793-5.349,5.076-5.349s5.075,1.945,5.075,5.349Z" fill="#2a2646"/></g><g transform="translate(110.715 3927.563)"><path d="M211.322,792.347c1.063,0,1.884-.547,1.884-2.249v-1.185c0-1.915-.821-2.432-1.884-2.432s-1.885.517-1.885,2.432V790.1C209.437,791.8,210.228,792.347,211.322,792.347Z" fill="#2a2646"/><path d="M219.183,780.437H191.9a.69.69,0,0,0-.69.69h0v13.285a.7.7,0,0,1-.2.488l-3.7,3.7a.691.691,0,0,0,0,.976l3.7,3.7a.689.689,0,0,1,.2.489v13.283a.689.689,0,0,0,.689.691h27.289a.69.69,0,0,0,.69-.69h0V781.127a.69.69,0,0,0-.69-.69Zm-24.7,21.908c0-6.261,6.626-7.294,6.626-13.433,0-1.915-.669-2.432-1.732-2.432s-1.733.578-1.733,2.1v1.934a.345.345,0,0,1-.345.345h-2.47a.346.346,0,0,1-.345-.345h0v-1.721c0-3.4,1.7-5.349,4.984-5.349s4.984,1.945,4.984,5.349c0,6.686-6.656,9.178-6.656,12.673v.456H203.8a.344.344,0,0,1,.345.345h0v2.349a.345.345,0,0,1-.345.345H194.83a.346.346,0,0,1-.345-.345h0Zm3.129,12.356h-1.1l-1.042-2.718-.331.623v2.1h-1.074V807.88h1.072v2.972l1.4-2.972h1.078l-1.491,3.04Zm3.653-1.637a1.63,1.63,0,1,1-3.255.18,1.8,1.8,0,0,1,0-.18v-3.547a1.63,1.63,0,0,1,3.255-.181c0,.061,0,.121,0,.181Zm4.072,1.637h-1.091v-5.846h-1.218V814.7h-1.072V807.88h3.381Zm3.7-5.846h-1.851v1.9h1.472v.974h-1.472v2h1.851v.974h-2.922V807.88h2.923Zm-2.946-9v-1.671c0-2.037.608-3.617,2.066-4.437-1.4-.76-2.066-2.188-2.066-4.285v-.669c0-3.4,1.854-5.349,5.228-5.349s5.227,1.945,5.227,5.349v.669c0,2.1-.7,3.525-2.067,4.285,1.459.821,2.067,2.4,2.067,4.438v1.671c0,3.4-1.854,5.349-5.227,5.349s-5.226-1.945-5.226-5.352Zm6.531,9h-1.851v1.9h1.472v.974h-1.472v2h1.851v.974H209.7V807.88h2.923Zm4.209,5.846h-1.1l-1.043-2.718-.331.623v2.1h-1.072V807.88h1.072v2.972l1.4-2.972h1.072l-1.491,3.04Z" fill="#2a2646"/><path d="M199.639,808.777c-.341,0-.555.185-.555.672v3.683c0,.487.214.673.555.673s.555-.186.555-.673v-3.683C200.2,808.962,199.98,808.777,199.639,808.777Z" fill="#2a2646"/><path d="M213.205,799.763v-1.978c0-1.672-.7-2.4-1.884-2.4s-1.885.73-1.885,2.4v1.975c0,1.884.821,2.4,1.885,2.4S213.175,801.647,213.205,799.763Z" fill="#2a2646"/></g></g></svg>