<svg xmlns="http://www.w3.org/2000/svg" width="375" height="465" viewBox="0 0 375 465"><g transform="translate(0 -95)"><rect width="375" height="465" transform="translate(0 95)" fill="none"/><g transform="translate(0 106.23)"><g transform="translate(0 10.716)"><g transform="translate(32 0.054)"><rect width="72" height="200" transform="translate(0 100)" fill="#e3ded5" opacity="0.5"/><rect width="179" height="200" transform="translate(144 100)" fill="#ffbe28" opacity="0.102"/></g><line x2="322.218" transform="translate(32.282 299.612)" stroke-width="1" stroke="#e3ded5" stroke-linecap="square" stroke-linejoin="bevel" fill="none"/><line x2="322.218" transform="translate(32.282 249.676)" stroke-width="1" stroke="#e3ded5" stroke-linecap="square" stroke-linejoin="bevel" fill="none"/><path d="M0,0H355" transform="translate(0 199.054)" fill="none" stroke="#e3ded5" stroke-width="20"/><line x2="322.218" transform="translate(32.282 149.806)" stroke-width="1" stroke="#e3ded5" stroke-linecap="square" stroke-linejoin="bevel" fill="none"/><line x2="322.218" transform="translate(32.282 99.871)" stroke-width="1" stroke="#e3ded5" stroke-linecap="square" stroke-linejoin="bevel" fill="none"/><line y1="199.003" transform="translate(319.082 100.609)" stroke-width="1" stroke="#e3ded5" stroke-linecap="square" stroke-linejoin="bevel" fill="none"/><line y1="199.003" transform="translate(283.232 100.609)" stroke-width="1" stroke="#e3ded5" stroke-linecap="square" stroke-linejoin="bevel" fill="none"/><line y1="199.003" transform="translate(245.382 100.609)" stroke-width="1" stroke="#e3ded5" stroke-linecap="square" stroke-linejoin="bevel" fill="none"/><line y1="199.003" transform="translate(211.532 100.609)" stroke-width="1" stroke="#e3ded5" stroke-linecap="square" stroke-linejoin="bevel" fill="none"/><line y1="251.557" transform="translate(175.682 100.054)" fill="none" stroke="#e3ded5" stroke-linejoin="bevel" stroke-width="1"/><line y1="199.557" transform="translate(139.832 100.054)" stroke-width="1" stroke="#e3ded5" stroke-linecap="square" stroke-linejoin="bevel" fill="none"/><path d="M0,251.557V0" transform="translate(103.982 100.054)" fill="none" stroke="#e3ded5" stroke-width="1"/><line y1="199.003" transform="translate(68.132 100.609)" stroke-width="1" stroke="#e3ded5" stroke-linecap="square" stroke-linejoin="bevel" fill="none"/><path d="M0,199V0" transform="translate(32.282 100.609)" fill="none" stroke="#e3ded5" stroke-linecap="square" stroke-width="1"/><line y1="199.003" transform="translate(249.382 100.609)" stroke-width="1" stroke="#e3ded5" stroke-linecap="square" stroke-linejoin="bevel" fill="none"/><line x1="10.453" y2="10.453" transform="translate(242.155 284.826)" stroke-width="2" stroke="#e3ded5" stroke-linecap="square" stroke-linejoin="bevel" fill="none"/><line x1="10.453" y2="10.453" transform="translate(242.155 278.644)" stroke-width="2" stroke="#e3ded5" stroke-linecap="square" stroke-linejoin="bevel" fill="none"/><path d="M0-.943H236.572" transform="translate(32.742 199.997)" fill="none" stroke="#292b45" stroke-width="2" opacity="0.325"/></g><g transform="translate(165.48 388.747)"><path d="M2.424-8.4q1.968,0,1.968,2.076v1.092q0,2.076-1.968,2.076H1.8V0H.48V-8.4Zm0,1.2H1.8v2.844h.624a.621.621,0,0,0,.486-.18.912.912,0,0,0,.162-.612v-1.26A.912.912,0,0,0,2.91-7.02.621.621,0,0,0,2.424-7.2Zm3.9,0v2.34H8.136v1.2H6.324V-1.2H8.6V0H5V-8.4H8.6v1.2ZM12.432,0,11.148-3.348l-.408.768V0H9.42V-8.4h1.32v3.66L12.468-8.4h1.32L11.952-4.656,13.788,0Zm1.584.012v-1.2a.981.981,0,0,0,.642-.15,1.073,1.073,0,0,0,.174-.714L15.048-8.4H18.78V0H17.436V-7.2H16.284L16.14-2.124A2.56,2.56,0,0,1,15.66-.48a1.855,1.855,0,0,1-1.44.492Zm8.7-8.412L24.06,0H22.728L22.5-1.524H20.88L20.652,0H19.44l1.344-8.4ZM21.684-6.912l-.636,4.248H22.32ZM26.5-8.4l.972,5.964.9-5.964H30.2V0H28.956V-6.024L28.044,0H26.8l-.984-5.94V0H24.66V-8.4Zm5.988,4.8V0h-1.32V-8.4h1.32v3.6h1.5V-8.4h1.344V0H33.984V-3.6ZM38.232,0H36.288V-8.4h1.32v3.156h.624q1.968,0,1.968,2.076v1.092Q40.2,0,38.232,0Zm-.624-1.2h.624a.621.621,0,0,0,.486-.18.912.912,0,0,0,.162-.612v-1.26a.912.912,0,0,0-.162-.612.621.621,0,0,0-.486-.18h-.624ZM42.276,0h-1.32V-8.4h1.32Zm.96,0V-8.4h1.176v5.316l.48-1.848L45.972-8.4h1.452V0H46.236V-5.916L45.7-3.852,44.592,0Zm2.712-10.272h.8a1.309,1.309,0,0,1-.36.978,1.428,1.428,0,0,1-1.044.354,1.361,1.361,0,0,1-1.014-.348,1.426,1.426,0,0,1-.366-.984h.816a.632.632,0,0,0,.156.438.613.613,0,0,0,.408.114.663.663,0,0,0,.432-.12A.6.6,0,0,0,45.948-10.272ZM52.344,0H50.256V-8.4h3.7v1.2H51.576v2.148h.768a1.95,1.95,0,0,1,1.488.534,2.163,2.163,0,0,1,.5,1.542v.9a2.163,2.163,0,0,1-.5,1.542A1.95,1.95,0,0,1,52.344,0Zm-.768-1.2h.768q.672,0,.672-.792V-3.06q0-.792-.672-.792h-.768Zm5.952-.816V-3.6h-.984V0h-1.32V-8.4h1.32v3.6h.984V-6.384a2.2,2.2,0,0,1,.516-1.56A1.938,1.938,0,0,1,59.532-8.5a1.938,1.938,0,0,1,1.488.552,2.2,2.2,0,0,1,.516,1.56v4.368a2.2,2.2,0,0,1-.516,1.56A1.938,1.938,0,0,1,59.532.1a1.938,1.938,0,0,1-1.488-.552A2.2,2.2,0,0,1,57.528-2.016Zm1.32-4.452v4.536q0,.828.684.828t.684-.828V-6.468q0-.828-.684-.828T58.848-6.468Zm8.688,7.6H66.228V0h-2.82V1.128H62.124v-2.3h.516a1.883,1.883,0,0,0,.324-1.092l.3-6.132h3.7v7.224h.576ZM64.5-7.2l-.24,4.908a1.669,1.669,0,0,1-.372,1.116h1.728V-7.2Zm7.572-1.2V-5l1.56-3.4h1.32l-1.62,3.408L74.952,0H73.6L72.4-3.72l-.324.636V0H70.764V-3.084l-.324-.648L69.24,0H67.884l1.632-4.956L67.884-8.4H69.2L70.764-5V-8.4Zm4.764,1.2v2.34h1.812v1.2H76.836V-1.2h2.28V0h-3.6V-8.4h3.6v1.2Zm2.712,0V-8.4h4.08v1.2h-1.38V0h-1.32V-7.2Z" transform="translate(-0.48 10.272)" fill="#242549"/></g><g transform="translate(49.48 388.747)"><path d="M2.472-8.4a2.02,2.02,0,0,1,1.488.474,2,2,0,0,1,.468,1.458v.3a1.669,1.669,0,0,1-.852,1.692,1.7,1.7,0,0,1,.984,1.8v.684A2.007,2.007,0,0,1,4.05-.51,2.025,2.025,0,0,1,2.556,0H.48V-8.4ZM2.388-3.78H1.8V-1.2h.756a.661.661,0,0,0,.516-.186.958.958,0,0,0,.168-.642V-2.76a1.216,1.216,0,0,0-.2-.8A.839.839,0,0,0,2.388-3.78ZM2.436-7.2H1.8v2.22h.516a.792.792,0,0,0,.594-.2.964.964,0,0,0,.2-.684v-.468Q3.108-7.2,2.436-7.2Zm4.128.732v4.536q0,.828.684.828t.684-.828V-6.468q0-.828-.684-.828T6.564-6.468ZM5.244-2.016V-6.384a2.2,2.2,0,0,1,.516-1.56A1.938,1.938,0,0,1,7.248-8.5a1.938,1.938,0,0,1,1.488.552,2.2,2.2,0,0,1,.516,1.56v4.368a2.2,2.2,0,0,1-.516,1.56A1.938,1.938,0,0,1,7.248.1,1.938,1.938,0,0,1,5.76-.456,2.2,2.2,0,0,1,5.244-2.016Zm7.4-3.852v-.468a1.206,1.206,0,0,0-.174-.75.624.624,0,0,0-.51-.21q-.7,0-.7.828v.684H10.056v-.624a2.216,2.216,0,0,1,.492-1.554A1.877,1.877,0,0,1,12-8.5a1.894,1.894,0,0,1,1.464.546,2.227,2.227,0,0,1,.5,1.566v.216a1.66,1.66,0,0,1-.924,1.728,1.719,1.719,0,0,1,.924,1.764v.66a2.227,2.227,0,0,1-.5,1.566A1.894,1.894,0,0,1,12,.1,1.894,1.894,0,0,1,10.536-.45a2.227,2.227,0,0,1-.5-1.566V-2.94H11.28v1.008q0,.828.684.828a.624.624,0,0,0,.51-.21,1.181,1.181,0,0,0,.174-.738v-.66a1.3,1.3,0,0,0-.2-.822.811.811,0,0,0-.66-.246H11.46v-1.2h.4a.792.792,0,0,0,.594-.2A.964.964,0,0,0,12.648-5.868Zm4.2-2.532a2.02,2.02,0,0,1,1.488.474A2,2,0,0,1,18.8-6.468v.3a1.669,1.669,0,0,1-.852,1.692,1.7,1.7,0,0,1,.984,1.8v.684a2.007,2.007,0,0,1-.51,1.482A2.025,2.025,0,0,1,16.932,0H14.856V-8.4Zm-.084,4.62h-.588V-1.2h.756a.661.661,0,0,0,.516-.186.958.958,0,0,0,.168-.642V-2.76a1.216,1.216,0,0,0-.2-.8A.839.839,0,0,0,16.764-3.78Zm.048-3.42h-.636v2.22h.516a.792.792,0,0,0,.594-.2.964.964,0,0,0,.2-.684v-.468Q17.484-7.2,16.812-7.2Zm4.86-1.2q1.968,0,1.968,2.076v1.092q0,2.076-1.968,2.076h-.624V0h-1.32V-8.4Zm0,1.2h-.624v2.844h.624a.621.621,0,0,0,.486-.18.912.912,0,0,0,.162-.612v-1.26a.912.912,0,0,0-.162-.612A.621.621,0,0,0,21.672-7.2ZM27.18-8.4,28.524,0H27.192l-.228-1.524h-1.62L25.116,0H23.9l1.344-8.4ZM26.148-6.912l-.636,4.248h1.272Zm2.6-.288V-8.4h4.08v1.2h-1.38V0h-1.32V-7.2Zm8.976,3.348L36.624,0H35.268V-8.4h1.176v5.316l.48-1.848L38-8.4h1.452V0H38.268V-5.916Zm3.984.252V0h-1.32V-8.4h1.32v3.6h1.5V-8.4h1.344V0H43.212V-3.6Zm5.8-4.8A2.02,2.02,0,0,1,49-7.926a2,2,0,0,1,.468,1.458v.3a1.669,1.669,0,0,1-.852,1.692,1.7,1.7,0,0,1,.984,1.8v.684a2.007,2.007,0,0,1-.51,1.482A2.025,2.025,0,0,1,47.592,0H45.516V-8.4Zm-.084,4.62h-.588V-1.2h.756a.661.661,0,0,0,.516-.186.958.958,0,0,0,.168-.642V-2.76a1.216,1.216,0,0,0-.2-.8A.839.839,0,0,0,47.424-3.78Zm.048-3.42h-.636v2.22h.516a.792.792,0,0,0,.594-.2.964.964,0,0,0,.2-.684v-.468Q48.144-7.2,47.472-7.2Zm4.236,0v2.34H53.52v1.2H51.708V-1.2h2.28V0h-3.6V-8.4h3.6v1.2Zm5.676,4.068h1.248v1.116a2.227,2.227,0,0,1-.5,1.566A1.894,1.894,0,0,1,56.664.1,1.894,1.894,0,0,1,55.2-.45a2.227,2.227,0,0,1-.5-1.566V-6.384a2.227,2.227,0,0,1,.5-1.566A1.894,1.894,0,0,1,56.664-8.5a1.894,1.894,0,0,1,1.464.546,2.227,2.227,0,0,1,.5,1.566v.816H57.384v-.9q0-.828-.684-.828t-.684.828v4.536q0,.816.684.816t.684-.816ZM59.052-7.2V-8.4h4.08v1.2h-1.38V0h-1.32V-7.2Zm7.116,3.348L65.064,0H63.708V-8.4h1.176v5.316l.48-1.848L66.444-8.4H67.9V0H66.708V-5.916ZM68.832,0V-8.4h1.32v7.2h1.5V-8.4H73v7.224h.576v2.3H72.288V0Zm7.92-3.852L75.648,0H74.292V-8.4h1.176v5.316l.48-1.848L77.028-8.4H78.48V0H77.292V-5.916ZM79.416,0V-8.4h1.176v5.316l.48-1.848L82.152-8.4H83.6V0H82.416V-5.916l-.54,2.064L80.772,0Zm2.712-10.272h.8a1.309,1.309,0,0,1-.36.978,1.428,1.428,0,0,1-1.044.354,1.361,1.361,0,0,1-1.014-.348,1.426,1.426,0,0,1-.366-.984h.816a.632.632,0,0,0,.156.438.613.613,0,0,0,.408.114.663.663,0,0,0,.432-.12A.6.6,0,0,0,82.128-10.272Z" transform="translate(-0.48 10.272)" fill="#242549"/></g><rect width="13" height="13" rx="3" transform="translate(147 387.77)" fill="#c2b7f5"/><rect width="13" height="13" rx="3" transform="translate(31 387.77)" fill="#1bad1b"/><g transform="translate(47.198 405.105)"><g transform="translate(2 3)"><path d="M1.248-7.176V-4.3q0,.528.432.528T2.112-4.3v-2.88q0-.528-.432-.528T1.248-7.176Zm-.84,2.82v-2.76a1.408,1.408,0,0,1,.324-1A1.232,1.232,0,0,1,1.68-8.46a1.232,1.232,0,0,1,.948.348,1.408,1.408,0,0,1,.324,1v2.76a1.408,1.408,0,0,1-.324,1,1.232,1.232,0,0,1-.948.348A1.232,1.232,0,0,1,.732-3.36,1.408,1.408,0,0,1,.408-4.356ZM1.68,0,4.992-8.4h.78L2.46,0ZM5.412-4.1v2.88q0,.528.432.528t.432-.528V-4.1q0-.528-.432-.528T5.412-4.1Zm-.84,2.82v-2.76a1.408,1.408,0,0,1,.324-1,1.232,1.232,0,0,1,.948-.348,1.232,1.232,0,0,1,.948.348,1.408,1.408,0,0,1,.324,1v2.76a1.408,1.408,0,0,1-.324,1A1.232,1.232,0,0,1,5.844.06,1.232,1.232,0,0,1,4.9-.288,1.408,1.408,0,0,1,4.572-1.284ZM11.856-8.4a2.02,2.02,0,0,1,1.488.474,2,2,0,0,1,.468,1.458v.3a1.669,1.669,0,0,1-.852,1.692,1.7,1.7,0,0,1,.984,1.8v.684a2.007,2.007,0,0,1-.51,1.482A2.025,2.025,0,0,1,11.94,0H9.864V-8.4Zm-.084,4.62h-.588V-1.2h.756a.661.661,0,0,0,.516-.186.958.958,0,0,0,.168-.642V-2.76a1.216,1.216,0,0,0-.2-.8A.839.839,0,0,0,11.772-3.78ZM11.82-7.2h-.636v2.22H11.7a.792.792,0,0,0,.594-.2.964.964,0,0,0,.2-.684v-.468Q12.492-7.2,11.82-7.2Zm4.128.732v4.536q0,.828.684.828t.684-.828V-6.468q0-.828-.684-.828T15.948-6.468Zm-1.32,4.452V-6.384a2.2,2.2,0,0,1,.516-1.56A1.938,1.938,0,0,1,16.632-8.5a1.938,1.938,0,0,1,1.488.552,2.2,2.2,0,0,1,.516,1.56v4.368a2.2,2.2,0,0,1-.516,1.56A1.938,1.938,0,0,1,16.632.1a1.938,1.938,0,0,1-1.488-.552A2.2,2.2,0,0,1,14.628-2.016Zm7.4-3.852v-.468a1.206,1.206,0,0,0-.174-.75.624.624,0,0,0-.51-.21q-.7,0-.7.828v.684H19.44v-.624a2.216,2.216,0,0,1,.492-1.554A1.877,1.877,0,0,1,21.384-8.5a1.894,1.894,0,0,1,1.464.546,2.227,2.227,0,0,1,.5,1.566v.216a1.66,1.66,0,0,1-.924,1.728,1.719,1.719,0,0,1,.924,1.764v.66a2.227,2.227,0,0,1-.5,1.566A1.894,1.894,0,0,1,21.384.1,1.894,1.894,0,0,1,19.92-.45a2.227,2.227,0,0,1-.5-1.566V-2.94h1.248v1.008q0,.828.684.828a.624.624,0,0,0,.51-.21,1.181,1.181,0,0,0,.174-.738v-.66a1.3,1.3,0,0,0-.2-.822.811.811,0,0,0-.66-.246h-.324v-1.2h.4a.792.792,0,0,0,.594-.2A.964.964,0,0,0,22.032-5.868Zm4.2-2.532a2.02,2.02,0,0,1,1.488.474,2,2,0,0,1,.468,1.458v.3a1.669,1.669,0,0,1-.852,1.692,1.7,1.7,0,0,1,.984,1.8v.684A2.007,2.007,0,0,1,27.81-.51,2.025,2.025,0,0,1,26.316,0H24.24V-8.4Zm-.084,4.62H25.56V-1.2h.756a.661.661,0,0,0,.516-.186A.958.958,0,0,0,27-2.028V-2.76a1.216,1.216,0,0,0-.2-.8A.839.839,0,0,0,26.148-3.78ZM26.2-7.2H25.56v2.22h.516a.792.792,0,0,0,.594-.2.964.964,0,0,0,.2-.684v-.468Q26.868-7.2,26.2-7.2Zm4.86-1.2q1.968,0,1.968,2.076v1.092q0,2.076-1.968,2.076h-.624V0h-1.32V-8.4Zm0,1.2h-.624v2.844h.624a.621.621,0,0,0,.486-.18.912.912,0,0,0,.162-.612v-1.26a.912.912,0,0,0-.162-.612A.621.621,0,0,0,31.056-7.2Zm5.508-1.2L37.908,0H36.576l-.228-1.524h-1.62L34.5,0H33.288l1.344-8.4ZM35.532-6.912,34.9-2.664h1.272Zm2.6-.288V-8.4h4.08v1.2h-1.38V0h-1.32V-7.2ZM45.72-8.4,47.064,0H45.732L45.5-1.524h-1.62L43.656,0H42.444l1.344-8.4ZM44.688-6.912l-.636,4.248h1.272ZM52-3.852,50.892,0H49.536V-8.4h1.176v5.316l.48-1.848L52.272-8.4h1.452V0H52.536V-5.916ZM55.98-3.6V0H54.66V-8.4h1.32v3.6h1.5V-8.4h1.344V0H57.48V-3.6Zm5.8-4.8a2.02,2.02,0,0,1,1.488.474,2,2,0,0,1,.468,1.458v.3a1.669,1.669,0,0,1-.852,1.692,1.7,1.7,0,0,1,.984,1.8v.684a2.007,2.007,0,0,1-.51,1.482A2.025,2.025,0,0,1,61.86,0H59.784V-8.4Zm-.084,4.62H61.1V-1.2h.756a.661.661,0,0,0,.516-.186.958.958,0,0,0,.168-.642V-2.76a1.216,1.216,0,0,0-.2-.8A.839.839,0,0,0,61.692-3.78ZM61.74-7.2H61.1v2.22h.516a.792.792,0,0,0,.594-.2.964.964,0,0,0,.2-.684v-.468Q62.412-7.2,61.74-7.2Zm4.236,0v2.34h1.812v1.2H65.976V-1.2h2.28V0h-3.6V-8.4h3.6v1.2Zm5.676,4.068H72.9v1.116A2.227,2.227,0,0,1,72.4-.45,1.894,1.894,0,0,1,70.932.1,1.894,1.894,0,0,1,69.468-.45a2.227,2.227,0,0,1-.5-1.566V-6.384a2.227,2.227,0,0,1,.5-1.566A1.894,1.894,0,0,1,70.932-8.5,1.894,1.894,0,0,1,72.4-7.95a2.227,2.227,0,0,1,.5,1.566v.816H71.652v-.9q0-.828-.684-.828t-.684.828v4.536q0,.816.684.816t.684-.816ZM73.32-7.2V-8.4H77.4v1.2H76.02V0H74.7V-7.2Zm7.116,3.348L79.332,0H77.976V-8.4h1.176v5.316l.48-1.848L80.712-8.4h1.452V0H80.976V-5.916ZM83.1,0V-8.4h1.32v7.2h1.5V-8.4h1.344v7.224h.576v2.3H86.556V0Zm7.92-3.852L89.916,0H88.56V-8.4h1.176v5.316l.48-1.848L91.3-8.4h1.452V0H91.56V-5.916ZM93.684,0V-8.4H94.86v5.316l.48-1.848L96.42-8.4h1.452V0H96.684V-5.916l-.54,2.064L95.04,0ZM96.4-10.272h.8a1.309,1.309,0,0,1-.36.978A1.428,1.428,0,0,1,95.8-8.94a1.361,1.361,0,0,1-1.014-.348,1.426,1.426,0,0,1-.366-.984h.816a.632.632,0,0,0,.156.438.613.613,0,0,0,.408.114.663.663,0,0,0,.432-.12A.6.6,0,0,0,96.4-10.272Zm5.112,3.864v-.936a1.427,1.427,0,0,0,.972-.264,1.969,1.969,0,0,0,.48-.792h.888V0h-1.32V-6.408Zm5.148-.06v4.536q0,.828.684.828t.684-.828V-6.468q0-.828-.684-.828T106.656-6.468Zm-1.32,4.452V-6.384a2.2,2.2,0,0,1,.516-1.56A1.938,1.938,0,0,1,107.34-8.5a1.938,1.938,0,0,1,1.488.552,2.2,2.2,0,0,1,.516,1.56v4.368a2.2,2.2,0,0,1-.516,1.56A1.938,1.938,0,0,1,107.34.1a1.938,1.938,0,0,1-1.488-.552A2.2,2.2,0,0,1,105.336-2.016Zm6.072-4.452v4.536q0,.828.684.828t.684-.828V-6.468q0-.828-.684-.828T111.408-6.468Zm-1.32,4.452V-6.384a2.2,2.2,0,0,1,.516-1.56,1.938,1.938,0,0,1,1.488-.552,1.938,1.938,0,0,1,1.488.552,2.2,2.2,0,0,1,.516,1.56v4.368a2.2,2.2,0,0,1-.516,1.56A1.938,1.938,0,0,1,112.092.1,1.938,1.938,0,0,1,110.6-.456,2.2,2.2,0,0,1,110.088-2.016ZM116.424-7.2V-8.4h4.08v1.2h-1.38V0H117.8V-7.2Zm6.6,7.2H121.08V-8.4h1.32v3.156h.624q1.968,0,1.968,2.076v1.092Q124.992,0,123.024,0ZM122.4-1.2h.624a.621.621,0,0,0,.486-.18.912.912,0,0,0,.162-.612v-1.26a.912.912,0,0,0-.162-.612.621.621,0,0,0-.486-.18H122.4ZM127.068,0h-1.32V-8.4h1.32Zm3.54-3.132h1.248v1.116a2.227,2.227,0,0,1-.5,1.566A1.894,1.894,0,0,1,129.888.1a1.894,1.894,0,0,1-1.464-.546,2.227,2.227,0,0,1-.5-1.566V-6.384a2.227,2.227,0,0,1,.5-1.566,1.894,1.894,0,0,1,1.464-.546,1.894,1.894,0,0,1,1.464.546,2.227,2.227,0,0,1,.5,1.566v.816h-1.248v-.9q0-.828-.684-.828t-.684.828v4.536q0,.816.684.816t.684-.816Zm2.052,1.86h1.272V0H132.66Zm6.636-4.6v-.468a1.206,1.206,0,0,0-.174-.75.624.624,0,0,0-.51-.21q-.7,0-.7.828v.684H136.7v-.624a2.216,2.216,0,0,1,.492-1.554,1.877,1.877,0,0,1,1.452-.534,1.894,1.894,0,0,1,1.464.546,2.227,2.227,0,0,1,.5,1.566v.216a1.66,1.66,0,0,1-.924,1.728,1.719,1.719,0,0,1,.924,1.764v.66a2.227,2.227,0,0,1-.5,1.566A1.894,1.894,0,0,1,138.648.1a1.894,1.894,0,0,1-1.464-.546,2.227,2.227,0,0,1-.5-1.566V-2.94h1.248v1.008q0,.828.684.828a.624.624,0,0,0,.51-.21,1.181,1.181,0,0,0,.174-.738v-.66a1.3,1.3,0,0,0-.2-.822.811.811,0,0,0-.66-.246h-.324v-1.2h.4a.792.792,0,0,0,.594-.2A.964.964,0,0,0,139.3-5.868ZM143.448-8.4q1.968,0,1.968,2.076v1.092q0,2.076-1.968,2.076h-.624V0H141.5V-8.4Zm0,1.2h-.624v2.844h.624a.621.621,0,0,0,.486-.18.912.912,0,0,0,.162-.612v-1.26a.912.912,0,0,0-.162-.612A.621.621,0,0,0,143.448-7.2Zm5.04,3.348L147.384,0h-1.356V-8.4H147.2v5.316l.48-1.848,1.08-3.468h1.452V0h-1.188V-5.916Zm2.28-3.348V-8.4h4.08v1.2h-1.38V0h-1.32V-7.2Zm5.976,0v2.34h1.812v1.2h-1.812V-1.2h2.28V0h-3.6V-8.4h3.6v1.2ZM159.468.012v-1.2a.981.981,0,0,0,.642-.15,1.073,1.073,0,0,0,.174-.714L160.5-8.4h3.732V0h-1.344V-7.2h-1.152l-.144,5.076a2.56,2.56,0,0,1-.48,1.644,1.855,1.855,0,0,1-1.44.492ZM166.56-7.2v2.34h1.812v1.2H166.56V-1.2h2.28V0h-3.6V-8.4h3.6v1.2Zm3.1,7.2V-8.4h1.176v5.316l.48-1.848,1.08-3.468h1.452V0h-1.188V-5.916l-.54,2.064L171.012,0Zm2.712-10.272h.8a1.309,1.309,0,0,1-.36.978,1.428,1.428,0,0,1-1.044.354,1.361,1.361,0,0,1-1.014-.348,1.425,1.425,0,0,1-.366-.984h.816a.632.632,0,0,0,.156.438.613.613,0,0,0,.408.114.663.663,0,0,0,.432-.12A.6.6,0,0,0,172.368-10.272Z" transform="translate(-0.408 10.272)" fill="#242549"/></g></g><path d="M1.32,2.028V6.564q0,.828.684.828t.684-.828V2.028Q2.688,1.2,2,1.2T1.32,2.028ZM0,6.48V2.112A2.2,2.2,0,0,1,.516.552,1.938,1.938,0,0,1,2,0,1.938,1.938,0,0,1,3.492.552a2.2,2.2,0,0,1,.516,1.56V6.48a2.2,2.2,0,0,1-.516,1.56A1.938,1.938,0,0,1,2,8.592,1.938,1.938,0,0,1,.516,8.04,2.2,2.2,0,0,1,0,6.48Z" transform="translate(16.23 320.42) rotate(-45)" fill="#242549" opacity="0.665"/><path d="M1.32,2.028V6.564q0,.828.684.828t.684-.828V2.028Q2.688,1.2,2,1.2T1.32,2.028ZM0,6.48V2.112A2.2,2.2,0,0,1,.516.552,1.938,1.938,0,0,1,2,0,1.938,1.938,0,0,1,3.492.552a2.2,2.2,0,0,1,.516,1.56V6.48a2.2,2.2,0,0,1-.516,1.56A1.938,1.938,0,0,1,2,8.592,1.938,1.938,0,0,1,.516,8.04,2.2,2.2,0,0,1,0,6.48Zm4.86.744H6.132V8.5H4.86Zm2.172-1.44H8.28v.78q0,.816.684.816t.684-.816V4.716q0-.828-.684-.828t-.684.828v.252H7.032L7.272.1h3.48V1.3H8.46l-.108,2A1.253,1.253,0,0,1,9.5,2.688q1.464,0,1.464,1.92V6.48a2.227,2.227,0,0,1-.5,1.566A1.894,1.894,0,0,1,9,8.592a1.894,1.894,0,0,1-1.464-.546,2.227,2.227,0,0,1-.5-1.566ZM13.32,1.3V.1H17.4V1.3H16.02V8.5H14.7V1.3Zm6.6,7.2H17.976V.1H19.3V3.252h.624q1.968,0,1.968,2.076V6.42Q21.888,8.5,19.92,8.5ZM19.3,7.3h.624a.621.621,0,0,0,.486-.18.912.912,0,0,0,.162-.612V5.244a.912.912,0,0,0-.162-.612.621.621,0,0,0-.486-.18H19.3Zm4.668,1.2h-1.32V.1h1.32ZM27.5,5.364h1.248V6.48a2.227,2.227,0,0,1-.5,1.566,2.236,2.236,0,0,1-2.928,0,2.227,2.227,0,0,1-.5-1.566V2.112a2.227,2.227,0,0,1,.5-1.566,2.236,2.236,0,0,1,2.928,0,2.227,2.227,0,0,1,.5,1.566v.816H27.5v-.9q0-.828-.684-.828t-.684.828V6.564q0,.816.684.816t.684-.816Zm1.932-4.188,1.788.9L30.912.1h1.08l-.312,1.98,1.788-.9L33.8,2.2l-1.968.336,1.4,1.4-.864.636L31.452,2.8l-.924,1.776-.864-.636,1.4-1.4L29.1,2.2Z" transform="translate(51.934 337.566) rotate(-45)" fill="#242549" opacity="0.665"/><path d="M0,1.992V1.056A1.427,1.427,0,0,0,.972.792,1.969,1.969,0,0,0,1.452,0H2.34V8.4H1.02V1.992ZM7.62,0l.972,5.964L9.492,0h1.836V8.4H10.08V2.376L9.168,8.4H7.92L6.936,2.46V8.4H5.784V0Zm4.3,8.412v-1.2a.981.981,0,0,0,.642-.15,1.073,1.073,0,0,0,.174-.714L12.948,0H16.68V8.4H15.336V1.2H14.184L14.04,6.276a2.56,2.56,0,0,1-.48,1.644,1.855,1.855,0,0,1-1.44.492ZM19.008,4.8V8.4h-1.32V0h1.32V3.6h1.5V0h1.344V8.4H20.508V4.8Z" transform="translate(92.304 333.182) rotate(-45)" fill="#242549" opacity="0.665"/><path d="M0,1.992V1.056A1.427,1.427,0,0,0,.972.792,1.969,1.969,0,0,0,1.452,0H2.34V8.4H1.02V1.992ZM3.936,7.128H5.208V8.4H3.936Zm2.172-1.44H7.356v.78q0,.816.684.816t.684-.816V4.62q0-.828-.684-.828t-.684.828v.252H6.108L6.348,0h3.48V1.2H7.536l-.108,2A1.253,1.253,0,0,1,8.58,2.592q1.464,0,1.464,1.92V6.384a2.227,2.227,0,0,1-.5,1.566A1.894,1.894,0,0,1,8.076,8.5,1.894,1.894,0,0,1,6.612,7.95a2.227,2.227,0,0,1-.5-1.566ZM14.6,0l.972,5.964L16.476,0h1.836V8.4H17.064V2.376L16.152,8.4H14.9L13.92,2.46V8.4H12.768V0Zm4.3,8.412v-1.2a.981.981,0,0,0,.642-.15,1.073,1.073,0,0,0,.174-.714L19.932,0h3.732V8.4H22.32V1.2H21.168l-.144,5.076a2.56,2.56,0,0,1-.48,1.644,1.855,1.855,0,0,1-1.44.492ZM25.992,4.8V8.4h-1.32V0h1.32V3.6h1.5V0h1.344V8.4H27.492V4.8Z" transform="translate(123.215 338.12) rotate(-45)" fill="#242549" opacity="0.665"/><path d="M2.616,2.16a1.206,1.206,0,0,0-.174-.75.624.624,0,0,0-.51-.21q-.684,0-.684.828v.9H0V2.112A2.227,2.227,0,0,1,.5.546,1.894,1.894,0,0,1,1.968,0,1.894,1.894,0,0,1,3.432.546a2.227,2.227,0,0,1,.5,1.566A3.641,3.641,0,0,1,3.666,3.5a4.277,4.277,0,0,1-.66,1.128q-.39.468-.774.876a5.942,5.942,0,0,0-.654.822,1.451,1.451,0,0,0-.27.786.994.994,0,0,0,.012.18h2.5V8.5H0V7.464A2.892,2.892,0,0,1,.27,6.21a4.091,4.091,0,0,1,.654-1q.384-.426.768-.84A3.9,3.9,0,0,0,2.346,3.4,2.825,2.825,0,0,0,2.616,2.16ZM8.436.1,9.408,6.06,10.308.1h1.836V8.5H10.9V2.472L9.984,8.5H8.736l-.984-5.94V8.5H6.6V.1Zm4.3,8.412v-1.2a.981.981,0,0,0,.642-.15,1.073,1.073,0,0,0,.174-.714L13.764.1H17.5V8.5H16.152V1.3H15l-.144,5.076a2.56,2.56,0,0,1-.48,1.644,1.855,1.855,0,0,1-1.44.492ZM19.824,4.9V8.5H18.5V.1h1.32V3.7h1.5V.1h1.344V8.5H21.324V4.9Z" transform="translate(163.358 333.691) rotate(-45)" fill="#242549" opacity="0.665"/><path d="M2.616,2.16a1.206,1.206,0,0,0-.174-.75.624.624,0,0,0-.51-.21q-.684,0-.684.828v.9H0V2.112A2.227,2.227,0,0,1,.5.546,1.894,1.894,0,0,1,1.968,0,1.894,1.894,0,0,1,3.432.546a2.227,2.227,0,0,1,.5,1.566A3.641,3.641,0,0,1,3.666,3.5a4.277,4.277,0,0,1-.66,1.128q-.39.468-.774.876a5.942,5.942,0,0,0-.654.822,1.451,1.451,0,0,0-.27.786.994.994,0,0,0,.012.18h2.5V8.5H0V7.464A2.892,2.892,0,0,1,.27,6.21a4.091,4.091,0,0,1,.654-1q.384-.426.768-.84A3.9,3.9,0,0,0,2.346,3.4,2.825,2.825,0,0,0,2.616,2.16ZM4.752,7.224H6.024V8.5H4.752Zm2.172-1.44H8.172v.78q0,.816.684.816t.684-.816V4.716q0-.828-.684-.828t-.684.828v.252H6.924L7.164.1h3.48V1.3H8.352l-.108,2A1.253,1.253,0,0,1,9.4,2.688q1.464,0,1.464,1.92V6.48a2.227,2.227,0,0,1-.5,1.566,1.894,1.894,0,0,1-1.464.546,1.894,1.894,0,0,1-1.464-.546,2.227,2.227,0,0,1-.5-1.566ZM15.42.1l.972,5.964L17.292.1h1.836V8.5H17.88V2.472L16.968,8.5H15.72l-.984-5.94V8.5H13.584V.1Zm4.3,8.412v-1.2a.981.981,0,0,0,.642-.15,1.073,1.073,0,0,0,.174-.714L20.748.1H24.48V8.5H23.136V1.3H21.984L21.84,6.372a2.56,2.56,0,0,1-.48,1.644,1.855,1.855,0,0,1-1.44.492ZM26.808,4.9V8.5h-1.32V.1h1.32V3.7h1.5V.1h1.344V8.5H28.308V4.9Z" transform="translate(194.27 338.629) rotate(-45)" fill="#242549" opacity="0.665"/><path d="M2.616,2.628V2.16a1.206,1.206,0,0,0-.174-.75.624.624,0,0,0-.51-.21q-.684,0-.684.828v.54H0V2.112A2.227,2.227,0,0,1,.5.546,1.894,1.894,0,0,1,1.968,0,1.894,1.894,0,0,1,3.432.546a2.227,2.227,0,0,1,.5,1.566v.216a1.66,1.66,0,0,1-.924,1.728A1.719,1.719,0,0,1,3.936,5.82v.66a2.227,2.227,0,0,1-.5,1.566,1.894,1.894,0,0,1-1.464.546A1.894,1.894,0,0,1,.5,8.046,2.227,2.227,0,0,1,0,6.48v-.7H1.248v.78q0,.828.684.828a.624.624,0,0,0,.51-.21,1.181,1.181,0,0,0,.174-.738v-.66a1.3,1.3,0,0,0-.2-.822.811.811,0,0,0-.66-.246H1.308v-1.2h.516a.792.792,0,0,0,.594-.2A.964.964,0,0,0,2.616,2.628ZM8.508.1,9.48,6.06,10.38.1h1.836V8.5H10.968V2.472L10.056,8.5H8.808l-.984-5.94V8.5H6.672V.1Zm4.3,8.412v-1.2a.981.981,0,0,0,.642-.15,1.073,1.073,0,0,0,.174-.714L13.836.1h3.732V8.5H16.224V1.3H15.072l-.144,5.076a2.56,2.56,0,0,1-.48,1.644,1.855,1.855,0,0,1-1.44.492ZM19.9,4.9V8.5h-1.32V.1H19.9V3.7h1.5V.1H22.74V8.5H21.4V4.9Z" transform="translate(235.008 333.742) rotate(-45)" fill="#242549" opacity="0.665"/><path d="M0,6.876v-1.2L2.4,0H3.84V5.676h.624v1.2H3.84V8.4h-1.3V6.876Zm1.212-1.2H2.544V2.52ZM8.748,0,9.72,5.964,10.62,0h1.836V8.4H11.208V2.376L10.3,8.4H9.048L8.064,2.46V8.4H6.912V0Zm4.3,8.412v-1.2a.981.981,0,0,0,.642-.15,1.073,1.073,0,0,0,.174-.714L14.076,0h3.732V8.4H16.464V1.2H15.312l-.144,5.076a2.56,2.56,0,0,1-.48,1.644,1.855,1.855,0,0,1-1.44.492ZM20.136,4.8V8.4h-1.32V0h1.32V3.6h1.5V0H22.98V8.4H21.636V4.8Z" transform="translate(270.756 333.979) rotate(-45)" fill="#242549" opacity="0.665"/><path d="M0,5.688H1.248v.78q0,.816.684.816t.684-.816V4.62q0-.828-.684-.828t-.684.828v.252H0L.24,0H3.72V1.2H1.428l-.108,2a1.253,1.253,0,0,1,1.152-.612q1.464,0,1.464,1.92V6.384a2.227,2.227,0,0,1-.5,1.566A1.894,1.894,0,0,1,1.968,8.5,1.894,1.894,0,0,1,.5,7.95,2.227,2.227,0,0,1,0,6.384ZM8.5,0l.972,5.964L10.368,0H12.2V8.4H10.956V2.376L10.044,8.4H8.8L7.812,2.46V8.4H6.66V0Zm4.3,8.412v-1.2a.981.981,0,0,0,.642-.15,1.073,1.073,0,0,0,.174-.714L13.824,0h3.732V8.4H16.212V1.2H15.06l-.144,5.076a2.56,2.56,0,0,1-.48,1.644A1.855,1.855,0,0,1,13,8.412ZM19.884,4.8V8.4h-1.32V0h1.32V3.6h1.5V0h1.344V8.4H21.384V4.8Z" transform="translate(306.784 333.801) rotate(-45)" fill="#242549" opacity="0.665"/><path d="M0,6.48v-4.3Q0,0,2.016,0A1.894,1.894,0,0,1,3.48.546a2.227,2.227,0,0,1,.5,1.566v.216H2.736v-.3q0-.828-.684-.828a.66.66,0,0,0-.552.228,1.337,1.337,0,0,0-.18.8V3.768a1.241,1.241,0,0,1,1.224-.744q1.464,0,1.464,1.92V6.48a2.2,2.2,0,0,1-.516,1.56A1.938,1.938,0,0,1,2,8.592,1.938,1.938,0,0,1,.516,8.04,2.2,2.2,0,0,1,0,6.48ZM2.688,5.052q0-.828-.684-.828t-.684.828V6.564q0,.816.684.816t.684-.816ZM8.52.1,9.492,6.06,10.392.1h1.836V8.5H10.98V2.472L10.068,8.5H8.82l-.984-5.94V8.5H6.684V.1Zm4.3,8.412v-1.2a.981.981,0,0,0,.642-.15,1.073,1.073,0,0,0,.174-.714L13.848.1H17.58V8.5H16.236V1.3H15.084L14.94,6.372a2.56,2.56,0,0,1-.48,1.644,1.855,1.855,0,0,1-1.44.492ZM19.908,4.9V8.5h-1.32V.1h1.32V3.7h1.5V.1h1.344V8.5H21.408V4.9Z" transform="translate(342.549 333.75) rotate(-45)" fill="#242549" opacity="0.665"/><path d="M2.616,2.16a3.532,3.532,0,0,1-1.3,2.628A3.635,3.635,0,0,0,0,7.464V8.5H3.816V7.3H1.32a.908.908,0,0,1-.012-.18c0-.444.216-.84,1-1.68A4.611,4.611,0,0,0,3.936,2.112C3.936.768,3.264,0,1.968,0S0,.768,0,2.112v.816H1.248v-.9c0-.6.264-.828.684-.828S2.616,1.4,2.616,2.16Zm3.348-.132c0-.6.264-.828.684-.828s.684.228.684.828V6.564c0,.6-.264.828-.684.828s-.684-.228-.684-.828ZM4.644,6.48a1.864,1.864,0,0,0,2,2.112,1.864,1.864,0,0,0,2-2.112V2.112A1.864,1.864,0,0,0,6.648,0a1.864,1.864,0,0,0-2,2.112Zm6.072-4.452c0-.6.264-.828.684-.828s.684.228.684.828V6.564c0,.6-.264.828-.684.828s-.684-.228-.684-.828ZM9.4,6.48a1.864,1.864,0,0,0,2,2.112,1.864,1.864,0,0,0,2-2.112V2.112A1.864,1.864,0,0,0,11.4,0a1.864,1.864,0,0,0-2,2.112Zm5.628-5.16c0-.372.156-.528.432-.528s.432.156.432.528V4.2c0,.372-.168.528-.432.528s-.432-.156-.432-.528Zm-.84,2.82a1.179,1.179,0,0,0,1.272,1.344A1.179,1.179,0,0,0,16.728,4.14V1.38A1.179,1.179,0,0,0,15.456.036,1.179,1.179,0,0,0,14.184,1.38ZM15.456,8.5h.78L19.548.1h-.78Zm3.732-4.1c0-.372.156-.528.432-.528s.432.156.432.528v2.88c0,.372-.168.528-.432.528s-.432-.156-.432-.528Zm-.84,2.82A1.179,1.179,0,0,0,19.62,8.556a1.179,1.179,0,0,0,1.272-1.344V4.452A1.179,1.179,0,0,0,19.62,3.108a1.179,1.179,0,0,0-1.272,1.344Z" transform="translate(5.266 114.644) rotate(-45)" fill="#242549" opacity="0.665"/><path d="M0,2.088H1.02V8.5H2.34V.1H1.452A1.308,1.308,0,0,1,0,1.152Zm3.876,3.7v.7c0,1.344.672,2.112,1.968,2.112S7.812,7.824,7.812,6.48V4.608c0-1.236-.492-1.92-1.464-1.92a1.24,1.24,0,0,0-1.14.612H5.184l.108-2H7.6V.1H4.116l-.24,4.872H5.124V4.716c0-.6.264-.828.684-.828s.684.228.684.828V6.564c0,.6-.264.816-.684.816s-.684-.216-.684-.816v-.78ZM9.9,2.028c0-.6.264-.828.684-.828s.684.228.684.828V6.564c0,.6-.264.828-.684.828S9.9,7.164,9.9,6.564ZM8.58,6.48a1.864,1.864,0,0,0,2,2.112,1.864,1.864,0,0,0,2-2.112V2.112a1.864,1.864,0,0,0-2-2.112,1.864,1.864,0,0,0-2,2.112Zm5.628-5.16c0-.372.156-.528.432-.528s.432.156.432.528V4.2c0,.372-.168.528-.432.528s-.432-.156-.432-.528Zm-.84,2.82A1.179,1.179,0,0,0,14.64,5.484,1.179,1.179,0,0,0,15.912,4.14V1.38A1.179,1.179,0,0,0,14.64.036,1.179,1.179,0,0,0,13.368,1.38ZM14.64,8.5h.78L18.732.1h-.78Zm3.732-4.1c0-.372.156-.528.432-.528s.432.156.432.528v2.88c0,.372-.168.528-.432.528s-.432-.156-.432-.528Zm-.84,2.82A1.179,1.179,0,0,0,18.8,8.556a1.179,1.179,0,0,0,1.272-1.344V4.452A1.179,1.179,0,0,0,18.8,3.108a1.179,1.179,0,0,0-1.272,1.344Z" transform="translate(5.843 164.002) rotate(-45)" fill="#242549" opacity="0.665"/><path d="M0,2.088H1.02V8.5H2.34V.1H1.452A1.308,1.308,0,0,1,0,1.152Zm5.148-.06c0-.6.264-.828.684-.828s.684.228.684.828V6.564c0,.6-.264.828-.684.828s-.684-.228-.684-.828ZM3.828,6.48a1.864,1.864,0,0,0,2,2.112,1.864,1.864,0,0,0,2-2.112V2.112A1.864,1.864,0,0,0,5.832,0a1.864,1.864,0,0,0-2,2.112ZM9.9,2.028c0-.6.264-.828.684-.828s.684.228.684.828V6.564c0,.6-.264.828-.684.828S9.9,7.164,9.9,6.564ZM8.58,6.48a1.864,1.864,0,0,0,2,2.112,1.864,1.864,0,0,0,2-2.112V2.112a1.864,1.864,0,0,0-2-2.112,1.864,1.864,0,0,0-2,2.112Zm5.628-5.16c0-.372.156-.528.432-.528s.432.156.432.528V4.2c0,.372-.168.528-.432.528s-.432-.156-.432-.528Zm-.84,2.82A1.179,1.179,0,0,0,14.64,5.484,1.179,1.179,0,0,0,15.912,4.14V1.38A1.179,1.179,0,0,0,14.64.036,1.179,1.179,0,0,0,13.368,1.38ZM14.64,8.5h.78L18.732.1h-.78Zm3.732-4.1c0-.372.156-.528.432-.528s.432.156.432.528v2.88c0,.372-.168.528-.432.528s-.432-.156-.432-.528Zm-.84,2.82A1.179,1.179,0,0,0,18.8,8.556a1.179,1.179,0,0,0,1.272-1.344V4.452A1.179,1.179,0,0,0,18.8,3.108a1.179,1.179,0,0,0-1.272,1.344Z" transform="translate(5.843 213.937) rotate(-45)" fill="#242549" opacity="0.665"/><path d="M0,5.784v.7C0,7.824.672,8.592,1.968,8.592S3.936,7.824,3.936,6.48V4.608c0-1.236-.492-1.92-1.464-1.92a1.24,1.24,0,0,0-1.14.612H1.308l.108-2h2.3V.1H.24L0,4.968H1.248V4.716c0-.6.264-.828.684-.828s.684.228.684.828V6.564c0,.6-.264.816-.684.816s-.684-.216-.684-.816v-.78ZM6.024,2.028c0-.6.264-.828.684-.828s.684.228.684.828V6.564c0,.6-.264.828-.684.828s-.684-.228-.684-.828ZM4.7,6.48a1.864,1.864,0,0,0,2,2.112,1.864,1.864,0,0,0,2-2.112V2.112A1.864,1.864,0,0,0,6.708,0a1.864,1.864,0,0,0-2,2.112Zm5.628-5.16c0-.372.156-.528.432-.528s.432.156.432.528V4.2c0,.372-.168.528-.432.528s-.432-.156-.432-.528Zm-.84,2.82a1.179,1.179,0,0,0,1.272,1.344A1.179,1.179,0,0,0,12.036,4.14V1.38A1.179,1.179,0,0,0,10.764.036,1.179,1.179,0,0,0,9.492,1.38ZM10.764,8.5h.78L14.856.1h-.78Zm3.732-4.1c0-.372.156-.528.432-.528s.432.156.432.528v2.88c0,.372-.168.528-.432.528s-.432-.156-.432-.528Zm-.84,2.82a1.179,1.179,0,0,0,1.272,1.344A1.179,1.179,0,0,0,16.2,7.212V4.452a1.179,1.179,0,0,0-1.272-1.344,1.179,1.179,0,0,0-1.272,1.344Z" transform="translate(8.583 261.131) rotate(-45)" fill="#242549" opacity="0.665"/><path d="M63.7,445.82c35.9-14.8,36.154-15.858,36.154-15.858l35.767-20.1,36.173-21.709,35.367-14.845,34.328-14.184,37.535-19.073,35.768-19.942,43.277-23.591" transform="translate(4.149 -149.045)" fill="none" stroke="#1bad1b" stroke-miterlimit="10" stroke-width="4"/><path d="M241.363,459.379l-34.057-13.886s-36.019-14.874-35.986-15.039-35.592-20.715-35.592-20.715c-.194-.086-36.184-20.767-36.184-20.767L64.017,374.462,28.65,359.079" transform="translate(4.149 -149.045)" fill="none" stroke="#c2b8f3" stroke-miterlimit="10" stroke-width="4"/><circle cx="4" cy="4" r="4" transform="translate(99.982 236.392)" fill="#242549"/><circle cx="4" cy="4" r="4" transform="translate(99.982 276.27)" fill="#242549"/><circle cx="4" cy="4" r="4" transform="translate(135.832 256.436)" fill="#242549"/><circle cx="4" cy="4" r="4" transform="translate(171.832 277.353)" fill="#242549"/><circle cx="4" cy="4" r="4" transform="translate(207.5 292.77)" fill="#242549"/><circle cx="4" cy="4" r="4" transform="translate(241.5 306.27)" fill="#242549"/><circle cx="4" cy="4" r="4" transform="translate(171.682 235.469)" fill="#242549"/><circle cx="4" cy="4" r="4" transform="translate(241.532 205.73)" fill="#242549"/><circle cx="4" cy="4" r="4" transform="translate(207.382 220.508)" fill="#242549"/><circle cx="4" cy="4" r="4" transform="translate(279.232 186.558)" fill="#242549"/><circle cx="4" cy="4" r="4" transform="translate(315.082 166.77)" fill="#242549"/><circle cx="4" cy="4" r="4" transform="translate(350.931 147.402)" fill="#242549"/><circle cx="4" cy="4" r="4" transform="translate(64.132 221.696)" fill="#242549"/><circle cx="4" cy="4" r="4" transform="translate(64.132 292.696)" fill="#242549"/><path d="M-128.158-10.613h1.437v1.285a2.563,2.563,0,0,1-.58,1.8,2.18,2.18,0,0,1-1.685.628,2.18,2.18,0,0,1-1.685-.628,2.563,2.563,0,0,1-.58-1.8v-5.028a2.563,2.563,0,0,1,.58-1.8,2.18,2.18,0,0,1,1.685-.628,2.18,2.18,0,0,1,1.685.628,2.563,2.563,0,0,1,.58,1.8v.939h-1.437v-1.036q0-.953-.787-.953t-.787.953v5.221q0,.939.787.939t.787-.939Zm1.92-4.683v-1.381h4.7V-15.3h-1.588v8.288h-1.519V-15.3Zm8.73-1.381,1.547,9.669h-1.533l-.262-1.754h-1.865l-.262,1.754h-1.4l1.547-9.669Zm-1.188,1.713-.732,4.89h1.464Zm5.677-1.713q2.265,0,2.265,2.39v1.257q0,2.39-2.265,2.39h-.718v3.633h-1.519v-9.669Zm0,1.381h-.718v3.274h.718a.715.715,0,0,0,.559-.207,1.05,1.05,0,0,0,.186-.7v-1.45a1.05,1.05,0,0,0-.186-.7A.715.715,0,0,0-113.019-15.3Zm2.528,0v-1.381h4.7V-15.3h-1.588v8.288H-108.9V-15.3Zm6.754.843v5.221q0,.953.787.953t.787-.953v-5.221q0-.953-.787-.953T-103.737-14.453Zm-1.519,5.125v-5.028a2.53,2.53,0,0,1,.594-1.8,2.231,2.231,0,0,1,1.713-.635,2.231,2.231,0,0,1,1.713.635,2.53,2.53,0,0,1,.594,1.8v5.028a2.53,2.53,0,0,1-.594,1.8,2.231,2.231,0,0,1-1.713.635,2.231,2.231,0,0,1-1.713-.635A2.53,2.53,0,0,1-105.256-9.329Zm7.887-7.348a2.325,2.325,0,0,1,1.713.546,2.3,2.3,0,0,1,.539,1.678v.345A1.922,1.922,0,0,1-96.1-12.16a1.962,1.962,0,0,1,1.133,2.072V-9.3A2.311,2.311,0,0,1-95.553-7.6a2.331,2.331,0,0,1-1.72.587h-2.39v-9.669Zm-.1,5.318h-.677v2.97h.87a.761.761,0,0,0,.594-.214,1.1,1.1,0,0,0,.193-.739v-.843a1.4,1.4,0,0,0-.228-.919A.965.965,0,0,0-97.466-11.359Zm.055-3.937h-.732v2.555h.594a.912.912,0,0,0,.684-.235,1.11,1.11,0,0,0,.228-.787V-14.3Q-96.637-15.3-97.411-15.3Zm5.594,8.288h-2.238v-9.669h1.519v3.633h.718q2.265,0,2.265,2.39V-9.4Q-89.551-7.008-91.816-7.008Zm-.718-1.381h.718a.715.715,0,0,0,.559-.207,1.05,1.05,0,0,0,.186-.7v-1.45a1.05,1.05,0,0,0-.186-.7.715.715,0,0,0-.559-.207h-.718Zm5.373,1.381h-1.519v-9.669h1.519Zm1.105,0v-9.669H-84.7v6.119l.553-2.127,1.243-3.992h1.671v9.669H-82.6v-6.81l-.622,2.376L-84.5-7.008Zm3.122-11.824h.925a1.507,1.507,0,0,1-.414,1.126,1.644,1.644,0,0,1-1.2.407,1.567,1.567,0,0,1-1.167-.4,1.641,1.641,0,0,1-.421-1.133h.939a.727.727,0,0,0,.18.5.706.706,0,0,0,.47.131.763.763,0,0,0,.5-.138A.694.694,0,0,0-82.935-18.832Zm4.5,3.536v-1.381h4.7V-15.3h-1.588v8.288h-1.519V-15.3Zm8.73-1.381,1.547,9.669h-1.533l-.262-1.754h-1.865l-.262,1.754h-1.4l1.547-9.669Zm-1.188,1.713-.732,4.89h1.464Zm5.677-1.713q2.265,0,2.265,2.39v1.257q0,2.39-2.265,2.39h-.718v3.633h-1.519v-9.669Zm0,1.381h-.718v3.274h.718a.715.715,0,0,0,.559-.207,1.05,1.05,0,0,0,.186-.7v-1.45a1.05,1.05,0,0,0-.186-.7A.715.715,0,0,0-65.213-15.3Zm5.8,3.854-1.271,4.434h-1.561v-9.669h1.354v6.119l.553-2.127,1.243-3.992h1.671v9.669H-58.79v-6.81Zm5.774,4.434V-8.1H-54.2q-2.265,0-2.265-2.39v-2.638q0-2.39,2.265-2.39h.566v-1.16h1.492v1.16h.566q2.265,0,2.265,2.39v2.638q0,2.39-2.265,2.39h-.566v1.091Zm2.058-7.169h-.566v4.752h.566q.76,0,.76-.967v-2.832Q-50.82-14.177-51.58-14.177Zm-2.058,4.752v-4.752H-54.2q-.76,0-.76.953v2.832q0,.967.76.967Z" transform="translate(402.498 221.628)" fill="#a6a4a6"/><path d="M91.059,500.686l-54.424.052-5.773,10,5.773,10,54.424-.052,5.773-10Z" transform="translate(4.149 -149.045)" fill="#242549"/><path d="M163.067,500.718l-54.462-.032-5.773,10,5.773,10,54.462.032,5.773-10Z" transform="translate(4.149 -149.045)" fill="#242549"/><path d="M235.009,500.686l-54.35-.007-5.773,10,5.773,10,54.35.007,5.773-10Z" transform="translate(4.149 -149.045)" fill="#242549"/><path d="M275.078,500.679H180.659l-5.773,10,5.773,10h94.419l5.773-10Z" transform="translate(74.149 -149.045)" fill="#242549"/><path d="M-2.6-1.98H-3.637V0H-5.408V-1.98H-9.052V-3.561l3.383-5.586h2.031V-3.4H-2.6ZM-5.408-3.4V-7.37L-7.712-3.4ZM.5-5.789a.973.973,0,0,0,.714-.3A.973.973,0,0,0,1.5-6.8a.973.973,0,0,0-.3-.714.973.973,0,0,0-.714-.3.973.973,0,0,0-.714.3.973.973,0,0,0-.3.714.973.973,0,0,0,.3.714A.973.973,0,0,0,.5-5.789ZM2.856-6.8a2.28,2.28,0,0,1-.689,1.669A2.272,2.272,0,0,1,.5-4.437a2.275,2.275,0,0,1-1.669-.692A2.275,2.275,0,0,1-1.866-6.8a2.275,2.275,0,0,1,.692-1.669A2.275,2.275,0,0,1,.5-9.16a2.275,2.275,0,0,1,1.669.692A2.275,2.275,0,0,1,2.856-6.8ZM7.674-2.177a.973.973,0,0,0-.3-.714.973.973,0,0,0-.714-.3.973.973,0,0,0-.714.3.973.973,0,0,0-.3.714.973.973,0,0,0,.3.714.973.973,0,0,0,.714.3.973.973,0,0,0,.714-.3A.973.973,0,0,0,7.674-2.177Zm1.352,0A2.275,2.275,0,0,1,8.334-.508,2.275,2.275,0,0,1,6.665.184,2.275,2.275,0,0,1,5-.508,2.275,2.275,0,0,1,4.3-2.177,2.272,2.272,0,0,1,5-3.85a2.28,2.28,0,0,1,1.669-.689,2.275,2.275,0,0,1,1.669.692A2.275,2.275,0,0,1,9.026-2.177ZM5.656-9.2h.965L1.492.241H.508Z" transform="translate(139.807 366.6)" fill="#fff9ea"/><path d="M28.748,543.728H39.225l2.113,6.543-2.113,6.641H28.748l-1.99-6.361Z" transform="translate(3.242 -135.958)" fill="#242549"/><g transform="translate(1)"><path d="M.5-5.789a.973.973,0,0,0,.714-.3A.973.973,0,0,0,1.5-6.8a.973.973,0,0,0-.3-.714.973.973,0,0,0-.714-.3.973.973,0,0,0-.714.3.973.973,0,0,0-.3.714.973.973,0,0,0,.3.714A.973.973,0,0,0,.5-5.789ZM2.856-6.8a2.28,2.28,0,0,1-.689,1.669A2.272,2.272,0,0,1,.5-4.437a2.275,2.275,0,0,1-1.669-.692A2.275,2.275,0,0,1-1.866-6.8a2.275,2.275,0,0,1,.692-1.669A2.275,2.275,0,0,1,.5-9.16a2.275,2.275,0,0,1,1.669.692A2.275,2.275,0,0,1,2.856-6.8ZM7.674-2.177a.973.973,0,0,0-.3-.714.973.973,0,0,0-.714-.3.973.973,0,0,0-.714.3.973.973,0,0,0-.3.714.973.973,0,0,0,.3.714.973.973,0,0,0,.714.3.973.973,0,0,0,.714-.3A.973.973,0,0,0,7.674-2.177Zm1.352,0A2.275,2.275,0,0,1,8.334-.508,2.275,2.275,0,0,1,6.665.184,2.275,2.275,0,0,1,5-.508,2.275,2.275,0,0,1,4.3-2.177,2.272,2.272,0,0,1,5-3.85a2.28,2.28,0,0,1,1.669-.689,2.275,2.275,0,0,1,1.669.692A2.275,2.275,0,0,1,9.026-2.177ZM5.656-9.2h.965L1.492.241H.508Z" transform="translate(65.689 366.64)" fill="#fff9ea"/><path d="M2.85-5.213v1.25q.325,0,.681.019a2.067,2.067,0,0,1,.656.137,1.111,1.111,0,0,1,.494.381,1.271,1.271,0,0,1,.194.763,1.281,1.281,0,0,1-.412,1.006,1.464,1.464,0,0,1-1.013.369,1.508,1.508,0,0,1-.669-.137,1.367,1.367,0,0,1-.469-.369,1.644,1.644,0,0,1-.287-.55,2.525,2.525,0,0,1-.113-.669H.225a3.507,3.507,0,0,0,.219,1.35A2.743,2.743,0,0,0,1.1-.669,2.819,2.819,0,0,0,2.131-.05,4.04,4.04,0,0,0,3.475.163,4,4,0,0,0,4.7-.025a3.174,3.174,0,0,0,1.037-.55,2.675,2.675,0,0,0,.719-.9A2.7,2.7,0,0,0,6.725-2.7a2.053,2.053,0,0,0-.412-1.288,1.905,1.905,0,0,0-1.137-.7v-.025a1.536,1.536,0,0,0,.919-.662A2.07,2.07,0,0,0,6.4-6.5a2.021,2.021,0,0,0-.263-1.037A2.538,2.538,0,0,0,5.456-8.3a2.989,2.989,0,0,0-.944-.469,3.665,3.665,0,0,0-1.05-.156,3.288,3.288,0,0,0-1.225.219,2.713,2.713,0,0,0-.944.619,2.812,2.812,0,0,0-.613.956A3.719,3.719,0,0,0,.438-5.9H2.125a1.718,1.718,0,0,1,.331-1.119,1.209,1.209,0,0,1,1.019-.444,1.342,1.342,0,0,1,.863.3,1.04,1.04,0,0,1,.375.863.928.928,0,0,1-.181.6,1.164,1.164,0,0,1-.462.344,1.928,1.928,0,0,1-.606.144A3.754,3.754,0,0,1,2.85-5.213Z" transform="translate(56 366.52)" fill="#fff9eb"/></g><path d="M.5-5.789a.973.973,0,0,0,.714-.3A.973.973,0,0,0,1.5-6.8a.973.973,0,0,0-.3-.714.973.973,0,0,0-.714-.3.973.973,0,0,0-.714.3.973.973,0,0,0-.3.714.973.973,0,0,0,.3.714A.973.973,0,0,0,.5-5.789ZM2.856-6.8a2.28,2.28,0,0,1-.689,1.669A2.272,2.272,0,0,1,.5-4.437a2.275,2.275,0,0,1-1.669-.692A2.275,2.275,0,0,1-1.866-6.8a2.275,2.275,0,0,1,.692-1.669A2.275,2.275,0,0,1,.5-9.16a2.275,2.275,0,0,1,1.669.692A2.275,2.275,0,0,1,2.856-6.8ZM7.674-2.177a.973.973,0,0,0-.3-.714.973.973,0,0,0-.714-.3.973.973,0,0,0-.714.3.973.973,0,0,0-.3.714.973.973,0,0,0,.3.714.973.973,0,0,0,.714.3.973.973,0,0,0,.714-.3A.973.973,0,0,0,7.674-2.177Zm1.352,0A2.275,2.275,0,0,1,8.334-.508,2.275,2.275,0,0,1,6.665.184,2.275,2.275,0,0,1,5-.508,2.275,2.275,0,0,1,4.3-2.177,2.272,2.272,0,0,1,5-3.85a2.28,2.28,0,0,1,1.669-.689,2.275,2.275,0,0,1,1.669.692A2.275,2.275,0,0,1,9.026-2.177ZM5.656-9.2h.965L1.492.241H.508Z" transform="translate(212.689 366.64)" fill="#fff9ea"/><path d="M.5-5.789a.973.973,0,0,0,.714-.3A.973.973,0,0,0,1.5-6.8a.973.973,0,0,0-.3-.714.973.973,0,0,0-.714-.3.973.973,0,0,0-.714.3.973.973,0,0,0-.3.714.973.973,0,0,0,.3.714A.973.973,0,0,0,.5-5.789ZM2.856-6.8a2.28,2.28,0,0,1-.689,1.669A2.272,2.272,0,0,1,.5-4.437a2.275,2.275,0,0,1-1.669-.692A2.275,2.275,0,0,1-1.866-6.8a2.275,2.275,0,0,1,.692-1.669A2.275,2.275,0,0,1,.5-9.16a2.275,2.275,0,0,1,1.669.692A2.275,2.275,0,0,1,2.856-6.8ZM7.674-2.177a.973.973,0,0,0-.3-.714.973.973,0,0,0-.714-.3.973.973,0,0,0-.714.3.973.973,0,0,0-.3.714.973.973,0,0,0,.3.714.973.973,0,0,0,.714.3.973.973,0,0,0,.714-.3A.973.973,0,0,0,7.674-2.177Zm1.352,0A2.275,2.275,0,0,1,8.334-.508,2.275,2.275,0,0,1,6.665.184,2.275,2.275,0,0,1,5-.508,2.275,2.275,0,0,1,4.3-2.177,2.272,2.272,0,0,1,5-3.85a2.28,2.28,0,0,1,1.669-.689,2.275,2.275,0,0,1,1.669.692A2.275,2.275,0,0,1,9.026-2.177ZM5.656-9.2h.965L1.492.241H.508Z" transform="translate(302.689 366.64)" fill="#fff9ea"/><path d="M2.85-5.213v1.25q.325,0,.681.019a2.067,2.067,0,0,1,.656.137,1.111,1.111,0,0,1,.494.381,1.271,1.271,0,0,1,.194.763,1.281,1.281,0,0,1-.412,1.006,1.464,1.464,0,0,1-1.013.369,1.508,1.508,0,0,1-.669-.137,1.367,1.367,0,0,1-.469-.369,1.644,1.644,0,0,1-.287-.55,2.525,2.525,0,0,1-.113-.669H.225a3.507,3.507,0,0,0,.219,1.35A2.743,2.743,0,0,0,1.1-.669,2.819,2.819,0,0,0,2.131-.05,4.04,4.04,0,0,0,3.475.163,4,4,0,0,0,4.7-.025a3.174,3.174,0,0,0,1.037-.55,2.675,2.675,0,0,0,.719-.9A2.7,2.7,0,0,0,6.725-2.7a2.053,2.053,0,0,0-.412-1.288,1.905,1.905,0,0,0-1.137-.7v-.025a1.536,1.536,0,0,0,.919-.662A2.07,2.07,0,0,0,6.4-6.5a2.021,2.021,0,0,0-.263-1.037A2.538,2.538,0,0,0,5.456-8.3a2.989,2.989,0,0,0-.944-.469,3.665,3.665,0,0,0-1.05-.156,3.288,3.288,0,0,0-1.225.219,2.713,2.713,0,0,0-.944.619,2.812,2.812,0,0,0-.613.956A3.719,3.719,0,0,0,.438-5.9H2.125a1.718,1.718,0,0,1,.331-1.119,1.209,1.209,0,0,1,1.019-.444,1.342,1.342,0,0,1,.863.3,1.04,1.04,0,0,1,.375.863.928.928,0,0,1-.181.6,1.164,1.164,0,0,1-.462.344,1.928,1.928,0,0,1-.606.144A3.754,3.754,0,0,1,2.85-5.213Z" transform="translate(203 366.52)" fill="#fff9eb"/><g transform="translate(-178.978 -256.23)"><path d="M.382.436A4.053,4.053,0,0,1,.813-1.32,5.05,5.05,0,0,1,2.666-3.212a13.5,13.5,0,0,0,1.64-1.244,1.8,1.8,0,0,0,.572-1.281A1.382,1.382,0,0,0,4.55-6.68a1.18,1.18,0,0,0-.939-.376,1.156,1.156,0,0,0-1.138.6,2.855,2.855,0,0,0-.206,1.1H.485A4.166,4.166,0,0,1,.916-7.2a2.711,2.711,0,0,1,2.6-1.337,3.392,3.392,0,0,1,2.354.786A2.659,2.659,0,0,1,6.75-5.676a2.739,2.739,0,0,1-.617,1.762A6.067,6.067,0,0,1,4.8-2.774l-.733.5q-.688.468-.942.678a2.01,2.01,0,0,0-.428.487H6.769V.436Z" transform="translate(471.867 622.448)" fill="#fff9ea"/></g></g><path d="M.36-7.32l1.788.9L1.836-8.4h1.08L2.6-6.42l1.788-.9L4.728-6.3,2.76-5.964l1.4,1.4L3.3-3.924,2.376-5.7,1.452-3.924.588-4.56l1.4-1.4L.024-6.3ZM7.776-5.868v-.468a1.206,1.206,0,0,0-.174-.75.624.624,0,0,0-.51-.21q-.7,0-.7.828v.684H5.184v-.624a2.216,2.216,0,0,1,.492-1.554A1.877,1.877,0,0,1,7.128-8.5a1.894,1.894,0,0,1,1.464.546,2.227,2.227,0,0,1,.5,1.566v.216A1.66,1.66,0,0,1,8.172-4.44,1.719,1.719,0,0,1,9.1-2.676v.66a2.227,2.227,0,0,1-.5,1.566A1.894,1.894,0,0,1,7.128.1,1.894,1.894,0,0,1,5.664-.45a2.227,2.227,0,0,1-.5-1.566V-2.94H6.408v1.008q0,.828.684.828a.624.624,0,0,0,.51-.21,1.181,1.181,0,0,0,.174-.738v-.66a1.3,1.3,0,0,0-.2-.822.811.811,0,0,0-.66-.246H6.588v-1.2h.4a.792.792,0,0,0,.594-.2A.964.964,0,0,0,7.776-5.868ZM11.928-8.4Q13.9-8.4,13.9-6.324v1.092q0,2.076-1.968,2.076H11.3V0H9.984V-8.4Zm0,1.2H11.3v2.844h.624a.621.621,0,0,0,.486-.18.912.912,0,0,0,.162-.612v-1.26a.912.912,0,0,0-.162-.612A.621.621,0,0,0,11.928-7.2Zm5.04,3.348L15.864,0H14.508V-8.4h1.176v5.316l.48-1.848L17.244-8.4H18.7V0H17.508V-5.916ZM19.248-7.2V-8.4h4.08v1.2h-1.38V0h-1.32V-7.2Zm5.976,0v2.34h1.812v1.2H25.224V-1.2H27.5V0H23.9V-8.4h3.6v1.2ZM27.948.012v-1.2a.981.981,0,0,0,.642-.15,1.073,1.073,0,0,0,.174-.714L28.98-8.4h3.732V0H31.368V-7.2H30.216l-.144,5.076a2.56,2.56,0,0,1-.48,1.644,1.855,1.855,0,0,1-1.44.492ZM36.18-3.852,35.076,0H33.72V-8.4H34.9v5.316l.48-1.848L36.456-8.4h1.452V0H36.72V-5.916ZM42.7-8.4a2.02,2.02,0,0,1,1.488.474,2,2,0,0,1,.468,1.458v.3A1.669,1.669,0,0,1,43.8-4.476a1.7,1.7,0,0,1,.984,1.8v.684a2.007,2.007,0,0,1-.51,1.482A2.025,2.025,0,0,1,42.78,0H40.7V-8.4Zm-.084,4.62h-.588V-1.2h.756a.661.661,0,0,0,.516-.186.958.958,0,0,0,.168-.642V-2.76a1.216,1.216,0,0,0-.2-.8A.839.839,0,0,0,42.612-3.78ZM42.66-7.2h-.636v2.22h.516a.792.792,0,0,0,.594-.2.964.964,0,0,0,.2-.684v-.468Q43.332-7.2,42.66-7.2ZM50.448,0,49.164-3.348l-.408.768V0h-1.32V-8.4h1.32v3.66L50.484-8.4H51.8L49.968-4.656,51.8,0Zm4.416-3.852L53.76,0H52.4V-8.4H53.58v5.316l.48-1.848L55.14-8.4h1.452V0H55.4V-5.916Zm3.984.252V0h-1.32V-8.4h1.32v3.6h1.5V-8.4h1.344V0H60.348V-3.6Zm5.016-2.868v4.536q0,.828.684.828t.684-.828V-6.468q0-.828-.684-.828T63.864-6.468Zm-1.32,4.452V-6.384a2.2,2.2,0,0,1,.516-1.56A1.938,1.938,0,0,1,64.548-8.5a1.938,1.938,0,0,1,1.488.552,2.2,2.2,0,0,1,.516,1.56v4.368a2.2,2.2,0,0,1-.516,1.56A1.938,1.938,0,0,1,64.548.1,1.938,1.938,0,0,1,63.06-.456,2.2,2.2,0,0,1,62.544-2.016ZM67.02-7.2V-8.4H71.1v1.2H69.72V0H68.4V-7.2ZM73-7.2v2.34h1.812v1.2H73V-1.2h2.28V0h-3.6V-8.4h3.6v1.2ZM79.02-8.4,80.364,0H79.032L78.8-1.524h-1.62L76.956,0H75.744l1.344-8.4ZM77.988-6.912l-.636,4.248h1.272Zm2.6-.288V-8.4h4.08v1.2h-1.38V0h-1.32V-7.2Zm6.6-1.2q1.968,0,1.968,2.076v1.092q0,2.076-1.968,2.076h-.624V0h-1.32V-8.4Zm0,1.2h-.624v2.844h.624a.621.621,0,0,0,.486-.18.912.912,0,0,0,.162-.612v-1.26a.912.912,0,0,0-.162-.612A.621.621,0,0,0,87.192-7.2Zm3.9,0v2.34H92.9v1.2H91.092V-1.2h2.28V0h-3.6V-8.4h3.6v1.2Z" transform="translate(30.697 545.449)" fill="#242549" opacity="0.5"/><path d="M2.3-8.4l.972,5.964.9-5.964H6.012V0H4.764V-6.024L3.852,0H2.6L1.62-5.94V0H.468V-8.4Zm7.476,0L11.124,0H9.792L9.564-1.524H7.944L7.716,0H6.5L7.848-8.4ZM8.748-6.912,8.112-2.664H9.384Zm2.5,6.924v-1.2a.981.981,0,0,0,.642-.15,1.073,1.073,0,0,0,.174-.714L12.276-8.4h3.732V0H14.664V-7.2H13.512l-.144,5.076a2.56,2.56,0,0,1-.48,1.644,1.855,1.855,0,0,1-1.44.492Zm6.864-6.48v4.536q0,.828.684.828t.684-.828V-6.468q0-.828-.684-.828T18.108-6.468Zm-1.32,4.452V-6.384a2.2,2.2,0,0,1,.516-1.56A1.938,1.938,0,0,1,18.792-8.5a1.938,1.938,0,0,1,1.488.552,2.2,2.2,0,0,1,.516,1.56v4.368a2.2,2.2,0,0,1-.516,1.56A1.938,1.938,0,0,1,18.792.1,1.938,1.938,0,0,1,17.3-.456,2.2,2.2,0,0,1,16.788-2.016ZM23.52-8.4a2.02,2.02,0,0,1,1.488.474,2,2,0,0,1,.468,1.458v.3a1.669,1.669,0,0,1-.852,1.692,1.7,1.7,0,0,1,.984,1.8v.684A2.007,2.007,0,0,1,25.1-.51,2.025,2.025,0,0,1,23.6,0H21.528V-8.4Zm-.084,4.62h-.588V-1.2H23.6a.661.661,0,0,0,.516-.186.958.958,0,0,0,.168-.642V-2.76a1.216,1.216,0,0,0-.2-.8A.839.839,0,0,0,23.436-3.78Zm.048-3.42h-.636v2.22h.516a.792.792,0,0,0,.594-.2.964.964,0,0,0,.2-.684v-.468Q24.156-7.2,23.484-7.2Zm4.116,0v2.34h1.812v1.2H27.6V-1.2h2.28V0h-3.6V-8.4h3.6v1.2Zm4.92-1.2q1.968,0,1.968,2.076v1.092q0,2.076-1.968,2.076H31.9V0h-1.32V-8.4Zm0,1.2H31.9v2.844h.624a.621.621,0,0,0,.486-.18.912.912,0,0,0,.162-.612v-1.26a.912.912,0,0,0-.162-.612A.621.621,0,0,0,32.52-7.2Zm3.672.732v4.536q0,.828.684.828t.684-.828V-6.468q0-.828-.684-.828T36.192-6.468Zm-1.32,4.452V-6.384a2.2,2.2,0,0,1,.516-1.56A1.938,1.938,0,0,1,36.876-8.5a1.938,1.938,0,0,1,1.488.552,2.2,2.2,0,0,1,.516,1.56v4.368a2.2,2.2,0,0,1-.516,1.56A1.938,1.938,0,0,1,36.876.1a1.938,1.938,0,0,1-1.488-.552A2.2,2.2,0,0,1,34.872-2.016ZM40.716,0H39.372a2.731,2.731,0,0,0,.144-1.02v-1.3q0-1.416.876-1.788a1.689,1.689,0,0,1-.864-1.7v-.66A2,2,0,0,1,40-7.926,2.02,2.02,0,0,1,41.484-8.4h1.992V0h-1.32V-3.42H41.7a.811.811,0,0,0-.66.246,1.3,1.3,0,0,0-.2.822v1.32A3.426,3.426,0,0,1,40.716,0Zm1.44-7.2H41.52q-.672,0-.672.864v.828a.964.964,0,0,0,.2.684.792.792,0,0,0,.594.2h.516Zm1.776,0V-8.4h4.08v1.2h-1.38V0h-1.32V-7.2Zm5.856,3.6V0h-1.32V-8.4h1.32v3.6h1.5V-8.4h1.344V0H51.288V-3.6ZM55.416,0H53.472V-8.4h1.32v3.156h.624q1.968,0,1.968,2.076v1.092Q57.384,0,55.416,0Zm-.624-1.2h.624a.621.621,0,0,0,.486-.18.912.912,0,0,0,.162-.612v-1.26a.912.912,0,0,0-.162-.612.621.621,0,0,0-.486-.18h-.624ZM59.46,0H58.14V-8.4h1.32Zm.84,0V-8.4h1.176v5.316l.48-1.848L63.036-8.4h1.452V0H63.3V-5.916l-.54,2.064L61.656,0Zm2.712-10.272h.8a1.309,1.309,0,0,1-.36.978,1.428,1.428,0,0,1-1.044.354A1.361,1.361,0,0,1,61.4-9.288a1.426,1.426,0,0,1-.366-.984h.816A.632.632,0,0,0,62-9.834a.613.613,0,0,0,.408.114.663.663,0,0,0,.432-.12A.6.6,0,0,0,63.012-10.272ZM3.06,8.868H4.308V9.984a2.227,2.227,0,0,1-.5,1.566A1.894,1.894,0,0,1,2.34,12.1,1.894,1.894,0,0,1,.876,11.55a2.227,2.227,0,0,1-.5-1.566V5.616a2.227,2.227,0,0,1,.5-1.566A1.894,1.894,0,0,1,2.34,3.5,1.894,1.894,0,0,1,3.8,4.05a2.227,2.227,0,0,1,.5,1.566v.816H3.06v-.9q0-.828-.684-.828t-.684.828v4.536q0,.816.684.816t.684-.816ZM4.992,12V3.6h1.32v7.2h1.5V3.6H9.156v7.224h.576v2.3H8.448V12Zm6.66-7.2V7.14h1.812v1.2H11.652V10.8h2.28V12h-3.6V3.6h3.6V4.8Zm4.3,3.6V12h-1.32V3.6h1.32V7.2h1.5V3.6h1.344V12H17.448V8.4ZM22.56,3.6,23.9,12H22.572l-.228-1.524h-1.62L20.5,12H19.284l1.344-8.4ZM21.528,5.088l-.636,4.248h1.272ZM26.34,3.6q1.968,0,1.968,2.076V6.768q0,2.076-1.968,2.076h-.624V12H24.4V3.6Zm0,1.2h-.624V7.644h.624a.621.621,0,0,0,.486-.18.912.912,0,0,0,.162-.612V5.592a.912.912,0,0,0-.162-.612A.621.621,0,0,0,26.34,4.8Zm4.92,3.348L30.156,12H28.8V3.6h1.176V8.916l.48-1.848L31.536,3.6h1.452V12H31.8V6.084ZM33.8,12V3.6H34.98V8.916l.48-1.848L36.54,3.6h1.452V12H36.8V6.084l-.54,2.064L35.16,12ZM36.516,1.728h.8a1.309,1.309,0,0,1-.36.978,1.428,1.428,0,0,1-1.044.354A1.361,1.361,0,0,1,34.9,2.712a1.426,1.426,0,0,1-.366-.984h.816a.632.632,0,0,0,.156.438.613.613,0,0,0,.408.114.663.663,0,0,0,.432-.12A.6.6,0,0,0,36.516,1.728Z" transform="translate(34.697 230.52)" fill="#a6a4a6"/><path d="M2.424-8.4q1.968,0,1.968,2.076v1.092q0,2.076-1.968,2.076H1.8V0H.48V-8.4Zm0,1.2H1.8v2.844h.624a.621.621,0,0,0,.486-.18.912.912,0,0,0,.162-.612v-1.26A.912.912,0,0,0,2.91-7.02.621.621,0,0,0,2.424-7.2Zm3.9,0v2.34H8.136v1.2H6.324V-1.2H8.6V0H5V-8.4H8.6v1.2Zm6.024-1.2L13.692,0H12.36l-.228-1.524h-1.62L10.284,0H9.072l1.344-8.4ZM11.316-6.912,10.68-2.664h1.272ZM13.932.012v-1.2a.981.981,0,0,0,.642-.15,1.073,1.073,0,0,0,.174-.714L14.964-8.4H18.7V0H17.352V-7.2H16.2l-.144,5.076a2.56,2.56,0,0,1-.48,1.644,1.855,1.855,0,0,1-1.44.492Zm8.232-3.864L21.06,0H19.7V-8.4H20.88v5.316l.48-1.848L22.44-8.4h1.452V0H22.7V-5.916Zm5.244.72h1.248v1.116a2.227,2.227,0,0,1-.5,1.566A1.894,1.894,0,0,1,26.688.1,1.894,1.894,0,0,1,25.224-.45a2.227,2.227,0,0,1-.5-1.566V-6.384a2.227,2.227,0,0,1,.5-1.566A1.894,1.894,0,0,1,26.688-8.5a1.894,1.894,0,0,1,1.464.546,2.227,2.227,0,0,1,.5,1.566v.816H27.408v-.9q0-.828-.684-.828t-.684.828v4.536q0,.816.684.816t.684-.816ZM29.076-7.2V-8.4h4.08v1.2h-1.38V0h-1.32V-7.2Zm7.116,3.348L35.088,0H33.732V-8.4h1.176v5.316l.48-1.848L36.468-8.4H37.92V0H36.732V-5.916ZM41.544-8.4h1.32V0h-1.32V-3.384a1.464,1.464,0,0,1-1.128.468A1.482,1.482,0,0,1,39.2-3.438a2.164,2.164,0,0,1-.426-1.41V-8.4h1.32v3.444a.824.824,0,0,0,.216.618.759.759,0,0,0,.552.21.612.612,0,0,0,.5-.222,1,1,0,0,0,.18-.642Zm3.612,4.8V0h-1.32V-8.4h1.32v3.6h1.5V-8.4H48V0H46.656V-3.6ZM50.9,0H48.96V-8.4h1.32v3.156H50.9q1.968,0,1.968,2.076v1.092Q52.872,0,50.9,0ZM50.28-1.2H50.9a.621.621,0,0,0,.486-.18.912.912,0,0,0,.162-.612v-1.26a.912.912,0,0,0-.162-.612.621.621,0,0,0-.486-.18H50.28ZM54.948,0h-1.32V-8.4h1.32Zm.96,0V-8.4h1.176v5.316l.48-1.848L58.644-8.4H60.1V0H58.908V-5.916l-.54,2.064L57.264,0ZM58.62-10.272h.8a1.309,1.309,0,0,1-.36.978,1.428,1.428,0,0,1-1.044.354,1.361,1.361,0,0,1-1.014-.348,1.426,1.426,0,0,1-.366-.984h.816a.632.632,0,0,0,.156.438.613.613,0,0,0,.408.114.663.663,0,0,0,.432-.12A.6.6,0,0,0,58.62-10.272ZM3.06,8.868H4.308V9.984a2.227,2.227,0,0,1-.5,1.566A1.894,1.894,0,0,1,2.34,12.1,1.894,1.894,0,0,1,.876,11.55a2.227,2.227,0,0,1-.5-1.566V5.616a2.227,2.227,0,0,1,.5-1.566A1.894,1.894,0,0,1,2.34,3.5,1.894,1.894,0,0,1,3.8,4.05a2.227,2.227,0,0,1,.5,1.566v.816H3.06v-.9q0-.828-.684-.828t-.684.828v4.536q0,.816.684.816t.684-.816ZM5.112,12V3.6h1.32v7.2h1.5V3.6H9.276v7.224h.576v2.3H8.568V12Zm6.78-7.2V7.14H13.7v1.2H11.892V10.8h2.28V12h-3.6V3.6h3.6V4.8Zm4.416,3.6V12h-1.32V3.6h1.32V7.2h1.5V3.6h1.344V12H17.808V8.4ZM23.04,3.6,24.384,12H23.052l-.228-1.524H21.2L20.976,12H19.764l1.344-8.4ZM22.008,5.088l-.636,4.248h1.272ZM26.94,3.6q1.968,0,1.968,2.076V6.768q0,2.076-1.968,2.076h-.624V12H25V3.6Zm0,1.2h-.624V7.644h.624a.621.621,0,0,0,.486-.18.912.912,0,0,0,.162-.612V5.592a.912.912,0,0,0-.162-.612A.621.621,0,0,0,26.94,4.8Zm5.04,3.348L30.876,12H29.52V3.6H30.7V8.916l.48-1.848L32.256,3.6h1.452V12H32.52V6.084ZM34.644,12V3.6H35.82V8.916l.48-1.848L37.38,3.6h1.452V12H37.644V6.084L37.1,8.148,36,12ZM37.356,1.728h.8a1.309,1.309,0,0,1-.36.978,1.428,1.428,0,0,1-1.044.354,1.361,1.361,0,0,1-1.014-.348,1.426,1.426,0,0,1-.366-.984h.816a.632.632,0,0,0,.156.438.613.613,0,0,0,.408.114.663.663,0,0,0,.432-.12A.6.6,0,0,0,37.356,1.728Z" transform="translate(106.697 230.52)" fill="#a6a4a6"/><path d="M2.3-8.4l.972,5.964.9-5.964H6.012V0H4.764V-6.024L3.852,0H2.6L1.62-5.94V0H.468V-8.4Zm7.6,0L11.244,0H9.912L9.684-1.524H8.064L7.836,0H6.624L7.968-8.4ZM8.868-6.912,8.232-2.664H9.5ZM13.188,0h-1.32V-8.4h3.48v1.2h-2.16ZM18.7-3.852,17.592,0H16.236V-8.4h1.176v5.316l.48-1.848L18.972-8.4h1.452V0H19.236V-5.916ZM22.464,0H21.12a2.731,2.731,0,0,0,.144-1.02v-1.3q0-1.416.876-1.788a1.689,1.689,0,0,1-.864-1.7v-.66a2,2,0,0,1,.468-1.458A2.02,2.02,0,0,1,23.232-8.4h1.992V0H23.9V-3.42h-.456a.811.811,0,0,0-.66.246,1.3,1.3,0,0,0-.2.822v1.32A3.426,3.426,0,0,1,22.464,0ZM23.9-7.2h-.636q-.672,0-.672.864v.828a.964.964,0,0,0,.2.684.792.792,0,0,0,.594.2H23.9ZM31.056,0,29.772-3.348l-.408.768V0h-1.32V-8.4h1.32v3.66L31.092-8.4h1.32L30.576-4.656,32.412,0Zm4.416-3.852L34.368,0H33.012V-8.4h1.176v5.316l.48-1.848L35.748-8.4H37.2V0H36.012V-5.916Zm3.984.252V0h-1.32V-8.4h1.32v3.6h1.5V-8.4H42.3V0H40.956V-3.6Zm5.016-2.868v4.536q0,.828.684.828t.684-.828V-6.468q0-.828-.684-.828T44.472-6.468Zm-1.32,4.452V-6.384a2.2,2.2,0,0,1,.516-1.56A1.938,1.938,0,0,1,45.156-8.5a1.938,1.938,0,0,1,1.488.552,2.2,2.2,0,0,1,.516,1.56v4.368a2.2,2.2,0,0,1-.516,1.56A1.938,1.938,0,0,1,45.156.1a1.938,1.938,0,0,1-1.488-.552A2.2,2.2,0,0,1,43.152-2.016Z" transform="translate(178.697 230.52)" fill="#a6a4a6"/><path d="M-20.656-8.544h1.36V0h1.76V-11.2H-18.72a1.743,1.743,0,0,1-1.936,1.408Zm5.008,4.928v.928c0,1.792.9,2.816,2.624,2.816S-10.4-.9-10.4-2.688v-2.5c0-1.648-.656-2.56-1.952-2.56a1.679,1.679,0,0,0-1.536.816l.144-2.672h3.056v-1.6h-4.64l-.32,6.5h1.664V-5.04c0-.8.352-1.1.912-1.1s.912.3.912,1.1v2.464c0,.8-.352,1.088-.912,1.088s-.912-.288-.912-1.088v-1.04Zm7.28-5.952c0-.5.208-.7.576-.7.352,0,.576.208.576.7v3.84c0,.5-.224.7-.576.7-.368,0-.576-.208-.576-.7Zm-1.12,3.76a1.572,1.572,0,0,0,1.7,1.792A1.572,1.572,0,0,0-6.1-5.808v-3.68a1.572,1.572,0,0,0-1.7-1.792,1.572,1.572,0,0,0-1.7,1.792ZM-7.792,0h1.04l4.416-11.2h-1.04Zm4.976-5.472c0-.5.208-.7.576-.7.352,0,.576.208.576.7v3.84c0,.5-.224.7-.576.7-.368,0-.576-.208-.576-.7Zm-1.12,3.76A1.572,1.572,0,0,0-2.24.08a1.572,1.572,0,0,0,1.7-1.792v-3.68a1.572,1.572,0,0,0-1.7-1.792,1.572,1.572,0,0,0-1.7,1.792Z" transform="translate(68 397.406)" fill="#242549"/><path d="M-18.352-7.824c0,.9-.4,1.184-1.056,1.184H-20.1v1.6h.592c.8,0,1.152.384,1.152,1.424v.88c0,.992-.352,1.264-.912,1.264s-.912-.3-.912-1.1v-1.04H-21.84v.928c0,1.792.9,2.816,2.624,2.816S-16.592-.9-16.592-2.688v-.88A2.285,2.285,0,0,0-17.824-5.92a2.182,2.182,0,0,0,1.232-2.3v-.288c0-1.792-.9-2.816-2.624-2.816S-21.84-10.3-21.84-8.512V-7.9h1.664v-.72c0-.8.352-1.1.912-1.1s.912.272.912,1.28Zm4.4-.8c0-.8.352-1.1.912-1.1s.912.3.912,1.1v6.048c0,.8-.352,1.1-.912,1.1s-.912-.3-.912-1.1Zm-1.76,5.936A2.486,2.486,0,0,0-13.04.128a2.486,2.486,0,0,0,2.672-2.816V-8.512a2.486,2.486,0,0,0-2.672-2.816,2.486,2.486,0,0,0-2.672,2.816Zm7.344-6.88c0-.5.208-.7.576-.7.352,0,.576.208.576.7v3.84c0,.5-.224.7-.576.7-.368,0-.576-.208-.576-.7Zm-1.12,3.76a1.572,1.572,0,0,0,1.7,1.792A1.572,1.572,0,0,0-6.1-5.808v-3.68a1.572,1.572,0,0,0-1.7-1.792,1.572,1.572,0,0,0-1.7,1.792ZM-7.792,0h1.04l4.416-11.2h-1.04Zm4.976-5.472c0-.5.208-.7.576-.7.352,0,.576.208.576.7v3.84c0,.5-.224.7-.576.7-.368,0-.576-.208-.576-.7Zm-1.12,3.76A1.572,1.572,0,0,0-2.24.08a1.572,1.572,0,0,0,1.7-1.792v-3.68a1.572,1.572,0,0,0-1.7-1.792,1.572,1.572,0,0,0-1.7,1.792Z" transform="translate(104 381.406)" fill="#242549"/><path d="M-21.824-3.616v.928c0,1.792.9,2.816,2.624,2.816S-16.576-.9-16.576-2.688v-2.5c0-1.648-.656-2.56-1.952-2.56a1.679,1.679,0,0,0-1.536.816L-19.92-9.6h3.056v-1.6H-21.5l-.32,6.5h1.664V-5.04c0-.8.352-1.1.912-1.1s.912.3.912,1.1v2.464c0,.8-.352,1.088-.912,1.088s-.912-.288-.912-1.088v-1.04Zm7.872-5.008c0-.8.352-1.1.912-1.1s.912.3.912,1.1v6.048c0,.8-.352,1.1-.912,1.1s-.912-.3-.912-1.1Zm-1.76,5.936A2.486,2.486,0,0,0-13.04.128a2.486,2.486,0,0,0,2.672-2.816V-8.512a2.486,2.486,0,0,0-2.672-2.816,2.486,2.486,0,0,0-2.672,2.816Zm7.344-6.88c0-.5.208-.7.576-.7.352,0,.576.208.576.7v3.84c0,.5-.224.7-.576.7-.368,0-.576-.208-.576-.7Zm-1.12,3.76a1.572,1.572,0,0,0,1.7,1.792A1.572,1.572,0,0,0-6.1-5.808v-3.68a1.572,1.572,0,0,0-1.7-1.792,1.572,1.572,0,0,0-1.7,1.792ZM-7.792,0h1.04l4.416-11.2h-1.04Zm4.976-5.472c0-.5.208-.7.576-.7.352,0,.576.208.576.7v3.84c0,.5-.224.7-.576.7-.368,0-.576-.208-.576-.7Zm-1.12,3.76A1.572,1.572,0,0,0-2.24.08a1.572,1.572,0,0,0,1.7-1.792v-3.68a1.572,1.572,0,0,0-1.7-1.792,1.572,1.572,0,0,0-1.7,1.792Z" transform="translate(139.5 362.406)" fill="#242549"/><path d="M-16.464-2.688v-.88A2.461,2.461,0,0,0-17.552-5.9,2.353,2.353,0,0,0-16.464-8.16v-.352a2.521,2.521,0,0,0-2.752-2.816,2.521,2.521,0,0,0-2.752,2.816v.352A2.324,2.324,0,0,0-20.88-5.9a2.461,2.461,0,0,0-1.088,2.336v.88A2.521,2.521,0,0,0-19.216.128,2.521,2.521,0,0,0-16.464-2.688Zm-3.744-.048v-1.04c0-.88.368-1.264.992-1.264s.992.384.992,1.264v1.04c-.016.992-.432,1.264-.992,1.264S-20.208-1.744-20.208-2.736Zm0-5.712c0-1.008.432-1.28.992-1.28s.992.272.992,1.28v.624c0,.9-.432,1.184-.992,1.184-.576,0-.992-.288-.992-1.184Zm4.56,4.832v.928c0,1.792.9,2.816,2.624,2.816S-10.4-.9-10.4-2.688v-2.5c0-1.648-.656-2.56-1.952-2.56a1.679,1.679,0,0,0-1.536.816l.144-2.672h3.056v-1.6h-4.64l-.32,6.5h1.664V-5.04c0-.8.352-1.1.912-1.1s.912.3.912,1.1v2.464c0,.8-.352,1.088-.912,1.088s-.912-.288-.912-1.088v-1.04Zm7.28-5.952c0-.5.208-.7.576-.7.352,0,.576.208.576.7v3.84c0,.5-.224.7-.576.7-.368,0-.576-.208-.576-.7Zm-1.12,3.76a1.572,1.572,0,0,0,1.7,1.792A1.572,1.572,0,0,0-6.1-5.808v-3.68a1.572,1.572,0,0,0-1.7-1.792,1.572,1.572,0,0,0-1.7,1.792ZM-7.792,0h1.04l4.416-11.2h-1.04Zm4.976-5.472c0-.5.208-.7.576-.7.352,0,.576.208.576.7v3.84c0,.5-.224.7-.576.7-.368,0-.576-.208-.576-.7Zm-1.12,3.76A1.572,1.572,0,0,0-2.24.08a1.572,1.572,0,0,0,1.7-1.792v-3.68a1.572,1.572,0,0,0-1.7-1.792,1.572,1.572,0,0,0-1.7,1.792Z" transform="translate(67.5 327.406)" fill="#242549"/><path d="M-21.856-11.2v1.6h3.5L-20.928,0h1.76l2.592-9.664V-11.2Zm7.9,2.576c0-.8.352-1.1.912-1.1s.912.3.912,1.1v6.048c0,.8-.352,1.1-.912,1.1s-.912-.3-.912-1.1Zm-1.76,5.936A2.486,2.486,0,0,0-13.04.128a2.486,2.486,0,0,0,2.672-2.816V-8.512a2.486,2.486,0,0,0-2.672-2.816,2.486,2.486,0,0,0-2.672,2.816Zm7.344-6.88c0-.5.208-.7.576-.7.352,0,.576.208.576.7v3.84c0,.5-.224.7-.576.7-.368,0-.576-.208-.576-.7Zm-1.12,3.76a1.572,1.572,0,0,0,1.7,1.792A1.572,1.572,0,0,0-6.1-5.808v-3.68a1.572,1.572,0,0,0-1.7-1.792,1.572,1.572,0,0,0-1.7,1.792ZM-7.792,0h1.04l4.416-11.2h-1.04Zm4.976-5.472c0-.5.208-.7.576-.7.352,0,.576.208.576.7v3.84c0,.5-.224.7-.576.7-.368,0-.576-.208-.576-.7Zm-1.12,3.76A1.572,1.572,0,0,0-2.24.08a1.572,1.572,0,0,0,1.7-1.792v-3.68a1.572,1.572,0,0,0-1.7-1.792,1.572,1.572,0,0,0-1.7,1.792Z" transform="translate(103.5 342.406)" fill="#242549"/><path d="M-21.856-11.2v1.6h3.5L-20.928,0h1.76l2.592-9.664V-11.2Zm7.9,2.576c0-.8.352-1.1.912-1.1s.912.3.912,1.1v6.048c0,.8-.352,1.1-.912,1.1s-.912-.3-.912-1.1Zm-1.76,5.936A2.486,2.486,0,0,0-13.04.128a2.486,2.486,0,0,0,2.672-2.816V-8.512a2.486,2.486,0,0,0-2.672-2.816,2.486,2.486,0,0,0-2.672,2.816Zm7.344-6.88c0-.5.208-.7.576-.7.352,0,.576.208.576.7v3.84c0,.5-.224.7-.576.7-.368,0-.576-.208-.576-.7Zm-1.12,3.76a1.572,1.572,0,0,0,1.7,1.792A1.572,1.572,0,0,0-6.1-5.808v-3.68a1.572,1.572,0,0,0-1.7-1.792,1.572,1.572,0,0,0-1.7,1.792ZM-7.792,0h1.04l4.416-11.2h-1.04Zm4.976-5.472c0-.5.208-.7.576-.7.352,0,.576.208.576.7v3.84c0,.5-.224.7-.576.7-.368,0-.576-.208-.576-.7Zm-1.12,3.76A1.572,1.572,0,0,0-2.24.08a1.572,1.572,0,0,0,1.7-1.792v-3.68a1.572,1.572,0,0,0-1.7-1.792,1.572,1.572,0,0,0-1.7,1.792Z" transform="translate(175.5 383.406)" fill="#242549"/><path d="M-16.464-2.688v-.88A2.461,2.461,0,0,0-17.552-5.9,2.353,2.353,0,0,0-16.464-8.16v-.352a2.521,2.521,0,0,0-2.752-2.816,2.521,2.521,0,0,0-2.752,2.816v.352A2.324,2.324,0,0,0-20.88-5.9a2.461,2.461,0,0,0-1.088,2.336v.88A2.521,2.521,0,0,0-19.216.128,2.521,2.521,0,0,0-16.464-2.688Zm-3.744-.048v-1.04c0-.88.368-1.264.992-1.264s.992.384.992,1.264v1.04c-.016.992-.432,1.264-.992,1.264S-20.208-1.744-20.208-2.736Zm0-5.712c0-1.008.432-1.28.992-1.28s.992.272.992,1.28v.624c0,.9-.432,1.184-.992,1.184-.576,0-.992-.288-.992-1.184Zm4.56,4.832v.928c0,1.792.9,2.816,2.624,2.816S-10.4-.9-10.4-2.688v-2.5c0-1.648-.656-2.56-1.952-2.56a1.679,1.679,0,0,0-1.536.816l.144-2.672h3.056v-1.6h-4.64l-.32,6.5h1.664V-5.04c0-.8.352-1.1.912-1.1s.912.3.912,1.1v2.464c0,.8-.352,1.088-.912,1.088s-.912-.288-.912-1.088v-1.04Zm7.28-5.952c0-.5.208-.7.576-.7.352,0,.576.208.576.7v3.84c0,.5-.224.7-.576.7-.368,0-.576-.208-.576-.7Zm-1.12,3.76a1.572,1.572,0,0,0,1.7,1.792A1.572,1.572,0,0,0-6.1-5.808v-3.68a1.572,1.572,0,0,0-1.7-1.792,1.572,1.572,0,0,0-1.7,1.792ZM-7.792,0h1.04l4.416-11.2h-1.04Zm4.976-5.472c0-.5.208-.7.576-.7.352,0,.576.208.576.7v3.84c0,.5-.224.7-.576.7-.368,0-.576-.208-.576-.7Zm-1.12,3.76A1.572,1.572,0,0,0-2.24.08a1.572,1.572,0,0,0,1.7-1.792v-3.68a1.572,1.572,0,0,0-1.7-1.792,1.572,1.572,0,0,0-1.7,1.792Z" transform="translate(211.5 398.406)" fill="#242549"/><path d="M-13.952-8.624c0-.8.352-1.1.912-1.1s.912.3.912,1.1v6.048c0,.8-.352,1.1-.912,1.1s-.912-.3-.912-1.1Zm-1.76,5.936A2.486,2.486,0,0,0-13.04.128a2.486,2.486,0,0,0,2.672-2.816V-8.512a2.486,2.486,0,0,0-2.672-2.816,2.486,2.486,0,0,0-2.672,2.816Zm7.344-6.88c0-.5.208-.7.576-.7.352,0,.576.208.576.7v3.84c0,.5-.224.7-.576.7-.368,0-.576-.208-.576-.7Zm-1.12,3.76a1.572,1.572,0,0,0,1.7,1.792A1.572,1.572,0,0,0-6.1-5.808v-3.68a1.572,1.572,0,0,0-1.7-1.792,1.572,1.572,0,0,0-1.7,1.792ZM-7.792,0h1.04l4.416-11.2h-1.04Zm4.976-5.472c0-.5.208-.7.576-.7.352,0,.576.208.576.7v3.84c0,.5-.224.7-.576.7-.368,0-.576-.208-.576-.7Zm-1.12,3.76A1.572,1.572,0,0,0-2.24.08a1.572,1.572,0,0,0,1.7-1.792v-3.68a1.572,1.572,0,0,0-1.7-1.792,1.572,1.572,0,0,0-1.7,1.792Z" transform="translate(243.5 413)" fill="#242549"/><path d="M-21.856-11.2v1.6h3.5L-20.928,0h1.76l2.592-9.664V-11.2Zm7.9,2.576c0-.8.352-1.1.912-1.1s.912.3.912,1.1v6.048c0,.8-.352,1.1-.912,1.1s-.912-.3-.912-1.1Zm-1.76,5.936A2.486,2.486,0,0,0-13.04.128a2.486,2.486,0,0,0,2.672-2.816V-8.512a2.486,2.486,0,0,0-2.672-2.816,2.486,2.486,0,0,0-2.672,2.816Zm7.344-6.88c0-.5.208-.7.576-.7.352,0,.576.208.576.7v3.84c0,.5-.224.7-.576.7-.368,0-.576-.208-.576-.7Zm-1.12,3.76a1.572,1.572,0,0,0,1.7,1.792A1.572,1.572,0,0,0-6.1-5.808v-3.68a1.572,1.572,0,0,0-1.7-1.792,1.572,1.572,0,0,0-1.7,1.792ZM-7.792,0h1.04l4.416-11.2h-1.04Zm4.976-5.472c0-.5.208-.7.576-.7.352,0,.576.208.576.7v3.84c0,.5-.224.7-.576.7-.368,0-.576-.208-.576-.7Zm-1.12,3.76A1.572,1.572,0,0,0-2.24.08a1.572,1.572,0,0,0,1.7-1.792v-3.68a1.572,1.572,0,0,0-1.7-1.792,1.572,1.572,0,0,0-1.7,1.792Z" transform="translate(175.5 341.406)" fill="#242549"/><path d="M-16.464-2.688v-.88A2.461,2.461,0,0,0-17.552-5.9,2.353,2.353,0,0,0-16.464-8.16v-.352a2.521,2.521,0,0,0-2.752-2.816,2.521,2.521,0,0,0-2.752,2.816v.352A2.324,2.324,0,0,0-20.88-5.9a2.461,2.461,0,0,0-1.088,2.336v.88A2.521,2.521,0,0,0-19.216.128,2.521,2.521,0,0,0-16.464-2.688Zm-3.744-.048v-1.04c0-.88.368-1.264.992-1.264s.992.384.992,1.264v1.04c-.016.992-.432,1.264-.992,1.264S-20.208-1.744-20.208-2.736Zm0-5.712c0-1.008.432-1.28.992-1.28s.992.272.992,1.28v.624c0,.9-.432,1.184-.992,1.184-.576,0-.992-.288-.992-1.184Zm4.56,4.832v.928c0,1.792.9,2.816,2.624,2.816S-10.4-.9-10.4-2.688v-2.5c0-1.648-.656-2.56-1.952-2.56a1.679,1.679,0,0,0-1.536.816l.144-2.672h3.056v-1.6h-4.64l-.32,6.5h1.664V-5.04c0-.8.352-1.1.912-1.1s.912.3.912,1.1v2.464c0,.8-.352,1.088-.912,1.088s-.912-.288-.912-1.088v-1.04Zm7.28-5.952c0-.5.208-.7.576-.7.352,0,.576.208.576.7v3.84c0,.5-.224.7-.576.7-.368,0-.576-.208-.576-.7Zm-1.12,3.76a1.572,1.572,0,0,0,1.7,1.792A1.572,1.572,0,0,0-6.1-5.808v-3.68a1.572,1.572,0,0,0-1.7-1.792,1.572,1.572,0,0,0-1.7,1.792ZM-7.792,0h1.04l4.416-11.2h-1.04Zm4.976-5.472c0-.5.208-.7.576-.7.352,0,.576.208.576.7v3.84c0,.5-.224.7-.576.7-.368,0-.576-.208-.576-.7Zm-1.12,3.76A1.572,1.572,0,0,0-2.24.08a1.572,1.572,0,0,0,1.7-1.792v-3.68a1.572,1.572,0,0,0-1.7-1.792,1.572,1.572,0,0,0-1.7,1.792Z" transform="translate(210.5 326.406)" fill="#242549"/><path d="M-26.832-8.544h1.36V0h1.76V-11.2H-24.9a1.743,1.743,0,0,1-1.936,1.408Zm6.7-.08c0-.8.352-1.1.912-1.1s.912.3.912,1.1v6.048c0,.8-.352,1.1-.912,1.1s-.912-.3-.912-1.1Zm-1.76,5.936A2.486,2.486,0,0,0-19.216.128a2.486,2.486,0,0,0,2.672-2.816V-8.512a2.486,2.486,0,0,0-2.672-2.816,2.486,2.486,0,0,0-2.672,2.816Zm7.936-5.936c0-.8.352-1.1.912-1.1s.912.3.912,1.1v6.048c0,.8-.352,1.1-.912,1.1s-.912-.3-.912-1.1Zm-1.76,5.936A2.486,2.486,0,0,0-13.04.128a2.486,2.486,0,0,0,2.672-2.816V-8.512a2.486,2.486,0,0,0-2.672-2.816,2.486,2.486,0,0,0-2.672,2.816Zm7.344-6.88c0-.5.208-.7.576-.7.352,0,.576.208.576.7v3.84c0,.5-.224.7-.576.7-.368,0-.576-.208-.576-.7Zm-1.12,3.76a1.572,1.572,0,0,0,1.7,1.792A1.572,1.572,0,0,0-6.1-5.808v-3.68a1.572,1.572,0,0,0-1.7-1.792,1.572,1.572,0,0,0-1.7,1.792ZM-7.792,0h1.04l4.416-11.2h-1.04Zm4.976-5.472c0-.5.208-.7.576-.7.352,0,.576.208.576.7v3.84c0,.5-.224.7-.576.7-.368,0-.576-.208-.576-.7Zm-1.12,3.76A1.572,1.572,0,0,0-2.24.08a1.572,1.572,0,0,0,1.7-1.792v-3.68a1.572,1.572,0,0,0-1.7-1.792,1.572,1.572,0,0,0-1.7,1.792Z" transform="translate(244.5 311.406)" fill="#242549"/><path d="M-26.832-8.544h1.36V0h1.76V-11.2H-24.9a1.743,1.743,0,0,1-1.936,1.408Zm8.576.1c0,3.232-3.488,3.776-3.488,7.072V0h5.088V-1.6h-3.328A1.211,1.211,0,0,1-20-1.84c0-1.84,3.5-3.152,3.5-6.672,0-1.792-.9-2.816-2.624-2.816s-2.624,1.024-2.624,2.816v1.088h1.664v-1.2c0-.8.352-1.1.912-1.1S-18.256-9.456-18.256-8.448Zm4.3-.176c0-.8.352-1.1.912-1.1s.912.3.912,1.1v6.048c0,.8-.352,1.1-.912,1.1s-.912-.3-.912-1.1Zm-1.76,5.936A2.486,2.486,0,0,0-13.04.128a2.486,2.486,0,0,0,2.672-2.816V-8.512a2.486,2.486,0,0,0-2.672-2.816,2.486,2.486,0,0,0-2.672,2.816Zm7.344-6.88c0-.5.208-.7.576-.7.352,0,.576.208.576.7v3.84c0,.5-.224.7-.576.7-.368,0-.576-.208-.576-.7Zm-1.12,3.76a1.572,1.572,0,0,0,1.7,1.792A1.572,1.572,0,0,0-6.1-5.808v-3.68a1.572,1.572,0,0,0-1.7-1.792,1.572,1.572,0,0,0-1.7,1.792ZM-7.792,0h1.04l4.416-11.2h-1.04Zm4.976-5.472c0-.5.208-.7.576-.7.352,0,.576.208.576.7v3.84c0,.5-.224.7-.576.7-.368,0-.576-.208-.576-.7Zm-1.12,3.76A1.572,1.572,0,0,0-2.24.08a1.572,1.572,0,0,0,1.7-1.792v-3.68a1.572,1.572,0,0,0-1.7-1.792,1.572,1.572,0,0,0-1.7,1.792Z" transform="translate(282.5 292.406)" fill="#242549"/><path d="M-26.832-8.544h1.36V0h1.76V-11.2H-24.9a1.743,1.743,0,0,1-1.936,1.408Zm4.672,6.512h3.392V0h1.728V-2.032h.832v-1.6h-.832V-11.2h-1.92l-3.2,7.568Zm1.616-1.6,1.776-4.208v4.208Zm6.592-4.992c0-.8.352-1.1.912-1.1s.912.3.912,1.1v6.048c0,.8-.352,1.1-.912,1.1s-.912-.3-.912-1.1Zm-1.76,5.936A2.486,2.486,0,0,0-13.04.128a2.486,2.486,0,0,0,2.672-2.816V-8.512a2.486,2.486,0,0,0-2.672-2.816,2.486,2.486,0,0,0-2.672,2.816Zm7.344-6.88c0-.5.208-.7.576-.7.352,0,.576.208.576.7v3.84c0,.5-.224.7-.576.7-.368,0-.576-.208-.576-.7Zm-1.12,3.76a1.572,1.572,0,0,0,1.7,1.792A1.572,1.572,0,0,0-6.1-5.808v-3.68a1.572,1.572,0,0,0-1.7-1.792,1.572,1.572,0,0,0-1.7,1.792ZM-7.792,0h1.04l4.416-11.2h-1.04Zm4.976-5.472c0-.5.208-.7.576-.7.352,0,.576.208.576.7v3.84c0,.5-.224.7-.576.7-.368,0-.576-.208-.576-.7Zm-1.12,3.76A1.572,1.572,0,0,0-2.24.08a1.572,1.572,0,0,0,1.7-1.792v-3.68a1.572,1.572,0,0,0-1.7-1.792,1.572,1.572,0,0,0-1.7,1.792Z" transform="translate(318.5 272.406)" fill="#242549"/><path d="M-26.832-8.544h1.36V0h1.76V-11.2H-24.9a1.743,1.743,0,0,1-1.936,1.408Zm4.976,5.856A2.486,2.486,0,0,0-19.184.128a2.486,2.486,0,0,0,2.672-2.816V-4.736c0-1.648-.656-2.56-1.952-2.56A1.675,1.675,0,0,0-20.1-6.3V-8.352c0-1.072.352-1.376.976-1.376.56,0,.912.3.912,1.1v.4h1.664v-.288c0-1.792-.9-2.816-2.624-2.816-1.824,0-2.688,1.024-2.688,2.912ZM-19.184-5.7c.56,0,.912.3.912,1.1v2.016c0,.8-.352,1.088-.912,1.088s-.912-.288-.912-1.088V-4.592C-20.1-5.392-19.744-5.7-19.184-5.7Zm5.232-2.928c0-.8.352-1.1.912-1.1s.912.3.912,1.1v6.048c0,.8-.352,1.1-.912,1.1s-.912-.3-.912-1.1Zm-1.76,5.936A2.486,2.486,0,0,0-13.04.128a2.486,2.486,0,0,0,2.672-2.816V-8.512a2.486,2.486,0,0,0-2.672-2.816,2.486,2.486,0,0,0-2.672,2.816Zm7.344-6.88c0-.5.208-.7.576-.7.352,0,.576.208.576.7v3.84c0,.5-.224.7-.576.7-.368,0-.576-.208-.576-.7Zm-1.12,3.76a1.572,1.572,0,0,0,1.7,1.792A1.572,1.572,0,0,0-6.1-5.808v-3.68a1.572,1.572,0,0,0-1.7-1.792,1.572,1.572,0,0,0-1.7,1.792ZM-7.792,0h1.04l4.416-11.2h-1.04Zm4.976-5.472c0-.5.208-.7.576-.7.352,0,.576.208.576.7v3.84c0,.5-.224.7-.576.7-.368,0-.576-.208-.576-.7Zm-1.12,3.76A1.572,1.572,0,0,0-2.24.08a1.572,1.572,0,0,0,1.7-1.792v-3.68a1.572,1.572,0,0,0-1.7-1.792,1.572,1.572,0,0,0-1.7,1.792Z" transform="translate(354.5 252.406)" fill="#242549"/></g></svg>