<svg xmlns="http://www.w3.org/2000/svg" width="288" height="243.5" viewBox="0 0 288 243.5"><g transform="translate(18 -527)"><rect width="287.68" height="243.5" transform="translate(-18 527)" fill="none"/><g transform="translate(20 697)" fill="none" stroke="#2a1e4d" stroke-width="2"><rect width="250" height="29" stroke="none"/><rect x="1" y="1" width="248" height="27" fill="none"/></g><g transform="translate(20 697)" fill="none" stroke="#2a1e4d" stroke-width="2"><rect width="250" height="29" stroke="none"/><rect x="1" y="1" width="248" height="27" fill="none"/></g><g transform="translate(20 697)" fill="none" stroke="#2a1e4d" stroke-width="2"><rect width="75" height="29" stroke="none"/><rect x="1" y="1" width="73" height="27" fill="none"/></g><g transform="translate(21 697)" fill="#281c49" stroke="#2a1e4d" stroke-width="2"><rect width="75" height="29" stroke="none"/><rect x="1" y="1" width="73" height="27" fill="none"/></g><g transform="translate(95 697)" fill="#281c49" stroke="#2a1e4d" stroke-width="2" opacity="0.66"><rect width="82" height="29" stroke="none"/><rect x="1" y="1" width="80" height="27" fill="none"/></g><g transform="translate(177 697)" fill="#2a1e4d" stroke="#2a1e4d" stroke-width="2" opacity="0.331"><rect width="81" height="29" stroke="none"/><rect x="1" y="1" width="79" height="27" fill="none"/></g><path d="M-17.82-12.672a2.412,2.412,0,0,0-.348-1.5,1.249,1.249,0,0,0-1.02-.42q-1.368,0-1.368,1.656v1.8h-2.5v-1.632A4.454,4.454,0,0,1-22.044-15.9a3.788,3.788,0,0,1,2.928-1.092A3.788,3.788,0,0,1-16.188-15.9a4.454,4.454,0,0,1,1.008,3.132,7.282,7.282,0,0,1-.54,2.784,8.554,8.554,0,0,1-1.32,2.256q-.78.936-1.548,1.752A11.883,11.883,0,0,0-19.9-4.332a2.9,2.9,0,0,0-.54,1.572,1.988,1.988,0,0,0,.024.36h4.992V0h-7.632V-2.064a5.784,5.784,0,0,1,.54-2.508A8.183,8.183,0,0,1-21.2-6.564q.768-.852,1.536-1.68A7.809,7.809,0,0,0-18.36-10.2,5.65,5.65,0,0,0-17.82-12.672Zm12.024-.1v8.592Q-5.8.192-9.828.192A3.788,3.788,0,0,1-12.756-.9a4.454,4.454,0,0,1-1.008-3.132v-.432h2.5v.6q0,1.656,1.368,1.656a1.32,1.32,0,0,0,1.1-.456,2.675,2.675,0,0,0,.36-1.608V-7.344a2.481,2.481,0,0,1-2.448,1.488q-2.928,0-2.928-3.84v-3.072a4.4,4.4,0,0,1,1.032-3.12,3.876,3.876,0,0,1,2.976-1.1,3.876,3.876,0,0,1,2.976,1.1A4.4,4.4,0,0,1-5.8-12.768Zm-5.376,2.856q0,1.656,1.368,1.656t1.368-1.656v-3.024q0-1.632-1.368-1.632t-1.368,1.632Zm7.128,7.368H-1.5V0H-4.044ZM.3-5.424H2.8v1.56q0,1.632,1.368,1.632T5.532-3.864v-3.7q0-1.656-1.368-1.656T2.8-7.56v.5H.3L.78-16.8H7.74v2.4H3.156L2.94-10.392a2.506,2.506,0,0,1,2.3-1.224q2.928,0,2.928,3.84v3.744A4.454,4.454,0,0,1,7.164-.9,3.788,3.788,0,0,1,4.236.192,3.788,3.788,0,0,1,1.308-.9,4.454,4.454,0,0,1,.3-4.032Zm11.16-8.928v5.76q0,1.056.864,1.056t.864-1.056v-5.76q0-1.056-.864-1.056T11.46-14.352ZM9.78-8.712v-5.52a2.817,2.817,0,0,1,.648-1.992,2.465,2.465,0,0,1,1.9-.7,2.465,2.465,0,0,1,1.9.7,2.817,2.817,0,0,1,.648,1.992v5.52A2.817,2.817,0,0,1,14.22-6.72a2.465,2.465,0,0,1-1.9.7,2.465,2.465,0,0,1-1.9-.7A2.817,2.817,0,0,1,9.78-8.712ZM12.324,0l6.624-16.8h1.56L13.884,0Zm7.464-8.208v5.76q0,1.056.864,1.056t.864-1.056v-5.76q0-1.056-.864-1.056T19.788-8.208Zm-1.68,5.64v-5.52a2.817,2.817,0,0,1,.648-1.992,2.465,2.465,0,0,1,1.9-.7,2.465,2.465,0,0,1,1.9.7A2.817,2.817,0,0,1,23.2-8.088v5.52a2.817,2.817,0,0,1-.648,1.992,2.465,2.465,0,0,1-1.9.7,2.465,2.465,0,0,1-1.9-.7A2.817,2.817,0,0,1,18.108-2.568Z" transform="translate(60 671)" fill="#291d4c"/><path d="M-17.964-11.736v-.936a2.412,2.412,0,0,0-.348-1.5,1.249,1.249,0,0,0-1.02-.42q-1.368,0-1.368,1.656v1.08h-2.5v-.912A4.454,4.454,0,0,1-22.188-15.9a3.788,3.788,0,0,1,2.928-1.092A3.788,3.788,0,0,1-16.332-15.9a4.454,4.454,0,0,1,1.008,3.132v.432q0,2.688-1.848,3.456,1.848.816,1.848,3.528v1.32A4.454,4.454,0,0,1-16.332-.9,3.788,3.788,0,0,1-19.26.192,3.788,3.788,0,0,1-22.188-.9,4.454,4.454,0,0,1-23.2-4.032V-5.424h2.5v1.56q0,1.656,1.368,1.656a1.249,1.249,0,0,0,1.02-.42A2.362,2.362,0,0,0-17.964-4.1v-1.32a2.592,2.592,0,0,0-.408-1.644,1.621,1.621,0,0,0-1.32-.492h-.888v-2.4h1.032a1.585,1.585,0,0,0,1.188-.408A1.928,1.928,0,0,0-17.964-11.736Zm9.5,0v-.936a2.412,2.412,0,0,0-.348-1.5,1.249,1.249,0,0,0-1.02-.42q-1.368,0-1.368,1.656v1.08h-2.5v-.912A4.454,4.454,0,0,1-12.684-15.9a3.788,3.788,0,0,1,2.928-1.092A3.788,3.788,0,0,1-6.828-15.9,4.454,4.454,0,0,1-5.82-12.768v.432q0,2.688-1.848,3.456,1.848.816,1.848,3.528v1.32A4.454,4.454,0,0,1-6.828-.9,3.788,3.788,0,0,1-9.756.192,3.788,3.788,0,0,1-12.684-.9a4.454,4.454,0,0,1-1.008-3.132V-5.424h2.5v1.56q0,1.656,1.368,1.656a1.249,1.249,0,0,0,1.02-.42A2.362,2.362,0,0,0-8.46-4.1v-1.32a2.592,2.592,0,0,0-.408-1.644,1.621,1.621,0,0,0-1.32-.492h-.888v-2.4h1.032a1.585,1.585,0,0,0,1.188-.408A1.928,1.928,0,0,0-8.46-11.736Zm4.416,9.192H-1.5V0H-4.044Zm6.1-10.272v-1.872A2.855,2.855,0,0,0,4-15.216a3.938,3.938,0,0,0,.96-1.584H6.732V0H4.092V-12.816Zm9.408-1.536v5.76q0,1.056.864,1.056t.864-1.056v-5.76q0-1.056-.864-1.056T11.46-14.352ZM9.78-8.712v-5.52a2.817,2.817,0,0,1,.648-1.992,2.465,2.465,0,0,1,1.9-.7,2.465,2.465,0,0,1,1.9.7,2.817,2.817,0,0,1,.648,1.992v5.52A2.817,2.817,0,0,1,14.22-6.72a2.465,2.465,0,0,1-1.9.7,2.465,2.465,0,0,1-1.9-.7A2.817,2.817,0,0,1,9.78-8.712ZM12.324,0l6.624-16.8h1.56L13.884,0Zm7.464-8.208v5.76q0,1.056.864,1.056t.864-1.056v-5.76q0-1.056-.864-1.056T19.788-8.208Zm-1.68,5.64v-5.52a2.817,2.817,0,0,1,.648-1.992,2.465,2.465,0,0,1,1.9-.7,2.465,2.465,0,0,1,1.9.7A2.817,2.817,0,0,1,23.2-8.088v5.52a2.817,2.817,0,0,1-.648,1.992,2.465,2.465,0,0,1-1.9.7,2.465,2.465,0,0,1-1.9-.7A2.817,2.817,0,0,1,18.108-2.568Z" transform="translate(140 671)" fill="#291d4c"/><path d="M-17.964-11.736v-.936a2.412,2.412,0,0,0-.348-1.5,1.249,1.249,0,0,0-1.02-.42q-1.368,0-1.368,1.656v1.08h-2.5v-.912A4.454,4.454,0,0,1-22.188-15.9a3.788,3.788,0,0,1,2.928-1.092A3.788,3.788,0,0,1-16.332-15.9a4.454,4.454,0,0,1,1.008,3.132v.432q0,2.688-1.848,3.456,1.848.816,1.848,3.528v1.32A4.454,4.454,0,0,1-16.332-.9,3.788,3.788,0,0,1-19.26.192,3.788,3.788,0,0,1-22.188-.9,4.454,4.454,0,0,1-23.2-4.032V-5.424h2.5v1.56q0,1.656,1.368,1.656a1.249,1.249,0,0,0,1.02-.42A2.362,2.362,0,0,0-17.964-4.1v-1.32a2.592,2.592,0,0,0-.408-1.644,1.621,1.621,0,0,0-1.32-.492h-.888v-2.4h1.032a1.585,1.585,0,0,0,1.188-.408A1.928,1.928,0,0,0-17.964-11.736Zm6.84-1.2v9.072q0,1.656,1.368,1.656t1.368-1.656v-9.072q0-1.656-1.368-1.656T-11.124-12.936Zm-2.64,8.9v-8.736a4.4,4.4,0,0,1,1.032-3.12,3.876,3.876,0,0,1,2.976-1.1,3.876,3.876,0,0,1,2.976,1.1,4.4,4.4,0,0,1,1.032,3.12v8.736A4.4,4.4,0,0,1-6.78-.912,3.876,3.876,0,0,1-9.756.192a3.876,3.876,0,0,1-2.976-1.1A4.4,4.4,0,0,1-13.764-4.032Zm9.72,1.488H-1.5V0H-4.044Zm6.1-10.272v-1.872A2.855,2.855,0,0,0,4-15.216a3.938,3.938,0,0,0,.96-1.584H6.732V0H4.092V-12.816Zm9.408-1.536v5.76q0,1.056.864,1.056t.864-1.056v-5.76q0-1.056-.864-1.056T11.46-14.352ZM9.78-8.712v-5.52a2.817,2.817,0,0,1,.648-1.992,2.465,2.465,0,0,1,1.9-.7,2.465,2.465,0,0,1,1.9.7,2.817,2.817,0,0,1,.648,1.992v5.52A2.817,2.817,0,0,1,14.22-6.72a2.465,2.465,0,0,1-1.9.7,2.465,2.465,0,0,1-1.9-.7A2.817,2.817,0,0,1,9.78-8.712ZM12.324,0l6.624-16.8h1.56L13.884,0Zm7.464-8.208v5.76q0,1.056.864,1.056t.864-1.056v-5.76q0-1.056-.864-1.056T19.788-8.208Zm-1.68,5.64v-5.52a2.817,2.817,0,0,1,.648-1.992,2.465,2.465,0,0,1,1.9-.7,2.465,2.465,0,0,1,1.9.7A2.817,2.817,0,0,1,23.2-8.088v5.52a2.817,2.817,0,0,1-.648,1.992,2.465,2.465,0,0,1-1.9.7,2.465,2.465,0,0,1-1.9-.7A2.817,2.817,0,0,1,18.108-2.568Z" transform="translate(220 671)" fill="#291d4c"/><path d="M6.5,0,13,10H0Z" transform="translate(66 689) rotate(180)" fill="#281c49"/><path d="M6.5,0,13,10H0Z" transform="translate(146 689) rotate(180)" fill="#281c49"/><path d="M6.5,0,13,10H0Z" transform="translate(226 689) rotate(180)" fill="#281c49"/><g transform="translate(29.475 567.32)"><path d="M3595.1,795.192v4.153a4.073,4.073,0,1,0,8.146,0v-5.006" transform="translate(-3552.598 -759.911)" fill="none" stroke="#281c49" stroke-linejoin="round" stroke-width="1.5"/><path d="M3559.71,809.2v13.27h18.33V804.934h8.723" transform="translate(-3554.682 -759.303)" fill="none" stroke="#281c49" stroke-linecap="square" stroke-miterlimit="10" stroke-width="1.5"/><path d="M3565.105,797.684h-3.064a7.108,7.108,0,0,0-7.107,7.107V822.85h5.028" transform="translate(-3554.934 -759.685)" fill="none" stroke="#281c49" stroke-miterlimit="10" stroke-width="1.5"/><line x1="21.543" transform="translate(18.444 37.945)" fill="none" stroke="#281c49" stroke-miterlimit="10" stroke-width="1.5"/><path d="M3564.5,794.339v5.006a4.073,4.073,0,0,0,8.147,0v-5.006" transform="translate(-3554.378 -759.911)" fill="none" stroke="#281c49" stroke-linejoin="round" stroke-width="1.5"/><line y2="13.27" transform="translate(37.417 49.895)" fill="none" stroke="#281c49" stroke-linecap="square" stroke-miterlimit="10" stroke-width="1.5"/><line y2="13.27" transform="translate(55.962 49.895)" fill="none" stroke="#281c49" stroke-linecap="square" stroke-miterlimit="10" stroke-width="1.5"/><path d="M3613.927,805.913V822.85h-28.384V804.791a7.108,7.108,0,0,1,7.107-7.107h2.78" transform="translate(-3553.044 -759.685)" fill="none" stroke="#281c49" stroke-linecap="square" stroke-miterlimit="10" stroke-width="1.5"/><path d="M3602.944,797.684h2.958a7.086,7.086,0,0,1,2.067.305" transform="translate(-3552.126 -759.739)" fill="none" stroke="#281c49" stroke-miterlimit="10" stroke-width="1.5"/><rect width="6.256" height="9.389" rx="1.35" stroke-width="1.5" fill="none" stroke="#281c49" stroke-linecap="square" stroke-miterlimit="10" transform="translate(62.112 46.185) rotate(-180)"/><g transform="translate(0.786 0)"><path d="M3579.731,780.553l.832.071a2.465,2.465,0,0,1,2.251,2.662l-.081.967a2.465,2.465,0,0,1-2.662,2.251l-.832-.069" transform="translate(-3554.438 -760.724)" fill="none" stroke="#281c49" stroke-linecap="square" stroke-linejoin="round" stroke-width="1.5"/><path d="M3558.789,784.712l-.849-.071a2.465,2.465,0,0,1-2.25-2.662l.081-.969a2.465,2.465,0,0,1,2.662-2.251l.832.07" transform="translate(-3555.681 -760.819)" fill="none" stroke="#281c49" stroke-linejoin="round" stroke-width="1.5"/><path d="M3564.841,787.2a4.492,4.492,0,0,0,8.206.687" transform="translate(-3555.198 -760.374)" fill="none" stroke="#281c49" stroke-linecap="square" stroke-linejoin="round" stroke-width="1.5"/><line x1="0.111" y2="1.324" transform="translate(19.693 19.147)" stroke-width="1.5" stroke="#281c49" stroke-linecap="square" stroke-linejoin="round" fill="none"/><line y1="1.324" x2="0.111" transform="translate(8.865 18.239)" stroke-width="1.5" stroke="#281c49" stroke-linecap="square" stroke-linejoin="round" fill="none"/><path d="M3582.373,781.746l3.984-16.283a13.5,13.5,0,0,1-7.854-.358l-8.859-3.142a4.263,4.263,0,0,0-4.273.844l-3.157,2.833-1.727-.144a3.635,3.635,0,0,0-3.928,3.319l-.4,4.789a8.159,8.159,0,0,0,.052,1.821l.644,4.546" transform="translate(-3555.657 -761.718)" fill="none" stroke="#281c49" stroke-miterlimit="10" stroke-width="1.5"/><path d="M3581.132,777.25c-1.742.378-9.094,1.687-14.652-2.553a14.062,14.062,0,0,1-2.48-2.436.2.2,0,0,0-.354.113,3.3,3.3,0,0,1-.948,2.231,4.494,4.494,0,0,1-3.3,1.1l-.732,8.725a10.892,10.892,0,0,0,9.945,11.764h0a10.892,10.892,0,0,0,11.764-9.944Z" transform="translate(-3555.525 -761.166)" fill="none" stroke="#281c49" stroke-linecap="square" stroke-miterlimit="10" stroke-width="1.5"/></g><g transform="translate(29.942 0.055)"><path d="M3608.557,775.54l.971,8.7a10.893,10.893,0,0,1-9.618,12.034h0a10.894,10.894,0,0,1-12.034-9.618l-1.033-9.257" transform="translate(-3582.918 -761.043)" fill="none" stroke="#281c49" stroke-linecap="square" stroke-miterlimit="10" stroke-width="1.5"/><path d="M3607.835,778.831l.83-.093a2.467,2.467,0,0,1,2.723,2.177l.107.965a2.465,2.465,0,0,1-2.177,2.723l-.828.093" transform="translate(-3581.811 -760.875)" fill="none" stroke="#281c49" stroke-linecap="square" stroke-linejoin="round" stroke-width="1.5"/><path d="M3588.093,786.985l-.847.095a2.467,2.467,0,0,1-2.723-2.177l-.107-.965a2.465,2.465,0,0,1,2.176-2.723l.83-.093" transform="translate(-3583.046 -760.749)" fill="none" stroke="#281c49" stroke-linecap="square" stroke-linejoin="round" stroke-width="1.5"/><path d="M3594.537,788.271a4.492,4.492,0,0,0,8.185-.914" transform="translate(-3582.512 -760.42)" fill="none" stroke="#281c49" stroke-linecap="square" stroke-linejoin="round" stroke-width="1.5"/><line x2="0.147" y2="1.32" transform="translate(20.507 18.349)" stroke-width="1.5" stroke="#281c49" stroke-linecap="square" stroke-linejoin="round" fill="none"/><line x1="0.147" y1="1.32" transform="translate(9.708 19.554)" stroke-width="1.5" stroke="#281c49" stroke-linecap="square" stroke-linejoin="round" fill="none"/><path d="M3583.123,772.2a10.918,10.918,0,0,0,.059,1.649l.423,3.791.692,6.2,1.026,9.2a4.265,4.265,0,0,0,4.711,3.766l5.886-.657" transform="translate(-3583.115 -761.219)" fill="none" stroke="#281c49" stroke-miterlimit="10" stroke-width="1.5"/><path d="M3603.956,795.791l5.99-.668a4.265,4.265,0,0,0,3.766-4.711l-2.349-21.051a5.687,5.687,0,0,0-6.282-5.019l-2.207.245a3.981,3.981,0,0,0-4.246-2.793l-5.969.666a10.791,10.791,0,0,0-8.375,5.727" transform="translate(-3583.052 -761.769)" fill="none" stroke="#281c49" stroke-miterlimit="10" stroke-width="1.5"/><g transform="translate(3.707 6.765)"><path d="M3608.919,779.082l-.592-5.308a10.833,10.833,0,0,0-2.309-5.58,25.118,25.118,0,0,1-15.219,7.417,25.377,25.377,0,0,1-4.164.117c.012.154.023.307.04.462l.623,5.584" transform="translate(-3586.636 -768.195)" fill="none" stroke="#281c49" stroke-linecap="square" stroke-miterlimit="10" stroke-width="1.5"/></g></g></g><g transform="translate(107.377 567.32)"><path d="M3652.608,793.677v4.46a3.63,3.63,0,0,0,7.26,0v-4.46" transform="translate(-3642.522 -761.572)" fill="none" stroke="#281c49" stroke-linejoin="round" stroke-width="1.5"/><path d="M3665.32,780.645h.743a2.2,2.2,0,0,1,2.2,2.2v.865a2.2,2.2,0,0,1-2.2,2.2h-.743" transform="translate(-3641.824 -762.34)" fill="none" stroke="#281c49" stroke-linecap="square" stroke-linejoin="round" stroke-width="1.5"/><path d="M3647.045,785.9h-.759a2.2,2.2,0,0,1-2.2-2.2v-.865a2.2,2.2,0,0,1,2.2-2.2h.743" transform="translate(-3642.995 -762.34)" fill="none" stroke="#281c49" stroke-linejoin="round" stroke-width="1.5"/><path d="M3652.616,788.376a4,4,0,0,0,7.338,0" transform="translate(-3642.521 -761.896)" fill="none" stroke="#281c49" stroke-linecap="square" stroke-linejoin="round" stroke-width="1.5"/><line y2="1.184" transform="translate(18.558 18.1)" stroke-width="1.5" stroke="#281c49" stroke-linecap="square" stroke-linejoin="round" fill="none"/><line y1="1.184" transform="translate(8.839 18.1)" stroke-width="1.5" stroke="#281c49" stroke-linecap="square" stroke-linejoin="round" fill="none"/><line y2="17.194" transform="translate(21.951 45.97)" fill="none" stroke="#281c49" stroke-linecap="square" stroke-miterlimit="10" stroke-width="1.5"/><line y2="17.194" transform="translate(5.48 45.97)" fill="none" stroke="#281c49" stroke-linecap="square" stroke-miterlimit="10" stroke-width="1.5"/><path d="M3644.089,803.99v20.461h25.29V802.99a6.332,6.332,0,0,0-6.333-6.332h-2.73" transform="translate(-3642.995 -761.287)" fill="none" stroke="#281c49" stroke-linecap="square" stroke-miterlimit="10" stroke-width="1.5"/><path d="M3652.832,796.658H3650.2a6.334,6.334,0,0,0-1.841.273" transform="translate(-3642.77 -761.421)" fill="none" stroke="#281c49" stroke-miterlimit="10" stroke-width="1.5"/><rect width="5.574" height="8.365" rx="1.203" stroke-width="1.5" fill="none" stroke="#281c49" stroke-linecap="square" stroke-miterlimit="10" transform="translate(0 34.223)"/><path d="M3646.9,777.459l-.016,8.15a9.705,9.705,0,0,0,9.705,9.705h0a9.706,9.706,0,0,0,9.705-9.705v-9.968" transform="translate(-3642.847 -762.609)" fill="none" stroke="#281c49" stroke-miterlimit="10" stroke-width="1.5"/><path d="M3644.089,784.132V769.207a2.562,2.562,0,0,1,2.562-2.561h17.1a6.592,6.592,0,0,0,4.971-2.256,6.6,6.6,0,0,1,2.789,5.563,6.7,6.7,0,0,1-6.752,6.436h-16.451a1.267,1.267,0,0,0-1.267,1.268v2.251" transform="translate(-3642.995 -763.294)" fill="none" stroke="#281c49" stroke-linecap="square" stroke-miterlimit="10" stroke-width="1.5"/><line y1="6.337" transform="translate(25.424 12.134)" fill="none" stroke="#281c49" stroke-miterlimit="10" stroke-width="1.5"/><path d="M3678.32,790.847a9.661,9.661,0,0,1-4.921,1.338h0a9.7,9.7,0,0,1-8.212-4.531" transform="translate(-3641.821 -761.933)" fill="none" stroke="#281c49" stroke-linecap="square" stroke-miterlimit="10" stroke-width="1.5"/><path d="M3669.5,791.307v4.46a3.629,3.629,0,0,0,7.258,0v-4.46" transform="translate(-3641.59 -761.711)" fill="none" stroke="#281c49" stroke-linejoin="round" stroke-width="1.5"/><path d="M3669.5,786.005a4,4,0,0,0,7.336,0" transform="translate(-3641.589 -762.034)" fill="none" stroke="#281c49" stroke-linecap="square" stroke-linejoin="round" stroke-width="1.5"/><line y2="1.184" transform="translate(36.373 15.592)" stroke-width="1.5" stroke="#281c49" stroke-linecap="square" stroke-linejoin="round" fill="none"/><line y1="1.184" transform="translate(26.671 15.592)" stroke-width="1.5" stroke="#281c49" stroke-linecap="square" stroke-linejoin="round" fill="none"/><line x1="10.265" transform="translate(26.45 63.165)" fill="none" stroke="#281c49" stroke-miterlimit="10" stroke-width="1.5"/><path d="M3659.5,794.675l.617-.08a36.553,36.553,0,0,1,4.737-.307h5.164" transform="translate(-3642.139 -761.558)" fill="none" stroke="#281c49" stroke-miterlimit="10" stroke-width="1.5"/><line y1="0.621" x2="4.762" transform="translate(5.309 34.071)" fill="none" stroke="#281c49" stroke-miterlimit="10" stroke-width="1.5"/><path d="M3686.909,794.675l-.617-.08a36.553,36.553,0,0,0-4.737-.307h-5.165" transform="translate(-3641.204 -761.558)" fill="none" stroke="#281c49" stroke-miterlimit="10" stroke-width="1.5"/><line x1="4.762" y1="0.621" transform="translate(52.999 34.071)" fill="none" stroke="#281c49" stroke-miterlimit="10" stroke-width="1.5"/><path d="M3669.5,772.291l5.142,3.28a.882.882,0,0,0,.491.15h3.168" transform="translate(-3641.587 -762.877)" fill="none" stroke="#281c49" stroke-miterlimit="10" stroke-width="1.5"/><path d="M3683.276,766.522a6.928,6.928,0,0,0-5.81-3.173h-7.1a1.883,1.883,0,0,0-1.884,1.882" transform="translate(-3641.636 -763.349)" fill="none" stroke="#281c49" stroke-miterlimit="10" stroke-width="1.5"/><g transform="translate(36.78 0.539)"><path d="M3680.672,778.067h3.363a13.018,13.018,0,0,0,9.936-4.592.492.492,0,0,1,.868.3,4.6,4.6,0,0,0,.063.577,4.439,4.439,0,0,0,3.8,3.615,4.534,4.534,0,0,0,1.37-.038v7.8a9.706,9.706,0,0,1-9.706,9.705h0a9.706,9.706,0,0,1-9.705-9.705Z" transform="translate(-3677.716 -763.288)" fill="none" stroke="#281c49" stroke-linecap="square" stroke-miterlimit="10" stroke-width="1.5"/><path d="M3686.382,793.677v4.46a3.629,3.629,0,1,0,7.259,0v-4.46" transform="translate(-3677.414 -762.112)" fill="none" stroke="#281c49" stroke-linejoin="round" stroke-width="1.5"/><path d="M3686.831,795.23h-7.237a1.732,1.732,0,0,1-1.732-1.732V776.505a12.644,12.644,0,0,1,12.645-12.644h0a12.645,12.645,0,0,1,12.646,12.644V793.5a1.732,1.732,0,0,1-1.732,1.732h-7.331" transform="translate(-3677.863 -763.861)" fill="none" stroke="#281c49" stroke-linejoin="round" stroke-width="1.5"/><path d="M3699.094,780.645h.742a2.2,2.2,0,0,1,2.2,2.2v.865a2.2,2.2,0,0,1-2.2,2.2h-.742" transform="translate(-3676.743 -762.881)" fill="none" stroke="#281c49" stroke-linecap="square" stroke-linejoin="round" stroke-width="1.5"/><path d="M3680.819,785.9h-.759a2.2,2.2,0,0,1-2.2-2.2v-.865a2.2,2.2,0,0,1,2.2-2.2h.742" transform="translate(-3677.863 -762.881)" fill="none" stroke="#281c49" stroke-linecap="square" stroke-linejoin="round" stroke-width="1.5"/><path d="M3686.39,787.654a4,4,0,0,0,7.337,0" transform="translate(-3677.413 -762.479)" fill="none" stroke="#281c49" stroke-linecap="square" stroke-linejoin="round" stroke-width="1.5"/><line y2="1.184" transform="translate(17.426 17.559)" stroke-width="1.5" stroke="#281c49" stroke-linecap="square" stroke-linejoin="round" fill="none"/><line y1="1.184" transform="translate(7.744 17.559)" stroke-width="1.5" stroke="#281c49" stroke-linecap="square" stroke-linejoin="round" fill="none"/><rect width="5.574" height="8.365" rx="1.203" stroke-width="1.5" fill="none" stroke="#281c49" stroke-linecap="square" stroke-miterlimit="10" transform="translate(26.385 42.048) rotate(-180)"/><line y2="17.194" transform="translate(4.479 45.431)" fill="none" stroke="#281c49" stroke-linecap="square" stroke-miterlimit="10" stroke-width="1.5"/><line y2="17.194" transform="translate(20.905 45.431)" fill="none" stroke="#281c49" stroke-linecap="square" stroke-miterlimit="10" stroke-width="1.5"/><path d="M3703.153,803.99v20.461h-25.29V802.99a6.332,6.332,0,0,1,6.332-6.332h2.636" transform="translate(-3677.863 -761.826)" fill="none" stroke="#281c49" stroke-linecap="square" stroke-miterlimit="10" stroke-width="1.5"/><path d="M3693.367,796.658H3696a6.334,6.334,0,0,1,1.841.273" transform="translate(-3677.045 -761.962)" fill="none" stroke="#281c49" stroke-miterlimit="10" stroke-width="1.5"/></g></g><g transform="translate(191.597 567.321)"><g transform="translate(0 0)"><g transform="translate(20.08 22.04)"><path d="M3667.921,874.345l-.012,6.385a8.084,8.084,0,0,0,8.084,8.084h0a8.084,8.084,0,0,0,8.083-8.084v-6.5l-9.453.078-1.1-2.75a.633.633,0,0,0-1.175,0l-1.1,2.75Z" transform="translate(-3665.46 -862.098)" fill="none" stroke="#281c49" stroke-linecap="square" stroke-miterlimit="10" stroke-width="1.5"/><path d="M3672.679,887.387V891.1a3.023,3.023,0,0,0,6.046,0v-3.716" transform="translate(-3665.208 -861.242)" fill="none" stroke="#281c49" stroke-linejoin="round" stroke-width="1.5"/><path d="M3673.053,888.68h-6.028a1.442,1.442,0,0,1-1.442-1.442V873.085a10.532,10.532,0,0,1,10.533-10.533h0a10.532,10.532,0,0,1,10.532,10.533v14.153a1.442,1.442,0,0,1-1.442,1.442H3679.1" transform="translate(-3665.583 -862.552)" fill="none" stroke="#281c49" stroke-linejoin="round" stroke-width="1.5"/><path d="M3683.266,876.533h.619a1.829,1.829,0,0,1,1.83,1.829v.721a1.829,1.829,0,0,1-1.83,1.83h-.619" transform="translate(-3664.65 -861.815)" fill="none" stroke="#281c49" stroke-linecap="square" stroke-linejoin="round" stroke-width="1.5"/><path d="M3668.044,880.912h-.631a1.83,1.83,0,0,1-1.83-1.83v-.721a1.829,1.829,0,0,1,1.83-1.829h.619" transform="translate(-3665.583 -861.815)" fill="none" stroke="#281c49" stroke-linecap="square" stroke-linejoin="round" stroke-width="1.5"/><path d="M3672.685,882.37a3.333,3.333,0,0,0,6.111,0" transform="translate(-3665.208 -861.507)" fill="none" stroke="#281c49" stroke-linecap="square" stroke-linejoin="round" stroke-width="1.5"/><line y2="0.986" transform="translate(14.514 14.553)" stroke-width="1.5" stroke="#281c49" stroke-linecap="square" stroke-linejoin="round" fill="none"/><line y1="0.986" transform="translate(6.45 14.553)" stroke-width="1.5" stroke="#281c49" stroke-linecap="square" stroke-linejoin="round" fill="none"/><path d="M3673.053,889.87h-2.2a5.274,5.274,0,0,0-5.274,5.274v7.091h21.064v-7.091a5.274,5.274,0,0,0-5.274-5.274H3679.1" transform="translate(-3665.583 -861.111)" fill="none" stroke="#281c49" stroke-linecap="square" stroke-miterlimit="10" stroke-width="1.5"/></g><line y1="8.271" transform="translate(35.784 15.133)" fill="none" stroke="#281c49" stroke-miterlimit="10" stroke-width="1.5"/><path d="M3701.957,856.5v8.741a10.874,10.874,0,0,1-10.874,10.874h0a10.815,10.815,0,0,1-5.491-1.486" transform="translate(-3644.312 -840.814)" fill="none" stroke="#281c49" stroke-miterlimit="10" stroke-width="1.5"/><path d="M3686.9,874.4v5a4.066,4.066,0,1,0,8.132,0v-5" transform="translate(-3644.296 -839.877)" fill="none" stroke="#281c49" stroke-linejoin="round" stroke-width="1.5"/><path d="M3701.137,859.8h.833a2.461,2.461,0,0,1,2.46,2.461v.97a2.461,2.461,0,0,1-2.46,2.461h-.833" transform="translate(-3643.492 -840.639)" fill="none" stroke="#281c49" stroke-linecap="square" stroke-linejoin="round" stroke-width="1.5"/><path d="M3677.35,862.749v-.485a2.462,2.462,0,0,1,2.461-2.461h.833" transform="translate(-3644.866 -840.638)" fill="none" stroke="#281c49" stroke-linecap="square" stroke-linejoin="round" stroke-width="1.5"/><path d="M3686.9,867.385a4.483,4.483,0,0,0,8.22,0" transform="translate(-3644.295 -840.242)" fill="none" stroke="#281c49" stroke-linecap="square" stroke-linejoin="round" stroke-width="1.5"/><line y2="1.326" transform="translate(52.127 18.943)" stroke-width="1.5" stroke="#281c49" stroke-linecap="square" stroke-linejoin="round" fill="none"/><line y1="1.326" transform="translate(41.192 18.943)" stroke-width="1.5" stroke="#281c49" stroke-linecap="square" stroke-linejoin="round" fill="none"/><line y1="2.867" transform="translate(37.517 48.191)" fill="none" stroke="#281c49" stroke-miterlimit="10" stroke-width="1.5"/><path d="M3700.232,889.023V902.28h-14.639" transform="translate(-3644.312 -839.116)" fill="none" stroke="#281c49" stroke-linecap="square" stroke-miterlimit="10" stroke-width="1.5"/><path d="M3694.62,877.743h3.059a7.094,7.094,0,0,1,7.094,7.094v18.038h-5.018" transform="translate(-3643.835 -839.711)" fill="none" stroke="#281c49" stroke-linecap="square" stroke-miterlimit="10" stroke-width="1.5"/><path d="M3686.9,877.743" transform="translate(-3644.326 -839.7)" fill="none" stroke="#281c49" stroke-linecap="square" stroke-miterlimit="10" stroke-width="1.5"/><path d="M3666.467,877.743" transform="translate(-3645.5 -839.7)" fill="none" stroke="#281c49" stroke-linecap="square" stroke-miterlimit="10" stroke-width="1.5"/><path d="M3656.34,874.4v5a4.066,4.066,0,1,0,8.132,0v-5" transform="translate(-3646.075 -839.877)" fill="none" stroke="#281c49" stroke-linejoin="round" stroke-width="1.5"/><path d="M3670.582,859.8h.833a2.461,2.461,0,0,1,2.46,2.461v.62" transform="translate(-3645.257 -840.638)" fill="none" stroke="#281c49" stroke-linejoin="round" stroke-width="1.5"/><path d="M3650.107,865.694h-.85a2.461,2.461,0,0,1-2.46-2.461v-.97a2.461,2.461,0,0,1,2.46-2.461h.833" transform="translate(-3646.632 -840.639)" fill="none" stroke="#281c49" stroke-linejoin="round" stroke-width="1.5"/><path d="M3656.349,867.385a4.483,4.483,0,0,0,8.219,0" transform="translate(-3646.075 -840.242)" fill="none" stroke="#281c49" stroke-linecap="square" stroke-linejoin="round" stroke-width="1.5"/><line y2="1.326" transform="translate(19.776 18.943)" stroke-width="1.5" stroke="#281c49" stroke-linecap="square" stroke-linejoin="round" fill="none"/><line y1="1.326" transform="translate(8.84 18.943)" stroke-width="1.5" stroke="#281c49" stroke-linecap="square" stroke-linejoin="round" fill="none"/><line y2="2.908" transform="translate(23.586 48.191)" fill="none" stroke="#281c49" stroke-miterlimit="10" stroke-width="1.5"/><line y2="13.257" transform="translate(5.077 49.907)" fill="none" stroke="#281c49" stroke-linecap="square" stroke-miterlimit="10" stroke-width="1.5"/><line x1="1.598" transform="translate(18.429 38.043)" fill="none" stroke="#281c49" stroke-linecap="square" stroke-miterlimit="10" stroke-width="1.5"/><line y1="10.21" transform="translate(25.318 13.263)" fill="none" stroke="#281c49" stroke-miterlimit="10" stroke-width="1.5"/><path d="M3649.942,856.13l-.018,9.131a10.873,10.873,0,0,0,10.874,10.874h0a10.825,10.825,0,0,0,5.611-1.557" transform="translate(-3646.467 -840.833)" fill="none" stroke="#281c49" stroke-miterlimit="10" stroke-width="1.5"/><line x2="1.371" transform="translate(41.196 34.529)" fill="none" stroke="#281c49" stroke-miterlimit="10" stroke-width="1.5"/><path d="M3695.537,876.122h6.017a4.257,4.257,0,0,0,4.257-4.256V850.723a5.676,5.676,0,0,0-5.676-5.676h-2.216a3.973,3.973,0,0,0-3.9-3.241h-5.994a10.786,10.786,0,0,0-10.785,10.785v11.2" transform="translate(-3644.752 -841.579)" fill="none" stroke="#281c49" stroke-miterlimit="10" stroke-width="1.5"/><g transform="translate(35.898 7.744)"><path d="M3702.226,860.069v-5.331a10.831,10.831,0,0,0-1.672-5.792,25.074,25.074,0,0,1-15.921,5.674,25.358,25.358,0,0,1-4.144-.345c-.006.154-.012.307-.012.463v5.608" transform="translate(-3680.479 -848.946)" fill="none" stroke="#281c49" stroke-linecap="square" stroke-miterlimit="10" stroke-width="1.5"/></g><path d="M3646.8,863.709V846.987a2.87,2.87,0,0,1,2.87-2.87h19.164a7.383,7.383,0,0,0,5.568-2.528,7.39,7.39,0,0,1,3.125,6.232,7.51,7.51,0,0,1-7.565,7.212h-18.432a1.419,1.419,0,0,0-1.419,1.419v2.521" transform="translate(-3646.632 -841.59)" fill="none" stroke="#281c49" stroke-linecap="square" stroke-miterlimit="10" stroke-width="1.5"/><line y1="7.1" transform="translate(27.486 12.288)" fill="none" stroke="#281c49" stroke-miterlimit="10" stroke-width="1.5"/><path d="M3656.794,877.743h-3.059a7.094,7.094,0,0,0-7.094,7.094v18.038h19.942" transform="translate(-3646.64 -839.711)" fill="none" stroke="#281c49" stroke-linecap="square" stroke-miterlimit="10" stroke-width="1.5"/></g><line y2="5.131" transform="translate(37.517 58.034)" fill="none" stroke="#281c49" stroke-linecap="square" stroke-miterlimit="10" stroke-width="1.5"/><line y2="5.131" transform="translate(23.585 58.034)" fill="none" stroke="#281c49" stroke-linecap="square" stroke-miterlimit="10" stroke-width="1.5"/></g><text transform="translate(59 646)" fill="#291d4c" font-size="12" font-family="Helvetica-Bold, Helvetica" font-weight="700"><tspan x="-22.002" y="0">парами</tspan></text><text transform="translate(138 646)" fill="#291d4c" font-size="12" font-family="Helvetica-Bold, Helvetica" font-weight="700"><tspan x="-33.973" y="0">с друзьями</tspan></text><text transform="translate(219 646)" fill="#291d4c" font-size="12" font-family="Helvetica-Bold, Helvetica" font-weight="700"><tspan x="-26.139" y="0">семьями</tspan></text><text transform="translate(22.5 538.498)" fill="#2a204c" font-size="14" font-family="Helvetica-Bold, Helvetica" font-weight="700"><tspan x="0" y="0">Состав посещения</tspan></text></g></svg>