<svg xmlns="http://www.w3.org/2000/svg" xmlns:xlink="http://www.w3.org/1999/xlink" width="287.676" height="265" viewBox="0 0 287.676 265">
  <defs>
    <filter id="Path_840" x="15.676" y="0" width="20" height="228" filterUnits="userSpaceOnUse">
      <feOffset dy="3" input="SourceAlpha"/>
      <feGaussianBlur stdDeviation="3" result="blur"/>
      <feFlood flood-opacity="0.161"/>
      <feComposite operator="in" in2="blur"/>
      <feComposite in="SourceGraphic"/>
    </filter>
  </defs>
  <g id="m_graph_1_2" transform="translate(-25.324 -165)">
    <path id="Path_1693" data-name="Path 1693" d="M0,0V165" transform="translate(105 195)" fill="none" stroke="#e3ddd5" stroke-width="2"/>
    <path id="Path_1692" data-name="Path 1692" d="M0,0V165" transform="translate(145 195)" fill="none" stroke="#e3ddd5" stroke-width="2"/>
    <path id="Path_1691" data-name="Path 1691" d="M0,0V251.485" transform="matrix(0, 1, -1, 0, 312.528, 240)" fill="none" stroke="#e3ddd5" stroke-width="2"/>
    <path id="Path_1690" data-name="Path 1690" d="M0,0V251.485" transform="matrix(0, 1, -1, 0, 312.528, 200)" fill="none" stroke="#e3ddd5" stroke-width="2"/>
    <path id="Path_1689" data-name="Path 1689" d="M0,0V165" transform="translate(185 195)" fill="none" stroke="#e3ddd5" stroke-width="2"/>
    <path id="Path_1688" data-name="Path 1688" d="M0,0V165" transform="translate(225 195)" fill="none" stroke="#e3ddd5" stroke-width="2"/>
    <path id="Path_1687" data-name="Path 1687" d="M0,0V165" transform="translate(265 195)" fill="none" stroke="#e3ddd5" stroke-width="2"/>
    <g transform="matrix(1, 0, 0, 1, 25.32, 165)" filter="url(#Path_840)">
      <path id="Path_840-2" data-name="Path 840" d="M0,89.539v210" transform="translate(25.68 -83.54)" fill="none" stroke="#242549" stroke-width="2"/>
    </g>
    <path id="Path_1686" data-name="Path 1686" d="M1.748-5.205.342-5.532A2.33,2.33,0,0,1,2.925-7.28a2.84,2.84,0,0,1,1.9.554,1.673,1.673,0,0,1,.642,1.3,1.56,1.56,0,0,1-.293.925,2.483,2.483,0,0,1-.879.725,2.262,2.262,0,0,1,1.069.691,1.71,1.71,0,0,1,.356,1.1A1.894,1.894,0,0,1,5.032-.459,3.15,3.15,0,0,1,2.964.122,3.561,3.561,0,0,1,1.191-.251a2.341,2.341,0,0,1-.977-1.4l1.323-.435a1.393,1.393,0,0,0,.544.835,1.69,1.69,0,0,0,.837.19,1.415,1.415,0,0,0,1-.3.907.907,0,0,0,.313-.676.846.846,0,0,0-.354-.708,1.755,1.755,0,0,0-1.067-.269H2.48V-4.087h.166a1.531,1.531,0,0,0,1.016-.3.985.985,0,0,0,.352-.791.87.87,0,0,0-.286-.659A1.149,1.149,0,0,0,2.91-6.1,1.11,1.11,0,0,0,1.748-5.205Zm5.2.02H8.223v.762A1.914,1.914,0,0,1,8.9-5.059,1.857,1.857,0,0,1,9.839-5.3a1.977,1.977,0,0,1,1.533.708A2.866,2.866,0,0,1,12-2.622,2.953,2.953,0,0,1,11.367-.6a1.978,1.978,0,0,1-1.538.72A1.748,1.748,0,0,1,9.05-.054,2.625,2.625,0,0,1,8.315-.64V1.973H6.943ZM8.3-2.681a2,2,0,0,0,.347,1.292,1.06,1.06,0,0,0,.845.417.991.991,0,0,0,.8-.383,1.975,1.975,0,0,0,.317-1.257,1.874,1.874,0,0,0-.327-1.211,1.012,1.012,0,0,0-.811-.4,1.053,1.053,0,0,0-.835.388A1.728,1.728,0,0,0,8.3-2.681Zm4.756-2.5h1.318v3.257l2.109-3.257h1.348V0H16.514V-3.315L14.375,0H13.057Zm5.566,0h4.692v1.108h-1.66V0H20.283V-4.077h-1.66ZM27.139-1.65l1.367.229a2.243,2.243,0,0,1-.833,1.145A2.446,2.446,0,0,1,26.25.117a2.32,2.32,0,0,1-2-.884,2.969,2.969,0,0,1-.513-1.787,2.863,2.863,0,0,1,.674-2.019,2.219,2.219,0,0,1,1.7-.73,2.3,2.3,0,0,1,1.826.764,3.381,3.381,0,0,1,.64,2.341H25.142a1.388,1.388,0,0,0,.332.95,1.039,1.039,0,0,0,.791.339.84.84,0,0,0,.542-.176A1.086,1.086,0,0,0,27.139-1.65Zm.078-1.387a1.321,1.321,0,0,0-.308-.906.944.944,0,0,0-.713-.31.953.953,0,0,0-.742.327,1.266,1.266,0,0,0-.288.889Zm2.852-2.148h4.595V0H33.3V-4.072h-1.87v2.329A2.707,2.707,0,0,1,31.221-.5a1.069,1.069,0,0,1-.454.471,2.088,2.088,0,0,1-.8.112A5.619,5.619,0,0,1,29.1,0V-1.011q.044,0,.229.01.215.015.332.015.278,0,.342-.183a4.519,4.519,0,0,0,.063-1.018Zm5.947,0h1.318v3.257l2.109-3.257h1.348V0H39.473V-3.315L37.334,0H36.016Zm8.975,0h3a2.331,2.331,0,0,1,1.382.337,1.178,1.178,0,0,1,.459,1.016,1.194,1.194,0,0,1-.251.757,1.2,1.2,0,0,1-.632.43,1.343,1.343,0,0,1,.8.493,1.313,1.313,0,0,1,.264.791,1.231,1.231,0,0,1-.444.984A1.979,1.979,0,0,1,48.257,0H44.99Zm1.382,2.153h.884a1.98,1.98,0,0,0,.925-.161.542.542,0,0,0,.286-.508.485.485,0,0,0-.266-.466,2.237,2.237,0,0,0-.945-.139h-.884Zm0,2.153h1.084a1.928,1.928,0,0,0,.854-.142.523.523,0,0,0,.269-.508.528.528,0,0,0-.308-.525,3.262,3.262,0,0,0-1.2-.144h-.7Zm11.87-.4V0h-4.81A3.312,3.312,0,0,1,53.9-1.37a9.114,9.114,0,0,1,1.543-1.716,9.705,9.705,0,0,0,1.138-1.172,1.51,1.51,0,0,0,.283-.84.955.955,0,0,0-.247-.706.921.921,0,0,0-.681-.247.914.914,0,0,0-.684.259,1.329,1.329,0,0,0-.293.859l-1.367-.137a2.241,2.241,0,0,1,.767-1.626,2.574,2.574,0,0,1,1.611-.493,2.329,2.329,0,0,1,1.665.571A1.874,1.874,0,0,1,58.242-5.2a2.474,2.474,0,0,1-.173.92,3.743,3.743,0,0,1-.549.916,8.79,8.79,0,0,1-.9.913q-.649.6-.823.791a2.368,2.368,0,0,0-.281.381Zm3.247-5.913a1.956,1.956,0,0,1,1.626.742,4.738,4.738,0,0,1,.7,2.915,4.749,4.749,0,0,1-.7,2.92,1.953,1.953,0,0,1-1.621.732,2.049,2.049,0,0,1-1.685-.8,4.748,4.748,0,0,1-.64-2.864,4.729,4.729,0,0,1,.7-2.91A1.953,1.953,0,0,1,61.489-7.187Zm0,1.138a.685.685,0,0,0-.444.159,1.065,1.065,0,0,0-.3.569A7.846,7.846,0,0,0,60.6-3.53,7.788,7.788,0,0,0,60.728-1.8a1.217,1.217,0,0,0,.32.627.682.682,0,0,0,.442.156.685.685,0,0,0,.444-.159,1.065,1.065,0,0,0,.3-.569,7.777,7.777,0,0,0,.142-1.787,7.788,7.788,0,0,0-.127-1.731,1.234,1.234,0,0,0-.32-.63A.676.676,0,0,0,61.489-6.05Zm7.876,4.775V0h-4.81a3.312,3.312,0,0,1,.469-1.37,9.114,9.114,0,0,1,1.543-1.716,9.705,9.705,0,0,0,1.138-1.172,1.509,1.509,0,0,0,.283-.84.955.955,0,0,0-.247-.706.921.921,0,0,0-.681-.247.914.914,0,0,0-.684.259,1.329,1.329,0,0,0-.293.859l-1.367-.137a2.241,2.241,0,0,1,.767-1.626,2.574,2.574,0,0,1,1.611-.493,2.329,2.329,0,0,1,1.665.571A1.874,1.874,0,0,1,69.365-5.2a2.473,2.473,0,0,1-.173.92,3.743,3.743,0,0,1-.549.916,8.79,8.79,0,0,1-.9.913q-.649.6-.823.791a2.368,2.368,0,0,0-.281.381Zm3.247-5.913a1.956,1.956,0,0,1,1.626.742,4.738,4.738,0,0,1,.7,2.915,4.749,4.749,0,0,1-.7,2.92,1.953,1.953,0,0,1-1.621.732,2.049,2.049,0,0,1-1.685-.8,4.748,4.748,0,0,1-.64-2.864,4.729,4.729,0,0,1,.7-2.91A1.953,1.953,0,0,1,72.612-7.187Zm0,1.138a.685.685,0,0,0-.444.159,1.065,1.065,0,0,0-.3.569,7.846,7.846,0,0,0-.142,1.792A7.789,7.789,0,0,0,71.851-1.8a1.217,1.217,0,0,0,.32.627.682.682,0,0,0,.442.156.685.685,0,0,0,.444-.159,1.065,1.065,0,0,0,.3-.569A7.777,7.777,0,0,0,73.5-3.53a7.789,7.789,0,0,0-.127-1.731,1.234,1.234,0,0,0-.32-.63A.676.676,0,0,0,72.612-6.05Zm6.26.864h3.5v1.108H80.244V0H78.872Zm3.77,2.52a2.805,2.805,0,0,1,.337-1.323,2.313,2.313,0,0,1,.955-.977A2.833,2.833,0,0,1,85.313-5.3a2.589,2.589,0,0,1,1.929.764,2.64,2.64,0,0,1,.752,1.931,2.672,2.672,0,0,1-.759,1.951,2.566,2.566,0,0,1-1.912.774,3.011,3.011,0,0,1-1.36-.322,2.211,2.211,0,0,1-.984-.945A3.148,3.148,0,0,1,82.642-2.666Zm1.406.073a1.718,1.718,0,0,0,.366,1.182,1.164,1.164,0,0,0,.9.41,1.156,1.156,0,0,0,.9-.41A1.742,1.742,0,0,0,86.582-2.6a1.71,1.71,0,0,0-.364-1.172,1.156,1.156,0,0,0-.9-.41,1.164,1.164,0,0,0-.9.41A1.718,1.718,0,0,0,84.048-2.593ZM93.223,0H89.3V1.367H88.184v-2.49h.562a3.044,3.044,0,0,0,.581-1.221A13.159,13.159,0,0,0,89.6-5.186h4.185v4.063h.557v2.49H93.223Zm-.8-1.123,0-2.935h-1.66a5.468,5.468,0,0,1-.684,2.935Zm2.329-4.062h1.46L97.456-1.5l1.211-3.682h1.421L98.257-.2l-.327.9a3.683,3.683,0,0,1-.344.693,1.5,1.5,0,0,1-.376.388,1.644,1.644,0,0,1-.522.232,2.713,2.713,0,0,1-.7.083,3.635,3.635,0,0,1-.776-.083L95.088.947a3.035,3.035,0,0,0,.581.063A.861.861,0,0,0,96.377.73a1.948,1.948,0,0,0,.352-.715ZM106.021,2.1h-.942A9.495,9.495,0,0,1,103.94-.239a7.679,7.679,0,0,1-.391-2.354,7.391,7.391,0,0,1,.483-2.671A9.372,9.372,0,0,1,105.1-7.28h.938a14.812,14.812,0,0,0-.92,2.517,9.314,9.314,0,0,0-.251,2.2,9.388,9.388,0,0,0,.149,1.641,10.706,10.706,0,0,0,.408,1.6Q105.591,1.172,106.021,2.1Zm1.094-7.29h1.7L110.1-1.572l1.3-3.613H113.1V0h-1.167V-3.413L110.664,0h-1.172l-1.206-3.413V0h-1.172Zm7.729,0h4.595V0h-1.367V-4.072H116.2v2.329A2.707,2.707,0,0,1,116-.5a1.069,1.069,0,0,1-.454.471,2.088,2.088,0,0,1-.8.112A5.619,5.619,0,0,1,113.877,0V-1.011q.044,0,.229.01.215.015.332.015.278,0,.342-.183a4.519,4.519,0,0,0,.063-1.018Zm5.928,0h1.372v1.9h1.963v-1.9h1.377V0h-1.377V-2.178h-1.963V0h-1.372Zm8.711,0h1.387v1.24a1.969,1.969,0,0,0,.076.632.712.712,0,0,0,.322.356,1.187,1.187,0,0,0,.623.149,2.417,2.417,0,0,0,.82-.166V-5.186h1.372V0H132.71V-2.07a5.15,5.15,0,0,1-1.221.215,2.35,2.35,0,0,1-1.133-.271,1.475,1.475,0,0,1-.688-.693,2.84,2.84,0,0,1-.186-1.125Zm8.97,3.535,1.367.229a2.243,2.243,0,0,1-.833,1.145,2.446,2.446,0,0,1-1.423.393,2.32,2.32,0,0,1-2-.884,2.969,2.969,0,0,1-.513-1.787,2.863,2.863,0,0,1,.674-2.019,2.219,2.219,0,0,1,1.7-.73,2.3,2.3,0,0,1,1.826.764,3.381,3.381,0,0,1,.64,2.341h-3.437a1.388,1.388,0,0,0,.332.95,1.039,1.039,0,0,0,.791.339.84.84,0,0,0,.542-.176A1.086,1.086,0,0,0,138.452-1.65Zm.078-1.387a1.321,1.321,0,0,0-.308-.906.944.944,0,0,0-.713-.31.953.953,0,0,0-.742.327,1.266,1.266,0,0,0-.288.889Zm2.852-2.148h4.595V0h-1.367V-4.072h-1.87v2.329A2.707,2.707,0,0,1,142.534-.5a1.069,1.069,0,0,1-.454.471,2.088,2.088,0,0,1-.8.112A5.619,5.619,0,0,1,140.415,0V-1.011q.044,0,.229.01.215.015.332.015.278,0,.342-.183a4.52,4.52,0,0,0,.063-1.018Zm5.6,7.29q.405-.869.571-1.333A9.864,9.864,0,0,0,147.861-.3a11.18,11.18,0,0,0,.21-1.15,8.948,8.948,0,0,0,.068-1.116,9.4,9.4,0,0,0-.249-2.2,14.634,14.634,0,0,0-.918-2.517h.933a8.969,8.969,0,0,1,1.145,2.227,7.247,7.247,0,0,1,.408,2.388,8.239,8.239,0,0,1-.322,2.188A9.207,9.207,0,0,1,147.93,2.1Z" transform="translate(88 400)" fill="#242549"/>
    <path id="Path_1685" data-name="Path 1685" d="M1.748-5.205.342-5.532A2.33,2.33,0,0,1,2.925-7.28a2.84,2.84,0,0,1,1.9.554,1.673,1.673,0,0,1,.642,1.3,1.56,1.56,0,0,1-.293.925,2.483,2.483,0,0,1-.879.725,2.262,2.262,0,0,1,1.069.691,1.71,1.71,0,0,1,.356,1.1A1.894,1.894,0,0,1,5.032-.459,3.15,3.15,0,0,1,2.964.122,3.561,3.561,0,0,1,1.191-.251a2.341,2.341,0,0,1-.977-1.4l1.323-.435a1.393,1.393,0,0,0,.544.835,1.69,1.69,0,0,0,.837.19,1.415,1.415,0,0,0,1-.3.907.907,0,0,0,.313-.676.846.846,0,0,0-.354-.708,1.755,1.755,0,0,0-1.067-.269H2.48V-4.087h.166a1.531,1.531,0,0,0,1.016-.3.985.985,0,0,0,.352-.791.87.87,0,0,0-.286-.659A1.149,1.149,0,0,0,2.91-6.1,1.11,1.11,0,0,0,1.748-5.205Zm5.2.02H8.223v.762A1.914,1.914,0,0,1,8.9-5.059,1.857,1.857,0,0,1,9.839-5.3a1.977,1.977,0,0,1,1.533.708A2.866,2.866,0,0,1,12-2.622,2.953,2.953,0,0,1,11.367-.6a1.978,1.978,0,0,1-1.538.72A1.748,1.748,0,0,1,9.05-.054,2.625,2.625,0,0,1,8.315-.64V1.973H6.943ZM8.3-2.681a2,2,0,0,0,.347,1.292,1.06,1.06,0,0,0,.845.417.991.991,0,0,0,.8-.383,1.975,1.975,0,0,0,.317-1.257,1.874,1.874,0,0,0-.327-1.211,1.012,1.012,0,0,0-.811-.4,1.053,1.053,0,0,0-.835.388A1.728,1.728,0,0,0,8.3-2.681Zm4.756-2.5h1.318v3.257l2.109-3.257h1.348V0H16.514V-3.315L14.375,0H13.057Zm5.566,0h4.692v1.108h-1.66V0H20.283V-4.077h-1.66ZM27.139-1.65l1.367.229a2.243,2.243,0,0,1-.833,1.145A2.446,2.446,0,0,1,26.25.117a2.32,2.32,0,0,1-2-.884,2.969,2.969,0,0,1-.513-1.787,2.863,2.863,0,0,1,.674-2.019,2.219,2.219,0,0,1,1.7-.73,2.3,2.3,0,0,1,1.826.764,3.381,3.381,0,0,1,.64,2.341H25.142a1.388,1.388,0,0,0,.332.95,1.039,1.039,0,0,0,.791.339.84.84,0,0,0,.542-.176A1.086,1.086,0,0,0,27.139-1.65Zm.078-1.387a1.321,1.321,0,0,0-.308-.906.944.944,0,0,0-.713-.31.953.953,0,0,0-.742.327,1.266,1.266,0,0,0-.288.889Zm2.852-2.148h4.595V0H33.3V-4.072h-1.87v2.329A2.707,2.707,0,0,1,31.221-.5a1.069,1.069,0,0,1-.454.471,2.088,2.088,0,0,1-.8.112A5.619,5.619,0,0,1,29.1,0V-1.011q.044,0,.229.01.215.015.332.015.278,0,.342-.183a4.519,4.519,0,0,0,.063-1.018Zm5.947,0h1.318v3.257l2.109-3.257h1.348V0H39.473V-3.315L37.334,0H36.016Zm8.975,0h3a2.331,2.331,0,0,1,1.382.337,1.178,1.178,0,0,1,.459,1.016,1.194,1.194,0,0,1-.251.757,1.2,1.2,0,0,1-.632.43,1.343,1.343,0,0,1,.8.493,1.313,1.313,0,0,1,.264.791,1.231,1.231,0,0,1-.444.984A1.979,1.979,0,0,1,48.257,0H44.99Zm1.382,2.153h.884a1.98,1.98,0,0,0,.925-.161.542.542,0,0,0,.286-.508.485.485,0,0,0-.266-.466,2.237,2.237,0,0,0-.945-.139h-.884Zm0,2.153h1.084a1.928,1.928,0,0,0,.854-.142.523.523,0,0,0,.269-.508.528.528,0,0,0-.308-.525,3.262,3.262,0,0,0-1.2-.144h-.7Zm11.87-.4V0h-4.81A3.312,3.312,0,0,1,53.9-1.37a9.114,9.114,0,0,1,1.543-1.716,9.705,9.705,0,0,0,1.138-1.172,1.51,1.51,0,0,0,.283-.84.955.955,0,0,0-.247-.706.921.921,0,0,0-.681-.247.914.914,0,0,0-.684.259,1.329,1.329,0,0,0-.293.859l-1.367-.137a2.241,2.241,0,0,1,.767-1.626,2.574,2.574,0,0,1,1.611-.493,2.329,2.329,0,0,1,1.665.571A1.874,1.874,0,0,1,58.242-5.2a2.474,2.474,0,0,1-.173.92,3.743,3.743,0,0,1-.549.916,8.79,8.79,0,0,1-.9.913q-.649.6-.823.791a2.368,2.368,0,0,0-.281.381Zm3.247-5.913a1.956,1.956,0,0,1,1.626.742,4.738,4.738,0,0,1,.7,2.915,4.749,4.749,0,0,1-.7,2.92,1.953,1.953,0,0,1-1.621.732,2.049,2.049,0,0,1-1.685-.8,4.748,4.748,0,0,1-.64-2.864,4.729,4.729,0,0,1,.7-2.91A1.953,1.953,0,0,1,61.489-7.187Zm0,1.138a.685.685,0,0,0-.444.159,1.065,1.065,0,0,0-.3.569A7.846,7.846,0,0,0,60.6-3.53,7.788,7.788,0,0,0,60.728-1.8a1.217,1.217,0,0,0,.32.627.682.682,0,0,0,.442.156.685.685,0,0,0,.444-.159,1.065,1.065,0,0,0,.3-.569,7.777,7.777,0,0,0,.142-1.787,7.788,7.788,0,0,0-.127-1.731,1.234,1.234,0,0,0-.32-.63A.676.676,0,0,0,61.489-6.05ZM68.242,0H66.87V-5.171A4.73,4.73,0,0,1,65.1-4.131V-5.376a3.968,3.968,0,0,0,1.167-.667,2.533,2.533,0,0,0,.864-1.145h1.113Zm2.08-1.655L71.65-1.8a.961.961,0,0,0,.254.6.753.753,0,0,0,.542.2.884.884,0,0,0,.723-.391,3.327,3.327,0,0,0,.381-1.621,1.638,1.638,0,0,1-1.294.6A1.934,1.934,0,0,1,70.8-3.069a2.377,2.377,0,0,1-.613-1.7,2.413,2.413,0,0,1,.647-1.755,2.2,2.2,0,0,1,1.648-.667,2.218,2.218,0,0,1,1.787.842,4.352,4.352,0,0,1,.7,2.771,4.405,4.405,0,0,1-.728,2.832,2.354,2.354,0,0,1-1.895.869A2,2,0,0,1,70.986-.32,2.157,2.157,0,0,1,70.322-1.655Zm3.105-3a1.565,1.565,0,0,0-.305-1.03.9.9,0,0,0-.706-.366.791.791,0,0,0-.632.3,1.532,1.532,0,0,0-.251.984,1.563,1.563,0,0,0,.273,1.018.858.858,0,0,0,.684.325.849.849,0,0,0,.667-.312A1.365,1.365,0,0,0,73.428-4.653Zm5.444-.532h3.5v1.108H80.244V0H78.872Zm3.77,2.52a2.805,2.805,0,0,1,.337-1.323,2.313,2.313,0,0,1,.955-.977A2.833,2.833,0,0,1,85.313-5.3a2.589,2.589,0,0,1,1.929.764,2.64,2.64,0,0,1,.752,1.931,2.672,2.672,0,0,1-.759,1.951,2.566,2.566,0,0,1-1.912.774,3.011,3.011,0,0,1-1.36-.322,2.211,2.211,0,0,1-.984-.945A3.148,3.148,0,0,1,82.642-2.666Zm1.406.073a1.718,1.718,0,0,0,.366,1.182,1.164,1.164,0,0,0,.9.41,1.156,1.156,0,0,0,.9-.41A1.742,1.742,0,0,0,86.582-2.6a1.71,1.71,0,0,0-.364-1.172,1.156,1.156,0,0,0-.9-.41,1.164,1.164,0,0,0-.9.41A1.718,1.718,0,0,0,84.048-2.593ZM93.223,0H89.3V1.367H88.184v-2.49h.562a3.044,3.044,0,0,0,.581-1.221A13.159,13.159,0,0,0,89.6-5.186h4.185v4.063h.557v2.49H93.223Zm-.8-1.123,0-2.935h-1.66a5.468,5.468,0,0,1-.684,2.935Zm2.329-4.062h1.46L97.456-1.5l1.211-3.682h1.421L98.257-.2l-.327.9a3.683,3.683,0,0,1-.344.693,1.5,1.5,0,0,1-.376.388,1.644,1.644,0,0,1-.522.232,2.713,2.713,0,0,1-.7.083,3.635,3.635,0,0,1-.776-.083L95.088.947a3.035,3.035,0,0,0,.581.063A.861.861,0,0,0,96.377.73a1.948,1.948,0,0,0,.352-.715ZM106.021,2.1h-.942A9.495,9.495,0,0,1,103.94-.239a7.679,7.679,0,0,1-.391-2.354,7.391,7.391,0,0,1,.483-2.671A9.372,9.372,0,0,1,105.1-7.28h.938a14.812,14.812,0,0,0-.92,2.517,9.314,9.314,0,0,0-.251,2.2,9.388,9.388,0,0,0,.149,1.641,10.706,10.706,0,0,0,.408,1.6Q105.591,1.172,106.021,2.1Zm1.094-7.29h1.7L110.1-1.572l1.3-3.613H113.1V0h-1.167V-3.413L110.664,0h-1.172l-1.206-3.413V0h-1.172Zm7.729,0h4.595V0h-1.367V-4.072H116.2v2.329A2.707,2.707,0,0,1,116-.5a1.069,1.069,0,0,1-.454.471,2.088,2.088,0,0,1-.8.112A5.619,5.619,0,0,1,113.877,0V-1.011q.044,0,.229.01.215.015.332.015.278,0,.342-.183a4.519,4.519,0,0,0,.063-1.018Zm5.928,0h1.372v1.9h1.963v-1.9h1.377V0h-1.377V-2.178h-1.963V0h-1.372Zm8.711,0h1.387v1.24a1.969,1.969,0,0,0,.076.632.712.712,0,0,0,.322.356,1.187,1.187,0,0,0,.623.149,2.417,2.417,0,0,0,.82-.166V-5.186h1.372V0H132.71V-2.07a5.15,5.15,0,0,1-1.221.215,2.35,2.35,0,0,1-1.133-.271,1.475,1.475,0,0,1-.688-.693,2.84,2.84,0,0,1-.186-1.125Zm8.97,3.535,1.367.229a2.243,2.243,0,0,1-.833,1.145,2.446,2.446,0,0,1-1.423.393,2.32,2.32,0,0,1-2-.884,2.969,2.969,0,0,1-.513-1.787,2.863,2.863,0,0,1,.674-2.019,2.219,2.219,0,0,1,1.7-.73,2.3,2.3,0,0,1,1.826.764,3.381,3.381,0,0,1,.64,2.341h-3.437a1.388,1.388,0,0,0,.332.95,1.039,1.039,0,0,0,.791.339.84.84,0,0,0,.542-.176A1.086,1.086,0,0,0,138.452-1.65Zm.078-1.387a1.321,1.321,0,0,0-.308-.906.944.944,0,0,0-.713-.31.953.953,0,0,0-.742.327,1.266,1.266,0,0,0-.288.889Zm2.852-2.148h4.595V0h-1.367V-4.072h-1.87v2.329A2.707,2.707,0,0,1,142.534-.5a1.069,1.069,0,0,1-.454.471,2.088,2.088,0,0,1-.8.112A5.619,5.619,0,0,1,140.415,0V-1.011q.044,0,.229.01.215.015.332.015.278,0,.342-.183a4.52,4.52,0,0,0,.063-1.018Zm5.6,7.29q.405-.869.571-1.333A9.864,9.864,0,0,0,147.861-.3a11.18,11.18,0,0,0,.21-1.15,8.948,8.948,0,0,0,.068-1.116,9.4,9.4,0,0,0-.249-2.2,14.634,14.634,0,0,0-.918-2.517h.933a8.969,8.969,0,0,1,1.145,2.227,7.247,7.247,0,0,1,.408,2.388,8.239,8.239,0,0,1-.322,2.188A9.207,9.207,0,0,1,147.93,2.1Z" transform="translate(88 425)" fill="#242549"/>
    <path id="Path_1684" data-name="Path 1684" d="M0,0H17V17H0Z" transform="translate(63 388)" fill="#4361b4"/>
    <path id="Path_1683" data-name="Path 1683" d="M0,0H17V17H0Z" transform="translate(63 413)" fill="#ffa726"/>
    <path id="Path_1611" data-name="Path 1611" d="M-15.048-11.748v-1.716a2.617,2.617,0,0,0,1.782-.484,3.61,3.61,0,0,0,.88-1.452h1.628V0h-2.42V-11.748Zm9.438-.11v8.316q0,1.518,1.254,1.518T-3.1-3.542v-8.316q0-1.518-1.254-1.518T-5.61-11.858ZM-8.03-3.7V-11.7a4.03,4.03,0,0,1,.946-2.86,3.553,3.553,0,0,1,2.728-1.012,3.553,3.553,0,0,1,2.728,1.012A4.03,4.03,0,0,1-.682-11.7V-3.7a4.03,4.03,0,0,1-.946,2.86A3.553,3.553,0,0,1-4.356.176,3.553,3.553,0,0,1-7.084-.836,4.03,4.03,0,0,1-8.03-3.7Z" transform="translate(41 368)" fill="#242549"/>
    <path id="Path_1610" data-name="Path 1610" d="M-15.048-11.748v-1.716a2.617,2.617,0,0,0,1.782-.484,3.61,3.61,0,0,0,.88-1.452h1.628V0h-2.42V-11.748Zm7.106,6.776h2.288v1.43q0,1.5,1.254,1.5t1.254-1.5V-6.93q0-1.518-1.254-1.518T-5.654-6.93v.462H-7.942L-7.5-15.4h6.38v2.2h-4.2l-.2,3.674A2.3,2.3,0,0,1-3.41-10.648q2.684,0,2.684,3.52V-3.7A4.083,4.083,0,0,1-1.65-.825a3.472,3.472,0,0,1-2.684,1,3.472,3.472,0,0,1-2.684-1A4.083,4.083,0,0,1-7.942-3.7Z" transform="translate(41 328)" fill="#242549"/>
    <path id="Path_1609" data-name="Path 1609" d="M-11.748-11.616a2.211,2.211,0,0,0-.319-1.375A1.145,1.145,0,0,0-13-13.376q-1.254,0-1.254,1.518v1.65h-2.288v-1.5a4.083,4.083,0,0,1,.924-2.871,3.472,3.472,0,0,1,2.684-1,3.472,3.472,0,0,1,2.684,1A4.083,4.083,0,0,1-9.328-11.7a6.675,6.675,0,0,1-.495,2.552,7.841,7.841,0,0,1-1.21,2.068q-.715.858-1.419,1.606a10.893,10.893,0,0,0-1.2,1.507,2.66,2.66,0,0,0-.495,1.441,1.822,1.822,0,0,0,.022.33h4.576V0h-7V-1.892a5.3,5.3,0,0,1,.5-2.3,7.5,7.5,0,0,1,1.2-1.826q.7-.781,1.408-1.54a7.159,7.159,0,0,0,1.2-1.793A5.179,5.179,0,0,0-11.748-11.616Zm6.138-.242v8.316q0,1.518,1.254,1.518T-3.1-3.542v-8.316q0-1.518-1.254-1.518T-5.61-11.858ZM-8.03-3.7V-11.7a4.03,4.03,0,0,1,.946-2.86,3.553,3.553,0,0,1,2.728-1.012,3.553,3.553,0,0,1,2.728,1.012A4.03,4.03,0,0,1-.682-11.7V-3.7a4.03,4.03,0,0,1-.946,2.86A3.553,3.553,0,0,1-4.356.176,3.553,3.553,0,0,1-7.084-.836,4.03,4.03,0,0,1-8.03-3.7Z" transform="translate(42 288)" fill="#242549"/>
    <path id="Path_1608" data-name="Path 1608" d="M-11.748-11.616a2.211,2.211,0,0,0-.319-1.375A1.145,1.145,0,0,0-13-13.376q-1.254,0-1.254,1.518v1.65h-2.288v-1.5a4.083,4.083,0,0,1,.924-2.871,3.472,3.472,0,0,1,2.684-1,3.472,3.472,0,0,1,2.684,1A4.083,4.083,0,0,1-9.328-11.7a6.675,6.675,0,0,1-.495,2.552,7.841,7.841,0,0,1-1.21,2.068q-.715.858-1.419,1.606a10.893,10.893,0,0,0-1.2,1.507,2.66,2.66,0,0,0-.495,1.441,1.822,1.822,0,0,0,.022.33h4.576V0h-7V-1.892a5.3,5.3,0,0,1,.5-2.3,7.5,7.5,0,0,1,1.2-1.826q.7-.781,1.408-1.54a7.159,7.159,0,0,0,1.2-1.793A5.179,5.179,0,0,0-11.748-11.616Zm3.806,6.644h2.288v1.43q0,1.5,1.254,1.5t1.254-1.5V-6.93q0-1.518-1.254-1.518T-5.654-6.93v.462H-7.942L-7.5-15.4h6.38v2.2h-4.2l-.2,3.674A2.3,2.3,0,0,1-3.41-10.648q2.684,0,2.684,3.52V-3.7A4.083,4.083,0,0,1-1.65-.825a3.472,3.472,0,0,1-2.684,1,3.472,3.472,0,0,1-2.684-1A4.083,4.083,0,0,1-7.942-3.7Z" transform="translate(42 248)" fill="#242549"/>
    <path id="Path_1607" data-name="Path 1607" d="M-11.88-10.758v-.858a2.211,2.211,0,0,0-.319-1.375,1.145,1.145,0,0,0-.935-.385q-1.254,0-1.254,1.518v.99h-2.288V-11.7a4.083,4.083,0,0,1,.924-2.871,3.472,3.472,0,0,1,2.684-1,3.472,3.472,0,0,1,2.684,1A4.083,4.083,0,0,1-9.46-11.7v.4q0,2.464-1.694,3.168,1.694.748,1.694,3.234V-3.7a4.083,4.083,0,0,1-.924,2.871,3.472,3.472,0,0,1-2.684,1,3.472,3.472,0,0,1-2.684-1A4.083,4.083,0,0,1-16.676-3.7V-4.972h2.288v1.43q0,1.518,1.254,1.518a1.145,1.145,0,0,0,.935-.385,2.165,2.165,0,0,0,.319-1.353v-1.21a2.376,2.376,0,0,0-.374-1.507,1.486,1.486,0,0,0-1.21-.451h-.814v-2.2h.946A1.453,1.453,0,0,0-12.243-9.5,1.767,1.767,0,0,0-11.88-10.758Zm6.27-1.1v8.316q0,1.518,1.254,1.518T-3.1-3.542v-8.316q0-1.518-1.254-1.518T-5.61-11.858ZM-8.03-3.7V-11.7a4.03,4.03,0,0,1,.946-2.86,3.553,3.553,0,0,1,2.728-1.012,3.553,3.553,0,0,1,2.728,1.012A4.03,4.03,0,0,1-.682-11.7V-3.7a4.03,4.03,0,0,1-.946,2.86A3.553,3.553,0,0,1-4.356.176,3.553,3.553,0,0,1-7.084-.836,4.03,4.03,0,0,1-8.03-3.7Z" transform="translate(42 208)" fill="#242549"/>
    <path id="Path_1682" data-name="Path 1682" d="M252,0H0" transform="translate(61 360)" fill="none" stroke="#e3ddd5" stroke-width="2"/>
    <path id="Path_1681" data-name="Path 1681" d="M0,0V251.485" transform="matrix(0, 1, -1, 0, 312.528, 320)" fill="none" stroke="#e3ddd5" stroke-width="2"/>
    <path id="Path_1680" data-name="Path 1680" d="M0,0V251.485" transform="matrix(0, 1, -1, 0, 312.528, 280)" fill="none" stroke="#e3ddd5" stroke-width="2"/>
    <path id="Path_1679" data-name="Path 1679" d="M-5.613,0V-3.586h-.352a2.031,2.031,0,0,0-1.157.246A7.088,7.088,0,0,0-8.273-1.869L-9.527,0H-11.6l1.049-1.676a10.266,10.266,0,0,1,.99-1.4,3.786,3.786,0,0,1,.926-.718,2.692,2.692,0,0,1-1.734-.835,2.36,2.36,0,0,1-.533-1.55,2.49,2.49,0,0,1,.4-1.392,1.925,1.925,0,0,1,1.043-.814A6.753,6.753,0,0,1-7.529-8.59h3.65V0Zm0-7.137H-6.967a12.071,12.071,0,0,0-1.356.047.9.9,0,0,0-.56.316,1.033,1.033,0,0,0-.234.7,1.075,1.075,0,0,0,.226.718.958.958,0,0,0,.574.331A9.756,9.756,0,0,0-6.9-4.957h1.283Zm3.41.914H-.557v2.279H1.8V-6.223H3.451V0H1.8V-2.613H-.557V0H-2.2Zm7.33,0h3.6a2.8,2.8,0,0,1,1.658.4A1.414,1.414,0,0,1,10.939-4.6a1.433,1.433,0,0,1-.3.908,1.438,1.438,0,0,1-.759.516,1.612,1.612,0,0,1,.961.592,1.576,1.576,0,0,1,.316.949,1.478,1.478,0,0,1-.533,1.181A2.375,2.375,0,0,1,9.047,0H5.127ZM6.785-3.639H7.846a2.376,2.376,0,0,0,1.11-.193A.65.65,0,0,0,9.3-4.441.582.582,0,0,0,8.979-5a2.685,2.685,0,0,0-1.134-.167H6.785Zm0,2.584h1.3a2.314,2.314,0,0,0,1.025-.17.628.628,0,0,0,.322-.609.634.634,0,0,0-.369-.63,3.914,3.914,0,0,0-1.436-.173H6.785Z" transform="translate(82 375)" fill="#242549"/>
    <path id="Path_1678" data-name="Path 1678" d="M-6.176-1V0h-1.7V-1a3.975,3.975,0,0,1-2.9-1.017,3.385,3.385,0,0,1-.847-2.353,3.257,3.257,0,0,1,.885-2.388,4.125,4.125,0,0,1,2.865-.976v-.85h1.7v.85a4,4,0,0,1,2.9,1.008,3.363,3.363,0,0,1,.853,2.361,3.364,3.364,0,0,1-.85,2.353A3.993,3.993,0,0,1-6.176-1Zm0-1.447a2.743,2.743,0,0,0,1.169-.229,1.436,1.436,0,0,0,.694-.615,2.475,2.475,0,0,0,.205-1.131q0-1.863-2.068-1.863Zm-1.7,0V-6.287A2.164,2.164,0,0,0-9.457-5.8a2.019,2.019,0,0,0-.486,1.479Q-9.943-2.449-7.875-2.449ZM2.561-1.98,4.2-1.705a2.691,2.691,0,0,1-1,1.374A2.935,2.935,0,0,1,1.494.141,2.784,2.784,0,0,1-.908-.92a3.563,3.563,0,0,1-.615-2.145A3.436,3.436,0,0,1-.715-5.487,2.663,2.663,0,0,1,1.33-6.363a2.762,2.762,0,0,1,2.191.917,4.057,4.057,0,0,1,.768,2.81H.164a1.666,1.666,0,0,0,.4,1.14,1.246,1.246,0,0,0,.949.407,1.008,1.008,0,0,0,.65-.211A1.3,1.3,0,0,0,2.561-1.98Zm.094-1.664a1.585,1.585,0,0,0-.369-1.087A1.133,1.133,0,0,0,1.43-5.1a1.144,1.144,0,0,0-.891.393A1.519,1.519,0,0,0,.193-3.645ZM5.648-6.223h3.6a2.8,2.8,0,0,1,1.658.4A1.414,1.414,0,0,1,11.461-4.6a1.433,1.433,0,0,1-.3.908,1.438,1.438,0,0,1-.759.516,1.612,1.612,0,0,1,.961.592,1.576,1.576,0,0,1,.316.949,1.478,1.478,0,0,1-.533,1.181A2.375,2.375,0,0,1,9.568,0H5.648ZM7.307-3.639H8.367a2.376,2.376,0,0,0,1.11-.193.65.65,0,0,0,.343-.609A.582.582,0,0,0,9.5-5a2.685,2.685,0,0,0-1.134-.167H7.307Zm0,2.584h1.3a2.314,2.314,0,0,0,1.025-.17.628.628,0,0,0,.322-.609.634.634,0,0,0-.369-.63A3.914,3.914,0,0,0,8.15-2.637H7.307Z" transform="translate(122 375)" fill="#242549"/>
    <path id="Path_1677" data-name="Path 1677" d="M-14.083,0V-8.59h2.6L-9.929-2.73-8.388-8.59h2.6V0H-7.4V-6.762L-9.1,0h-1.67l-1.7-6.762V0ZM-2.7-4.324l-1.494-.27A2.327,2.327,0,0,1-3.325-5.93,3.173,3.173,0,0,1-1.5-6.363,3.94,3.94,0,0,1,.144-6.1,1.636,1.636,0,0,1,.9-5.44a3.4,3.4,0,0,1,.22,1.474L1.1-2.045a6.672,6.672,0,0,0,.079,1.21,3.532,3.532,0,0,0,.3.835H-.149Q-.214-.164-.308-.486-.349-.633-.366-.68a2.968,2.968,0,0,1-.9.615A2.584,2.584,0,0,1-2.294.141,2.12,2.12,0,0,1-3.809-.381,1.733,1.733,0,0,1-4.362-1.7a1.77,1.77,0,0,1,.252-.94A1.646,1.646,0,0,1-3.4-3.272a5.518,5.518,0,0,1,1.31-.384,8.971,8.971,0,0,0,1.6-.4v-.164A.853.853,0,0,0-.729-4.9a1.4,1.4,0,0,0-.885-.2,1.178,1.178,0,0,0-.686.173A1.2,1.2,0,0,0-2.7-4.324ZM-.5-2.988a10.292,10.292,0,0,1-1,.252,3.018,3.018,0,0,0-.9.287.687.687,0,0,0-.322.58.808.808,0,0,0,.258.6A.9.9,0,0,0-1.8-1.02a1.426,1.426,0,0,0,.85-.293A1.031,1.031,0,0,0-.56-1.857,3.251,3.251,0,0,0-.5-2.66ZM2.7-6.223H4.233v.914a2.3,2.3,0,0,1,.809-.762,2.229,2.229,0,0,1,1.131-.293,2.372,2.372,0,0,1,1.84.85,3.439,3.439,0,0,1,.756,2.367A3.543,3.543,0,0,1,8.007-.724,2.373,2.373,0,0,1,6.161.141a2.1,2.1,0,0,1-.935-.205,3.15,3.15,0,0,1-.882-.7V2.367H2.7ZM4.327-3.217a2.4,2.4,0,0,0,.416,1.55,1.273,1.273,0,0,0,1.014.5,1.19,1.19,0,0,0,.955-.46,2.37,2.37,0,0,0,.381-1.509A2.249,2.249,0,0,0,6.7-4.588a1.214,1.214,0,0,0-.973-.475,1.263,1.263,0,0,0-1,.466A2.073,2.073,0,0,0,4.327-3.217ZM9.179-6.223H14.81v1.33H12.817V0H11.171V-4.893H9.179Z" transform="translate(162 375)" fill="#242549"/>
    <path id="Path_1676" data-name="Path 1676" d="M-3,0H-4.89l-.75-1.951H-9.073L-9.782,0h-1.84l3.346-8.59h1.834ZM-6.2-3.4-7.38-6.586-8.54-3.4Zm4.037-2.824H3.366V0H1.72V-4.893H-.513V0H-2.159Zm7.266,0H6.642v.914A2.3,2.3,0,0,1,7.45-6.07a2.229,2.229,0,0,1,1.131-.293,2.372,2.372,0,0,1,1.84.85,3.439,3.439,0,0,1,.756,2.367,3.543,3.543,0,0,1-.762,2.423A2.373,2.373,0,0,1,8.569.141a2.1,2.1,0,0,1-.935-.205,3.15,3.15,0,0,1-.882-.7V2.367H5.106ZM6.735-3.217a2.4,2.4,0,0,0,.416,1.55,1.273,1.273,0,0,0,1.014.5,1.19,1.19,0,0,0,.955-.46A2.37,2.37,0,0,0,9.5-3.135a2.249,2.249,0,0,0-.393-1.453,1.214,1.214,0,0,0-.973-.475,1.263,1.263,0,0,0-1,.466A2.073,2.073,0,0,0,6.735-3.217Z" transform="translate(202 375)" fill="#242549"/>
    <path id="Path_1675" data-name="Path 1675" d="M-11.247,0V-8.59h2.6L-7.093-2.73-5.552-8.59h2.6V0H-4.562V-6.762L-6.267,0h-1.67l-1.7-6.762V0ZM.138-4.324l-1.494-.27A2.327,2.327,0,0,1-.489-5.93a3.173,3.173,0,0,1,1.828-.434A3.94,3.94,0,0,1,2.979-6.1a1.636,1.636,0,0,1,.759.662,3.4,3.4,0,0,1,.22,1.474L3.94-2.045A6.672,6.672,0,0,0,4.02-.835a3.532,3.532,0,0,0,.3.835H2.687q-.064-.164-.158-.486Q2.487-.633,2.47-.68a2.968,2.968,0,0,1-.9.615A2.584,2.584,0,0,1,.542.141,2.12,2.12,0,0,1-.973-.381,1.733,1.733,0,0,1-1.526-1.7a1.77,1.77,0,0,1,.252-.94,1.646,1.646,0,0,1,.706-.633,5.518,5.518,0,0,1,1.31-.384,8.971,8.971,0,0,0,1.6-.4v-.164A.853.853,0,0,0,2.106-4.9a1.4,1.4,0,0,0-.885-.2,1.178,1.178,0,0,0-.686.173A1.2,1.2,0,0,0,.138-4.324Zm2.2,1.336a10.292,10.292,0,0,1-1,.252,3.018,3.018,0,0,0-.9.287.687.687,0,0,0-.322.58.808.808,0,0,0,.258.6.9.9,0,0,0,.656.252,1.426,1.426,0,0,0,.85-.293,1.031,1.031,0,0,0,.393-.545,3.251,3.251,0,0,0,.064-.8Zm3.2-3.234H7.122v3.908L9.653-6.223h1.617V0H9.688V-3.979L7.122,0H5.54ZM9.483-8.748h.8A1.858,1.858,0,0,1,9.727-7.5a1.791,1.791,0,0,1-1.269.454A1.791,1.791,0,0,1,7.189-7.5a1.858,1.858,0,0,1-.56-1.251h.8a.9.9,0,0,0,.293.63,1.1,1.1,0,0,0,.732.214,1.1,1.1,0,0,0,.732-.214A.9.9,0,0,0,9.483-8.748Z" transform="translate(242 375)" fill="#242549"/>
    <g id="Path_1674" data-name="Path 1674" transform="translate(63 216)" fill="#ff8a65">
      <path d="M 25.5 142.5 L 0.5 142.5 L 0.5 0.5 L 25.5 0.5 L 25.5 142.5 Z" stroke="none"/>
      <path d="M 1 1 L 1 142 L 25 142 L 25 1 L 1 1 M 0 0 L 26 0 L 26 143 L 0 143 L 0 0 Z" stroke="none" fill="#ff8965"/>
    </g>
    <path id="Path_1673" data-name="Path 1673" d="M-9.428-1.236V-3.469h-2.25V-5.01h2.25V-7.242h1.5V-5.01h2.256v1.541H-7.928v2.232Zm7.553-7.389a2.347,2.347,0,0,1,1.951.891,5.686,5.686,0,0,1,.838,3.5A5.7,5.7,0,0,1,.07-.732,2.343,2.343,0,0,1-1.875.146,2.458,2.458,0,0,1-3.9-.817a5.7,5.7,0,0,1-.768-3.437A5.675,5.675,0,0,1-3.82-7.746,2.343,2.343,0,0,1-1.875-8.625Zm0,1.365a.823.823,0,0,0-.533.19,1.278,1.278,0,0,0-.363.683,9.415,9.415,0,0,0-.17,2.15,9.346,9.346,0,0,0,.152,2.077,1.46,1.46,0,0,0,.384.753.819.819,0,0,0,.53.188.823.823,0,0,0,.533-.19,1.278,1.278,0,0,0,.363-.683,9.332,9.332,0,0,0,.17-2.145A9.346,9.346,0,0,0-.961-6.313a1.481,1.481,0,0,0-.384-.756A.811.811,0,0,0-1.875-7.26Zm3.9.791A2.477,2.477,0,0,1,2.534-8.18a1.766,1.766,0,0,1,1.374-.557,1.807,1.807,0,0,1,1.4.554,2.475,2.475,0,0,1,.507,1.714,2.477,2.477,0,0,1-.507,1.711A1.766,1.766,0,0,1,3.938-4.2a1.807,1.807,0,0,1-1.4-.554A2.475,2.475,0,0,1,2.027-6.469ZM3.311-6.48A2.22,2.22,0,0,0,3.5-5.355a.466.466,0,0,0,.4.211.471.471,0,0,0,.41-.211A2.28,2.28,0,0,0,4.506-6.48,2.242,2.242,0,0,0,4.318-7.6a.467.467,0,0,0-.41-.217.466.466,0,0,0-.4.211A2.22,2.22,0,0,0,3.311-6.48ZM5.162.328H3.943L8.52-8.736H9.7Zm2.66-2.256a2.477,2.477,0,0,1,.507-1.711A1.78,1.78,0,0,1,9.715-4.2a1.788,1.788,0,0,1,1.392.557,2.477,2.477,0,0,1,.507,1.711,2.487,2.487,0,0,1-.507,1.717A1.766,1.766,0,0,1,9.732.346a1.8,1.8,0,0,1-1.4-.557A2.487,2.487,0,0,1,7.822-1.928Zm1.283-.006A2.183,2.183,0,0,0,9.3-.814.462.462,0,0,0,9.7-.6a.457.457,0,0,0,.4-.211A2.22,2.22,0,0,0,10.3-1.934a2.28,2.28,0,0,0-.187-1.125A.471.471,0,0,0,9.7-3.27a.457.457,0,0,0-.4.211A2.22,2.22,0,0,0,9.105-1.934Z" transform="translate(82 197)" fill="#242549"/>
    <path id="Path_1672" data-name="Path 1672" d="M-12.765-1.236V-3.469h-2.25V-5.01h2.25V-7.242h1.5V-5.01h2.256v1.541h-2.256v2.232Zm10.33-.293V0H-8.206a3.975,3.975,0,0,1,.563-1.644A10.937,10.937,0,0,1-5.792-3.7,11.646,11.646,0,0,0-4.427-5.109a1.811,1.811,0,0,0,.34-1.008,1.146,1.146,0,0,0-.3-.847,1.1,1.1,0,0,0-.817-.3,1.1,1.1,0,0,0-.82.311,1.6,1.6,0,0,0-.352,1.031l-1.641-.164a2.69,2.69,0,0,1,.92-1.951,3.089,3.089,0,0,1,1.934-.592,2.8,2.8,0,0,1,2,.686,2.249,2.249,0,0,1,.727,1.705,2.968,2.968,0,0,1-.208,1.1,4.492,4.492,0,0,1-.659,1.1,10.549,10.549,0,0,1-1.078,1.1q-.779.715-.987.949a2.842,2.842,0,0,0-.337.457ZM.091-4.635a1.92,1.92,0,0,1-.929-.741,1.937,1.937,0,0,1-.29-1.034A2.08,2.08,0,0,1-.457-8,2.689,2.689,0,0,1,1.45-8.625,2.693,2.693,0,0,1,3.352-8,2.071,2.071,0,0,1,4.028-6.41a1.873,1.873,0,0,1-.311,1.063,1.966,1.966,0,0,1-.873.712A2.3,2.3,0,0,1,3.932-3.8,2.217,2.217,0,0,1,4.3-2.525,2.589,2.589,0,0,1,3.545-.592,2.758,2.758,0,0,1,1.526.152,3.051,3.051,0,0,1-.425-.463a2.4,2.4,0,0,1-.92-1.992A2.464,2.464,0,0,1-1-3.735,2.226,2.226,0,0,1,.091-4.635Zm.34-1.658a1.031,1.031,0,0,0,.278.768,1.008,1.008,0,0,0,.741.275,1.02,1.02,0,0,0,.75-.278A1.035,1.035,0,0,0,2.481-6.3,1,1,0,0,0,2.2-7.04a.994.994,0,0,0-.735-.278,1.021,1.021,0,0,0-.756.281A1.006,1.006,0,0,0,.431-6.293ZM.278-2.613A1.513,1.513,0,0,0,.627-1.553a1.131,1.131,0,0,0,.87.381,1.093,1.093,0,0,0,.844-.366A1.517,1.517,0,0,0,2.675-2.6a1.369,1.369,0,0,0-.34-.97,1.124,1.124,0,0,0-.861-.366,1.03,1.03,0,0,0-.9.416A1.525,1.525,0,0,0,.278-2.613ZM5.364-6.469A2.477,2.477,0,0,1,5.871-8.18a1.766,1.766,0,0,1,1.374-.557,1.807,1.807,0,0,1,1.4.554,2.475,2.475,0,0,1,.507,1.714,2.477,2.477,0,0,1-.507,1.711A1.766,1.766,0,0,1,7.274-4.2a1.807,1.807,0,0,1-1.4-.554A2.475,2.475,0,0,1,5.364-6.469ZM6.647-6.48a2.22,2.22,0,0,0,.193,1.125.466.466,0,0,0,.4.211.471.471,0,0,0,.41-.211A2.28,2.28,0,0,0,7.843-6.48,2.242,2.242,0,0,0,7.655-7.6a.467.467,0,0,0-.41-.217.466.466,0,0,0-.4.211A2.22,2.22,0,0,0,6.647-6.48ZM8.5.328H7.28l4.576-9.064H13.04Zm2.66-2.256a2.477,2.477,0,0,1,.507-1.711A1.78,1.78,0,0,1,13.052-4.2a1.788,1.788,0,0,1,1.392.557,2.477,2.477,0,0,1,.507,1.711,2.487,2.487,0,0,1-.507,1.717,1.766,1.766,0,0,1-1.374.557,1.8,1.8,0,0,1-1.4-.557A2.487,2.487,0,0,1,11.159-1.928Zm1.283-.006a2.183,2.183,0,0,0,.193,1.119.462.462,0,0,0,.4.217.457.457,0,0,0,.4-.211,2.22,2.22,0,0,0,.193-1.125,2.28,2.28,0,0,0-.187-1.125.471.471,0,0,0-.41-.211.457.457,0,0,0-.4.211A2.22,2.22,0,0,0,12.442-1.934Z" transform="translate(122 272)" fill="#242549"/>
    <path id="Path_1671" data-name="Path 1671" d="M-13.333-2.291V-3.937H-10.1v1.646ZM-6.272,0V-1.729H-9.788V-3.17l3.727-5.455h1.383v5.449h1.066v1.447H-4.679V0Zm0-3.176V-6.111L-8.247-3.176ZM2.733-1.529V0H-3.038a3.975,3.975,0,0,1,.563-1.644A10.937,10.937,0,0,1-.624-3.7,11.646,11.646,0,0,0,.741-5.109a1.811,1.811,0,0,0,.34-1.008,1.146,1.146,0,0,0-.3-.847,1.1,1.1,0,0,0-.817-.3,1.1,1.1,0,0,0-.82.311A1.6,1.6,0,0,0-1.2-5.918l-1.641-.164a2.69,2.69,0,0,1,.92-1.951A3.089,3.089,0,0,1,.009-8.625a2.8,2.8,0,0,1,2,.686,2.249,2.249,0,0,1,.727,1.705,2.968,2.968,0,0,1-.208,1.1,4.492,4.492,0,0,1-.659,1.1,10.549,10.549,0,0,1-1.078,1.1q-.779.715-.987.949a2.842,2.842,0,0,0-.337.457ZM3.858-6.469A2.477,2.477,0,0,1,4.365-8.18a1.766,1.766,0,0,1,1.374-.557,1.807,1.807,0,0,1,1.4.554,2.475,2.475,0,0,1,.507,1.714,2.477,2.477,0,0,1-.507,1.711A1.766,1.766,0,0,1,5.769-4.2a1.807,1.807,0,0,1-1.4-.554A2.475,2.475,0,0,1,3.858-6.469ZM5.142-6.48a2.22,2.22,0,0,0,.193,1.125.466.466,0,0,0,.4.211.471.471,0,0,0,.41-.211A2.28,2.28,0,0,0,6.337-6.48,2.242,2.242,0,0,0,6.149-7.6a.467.467,0,0,0-.41-.217.466.466,0,0,0-.4.211A2.22,2.22,0,0,0,5.142-6.48ZM6.993.328H5.774l4.576-9.064h1.184Zm2.66-2.256a2.477,2.477,0,0,1,.507-1.711A1.78,1.78,0,0,1,11.546-4.2a1.788,1.788,0,0,1,1.392.557,2.477,2.477,0,0,1,.507,1.711,2.487,2.487,0,0,1-.507,1.717,1.766,1.766,0,0,1-1.374.557,1.8,1.8,0,0,1-1.4-.557A2.487,2.487,0,0,1,9.653-1.928Zm1.283-.006A2.183,2.183,0,0,0,11.13-.814a.462.462,0,0,0,.4.217.457.457,0,0,0,.4-.211,2.22,2.22,0,0,0,.193-1.125,2.28,2.28,0,0,0-.187-1.125.471.471,0,0,0-.41-.211.457.457,0,0,0-.4.211A2.22,2.22,0,0,0,10.937-1.934Z" transform="translate(162 285)" fill="#242549"/>
    <g id="Group_1139" data-name="Group 1139" transform="translate(-10)">
      <rect id="Rectangle_1269" data-name="Rectangle 1269" width="28" height="155" transform="translate(73 204)" fill="#ffa726"/>
      <rect id="Rectangle_1271" data-name="Rectangle 1271" width="28" height="47" transform="translate(113 312)" fill="#ffa726"/>
      <rect id="Rectangle_1273" data-name="Rectangle 1273" width="28" height="68" transform="translate(153 291)" fill="#ffa726"/>
      <rect id="Rectangle_1275" data-name="Rectangle 1275" width="28" height="31" transform="translate(193 328)" fill="#ffa726"/>
      <rect id="Rectangle_1277" data-name="Rectangle 1277" width="28" height="70" transform="translate(233 289)" fill="#ffa726"/>
      <rect id="Rectangle_1279" data-name="Rectangle 1279" width="28" height="48" transform="translate(273 311)" fill="#ffa726"/>
    </g>
    <g id="Group_1138" data-name="Group 1138">
      <rect id="Rectangle_1269-2" data-name="Rectangle 1269" width="28" height="153" transform="translate(73 206)" fill="#4361b4"/>
      <rect id="Rectangle_1271-2" data-name="Rectangle 1271" width="28" height="82" transform="translate(113 277)" fill="#4361b4"/>
      <rect id="Rectangle_1273-2" data-name="Rectangle 1273" width="28" height="14" transform="translate(153 345)" fill="#4361b4"/>
    </g>
    <path id="Path_1670" data-name="Path 1670" d="M-4.673-1.274V0h-4.81a3.312,3.312,0,0,1,.469-1.37A9.114,9.114,0,0,1-7.471-3.086,9.705,9.705,0,0,0-6.333-4.258,1.51,1.51,0,0,0-6.05-5.1.955.955,0,0,0-6.3-5.8a.921.921,0,0,0-.681-.247.914.914,0,0,0-.684.259,1.329,1.329,0,0,0-.293.859l-1.367-.137a2.241,2.241,0,0,1,.767-1.626,2.574,2.574,0,0,1,1.611-.493,2.329,2.329,0,0,1,1.665.571A1.874,1.874,0,0,1-4.673-5.2a2.473,2.473,0,0,1-.173.92,3.743,3.743,0,0,1-.549.916,8.79,8.79,0,0,1-.9.913q-.649.6-.823.791a2.368,2.368,0,0,0-.281.381Zm.957-.381L-2.388-1.8a.961.961,0,0,0,.254.6.753.753,0,0,0,.542.2A.884.884,0,0,0-.869-1.4,3.327,3.327,0,0,0-.488-3.018a1.638,1.638,0,0,1-1.294.6A1.934,1.934,0,0,1-3.24-3.069a2.377,2.377,0,0,1-.613-1.7,2.413,2.413,0,0,1,.647-1.755,2.2,2.2,0,0,1,1.648-.667,2.218,2.218,0,0,1,1.787.842,4.352,4.352,0,0,1,.7,2.771A4.405,4.405,0,0,1,.2-.742,2.354,2.354,0,0,1-1.694.127,2,2,0,0,1-3.052-.32,2.157,2.157,0,0,1-3.716-1.655Zm3.105-3a1.565,1.565,0,0,0-.305-1.03.9.9,0,0,0-.706-.366.791.791,0,0,0-.632.3,1.532,1.532,0,0,0-.251.984,1.563,1.563,0,0,0,.273,1.018.858.858,0,0,0,.684.325.849.849,0,0,0,.667-.312A1.365,1.365,0,0,0-.61-4.653ZM2.109,0V-1.372H3.481V0ZM7.285,0V-1.44H4.355v-1.2L7.461-7.187H8.613v4.541H9.5V-1.44H8.613V0Zm0-2.646V-5.093L5.64-2.646Z" transform="translate(87 217)" fill="#fff9ea"/>
    <path id="Path_1669" data-name="Path 1669" d="M-4.673-1.274V0h-4.81a3.312,3.312,0,0,1,.469-1.37A9.114,9.114,0,0,1-7.471-3.086,9.705,9.705,0,0,0-6.333-4.258,1.51,1.51,0,0,0-6.05-5.1.955.955,0,0,0-6.3-5.8a.921.921,0,0,0-.681-.247.914.914,0,0,0-.684.259,1.329,1.329,0,0,0-.293.859l-1.367-.137a2.241,2.241,0,0,1,.767-1.626,2.574,2.574,0,0,1,1.611-.493,2.329,2.329,0,0,1,1.665.571A1.874,1.874,0,0,1-4.673-5.2a2.473,2.473,0,0,1-.173.92,3.743,3.743,0,0,1-.549.916,8.79,8.79,0,0,1-.9.913q-.649.6-.823.791a2.368,2.368,0,0,0-.281.381Zm3.247-5.913A1.956,1.956,0,0,1,.2-6.445,4.738,4.738,0,0,1,.9-3.53,4.749,4.749,0,0,1,.2-.61,1.953,1.953,0,0,1-1.426.122a2.049,2.049,0,0,1-1.685-.8,4.748,4.748,0,0,1-.64-2.864,4.729,4.729,0,0,1,.7-2.91A1.953,1.953,0,0,1-1.426-7.187Zm0,1.138a.685.685,0,0,0-.444.159,1.065,1.065,0,0,0-.3.569A7.846,7.846,0,0,0-2.314-3.53,7.788,7.788,0,0,0-2.187-1.8a1.217,1.217,0,0,0,.32.627.682.682,0,0,0,.442.156.685.685,0,0,0,.444-.159,1.065,1.065,0,0,0,.3-.569A7.777,7.777,0,0,0-.537-3.53,7.788,7.788,0,0,0-.664-5.261a1.234,1.234,0,0,0-.32-.63A.676.676,0,0,0-1.426-6.05ZM2.109,0V-1.372H3.481V0ZM9.243-5.405l-1.328.146a.967.967,0,0,0-.254-.605.74.74,0,0,0-.532-.2.9.9,0,0,0-.735.391,3.29,3.29,0,0,0-.378,1.626A1.6,1.6,0,0,1,7.29-4.648a1.946,1.946,0,0,1,1.472.654A2.372,2.372,0,0,1,9.375-2.3,2.423,2.423,0,0,1,8.73-.542,2.206,2.206,0,0,1,7.075.122,2.213,2.213,0,0,1,5.293-.72a4.333,4.333,0,0,1-.7-2.761,4.415,4.415,0,0,1,.728-2.837,2.348,2.348,0,0,1,1.89-.869,2.006,2.006,0,0,1,1.35.457A2.139,2.139,0,0,1,9.243-5.405ZM6.133-2.412A1.555,1.555,0,0,0,6.44-1.379a.905.905,0,0,0,.7.364.8.8,0,0,0,.635-.3,1.5,1.5,0,0,0,.254-.977,1.572,1.572,0,0,0-.273-1.023.858.858,0,0,0-.684-.325.859.859,0,0,0-.669.31A1.346,1.346,0,0,0,6.133-2.412Z" transform="translate(127 288)" fill="#fff9ea"/>
    <path id="Path_1668" data-name="Path 1668" d="M-5.8,0H-7.168V-5.171A4.73,4.73,0,0,1-8.94-4.131V-5.376a3.968,3.968,0,0,0,1.167-.667,2.533,2.533,0,0,0,.864-1.145H-5.8Zm4.37-7.187A1.956,1.956,0,0,1,.2-6.445,4.738,4.738,0,0,1,.9-3.53,4.749,4.749,0,0,1,.2-.61,1.953,1.953,0,0,1-1.426.122a2.049,2.049,0,0,1-1.685-.8,4.748,4.748,0,0,1-.64-2.864,4.729,4.729,0,0,1,.7-2.91A1.953,1.953,0,0,1-1.426-7.187Zm0,1.138a.685.685,0,0,0-.444.159,1.065,1.065,0,0,0-.3.569A7.846,7.846,0,0,0-2.314-3.53,7.788,7.788,0,0,0-2.187-1.8a1.217,1.217,0,0,0,.32.627.682.682,0,0,0,.442.156.685.685,0,0,0,.444-.159,1.065,1.065,0,0,0,.3-.569A7.777,7.777,0,0,0-.537-3.53,7.788,7.788,0,0,0-.664-5.261a1.234,1.234,0,0,0-.32-.63A.676.676,0,0,0-1.426-6.05ZM2.109,0V-1.372H3.481V0ZM5.771-3.862A1.6,1.6,0,0,1,5-4.48a1.614,1.614,0,0,1-.242-.862,1.733,1.733,0,0,1,.559-1.323A2.241,2.241,0,0,1,6.9-7.187a2.244,2.244,0,0,1,1.584.522,1.726,1.726,0,0,1,.564,1.323,1.561,1.561,0,0,1-.259.886,1.638,1.638,0,0,1-.728.593,1.918,1.918,0,0,1,.906.7,1.848,1.848,0,0,1,.31,1.06A2.157,2.157,0,0,1,8.65-.493a2.3,2.3,0,0,1-1.682.62A2.543,2.543,0,0,1,5.342-.386a2,2,0,0,1-.767-1.66,2.053,2.053,0,0,1,.288-1.067A1.855,1.855,0,0,1,5.771-3.862Zm.283-1.382a.859.859,0,0,0,.232.64.84.84,0,0,0,.618.229.85.85,0,0,0,.625-.232.863.863,0,0,0,.234-.642.835.835,0,0,0-.232-.618A.828.828,0,0,0,6.919-6.1a.851.851,0,0,0-.63.234A.838.838,0,0,0,6.055-5.244ZM5.928-2.178a1.26,1.26,0,0,0,.291.884.942.942,0,0,0,.725.317.911.911,0,0,0,.7-.305,1.264,1.264,0,0,0,.278-.881,1.141,1.141,0,0,0-.283-.808.937.937,0,0,0-.718-.305.858.858,0,0,0-.75.347A1.271,1.271,0,0,0,5.928-2.178Z" transform="translate(167 356)" fill="#fff9ea"/>
    <path id="Path_1667" data-name="Path 1667" d="M-15.853-8.59h1.623v5.719l3.48-5.719h1.729V0h-1.623V-5.607L-14.118,0h-1.734Zm8.578,2.367h1.646v2.514h1.313A2.98,2.98,0,0,1-3.41-5.634a2.91,2.91,0,0,1,2.077-.729,2.89,2.89,0,0,1,2.15.85,3.343,3.343,0,0,1,.838,2.449,4,4,0,0,1-.313,1.641A2.623,2.623,0,0,1,.384-.29,2.975,2.975,0,0,1-1.3.141,2.851,2.851,0,0,1-3.524-.671,2.83,2.83,0,0,1-4.315-2.4H-5.628V0H-7.274ZM-1.356-5.08a1.143,1.143,0,0,0-1,.439,2.45,2.45,0,0,0-.313,1.4,2.872,2.872,0,0,0,.337,1.661,1.218,1.218,0,0,0,1.022.431A1.059,1.059,0,0,0-.36-1.632a2.676,2.676,0,0,0,.316-1.45A2.605,2.605,0,0,0-.387-4.673,1.2,1.2,0,0,0-1.356-5.08ZM2.921-6.223H4.567v2.279H6.923V-6.223H8.575V0H6.923V-2.613H4.567V0H2.921Zm7.348,0h1.646v2.584h1.652a6.071,6.071,0,0,1,1.494.141,1.57,1.57,0,0,1,.867.606,1.765,1.765,0,0,1,.346,1.081,1.575,1.575,0,0,1-.618,1.356A3.124,3.124,0,0,1,13.8,0H10.269Zm1.646,5.18H13.45a1.257,1.257,0,0,0,.923-.234.824.824,0,0,0,.2-.557.628.628,0,0,0-.349-.621,3.13,3.13,0,0,0-1.239-.17H11.915Z" transform="translate(282 375)" fill="#242549"/>
  </g>
</svg>
