<svg xmlns="http://www.w3.org/2000/svg" width="335.314" height="84.712" viewBox="0 0 335.314 84.712"><g transform="translate(-20 -1330.288)"><path d="M.252-2.616,1.788-.96l.264-1.284-.924-1.02,1.32-.816L2.76-5.556.588-4.176Zm2.352,0L4.14-.96,4.4-2.244,3.48-3.264,4.8-4.08l.312-1.476L2.94-4.176ZM7.176-8.568H9.06L8.316-4.98H8.34l3.888-3.588h2.5L10.608-5.04,13.236,0H11.112L9.156-3.852,7.848-2.712,7.284,0H5.4ZM15.912.156A2.675,2.675,0,0,1,15.03.024,1.876,1.876,0,0,1,14.4-.33a1.375,1.375,0,0,1-.372-.516,1.62,1.62,0,0,1-.12-.618,1.817,1.817,0,0,1,.618-1.44,3.151,3.151,0,0,1,1.746-.672q.6-.072,1.044-.108a4.3,4.3,0,0,0,.738-.114.923.923,0,0,0,.438-.228.627.627,0,0,0,.144-.45.625.625,0,0,0-.108-.384.784.784,0,0,0-.27-.228A1.148,1.148,0,0,0,17.91-5.2a2.226,2.226,0,0,0-.354-.03,1.523,1.523,0,0,0-.816.222.966.966,0,0,0-.444.69H14.7a2.209,2.209,0,0,1,.36-.978,2.239,2.239,0,0,1,.672-.63,2.79,2.79,0,0,1,.894-.342,5.04,5.04,0,0,1,1.014-.1,6.72,6.72,0,0,1,.876.06,2.959,2.959,0,0,1,.84.234,1.635,1.635,0,0,1,.63.492,1.3,1.3,0,0,1,.234.846A5.211,5.211,0,0,1,20.088-3.7l-.552,2.5a2.087,2.087,0,0,0-.066.414q-.018.246-.018.426a1.4,1.4,0,0,0,.06.36h-1.7V-.612a2.069,2.069,0,0,1-.852.582A2.992,2.992,0,0,1,15.912.156Zm.624-1.128A1.57,1.57,0,0,0,17.2-1.1a1.47,1.47,0,0,0,.456-.324,1.535,1.535,0,0,0,.294-.45,4.228,4.228,0,0,0,.18-.5l.168-.6a1.732,1.732,0,0,1-.7.234q-.372.042-.744.066a3.57,3.57,0,0,0-.468.078,1.344,1.344,0,0,0-.4.162.829.829,0,0,0-.282.294.934.934,0,0,0-.108.474.573.573,0,0,0,.282.522A1.22,1.22,0,0,0,16.536-.972Zm8.232-1.4a5.325,5.325,0,0,1-.8.186,6.638,6.638,0,0,1-1.116.09,1.761,1.761,0,0,1-1.272-.39,1.505,1.505,0,0,1-.4-1.122,4.312,4.312,0,0,1,.1-.828L21.66-6.2h1.692L23-4.668a3.164,3.164,0,0,0-.072.6.572.572,0,0,0,.174.474.975.975,0,0,0,.594.138,2.688,2.688,0,0,0,.342-.024q.186-.024.372-.054t.348-.066l.27-.06L25.6-6.2h1.692L25.968,0H24.276ZM30.324.156A3.61,3.61,0,0,1,29.19-.012a2.278,2.278,0,0,1-.87-.51,2.315,2.315,0,0,1-.558-.846,3.2,3.2,0,0,1-.2-1.176,4.334,4.334,0,0,1,.24-1.434A3.965,3.965,0,0,1,28.482-5.2a3.251,3.251,0,0,1,1.074-.852,3.149,3.149,0,0,1,1.428-.318,3.925,3.925,0,0,1,1.182.168,2.421,2.421,0,0,1,.912.51,2.321,2.321,0,0,1,.588.852,3.087,3.087,0,0,1,.21,1.182,5.758,5.758,0,0,1-.1.972H29.208q0,.06-.006.18t-.006.18a1.185,1.185,0,0,0,.336.876,1.405,1.405,0,0,0,1.032.336,1.22,1.22,0,0,0,.45-.078,1.337,1.337,0,0,0,.348-.2,1.439,1.439,0,0,0,.264-.276q.114-.156.21-.3h1.7a4.354,4.354,0,0,1-.48.924,2.678,2.678,0,0,1-.66.666,2.726,2.726,0,0,1-.894.4A4.742,4.742,0,0,1,30.324.156Zm1.908-3.924a2.678,2.678,0,0,0-.042-.474,1.193,1.193,0,0,0-.162-.426.842.842,0,0,0-.348-.306,1.348,1.348,0,0,0-.6-.114,1.737,1.737,0,0,0-.636.108,1.6,1.6,0,0,0-.48.288,1.658,1.658,0,0,0-.342.42,3.209,3.209,0,0,0-.234.5ZM37.212.156a2.968,2.968,0,0,1-2.034-.642,2.55,2.55,0,0,1-.726-2.01,4.694,4.694,0,0,1,.234-1.494,3.724,3.724,0,0,1,.684-1.236,3.208,3.208,0,0,1,1.1-.84,3.446,3.446,0,0,1,1.488-.306,4.2,4.2,0,0,1,1.068.132,2.593,2.593,0,0,1,.882.408,1.959,1.959,0,0,1,.6.72,2.446,2.446,0,0,1,.234,1.056h-1.7a.988.988,0,0,0-.282-.792,1.3,1.3,0,0,0-.858-.24,1.3,1.3,0,0,0-.816.258,1.92,1.92,0,0,0-.54.654,3.2,3.2,0,0,0-.294.858,4.506,4.506,0,0,0-.09.858,2.2,2.2,0,0,0,.06.522,1.082,1.082,0,0,0,.2.426,1.047,1.047,0,0,0,.366.288,1.241,1.241,0,0,0,.546.108,1.275,1.275,0,0,0,.51-.1,1.452,1.452,0,0,0,.4-.252,1.356,1.356,0,0,0,.288-.366,2.483,2.483,0,0,0,.186-.438h1.7A3.7,3.7,0,0,1,39.24-.474,3.157,3.157,0,0,1,37.212.156ZM43.128-4.92h-2.04L41.364-6.2h5.784L46.872-4.92h-2.04L43.788,0h-1.7ZM48.012-6.2h2.844q.384,0,.78.03A2.283,2.283,0,0,1,52.368-6a1.292,1.292,0,0,1,.546.432,1.367,1.367,0,0,1,.21.816,1.517,1.517,0,0,1-.306.966,1.376,1.376,0,0,1-.846.5,1.212,1.212,0,0,1,.888,1.26,1.979,1.979,0,0,1-.1.63,2.087,2.087,0,0,1-.288.564,1.949,1.949,0,0,1-.444.444,1.74,1.74,0,0,1-.57.27q-.132.036-.264.06a2.828,2.828,0,0,1-.288.036q-.156.012-.36.018T50.064,0H46.7Zm1.776,5.052q.228,0,.468-.018a1.282,1.282,0,0,0,.438-.108.8.8,0,0,0,.324-.264.793.793,0,0,0,.126-.474.619.619,0,0,0-.1-.384.631.631,0,0,0-.258-.2,1.07,1.07,0,0,0-.354-.078q-.2-.012-.378-.012H48.936l-.324,1.536Zm.576-2.616a3.338,3.338,0,0,0,.4-.024,1.013,1.013,0,0,0,.348-.1.639.639,0,0,0,.246-.228.738.738,0,0,0,.1-.4.5.5,0,0,0-.084-.312.469.469,0,0,0-.222-.156,1.174,1.174,0,0,0-.3-.06q-.162-.012-.306-.012h-1.1l-.276,1.3ZM56.508.156a3.065,3.065,0,0,1-2.07-.666,2.492,2.492,0,0,1-.774-2A4.485,4.485,0,0,1,53.91-4a3.709,3.709,0,0,1,.708-1.23,3.335,3.335,0,0,1,1.122-.834,3.5,3.5,0,0,1,1.488-.306,4.016,4.016,0,0,1,1.17.162,2.553,2.553,0,0,1,.918.486,2.156,2.156,0,0,1,.594.816,2.951,2.951,0,0,1,.21,1.164,4.665,4.665,0,0,1-.246,1.53A3.633,3.633,0,0,1,59.16-.972a3.313,3.313,0,0,1-1.134.828A3.659,3.659,0,0,1,56.508.156Zm.084-1.272a1.326,1.326,0,0,0,.822-.258,2.1,2.1,0,0,0,.564-.648,3.183,3.183,0,0,0,.33-.846,3.708,3.708,0,0,0,.108-.852,1.609,1.609,0,0,0-.282-1,1.138,1.138,0,0,0-.966-.372,1.307,1.307,0,0,0-.81.258,2.057,2.057,0,0,0-.558.642,3.228,3.228,0,0,0-.324.834,3.633,3.633,0,0,0-.108.846,1.776,1.776,0,0,0,.078.528,1.31,1.31,0,0,0,.234.444,1.152,1.152,0,0,0,.384.306A1.166,1.166,0,0,0,56.592-1.116ZM64.836-6.2H66.48l-.168.768.024.024a1.714,1.714,0,0,1,.786-.732A2.549,2.549,0,0,1,68.2-6.372a2.255,2.255,0,0,1,1.74.66,2.526,2.526,0,0,1,.612,1.788,5.561,5.561,0,0,1-.2,1.5,4.038,4.038,0,0,1-.624,1.308,3.2,3.2,0,0,1-1.05.924,3.044,3.044,0,0,1-1.494.348A2.456,2.456,0,0,1,66.642.1a2.1,2.1,0,0,1-.5-.18,1.665,1.665,0,0,1-.42-.306,1.232,1.232,0,0,1-.282-.438H65.4l-.648,3H63.06Zm2.148,5.088a1.394,1.394,0,0,0,.84-.252A2.1,2.1,0,0,0,68.4-2a2.979,2.979,0,0,0,.336-.84,3.754,3.754,0,0,0,.108-.864,1.775,1.775,0,0,0-.078-.528,1.3,1.3,0,0,0-.228-.438,1.123,1.123,0,0,0-.378-.3,1.166,1.166,0,0,0-.528-.114,1.352,1.352,0,0,0-.828.258,2.188,2.188,0,0,0-.582.654,3.168,3.168,0,0,0-.348.858,3.6,3.6,0,0,0-.114.858,1.5,1.5,0,0,0,.3.978A1.125,1.125,0,0,0,66.984-1.116ZM73.932.156a3.065,3.065,0,0,1-2.07-.666,2.492,2.492,0,0,1-.774-2A4.485,4.485,0,0,1,71.334-4a3.709,3.709,0,0,1,.708-1.23,3.335,3.335,0,0,1,1.122-.834,3.5,3.5,0,0,1,1.488-.306,4.016,4.016,0,0,1,1.17.162,2.553,2.553,0,0,1,.918.486,2.156,2.156,0,0,1,.594.816,2.951,2.951,0,0,1,.21,1.164,4.665,4.665,0,0,1-.246,1.53,3.633,3.633,0,0,1-.714,1.242,3.313,3.313,0,0,1-1.134.828A3.659,3.659,0,0,1,73.932.156Zm.084-1.272a1.326,1.326,0,0,0,.822-.258,2.1,2.1,0,0,0,.564-.648,3.183,3.183,0,0,0,.33-.846,3.709,3.709,0,0,0,.108-.852,1.609,1.609,0,0,0-.282-1,1.138,1.138,0,0,0-.966-.372,1.307,1.307,0,0,0-.81.258,2.057,2.057,0,0,0-.558.642,3.228,3.228,0,0,0-.324.834,3.633,3.633,0,0,0-.108.846,1.775,1.775,0,0,0,.078.528,1.311,1.311,0,0,0,.234.444,1.152,1.152,0,0,0,.384.306A1.166,1.166,0,0,0,74.016-1.116ZM80.844.156A2.968,2.968,0,0,1,78.81-.486a2.55,2.55,0,0,1-.726-2.01,4.694,4.694,0,0,1,.234-1.494A3.724,3.724,0,0,1,79-5.226a3.208,3.208,0,0,1,1.1-.84,3.446,3.446,0,0,1,1.488-.306,4.2,4.2,0,0,1,1.068.132,2.593,2.593,0,0,1,.882.408,1.959,1.959,0,0,1,.6.72,2.446,2.446,0,0,1,.234,1.056h-1.7a.988.988,0,0,0-.282-.792,1.3,1.3,0,0,0-.858-.24,1.3,1.3,0,0,0-.816.258,1.92,1.92,0,0,0-.54.654,3.2,3.2,0,0,0-.294.858,4.505,4.505,0,0,0-.09.858,2.2,2.2,0,0,0,.06.522,1.082,1.082,0,0,0,.2.426,1.047,1.047,0,0,0,.366.288,1.241,1.241,0,0,0,.546.108,1.275,1.275,0,0,0,.51-.1,1.451,1.451,0,0,0,.4-.252,1.356,1.356,0,0,0,.288-.366,2.483,2.483,0,0,0,.186-.438h1.7A3.7,3.7,0,0,1,82.872-.474,3.157,3.157,0,0,1,80.844.156Zm6.552,0a2.968,2.968,0,0,1-2.034-.642,2.55,2.55,0,0,1-.726-2.01A4.694,4.694,0,0,1,84.87-3.99a3.724,3.724,0,0,1,.684-1.236,3.208,3.208,0,0,1,1.1-.84,3.446,3.446,0,0,1,1.488-.306,4.2,4.2,0,0,1,1.068.132,2.593,2.593,0,0,1,.882.408,1.959,1.959,0,0,1,.6.72,2.446,2.446,0,0,1,.234,1.056h-1.7a.988.988,0,0,0-.282-.792,1.3,1.3,0,0,0-.858-.24,1.3,1.3,0,0,0-.816.258,1.92,1.92,0,0,0-.54.654,3.2,3.2,0,0,0-.294.858,4.505,4.505,0,0,0-.09.858,2.2,2.2,0,0,0,.06.522,1.082,1.082,0,0,0,.2.426,1.047,1.047,0,0,0,.366.288,1.241,1.241,0,0,0,.546.108,1.275,1.275,0,0,0,.51-.1,1.451,1.451,0,0,0,.4-.252,1.356,1.356,0,0,0,.288-.366,2.483,2.483,0,0,0,.186-.438h1.7A3.7,3.7,0,0,1,89.424-.474,3.157,3.157,0,0,1,87.4.156ZM92.244-6.2h1.632l-.9,4.2,3.24-4.2h1.932L96.828,0H95.2l.888-4.2L92.856,0h-1.92ZM98.2,0h1.92l3.228-4.2L102.456,0h1.632l1.32-6.2h-1.932L100.236-2l.9-4.2H99.5Zm4.416-6.984A2.335,2.335,0,0,0,104-7.38a2.1,2.1,0,0,0,.762-1.332h-.672a1.113,1.113,0,0,1-.534.606,1.9,1.9,0,0,1-.87.186,1.45,1.45,0,0,1-.792-.186.643.643,0,0,1-.276-.606h-.672a1.881,1.881,0,0,0-.048.432,1.214,1.214,0,0,0,.132.582,1.154,1.154,0,0,0,.366.408,1.568,1.568,0,0,0,.546.234A2.984,2.984,0,0,0,102.612-6.984Zm5.856,7.14a2.968,2.968,0,0,1-2.034-.642,2.55,2.55,0,0,1-.726-2.01,4.694,4.694,0,0,1,.234-1.494,3.724,3.724,0,0,1,.684-1.236,3.208,3.208,0,0,1,1.1-.84,3.446,3.446,0,0,1,1.488-.306,4.2,4.2,0,0,1,1.068.132,2.593,2.593,0,0,1,.882.408,1.959,1.959,0,0,1,.6.72A2.447,2.447,0,0,1,112-4.056h-1.7a.988.988,0,0,0-.282-.792,1.3,1.3,0,0,0-.858-.24,1.3,1.3,0,0,0-.816.258,1.92,1.92,0,0,0-.54.654,3.2,3.2,0,0,0-.294.858,4.505,4.505,0,0,0-.09.858,2.2,2.2,0,0,0,.06.522,1.082,1.082,0,0,0,.2.426,1.047,1.047,0,0,0,.366.288,1.241,1.241,0,0,0,.546.108,1.275,1.275,0,0,0,.51-.1,1.451,1.451,0,0,0,.4-.252,1.356,1.356,0,0,0,.288-.366,2.483,2.483,0,0,0,.186-.438h1.7A3.7,3.7,0,0,1,110.5-.474,3.157,3.157,0,0,1,108.468.156Zm4.944-6.36h1.668l-.492,2.3,2.484-2.3h2.16l-2.844,2.448L118.032,0h-1.884l-1.056-2.652-.936.8L113.76,0h-1.668Zm6.456,0H121.5L120.6-2l3.24-4.2h1.932L124.452,0H122.82l.888-4.2L120.48,0h-1.92Zm8.04,2.88L126.5-6.2h1.824l.684,1.788,1.4-1.788h1.908l-2.58,2.976L131.316,0h-1.8l-.9-2.04L126.96,0h-1.92Zm10.836,2.9a2.371,2.371,0,0,1-.654.4,1.971,1.971,0,0,1-.786.174,1.905,1.905,0,0,1-.894-.192,1.58,1.58,0,0,1-.588-.522,2.3,2.3,0,0,1-.324-.762,3.9,3.9,0,0,1-.1-.9,5.764,5.764,0,0,1,.2-1.488,4.381,4.381,0,0,1,.594-1.332,3.17,3.17,0,0,1,1-.954,2.7,2.7,0,0,1,1.422-.366,1.62,1.62,0,0,1,.852.192,1,1,0,0,1,.42.444l.588-2.844h1.68l-.588,2.844a1.876,1.876,0,0,1,.606-.444,2.086,2.086,0,0,1,.93-.192,1.6,1.6,0,0,1,1.374.642,2.792,2.792,0,0,1,.474,1.7,5.562,5.562,0,0,1-.21,1.506,4.409,4.409,0,0,1-.624,1.344,3.263,3.263,0,0,1-1.038.96,2.817,2.817,0,0,1-1.452.366,1.473,1.473,0,0,1-.708-.174,1.447,1.447,0,0,1-.492-.4l-.552,2.592h-1.68Zm-.768-.72a1.241,1.241,0,0,0,.672-.18.907.907,0,0,0,.384-.42l.576-2.712a.612.612,0,0,0-.294-.516,1.082,1.082,0,0,0-.534-.144,1.134,1.134,0,0,0-.78.288,2.142,2.142,0,0,0-.522.72,3.877,3.877,0,0,0-.288.93,5.19,5.19,0,0,0-.09.918,1.521,1.521,0,0,0,.192.8A.733.733,0,0,0,137.976-1.14Zm3.528,0a1.136,1.136,0,0,0,.792-.294,2.322,2.322,0,0,0,.534-.738,3.914,3.914,0,0,0,.306-.954,5.118,5.118,0,0,0,.1-.942,1.265,1.265,0,0,0-.2-.774.76.76,0,0,0-.648-.27,1.447,1.447,0,0,0-.594.144,1.139,1.139,0,0,0-.522.516l-.552,2.712v.012a.529.529,0,0,0,.21.408A.866.866,0,0,0,141.5-1.14Zm5.04-5.064h1.632l-.9,4.2,3.24-4.2h1.932L151.128,0H149.5l.888-4.2L147.156,0h-1.92ZM152.976.1q-.1,0-.228-.012t-.27-.03L152.22.018a1.184,1.184,0,0,1-.192-.042l.276-1.308a2.076,2.076,0,0,0,.24.042,2.227,2.227,0,0,0,.276.018.837.837,0,0,0,.672-.372,1.16,1.16,0,0,0,.138-.24,5.4,5.4,0,0,0,.216-.636q.138-.468.354-1.338t.528-2.346h5.1L158.52,0h-1.7l1.044-4.92h-1.752q-.192.924-.372,1.626t-.348,1.212a6.821,6.821,0,0,1-.342.864,2.878,2.878,0,0,1-.354.57,2.054,2.054,0,0,1-.69.54A2.31,2.31,0,0,1,152.976.1Zm8.22-6.3h1.692l-.468,2.172h1.272a4.113,4.113,0,0,1,1.116.12,1.535,1.535,0,0,1,.858.612,1.82,1.82,0,0,1,.318,1.068,2.253,2.253,0,0,1-.27,1.08,2.042,2.042,0,0,1-.738.792,2.311,2.311,0,0,1-.906.3,7.892,7.892,0,0,1-.942.06h-3.252Zm1.968,5.016a1.3,1.3,0,0,0,.792-.222.843.843,0,0,0,.3-.726.566.566,0,0,0-.312-.594,2.134,2.134,0,0,0-.792-.126h-1l-.36,1.668Zm4.38-5.016h2.472l.324,4.512h.048L172.632-6.2H175.1L173.784,0h-1.608l1-4.716h-.036L170.808,0H169.2l-.336-4.716h-.036l-1,4.716h-1.6Zm10.7,6.36a3.065,3.065,0,0,1-2.07-.666,2.492,2.492,0,0,1-.774-2A4.485,4.485,0,0,1,175.65-4a3.709,3.709,0,0,1,.708-1.23,3.335,3.335,0,0,1,1.122-.834,3.5,3.5,0,0,1,1.488-.306,4.016,4.016,0,0,1,1.17.162,2.553,2.553,0,0,1,.918.486,2.156,2.156,0,0,1,.594.816,2.951,2.951,0,0,1,.21,1.164,4.665,4.665,0,0,1-.246,1.53A3.633,3.633,0,0,1,180.9-.972a3.313,3.313,0,0,1-1.134.828A3.659,3.659,0,0,1,178.248.156Zm.084-1.272a1.326,1.326,0,0,0,.822-.258,2.1,2.1,0,0,0,.564-.648,3.183,3.183,0,0,0,.33-.846,3.709,3.709,0,0,0,.108-.852,1.609,1.609,0,0,0-.282-1,1.138,1.138,0,0,0-.966-.372,1.307,1.307,0,0,0-.81.258,2.057,2.057,0,0,0-.558.642,3.228,3.228,0,0,0-.324.834,3.633,3.633,0,0,0-.108.846,1.776,1.776,0,0,0,.078.528,1.31,1.31,0,0,0,.234.444,1.152,1.152,0,0,0,.384.306A1.166,1.166,0,0,0,178.332-1.116Zm5.2-5.088h2.844q.384,0,.78.03a2.283,2.283,0,0,1,.732.174,1.292,1.292,0,0,1,.546.432,1.367,1.367,0,0,1,.21.816,1.517,1.517,0,0,1-.306.966,1.376,1.376,0,0,1-.846.5,1.212,1.212,0,0,1,.888,1.26,1.98,1.98,0,0,1-.1.63,2.087,2.087,0,0,1-.288.564,1.948,1.948,0,0,1-.444.444,1.739,1.739,0,0,1-.57.27q-.132.036-.264.06a2.827,2.827,0,0,1-.288.036q-.156.012-.36.018T185.58,0h-3.36ZM185.3-1.152q.228,0,.468-.018a1.282,1.282,0,0,0,.438-.108.8.8,0,0,0,.324-.264.793.793,0,0,0,.126-.474.619.619,0,0,0-.1-.384.631.631,0,0,0-.258-.2,1.07,1.07,0,0,0-.354-.078q-.2-.012-.378-.012h-1.116l-.324,1.536Zm.576-2.616a3.338,3.338,0,0,0,.4-.024,1.013,1.013,0,0,0,.348-.1.639.639,0,0,0,.246-.228.738.738,0,0,0,.1-.4.5.5,0,0,0-.084-.312.469.469,0,0,0-.222-.156,1.174,1.174,0,0,0-.3-.06q-.162-.012-.306-.012h-1.1l-.276,1.3ZM192.624.1q-.1,0-.228-.012t-.27-.03l-.258-.036a1.184,1.184,0,0,1-.192-.042l.276-1.308a2.076,2.076,0,0,0,.24.042,2.227,2.227,0,0,0,.276.018.837.837,0,0,0,.672-.372,1.16,1.16,0,0,0,.138-.24,5.4,5.4,0,0,0,.216-.636q.138-.468.354-1.338t.528-2.346h5.1L198.168,0h-1.7l1.044-4.92h-1.752q-.192.924-.372,1.626t-.348,1.212a6.821,6.821,0,0,1-.342.864,2.878,2.878,0,0,1-.354.57,2.054,2.054,0,0,1-.69.54A2.31,2.31,0,0,1,192.624.1Zm7.188,2.076a4.241,4.241,0,0,1-.444-.024q-.228-.024-.456-.036L199.2.7a3.2,3.2,0,0,0,.342.054,3.323,3.323,0,0,0,.342.018,1.081,1.081,0,0,0,.48-.09.984.984,0,0,0,.294-.216,2.32,2.32,0,0,0,.21-.27,1.756,1.756,0,0,0,.144-.252l-1.1-6.144h1.752l.54,4.44h.024l2.148-4.44h1.8L202.224.864a3.567,3.567,0,0,1-.444.654,1.759,1.759,0,0,1-.5.4,2.007,2.007,0,0,1-.63.2A5.608,5.608,0,0,1,199.812,2.172Zm9.972-4.548a5.325,5.325,0,0,1-.8.186,6.639,6.639,0,0,1-1.116.09,1.761,1.761,0,0,1-1.272-.39,1.505,1.505,0,0,1-.4-1.122,4.313,4.313,0,0,1,.1-.828l.384-1.764h1.692l-.348,1.536a3.165,3.165,0,0,0-.072.6.572.572,0,0,0,.174.474.975.975,0,0,0,.594.138,2.688,2.688,0,0,0,.342-.024q.186-.024.372-.054t.348-.066l.27-.06.564-2.544H212.3L210.984,0h-1.692ZM213.636-6.2h1.692l-1.056,4.92h1.848l1.056-4.92h1.692l-1.056,4.92h1.848l1.056-4.92h1.692L221.088,0h-8.76ZM225.468.156a3.61,3.61,0,0,1-1.134-.168,2.278,2.278,0,0,1-.87-.51,2.315,2.315,0,0,1-.558-.846,3.2,3.2,0,0,1-.2-1.176,4.334,4.334,0,0,1,.24-1.434,3.965,3.965,0,0,1,.678-1.224,3.252,3.252,0,0,1,1.074-.852,3.149,3.149,0,0,1,1.428-.318,3.925,3.925,0,0,1,1.182.168,2.421,2.421,0,0,1,.912.51,2.321,2.321,0,0,1,.588.852,3.087,3.087,0,0,1,.21,1.182,5.757,5.757,0,0,1-.1.972h-4.572q0,.06-.006.18t-.006.18a1.185,1.185,0,0,0,.336.876,1.405,1.405,0,0,0,1.032.336,1.22,1.22,0,0,0,.45-.078,1.337,1.337,0,0,0,.348-.2,1.44,1.44,0,0,0,.264-.276q.114-.156.21-.3h1.7a4.354,4.354,0,0,1-.48.924,2.678,2.678,0,0,1-.66.666,2.726,2.726,0,0,1-.894.4A4.742,4.742,0,0,1,225.468.156Zm1.908-3.924a2.678,2.678,0,0,0-.042-.474,1.193,1.193,0,0,0-.162-.426.842.842,0,0,0-.348-.306,1.348,1.348,0,0,0-.6-.114,1.737,1.737,0,0,0-.636.108,1.6,1.6,0,0,0-.48.288,1.658,1.658,0,0,0-.342.42,3.209,3.209,0,0,0-.234.5Zm2.208,1.92L229.212,0h.816a1.759,1.759,0,0,1-.318.78,1.143,1.143,0,0,1-.738.36l-.18.852a2.73,2.73,0,0,0,.984-.2,1.982,1.982,0,0,0,.66-.456,2.2,2.2,0,0,0,.42-.648,5.026,5.026,0,0,0,.258-.786q.1-.42.18-.87t.186-.882ZM4.02,11.624a5.325,5.325,0,0,1-.8.186A6.638,6.638,0,0,1,2.1,11.9a1.761,1.761,0,0,1-1.272-.39,1.505,1.505,0,0,1-.4-1.122,4.313,4.313,0,0,1,.1-.828L.912,7.8H2.6L2.256,9.332a3.164,3.164,0,0,0-.072.6.572.572,0,0,0,.174.474.975.975,0,0,0,.594.138,2.688,2.688,0,0,0,.342-.024q.186-.024.372-.054t.348-.066l.27-.06L4.848,7.8H6.54L5.22,14H3.528Zm5.556,2.532a3.61,3.61,0,0,1-1.134-.168,2.278,2.278,0,0,1-.87-.51,2.315,2.315,0,0,1-.558-.846,3.2,3.2,0,0,1-.2-1.176,4.334,4.334,0,0,1,.24-1.434A3.965,3.965,0,0,1,7.734,8.8a3.251,3.251,0,0,1,1.074-.852,3.149,3.149,0,0,1,1.428-.318,3.925,3.925,0,0,1,1.182.168,2.421,2.421,0,0,1,.912.51,2.321,2.321,0,0,1,.588.852,3.087,3.087,0,0,1,.21,1.182,5.758,5.758,0,0,1-.1.972H8.46q0,.06-.006.18t-.006.18a1.185,1.185,0,0,0,.336.876,1.405,1.405,0,0,0,1.032.336,1.22,1.22,0,0,0,.45-.078,1.337,1.337,0,0,0,.348-.2,1.439,1.439,0,0,0,.264-.276q.114-.156.21-.3h1.7a4.354,4.354,0,0,1-.48.924,2.678,2.678,0,0,1-.66.666,2.726,2.726,0,0,1-.894.4A4.742,4.742,0,0,1,9.576,14.156Zm1.908-3.924a2.678,2.678,0,0,0-.042-.474,1.193,1.193,0,0,0-.162-.426.842.842,0,0,0-.348-.306,1.348,1.348,0,0,0-.6-.114A1.737,1.737,0,0,0,9.7,9.02a1.6,1.6,0,0,0-.48.288,1.658,1.658,0,0,0-.342.42,3.209,3.209,0,0,0-.234.5ZM14.64,7.8h2.472l.324,4.512h.048L19.728,7.8H22.2L20.88,14H19.272l1-4.716h-.036L17.9,14H16.3L15.96,9.284h-.036l-1,4.716h-1.6Zm13.836,6.36a2.968,2.968,0,0,1-2.034-.642,2.55,2.55,0,0,1-.726-2.01,4.694,4.694,0,0,1,.234-1.494,3.724,3.724,0,0,1,.684-1.236,3.208,3.208,0,0,1,1.1-.84,3.446,3.446,0,0,1,1.488-.306,4.2,4.2,0,0,1,1.068.132,2.593,2.593,0,0,1,.882.408,1.959,1.959,0,0,1,.6.72A2.446,2.446,0,0,1,32,9.944H30.3a.988.988,0,0,0-.282-.792,1.53,1.53,0,0,0-1.674.018,1.92,1.92,0,0,0-.54.654,3.2,3.2,0,0,0-.294.858,4.506,4.506,0,0,0-.09.858,2.2,2.2,0,0,0,.06.522,1.082,1.082,0,0,0,.2.426,1.047,1.047,0,0,0,.366.288,1.241,1.241,0,0,0,.546.108,1.275,1.275,0,0,0,.51-.1,1.451,1.451,0,0,0,.4-.252,1.356,1.356,0,0,0,.288-.366,2.484,2.484,0,0,0,.186-.438h1.7A3.7,3.7,0,0,1,30.5,13.526,3.157,3.157,0,0,1,28.476,14.156ZM33.324,7.8h1.7l-.48,2.3H36.96l.48-2.3h1.7L37.824,14h-1.7l.564-2.652H34.272L33.708,14H32.016Zm7.56,3.7a1.216,1.216,0,0,1-.366-.174A1.481,1.481,0,0,1,40.182,11a1.576,1.576,0,0,1-.24-.444,1.668,1.668,0,0,1-.09-.564,2.262,2.262,0,0,1,.21-1.02,1.866,1.866,0,0,1,.558-.678,2.326,2.326,0,0,1,.81-.378A3.828,3.828,0,0,1,42.4,7.8h3.516L44.592,14h-1.7l.456-2.184H42.48L40.656,14H38.52Zm2.724-.888.336-1.584H42.528a1.056,1.056,0,0,0-.684.222.818.818,0,0,0-.276.678.707.707,0,0,0,.078.36.541.541,0,0,0,.21.2.881.881,0,0,0,.3.1,2.549,2.549,0,0,0,.36.024ZM48.336,9.08H46.3L46.572,7.8h5.784L52.08,9.08H50.04L49,14h-1.7ZM53.16,7.8h1.692l-.468,2.172h1.092a4.113,4.113,0,0,1,1.116.12,1.535,1.535,0,0,1,.858.612,1.82,1.82,0,0,1,.318,1.068,2.253,2.253,0,0,1-.27,1.08,2.042,2.042,0,0,1-.738.792,2.311,2.311,0,0,1-.906.3,7.892,7.892,0,0,1-.942.06H51.84Zm1.788,5.016a1.3,1.3,0,0,0,.792-.222.843.843,0,0,0,.3-.726.566.566,0,0,0-.312-.594,2.133,2.133,0,0,0-.792-.126H54.12l-.36,1.668ZM59.376,7.8h1.692L59.748,14H58.056Zm3.828,2.88L61.8,7.8h1.824l.684,1.788,1.4-1.788H67.62l-2.58,2.976L66.612,14h-1.8l-.9-2.04L62.256,14h-1.92ZM71.76,7.8h4.608L76.092,9.08h-2.9L72.144,14h-1.7Zm7.092,6.36a3.065,3.065,0,0,1-2.07-.666,2.492,2.492,0,0,1-.774-2A4.485,4.485,0,0,1,76.254,10a3.709,3.709,0,0,1,.708-1.23,3.335,3.335,0,0,1,1.122-.834,3.5,3.5,0,0,1,1.488-.306,4.016,4.016,0,0,1,1.17.162,2.553,2.553,0,0,1,.918.486,2.156,2.156,0,0,1,.594.816,2.951,2.951,0,0,1,.21,1.164,4.665,4.665,0,0,1-.246,1.53,3.633,3.633,0,0,1-.714,1.242,3.313,3.313,0,0,1-1.134.828A3.659,3.659,0,0,1,78.852,14.156Zm.084-1.272a1.326,1.326,0,0,0,.822-.258,2.1,2.1,0,0,0,.564-.648,3.183,3.183,0,0,0,.33-.846,3.709,3.709,0,0,0,.108-.852,1.609,1.609,0,0,0-.282-1,1.138,1.138,0,0,0-.966-.372,1.307,1.307,0,0,0-.81.258,2.057,2.057,0,0,0-.558.642,3.228,3.228,0,0,0-.324.834,3.633,3.633,0,0,0-.108.846,1.775,1.775,0,0,0,.078.528,1.311,1.311,0,0,0,.234.444,1.152,1.152,0,0,0,.384.306A1.166,1.166,0,0,0,78.936,12.884Zm3.48-.168h.648q.192-.264.408-.594a7.455,7.455,0,0,0,.438-.78,10.2,10.2,0,0,0,.438-1.05,11.782,11.782,0,0,0,.4-1.4l.24-1.092H89.94l-1.056,4.92h.8L89.064,15.7h-1.6l.36-1.7H83.736l-.36,1.7H81.792Zm4.764,0,.78-3.648H86.292l-.036.156a9.291,9.291,0,0,1-.3,1.1q-.18.528-.378.978t-.4.81a6.653,6.653,0,0,1-.366.6Zm3.708-2.724-.312,1.464h3.612L94.5,9.992Zm3.66,2.724H95.2q.192-.264.408-.594a7.455,7.455,0,0,0,.438-.78,10.2,10.2,0,0,0,.438-1.05,11.782,11.782,0,0,0,.4-1.4l.24-1.092h4.956l-1.056,4.92h.8L101.2,15.7H99.6l.36-1.7H95.868l-.36,1.7H93.924Zm4.764,0,.78-3.648H98.424l-.036.156a9.291,9.291,0,0,1-.3,1.1q-.18.528-.378.978t-.4.81a6.653,6.653,0,0,1-.366.6Zm4.32-4.92h2.844q.384,0,.78.03a2.283,2.283,0,0,1,.732.174,1.292,1.292,0,0,1,.546.432,1.367,1.367,0,0,1,.21.816,1.517,1.517,0,0,1-.306.966,1.376,1.376,0,0,1-.846.5,1.212,1.212,0,0,1,.888,1.26,1.979,1.979,0,0,1-.1.63,2.087,2.087,0,0,1-.288.564,1.949,1.949,0,0,1-.444.444,1.74,1.74,0,0,1-.57.27q-.132.036-.264.06a2.828,2.828,0,0,1-.288.036q-.156.012-.36.018t-.48.006h-3.36Zm1.776,5.052q.228,0,.468-.018a1.282,1.282,0,0,0,.438-.108.8.8,0,0,0,.324-.264.793.793,0,0,0,.126-.474.619.619,0,0,0-.1-.384.631.631,0,0,0-.258-.2,1.07,1.07,0,0,0-.354-.078q-.2-.012-.378-.012h-1.116l-.324,1.536Zm.576-2.616a3.338,3.338,0,0,0,.4-.024,1.013,1.013,0,0,0,.348-.1.64.64,0,0,0,.246-.228.738.738,0,0,0,.1-.4.5.5,0,0,0-.084-.312.469.469,0,0,0-.222-.156,1.174,1.174,0,0,0-.3-.06q-.162-.012-.306-.012h-1.1l-.276,1.3Zm5.112,3.924a2.675,2.675,0,0,1-.882-.132,1.876,1.876,0,0,1-.63-.354,1.375,1.375,0,0,1-.372-.516,1.62,1.62,0,0,1-.12-.618,1.817,1.817,0,0,1,.618-1.44,3.151,3.151,0,0,1,1.746-.672q.6-.072,1.044-.108a4.3,4.3,0,0,0,.738-.114.923.923,0,0,0,.438-.228.757.757,0,0,0,.036-.834.784.784,0,0,0-.27-.228,1.148,1.148,0,0,0-.348-.114,2.226,2.226,0,0,0-.354-.03,1.523,1.523,0,0,0-.816.222.966.966,0,0,0-.444.69h-1.6a2.209,2.209,0,0,1,.36-.978,2.239,2.239,0,0,1,.672-.63,2.79,2.79,0,0,1,.894-.342,5.04,5.04,0,0,1,1.014-.1,6.72,6.72,0,0,1,.876.06,2.959,2.959,0,0,1,.84.234,1.635,1.635,0,0,1,.63.492,1.3,1.3,0,0,1,.234.846,5.211,5.211,0,0,1-.132,1.044l-.552,2.5a2.087,2.087,0,0,0-.066.414q-.018.246-.018.426a1.4,1.4,0,0,0,.06.36h-1.7v-.612a2.069,2.069,0,0,1-.852.582A2.992,2.992,0,0,1,111.1,14.156Zm.624-1.128a1.57,1.57,0,0,0,.666-.126,1.47,1.47,0,0,0,.456-.324,1.535,1.535,0,0,0,.294-.45,4.227,4.227,0,0,0,.18-.5l.168-.6a1.732,1.732,0,0,1-.7.234q-.372.042-.744.066a3.57,3.57,0,0,0-.468.078,1.344,1.344,0,0,0-.4.162.829.829,0,0,0-.282.294.934.934,0,0,0-.108.474.573.573,0,0,0,.282.522A1.22,1.22,0,0,0,111.72,13.028Zm8.6-5.232h1.7l-.48,2.3h2.412l.48-2.3h1.7l-1.32,6.2h-1.7l.564-2.652h-2.412L120.708,14h-1.692Zm7.932,6.36a2.675,2.675,0,0,1-.882-.132,1.876,1.876,0,0,1-.63-.354,1.375,1.375,0,0,1-.372-.516,1.62,1.62,0,0,1-.12-.618,1.817,1.817,0,0,1,.618-1.44,3.151,3.151,0,0,1,1.746-.672q.6-.072,1.044-.108a4.3,4.3,0,0,0,.738-.114.923.923,0,0,0,.438-.228.757.757,0,0,0,.036-.834.784.784,0,0,0-.27-.228,1.148,1.148,0,0,0-.348-.114,2.226,2.226,0,0,0-.354-.03,1.523,1.523,0,0,0-.816.222.966.966,0,0,0-.444.69h-1.6a2.209,2.209,0,0,1,.36-.978,2.239,2.239,0,0,1,.672-.63,2.79,2.79,0,0,1,.894-.342,5.04,5.04,0,0,1,1.014-.1,6.72,6.72,0,0,1,.876.06,2.959,2.959,0,0,1,.84.234,1.635,1.635,0,0,1,.63.492,1.3,1.3,0,0,1,.234.846,5.212,5.212,0,0,1-.132,1.044l-.552,2.5a2.087,2.087,0,0,0-.066.414q-.018.246-.018.426a1.4,1.4,0,0,0,.06.36h-1.7v-.612a2.069,2.069,0,0,1-.852.582A2.992,2.992,0,0,1,128.256,14.156Zm.624-1.128a1.57,1.57,0,0,0,.666-.126,1.47,1.47,0,0,0,.456-.324,1.535,1.535,0,0,0,.294-.45,4.228,4.228,0,0,0,.18-.5l.168-.6a1.732,1.732,0,0,1-.7.234q-.372.042-.744.066a3.57,3.57,0,0,0-.468.078,1.344,1.344,0,0,0-.4.162.829.829,0,0,0-.282.294.934.934,0,0,0-.108.474.573.573,0,0,0,.282.522A1.22,1.22,0,0,0,128.88,13.028Zm6.732,1.128a3.273,3.273,0,0,1-1.992-.522,1.718,1.718,0,0,1-.7-1.458v-.2h1.584v.072a.861.861,0,0,0,.318.726,1.476,1.476,0,0,0,.918.246,1.391,1.391,0,0,0,.852-.258.915.915,0,0,0,.348-.786.555.555,0,0,0-.09-.33.616.616,0,0,0-.24-.2,1.223,1.223,0,0,0-.342-.1,2.644,2.644,0,0,0-.408-.03h-.54l.24-1.044h.324a2.512,2.512,0,0,0,.456-.042,1.3,1.3,0,0,0,.408-.144.866.866,0,0,0,.294-.27.754.754,0,0,0,.114-.432q0-.6-.876-.6a1.637,1.637,0,0,0-.8.192.957.957,0,0,0-.456.672H133.44a2.348,2.348,0,0,1,.36-.948,2.031,2.031,0,0,1,.672-.618,3.126,3.126,0,0,1,.942-.342,5.778,5.778,0,0,1,1.146-.108,3.766,3.766,0,0,1,1.044.126,2.018,2.018,0,0,1,.7.342,1.258,1.258,0,0,1,.39.51,1.62,1.62,0,0,1,.12.618,1.269,1.269,0,0,1-.1.486,1.585,1.585,0,0,1-.252.42,1.674,1.674,0,0,1-.366.324,1.481,1.481,0,0,1-.438.2,1.091,1.091,0,0,1,.726.408,1.31,1.31,0,0,1,.282.852,2.05,2.05,0,0,1-.222.972,1.958,1.958,0,0,1-.63.7,3,3,0,0,1-.972.426A4.991,4.991,0,0,1,135.612,14.156Zm5.676,0a2.675,2.675,0,0,1-.882-.132,1.876,1.876,0,0,1-.63-.354,1.375,1.375,0,0,1-.372-.516,1.62,1.62,0,0,1-.12-.618,1.817,1.817,0,0,1,.618-1.44,3.151,3.151,0,0,1,1.746-.672q.6-.072,1.044-.108a4.3,4.3,0,0,0,.738-.114.923.923,0,0,0,.438-.228.757.757,0,0,0,.036-.834.784.784,0,0,0-.27-.228,1.148,1.148,0,0,0-.348-.114,2.226,2.226,0,0,0-.354-.03,1.523,1.523,0,0,0-.816.222.966.966,0,0,0-.444.69h-1.6a2.209,2.209,0,0,1,.36-.978,2.239,2.239,0,0,1,.672-.63A2.79,2.79,0,0,1,142,7.73a5.04,5.04,0,0,1,1.014-.1,6.719,6.719,0,0,1,.876.06,2.959,2.959,0,0,1,.84.234,1.635,1.635,0,0,1,.63.492,1.3,1.3,0,0,1,.234.846,5.212,5.212,0,0,1-.132,1.044l-.552,2.5a2.086,2.086,0,0,0-.066.414q-.018.246-.018.426a1.4,1.4,0,0,0,.06.36h-1.7v-.612a2.069,2.069,0,0,1-.852.582A2.992,2.992,0,0,1,141.288,14.156Zm.624-1.128a1.57,1.57,0,0,0,.666-.126,1.47,1.47,0,0,0,.456-.324,1.535,1.535,0,0,0,.294-.45,4.225,4.225,0,0,0,.18-.5l.168-.6a1.732,1.732,0,0,1-.7.234q-.372.042-.744.066a3.569,3.569,0,0,0-.468.078,1.344,1.344,0,0,0-.4.162.829.829,0,0,0-.282.294.934.934,0,0,0-.108.474.573.573,0,0,0,.282.522A1.22,1.22,0,0,0,141.912,13.028Zm3.744-.312h.648q.192-.264.408-.594a7.455,7.455,0,0,0,.438-.78,10.2,10.2,0,0,0,.438-1.05,11.785,11.785,0,0,0,.4-1.4l.24-1.092h4.956l-1.056,4.92h.8L152.3,15.7h-1.6l.36-1.7h-4.092l-.36,1.7h-1.584Zm4.764,0,.78-3.648h-1.668l-.036.156a9.292,9.292,0,0,1-.3,1.1q-.18.528-.378.978t-.4.81a6.655,6.655,0,0,1-.366.6Zm4.944-.564-.4,1.848h1.9l.4-1.848Zm-.984-4.044h1.7a2.247,2.247,0,0,1,.144-.558,1.692,1.692,0,0,1,.282-.474,1.248,1.248,0,0,1,.99-.444,1.207,1.207,0,0,1,.732.228.818.818,0,0,1,.312.708,1.037,1.037,0,0,1-.252.708,2.408,2.408,0,0,1-.6.492q-.432.228-.762.444a2.876,2.876,0,0,0-.576.492,2.222,2.222,0,0,0-.4.672,4.426,4.426,0,0,0-.24.984H157.3a1.551,1.551,0,0,1,.456-1,4.1,4.1,0,0,1,.912-.636,7.206,7.206,0,0,0,.636-.408,2.812,2.812,0,0,0,.528-.492,2.367,2.367,0,0,0,.366-.612,2.008,2.008,0,0,0,.138-.768,2.152,2.152,0,0,0-.216-1,1.98,1.98,0,0,0-.576-.69,2.486,2.486,0,0,0-.834-.4,3.673,3.673,0,0,0-.99-.132,4.326,4.326,0,0,0-1.272.18,3.092,3.092,0,0,0-1.038.54,2.657,2.657,0,0,0-.72.9A3.142,3.142,0,0,0,154.38,8.108ZM165.192,10.1l-1.536-1.656-.264,1.284.924,1.02-1.32.816-.312,1.476,2.172-1.38Zm-2.352,0L161.3,8.444l-.264,1.284.924,1.02-1.32.816-.312,1.476,2.172-1.38Z" transform="translate(20 1339)" fill="#2a2846"/><g transform="translate(20 1362)" fill="#2a1e4d" stroke="#2a1e4d" stroke-width="2"><rect width="162" height="24" stroke="none"/><rect x="1" y="1" width="160" height="22" fill="none"/></g><g transform="translate(20 1391)" fill="#2a1e4d" stroke="#2a1e4d" stroke-width="2"><rect width="154" height="24" stroke="none"/><rect x="1" y="1" width="152" height="22" fill="none"/></g><path d="M.66-3.36v-7.16q0-3.64,3.36-3.64a3.156,3.156,0,0,1,2.44.91,3.712,3.712,0,0,1,.84,2.61v.36H5.22v-.5q0-1.38-1.14-1.38a1.1,1.1,0,0,0-.92.38,2.229,2.229,0,0,0-.3,1.34v2.56A2.068,2.068,0,0,1,4.9-9.12q2.44,0,2.44,3.2v2.56a3.663,3.663,0,0,1-.86,2.6A3.23,3.23,0,0,1,4,.16,3.23,3.23,0,0,1,1.52-.76,3.663,3.663,0,0,1,.66-3.36ZM5.14-5.74Q5.14-7.12,4-7.12T2.86-5.74v2.52Q2.86-1.86,4-1.86T5.14-3.22Zm4.94-4.94v-1.56a2.379,2.379,0,0,0,1.62-.44A3.282,3.282,0,0,0,12.5-14h1.48V0h-2.2V-10.68Zm7.84-1.28v4.8q0,.88.72.88t.72-.88v-4.8q0-.88-.72-.88T17.92-11.96Zm-1.4,4.7v-4.6a2.347,2.347,0,0,1,.54-1.66,2.054,2.054,0,0,1,1.58-.58,2.054,2.054,0,0,1,1.58.58,2.347,2.347,0,0,1,.54,1.66v4.6a2.347,2.347,0,0,1-.54,1.66,2.054,2.054,0,0,1-1.58.58,2.054,2.054,0,0,1-1.58-.58A2.347,2.347,0,0,1,16.52-7.26ZM18.64,0l5.52-14h1.3L19.94,0Zm6.22-6.84v4.8q0,.88.72.88t.72-.88v-4.8q0-.88-.72-.88T24.86-6.84Zm-1.4,4.7v-4.6A2.347,2.347,0,0,1,24-8.4a2.054,2.054,0,0,1,1.58-.58,2.054,2.054,0,0,1,1.58.58,2.347,2.347,0,0,1,.54,1.66v4.6a2.347,2.347,0,0,1-.54,1.66A2.054,2.054,0,0,1,25.58.1,2.054,2.054,0,0,1,24-.48,2.347,2.347,0,0,1,23.46-2.14Z" transform="translate(267 1381)" fill="#291d4c"/><path d="M9.65-7.8,7.339-4.825,9.65-1.846,8.429-.923l-3.665-3.9,3.665-3.9Zm-4.017.026-2.3,2.953,2.3,2.979L4.412-.923.756-4.825l3.656-3.9Zm13.02,9.47H16.692V0h-4.23V1.692H10.536V-1.764h.774A2.824,2.824,0,0,0,11.8-3.4l.45-9.2H17.79V-1.764h.864ZM14.1-10.8l-.36,7.362a2.5,2.5,0,0,1-.558,1.674h2.592V-10.8Zm10.044-1.8L26.16,0h-2L23.82-2.286H21.39L21.048,0H19.23l2.016-12.6ZM22.6-10.368,21.642-4H23.55ZM26.956-7.8l2.312,2.979L26.956-1.846l1.222.923,3.665-3.9-3.665-3.9Zm4.017.026,2.3,2.953-2.3,2.979,1.222.923,3.656-3.9-3.656-3.9ZM43.1-12.6a3.029,3.029,0,0,1,2.232.711,3,3,0,0,1,.7,2.187v.45A2.5,2.5,0,0,1,44.76-6.714q1.476.576,1.476,2.7v1.026a3.011,3.011,0,0,1-.765,2.223A3.037,3.037,0,0,1,43.23,0H40.116V-12.6Zm-.126,6.93H42.1V-1.8H43.23A.992.992,0,0,0,44-2.079a1.437,1.437,0,0,0,.252-.963v-1.1a1.824,1.824,0,0,0-.3-1.2A1.258,1.258,0,0,0,42.978-5.67Zm.072-5.13H42.1v3.33h.774a1.188,1.188,0,0,0,.891-.306,1.446,1.446,0,0,0,.3-1.026v-.7Q44.058-10.8,43.05-10.8ZM54.138-9.5a1.809,1.809,0,0,0-.261-1.125.936.936,0,0,0-.765-.315q-1.026,0-1.026,1.242v1.35H50.214V-9.576a3.34,3.34,0,0,1,.756-2.349,2.841,2.841,0,0,1,2.2-.819,2.841,2.841,0,0,1,2.2.819,3.34,3.34,0,0,1,.756,2.349,5.461,5.461,0,0,1-.4,2.088,6.415,6.415,0,0,1-.99,1.692q-.585.7-1.161,1.314a8.912,8.912,0,0,0-.981,1.233,2.176,2.176,0,0,0-.4,1.179,1.491,1.491,0,0,0,.018.27h3.744V0H50.214V-1.548a4.338,4.338,0,0,1,.4-1.881A6.137,6.137,0,0,1,51.6-4.923q.576-.639,1.152-1.26a5.857,5.857,0,0,0,.981-1.467A4.238,4.238,0,0,0,54.138-9.5Zm5.022-.2v6.8q0,1.242,1.026,1.242T61.212-2.9V-9.7q0-1.242-1.026-1.242T59.16-9.7ZM57.18-3.024V-9.576a3.3,3.3,0,0,1,.774-2.34,2.907,2.907,0,0,1,2.232-.828,2.907,2.907,0,0,1,2.232.828,3.3,3.3,0,0,1,.774,2.34v6.552a3.3,3.3,0,0,1-.774,2.34,2.907,2.907,0,0,1-2.232.828,2.907,2.907,0,0,1-2.232-.828A3.3,3.3,0,0,1,57.18-3.024Zm8.514-6.588v-1.4a2.141,2.141,0,0,0,1.458-.4,2.953,2.953,0,0,0,.72-1.188H69.2V0h-1.98V-9.612ZM77.538-3.024a3.228,3.228,0,0,1-.8,2.34,3.046,3.046,0,0,1-2.295.828,3.046,3.046,0,0,1-2.3-.828,3.228,3.228,0,0,1-.8-2.34v-.99A2.74,2.74,0,0,1,72.57-6.642,2.624,2.624,0,0,1,71.346-9.18v-.4a3.228,3.228,0,0,1,.8-2.34,3.046,3.046,0,0,1,2.3-.828,3.046,3.046,0,0,1,2.295.828,3.228,3.228,0,0,1,.8,2.34v.4a2.648,2.648,0,0,1-1.224,2.538,2.74,2.74,0,0,1,1.224,2.628Zm-4.212-.054q0,1.422,1.116,1.422,1.1,0,1.116-1.422v-1.17q0-1.422-1.116-1.422T73.326-4.248Zm0-6.426v.7q0,1.332,1.116,1.332T75.558-8.8v-.7q0-1.44-1.116-1.44T73.326-9.5Zm7.4,9.5h-1.98V-12.6h5.22v1.8h-3.24Z" transform="translate(25 1380)" fill="#fbf5e8"/><path d="M9.65-7.8,7.339-4.825,9.65-1.846,8.429-.923l-3.665-3.9,3.665-3.9Zm-4.017.026-2.3,2.953,2.3,2.979L4.412-.923.756-4.825l3.656-3.9Zm13.02,9.47H16.692V0h-4.23V1.692H10.536V-1.764h.774A2.824,2.824,0,0,0,11.8-3.4l.45-9.2H17.79V-1.764h.864ZM14.1-10.8l-.36,7.362a2.5,2.5,0,0,1-.558,1.674h2.592V-10.8Zm10.044-1.8L26.16,0h-2L23.82-2.286H21.39L21.048,0H19.23l2.016-12.6ZM22.6-10.368,21.642-4H23.55ZM26.956-7.8l2.312,2.979L26.956-1.846l1.222.923,3.665-3.9-3.665-3.9Zm4.017.026,2.3,2.953-2.3,2.979,1.222.923,3.656-3.9-3.656-3.9ZM43.1-12.6a3.029,3.029,0,0,1,2.232.711,3,3,0,0,1,.7,2.187v.45A2.5,2.5,0,0,1,44.76-6.714q1.476.576,1.476,2.7v1.026a3.011,3.011,0,0,1-.765,2.223A3.037,3.037,0,0,1,43.23,0H40.116V-12.6Zm-.126,6.93H42.1V-1.8H43.23A.992.992,0,0,0,44-2.079a1.437,1.437,0,0,0,.252-.963v-1.1a1.824,1.824,0,0,0-.3-1.2A1.258,1.258,0,0,0,42.978-5.67Zm.072-5.13H42.1v3.33h.774a1.188,1.188,0,0,0,.891-.306,1.446,1.446,0,0,0,.3-1.026v-.7Q44.058-10.8,43.05-10.8ZM54.138-9.5a1.809,1.809,0,0,0-.261-1.125.936.936,0,0,0-.765-.315q-1.026,0-1.026,1.242v1.35H50.214V-9.576a3.34,3.34,0,0,1,.756-2.349,2.841,2.841,0,0,1,2.2-.819,2.841,2.841,0,0,1,2.2.819,3.34,3.34,0,0,1,.756,2.349,5.461,5.461,0,0,1-.4,2.088,6.415,6.415,0,0,1-.99,1.692q-.585.7-1.161,1.314a8.912,8.912,0,0,0-.981,1.233,2.176,2.176,0,0,0-.4,1.179,1.491,1.491,0,0,0,.018.27h3.744V0H50.214V-1.548a4.338,4.338,0,0,1,.4-1.881A6.137,6.137,0,0,1,51.6-4.923q.576-.639,1.152-1.26a5.857,5.857,0,0,0,.981-1.467A4.238,4.238,0,0,0,54.138-9.5Zm5.022-.2v6.8q0,1.242,1.026,1.242T61.212-2.9V-9.7q0-1.242-1.026-1.242T59.16-9.7ZM57.18-3.024V-9.576a3.3,3.3,0,0,1,.774-2.34,2.907,2.907,0,0,1,2.232-.828,2.907,2.907,0,0,1,2.232.828,3.3,3.3,0,0,1,.774,2.34v6.552a3.3,3.3,0,0,1-.774,2.34,2.907,2.907,0,0,1-2.232.828,2.907,2.907,0,0,1-2.232-.828A3.3,3.3,0,0,1,57.18-3.024Zm8.514-6.588v-1.4a2.141,2.141,0,0,0,1.458-.4,2.953,2.953,0,0,0,.72-1.188H69.2V0h-1.98V-9.612ZM71.472-12.6h5.94v1.728L74.5,0h-1.98l2.9-10.8H71.472ZM80.724,0h-1.98V-12.6h5.22v1.8h-3.24Z" transform="translate(25 1409)" fill="#fbf5e8"/><path d="M.7-4.52H2.78v1.3q0,1.36,1.14,1.36T5.06-3.22V-6.3q0-1.38-1.14-1.38T2.78-6.3v.42H.7L1.1-14H6.9v2H3.08L2.9-8.66A2.089,2.089,0,0,1,4.82-9.68q2.44,0,2.44,3.2v3.12A3.712,3.712,0,0,1,6.42-.75,3.156,3.156,0,0,1,3.98.16,3.156,3.156,0,0,1,1.54-.75,3.712,3.712,0,0,1,.7-3.36ZM15.32-3.36a3.586,3.586,0,0,1-.89,2.6,3.385,3.385,0,0,1-2.55.92A3.385,3.385,0,0,1,9.33-.76a3.586,3.586,0,0,1-.89-2.6v-1.1A3.044,3.044,0,0,1,9.8-7.38,2.916,2.916,0,0,1,8.44-10.2v-.44a3.586,3.586,0,0,1,.89-2.6,3.385,3.385,0,0,1,2.55-.92,3.385,3.385,0,0,1,2.55.92,3.586,3.586,0,0,1,.89,2.6v.44a2.942,2.942,0,0,1-1.36,2.82,3.044,3.044,0,0,1,1.36,2.92Zm-4.68-.06q0,1.58,1.24,1.58,1.22,0,1.24-1.58v-1.3q0-1.58-1.24-1.58T10.64-4.72Zm0-7.14v.78q0,1.48,1.24,1.48t1.24-1.48v-.78q0-1.6-1.24-1.6T10.64-10.56Zm7.28-1.4v4.8q0,.88.72.88t.72-.88v-4.8q0-.88-.72-.88T17.92-11.96Zm-1.4,4.7v-4.6a2.347,2.347,0,0,1,.54-1.66,2.054,2.054,0,0,1,1.58-.58,2.054,2.054,0,0,1,1.58.58,2.347,2.347,0,0,1,.54,1.66v4.6a2.347,2.347,0,0,1-.54,1.66,2.054,2.054,0,0,1-1.58.58,2.054,2.054,0,0,1-1.58-.58A2.347,2.347,0,0,1,16.52-7.26ZM18.64,0l5.52-14h1.3L19.94,0Zm6.22-6.84v4.8q0,.88.72.88t.72-.88v-4.8q0-.88-.72-.88T24.86-6.84Zm-1.4,4.7v-4.6A2.347,2.347,0,0,1,24-8.4a2.054,2.054,0,0,1,1.58-.58,2.054,2.054,0,0,1,1.58.58,2.347,2.347,0,0,1,.54,1.66v4.6a2.347,2.347,0,0,1-.54,1.66A2.054,2.054,0,0,1,25.58.1,2.054,2.054,0,0,1,24-.48,2.347,2.347,0,0,1,23.46-2.14Z" transform="translate(267 1410)" fill="#291d4c"/><g transform="translate(20 1362)" fill="none" stroke="#2a1e4d" stroke-width="2"><rect width="281" height="24" stroke="none"/><rect x="1" y="1" width="279" height="22" fill="none"/></g><g transform="translate(20 1391)" fill="none" stroke="#2a1e4d" stroke-width="2"><rect width="281" height="24" stroke="none"/><rect x="1" y="1" width="279" height="22" fill="none"/></g><g transform="translate(-863 1154)"><path d="M7,0l7,12H0Z" transform="translate(1168 214)" fill="#9ccc65"/><path d="M4.266-9.432V-7H6.678v1.4H4.266v2.466h-1.4V-5.6H.45V-7H2.862v-2.43Zm7.218.63v-.7a1.809,1.809,0,0,0-.261-1.125.936.936,0,0,0-.765-.315q-1.026,0-1.026,1.242v.81H7.56v-.684a3.34,3.34,0,0,1,.756-2.349,2.841,2.841,0,0,1,2.2-.819,2.841,2.841,0,0,1,2.2.819,3.34,3.34,0,0,1,.756,2.349v.324A2.489,2.489,0,0,1,12.078-6.66a2.579,2.579,0,0,1,1.386,2.646v.99a3.34,3.34,0,0,1-.756,2.349,2.841,2.841,0,0,1-2.2.819,2.841,2.841,0,0,1-2.2-.819A3.34,3.34,0,0,1,7.56-3.024V-4.068H9.432V-2.9q0,1.242,1.026,1.242a.936.936,0,0,0,.765-.315,1.771,1.771,0,0,0,.261-1.107v-.99A1.944,1.944,0,0,0,11.178-5.3a1.216,1.216,0,0,0-.99-.369H9.522v-1.8H10.3a1.188,1.188,0,0,0,.891-.306A1.446,1.446,0,0,0,11.484-8.8Zm7.722-2V0h-1.98V-12.6h6.246V0H21.456V-10.8Zm5.526,8.892H26.64V0H24.732ZM29.88-10.8V0H27.9V-12.6h6.246V0H32.13V-10.8Zm5.526,8.892h1.908V0H35.406Z" transform="translate(1181 226)" fill="#9ccc65"/></g></g></svg>