<svg xmlns="http://www.w3.org/2000/svg" width="375" height="530" viewBox="0 0 375 530"><g transform="translate(0 -5041)"><rect width="375" height="530" transform="translate(0 5041)" fill="#fffbee"/><g transform="translate(0 5046.424)"><rect width="375" height="514" transform="translate(0 9.576)" fill="#fffbee"/><g transform="translate(0 17.806)"><g transform="translate(0 10.716)"><g transform="translate(32 0.054)"><rect width="72" height="300" fill="#e3ded5" opacity="0.5"/><rect width="179" height="300" transform="translate(144)" fill="#ffbe28" opacity="0.102"/></g><line x2="322.218" transform="translate(32.282 299.612)" stroke-width="1" stroke="#e3ded5" stroke-linecap="square" stroke-linejoin="bevel" fill="none"/><line x2="322.218" transform="translate(32.282 249.676)" stroke-width="1" stroke="#e3ded5" stroke-linecap="square" stroke-linejoin="bevel" fill="none"/><line x2="355" transform="translate(0 199.054)" fill="none" stroke="#e3ded5" stroke-linejoin="bevel" stroke-width="30"/><line x2="322.218" transform="translate(32.282 149.806)" stroke-width="1" stroke="#e3ded5" stroke-linecap="square" stroke-linejoin="bevel" fill="none"/><line x2="322.218" transform="translate(32.282 99.871)" stroke-width="1" stroke="#e3ded5" stroke-linecap="square" stroke-linejoin="bevel" fill="none"/><line x2="322.218" transform="translate(32.282 49.935)" stroke-width="1" stroke="#e3ded5" stroke-linecap="square" stroke-linejoin="bevel" fill="none"/><line y1="299.057" transform="translate(319.082 0.554)" stroke-width="1" stroke="#e3ded5" stroke-linecap="square" stroke-linejoin="bevel" fill="none"/><line y1="299.057" transform="translate(283.232 0.554)" stroke-width="1" stroke="#e3ded5" stroke-linecap="square" stroke-linejoin="bevel" fill="none"/><line y1="299.057" transform="translate(245.382 0.554)" stroke-width="1" stroke="#e3ded5" stroke-linecap="square" stroke-linejoin="bevel" fill="none"/><line y1="299.057" transform="translate(211.532 0.554)" stroke-width="1" stroke="#e3ded5" stroke-linecap="square" stroke-linejoin="bevel" fill="none"/><line y1="351.612" transform="translate(175.682)" fill="none" stroke="#e3ded5" stroke-linejoin="bevel" stroke-width="1"/><line y1="299.612" transform="translate(139.832)" stroke-width="1" stroke="#e3ded5" stroke-linecap="square" stroke-linejoin="bevel" fill="none"/><path d="M0,351.612V0" transform="translate(103.982)" fill="none" stroke="#e3ded5" stroke-width="1"/><line y1="299.057" transform="translate(68.132 0.554)" stroke-width="1" stroke="#e3ded5" stroke-linecap="square" stroke-linejoin="bevel" fill="none"/><path d="M0,299.057V0" transform="translate(32.282 0.554)" fill="none" stroke="#e3ded5" stroke-linecap="square" stroke-width="1"/><line y1="299.057" transform="translate(249.382 0.554)" stroke-width="1" stroke="#e3ded5" stroke-linecap="square" stroke-linejoin="bevel" fill="none"/><line x1="10.453" y2="10.453" transform="translate(242.155 284.826)" stroke-width="2" stroke="#e3ded5" stroke-linecap="square" stroke-linejoin="bevel" fill="none"/><line x1="10.453" y2="10.453" transform="translate(242.155 278.644)" stroke-width="2" stroke="#e3ded5" stroke-linecap="square" stroke-linejoin="bevel" fill="none"/><line x2="182.269" transform="translate(32.742 199.997)" fill="none" stroke="#292b45" stroke-width="2" opacity="0.325" style="isolation:isolate"/></g><g transform="translate(50.177 435.947)"><path d="M2.424-8.4q1.968,0,1.968,2.076v1.092q0,2.076-1.968,2.076H1.8V0H.48V-8.4Zm0,1.2H1.8v2.844h.624a.621.621,0,0,0,.486-.18.912.912,0,0,0,.162-.612v-1.26A.912.912,0,0,0,2.91-7.02.621.621,0,0,0,2.424-7.2Zm3.9,0v2.34H8.136v1.2H6.324V-1.2H8.6V0H5V-8.4H8.6v1.2ZM12.432,0,11.148-3.348l-.408.768V0H9.42V-8.4h1.32v3.66L12.468-8.4h1.32L11.952-4.656,13.788,0Zm1.584.012v-1.2a.981.981,0,0,0,.642-.15,1.073,1.073,0,0,0,.174-.714L15.048-8.4H18.78V0H17.436V-7.2H16.284L16.14-2.124A2.56,2.56,0,0,1,15.66-.48a1.855,1.855,0,0,1-1.44.492Zm8.7-8.412L24.06,0H22.728L22.5-1.524H20.88L20.652,0H19.44l1.344-8.4ZM21.684-6.912l-.636,4.248H22.32ZM26.5-8.4l.972,5.964.9-5.964H30.2V0H28.956V-6.024L28.044,0H26.8l-.984-5.94V0H24.66V-8.4Zm5.988,4.8V0h-1.32V-8.4h1.32v3.6h1.5V-8.4h1.344V0H33.984V-3.6ZM38.232,0H36.288V-8.4h1.32v3.156h.624q1.968,0,1.968,2.076v1.092Q40.2,0,38.232,0Zm-.624-1.2h.624a.621.621,0,0,0,.486-.18.912.912,0,0,0,.162-.612v-1.26a.912.912,0,0,0-.162-.612.621.621,0,0,0-.486-.18h-.624ZM42.276,0h-1.32V-8.4h1.32Zm.96,0V-8.4h1.176v5.316l.48-1.848L45.972-8.4h1.452V0H46.236V-5.916L45.7-3.852,44.592,0Zm2.712-10.272h.8a1.309,1.309,0,0,1-.36.978,1.428,1.428,0,0,1-1.044.354,1.361,1.361,0,0,1-1.014-.348,1.426,1.426,0,0,1-.366-.984h.816a.632.632,0,0,0,.156.438.613.613,0,0,0,.408.114.663.663,0,0,0,.432-.12A.6.6,0,0,0,45.948-10.272ZM52.344,0H50.256V-8.4h3.7v1.2H51.576v2.148h.768a1.95,1.95,0,0,1,1.488.534,2.163,2.163,0,0,1,.5,1.542v.9a2.163,2.163,0,0,1-.5,1.542A1.95,1.95,0,0,1,52.344,0Zm-.768-1.2h.768q.672,0,.672-.792V-3.06q0-.792-.672-.792h-.768Zm5.952-.816V-3.6h-.984V0h-1.32V-8.4h1.32v3.6h.984V-6.384a2.2,2.2,0,0,1,.516-1.56A1.938,1.938,0,0,1,59.532-8.5a1.938,1.938,0,0,1,1.488.552,2.2,2.2,0,0,1,.516,1.56v4.368a2.2,2.2,0,0,1-.516,1.56A1.938,1.938,0,0,1,59.532.1a1.938,1.938,0,0,1-1.488-.552A2.2,2.2,0,0,1,57.528-2.016Zm1.32-4.452v4.536q0,.828.684.828t.684-.828V-6.468q0-.828-.684-.828T58.848-6.468Zm8.688,7.6H66.228V0h-2.82V1.128H62.124v-2.3h.516a1.883,1.883,0,0,0,.324-1.092l.3-6.132h3.7v7.224h.576ZM64.5-7.2l-.24,4.908a1.669,1.669,0,0,1-.372,1.116h1.728V-7.2Zm7.572-1.2V-5l1.56-3.4h1.32l-1.62,3.408L74.952,0H73.6L72.4-3.72l-.324.636V0H70.764V-3.084l-.324-.648L69.24,0H67.884l1.632-4.956L67.884-8.4H69.2L70.764-5V-8.4Zm4.764,1.2v2.34h1.812v1.2H76.836V-1.2h2.28V0h-3.6V-8.4h3.6v1.2Zm2.712,0V-8.4h4.08v1.2h-1.38V0h-1.32V-7.2Z" transform="translate(-0.48 10.272)" fill="#2a2648"/></g><g transform="translate(50.177 415.844)"><path d="M2.472-8.4a2.02,2.02,0,0,1,1.488.474,2,2,0,0,1,.468,1.458v.3a1.669,1.669,0,0,1-.852,1.692,1.7,1.7,0,0,1,.984,1.8v.684A2.007,2.007,0,0,1,4.05-.51,2.025,2.025,0,0,1,2.556,0H.48V-8.4ZM2.388-3.78H1.8V-1.2h.756a.661.661,0,0,0,.516-.186.958.958,0,0,0,.168-.642V-2.76a1.216,1.216,0,0,0-.2-.8A.839.839,0,0,0,2.388-3.78ZM2.436-7.2H1.8v2.22h.516a.792.792,0,0,0,.594-.2.964.964,0,0,0,.2-.684v-.468Q3.108-7.2,2.436-7.2Zm4.128.732v4.536q0,.828.684.828t.684-.828V-6.468q0-.828-.684-.828T6.564-6.468ZM5.244-2.016V-6.384a2.2,2.2,0,0,1,.516-1.56A1.938,1.938,0,0,1,7.248-8.5a1.938,1.938,0,0,1,1.488.552,2.2,2.2,0,0,1,.516,1.56v4.368a2.2,2.2,0,0,1-.516,1.56A1.938,1.938,0,0,1,7.248.1,1.938,1.938,0,0,1,5.76-.456,2.2,2.2,0,0,1,5.244-2.016Zm7.4-3.852v-.468a1.206,1.206,0,0,0-.174-.75.624.624,0,0,0-.51-.21q-.7,0-.7.828v.684H10.056v-.624a2.216,2.216,0,0,1,.492-1.554A1.877,1.877,0,0,1,12-8.5a1.894,1.894,0,0,1,1.464.546,2.227,2.227,0,0,1,.5,1.566v.216a1.66,1.66,0,0,1-.924,1.728,1.719,1.719,0,0,1,.924,1.764v.66a2.227,2.227,0,0,1-.5,1.566A1.894,1.894,0,0,1,12,.1,1.894,1.894,0,0,1,10.536-.45a2.227,2.227,0,0,1-.5-1.566V-2.94H11.28v1.008q0,.828.684.828a.624.624,0,0,0,.51-.21,1.181,1.181,0,0,0,.174-.738v-.66a1.3,1.3,0,0,0-.2-.822.811.811,0,0,0-.66-.246H11.46v-1.2h.4a.792.792,0,0,0,.594-.2A.964.964,0,0,0,12.648-5.868Zm4.2-2.532a2.02,2.02,0,0,1,1.488.474A2,2,0,0,1,18.8-6.468v.3a1.669,1.669,0,0,1-.852,1.692,1.7,1.7,0,0,1,.984,1.8v.684a2.007,2.007,0,0,1-.51,1.482A2.025,2.025,0,0,1,16.932,0H14.856V-8.4Zm-.084,4.62h-.588V-1.2h.756a.661.661,0,0,0,.516-.186.958.958,0,0,0,.168-.642V-2.76a1.216,1.216,0,0,0-.2-.8A.839.839,0,0,0,16.764-3.78Zm.048-3.42h-.636v2.22h.516a.792.792,0,0,0,.594-.2.964.964,0,0,0,.2-.684v-.468Q17.484-7.2,16.812-7.2Zm4.86-1.2q1.968,0,1.968,2.076v1.092q0,2.076-1.968,2.076h-.624V0h-1.32V-8.4Zm0,1.2h-.624v2.844h.624a.621.621,0,0,0,.486-.18.912.912,0,0,0,.162-.612v-1.26a.912.912,0,0,0-.162-.612A.621.621,0,0,0,21.672-7.2ZM27.18-8.4,28.524,0H27.192l-.228-1.524h-1.62L25.116,0H23.9l1.344-8.4ZM26.148-6.912l-.636,4.248h1.272Zm2.6-.288V-8.4h4.08v1.2h-1.38V0h-1.32V-7.2Zm8.976,3.348L36.624,0H35.268V-8.4h1.176v5.316l.48-1.848L38-8.4h1.452V0H38.268V-5.916Zm3.984.252V0h-1.32V-8.4h1.32v3.6h1.5V-8.4h1.344V0H43.212V-3.6Zm5.8-4.8A2.02,2.02,0,0,1,49-7.926a2,2,0,0,1,.468,1.458v.3a1.669,1.669,0,0,1-.852,1.692,1.7,1.7,0,0,1,.984,1.8v.684a2.007,2.007,0,0,1-.51,1.482A2.025,2.025,0,0,1,47.592,0H45.516V-8.4Zm-.084,4.62h-.588V-1.2h.756a.661.661,0,0,0,.516-.186.958.958,0,0,0,.168-.642V-2.76a1.216,1.216,0,0,0-.2-.8A.839.839,0,0,0,47.424-3.78Zm.048-3.42h-.636v2.22h.516a.792.792,0,0,0,.594-.2.964.964,0,0,0,.2-.684v-.468Q48.144-7.2,47.472-7.2Zm4.236,0v2.34H53.52v1.2H51.708V-1.2h2.28V0h-3.6V-8.4h3.6v1.2Zm5.676,4.068h1.248v1.116a2.227,2.227,0,0,1-.5,1.566A1.894,1.894,0,0,1,56.664.1,1.894,1.894,0,0,1,55.2-.45a2.227,2.227,0,0,1-.5-1.566V-6.384a2.227,2.227,0,0,1,.5-1.566A1.894,1.894,0,0,1,56.664-8.5a1.894,1.894,0,0,1,1.464.546,2.227,2.227,0,0,1,.5,1.566v.816H57.384v-.9q0-.828-.684-.828t-.684.828v4.536q0,.816.684.816t.684-.816ZM59.052-7.2V-8.4h4.08v1.2h-1.38V0h-1.32V-7.2Zm7.116,3.348L65.064,0H63.708V-8.4h1.176v5.316l.48-1.848L66.444-8.4H67.9V0H66.708V-5.916ZM68.832,0V-8.4h1.32v7.2h1.5V-8.4H73v7.224h.576v2.3H72.288V0Zm7.92-3.852L75.648,0H74.292V-8.4h1.176v5.316l.48-1.848L77.028-8.4H78.48V0H77.292V-5.916ZM79.416,0V-8.4h1.176v5.316l.48-1.848L82.152-8.4H83.6V0H82.416V-5.916l-.54,2.064L80.772,0Zm2.712-10.272h.8a1.309,1.309,0,0,1-.36.978,1.428,1.428,0,0,1-1.044.354,1.361,1.361,0,0,1-1.014-.348,1.426,1.426,0,0,1-.366-.984h.816a.632.632,0,0,0,.156.438.613.613,0,0,0,.408.114.663.663,0,0,0,.432-.12A.6.6,0,0,0,82.128-10.272Z" transform="translate(-0.48 10.272)" fill="#2a2648"/></g><rect width="13" height="13" transform="translate(31.697 434.97)" fill="#c2b7f5"/><rect width="13" height="13" transform="translate(31.697 414.867)" fill="#ff9169"/><g transform="translate(50.105 395.018)"><path d="M1.248-7.176V-4.3q0,.528.432.528T2.112-4.3v-2.88q0-.528-.432-.528T1.248-7.176Zm-.84,2.82v-2.76a1.408,1.408,0,0,1,.324-1A1.232,1.232,0,0,1,1.68-8.46a1.232,1.232,0,0,1,.948.348,1.408,1.408,0,0,1,.324,1v2.76a1.408,1.408,0,0,1-.324,1,1.232,1.232,0,0,1-.948.348A1.232,1.232,0,0,1,.732-3.36,1.408,1.408,0,0,1,.408-4.356ZM1.68,0,4.992-8.4h.78L2.46,0ZM5.412-4.1v2.88q0,.528.432.528t.432-.528V-4.1q0-.528-.432-.528T5.412-4.1Zm-.84,2.82v-2.76a1.408,1.408,0,0,1,.324-1,1.232,1.232,0,0,1,.948-.348,1.232,1.232,0,0,1,.948.348,1.408,1.408,0,0,1,.324,1v2.76a1.408,1.408,0,0,1-.324,1A1.232,1.232,0,0,1,5.844.06,1.232,1.232,0,0,1,4.9-.288,1.408,1.408,0,0,1,4.572-1.284ZM11.856-8.4a2.02,2.02,0,0,1,1.488.474,2,2,0,0,1,.468,1.458v.3a1.669,1.669,0,0,1-.852,1.692,1.7,1.7,0,0,1,.984,1.8v.684a2.007,2.007,0,0,1-.51,1.482A2.025,2.025,0,0,1,11.94,0H9.864V-8.4Zm-.084,4.62h-.588V-1.2h.756a.661.661,0,0,0,.516-.186.958.958,0,0,0,.168-.642V-2.76a1.216,1.216,0,0,0-.2-.8A.839.839,0,0,0,11.772-3.78ZM11.82-7.2h-.636v2.22H11.7a.792.792,0,0,0,.594-.2.964.964,0,0,0,.2-.684v-.468Q12.492-7.2,11.82-7.2Zm4.128.732v4.536q0,.828.684.828t.684-.828V-6.468q0-.828-.684-.828T15.948-6.468Zm-1.32,4.452V-6.384a2.2,2.2,0,0,1,.516-1.56A1.938,1.938,0,0,1,16.632-8.5a1.938,1.938,0,0,1,1.488.552,2.2,2.2,0,0,1,.516,1.56v4.368a2.2,2.2,0,0,1-.516,1.56A1.938,1.938,0,0,1,16.632.1a1.938,1.938,0,0,1-1.488-.552A2.2,2.2,0,0,1,14.628-2.016Zm7.4-3.852v-.468a1.206,1.206,0,0,0-.174-.75.624.624,0,0,0-.51-.21q-.7,0-.7.828v.684H19.44v-.624a2.216,2.216,0,0,1,.492-1.554A1.877,1.877,0,0,1,21.384-8.5a1.894,1.894,0,0,1,1.464.546,2.227,2.227,0,0,1,.5,1.566v.216a1.66,1.66,0,0,1-.924,1.728,1.719,1.719,0,0,1,.924,1.764v.66a2.227,2.227,0,0,1-.5,1.566A1.894,1.894,0,0,1,21.384.1,1.894,1.894,0,0,1,19.92-.45a2.227,2.227,0,0,1-.5-1.566V-2.94h1.248v1.008q0,.828.684.828a.624.624,0,0,0,.51-.21,1.181,1.181,0,0,0,.174-.738v-.66a1.3,1.3,0,0,0-.2-.822.811.811,0,0,0-.66-.246h-.324v-1.2h.4a.792.792,0,0,0,.594-.2A.964.964,0,0,0,22.032-5.868Zm4.2-2.532a2.02,2.02,0,0,1,1.488.474,2,2,0,0,1,.468,1.458v.3a1.669,1.669,0,0,1-.852,1.692,1.7,1.7,0,0,1,.984,1.8v.684A2.007,2.007,0,0,1,27.81-.51,2.025,2.025,0,0,1,26.316,0H24.24V-8.4Zm-.084,4.62H25.56V-1.2h.756a.661.661,0,0,0,.516-.186A.958.958,0,0,0,27-2.028V-2.76a1.216,1.216,0,0,0-.2-.8A.839.839,0,0,0,26.148-3.78ZM26.2-7.2H25.56v2.22h.516a.792.792,0,0,0,.594-.2.964.964,0,0,0,.2-.684v-.468Q26.868-7.2,26.2-7.2Zm4.86-1.2q1.968,0,1.968,2.076v1.092q0,2.076-1.968,2.076h-.624V0h-1.32V-8.4Zm0,1.2h-.624v2.844h.624a.621.621,0,0,0,.486-.18.912.912,0,0,0,.162-.612v-1.26a.912.912,0,0,0-.162-.612A.621.621,0,0,0,31.056-7.2Zm5.508-1.2L37.908,0H36.576l-.228-1.524h-1.62L34.5,0H33.288l1.344-8.4ZM35.532-6.912,34.9-2.664h1.272Zm2.6-.288V-8.4h4.08v1.2h-1.38V0h-1.32V-7.2ZM45.72-8.4,47.064,0H45.732L45.5-1.524h-1.62L43.656,0H42.444l1.344-8.4ZM44.688-6.912l-.636,4.248h1.272ZM52-3.852,50.892,0H49.536V-8.4h1.176v5.316l.48-1.848L52.272-8.4h1.452V0H52.536V-5.916ZM55.98-3.6V0H54.66V-8.4h1.32v3.6h1.5V-8.4h1.344V0H57.48V-3.6Zm5.8-4.8a2.02,2.02,0,0,1,1.488.474,2,2,0,0,1,.468,1.458v.3a1.669,1.669,0,0,1-.852,1.692,1.7,1.7,0,0,1,.984,1.8v.684a2.007,2.007,0,0,1-.51,1.482A2.025,2.025,0,0,1,61.86,0H59.784V-8.4Zm-.084,4.62H61.1V-1.2h.756a.661.661,0,0,0,.516-.186.958.958,0,0,0,.168-.642V-2.76a1.216,1.216,0,0,0-.2-.8A.839.839,0,0,0,61.692-3.78ZM61.74-7.2H61.1v2.22h.516a.792.792,0,0,0,.594-.2.964.964,0,0,0,.2-.684v-.468Q62.412-7.2,61.74-7.2Zm4.236,0v2.34h1.812v1.2H65.976V-1.2h2.28V0h-3.6V-8.4h3.6v1.2Zm5.676,4.068H72.9v1.116A2.227,2.227,0,0,1,72.4-.45,1.894,1.894,0,0,1,70.932.1,1.894,1.894,0,0,1,69.468-.45a2.227,2.227,0,0,1-.5-1.566V-6.384a2.227,2.227,0,0,1,.5-1.566A1.894,1.894,0,0,1,70.932-8.5,1.894,1.894,0,0,1,72.4-7.95a2.227,2.227,0,0,1,.5,1.566v.816H71.652v-.9q0-.828-.684-.828t-.684.828v4.536q0,.816.684.816t.684-.816ZM73.32-7.2V-8.4H77.4v1.2H76.02V0H74.7V-7.2Zm7.116,3.348L79.332,0H77.976V-8.4h1.176v5.316l.48-1.848L80.712-8.4h1.452V0H80.976V-5.916ZM83.1,0V-8.4h1.32v7.2h1.5V-8.4h1.344v7.224h.576v2.3H86.556V0Zm7.92-3.852L89.916,0H88.56V-8.4h1.176v5.316l.48-1.848L91.3-8.4h1.452V0H91.56V-5.916ZM93.684,0V-8.4H94.86v5.316l.48-1.848L96.42-8.4h1.452V0H96.684V-5.916l-.54,2.064L95.04,0ZM96.4-10.272h.8a1.309,1.309,0,0,1-.36.978A1.428,1.428,0,0,1,95.8-8.94a1.361,1.361,0,0,1-1.014-.348,1.426,1.426,0,0,1-.366-.984h.816a.632.632,0,0,0,.156.438.613.613,0,0,0,.408.114.663.663,0,0,0,.432-.12A.6.6,0,0,0,96.4-10.272Zm5.112,3.864v-.936a1.427,1.427,0,0,0,.972-.264,1.969,1.969,0,0,0,.48-.792h.888V0h-1.32V-6.408Zm5.148-.06v4.536q0,.828.684.828t.684-.828V-6.468q0-.828-.684-.828T106.656-6.468Zm-1.32,4.452V-6.384a2.2,2.2,0,0,1,.516-1.56A1.938,1.938,0,0,1,107.34-8.5a1.938,1.938,0,0,1,1.488.552,2.2,2.2,0,0,1,.516,1.56v4.368a2.2,2.2,0,0,1-.516,1.56A1.938,1.938,0,0,1,107.34.1a1.938,1.938,0,0,1-1.488-.552A2.2,2.2,0,0,1,105.336-2.016Zm6.072-4.452v4.536q0,.828.684.828t.684-.828V-6.468q0-.828-.684-.828T111.408-6.468Zm-1.32,4.452V-6.384a2.2,2.2,0,0,1,.516-1.56,1.938,1.938,0,0,1,1.488-.552,1.938,1.938,0,0,1,1.488.552,2.2,2.2,0,0,1,.516,1.56v4.368a2.2,2.2,0,0,1-.516,1.56A1.938,1.938,0,0,1,112.092.1,1.938,1.938,0,0,1,110.6-.456,2.2,2.2,0,0,1,110.088-2.016ZM116.424-7.2V-8.4h4.08v1.2h-1.38V0H117.8V-7.2Zm6.6,7.2H121.08V-8.4h1.32v3.156h.624q1.968,0,1.968,2.076v1.092Q124.992,0,123.024,0ZM122.4-1.2h.624a.621.621,0,0,0,.486-.18.912.912,0,0,0,.162-.612v-1.26a.912.912,0,0,0-.162-.612.621.621,0,0,0-.486-.18H122.4ZM127.068,0h-1.32V-8.4h1.32Zm3.54-3.132h1.248v1.116a2.227,2.227,0,0,1-.5,1.566A1.894,1.894,0,0,1,129.888.1a1.894,1.894,0,0,1-1.464-.546,2.227,2.227,0,0,1-.5-1.566V-6.384a2.227,2.227,0,0,1,.5-1.566,1.894,1.894,0,0,1,1.464-.546,1.894,1.894,0,0,1,1.464.546,2.227,2.227,0,0,1,.5,1.566v.816h-1.248v-.9q0-.828-.684-.828t-.684.828v4.536q0,.816.684.816t.684-.816Zm2.052,1.86h1.272V0H132.66Zm6.636-4.6v-.468a1.206,1.206,0,0,0-.174-.75.624.624,0,0,0-.51-.21q-.7,0-.7.828v.684H136.7v-.624a2.216,2.216,0,0,1,.492-1.554,1.877,1.877,0,0,1,1.452-.534,1.894,1.894,0,0,1,1.464.546,2.227,2.227,0,0,1,.5,1.566v.216a1.66,1.66,0,0,1-.924,1.728,1.719,1.719,0,0,1,.924,1.764v.66a2.227,2.227,0,0,1-.5,1.566A1.894,1.894,0,0,1,138.648.1a1.894,1.894,0,0,1-1.464-.546,2.227,2.227,0,0,1-.5-1.566V-2.94h1.248v1.008q0,.828.684.828a.624.624,0,0,0,.51-.21,1.181,1.181,0,0,0,.174-.738v-.66a1.3,1.3,0,0,0-.2-.822.811.811,0,0,0-.66-.246h-.324v-1.2h.4a.792.792,0,0,0,.594-.2A.964.964,0,0,0,139.3-5.868ZM143.448-8.4q1.968,0,1.968,2.076v1.092q0,2.076-1.968,2.076h-.624V0H141.5V-8.4Zm0,1.2h-.624v2.844h.624a.621.621,0,0,0,.486-.18.912.912,0,0,0,.162-.612v-1.26a.912.912,0,0,0-.162-.612A.621.621,0,0,0,143.448-7.2Zm5.04,3.348L147.384,0h-1.356V-8.4H147.2v5.316l.48-1.848,1.08-3.468h1.452V0h-1.188V-5.916Zm2.28-3.348V-8.4h4.08v1.2h-1.38V0h-1.32V-7.2Zm5.976,0v2.34h1.812v1.2h-1.812V-1.2h2.28V0h-3.6V-8.4h3.6v1.2ZM159.468.012v-1.2a.981.981,0,0,0,.642-.15,1.073,1.073,0,0,0,.174-.714L160.5-8.4h3.732V0h-1.344V-7.2h-1.152l-.144,5.076a2.56,2.56,0,0,1-.48,1.644,1.855,1.855,0,0,1-1.44.492ZM166.56-7.2v2.34h1.812v1.2H166.56V-1.2h2.28V0h-3.6V-8.4h3.6v1.2Zm3.1,7.2V-8.4h1.176v5.316l.48-1.848,1.08-3.468h1.452V0h-1.188V-5.916l-.54,2.064L171.012,0Zm2.712-10.272h.8a1.309,1.309,0,0,1-.36.978,1.428,1.428,0,0,1-1.044.354,1.361,1.361,0,0,1-1.014-.348,1.425,1.425,0,0,1-.366-.984h.816a.632.632,0,0,0,.156.438.613.613,0,0,0,.408.114.663.663,0,0,0,.432-.12A.6.6,0,0,0,172.368-10.272Z" transform="translate(-0.408 10.272)" fill="#2a2648"/></g><path d="M1.32,2.028V6.564q0,.828.684.828t.684-.828V2.028Q2.688,1.2,2,1.2T1.32,2.028ZM0,6.48V2.112A2.2,2.2,0,0,1,.516.552,1.938,1.938,0,0,1,2,0,1.938,1.938,0,0,1,3.492.552a2.2,2.2,0,0,1,.516,1.56V6.48a2.2,2.2,0,0,1-.516,1.56A1.938,1.938,0,0,1,2,8.592,1.938,1.938,0,0,1,.516,8.04,2.2,2.2,0,0,1,0,6.48Z" transform="translate(16.23 320.42) rotate(-45)" fill="#a6a4a6"/><path d="M1.32,2.028V6.564q0,.828.684.828t.684-.828V2.028Q2.688,1.2,2,1.2T1.32,2.028ZM0,6.48V2.112A2.2,2.2,0,0,1,.516.552,1.938,1.938,0,0,1,2,0,1.938,1.938,0,0,1,3.492.552a2.2,2.2,0,0,1,.516,1.56V6.48a2.2,2.2,0,0,1-.516,1.56A1.938,1.938,0,0,1,2,8.592,1.938,1.938,0,0,1,.516,8.04,2.2,2.2,0,0,1,0,6.48Zm4.86.744H6.132V8.5H4.86Zm2.172-1.44H8.28v.78q0,.816.684.816t.684-.816V4.716q0-.828-.684-.828t-.684.828v.252H7.032L7.272.1h3.48V1.3H8.46l-.108,2A1.253,1.253,0,0,1,9.5,2.688q1.464,0,1.464,1.92V6.48a2.227,2.227,0,0,1-.5,1.566A1.894,1.894,0,0,1,9,8.592a1.894,1.894,0,0,1-1.464-.546,2.227,2.227,0,0,1-.5-1.566ZM13.32,1.3V.1H17.4V1.3H16.02V8.5H14.7V1.3Zm6.6,7.2H17.976V.1H19.3V3.252h.624q1.968,0,1.968,2.076V6.42Q21.888,8.5,19.92,8.5ZM19.3,7.3h.624a.621.621,0,0,0,.486-.18.912.912,0,0,0,.162-.612V5.244a.912.912,0,0,0-.162-.612.621.621,0,0,0-.486-.18H19.3Zm4.668,1.2h-1.32V.1h1.32ZM27.5,5.364h1.248V6.48a2.227,2.227,0,0,1-.5,1.566,2.236,2.236,0,0,1-2.928,0,2.227,2.227,0,0,1-.5-1.566V2.112a2.227,2.227,0,0,1,.5-1.566,2.236,2.236,0,0,1,2.928,0,2.227,2.227,0,0,1,.5,1.566v.816H27.5v-.9q0-.828-.684-.828t-.684.828V6.564q0,.816.684.816t.684-.816Zm1.932-4.188,1.788.9L30.912.1h1.08l-.312,1.98,1.788-.9L33.8,2.2l-1.968.336,1.4,1.4-.864.636L31.452,2.8l-.924,1.776-.864-.636,1.4-1.4L29.1,2.2Z" transform="translate(51.934 337.566) rotate(-45)" fill="#a6a4a6"/><path d="M0,1.992V1.056A1.427,1.427,0,0,0,.972.792,1.969,1.969,0,0,0,1.452,0H2.34V8.4H1.02V1.992ZM7.62,0l.972,5.964L9.492,0h1.836V8.4H10.08V2.376L9.168,8.4H7.92L6.936,2.46V8.4H5.784V0Zm4.3,8.412v-1.2a.981.981,0,0,0,.642-.15,1.073,1.073,0,0,0,.174-.714L12.948,0H16.68V8.4H15.336V1.2H14.184L14.04,6.276a2.56,2.56,0,0,1-.48,1.644,1.855,1.855,0,0,1-1.44.492ZM19.008,4.8V8.4h-1.32V0h1.32V3.6h1.5V0h1.344V8.4H20.508V4.8Z" transform="translate(92.304 333.182) rotate(-45)" fill="#a6a4a6"/><path d="M0,1.992V1.056A1.427,1.427,0,0,0,.972.792,1.969,1.969,0,0,0,1.452,0H2.34V8.4H1.02V1.992ZM3.936,7.128H5.208V8.4H3.936Zm2.172-1.44H7.356v.78q0,.816.684.816t.684-.816V4.62q0-.828-.684-.828t-.684.828v.252H6.108L6.348,0h3.48V1.2H7.536l-.108,2A1.253,1.253,0,0,1,8.58,2.592q1.464,0,1.464,1.92V6.384a2.227,2.227,0,0,1-.5,1.566A1.894,1.894,0,0,1,8.076,8.5,1.894,1.894,0,0,1,6.612,7.95a2.227,2.227,0,0,1-.5-1.566ZM14.6,0l.972,5.964L16.476,0h1.836V8.4H17.064V2.376L16.152,8.4H14.9L13.92,2.46V8.4H12.768V0Zm4.3,8.412v-1.2a.981.981,0,0,0,.642-.15,1.073,1.073,0,0,0,.174-.714L19.932,0h3.732V8.4H22.32V1.2H21.168l-.144,5.076a2.56,2.56,0,0,1-.48,1.644,1.855,1.855,0,0,1-1.44.492ZM25.992,4.8V8.4h-1.32V0h1.32V3.6h1.5V0h1.344V8.4H27.492V4.8Z" transform="translate(123.215 338.12) rotate(-45)" fill="#a6a4a6"/><path d="M2.616,2.16a1.206,1.206,0,0,0-.174-.75.624.624,0,0,0-.51-.21q-.684,0-.684.828v.9H0V2.112A2.227,2.227,0,0,1,.5.546,1.894,1.894,0,0,1,1.968,0,1.894,1.894,0,0,1,3.432.546a2.227,2.227,0,0,1,.5,1.566A3.641,3.641,0,0,1,3.666,3.5a4.277,4.277,0,0,1-.66,1.128q-.39.468-.774.876a5.942,5.942,0,0,0-.654.822,1.451,1.451,0,0,0-.27.786.994.994,0,0,0,.012.18h2.5V8.5H0V7.464A2.892,2.892,0,0,1,.27,6.21a4.091,4.091,0,0,1,.654-1q.384-.426.768-.84A3.9,3.9,0,0,0,2.346,3.4,2.825,2.825,0,0,0,2.616,2.16ZM8.436.1,9.408,6.06,10.308.1h1.836V8.5H10.9V2.472L9.984,8.5H8.736l-.984-5.94V8.5H6.6V.1Zm4.3,8.412v-1.2a.981.981,0,0,0,.642-.15,1.073,1.073,0,0,0,.174-.714L13.764.1H17.5V8.5H16.152V1.3H15l-.144,5.076a2.56,2.56,0,0,1-.48,1.644,1.855,1.855,0,0,1-1.44.492ZM19.824,4.9V8.5H18.5V.1h1.32V3.7h1.5V.1h1.344V8.5H21.324V4.9Z" transform="translate(163.358 333.691) rotate(-45)" fill="#a6a4a6"/><path d="M2.616,2.16a1.206,1.206,0,0,0-.174-.75.624.624,0,0,0-.51-.21q-.684,0-.684.828v.9H0V2.112A2.227,2.227,0,0,1,.5.546,1.894,1.894,0,0,1,1.968,0,1.894,1.894,0,0,1,3.432.546a2.227,2.227,0,0,1,.5,1.566A3.641,3.641,0,0,1,3.666,3.5a4.277,4.277,0,0,1-.66,1.128q-.39.468-.774.876a5.942,5.942,0,0,0-.654.822,1.451,1.451,0,0,0-.27.786.994.994,0,0,0,.012.18h2.5V8.5H0V7.464A2.892,2.892,0,0,1,.27,6.21a4.091,4.091,0,0,1,.654-1q.384-.426.768-.84A3.9,3.9,0,0,0,2.346,3.4,2.825,2.825,0,0,0,2.616,2.16ZM4.752,7.224H6.024V8.5H4.752Zm2.172-1.44H8.172v.78q0,.816.684.816t.684-.816V4.716q0-.828-.684-.828t-.684.828v.252H6.924L7.164.1h3.48V1.3H8.352l-.108,2A1.253,1.253,0,0,1,9.4,2.688q1.464,0,1.464,1.92V6.48a2.227,2.227,0,0,1-.5,1.566,1.894,1.894,0,0,1-1.464.546,1.894,1.894,0,0,1-1.464-.546,2.227,2.227,0,0,1-.5-1.566ZM15.42.1l.972,5.964L17.292.1h1.836V8.5H17.88V2.472L16.968,8.5H15.72l-.984-5.94V8.5H13.584V.1Zm4.3,8.412v-1.2a.981.981,0,0,0,.642-.15,1.073,1.073,0,0,0,.174-.714L20.748.1H24.48V8.5H23.136V1.3H21.984L21.84,6.372a2.56,2.56,0,0,1-.48,1.644,1.855,1.855,0,0,1-1.44.492ZM26.808,4.9V8.5h-1.32V.1h1.32V3.7h1.5V.1h1.344V8.5H28.308V4.9Z" transform="translate(194.27 338.629) rotate(-45)" fill="#a6a4a6"/><path d="M2.616,2.628V2.16a1.206,1.206,0,0,0-.174-.75.624.624,0,0,0-.51-.21q-.684,0-.684.828v.54H0V2.112A2.227,2.227,0,0,1,.5.546,1.894,1.894,0,0,1,1.968,0,1.894,1.894,0,0,1,3.432.546a2.227,2.227,0,0,1,.5,1.566v.216a1.66,1.66,0,0,1-.924,1.728A1.719,1.719,0,0,1,3.936,5.82v.66a2.227,2.227,0,0,1-.5,1.566,1.894,1.894,0,0,1-1.464.546A1.894,1.894,0,0,1,.5,8.046,2.227,2.227,0,0,1,0,6.48v-.7H1.248v.78q0,.828.684.828a.624.624,0,0,0,.51-.21,1.181,1.181,0,0,0,.174-.738v-.66a1.3,1.3,0,0,0-.2-.822.811.811,0,0,0-.66-.246H1.308v-1.2h.516a.792.792,0,0,0,.594-.2A.964.964,0,0,0,2.616,2.628ZM8.508.1,9.48,6.06,10.38.1h1.836V8.5H10.968V2.472L10.056,8.5H8.808l-.984-5.94V8.5H6.672V.1Zm4.3,8.412v-1.2a.981.981,0,0,0,.642-.15,1.073,1.073,0,0,0,.174-.714L13.836.1h3.732V8.5H16.224V1.3H15.072l-.144,5.076a2.56,2.56,0,0,1-.48,1.644,1.855,1.855,0,0,1-1.44.492ZM19.9,4.9V8.5h-1.32V.1H19.9V3.7h1.5V.1H22.74V8.5H21.4V4.9Z" transform="translate(235.008 333.742) rotate(-45)" fill="#a6a4a6"/><path d="M0,6.876v-1.2L2.4,0H3.84V5.676h.624v1.2H3.84V8.4h-1.3V6.876Zm1.212-1.2H2.544V2.52ZM8.748,0,9.72,5.964,10.62,0h1.836V8.4H11.208V2.376L10.3,8.4H9.048L8.064,2.46V8.4H6.912V0Zm4.3,8.412v-1.2a.981.981,0,0,0,.642-.15,1.073,1.073,0,0,0,.174-.714L14.076,0h3.732V8.4H16.464V1.2H15.312l-.144,5.076a2.56,2.56,0,0,1-.48,1.644,1.855,1.855,0,0,1-1.44.492ZM20.136,4.8V8.4h-1.32V0h1.32V3.6h1.5V0H22.98V8.4H21.636V4.8Z" transform="translate(270.756 333.979) rotate(-45)" fill="#a6a4a6"/><path d="M0,5.688H1.248v.78q0,.816.684.816t.684-.816V4.62q0-.828-.684-.828t-.684.828v.252H0L.24,0H3.72V1.2H1.428l-.108,2a1.253,1.253,0,0,1,1.152-.612q1.464,0,1.464,1.92V6.384a2.227,2.227,0,0,1-.5,1.566A1.894,1.894,0,0,1,1.968,8.5,1.894,1.894,0,0,1,.5,7.95,2.227,2.227,0,0,1,0,6.384ZM8.5,0l.972,5.964L10.368,0H12.2V8.4H10.956V2.376L10.044,8.4H8.8L7.812,2.46V8.4H6.66V0Zm4.3,8.412v-1.2a.981.981,0,0,0,.642-.15,1.073,1.073,0,0,0,.174-.714L13.824,0h3.732V8.4H16.212V1.2H15.06l-.144,5.076a2.56,2.56,0,0,1-.48,1.644A1.855,1.855,0,0,1,13,8.412ZM19.884,4.8V8.4h-1.32V0h1.32V3.6h1.5V0h1.344V8.4H21.384V4.8Z" transform="translate(306.784 333.801) rotate(-45)" fill="#a6a4a6"/><path d="M0,6.48v-4.3Q0,0,2.016,0A1.894,1.894,0,0,1,3.48.546a2.227,2.227,0,0,1,.5,1.566v.216H2.736v-.3q0-.828-.684-.828a.66.66,0,0,0-.552.228,1.337,1.337,0,0,0-.18.8V3.768a1.241,1.241,0,0,1,1.224-.744q1.464,0,1.464,1.92V6.48a2.2,2.2,0,0,1-.516,1.56A1.938,1.938,0,0,1,2,8.592,1.938,1.938,0,0,1,.516,8.04,2.2,2.2,0,0,1,0,6.48ZM2.688,5.052q0-.828-.684-.828t-.684.828V6.564q0,.816.684.816t.684-.816ZM8.52.1,9.492,6.06,10.392.1h1.836V8.5H10.98V2.472L10.068,8.5H8.82l-.984-5.94V8.5H6.684V.1Zm4.3,8.412v-1.2a.981.981,0,0,0,.642-.15,1.073,1.073,0,0,0,.174-.714L13.848.1H17.58V8.5H16.236V1.3H15.084L14.94,6.372a2.56,2.56,0,0,1-.48,1.644,1.855,1.855,0,0,1-1.44.492ZM19.908,4.9V8.5h-1.32V.1h1.32V3.7h1.5V.1h1.344V8.5H21.408V4.9Z" transform="translate(342.549 333.75) rotate(-45)" fill="#a6a4a6"/><path d="M2.616,2.16a3.532,3.532,0,0,1-1.3,2.628A3.635,3.635,0,0,0,0,7.464V8.5H3.816V7.3H1.32a.908.908,0,0,1-.012-.18c0-.444.216-.84,1-1.68A4.611,4.611,0,0,0,3.936,2.112C3.936.768,3.264,0,1.968,0S0,.768,0,2.112v.816H1.248v-.9c0-.6.264-.828.684-.828S2.616,1.4,2.616,2.16ZM4.692,5.784v.7c0,1.344.672,2.112,1.968,2.112S8.628,7.824,8.628,6.48V4.608c0-1.236-.492-1.92-1.464-1.92a1.24,1.24,0,0,0-1.14.612H6l.108-2h2.3V.1H4.932l-.24,4.872H5.94V4.716c0-.6.264-.828.684-.828s.684.228.684.828V6.564c0,.6-.264.816-.684.816s-.684-.216-.684-.816v-.78Zm6.024-3.756c0-.6.264-.828.684-.828s.684.228.684.828V6.564c0,.6-.264.828-.684.828s-.684-.228-.684-.828ZM9.4,6.48a1.864,1.864,0,0,0,2,2.112,1.864,1.864,0,0,0,2-2.112V2.112A1.864,1.864,0,0,0,11.4,0a1.864,1.864,0,0,0-2,2.112Zm5.628-5.16c0-.372.156-.528.432-.528s.432.156.432.528V4.2c0,.372-.168.528-.432.528s-.432-.156-.432-.528Zm-.84,2.82a1.179,1.179,0,0,0,1.272,1.344A1.179,1.179,0,0,0,16.728,4.14V1.38A1.179,1.179,0,0,0,15.456.036,1.179,1.179,0,0,0,14.184,1.38ZM15.456,8.5h.78L19.548.1h-.78Zm3.732-4.1c0-.372.156-.528.432-.528s.432.156.432.528v2.88c0,.372-.168.528-.432.528s-.432-.156-.432-.528Zm-.84,2.82A1.179,1.179,0,0,0,19.62,8.556a1.179,1.179,0,0,0,1.272-1.344V4.452A1.179,1.179,0,0,0,19.62,3.108a1.179,1.179,0,0,0-1.272,1.344Z" transform="translate(5.266 64.708) rotate(-45)" fill="#a6a4a6"/><path d="M2.616,2.16a3.532,3.532,0,0,1-1.3,2.628A3.635,3.635,0,0,0,0,7.464V8.5H3.816V7.3H1.32a.908.908,0,0,1-.012-.18c0-.444.216-.84,1-1.68A4.611,4.611,0,0,0,3.936,2.112C3.936.768,3.264,0,1.968,0S0,.768,0,2.112v.816H1.248v-.9c0-.6.264-.828.684-.828S2.616,1.4,2.616,2.16Zm3.348-.132c0-.6.264-.828.684-.828s.684.228.684.828V6.564c0,.6-.264.828-.684.828s-.684-.228-.684-.828ZM4.644,6.48a1.864,1.864,0,0,0,2,2.112,1.864,1.864,0,0,0,2-2.112V2.112A1.864,1.864,0,0,0,6.648,0a1.864,1.864,0,0,0-2,2.112Zm6.072-4.452c0-.6.264-.828.684-.828s.684.228.684.828V6.564c0,.6-.264.828-.684.828s-.684-.228-.684-.828ZM9.4,6.48a1.864,1.864,0,0,0,2,2.112,1.864,1.864,0,0,0,2-2.112V2.112A1.864,1.864,0,0,0,11.4,0a1.864,1.864,0,0,0-2,2.112Zm5.628-5.16c0-.372.156-.528.432-.528s.432.156.432.528V4.2c0,.372-.168.528-.432.528s-.432-.156-.432-.528Zm-.84,2.82a1.179,1.179,0,0,0,1.272,1.344A1.179,1.179,0,0,0,16.728,4.14V1.38A1.179,1.179,0,0,0,15.456.036,1.179,1.179,0,0,0,14.184,1.38ZM15.456,8.5h.78L19.548.1h-.78Zm3.732-4.1c0-.372.156-.528.432-.528s.432.156.432.528v2.88c0,.372-.168.528-.432.528s-.432-.156-.432-.528Zm-.84,2.82A1.179,1.179,0,0,0,19.62,8.556a1.179,1.179,0,0,0,1.272-1.344V4.452A1.179,1.179,0,0,0,19.62,3.108a1.179,1.179,0,0,0-1.272,1.344Z" transform="translate(5.266 114.644) rotate(-45)" fill="#a6a4a6"/><path d="M0,2.088H1.02V8.5H2.34V.1H1.452A1.308,1.308,0,0,1,0,1.152Zm3.876,3.7v.7c0,1.344.672,2.112,1.968,2.112S7.812,7.824,7.812,6.48V4.608c0-1.236-.492-1.92-1.464-1.92a1.24,1.24,0,0,0-1.14.612H5.184l.108-2H7.6V.1H4.116l-.24,4.872H5.124V4.716c0-.6.264-.828.684-.828s.684.228.684.828V6.564c0,.6-.264.816-.684.816s-.684-.216-.684-.816v-.78ZM9.9,2.028c0-.6.264-.828.684-.828s.684.228.684.828V6.564c0,.6-.264.828-.684.828S9.9,7.164,9.9,6.564ZM8.58,6.48a1.864,1.864,0,0,0,2,2.112,1.864,1.864,0,0,0,2-2.112V2.112a1.864,1.864,0,0,0-2-2.112,1.864,1.864,0,0,0-2,2.112Zm5.628-5.16c0-.372.156-.528.432-.528s.432.156.432.528V4.2c0,.372-.168.528-.432.528s-.432-.156-.432-.528Zm-.84,2.82A1.179,1.179,0,0,0,14.64,5.484,1.179,1.179,0,0,0,15.912,4.14V1.38A1.179,1.179,0,0,0,14.64.036,1.179,1.179,0,0,0,13.368,1.38ZM14.64,8.5h.78L18.732.1h-.78Zm3.732-4.1c0-.372.156-.528.432-.528s.432.156.432.528v2.88c0,.372-.168.528-.432.528s-.432-.156-.432-.528Zm-.84,2.82A1.179,1.179,0,0,0,18.8,8.556a1.179,1.179,0,0,0,1.272-1.344V4.452A1.179,1.179,0,0,0,18.8,3.108a1.179,1.179,0,0,0-1.272,1.344Z" transform="translate(5.843 164.002) rotate(-45)" fill="#a6a4a6"/><path d="M0,2.088H1.02V8.5H2.34V.1H1.452A1.308,1.308,0,0,1,0,1.152Zm5.148-.06c0-.6.264-.828.684-.828s.684.228.684.828V6.564c0,.6-.264.828-.684.828s-.684-.228-.684-.828ZM3.828,6.48a1.864,1.864,0,0,0,2,2.112,1.864,1.864,0,0,0,2-2.112V2.112A1.864,1.864,0,0,0,5.832,0a1.864,1.864,0,0,0-2,2.112ZM9.9,2.028c0-.6.264-.828.684-.828s.684.228.684.828V6.564c0,.6-.264.828-.684.828S9.9,7.164,9.9,6.564ZM8.58,6.48a1.864,1.864,0,0,0,2,2.112,1.864,1.864,0,0,0,2-2.112V2.112a1.864,1.864,0,0,0-2-2.112,1.864,1.864,0,0,0-2,2.112Zm5.628-5.16c0-.372.156-.528.432-.528s.432.156.432.528V4.2c0,.372-.168.528-.432.528s-.432-.156-.432-.528Zm-.84,2.82A1.179,1.179,0,0,0,14.64,5.484,1.179,1.179,0,0,0,15.912,4.14V1.38A1.179,1.179,0,0,0,14.64.036,1.179,1.179,0,0,0,13.368,1.38ZM14.64,8.5h.78L18.732.1h-.78Zm3.732-4.1c0-.372.156-.528.432-.528s.432.156.432.528v2.88c0,.372-.168.528-.432.528s-.432-.156-.432-.528Zm-.84,2.82A1.179,1.179,0,0,0,18.8,8.556a1.179,1.179,0,0,0,1.272-1.344V4.452A1.179,1.179,0,0,0,18.8,3.108a1.179,1.179,0,0,0-1.272,1.344Z" transform="translate(5.843 213.937) rotate(-45)" fill="#a6a4a6"/><path d="M0,5.784v.7C0,7.824.672,8.592,1.968,8.592S3.936,7.824,3.936,6.48V4.608c0-1.236-.492-1.92-1.464-1.92a1.24,1.24,0,0,0-1.14.612H1.308l.108-2h2.3V.1H.24L0,4.968H1.248V4.716c0-.6.264-.828.684-.828s.684.228.684.828V6.564c0,.6-.264.816-.684.816s-.684-.216-.684-.816v-.78ZM6.024,2.028c0-.6.264-.828.684-.828s.684.228.684.828V6.564c0,.6-.264.828-.684.828s-.684-.228-.684-.828ZM4.7,6.48a1.864,1.864,0,0,0,2,2.112,1.864,1.864,0,0,0,2-2.112V2.112A1.864,1.864,0,0,0,6.708,0a1.864,1.864,0,0,0-2,2.112Zm5.628-5.16c0-.372.156-.528.432-.528s.432.156.432.528V4.2c0,.372-.168.528-.432.528s-.432-.156-.432-.528Zm-.84,2.82a1.179,1.179,0,0,0,1.272,1.344A1.179,1.179,0,0,0,12.036,4.14V1.38A1.179,1.179,0,0,0,10.764.036,1.179,1.179,0,0,0,9.492,1.38ZM10.764,8.5h.78L14.856.1h-.78Zm3.732-4.1c0-.372.156-.528.432-.528s.432.156.432.528v2.88c0,.372-.168.528-.432.528s-.432-.156-.432-.528Zm-.84,2.82a1.179,1.179,0,0,0,1.272,1.344A1.179,1.179,0,0,0,16.2,7.212V4.452a1.179,1.179,0,0,0-1.272-1.344,1.179,1.179,0,0,0-1.272,1.344Z" transform="translate(8.583 261.131) rotate(-45)" fill="#a6a4a6"/><path d="M2.616,2.628c0,.672-.3.888-.792.888H1.308v1.2h.444c.6,0,.864.288.864,1.068v.66c0,.744-.264.948-.684.948s-.684-.228-.684-.828v-.78H0v.7C0,7.824.672,8.592,1.968,8.592S3.936,7.824,3.936,6.48V5.82a1.7,1.7,0,0,0-.924-1.752V4.044a1.62,1.62,0,0,0,.924-1.716V2.112C3.936.768,3.264,0,1.968,0S0,.768,0,2.112v.456H1.248v-.54c0-.6.264-.828.684-.828s.684.2.684.96Zm3.42-.6c0-.6.264-.828.684-.828s.684.228.684.828V6.564c0,.6-.264.828-.684.828s-.684-.228-.684-.828ZM4.716,6.48a1.864,1.864,0,0,0,2,2.112,1.864,1.864,0,0,0,2-2.112V2.112A1.864,1.864,0,0,0,6.72,0a1.864,1.864,0,0,0-2,2.112Zm6.072-4.452c0-.6.264-.828.684-.828s.684.228.684.828V6.564c0,.6-.264.828-.684.828s-.684-.228-.684-.828ZM9.468,6.48a1.864,1.864,0,0,0,2,2.112,1.864,1.864,0,0,0,2-2.112V2.112a1.864,1.864,0,0,0-2-2.112,1.864,1.864,0,0,0-2,2.112ZM15.1,1.32c0-.372.156-.528.432-.528s.432.156.432.528V4.2c0,.372-.168.528-.432.528S15.1,4.572,15.1,4.2Zm-.84,2.82a1.179,1.179,0,0,0,1.272,1.344A1.179,1.179,0,0,0,16.8,4.14V1.38A1.179,1.179,0,0,0,15.528.036,1.179,1.179,0,0,0,14.256,1.38ZM15.528,8.5h.78L19.62.1h-.78Zm3.732-4.1c0-.372.156-.528.432-.528s.432.156.432.528v2.88c0,.372-.168.528-.432.528s-.432-.156-.432-.528Zm-.84,2.82a1.179,1.179,0,0,0,1.272,1.344,1.179,1.179,0,0,0,1.272-1.344V4.452a1.179,1.179,0,0,0-1.272-1.344A1.179,1.179,0,0,0,18.42,4.452Z" transform="translate(5.215 14.824) rotate(-45)" fill="#a6a4a6"/><path d="M28.132,459.373,63.982,439.4l35.85-29.96,35.85-24.968,35.85-24.967,35.85-19.974,35.85-19.974,35.85-39.95,35.85-39.948s38.63-47.581,45.165-55.532" transform="translate(4.149 -149.045)" fill="none" stroke="#ff906d" stroke-miterlimit="10" stroke-width="4"/><path d="M171.532,459.373l-71.7-49.935-35.85-29.962L28.132,359.5" transform="translate(4.149 -149.045)" fill="none" stroke="#c2b8f3" stroke-miterlimit="10" stroke-width="4"/><circle cx="4" cy="4" r="4" transform="translate(99.982 256.392)" fill="#2a2747"/><circle cx="4" cy="4" r="4" transform="translate(135.832 231.436)" fill="#2a2747"/><circle cx="4" cy="4" r="4" transform="translate(135.832 282.353)" fill="#2a2747"/><circle cx="4" cy="4" r="4" transform="translate(171.682 206.469)" fill="#2a2747"/><circle cx="4" cy="4" r="4" transform="translate(207.532 186.73)" fill="#2a2747"/><circle cx="4" cy="4" r="4" transform="translate(243.382 166.508)" fill="#2a2747"/><circle cx="4" cy="4" r="4" transform="translate(279.232 126.558)" fill="#2a2747"/><circle cx="4" cy="4" r="4" transform="translate(315.082 86.325)" fill="#2a2747"/><circle cx="4" cy="4" r="4" transform="translate(350.931 42.402)" fill="#2a2747"/><circle cx="4" cy="4" r="4" transform="translate(64.132 226.696)" fill="#2a2747"/><path d="M-126.324-5.742h2.288V-3.7a4.083,4.083,0,0,1-.924,2.871,3.472,3.472,0,0,1-2.684,1,3.472,3.472,0,0,1-2.684-1,4.083,4.083,0,0,1-.924-2.871V-11.7a4.083,4.083,0,0,1,.924-2.871,3.472,3.472,0,0,1,2.684-1,3.472,3.472,0,0,1,2.684,1,4.083,4.083,0,0,1,.924,2.871v1.5h-2.288v-1.65q0-1.518-1.254-1.518t-1.254,1.518v8.316q0,1.5,1.254,1.5t1.254-1.5Zm3.058-7.458v-2.2h7.48v2.2h-2.53V0h-2.42V-13.2Zm13.9-2.2L-106.9,0h-2.442l-.418-2.794h-2.97L-113.146,0h-2.222l2.464-15.4Zm-1.892,2.728-1.166,7.788h2.332Zm9.042-2.728q3.608,0,3.608,3.806v2q0,3.806-3.608,3.806h-1.144V0h-2.42V-15.4Zm0,2.2h-1.144v5.214h1.144a1.138,1.138,0,0,0,.891-.33,1.673,1.673,0,0,0,.3-1.122v-2.31a1.673,1.673,0,0,0-.3-1.122A1.138,1.138,0,0,0-102.212-13.2Zm4.026,0v-2.2h7.48v2.2h-2.53V0h-2.42V-13.2Zm10.758,1.342v8.316q0,1.518,1.254,1.518t1.254-1.518v-8.316q0-1.518-1.254-1.518T-87.428-11.858ZM-89.848-3.7V-11.7a4.03,4.03,0,0,1,.946-2.86,3.553,3.553,0,0,1,2.728-1.012,3.553,3.553,0,0,1,2.728,1.012A4.03,4.03,0,0,1-82.5-11.7V-3.7a4.03,4.03,0,0,1-.946,2.86A3.553,3.553,0,0,1-86.174.176,3.553,3.553,0,0,1-88.9-.836,4.03,4.03,0,0,1-89.848-3.7Zm12.562-11.7a3.7,3.7,0,0,1,2.728.869,3.67,3.67,0,0,1,.858,2.673v.55q0,2.376-1.562,3.1,1.8.7,1.8,3.3v1.254a3.68,3.68,0,0,1-.935,2.717A3.712,3.712,0,0,1-77.132,0h-3.806V-15.4Zm-.154,8.47h-1.078V-2.2h1.386a1.213,1.213,0,0,0,.946-.341,1.757,1.757,0,0,0,.308-1.177V-5.06a2.229,2.229,0,0,0-.363-1.463A1.537,1.537,0,0,0-77.44-6.93Zm.088-6.27h-1.166v4.07h.946A1.453,1.453,0,0,0-76.483-9.5a1.767,1.767,0,0,0,.363-1.254v-.858Q-76.12-13.2-77.352-13.2ZM-68.442,0h-3.564V-15.4h2.42v5.786h1.144q3.608,0,3.608,3.806v2Q-64.834,0-68.442,0Zm-1.144-2.2h1.144a1.138,1.138,0,0,0,.891-.33,1.673,1.673,0,0,0,.3-1.122v-2.31a1.673,1.673,0,0,0-.3-1.122,1.138,1.138,0,0,0-.891-.33h-1.144ZM-61.028,0h-2.42V-15.4h2.42Zm1.76,0V-15.4h2.156v9.746l.88-3.388,1.98-6.358h2.662V0h-2.178V-10.846l-.99,3.784L-56.782,0ZM-54.3-18.832h1.474a2.4,2.4,0,0,1-.66,1.793,2.619,2.619,0,0,1-1.914.649,2.5,2.5,0,0,1-1.859-.638,2.613,2.613,0,0,1-.671-1.8h1.5a1.158,1.158,0,0,0,.286.8,1.125,1.125,0,0,0,.748.209,1.215,1.215,0,0,0,.792-.22A1.106,1.106,0,0,0-54.3-18.832Zm7.172,5.632v-2.2h7.48v2.2h-2.53V0h-2.42V-13.2Zm13.9-2.2L-30.756,0H-33.2l-.418-2.794h-2.97L-37,0h-2.222l2.464-15.4Zm-1.892,2.728-1.166,7.788h2.332ZM-26.07-15.4q3.608,0,3.608,3.806v2q0,3.806-3.608,3.806h-1.144V0h-2.42V-15.4Zm0,2.2h-1.144v5.214h1.144a1.138,1.138,0,0,0,.891-.33,1.673,1.673,0,0,0,.3-1.122v-2.31a1.673,1.673,0,0,0-.3-1.122A1.138,1.138,0,0,0-26.07-13.2Zm9.24,6.138L-18.854,0H-21.34V-15.4h2.156v9.746l.88-3.388,1.98-6.358h2.662V0H-15.84V-10.846ZM-7.634,0V-1.738h-.9q-3.608,0-3.608-3.806v-4.2q0-3.806,3.608-3.806h.9V-15.4h2.376v1.848h.9q3.608,0,3.608,3.806v4.2q0,3.806-3.608,3.806h-.9V0Zm3.278-11.418h-.9V-3.85h.9q1.21,0,1.21-1.54V-9.9Q-3.146-11.418-4.356-11.418ZM-7.634-3.85v-7.568h-.9q-1.21,0-1.21,1.518v4.51q0,1.54,1.21,1.54Z" transform="translate(350.932 218.867)" fill="#a6a4a6"/><path d="M90.059,500.686H31.019l-5.773,10,5.773,10h59.04l5.773-10Z" transform="translate(4.149 -149.045)" fill="#292c45"/><path d="M-2.6-1.98H-3.637V0H-5.408V-1.98H-9.052V-3.561l3.383-5.586h2.031V-3.4H-2.6ZM-5.408-3.4V-7.37L-7.712-3.4ZM.5-5.789a.973.973,0,0,0,.714-.3A.973.973,0,0,0,1.5-6.8a.973.973,0,0,0-.3-.714.973.973,0,0,0-.714-.3.973.973,0,0,0-.714.3.973.973,0,0,0-.3.714.973.973,0,0,0,.3.714A.973.973,0,0,0,.5-5.789ZM2.856-6.8a2.28,2.28,0,0,1-.689,1.669A2.272,2.272,0,0,1,.5-4.437a2.275,2.275,0,0,1-1.669-.692A2.275,2.275,0,0,1-1.866-6.8a2.275,2.275,0,0,1,.692-1.669A2.275,2.275,0,0,1,.5-9.16a2.275,2.275,0,0,1,1.669.692A2.275,2.275,0,0,1,2.856-6.8ZM7.674-2.177a.973.973,0,0,0-.3-.714.973.973,0,0,0-.714-.3.973.973,0,0,0-.714.3.973.973,0,0,0-.3.714.973.973,0,0,0,.3.714.973.973,0,0,0,.714.3.973.973,0,0,0,.714-.3A.973.973,0,0,0,7.674-2.177Zm1.352,0A2.275,2.275,0,0,1,8.334-.508,2.275,2.275,0,0,1,6.665.184,2.275,2.275,0,0,1,5-.508,2.275,2.275,0,0,1,4.3-2.177,2.272,2.272,0,0,1,5-3.85a2.28,2.28,0,0,1,1.669-.689,2.275,2.275,0,0,1,1.669.692A2.275,2.275,0,0,1,9.026-2.177ZM5.656-9.2h.965L1.492.241H.508Z" transform="translate(64.689 366.64)" fill="#fffaea"/><path d="M162.646,500.686H108.605l-5.773,10,5.773,10h54.041l5.773-10Z" transform="translate(4.149 -149.045)" fill="#292c45"/><path d="M-7.249-2.463a1.746,1.746,0,0,0,.413.911,1.169,1.169,0,0,0,.889.321A1.2,1.2,0,0,0-4.923-1.7a1.938,1.938,0,0,0,.352-1.19,2.068,2.068,0,0,0-.33-1.19A1.156,1.156,0,0,0-5.929-4.57a1.769,1.769,0,0,0-.571.083,1.136,1.136,0,0,0-.641.565L-8.766-4l.647-5.084h5.072v1.536H-6.811l-.33,2.012A3.782,3.782,0,0,1-6.487-5.9a2.768,2.768,0,0,1,.958-.146,2.879,2.879,0,0,1,1.993.768,2.856,2.856,0,0,1,.851,2.234A3.505,3.505,0,0,1-3.5-.762a2.978,2.978,0,0,1-2.45,1,3.254,3.254,0,0,1-2.158-.7,2.737,2.737,0,0,1-.939-2ZM.5-5.789a.973.973,0,0,0,.714-.3A.973.973,0,0,0,1.5-6.8a.973.973,0,0,0-.3-.714.973.973,0,0,0-.714-.3.973.973,0,0,0-.714.3.973.973,0,0,0-.3.714.973.973,0,0,0,.3.714A.973.973,0,0,0,.5-5.789ZM2.856-6.8a2.28,2.28,0,0,1-.689,1.669A2.272,2.272,0,0,1,.5-4.437a2.275,2.275,0,0,1-1.669-.692A2.275,2.275,0,0,1-1.866-6.8a2.275,2.275,0,0,1,.692-1.669A2.275,2.275,0,0,1,.5-9.16a2.275,2.275,0,0,1,1.669.692A2.275,2.275,0,0,1,2.856-6.8ZM7.674-2.177a.973.973,0,0,0-.3-.714.973.973,0,0,0-.714-.3.973.973,0,0,0-.714.3.973.973,0,0,0-.3.714.973.973,0,0,0,.3.714.973.973,0,0,0,.714.3.973.973,0,0,0,.714-.3A.973.973,0,0,0,7.674-2.177Zm1.352,0A2.275,2.275,0,0,1,8.334-.508,2.275,2.275,0,0,1,6.665.184,2.275,2.275,0,0,1,5-.508,2.275,2.275,0,0,1,4.3-2.177,2.272,2.272,0,0,1,5-3.85a2.28,2.28,0,0,1,1.669-.689,2.275,2.275,0,0,1,1.669.692A2.275,2.275,0,0,1,9.026-2.177ZM5.656-9.2h.965L1.492.241H.508Z" transform="translate(139.816 366.6)" fill="#fffaea"/><path d="M345.009,500.686H180.3l-5.773,10,5.773,10h164.7l5.773-10Z" transform="translate(4.149 -149.045)" fill="#292c45"/><path d="M-2.6-1.98H-3.637V0H-5.408V-1.98H-9.052V-3.561l3.383-5.586h2.031V-3.4H-2.6ZM-5.408-3.4V-7.37L-7.712-3.4ZM.5-5.789a.973.973,0,0,0,.714-.3A.973.973,0,0,0,1.5-6.8a.973.973,0,0,0-.3-.714.973.973,0,0,0-.714-.3.973.973,0,0,0-.714.3.973.973,0,0,0-.3.714.973.973,0,0,0,.3.714A.973.973,0,0,0,.5-5.789ZM2.856-6.8a2.28,2.28,0,0,1-.689,1.669A2.272,2.272,0,0,1,.5-4.437a2.275,2.275,0,0,1-1.669-.692A2.275,2.275,0,0,1-1.866-6.8a2.275,2.275,0,0,1,.692-1.669A2.275,2.275,0,0,1,.5-9.16a2.275,2.275,0,0,1,1.669.692A2.275,2.275,0,0,1,2.856-6.8ZM7.674-2.177a.973.973,0,0,0-.3-.714.973.973,0,0,0-.714-.3.973.973,0,0,0-.714.3.973.973,0,0,0-.3.714.973.973,0,0,0,.3.714.973.973,0,0,0,.714.3.973.973,0,0,0,.714-.3A.973.973,0,0,0,7.674-2.177Zm1.352,0A2.275,2.275,0,0,1,8.334-.508,2.275,2.275,0,0,1,6.665.184,2.275,2.275,0,0,1,5-.508,2.275,2.275,0,0,1,4.3-2.177,2.272,2.272,0,0,1,5-3.85a2.28,2.28,0,0,1,1.669-.689,2.275,2.275,0,0,1,1.669.692A2.275,2.275,0,0,1,9.026-2.177ZM5.656-9.2h.965L1.492.241H.508Z" transform="translate(266.807 366.6)" fill="#fffaea"/><path d="M28.748,543.728H39.225l2.113,6.543-2.113,6.641H28.748l-1.99-6.361Z" transform="translate(4.149 -149.045)" fill="#2a2549"/></g><path d="M.36-7.32l1.788.9L1.836-8.4h1.08L2.6-6.42l1.788-.9L4.728-6.3,2.76-5.964l1.4,1.4L3.3-3.924,2.376-5.7,1.452-3.924.588-4.56l1.4-1.4L.024-6.3ZM7.776-5.868v-.468a1.206,1.206,0,0,0-.174-.75.624.624,0,0,0-.51-.21q-.7,0-.7.828v.684H5.184v-.624a2.216,2.216,0,0,1,.492-1.554A1.877,1.877,0,0,1,7.128-8.5a1.894,1.894,0,0,1,1.464.546,2.227,2.227,0,0,1,.5,1.566v.216A1.66,1.66,0,0,1,8.172-4.44,1.719,1.719,0,0,1,9.1-2.676v.66a2.227,2.227,0,0,1-.5,1.566A1.894,1.894,0,0,1,7.128.1,1.894,1.894,0,0,1,5.664-.45a2.227,2.227,0,0,1-.5-1.566V-2.94H6.408v1.008q0,.828.684.828a.624.624,0,0,0,.51-.21,1.181,1.181,0,0,0,.174-.738v-.66a1.3,1.3,0,0,0-.2-.822.811.811,0,0,0-.66-.246H6.588v-1.2h.4a.792.792,0,0,0,.594-.2A.964.964,0,0,0,7.776-5.868ZM11.928-8.4Q13.9-8.4,13.9-6.324v1.092q0,2.076-1.968,2.076H11.3V0H9.984V-8.4Zm0,1.2H11.3v2.844h.624a.621.621,0,0,0,.486-.18.912.912,0,0,0,.162-.612v-1.26a.912.912,0,0,0-.162-.612A.621.621,0,0,0,11.928-7.2Zm5.04,3.348L15.864,0H14.508V-8.4h1.176v5.316l.48-1.848L17.244-8.4H18.7V0H17.508V-5.916ZM19.248-7.2V-8.4h4.08v1.2h-1.38V0h-1.32V-7.2Zm5.976,0v2.34h1.812v1.2H25.224V-1.2H27.5V0H23.9V-8.4h3.6v1.2ZM27.948.012v-1.2a.981.981,0,0,0,.642-.15,1.073,1.073,0,0,0,.174-.714L28.98-8.4h3.732V0H31.368V-7.2H30.216l-.144,5.076a2.56,2.56,0,0,1-.48,1.644,1.855,1.855,0,0,1-1.44.492ZM36.18-3.852,35.076,0H33.72V-8.4H34.9v5.316l.48-1.848L36.456-8.4h1.452V0H36.72V-5.916ZM42.7-8.4a2.02,2.02,0,0,1,1.488.474,2,2,0,0,1,.468,1.458v.3A1.669,1.669,0,0,1,43.8-4.476a1.7,1.7,0,0,1,.984,1.8v.684a2.007,2.007,0,0,1-.51,1.482A2.025,2.025,0,0,1,42.78,0H40.7V-8.4Zm-.084,4.62h-.588V-1.2h.756a.661.661,0,0,0,.516-.186.958.958,0,0,0,.168-.642V-2.76a1.216,1.216,0,0,0-.2-.8A.839.839,0,0,0,42.612-3.78ZM42.66-7.2h-.636v2.22h.516a.792.792,0,0,0,.594-.2.964.964,0,0,0,.2-.684v-.468Q43.332-7.2,42.66-7.2ZM50.448,0,49.164-3.348l-.408.768V0h-1.32V-8.4h1.32v3.66L50.484-8.4H51.8L49.968-4.656,51.8,0Zm4.416-3.852L53.76,0H52.4V-8.4H53.58v5.316l.48-1.848L55.14-8.4h1.452V0H55.4V-5.916Zm3.984.252V0h-1.32V-8.4h1.32v3.6h1.5V-8.4h1.344V0H60.348V-3.6Zm5.016-2.868v4.536q0,.828.684.828t.684-.828V-6.468q0-.828-.684-.828T63.864-6.468Zm-1.32,4.452V-6.384a2.2,2.2,0,0,1,.516-1.56A1.938,1.938,0,0,1,64.548-8.5a1.938,1.938,0,0,1,1.488.552,2.2,2.2,0,0,1,.516,1.56v4.368a2.2,2.2,0,0,1-.516,1.56A1.938,1.938,0,0,1,64.548.1,1.938,1.938,0,0,1,63.06-.456,2.2,2.2,0,0,1,62.544-2.016ZM67.02-7.2V-8.4H71.1v1.2H69.72V0H68.4V-7.2ZM73-7.2v2.34h1.812v1.2H73V-1.2h2.28V0h-3.6V-8.4h3.6v1.2ZM79.02-8.4,80.364,0H79.032L78.8-1.524h-1.62L76.956,0H75.744l1.344-8.4ZM77.988-6.912l-.636,4.248h1.272Zm2.6-.288V-8.4h4.08v1.2h-1.38V0h-1.32V-7.2Zm6.6-1.2q1.968,0,1.968,2.076v1.092q0,2.076-1.968,2.076h-.624V0h-1.32V-8.4Zm0,1.2h-.624v2.844h.624a.621.621,0,0,0,.486-.18.912.912,0,0,0,.162-.612v-1.26a.912.912,0,0,0-.162-.612A.621.621,0,0,0,87.192-7.2Zm3.9,0v2.34H92.9v1.2H91.092V-1.2h2.28V0h-3.6V-8.4h3.6v1.2Z" transform="translate(32.697 483.024)" fill="#2a2648" opacity="0.5"/><path d="M5.192,0V-1.738h-.9Q.682-1.738.682-5.544v-4.2q0-3.806,3.608-3.806h.9V-15.4H7.568v1.848h.9q3.608,0,3.608,3.806v4.2q0,3.806-3.608,3.806h-.9V0ZM8.47-11.418h-.9V-3.85h.9q1.21,0,1.21-1.54V-9.9Q9.68-11.418,8.47-11.418ZM5.192-3.85v-7.568h-.9q-1.21,0-1.21,1.518v4.51q0,1.54,1.21,1.54ZM18.018-7.062,15.994,0H13.508V-15.4h2.156v9.746l.88-3.388,1.98-6.358h2.662V0H19.008V-10.846Zm7.106.462V0H22.7V-15.4h2.42v6.6h2.75v-6.6h2.464V0H27.874V-6.6Zm12.144-8.8L39.732,0H37.29l-.418-2.794H33.9L33.484,0H31.262l2.464-15.4Zm-1.892,2.728L34.21-4.884h2.332Zm7.7,6.072V0h-2.42V-15.4h2.42v6.6h2.75v-6.6H48.29V0H45.826V-6.6Zm11.506.858H56.87V-3.7a4.083,4.083,0,0,1-.924,2.871,3.472,3.472,0,0,1-2.684,1,3.472,3.472,0,0,1-2.684-1A4.083,4.083,0,0,1,49.654-3.7V-11.7a4.083,4.083,0,0,1,.924-2.871,3.472,3.472,0,0,1,2.684-1,3.472,3.472,0,0,1,2.684,1A4.083,4.083,0,0,1,56.87-11.7v1.5H54.582v-1.65q0-1.518-1.254-1.518t-1.254,1.518v8.316q0,1.5,1.254,1.5t1.254-1.5Zm5.786-6.116v8.316q0,1.518,1.254,1.518t1.254-1.518v-8.316q0-1.518-1.254-1.518T60.368-11.858ZM57.948-3.7V-11.7a4.03,4.03,0,0,1,.946-2.86,3.553,3.553,0,0,1,2.728-1.012,3.553,3.553,0,0,1,2.728,1.012A4.03,4.03,0,0,1,65.3-11.7V-3.7a4.03,4.03,0,0,1-.946,2.86A3.553,3.553,0,0,1,61.622.176,3.553,3.553,0,0,1,58.894-.836,4.03,4.03,0,0,1,57.948-3.7ZM70.312-15.4a3.7,3.7,0,0,1,2.728.869,3.67,3.67,0,0,1,.858,2.673v.55q0,2.376-1.562,3.1,1.8.7,1.8,3.3v1.254a3.68,3.68,0,0,1-.935,2.717A3.712,3.712,0,0,1,70.466,0H66.66V-15.4Zm-.154,8.47H69.08V-2.2h1.386a1.213,1.213,0,0,0,.946-.341,1.757,1.757,0,0,0,.308-1.177V-5.06a2.229,2.229,0,0,0-.363-1.463A1.537,1.537,0,0,0,70.158-6.93Zm.088-6.27H69.08v4.07h.946A1.453,1.453,0,0,0,71.115-9.5a1.767,1.767,0,0,0,.363-1.254v-.858Q71.478-13.2,70.246-13.2Zm10.516-2.2L83.226,0H80.784l-.418-2.794H77.4L76.978,0H74.756L77.22-15.4ZM78.87-12.672,77.7-4.884h2.332ZM86.174,0H83.71a5.006,5.006,0,0,0,.264-1.87V-4.246q0-2.6,1.606-3.278Q84-8.272,84-10.648v-1.21a3.67,3.67,0,0,1,.858-2.673,3.7,3.7,0,0,1,2.728-.869h3.652V0h-2.42V-6.27h-.836a1.486,1.486,0,0,0-1.21.451,2.376,2.376,0,0,0-.374,1.507v2.42A6.282,6.282,0,0,1,86.174,0Zm2.64-13.2H87.648q-1.232,0-1.232,1.584V-10.1a1.767,1.767,0,0,0,.363,1.254,1.453,1.453,0,0,0,1.089.374h.946Zm10.538-2.2,1.782,10.934,1.65-10.934h3.366V0h-2.288V-11.044L102.19,0H99.9L98.1-10.89V0H95.986V-15.4Zm10.582,3.542v8.316q0,1.518,1.254,1.518t1.254-1.518v-8.316q0-1.518-1.254-1.518T109.934-11.858ZM107.514-3.7V-11.7a4.03,4.03,0,0,1,.946-2.86,3.553,3.553,0,0,1,2.728-1.012,3.553,3.553,0,0,1,2.728,1.012,4.03,4.03,0,0,1,.946,2.86V-3.7a4.03,4.03,0,0,1-.946,2.86A3.553,3.553,0,0,1,111.188.176,3.553,3.553,0,0,1,108.46-.836,4.03,4.03,0,0,1,107.514-3.7ZM125.62,2.068h-2.4V0h-5.17V2.068H115.7V-2.156h.946a3.452,3.452,0,0,0,.594-2l.55-11.242h6.776V-2.156h1.056ZM120.054-13.2l-.44,9a3.06,3.06,0,0,1-.682,2.046H122.1V-13.2Zm9.13,0v4.29h3.322v2.2h-3.322V-2.2h4.18V0h-6.6V-15.4h6.6v2.2ZM133.98.022v-2.2a1.8,1.8,0,0,0,1.177-.275,1.968,1.968,0,0,0,.319-1.309l.4-11.638h6.842V0H140.25V-13.2h-2.112l-.264,9.306a4.694,4.694,0,0,1-.88,3.014,3.4,3.4,0,0,1-2.64.9ZM147.928,0h-3.564V-15.4h2.42v5.786h1.144q3.608,0,3.608,3.806v2Q151.536,0,147.928,0Zm-1.144-2.2h1.144a1.138,1.138,0,0,0,.891-.33,1.673,1.673,0,0,0,.3-1.122v-2.31a1.673,1.673,0,0,0-.3-1.122,1.138,1.138,0,0,0-.891-.33h-1.144Z" transform="translate(32.282 15.576)" fill="#2a2846"/><path d="M-31.14-10.56a2.01,2.01,0,0,0-.29-1.25,1.04,1.04,0,0,0-.85-.35q-1.14,0-1.14,1.38v1.5H-35.5v-1.36a3.712,3.712,0,0,1,.84-2.61,3.156,3.156,0,0,1,2.44-.91,3.156,3.156,0,0,1,2.44.91,3.712,3.712,0,0,1,.84,2.61,6.068,6.068,0,0,1-.45,2.32,7.128,7.128,0,0,1-1.1,1.88q-.65.78-1.29,1.46a9.9,9.9,0,0,0-1.09,1.37,2.418,2.418,0,0,0-.45,1.31,1.657,1.657,0,0,0,.02.3h4.16V0H-35.5V-1.72a4.82,4.82,0,0,1,.45-2.09,6.819,6.819,0,0,1,1.09-1.66q.64-.71,1.28-1.4A6.508,6.508,0,0,0-31.59-8.5,4.708,4.708,0,0,0-31.14-10.56Zm3.42,7.2v-7.16q0-3.64,3.36-3.64a3.156,3.156,0,0,1,2.44.91,3.712,3.712,0,0,1,.84,2.61v.36h-2.08v-.5q0-1.38-1.14-1.38a1.1,1.1,0,0,0-.92.38,2.229,2.229,0,0,0-.3,1.34v2.56a2.068,2.068,0,0,1,2.04-1.24q2.44,0,2.44,3.2v2.56a3.663,3.663,0,0,1-.86,2.6,3.23,3.23,0,0,1-2.48.92,3.23,3.23,0,0,1-2.48-.92A3.663,3.663,0,0,1-27.72-3.36Zm4.48-2.38q0-1.38-1.14-1.38t-1.14,1.38v2.52q0,1.36,1.14,1.36t1.14-1.36Zm5.6-5.04v7.56q0,1.38,1.14,1.38t1.14-1.38v-7.56q0-1.38-1.14-1.38T-17.64-10.78Zm-2.2,7.42v-7.28a3.663,3.663,0,0,1,.86-2.6,3.23,3.23,0,0,1,2.48-.92,3.23,3.23,0,0,1,2.48.92,3.663,3.663,0,0,1,.86,2.6v7.28a3.663,3.663,0,0,1-.86,2.6A3.23,3.23,0,0,1-16.5.16a3.23,3.23,0,0,1-2.48-.92A3.663,3.663,0,0,1-19.84-3.36Zm9.38-8.6v4.8q0,.88.72.88t.72-.88v-4.8q0-.88-.72-.88T-10.46-11.96Zm-1.4,4.7v-4.6a2.347,2.347,0,0,1,.54-1.66,2.054,2.054,0,0,1,1.58-.58,2.054,2.054,0,0,1,1.58.58,2.347,2.347,0,0,1,.54,1.66v4.6A2.347,2.347,0,0,1-8.16-5.6a2.054,2.054,0,0,1-1.58.58,2.054,2.054,0,0,1-1.58-.58A2.347,2.347,0,0,1-11.86-7.26ZM-9.74,0l5.52-14h1.3L-8.44,0Zm6.22-6.84v4.8q0,.88.72.88t.72-.88v-4.8q0-.88-.72-.88T-3.52-6.84Zm-1.4,4.7v-4.6A2.347,2.347,0,0,1-4.38-8.4,2.054,2.054,0,0,1-2.8-8.98a2.054,2.054,0,0,1,1.58.58A2.347,2.347,0,0,1-.68-6.74v4.6A2.347,2.347,0,0,1-1.22-.48,2.054,2.054,0,0,1-2.8.1,2.054,2.054,0,0,1-4.38-.48,2.347,2.347,0,0,1-4.92-2.14Z" transform="translate(349.376 46.501)" fill="#2a2648"/><path d="M-31.14-10.56a2.01,2.01,0,0,0-.29-1.25,1.04,1.04,0,0,0-.85-.35q-1.14,0-1.14,1.38v1.5H-35.5v-1.36a3.712,3.712,0,0,1,.84-2.61,3.156,3.156,0,0,1,2.44-.91,3.156,3.156,0,0,1,2.44.91,3.712,3.712,0,0,1,.84,2.61,6.068,6.068,0,0,1-.45,2.32,7.128,7.128,0,0,1-1.1,1.88q-.65.78-1.29,1.46a9.9,9.9,0,0,0-1.09,1.37,2.418,2.418,0,0,0-.45,1.31,1.657,1.657,0,0,0,.02.3h4.16V0H-35.5V-1.72a4.82,4.82,0,0,1,.45-2.09,6.819,6.819,0,0,1,1.09-1.66q.64-.71,1.28-1.4A6.508,6.508,0,0,0-31.59-8.5,4.708,4.708,0,0,0-31.14-10.56Zm7.92,0a2.01,2.01,0,0,0-.29-1.25,1.041,1.041,0,0,0-.85-.35q-1.14,0-1.14,1.38v1.5h-2.08v-1.36a3.712,3.712,0,0,1,.84-2.61,3.156,3.156,0,0,1,2.44-.91,3.156,3.156,0,0,1,2.44.91,3.712,3.712,0,0,1,.84,2.61,6.068,6.068,0,0,1-.45,2.32,7.128,7.128,0,0,1-1.1,1.88q-.65.78-1.29,1.46a9.9,9.9,0,0,0-1.09,1.37A2.418,2.418,0,0,0-25.4-2.3a1.657,1.657,0,0,0,.02.3h4.16V0h-6.36V-1.72a4.82,4.82,0,0,1,.45-2.09,6.819,6.819,0,0,1,1.09-1.66q.64-.71,1.28-1.4A6.508,6.508,0,0,0-23.67-8.5,4.708,4.708,0,0,0-23.22-10.56Zm5.58-.22v7.56q0,1.38,1.14,1.38t1.14-1.38v-7.56q0-1.38-1.14-1.38T-17.64-10.78Zm-2.2,7.42v-7.28a3.663,3.663,0,0,1,.86-2.6,3.23,3.23,0,0,1,2.48-.92,3.23,3.23,0,0,1,2.48.92,3.663,3.663,0,0,1,.86,2.6v7.28a3.663,3.663,0,0,1-.86,2.6A3.23,3.23,0,0,1-16.5.16a3.23,3.23,0,0,1-2.48-.92A3.663,3.663,0,0,1-19.84-3.36Zm9.38-8.6v4.8q0,.88.72.88t.72-.88v-4.8q0-.88-.72-.88T-10.46-11.96Zm-1.4,4.7v-4.6a2.347,2.347,0,0,1,.54-1.66,2.054,2.054,0,0,1,1.58-.58,2.054,2.054,0,0,1,1.58.58,2.347,2.347,0,0,1,.54,1.66v4.6A2.347,2.347,0,0,1-8.16-5.6a2.054,2.054,0,0,1-1.58.58,2.054,2.054,0,0,1-1.58-.58A2.347,2.347,0,0,1-11.86-7.26ZM-9.74,0l5.52-14h1.3L-8.44,0Zm6.22-6.84v4.8q0,.88.72.88t.72-.88v-4.8q0-.88-.72-.88T-3.52-6.84Zm-1.4,4.7v-4.6A2.347,2.347,0,0,1-4.38-8.4,2.054,2.054,0,0,1-2.8-8.98a2.054,2.054,0,0,1,1.58.58A2.347,2.347,0,0,1-.68-6.74v4.6A2.347,2.347,0,0,1-1.22-.48,2.054,2.054,0,0,1-2.8.1,2.054,2.054,0,0,1-4.38-.48,2.347,2.347,0,0,1-4.92-2.14Z" transform="translate(314.376 106.501)" fill="#2a2648"/><path d="M-34.14-10.68v-1.56a2.379,2.379,0,0,0,1.62-.44,3.282,3.282,0,0,0,.8-1.32h1.48V0h-2.2V-10.68Zm13.16,7.32a3.586,3.586,0,0,1-.89,2.6,3.385,3.385,0,0,1-2.55.92,3.385,3.385,0,0,1-2.55-.92,3.586,3.586,0,0,1-.89-2.6v-1.1A3.044,3.044,0,0,1-26.5-7.38a2.916,2.916,0,0,1-1.36-2.82v-.44a3.586,3.586,0,0,1,.89-2.6,3.385,3.385,0,0,1,2.55-.92,3.385,3.385,0,0,1,2.55.92,3.586,3.586,0,0,1,.89,2.6v.44a2.942,2.942,0,0,1-1.36,2.82,3.044,3.044,0,0,1,1.36,2.92Zm-4.68-.06q0,1.58,1.24,1.58,1.22,0,1.24-1.58v-1.3q0-1.58-1.24-1.58t-1.24,1.58Zm0-7.14v.78q0,1.48,1.24,1.48t1.24-1.48v-.78q0-1.6-1.24-1.6T-25.66-10.56Zm8.02-.22v7.56q0,1.38,1.14,1.38t1.14-1.38v-7.56q0-1.38-1.14-1.38T-17.64-10.78Zm-2.2,7.42v-7.28a3.663,3.663,0,0,1,.86-2.6,3.23,3.23,0,0,1,2.48-.92,3.23,3.23,0,0,1,2.48.92,3.663,3.663,0,0,1,.86,2.6v7.28a3.663,3.663,0,0,1-.86,2.6A3.23,3.23,0,0,1-16.5.16a3.23,3.23,0,0,1-2.48-.92A3.663,3.663,0,0,1-19.84-3.36Zm9.38-8.6v4.8q0,.88.72.88t.72-.88v-4.8q0-.88-.72-.88T-10.46-11.96Zm-1.4,4.7v-4.6a2.347,2.347,0,0,1,.54-1.66,2.054,2.054,0,0,1,1.58-.58,2.054,2.054,0,0,1,1.58.58,2.347,2.347,0,0,1,.54,1.66v4.6A2.347,2.347,0,0,1-8.16-5.6a2.054,2.054,0,0,1-1.58.58,2.054,2.054,0,0,1-1.58-.58A2.347,2.347,0,0,1-11.86-7.26ZM-9.74,0l5.52-14h1.3L-8.44,0Zm6.22-6.84v4.8q0,.88.72.88t.72-.88v-4.8q0-.88-.72-.88T-3.52-6.84Zm-1.4,4.7v-4.6A2.347,2.347,0,0,1-4.38-8.4,2.054,2.054,0,0,1-2.8-8.98a2.054,2.054,0,0,1,1.58.58A2.347,2.347,0,0,1-.68-6.74v4.6A2.347,2.347,0,0,1-1.22-.48,2.054,2.054,0,0,1-2.8.1,2.054,2.054,0,0,1-4.38-.48,2.347,2.347,0,0,1-4.92-2.14Z" transform="translate(278.376 147.501)" fill="#2a2648"/><path d="M-34.14-10.68v-1.56a2.379,2.379,0,0,0,1.62-.44,3.282,3.282,0,0,0,.8-1.32h1.48V0h-2.2V-10.68Zm6.04,8.14v-2l4-9.46h2.4v9.46h1.04v2H-21.7V0h-2.16V-2.54Zm2.02-2h2.22V-9.8Zm8.44-6.24v7.56q0,1.38,1.14,1.38t1.14-1.38v-7.56q0-1.38-1.14-1.38T-17.64-10.78Zm-2.2,7.42v-7.28a3.663,3.663,0,0,1,.86-2.6,3.23,3.23,0,0,1,2.48-.92,3.23,3.23,0,0,1,2.48.92,3.663,3.663,0,0,1,.86,2.6v7.28a3.663,3.663,0,0,1-.86,2.6A3.23,3.23,0,0,1-16.5.16a3.23,3.23,0,0,1-2.48-.92A3.663,3.663,0,0,1-19.84-3.36Zm9.38-8.6v4.8q0,.88.72.88t.72-.88v-4.8q0-.88-.72-.88T-10.46-11.96Zm-1.4,4.7v-4.6a2.347,2.347,0,0,1,.54-1.66,2.054,2.054,0,0,1,1.58-.58,2.054,2.054,0,0,1,1.58.58,2.347,2.347,0,0,1,.54,1.66v4.6A2.347,2.347,0,0,1-8.16-5.6a2.054,2.054,0,0,1-1.58.58,2.054,2.054,0,0,1-1.58-.58A2.347,2.347,0,0,1-11.86-7.26ZM-9.74,0l5.52-14h1.3L-8.44,0Zm6.22-6.84v4.8q0,.88.72.88t.72-.88v-4.8q0-.88-.72-.88T-3.52-6.84Zm-1.4,4.7v-4.6A2.347,2.347,0,0,1-4.38-8.4,2.054,2.054,0,0,1-2.8-8.98a2.054,2.054,0,0,1,1.58.58A2.347,2.347,0,0,1-.68-6.74v4.6A2.347,2.347,0,0,1-1.22-.48,2.054,2.054,0,0,1-2.8.1,2.054,2.054,0,0,1-4.38-.48,2.347,2.347,0,0,1-4.92-2.14Z" transform="translate(242.376 186.501)" fill="#2a2648"/><path d="M-34.14-10.68v-1.56a2.379,2.379,0,0,0,1.62-.44,3.282,3.282,0,0,0,.8-1.32h1.48V0h-2.2V-10.68Zm10.92.12a2.01,2.01,0,0,0-.29-1.25,1.041,1.041,0,0,0-.85-.35q-1.14,0-1.14,1.38v1.5h-2.08v-1.36a3.712,3.712,0,0,1,.84-2.61,3.156,3.156,0,0,1,2.44-.91,3.156,3.156,0,0,1,2.44.91,3.712,3.712,0,0,1,.84,2.61,6.068,6.068,0,0,1-.45,2.32,7.128,7.128,0,0,1-1.1,1.88q-.65.78-1.29,1.46a9.9,9.9,0,0,0-1.09,1.37A2.418,2.418,0,0,0-25.4-2.3a1.657,1.657,0,0,0,.02.3h4.16V0h-6.36V-1.72a4.82,4.82,0,0,1,.45-2.09,6.819,6.819,0,0,1,1.09-1.66q.64-.71,1.28-1.4A6.508,6.508,0,0,0-23.67-8.5,4.708,4.708,0,0,0-23.22-10.56Zm5.58-.22v7.56q0,1.38,1.14,1.38t1.14-1.38v-7.56q0-1.38-1.14-1.38T-17.64-10.78Zm-2.2,7.42v-7.28a3.663,3.663,0,0,1,.86-2.6,3.23,3.23,0,0,1,2.48-.92,3.23,3.23,0,0,1,2.48.92,3.663,3.663,0,0,1,.86,2.6v7.28a3.663,3.663,0,0,1-.86,2.6A3.23,3.23,0,0,1-16.5.16a3.23,3.23,0,0,1-2.48-.92A3.663,3.663,0,0,1-19.84-3.36Zm9.38-8.6v4.8q0,.88.72.88t.72-.88v-4.8q0-.88-.72-.88T-10.46-11.96Zm-1.4,4.7v-4.6a2.347,2.347,0,0,1,.54-1.66,2.054,2.054,0,0,1,1.58-.58,2.054,2.054,0,0,1,1.58.58,2.347,2.347,0,0,1,.54,1.66v4.6A2.347,2.347,0,0,1-8.16-5.6a2.054,2.054,0,0,1-1.58.58,2.054,2.054,0,0,1-1.58-.58A2.347,2.347,0,0,1-11.86-7.26ZM-9.74,0l5.52-14h1.3L-8.44,0Zm6.22-6.84v4.8q0,.88.72.88t.72-.88v-4.8q0-.88-.72-.88T-3.52-6.84Zm-1.4,4.7v-4.6A2.347,2.347,0,0,1-4.38-8.4,2.054,2.054,0,0,1-2.8-8.98a2.054,2.054,0,0,1,1.58.58A2.347,2.347,0,0,1-.68-6.74v4.6A2.347,2.347,0,0,1-1.22-.48,2.054,2.054,0,0,1-2.8.1,2.054,2.054,0,0,1-4.38-.48,2.347,2.347,0,0,1-4.92-2.14Z" transform="translate(207.376 205.501)" fill="#2a2648"/><path d="M-34.14-10.68v-1.56a2.379,2.379,0,0,0,1.62-.44,3.282,3.282,0,0,0,.8-1.32h1.48V0h-2.2V-10.68Zm8.58-.1v7.56q0,1.38,1.14,1.38t1.14-1.38v-7.56q0-1.38-1.14-1.38T-25.56-10.78Zm-2.2,7.42v-7.28a3.663,3.663,0,0,1,.86-2.6,3.23,3.23,0,0,1,2.48-.92,3.23,3.23,0,0,1,2.48.92,3.663,3.663,0,0,1,.86,2.6v7.28a3.663,3.663,0,0,1-.86,2.6,3.23,3.23,0,0,1-2.48.92A3.23,3.23,0,0,1-26.9-.76,3.663,3.663,0,0,1-27.76-3.36Zm10.12-7.42v7.56q0,1.38,1.14,1.38t1.14-1.38v-7.56q0-1.38-1.14-1.38T-17.64-10.78Zm-2.2,7.42v-7.28a3.663,3.663,0,0,1,.86-2.6,3.23,3.23,0,0,1,2.48-.92,3.23,3.23,0,0,1,2.48.92,3.663,3.663,0,0,1,.86,2.6v7.28a3.663,3.663,0,0,1-.86,2.6A3.23,3.23,0,0,1-16.5.16a3.23,3.23,0,0,1-2.48-.92A3.663,3.663,0,0,1-19.84-3.36Zm9.38-8.6v4.8q0,.88.72.88t.72-.88v-4.8q0-.88-.72-.88T-10.46-11.96Zm-1.4,4.7v-4.6a2.347,2.347,0,0,1,.54-1.66,2.054,2.054,0,0,1,1.58-.58,2.054,2.054,0,0,1,1.58.58,2.347,2.347,0,0,1,.54,1.66v4.6A2.347,2.347,0,0,1-8.16-5.6a2.054,2.054,0,0,1-1.58.58,2.054,2.054,0,0,1-1.58-.58A2.347,2.347,0,0,1-11.86-7.26ZM-9.74,0l5.52-14h1.3L-8.44,0Zm6.22-6.84v4.8q0,.88.72.88t.72-.88v-4.8q0-.88-.72-.88T-3.52-6.84Zm-1.4,4.7v-4.6A2.347,2.347,0,0,1-4.38-8.4,2.054,2.054,0,0,1-2.8-8.98a2.054,2.054,0,0,1,1.58.58A2.347,2.347,0,0,1-.68-6.74v4.6A2.347,2.347,0,0,1-1.22-.48,2.054,2.054,0,0,1-2.8.1,2.054,2.054,0,0,1-4.38-.48,2.347,2.347,0,0,1-4.92-2.14Z" transform="translate(171.376 225.501)" fill="#2a2648"/><path d="M-27.68-4.52h2.08v1.3q0,1.36,1.14,1.36t1.14-1.36V-6.3q0-1.38-1.14-1.38T-25.6-6.3v.42h-2.08l.4-8.12h5.8v2H-25.3l-.18,3.34a2.089,2.089,0,0,1,1.92-1.02q2.44,0,2.44,3.2v3.12a3.712,3.712,0,0,1-.84,2.61A3.156,3.156,0,0,1-24.4.16a3.156,3.156,0,0,1-2.44-.91,3.712,3.712,0,0,1-.84-2.61Zm10.04-6.26v7.56q0,1.38,1.14,1.38t1.14-1.38v-7.56q0-1.38-1.14-1.38T-17.64-10.78Zm-2.2,7.42v-7.28a3.663,3.663,0,0,1,.86-2.6,3.23,3.23,0,0,1,2.48-.92,3.23,3.23,0,0,1,2.48.92,3.663,3.663,0,0,1,.86,2.6v7.28a3.663,3.663,0,0,1-.86,2.6A3.23,3.23,0,0,1-16.5.16a3.23,3.23,0,0,1-2.48-.92A3.663,3.663,0,0,1-19.84-3.36Zm9.38-8.6v4.8q0,.88.72.88t.72-.88v-4.8q0-.88-.72-.88T-10.46-11.96Zm-1.4,4.7v-4.6a2.347,2.347,0,0,1,.54-1.66,2.054,2.054,0,0,1,1.58-.58,2.054,2.054,0,0,1,1.58.58,2.347,2.347,0,0,1,.54,1.66v4.6A2.347,2.347,0,0,1-8.16-5.6a2.054,2.054,0,0,1-1.58.58,2.054,2.054,0,0,1-1.58-.58A2.347,2.347,0,0,1-11.86-7.26ZM-9.74,0l5.52-14h1.3L-8.44,0Zm6.22-6.84v4.8q0,.88.72.88t.72-.88v-4.8q0-.88-.72-.88T-3.52-6.84Zm-1.4,4.7v-4.6A2.347,2.347,0,0,1-4.38-8.4,2.054,2.054,0,0,1-2.8-8.98a2.054,2.054,0,0,1,1.58.58A2.347,2.347,0,0,1-.68-6.74v4.6A2.347,2.347,0,0,1-1.22-.48,2.054,2.054,0,0,1-2.8.1,2.054,2.054,0,0,1-4.38-.48,2.347,2.347,0,0,1-4.92-2.14Z" transform="translate(100.376 274.501)" fill="#2a2648"/><path d="M-23.22-10.56a2.01,2.01,0,0,0-.29-1.25,1.041,1.041,0,0,0-.85-.35q-1.14,0-1.14,1.38v1.5h-2.08v-1.36a3.712,3.712,0,0,1,.84-2.61,3.156,3.156,0,0,1,2.44-.91,3.156,3.156,0,0,1,2.44.91,3.712,3.712,0,0,1,.84,2.61,6.068,6.068,0,0,1-.45,2.32,7.128,7.128,0,0,1-1.1,1.88q-.65.78-1.29,1.46a9.9,9.9,0,0,0-1.09,1.37A2.418,2.418,0,0,0-25.4-2.3a1.657,1.657,0,0,0,.02.3h4.16V0h-6.36V-1.72a4.82,4.82,0,0,1,.45-2.09,6.819,6.819,0,0,1,1.09-1.66q.64-.71,1.28-1.4A6.508,6.508,0,0,0-23.67-8.5,4.708,4.708,0,0,0-23.22-10.56Zm5.58-.22v7.56q0,1.38,1.14,1.38t1.14-1.38v-7.56q0-1.38-1.14-1.38T-17.64-10.78Zm-2.2,7.42v-7.28a3.663,3.663,0,0,1,.86-2.6,3.23,3.23,0,0,1,2.48-.92,3.23,3.23,0,0,1,2.48.92,3.663,3.663,0,0,1,.86,2.6v7.28a3.663,3.663,0,0,1-.86,2.6A3.23,3.23,0,0,1-16.5.16a3.23,3.23,0,0,1-2.48-.92A3.663,3.663,0,0,1-19.84-3.36Zm9.38-8.6v4.8q0,.88.72.88t.72-.88v-4.8q0-.88-.72-.88T-10.46-11.96Zm-1.4,4.7v-4.6a2.347,2.347,0,0,1,.54-1.66,2.054,2.054,0,0,1,1.58-.58,2.054,2.054,0,0,1,1.58.58,2.347,2.347,0,0,1,.54,1.66v4.6A2.347,2.347,0,0,1-8.16-5.6a2.054,2.054,0,0,1-1.58.58,2.054,2.054,0,0,1-1.58-.58A2.347,2.347,0,0,1-11.86-7.26ZM-9.74,0l5.52-14h1.3L-8.44,0Zm6.22-6.84v4.8q0,.88.72.88t.72-.88v-4.8q0-.88-.72-.88T-3.52-6.84Zm-1.4,4.7v-4.6A2.347,2.347,0,0,1-4.38-8.4,2.054,2.054,0,0,1-2.8-8.98a2.054,2.054,0,0,1,1.58.58A2.347,2.347,0,0,1-.68-6.74v4.6A2.347,2.347,0,0,1-1.22-.48,2.054,2.054,0,0,1-2.8.1,2.054,2.054,0,0,1-4.38-.48,2.347,2.347,0,0,1-4.92-2.14Z" transform="translate(64.376 304.501)" fill="#2a2648"/><path d="M-20.98-3.36a3.586,3.586,0,0,1-.89,2.6,3.385,3.385,0,0,1-2.55.92,3.385,3.385,0,0,1-2.55-.92,3.586,3.586,0,0,1-.89-2.6v-1.1A3.044,3.044,0,0,1-26.5-7.38a2.916,2.916,0,0,1-1.36-2.82v-.44a3.586,3.586,0,0,1,.89-2.6,3.385,3.385,0,0,1,2.55-.92,3.385,3.385,0,0,1,2.55.92,3.586,3.586,0,0,1,.89,2.6v.44a2.942,2.942,0,0,1-1.36,2.82,3.044,3.044,0,0,1,1.36,2.92Zm-4.68-.06q0,1.58,1.24,1.58,1.22,0,1.24-1.58v-1.3q0-1.58-1.24-1.58t-1.24,1.58Zm0-7.14v.78q0,1.48,1.24,1.48t1.24-1.48v-.78q0-1.6-1.24-1.6T-25.66-10.56Zm8.02-.22v7.56q0,1.38,1.14,1.38t1.14-1.38v-7.56q0-1.38-1.14-1.38T-17.64-10.78Zm-2.2,7.42v-7.28a3.663,3.663,0,0,1,.86-2.6,3.23,3.23,0,0,1,2.48-.92,3.23,3.23,0,0,1,2.48.92,3.663,3.663,0,0,1,.86,2.6v7.28a3.663,3.663,0,0,1-.86,2.6A3.23,3.23,0,0,1-16.5.16a3.23,3.23,0,0,1-2.48-.92A3.663,3.663,0,0,1-19.84-3.36Zm9.38-8.6v4.8q0,.88.72.88t.72-.88v-4.8q0-.88-.72-.88T-10.46-11.96Zm-1.4,4.7v-4.6a2.347,2.347,0,0,1,.54-1.66,2.054,2.054,0,0,1,1.58-.58,2.054,2.054,0,0,1,1.58.58,2.347,2.347,0,0,1,.54,1.66v4.6A2.347,2.347,0,0,1-8.16-5.6a2.054,2.054,0,0,1-1.58.58,2.054,2.054,0,0,1-1.58-.58A2.347,2.347,0,0,1-11.86-7.26ZM-9.74,0l5.52-14h1.3L-8.44,0Zm6.22-6.84v4.8q0,.88.72.88t.72-.88v-4.8q0-.88-.72-.88T-3.52-6.84Zm-1.4,4.7v-4.6A2.347,2.347,0,0,1-4.38-8.4,2.054,2.054,0,0,1-2.8-8.98a2.054,2.054,0,0,1,1.58.58A2.347,2.347,0,0,1-.68-6.74v4.6A2.347,2.347,0,0,1-1.22-.48,2.054,2.054,0,0,1-2.8.1,2.054,2.054,0,0,1-4.38-.48,2.347,2.347,0,0,1-4.92-2.14Z" transform="translate(64.376 245.501)" fill="#2a2648"/><path d="M-23.22-10.56a2.01,2.01,0,0,0-.29-1.25,1.041,1.041,0,0,0-.85-.35q-1.14,0-1.14,1.38v1.5h-2.08v-1.36a3.712,3.712,0,0,1,.84-2.61,3.156,3.156,0,0,1,2.44-.91,3.156,3.156,0,0,1,2.44.91,3.712,3.712,0,0,1,.84,2.61,6.068,6.068,0,0,1-.45,2.32,7.128,7.128,0,0,1-1.1,1.88q-.65.78-1.29,1.46a9.9,9.9,0,0,0-1.09,1.37A2.418,2.418,0,0,0-25.4-2.3a1.657,1.657,0,0,0,.02.3h4.16V0h-6.36V-1.72a4.82,4.82,0,0,1,.45-2.09,6.819,6.819,0,0,1,1.09-1.66q.64-.71,1.28-1.4A6.508,6.508,0,0,0-23.67-8.5,4.708,4.708,0,0,0-23.22-10.56Zm3.46,6.04h2.08v1.3q0,1.36,1.14,1.36t1.14-1.36V-6.3q0-1.38-1.14-1.38T-17.68-6.3v.42h-2.08l.4-8.12h5.8v2h-3.82l-.18,3.34a2.089,2.089,0,0,1,1.92-1.02q2.44,0,2.44,3.2v3.12a3.712,3.712,0,0,1-.84,2.61,3.156,3.156,0,0,1-2.44.91,3.156,3.156,0,0,1-2.44-.91,3.712,3.712,0,0,1-.84-2.61Zm9.3-7.44v4.8q0,.88.72.88t.72-.88v-4.8q0-.88-.72-.88T-10.46-11.96Zm-1.4,4.7v-4.6a2.347,2.347,0,0,1,.54-1.66,2.054,2.054,0,0,1,1.58-.58,2.054,2.054,0,0,1,1.58.58,2.347,2.347,0,0,1,.54,1.66v4.6A2.347,2.347,0,0,1-8.16-5.6a2.054,2.054,0,0,1-1.58.58,2.054,2.054,0,0,1-1.58-.58A2.347,2.347,0,0,1-11.86-7.26ZM-9.74,0l5.52-14h1.3L-8.44,0Zm6.22-6.84v4.8q0,.88.72.88t.72-.88v-4.8q0-.88-.72-.88T-3.52-6.84Zm-1.4,4.7v-4.6A2.347,2.347,0,0,1-4.38-8.4,2.054,2.054,0,0,1-2.8-8.98a2.054,2.054,0,0,1,1.58.58A2.347,2.347,0,0,1-.68-6.74v4.6A2.347,2.347,0,0,1-1.22-.48,2.054,2.054,0,0,1-2.8.1,2.054,2.054,0,0,1-4.38-.48,2.347,2.347,0,0,1-4.92-2.14Z" transform="translate(135.376 300.501)" fill="#2a2648"/><path d="M-27.72-14h6.6v1.92L-24.36,0h-2.2l3.22-12h-4.38Zm7.96,9.48h2.08v1.3q0,1.36,1.14,1.36t1.14-1.36V-6.3q0-1.38-1.14-1.38T-17.68-6.3v.42h-2.08l.4-8.12h5.8v2h-3.82l-.18,3.34a2.089,2.089,0,0,1,1.92-1.02q2.44,0,2.44,3.2v3.12a3.712,3.712,0,0,1-.84,2.61,3.156,3.156,0,0,1-2.44.91,3.156,3.156,0,0,1-2.44-.91,3.712,3.712,0,0,1-.84-2.61Zm9.3-7.44v4.8q0,.88.72.88t.72-.88v-4.8q0-.88-.72-.88T-10.46-11.96Zm-1.4,4.7v-4.6a2.347,2.347,0,0,1,.54-1.66,2.054,2.054,0,0,1,1.58-.58,2.054,2.054,0,0,1,1.58.58,2.347,2.347,0,0,1,.54,1.66v4.6A2.347,2.347,0,0,1-8.16-5.6a2.054,2.054,0,0,1-1.58.58,2.054,2.054,0,0,1-1.58-.58A2.347,2.347,0,0,1-11.86-7.26ZM-9.74,0l5.52-14h1.3L-8.44,0Zm6.22-6.84v4.8q0,.88.72.88t.72-.88v-4.8q0-.88-.72-.88T-3.52-6.84Zm-1.4,4.7v-4.6A2.347,2.347,0,0,1-4.38-8.4,2.054,2.054,0,0,1-2.8-8.98a2.054,2.054,0,0,1,1.58.58A2.347,2.347,0,0,1-.68-6.74v4.6A2.347,2.347,0,0,1-1.22-.48,2.054,2.054,0,0,1-2.8.1,2.054,2.054,0,0,1-4.38-.48,2.347,2.347,0,0,1-4.92-2.14Z" transform="translate(135.376 250.501)" fill="#2a2648"/><path d="M2.3-8.4l.972,5.964.9-5.964H6.012V0H4.764V-6.024L3.852,0H2.6L1.62-5.94V0H.468V-8.4Zm7.476,0L11.124,0H9.792L9.564-1.524H7.944L7.716,0H6.5L7.848-8.4ZM8.748-6.912,8.112-2.664H9.384Zm2.5,6.924v-1.2a.981.981,0,0,0,.642-.15,1.073,1.073,0,0,0,.174-.714L12.276-8.4h3.732V0H14.664V-7.2H13.512l-.144,5.076a2.56,2.56,0,0,1-.48,1.644,1.855,1.855,0,0,1-1.44.492Zm6.864-6.48v4.536q0,.828.684.828t.684-.828V-6.468q0-.828-.684-.828T18.108-6.468Zm-1.32,4.452V-6.384a2.2,2.2,0,0,1,.516-1.56A1.938,1.938,0,0,1,18.792-8.5a1.938,1.938,0,0,1,1.488.552,2.2,2.2,0,0,1,.516,1.56v4.368a2.2,2.2,0,0,1-.516,1.56A1.938,1.938,0,0,1,18.792.1,1.938,1.938,0,0,1,17.3-.456,2.2,2.2,0,0,1,16.788-2.016ZM23.52-8.4a2.02,2.02,0,0,1,1.488.474,2,2,0,0,1,.468,1.458v.3a1.669,1.669,0,0,1-.852,1.692,1.7,1.7,0,0,1,.984,1.8v.684A2.007,2.007,0,0,1,25.1-.51,2.025,2.025,0,0,1,23.6,0H21.528V-8.4Zm-.084,4.62h-.588V-1.2H23.6a.661.661,0,0,0,.516-.186.958.958,0,0,0,.168-.642V-2.76a1.216,1.216,0,0,0-.2-.8A.839.839,0,0,0,23.436-3.78Zm.048-3.42h-.636v2.22h.516a.792.792,0,0,0,.594-.2.964.964,0,0,0,.2-.684v-.468Q24.156-7.2,23.484-7.2Zm4.116,0v2.34h1.812v1.2H27.6V-1.2h2.28V0h-3.6V-8.4h3.6v1.2Zm4.92-1.2q1.968,0,1.968,2.076v1.092q0,2.076-1.968,2.076H31.9V0h-1.32V-8.4Zm0,1.2H31.9v2.844h.624a.621.621,0,0,0,.486-.18.912.912,0,0,0,.162-.612v-1.26a.912.912,0,0,0-.162-.612A.621.621,0,0,0,32.52-7.2Zm3.672.732v4.536q0,.828.684.828t.684-.828V-6.468q0-.828-.684-.828T36.192-6.468Zm-1.32,4.452V-6.384a2.2,2.2,0,0,1,.516-1.56A1.938,1.938,0,0,1,36.876-8.5a1.938,1.938,0,0,1,1.488.552,2.2,2.2,0,0,1,.516,1.56v4.368a2.2,2.2,0,0,1-.516,1.56A1.938,1.938,0,0,1,36.876.1a1.938,1.938,0,0,1-1.488-.552A2.2,2.2,0,0,1,34.872-2.016ZM40.716,0H39.372a2.731,2.731,0,0,0,.144-1.02v-1.3q0-1.416.876-1.788a1.689,1.689,0,0,1-.864-1.7v-.66A2,2,0,0,1,40-7.926,2.02,2.02,0,0,1,41.484-8.4h1.992V0h-1.32V-3.42H41.7a.811.811,0,0,0-.66.246,1.3,1.3,0,0,0-.2.822v1.32A3.426,3.426,0,0,1,40.716,0Zm1.44-7.2H41.52q-.672,0-.672.864v.828a.964.964,0,0,0,.2.684.792.792,0,0,0,.594.2h.516Zm1.776,0V-8.4h4.08v1.2h-1.38V0h-1.32V-7.2Zm5.856,3.6V0h-1.32V-8.4h1.32v3.6h1.5V-8.4h1.344V0H51.288V-3.6ZM55.416,0H53.472V-8.4h1.32v3.156h.624q1.968,0,1.968,2.076v1.092Q57.384,0,55.416,0Zm-.624-1.2h.624a.621.621,0,0,0,.486-.18.912.912,0,0,0,.162-.612v-1.26a.912.912,0,0,0-.162-.612.621.621,0,0,0-.486-.18h-.624ZM59.46,0H58.14V-8.4h1.32Zm.84,0V-8.4h1.176v5.316l.48-1.848L63.036-8.4h1.452V0H63.3V-5.916l-.54,2.064L61.656,0Zm2.712-10.272h.8a1.309,1.309,0,0,1-.36.978,1.428,1.428,0,0,1-1.044.354A1.361,1.361,0,0,1,61.4-9.288a1.426,1.426,0,0,1-.366-.984h.816A.632.632,0,0,0,62-9.834a.613.613,0,0,0,.408.114.663.663,0,0,0,.432-.12A.6.6,0,0,0,63.012-10.272ZM3.06,8.868H4.308V9.984a2.227,2.227,0,0,1-.5,1.566A1.894,1.894,0,0,1,2.34,12.1,1.894,1.894,0,0,1,.876,11.55a2.227,2.227,0,0,1-.5-1.566V5.616a2.227,2.227,0,0,1,.5-1.566A1.894,1.894,0,0,1,2.34,3.5,1.894,1.894,0,0,1,3.8,4.05a2.227,2.227,0,0,1,.5,1.566v.816H3.06v-.9q0-.828-.684-.828t-.684.828v4.536q0,.816.684.816t.684-.816ZM4.992,12V3.6h1.32v7.2h1.5V3.6H9.156v7.224h.576v2.3H8.448V12Zm6.66-7.2V7.14h1.812v1.2H11.652V10.8h2.28V12h-3.6V3.6h3.6V4.8Zm4.3,3.6V12h-1.32V3.6h1.32V7.2h1.5V3.6h1.344V12H17.448V8.4ZM22.56,3.6,23.9,12H22.572l-.228-1.524h-1.62L20.5,12H19.284l1.344-8.4ZM21.528,5.088l-.636,4.248h1.272ZM26.34,3.6q1.968,0,1.968,2.076V6.768q0,2.076-1.968,2.076h-.624V12H24.4V3.6Zm0,1.2h-.624V7.644h.624a.621.621,0,0,0,.486-.18.912.912,0,0,0,.162-.612V5.592a.912.912,0,0,0-.162-.612A.621.621,0,0,0,26.34,4.8Zm4.92,3.348L30.156,12H28.8V3.6h1.176V8.916l.48-1.848L31.536,3.6h1.452V12H31.8V6.084ZM33.8,12V3.6H34.98V8.916l.48-1.848L36.54,3.6h1.452V12H36.8V6.084l-.54,2.064L35.16,12ZM36.516,1.728h.8a1.309,1.309,0,0,1-.36.978,1.428,1.428,0,0,1-1.044.354A1.361,1.361,0,0,1,34.9,2.712a1.426,1.426,0,0,1-.366-.984h.816a.632.632,0,0,0,.156.438.613.613,0,0,0,.408.114.663.663,0,0,0,.432-.12A.6.6,0,0,0,36.516,1.728Z" transform="translate(34.697 40.095)" fill="#a6a4a6"/><path d="M2.424-8.4q1.968,0,1.968,2.076v1.092q0,2.076-1.968,2.076H1.8V0H.48V-8.4Zm0,1.2H1.8v2.844h.624a.621.621,0,0,0,.486-.18.912.912,0,0,0,.162-.612v-1.26A.912.912,0,0,0,2.91-7.02.621.621,0,0,0,2.424-7.2Zm3.9,0v2.34H8.136v1.2H6.324V-1.2H8.6V0H5V-8.4H8.6v1.2Zm6.024-1.2L13.692,0H12.36l-.228-1.524h-1.62L10.284,0H9.072l1.344-8.4ZM11.316-6.912,10.68-2.664h1.272ZM13.932.012v-1.2a.981.981,0,0,0,.642-.15,1.073,1.073,0,0,0,.174-.714L14.964-8.4H18.7V0H17.352V-7.2H16.2l-.144,5.076a2.56,2.56,0,0,1-.48,1.644,1.855,1.855,0,0,1-1.44.492Zm8.232-3.864L21.06,0H19.7V-8.4H20.88v5.316l.48-1.848L22.44-8.4h1.452V0H22.7V-5.916Zm5.244.72h1.248v1.116a2.227,2.227,0,0,1-.5,1.566A1.894,1.894,0,0,1,26.688.1,1.894,1.894,0,0,1,25.224-.45a2.227,2.227,0,0,1-.5-1.566V-6.384a2.227,2.227,0,0,1,.5-1.566A1.894,1.894,0,0,1,26.688-8.5a1.894,1.894,0,0,1,1.464.546,2.227,2.227,0,0,1,.5,1.566v.816H27.408v-.9q0-.828-.684-.828t-.684.828v4.536q0,.816.684.816t.684-.816ZM29.076-7.2V-8.4h4.08v1.2h-1.38V0h-1.32V-7.2Zm7.116,3.348L35.088,0H33.732V-8.4h1.176v5.316l.48-1.848L36.468-8.4H37.92V0H36.732V-5.916ZM41.544-8.4h1.32V0h-1.32V-3.384a1.464,1.464,0,0,1-1.128.468A1.482,1.482,0,0,1,39.2-3.438a2.164,2.164,0,0,1-.426-1.41V-8.4h1.32v3.444a.824.824,0,0,0,.216.618.759.759,0,0,0,.552.21.612.612,0,0,0,.5-.222,1,1,0,0,0,.18-.642Zm3.612,4.8V0h-1.32V-8.4h1.32v3.6h1.5V-8.4H48V0H46.656V-3.6ZM50.9,0H48.96V-8.4h1.32v3.156H50.9q1.968,0,1.968,2.076v1.092Q52.872,0,50.9,0ZM50.28-1.2H50.9a.621.621,0,0,0,.486-.18.912.912,0,0,0,.162-.612v-1.26a.912.912,0,0,0-.162-.612.621.621,0,0,0-.486-.18H50.28ZM54.948,0h-1.32V-8.4h1.32Zm.96,0V-8.4h1.176v5.316l.48-1.848L58.644-8.4H60.1V0H58.908V-5.916l-.54,2.064L57.264,0ZM58.62-10.272h.8a1.309,1.309,0,0,1-.36.978,1.428,1.428,0,0,1-1.044.354,1.361,1.361,0,0,1-1.014-.348,1.426,1.426,0,0,1-.366-.984h.816a.632.632,0,0,0,.156.438.613.613,0,0,0,.408.114.663.663,0,0,0,.432-.12A.6.6,0,0,0,58.62-10.272ZM3.06,8.868H4.308V9.984a2.227,2.227,0,0,1-.5,1.566A1.894,1.894,0,0,1,2.34,12.1,1.894,1.894,0,0,1,.876,11.55a2.227,2.227,0,0,1-.5-1.566V5.616a2.227,2.227,0,0,1,.5-1.566A1.894,1.894,0,0,1,2.34,3.5,1.894,1.894,0,0,1,3.8,4.05a2.227,2.227,0,0,1,.5,1.566v.816H3.06v-.9q0-.828-.684-.828t-.684.828v4.536q0,.816.684.816t.684-.816ZM5.112,12V3.6h1.32v7.2h1.5V3.6H9.276v7.224h.576v2.3H8.568V12Zm6.78-7.2V7.14H13.7v1.2H11.892V10.8h2.28V12h-3.6V3.6h3.6V4.8Zm4.416,3.6V12h-1.32V3.6h1.32V7.2h1.5V3.6h1.344V12H17.808V8.4ZM23.04,3.6,24.384,12H23.052l-.228-1.524H21.2L20.976,12H19.764l1.344-8.4ZM22.008,5.088l-.636,4.248h1.272ZM26.94,3.6q1.968,0,1.968,2.076V6.768q0,2.076-1.968,2.076h-.624V12H25V3.6Zm0,1.2h-.624V7.644h.624a.621.621,0,0,0,.486-.18.912.912,0,0,0,.162-.612V5.592a.912.912,0,0,0-.162-.612A.621.621,0,0,0,26.94,4.8Zm5.04,3.348L30.876,12H29.52V3.6H30.7V8.916l.48-1.848L32.256,3.6h1.452V12H32.52V6.084ZM34.644,12V3.6H35.82V8.916l.48-1.848L37.38,3.6h1.452V12H37.644V6.084L37.1,8.148,36,12ZM37.356,1.728h.8a1.309,1.309,0,0,1-.36.978,1.428,1.428,0,0,1-1.044.354,1.361,1.361,0,0,1-1.014-.348,1.426,1.426,0,0,1-.366-.984h.816a.632.632,0,0,0,.156.438.613.613,0,0,0,.408.114.663.663,0,0,0,.432-.12A.6.6,0,0,0,37.356,1.728Z" transform="translate(106.697 40.095)" fill="#a6a4a6"/><path d="M2.3-8.4l.972,5.964.9-5.964H6.012V0H4.764V-6.024L3.852,0H2.6L1.62-5.94V0H.468V-8.4Zm7.6,0L11.244,0H9.912L9.684-1.524H8.064L7.836,0H6.624L7.968-8.4ZM8.868-6.912,8.232-2.664H9.5ZM13.188,0h-1.32V-8.4h3.48v1.2h-2.16ZM18.7-3.852,17.592,0H16.236V-8.4h1.176v5.316l.48-1.848L18.972-8.4h1.452V0H19.236V-5.916ZM22.464,0H21.12a2.731,2.731,0,0,0,.144-1.02v-1.3q0-1.416.876-1.788a1.689,1.689,0,0,1-.864-1.7v-.66a2,2,0,0,1,.468-1.458A2.02,2.02,0,0,1,23.232-8.4h1.992V0H23.9V-3.42h-.456a.811.811,0,0,0-.66.246,1.3,1.3,0,0,0-.2.822v1.32A3.426,3.426,0,0,1,22.464,0ZM23.9-7.2h-.636q-.672,0-.672.864v.828a.964.964,0,0,0,.2.684.792.792,0,0,0,.594.2H23.9ZM31.056,0,29.772-3.348l-.408.768V0h-1.32V-8.4h1.32v3.66L31.092-8.4h1.32L30.576-4.656,32.412,0Zm4.416-3.852L34.368,0H33.012V-8.4h1.176v5.316l.48-1.848L35.748-8.4H37.2V0H36.012V-5.916Zm3.984.252V0h-1.32V-8.4h1.32v3.6h1.5V-8.4H42.3V0H40.956V-3.6Zm5.016-2.868v4.536q0,.828.684.828t.684-.828V-6.468q0-.828-.684-.828T44.472-6.468Zm-1.32,4.452V-6.384a2.2,2.2,0,0,1,.516-1.56A1.938,1.938,0,0,1,45.156-8.5a1.938,1.938,0,0,1,1.488.552,2.2,2.2,0,0,1,.516,1.56v4.368a2.2,2.2,0,0,1-.516,1.56A1.938,1.938,0,0,1,45.156.1a1.938,1.938,0,0,1-1.488-.552A2.2,2.2,0,0,1,43.152-2.016Z" transform="translate(178.697 40.095)" fill="#a6a4a6"/></g></g></svg>