<svg xmlns="http://www.w3.org/2000/svg" xmlns:xlink="http://www.w3.org/1999/xlink" width="548" height="278" viewBox="0 0 548 278"><defs><filter id="a" x="0" y="0" width="548" height="278" filterUnits="userSpaceOnUse"><feOffset dx="1" dy="3" input="SourceAlpha"/><feGaussianBlur stdDeviation="3" result="b"/><feFlood flood-opacity="0.149"/><feComposite operator="in" in2="b"/><feComposite in="SourceGraphic"/></filter></defs><g transform="translate(-112 -162)"><g transform="matrix(1, 0, 0, 1, 112, 162)" filter="url(#a)"><rect width="530" height="260" rx="8" transform="translate(8 6)" fill="#fff9ea"/></g><path d="M-132.6-52.8c0,20.2-21.8,23.6-21.8,44.2V0h31.8V-10h-20.8a7.568,7.568,0,0,1-.1-1.5c0-11.5,21.9-19.7,21.9-41.7,0-11.2-5.6-17.6-16.4-17.6s-16.4,6.4-16.4,17.6v6.8H-144v-7.5c0-5,2.2-6.9,5.7-6.9S-132.6-59.1-132.6-52.8Zm27.9-1.1c0-5,2.2-6.9,5.7-6.9s5.7,1.9,5.7,6.9v37.8c0,5-2.2,6.9-5.7,6.9s-5.7-1.9-5.7-6.9Zm-11,37.1C-115.7-5.6-109.8.8-99,.8s16.7-6.4,16.7-17.6V-53.2c0-11.2-5.9-17.6-16.7-17.6s-16.7,6.4-16.7,17.6Zm47.3-36.6h8.5V0h11V-70h-7.4c-1.7,4.7-3.6,8.8-12.1,8.8Zm65.1.2c0-11.2-5.9-17.6-16.7-17.6s-16.7,6.4-16.7,17.6v12.8c0,10.3,4.1,16,12.2,16,4.9,0,8.3-2.2,10.2-6.2v12.8c0,6.7-2.2,8.6-6.1,8.6-3.5,0-5.7-1.9-5.7-6.9v-2.5H-36.5v1.8C-36.5-5.6-30.9.8-20.1.8-8.7.8-3.3-5.6-3.3-17.4ZM-20-34.4c-3.5,0-5.7-1.9-5.7-6.9V-53.9c0-5,2.2-6.8,5.7-6.8s5.7,1.8,5.7,6.8v12.6C-14.3-36.3-16.5-34.4-20-34.4Z" transform="translate(329.979 303.665)" fill="#e1dcd5" opacity="0.5"/><path d="M5.68-14H2.46L.22,0H2.24l.38-2.54h2.7L5.7,0H7.92ZM3.96-11.52,5.02-4.44H2.9ZM15.82-14h-2.3l-1,4.8L12-5.94l-.68-3.28L10.12-14H7.94L10.98-3.2l-.02.12c-.18,1.02-.82,1.22-1.94,1.14V.02c3.06.2,3.92-1.06,4.44-3.58Zm9.1,15.88V-1.96h-.96V-14H17.8L17.3-3.78a2.9,2.9,0,0,1-.54,1.82H15.9V1.88h2.14V0h4.7V1.88ZM19.86-12h1.86V-1.96H18.84a2.48,2.48,0,0,0,.62-1.86ZM29.88-6.42l.9-3.44V0h1.98V-14H30.34l-1.8,5.78-.8,3.08V-14H25.78V0h2.26ZM33.32-12h2.3V0h2.2V-12h2.3v-2h-6.8Zm9.42,1.22c0-1,.44-1.38,1.14-1.38s1.14.38,1.14,1.38v7.56c0,1-.44,1.38-1.14,1.38s-1.14-.38-1.14-1.38Zm-2.2,7.42c0,2.24,1.18,3.52,3.34,3.52s3.34-1.28,3.34-3.52v-7.28c0-2.24-1.18-3.52-3.34-3.52s-3.34,1.28-3.34,3.52ZM51.52-14H48.28V0h2.2V-5.26h1.04c2.2,0,3.28-1.22,3.28-3.46v-1.82C54.8-12.78,53.72-14,51.52-14Zm0,2c.7,0,1.08.32,1.08,1.32v2.1c0,1-.38,1.32-1.08,1.32H50.48V-12Zm8.04,5.58.9-3.44V0h1.98V-14H60.02l-1.8,5.78-.8,3.08V-14H55.46V0h2.26ZM65.48,0a4.306,4.306,0,0,0,.2-1.72v-2.2c0-1.3.44-1.78,1.44-1.78h.76V0h2.2V-14H66.76c-2.28,0-3.26,1.06-3.26,3.22v1.1a2.791,2.791,0,0,0,1.44,2.84c-1.1.46-1.46,1.52-1.46,2.98V-1.7A4.123,4.123,0,0,1,63.24,0Zm2.4-12v4.3h-.86c-.82,0-1.32-.36-1.32-1.48v-1.38c0-1,.34-1.44,1.12-1.44ZM79.08,0h2.26L78.28-7.76,81.34-14h-2.2L76.26-7.9V-14h-2.2V0h2.2V-4.3l.68-1.28Zm7-6.42.9-3.44V0h1.98V-14H86.54l-1.8,5.78-.8,3.08V-14H81.98V0h2.26ZM92.36-6h2.5V0H97.1V-14H94.86v6h-2.5v-6h-2.2V0h2.2Zm8-4.78c0-1,.44-1.38,1.14-1.38s1.14.38,1.14,1.38v7.56c0,1-.44,1.38-1.14,1.38s-1.14-.38-1.14-1.38Zm-2.2,7.42c0,2.24,1.18,3.52,3.34,3.52s3.34-1.28,3.34-3.52v-7.28c0-2.24-1.18-3.52-3.34-3.52s-3.34,1.28-3.34,3.52Zm7.1-8.64h2.3V0h2.2V-12h2.3v-2h-6.8Zm9.6,0h3.8v-2h-6V0h6V-2h-3.8V-6.1h3.02v-2h-3.02Zm9.68-2h-3.22L119.08,0h2.02l.38-2.54h2.7L124.56,0h2.22Zm-1.72,2.48,1.06,7.08h-2.12ZM126.8-12h2.3V0h2.2V-12h2.3v-2h-6.8Zm10.64-2H134.2V0h2.2V-5.26h1.04c2.2,0,3.28-1.22,3.28-3.46v-1.82C140.72-12.78,139.64-14,137.44-14Zm0,2c.7,0,1.08.32,1.08,1.32v2.1c0,1-.38,1.32-1.08,1.32H136.4V-12Zm5.96,1.22c0-1,.44-1.38,1.14-1.38s1.14.38,1.14,1.38v7.56c0,1-.44,1.38-1.14,1.38s-1.14-.38-1.14-1.38Zm-2.2,7.42c0,2.24,1.18,3.52,3.34,3.52s3.34-1.28,3.34-3.52v-7.28c0-2.24-1.18-3.52-3.34-3.52s-3.34,1.28-3.34,3.52ZM152.26-14h-3.32V0h3.46c2.2,0,3.34-1.16,3.34-3.32V-4.46c0-1.48-.46-2.54-1.64-3,.98-.46,1.42-1.38,1.42-2.82v-.5C155.52-12.94,154.54-14,152.26-14Zm-.14,7.7c1,0,1.42.4,1.42,1.7v1.22c0,1.04-.4,1.38-1.14,1.38h-1.26V-6.3Zm.08-5.7c.78,0,1.12.44,1.12,1.44v.78c0,1.12-.5,1.48-1.32,1.48h-.86V-12Zm10.56-2h-3.32V0h3.46c2.2,0,3.34-1.16,3.34-3.32V-4.46c0-1.48-.46-2.54-1.64-3,.98-.46,1.42-1.38,1.42-2.82v-.5C166.02-12.94,165.04-14,162.76-14Zm-.14,7.7c1,0,1.42.4,1.42,1.7v1.22c0,1.04-.4,1.38-1.14,1.38h-1.26V-6.3Zm.08-5.7c.78,0,1.12.44,1.12,1.44v.78c0,1.12-.5,1.48-1.32,1.48h-.86V-12Zm11.6,1.44c0,4.04-4.36,4.72-4.36,8.84V0h6.36V-2h-4.16a1.513,1.513,0,0,1-.02-.3c0-2.3,4.38-3.94,4.38-8.34,0-2.24-1.12-3.52-3.28-3.52s-3.28,1.28-3.28,3.52v1.36h2.08v-1.5c0-1,.44-1.38,1.14-1.38S174.3-11.82,174.3-10.56Zm5.22-.22c0-1,.44-1.38,1.14-1.38s1.14.38,1.14,1.38v7.56c0,1-.44,1.38-1.14,1.38s-1.14-.38-1.14-1.38Zm-2.2,7.42c0,2.24,1.18,3.52,3.34,3.52S184-1.12,184-3.36v-7.28c0-2.24-1.18-3.52-3.34-3.52s-3.34,1.28-3.34,3.52Zm9.1-7.32h1.7V0h2.2V-14h-1.48a2.179,2.179,0,0,1-2.42,1.76Zm12.8,7.32v-1.1a3.076,3.076,0,0,0-1.36-2.92,2.941,2.941,0,0,0,1.36-2.82v-.44c0-2.24-1.22-3.52-3.44-3.52s-3.44,1.28-3.44,3.52v.44a2.905,2.905,0,0,0,1.36,2.82,3.076,3.076,0,0,0-1.36,2.92v1.1c0,2.24,1.22,3.52,3.44,3.52S199.22-1.12,199.22-3.36Zm-4.68-.06v-1.3c0-1.1.46-1.58,1.24-1.58s1.24.48,1.24,1.58v1.3c-.02,1.24-.54,1.58-1.24,1.58S194.54-2.18,194.54-3.42Zm0-7.14c0-1.26.54-1.6,1.24-1.6s1.24.34,1.24,1.6v.78c0,1.12-.54,1.48-1.24,1.48-.72,0-1.24-.36-1.24-1.48ZM202.82-6h4V-8h-4Zm12.24-4.56c0,4.04-4.36,4.72-4.36,8.84V0h6.36V-2H212.9a1.513,1.513,0,0,1-.02-.3c0-2.3,4.38-3.94,4.38-8.34,0-2.24-1.12-3.52-3.28-3.52s-3.28,1.28-3.28,3.52v1.36h2.08v-1.5c0-1,.44-1.38,1.14-1.38S215.06-11.82,215.06-10.56Zm5.22-.22c0-1,.44-1.38,1.14-1.38s1.14.38,1.14,1.38v7.56c0,1-.44,1.38-1.14,1.38s-1.14-.38-1.14-1.38Zm-2.2,7.42c0,2.24,1.18,3.52,3.34,3.52s3.34-1.28,3.34-3.52v-7.28c0-2.24-1.18-3.52-3.34-3.52s-3.34,1.28-3.34,3.52Zm9.1-7.32h1.7V0h2.2V-14H229.6a2.179,2.179,0,0,1-2.42,1.76Zm12.66.04c0-2.24-1.18-3.52-3.34-3.52s-3.34,1.28-3.34,3.52v2.56c0,2.06.82,3.2,2.44,3.2a2.094,2.094,0,0,0,2.04-1.24v2.56c0,1.34-.44,1.72-1.22,1.72-.7,0-1.14-.38-1.14-1.38v-.5H233.2v.36c0,2.24,1.12,3.52,3.28,3.52,2.28,0,3.36-1.28,3.36-3.64ZM236.5-6.88c-.7,0-1.14-.38-1.14-1.38v-2.52c0-1,.44-1.36,1.14-1.36s1.14.36,1.14,1.36v2.52C237.64-7.26,237.2-6.88,236.5-6.88Z" transform="translate(129 191)" fill="#242549"/><path d="M-13.316-10.676h1.7V0h2.2V-14H-10.9a2.179,2.179,0,0,1-2.419,1.759Zm8.217-.1c0-1,.44-1.38,1.14-1.38s1.14.38,1.14,1.38v7.558c0,1-.44,1.38-1.14,1.38s-1.14-.38-1.14-1.38ZM-7.3-3.359C-7.3-1.12-6.118.16-3.959.16S-.62-1.12-.62-3.359v-7.278c0-2.239-1.18-3.519-3.339-3.519S-7.3-12.876-7.3-10.636Z" transform="translate(144.989 384.731)" fill="#242549"/><path d="M-13.316-10.676h1.7V0h2.2V-14H-10.9a2.179,2.179,0,0,1-2.419,1.759Zm6.1,6.158v1.16C-7.218-1.12-6.1.16-3.939.16S-.66-1.12-.66-3.359V-6.478c0-2.059-.82-3.2-2.439-3.2a2.1,2.1,0,0,0-1.919,1.02L-4.838-12H-1.02v-2h-5.8l-.4,8.117h2.079V-6.3c0-1,.44-1.38,1.14-1.38s1.14.38,1.14,1.38v3.079c0,1-.44,1.36-1.14,1.36s-1.14-.36-1.14-1.36v-1.3Z" transform="translate(144.989 344.947)" fill="#242549"/><path d="M-10.317-10.557c0,4.039-4.359,4.718-4.359,8.837V0h6.358V-2h-4.159a1.513,1.513,0,0,1-.02-.3c0-2.3,4.379-3.939,4.379-8.337,0-2.239-1.12-3.519-3.279-3.519s-3.279,1.28-3.279,3.519v1.36H-12.6v-1.5c0-1,.44-1.38,1.14-1.38S-10.317-11.816-10.317-10.557Zm5.218-.22c0-1,.44-1.38,1.14-1.38s1.14.38,1.14,1.38v7.558c0,1-.44,1.38-1.14,1.38s-1.14-.38-1.14-1.38ZM-7.3-3.359C-7.3-1.12-6.118.16-3.959.16S-.62-1.12-.62-3.359v-7.278c0-2.239-1.18-3.519-3.339-3.519S-7.3-12.876-7.3-10.636Z" transform="translate(144.989 305.063)" fill="#242549"/><path d="M-10.317-10.557c0,4.039-4.359,4.718-4.359,8.837V0h6.358V-2h-4.159a1.513,1.513,0,0,1-.02-.3c0-2.3,4.379-3.939,4.379-8.337,0-2.239-1.12-3.519-3.279-3.519s-3.279,1.28-3.279,3.519v1.36H-12.6v-1.5c0-1,.44-1.38,1.14-1.38S-10.317-11.816-10.317-10.557Zm3.1,6.038v1.16C-7.218-1.12-6.1.16-3.939.16S-.66-1.12-.66-3.359V-6.478c0-2.059-.82-3.2-2.439-3.2a2.1,2.1,0,0,0-1.919,1.02L-4.838-12H-1.02v-2h-5.8l-.4,8.117h2.079V-6.3c0-1,.44-1.38,1.14-1.38s1.14.38,1.14,1.38v3.079c0,1-.44,1.36-1.14,1.36s-1.14-.36-1.14-1.36v-1.3Z" transform="translate(144.989 265.18)" fill="#242549"/><path d="M-10.437-9.777c0,1.12-.5,1.48-1.32,1.48h-.86v2h.74c1,0,1.44.48,1.44,1.779v1.1c0,1.24-.44,1.579-1.14,1.579s-1.14-.38-1.14-1.38v-1.3H-14.8v1.16C-14.8-1.12-13.675.16-11.516.16s3.279-1.28,3.279-3.519v-1.1c0-1.42-.44-2.459-1.539-2.939,1.06-.44,1.539-1.38,1.539-2.879v-.36c0-2.239-1.12-3.519-3.279-3.519s-3.279,1.28-3.279,3.519v.76h2.079v-.9c0-1,.44-1.38,1.14-1.38s1.14.34,1.14,1.6Zm5.338-1c0-1,.44-1.38,1.14-1.38s1.14.38,1.14,1.38v7.558c0,1-.44,1.38-1.14,1.38s-1.14-.38-1.14-1.38ZM-7.3-3.359C-7.3-1.12-6.118.16-3.959.16S-.62-1.12-.62-3.359v-7.278c0-2.239-1.18-3.519-3.339-3.519S-7.3-12.876-7.3-10.636Z" transform="translate(144.989 225.296)" fill="#242549"/><path d="M.35-3.85h1.3a.594.594,0,0,1,.23-.49.98.98,0,0,1,.59-.16,1.386,1.386,0,0,1,.3.03.866.866,0,0,1,.24.1.749.749,0,0,1,.15.2.745.745,0,0,1,.06.31.616.616,0,0,1-.19.47,1.1,1.1,0,0,1-.66.16H1.84v.92h.63a1.149,1.149,0,0,1,.66.15.633.633,0,0,1,.21.54.766.766,0,0,1-.04.25.993.993,0,0,1-.14.27.78.78,0,0,1-.26.2,1.1,1.1,0,0,1-.43.08,1.122,1.122,0,0,1-.38-.06,1.188,1.188,0,0,1-.29-.18.636.636,0,0,1-.19-.27.767.767,0,0,1-.07-.34H.22A1.785,1.785,0,0,0,.4-.82a1.436,1.436,0,0,0,.49.57,2,2,0,0,0,.74.32,4.646,4.646,0,0,0,.95.09,3.056,3.056,0,0,0,.79-.1,1.99,1.99,0,0,0,.71-.32,1.719,1.719,0,0,0,.5-.57,1.561,1.561,0,0,0,.2-.84,1.737,1.737,0,0,0-.05-.39,1.216,1.216,0,0,0-.18-.36,1.275,1.275,0,0,0-.32-.29,1.293,1.293,0,0,0-.48-.16v-.02a1.334,1.334,0,0,0,.33-.13.973.973,0,0,0,.27-.23.938.938,0,0,0,.18-.31,1.123,1.123,0,0,0,.07-.42,1.376,1.376,0,0,0-.12-.56,1.346,1.346,0,0,0-.36-.47,1.731,1.731,0,0,0-.63-.34,3.069,3.069,0,0,0-.91-.13,4.1,4.1,0,0,0-.88.09A2.2,2.2,0,0,0,1-5.1a1.4,1.4,0,0,0-.47.5A1.728,1.728,0,0,0,.35-3.85Zm6.59-.71v-.76H5.62V2.06H7V-.66h.02a1.58,1.58,0,0,0,.31.4,1.34,1.34,0,0,0,.37.25,1.441,1.441,0,0,0,.4.13,1.81,1.81,0,0,0,.4.04A2.277,2.277,0,0,0,9.51-.05a2.132,2.132,0,0,0,.7-.6,2.645,2.645,0,0,0,.42-.93,4.341,4.341,0,0,0,.14-1.18,3.651,3.651,0,0,0-.1-.92,2.616,2.616,0,0,0-.26-.7,2.082,2.082,0,0,0-.39-.52,2.052,2.052,0,0,0-.46-.33,2.115,2.115,0,0,0-.51-.19,2.2,2.2,0,0,0-.5-.06,2.009,2.009,0,0,0-.52.06,1.472,1.472,0,0,0-.43.16,1.491,1.491,0,0,0-.34.28,2.252,2.252,0,0,0-.3.42Zm1.2.32a1.107,1.107,0,0,1,.56.14,1.3,1.3,0,0,1,.37.37,1.937,1.937,0,0,1,.2.51,2.666,2.666,0,0,1,.06.56c0,.1,0,.21-.01.33s-.04.24-.07.36a3.616,3.616,0,0,1-.13.35,1.436,1.436,0,0,1-.22.31,1.477,1.477,0,0,1-.32.21,1.152,1.152,0,0,1-.44.08A1.152,1.152,0,0,1,7.7-1.1a1.477,1.477,0,0,1-.32-.21.945.945,0,0,1-.21-.31,2.13,2.13,0,0,1-.14-.35,2.254,2.254,0,0,1-.06-.36,1.942,1.942,0,0,1-.02-.33,2.666,2.666,0,0,1,.06-.56,1.66,1.66,0,0,1,.21-.51,1.155,1.155,0,0,1,.36-.37A1.081,1.081,0,0,1,8.14-4.24Zm5.01,2.2V-5.32H11.77V0h1.51l1.88-3.21h.02V0h1.38V-5.32H15.11L13.17-2.04Zm4.27-3.28V-4.2h1.61V0h1.38V-4.2h1.61V-5.32Zm6.45,3.09h3.65a6.738,6.738,0,0,0-.13-1.33,2.661,2.661,0,0,0-.42-1.03,2.089,2.089,0,0,0-.78-.66A2.8,2.8,0,0,0,25-5.48a2.467,2.467,0,0,0-1.14.23,2.1,2.1,0,0,0-.79.61,2.352,2.352,0,0,0-.44.88,3.583,3.583,0,0,0-.15,1.04,4,4,0,0,0,.2,1.33,2.4,2.4,0,0,0,.55.89,1.977,1.977,0,0,0,.82.5,2.9,2.9,0,0,0,.99.16A2.989,2.989,0,0,0,25.8.07a2.672,2.672,0,0,0,.6-.23,1.87,1.87,0,0,0,.47-.33,2.3,2.3,0,0,0,.33-.38,2.246,2.246,0,0,0,.19-.38,1.051,1.051,0,0,0,.06-.33H26.02a.794.794,0,0,1-.13.26.952.952,0,0,1-.21.19.724.724,0,0,1-.27.12.929.929,0,0,1-.29.05,1.337,1.337,0,0,1-.48-.08.862.862,0,0,1-.34-.19.711.711,0,0,1-.23-.26,1.754,1.754,0,0,1-.13-.28.912.912,0,0,1-.05-.27A1.763,1.763,0,0,1,23.87-2.23Zm2.21-.92H23.92a1.324,1.324,0,0,1,.11-.59.917.917,0,0,1,.26-.37.94.94,0,0,1,.35-.2A1.558,1.558,0,0,1,25-4.36a1.487,1.487,0,0,1,.36.05,1.068,1.068,0,0,1,.36.2,1.162,1.162,0,0,1,.26.37A1.487,1.487,0,0,1,26.08-3.15ZM32.14-4.2V0h1.37V-5.32H29.23l-.04,2.01c-.01.47-.03.85-.06,1.15a3.711,3.711,0,0,1-.14.7.709.709,0,0,1-.21.34.4.4,0,0,1-.28.1,1.686,1.686,0,0,1-.25-.02,1.888,1.888,0,0,1-.18-.06V.06a1.48,1.48,0,0,0,.29.08c.12.01.25.02.41.02a1.468,1.468,0,0,0,.82-.21,1.578,1.578,0,0,0,.51-.64,4.2,4.2,0,0,0,.27-1.05c.05-.42.09-.91.11-1.47l.02-.99Zm4.2,2.16V-5.32H34.96V0h1.51l1.88-3.21h.02V0h1.38V-5.32H38.3L36.36-2.04Zm10.3-3.28H43.89V0h2.98a2.286,2.286,0,0,0,.76-.12,1.59,1.59,0,0,0,.58-.34,1.5,1.5,0,0,0,.37-.52,1.831,1.831,0,0,0,.12-.68,1.288,1.288,0,0,0-.21-.74,1.134,1.134,0,0,0-.61-.45A1.2,1.2,0,0,0,48.12-3a.809.809,0,0,0,.2-.21.834.834,0,0,0,.14-.3,1.243,1.243,0,0,0,.05-.41,1.41,1.41,0,0,0-.15-.69,1.208,1.208,0,0,0-.41-.43,2.252,2.252,0,0,0-.6-.22A4.08,4.08,0,0,0,46.64-5.32Zm-.31,2.09H45.27V-4.34h1.1a1.307,1.307,0,0,1,.37.04.7.7,0,0,1,.23.11.409.409,0,0,1,.13.17.538.538,0,0,1,.04.22.657.657,0,0,1-.04.25.315.315,0,0,1-.13.17.669.669,0,0,1-.24.11A2.153,2.153,0,0,1,46.33-3.23Zm0,2.25H45.27V-2.31h1.06a2.629,2.629,0,0,1,.43.03.588.588,0,0,1,.29.11.389.389,0,0,1,.16.2.819.819,0,0,1,.05.33.892.892,0,0,1-.03.22.465.465,0,0,1-.13.21.835.835,0,0,1-.28.17A1.632,1.632,0,0,1,46.33-.98Zm6.24-.41A3.345,3.345,0,0,0,52.24,0h4.85V-1.23H54a1.7,1.7,0,0,1,.33-.38c.12-.11.36-.29.71-.54l.56-.39a4.984,4.984,0,0,0,1.01-.91,2.223,2.223,0,0,0,.47-1.39,2.119,2.119,0,0,0-.67-1.65,2.476,2.476,0,0,0-1.78-.62,2.032,2.032,0,0,0-1.98,1.06,3.423,3.423,0,0,0-.33,1.46h1.35a2.351,2.351,0,0,1,.16-.87.861.861,0,0,1,.86-.48.893.893,0,0,1,.72.3,1.168,1.168,0,0,1,.25.75,1.448,1.448,0,0,1-.44,1.01,10.2,10.2,0,0,1-1.24.99A3.917,3.917,0,0,0,52.57-1.39Zm9.57-4.79a2,2,0,0,0-1.9-.95,2,2,0,0,0-1.89.95,5.457,5.457,0,0,0-.55,2.71,5.389,5.389,0,0,0,.55,2.7,2,2,0,0,0,1.89.95,2,2,0,0,0,1.9-.95,5.5,5.5,0,0,0,.55-2.7A5.569,5.569,0,0,0,62.14-6.18ZM59.42-1.61a6.754,6.754,0,0,1-.2-1.86,6.732,6.732,0,0,1,.2-1.9.8.8,0,0,1,.82-.61.788.788,0,0,1,.82.61,6.811,6.811,0,0,1,.19,1.9,6.822,6.822,0,0,1-.19,1.86.793.793,0,0,1-.82.65A.807.807,0,0,1,59.42-1.61Zm4.32-4.22v.95h1.67V0h1.42V-7.08H65.68a1,1,0,0,1-.06.28,1.24,1.24,0,0,1-.27.51,1.3,1.3,0,0,1-.68.37A6.208,6.208,0,0,1,63.74-5.83Zm5.83-.61a2.62,2.62,0,0,0-.66,1.85,2.155,2.155,0,0,0,.65,1.68,2.2,2.2,0,0,0,1.5.59,1.8,1.8,0,0,0,.96-.24,1.494,1.494,0,0,0,.41-.36,4.645,4.645,0,0,1-.19,1.22,1,1,0,0,1-.97.76.8.8,0,0,1-.57-.19.838.838,0,0,1-.26-.51H69.05a1.82,1.82,0,0,0,.73,1.37,2.3,2.3,0,0,0,1.43.48A2.286,2.286,0,0,0,73.5-1.43a6.015,6.015,0,0,0,.33-2.14,5.539,5.539,0,0,0-.34-2.14,2.21,2.21,0,0,0-2.22-1.43A2.23,2.23,0,0,0,69.57-6.44Zm2.34,2.82a1.028,1.028,0,0,1-.55.16.941.941,0,0,1-.78-.31,1.5,1.5,0,0,1-.26-.95,1.27,1.27,0,0,1,.4-1.06.972.972,0,0,1,.61-.2.922.922,0,0,1,.77.36,1.454,1.454,0,0,1,.28.95A1.155,1.155,0,0,1,71.91-3.62Zm9.28-.58V-5.32H77.61V0h1.38V-4.2Zm.54,1.54a3.389,3.389,0,0,0,.19,1.13,2.407,2.407,0,0,0,.54.9,2.609,2.609,0,0,0,.86.58,2.917,2.917,0,0,0,1.13.21A2.984,2.984,0,0,0,85.6-.05a2.466,2.466,0,0,0,.85-.58,2.7,2.7,0,0,0,.54-.9,3.39,3.39,0,0,0,.18-1.13,3.39,3.39,0,0,0-.18-1.13,2.7,2.7,0,0,0-.54-.9,2.337,2.337,0,0,0-.85-.58,2.984,2.984,0,0,0-1.15-.21,2.917,2.917,0,0,0-1.13.21,2.465,2.465,0,0,0-.86.58,2.407,2.407,0,0,0-.54.9A3.389,3.389,0,0,0,81.73-2.66Zm1.44,0a3.069,3.069,0,0,1,.07-.6,1.387,1.387,0,0,1,.22-.53,1.152,1.152,0,0,1,.39-.37,1.21,1.21,0,0,1,.6-.14,1.267,1.267,0,0,1,.62.13,1.256,1.256,0,0,1,.39.37,1.473,1.473,0,0,1,.21.53,3.078,3.078,0,0,1,.06.61,3.078,3.078,0,0,1-.06.61,1.422,1.422,0,0,1-.21.52,1.152,1.152,0,0,1-.39.37,1.264,1.264,0,0,1-.62.14,1.21,1.21,0,0,1-.6-.14,1.091,1.091,0,0,1-.39-.38,1.324,1.324,0,0,1-.22-.53A2.884,2.884,0,0,1,83.17-2.66Zm5.09,1.54h-.55v2.4h1.3V0H92.5V1.28h1.3v-2.4h-.67v-4.2H88.97v.45c0,.19,0,.4-.01.63s-.03.48-.05.73a7.537,7.537,0,0,1-.12.81,7.97,7.97,0,0,1-.2.81A4.824,4.824,0,0,1,88.26-1.12ZM90.17-4.2h1.58v3.08h-2.1a3.657,3.657,0,0,0,.21-.53q.09-.285.15-.57c.04-.2.07-.39.09-.59s.04-.38.05-.55.02-.34.02-.48ZM97.49-.09l1.83-5.23H97.84L96.75-1.4h-.02L95.59-5.32H94.04L95.99.28a.584.584,0,0,1-.04.2.629.629,0,0,1-.13.24.8.8,0,0,1-.24.2.81.81,0,0,1-.37.08A1.7,1.7,0,0,1,95,.99a1.031,1.031,0,0,1-.2-.02V2.09c.11.01.2.02.29.02a1.929,1.929,0,0,0,.25.01,3.344,3.344,0,0,0,.59-.04,1.193,1.193,0,0,0,.44-.13.961.961,0,0,0,.32-.25,1.854,1.854,0,0,0,.27-.4c.08-.17.16-.36.25-.59S97.39.22,97.49-.09Zm5.76-5.29a6.483,6.483,0,0,0-.58,2.66,7.282,7.282,0,0,0,.68,2.98,6.913,6.913,0,0,0,.72,1.28l.35.48h1.03a12.636,12.636,0,0,1-.9-1.91,8.3,8.3,0,0,1-.44-2.75,9.589,9.589,0,0,1,.16-1.76,8.127,8.127,0,0,1,.86-2.37l.29-.54h-1.05A9.9,9.9,0,0,0,103.25-5.38Zm5.96,3.92-.9-3.86h-2.08V0h1.3V-4.28h.02l1,4.28h1.26l1-4.28h.02V0h1.3V-5.32h-2.02l-.88,3.86Zm7.94-2.74V0h1.37V-5.32h-4.28l-.04,2.01c-.01.47-.03.85-.06,1.15a3.711,3.711,0,0,1-.14.7.709.709,0,0,1-.21.34.4.4,0,0,1-.28.1,1.686,1.686,0,0,1-.25-.02,1.888,1.888,0,0,1-.18-.06V.06a1.48,1.48,0,0,0,.29.08c.12.01.25.02.41.02a1.468,1.468,0,0,0,.82-.21,1.578,1.578,0,0,0,.51-.64,4.2,4.2,0,0,0,.27-1.05c.05-.42.09-.91.11-1.47l.02-.99Zm4.2.8V-5.32h-1.38V0h1.38V-2.28h2.03V0h1.38V-5.32h-1.38V-3.4Zm10.37,1.3V0h1.38V-5.32h-1.38v2.2a1.746,1.746,0,0,1-.33.15,2.073,2.073,0,0,1-.56.06,2.584,2.584,0,0,1-.42-.03.636.636,0,0,1-.29-.12.463.463,0,0,1-.17-.24.953.953,0,0,1-.06-.37V-5.32h-1.38V-3.4a1.848,1.848,0,0,0,.12.71,1.092,1.092,0,0,0,.36.48,1.679,1.679,0,0,0,.59.26,3.9,3.9,0,0,0,.81.08,2.485,2.485,0,0,0,.38-.02c.13-.01.26-.03.38-.05s.23-.05.33-.08S131.66-2.08,131.72-2.1Zm3.69-.13h3.65a6.738,6.738,0,0,0-.13-1.33,2.661,2.661,0,0,0-.42-1.03,2.089,2.089,0,0,0-.78-.66,2.8,2.8,0,0,0-1.19-.23,2.467,2.467,0,0,0-1.14.23,2.1,2.1,0,0,0-.79.61,2.352,2.352,0,0,0-.44.88,3.583,3.583,0,0,0-.15,1.04,4,4,0,0,0,.2,1.33,2.4,2.4,0,0,0,.55.89,1.977,1.977,0,0,0,.82.5,2.9,2.9,0,0,0,.99.16,2.989,2.989,0,0,0,.76-.09,2.672,2.672,0,0,0,.6-.23,1.87,1.87,0,0,0,.47-.33,2.3,2.3,0,0,0,.33-.38,2.246,2.246,0,0,0,.19-.38,1.051,1.051,0,0,0,.06-.33h-1.43a.794.794,0,0,1-.13.26.952.952,0,0,1-.21.19.724.724,0,0,1-.27.12.929.929,0,0,1-.29.05,1.337,1.337,0,0,1-.48-.08.862.862,0,0,1-.34-.19.711.711,0,0,1-.23-.26,1.754,1.754,0,0,1-.13-.28.912.912,0,0,1-.05-.27A1.765,1.765,0,0,1,135.41-2.23Zm2.21-.92h-2.16a1.324,1.324,0,0,1,.11-.59.917.917,0,0,1,.26-.37.94.94,0,0,1,.35-.2,1.558,1.558,0,0,1,.36-.05,1.487,1.487,0,0,1,.36.05,1.068,1.068,0,0,1,.36.2,1.162,1.162,0,0,1,.26.37A1.486,1.486,0,0,1,137.62-3.15Zm6.06-1.05V0h1.37V-5.32h-4.28l-.04,2.01c-.01.47-.03.85-.06,1.15a3.712,3.712,0,0,1-.14.7.709.709,0,0,1-.21.34.4.4,0,0,1-.28.1,1.686,1.686,0,0,1-.25-.02,1.889,1.889,0,0,1-.18-.06V.06a1.48,1.48,0,0,0,.29.08c.12.01.25.02.41.02a1.468,1.468,0,0,0,.82-.21,1.578,1.578,0,0,0,.51-.64,4.2,4.2,0,0,0,.27-1.05c.05-.42.09-.91.11-1.47l.02-.99Zm4.46-1.18a9.9,9.9,0,0,0-1.12-1.93h-1.05l.29.54a8.127,8.127,0,0,1,.86,2.37,9.588,9.588,0,0,1,.16,1.76,8.3,8.3,0,0,1-.44,2.75,12.636,12.636,0,0,1-.9,1.91h1.03l.35-.48a6.912,6.912,0,0,0,.72-1.28,7.282,7.282,0,0,0,.68-2.98A6.483,6.483,0,0,0,148.14-5.38Z" transform="translate(409.818 413.474)" fill="#242647"/><path d="M2.155,0H8.621a2.155,2.155,0,0,1,2.155,2.155V8.621a2.155,2.155,0,0,1-2.155,2.155H2.155A2.155,2.155,0,0,1,0,8.621V2.155A2.155,2.155,0,0,1,2.155,0Z" transform="translate(396.119 405.591)" fill="#f2a947"/><path d="M.35-3.85h1.3a.594.594,0,0,1,.23-.49.98.98,0,0,1,.59-.16,1.386,1.386,0,0,1,.3.03.866.866,0,0,1,.24.1.749.749,0,0,1,.15.2.745.745,0,0,1,.06.31.616.616,0,0,1-.19.47,1.1,1.1,0,0,1-.66.16H1.84v.92h.63a1.149,1.149,0,0,1,.66.15.633.633,0,0,1,.21.54.766.766,0,0,1-.04.25.993.993,0,0,1-.14.27.78.78,0,0,1-.26.2,1.1,1.1,0,0,1-.43.08,1.122,1.122,0,0,1-.38-.06,1.188,1.188,0,0,1-.29-.18.636.636,0,0,1-.19-.27.767.767,0,0,1-.07-.34H.22A1.785,1.785,0,0,0,.4-.82a1.436,1.436,0,0,0,.49.57,2,2,0,0,0,.74.32,4.646,4.646,0,0,0,.95.09,3.056,3.056,0,0,0,.79-.1,1.99,1.99,0,0,0,.71-.32,1.719,1.719,0,0,0,.5-.57,1.561,1.561,0,0,0,.2-.84,1.737,1.737,0,0,0-.05-.39,1.216,1.216,0,0,0-.18-.36,1.275,1.275,0,0,0-.32-.29,1.293,1.293,0,0,0-.48-.16v-.02a1.334,1.334,0,0,0,.33-.13.973.973,0,0,0,.27-.23.938.938,0,0,0,.18-.31,1.123,1.123,0,0,0,.07-.42,1.376,1.376,0,0,0-.12-.56,1.346,1.346,0,0,0-.36-.47,1.731,1.731,0,0,0-.63-.34,3.069,3.069,0,0,0-.91-.13,4.1,4.1,0,0,0-.88.09A2.2,2.2,0,0,0,1-5.1a1.4,1.4,0,0,0-.47.5A1.728,1.728,0,0,0,.35-3.85Zm6.59-.71v-.76H5.62V2.06H7V-.66h.02a1.58,1.58,0,0,0,.31.4,1.34,1.34,0,0,0,.37.25,1.441,1.441,0,0,0,.4.13,1.81,1.81,0,0,0,.4.04A2.277,2.277,0,0,0,9.51-.05a2.132,2.132,0,0,0,.7-.6,2.645,2.645,0,0,0,.42-.93,4.341,4.341,0,0,0,.14-1.18,3.651,3.651,0,0,0-.1-.92,2.616,2.616,0,0,0-.26-.7,2.082,2.082,0,0,0-.39-.52,2.052,2.052,0,0,0-.46-.33,2.115,2.115,0,0,0-.51-.19,2.2,2.2,0,0,0-.5-.06,2.009,2.009,0,0,0-.52.06,1.472,1.472,0,0,0-.43.16,1.491,1.491,0,0,0-.34.28,2.252,2.252,0,0,0-.3.42Zm1.2.32a1.107,1.107,0,0,1,.56.14,1.3,1.3,0,0,1,.37.37,1.937,1.937,0,0,1,.2.51,2.666,2.666,0,0,1,.06.56c0,.1,0,.21-.01.33s-.04.24-.07.36a3.616,3.616,0,0,1-.13.35,1.436,1.436,0,0,1-.22.31,1.477,1.477,0,0,1-.32.21,1.152,1.152,0,0,1-.44.08A1.152,1.152,0,0,1,7.7-1.1a1.477,1.477,0,0,1-.32-.21.945.945,0,0,1-.21-.31,2.13,2.13,0,0,1-.14-.35,2.254,2.254,0,0,1-.06-.36,1.942,1.942,0,0,1-.02-.33,2.666,2.666,0,0,1,.06-.56,1.66,1.66,0,0,1,.21-.51,1.155,1.155,0,0,1,.36-.37A1.081,1.081,0,0,1,8.14-4.24Zm5.01,2.2V-5.32H11.77V0h1.51l1.88-3.21h.02V0h1.38V-5.32H15.11L13.17-2.04Zm4.27-3.28V-4.2h1.61V0h1.38V-4.2h1.61V-5.32Zm6.45,3.09h3.65a6.738,6.738,0,0,0-.13-1.33,2.661,2.661,0,0,0-.42-1.03,2.089,2.089,0,0,0-.78-.66A2.8,2.8,0,0,0,25-5.48a2.467,2.467,0,0,0-1.14.23,2.1,2.1,0,0,0-.79.61,2.352,2.352,0,0,0-.44.88,3.583,3.583,0,0,0-.15,1.04,4,4,0,0,0,.2,1.33,2.4,2.4,0,0,0,.55.89,1.977,1.977,0,0,0,.82.5,2.9,2.9,0,0,0,.99.16A2.989,2.989,0,0,0,25.8.07a2.672,2.672,0,0,0,.6-.23,1.87,1.87,0,0,0,.47-.33,2.3,2.3,0,0,0,.33-.38,2.246,2.246,0,0,0,.19-.38,1.051,1.051,0,0,0,.06-.33H26.02a.794.794,0,0,1-.13.26.952.952,0,0,1-.21.19.724.724,0,0,1-.27.12.929.929,0,0,1-.29.05,1.337,1.337,0,0,1-.48-.08.862.862,0,0,1-.34-.19.711.711,0,0,1-.23-.26,1.754,1.754,0,0,1-.13-.28.912.912,0,0,1-.05-.27A1.763,1.763,0,0,1,23.87-2.23Zm2.21-.92H23.92a1.324,1.324,0,0,1,.11-.59.917.917,0,0,1,.26-.37.94.94,0,0,1,.35-.2A1.558,1.558,0,0,1,25-4.36a1.487,1.487,0,0,1,.36.05,1.068,1.068,0,0,1,.36.2,1.162,1.162,0,0,1,.26.37A1.487,1.487,0,0,1,26.08-3.15ZM32.14-4.2V0h1.37V-5.32H29.23l-.04,2.01c-.01.47-.03.85-.06,1.15a3.711,3.711,0,0,1-.14.7.709.709,0,0,1-.21.34.4.4,0,0,1-.28.1,1.686,1.686,0,0,1-.25-.02,1.888,1.888,0,0,1-.18-.06V.06a1.48,1.48,0,0,0,.29.08c.12.01.25.02.41.02a1.468,1.468,0,0,0,.82-.21,1.578,1.578,0,0,0,.51-.64,4.2,4.2,0,0,0,.27-1.05c.05-.42.09-.91.11-1.47l.02-.99Zm4.2,2.16V-5.32H34.96V0h1.51l1.88-3.21h.02V0h1.38V-5.32H38.3L36.36-2.04Zm10.3-3.28H43.89V0h2.98a2.286,2.286,0,0,0,.76-.12,1.59,1.59,0,0,0,.58-.34,1.5,1.5,0,0,0,.37-.52,1.831,1.831,0,0,0,.12-.68,1.288,1.288,0,0,0-.21-.74,1.134,1.134,0,0,0-.61-.45A1.2,1.2,0,0,0,48.12-3a.809.809,0,0,0,.2-.21.834.834,0,0,0,.14-.3,1.243,1.243,0,0,0,.05-.41,1.41,1.41,0,0,0-.15-.69,1.208,1.208,0,0,0-.41-.43,2.252,2.252,0,0,0-.6-.22A4.08,4.08,0,0,0,46.64-5.32Zm-.31,2.09H45.27V-4.34h1.1a1.307,1.307,0,0,1,.37.04.7.7,0,0,1,.23.11.409.409,0,0,1,.13.17.538.538,0,0,1,.04.22.657.657,0,0,1-.04.25.315.315,0,0,1-.13.17.669.669,0,0,1-.24.11A2.153,2.153,0,0,1,46.33-3.23Zm0,2.25H45.27V-2.31h1.06a2.629,2.629,0,0,1,.43.03.588.588,0,0,1,.29.11.389.389,0,0,1,.16.2.819.819,0,0,1,.05.33.892.892,0,0,1-.03.22.465.465,0,0,1-.13.21.835.835,0,0,1-.28.17A1.632,1.632,0,0,1,46.33-.98Zm6.24-.41A3.345,3.345,0,0,0,52.24,0h4.85V-1.23H54a1.7,1.7,0,0,1,.33-.38c.12-.11.36-.29.71-.54l.56-.39a4.984,4.984,0,0,0,1.01-.91,2.223,2.223,0,0,0,.47-1.39,2.119,2.119,0,0,0-.67-1.65,2.476,2.476,0,0,0-1.78-.62,2.032,2.032,0,0,0-1.98,1.06,3.423,3.423,0,0,0-.33,1.46h1.35a2.351,2.351,0,0,1,.16-.87.861.861,0,0,1,.86-.48.893.893,0,0,1,.72.3,1.168,1.168,0,0,1,.25.75,1.448,1.448,0,0,1-.44,1.01,10.2,10.2,0,0,1-1.24.99A3.917,3.917,0,0,0,52.57-1.39Zm9.57-4.79a2,2,0,0,0-1.9-.95,2,2,0,0,0-1.89.95,5.457,5.457,0,0,0-.55,2.71,5.389,5.389,0,0,0,.55,2.7,2,2,0,0,0,1.89.95,2,2,0,0,0,1.9-.95,5.5,5.5,0,0,0,.55-2.7A5.569,5.569,0,0,0,62.14-6.18ZM59.42-1.61a6.754,6.754,0,0,1-.2-1.86,6.732,6.732,0,0,1,.2-1.9.8.8,0,0,1,.82-.61.788.788,0,0,1,.82.61,6.811,6.811,0,0,1,.19,1.9,6.822,6.822,0,0,1-.19,1.86.793.793,0,0,1-.82.65A.807.807,0,0,1,59.42-1.61Zm4.32-4.22v.95h1.67V0h1.42V-7.08H65.68a1,1,0,0,1-.06.28,1.24,1.24,0,0,1-.27.51,1.3,1.3,0,0,1-.68.37A6.208,6.208,0,0,1,63.74-5.83Zm5.41,2.79a2.171,2.171,0,0,0-.28,1.08,2.139,2.139,0,0,0,.61,1.52,2.4,2.4,0,0,0,1.8.63,2.577,2.577,0,0,0,1.85-.63,2.03,2.03,0,0,0,.66-1.52,2.269,2.269,0,0,0-.26-1.08,2.043,2.043,0,0,0-.79-.78,1.386,1.386,0,0,0,.67-.69,2.12,2.12,0,0,0,.15-.74,1.723,1.723,0,0,0-.58-1.32,2.317,2.317,0,0,0-1.64-.54,2.3,2.3,0,0,0-1.64.54,1.723,1.723,0,0,0-.58,1.32,2.12,2.12,0,0,0,.15.74,1.706,1.706,0,0,0,.67.74A1.7,1.7,0,0,0,69.15-3.04Zm1.54-1.43a.815.815,0,0,1-.24-.63.854.854,0,0,1,.24-.66.887.887,0,0,1,.65-.23.929.929,0,0,1,.66.23.929.929,0,0,1,.23.66.887.887,0,0,1-.23.63.9.9,0,0,1-.66.25A.858.858,0,0,1,70.69-4.47Zm-.1,3.22a1.132,1.132,0,0,1-.27-.81,1.1,1.1,0,0,1,.28-.82.972.972,0,0,1,.74-.28,1.011,1.011,0,0,1,.75.28,1.142,1.142,0,0,1,.27.82,1.132,1.132,0,0,1-.27.81.951.951,0,0,1-.75.29A.951.951,0,0,1,70.59-1.25ZM81.19-4.2V-5.32H77.61V0h1.38V-4.2Zm.54,1.54a3.389,3.389,0,0,0,.19,1.13,2.407,2.407,0,0,0,.54.9,2.609,2.609,0,0,0,.86.58,2.917,2.917,0,0,0,1.13.21A2.984,2.984,0,0,0,85.6-.05a2.466,2.466,0,0,0,.85-.58,2.7,2.7,0,0,0,.54-.9,3.39,3.39,0,0,0,.18-1.13,3.39,3.39,0,0,0-.18-1.13,2.7,2.7,0,0,0-.54-.9,2.337,2.337,0,0,0-.85-.58,2.984,2.984,0,0,0-1.15-.21,2.917,2.917,0,0,0-1.13.21,2.465,2.465,0,0,0-.86.58,2.407,2.407,0,0,0-.54.9A3.389,3.389,0,0,0,81.73-2.66Zm1.44,0a3.069,3.069,0,0,1,.07-.6,1.387,1.387,0,0,1,.22-.53,1.152,1.152,0,0,1,.39-.37,1.21,1.21,0,0,1,.6-.14,1.267,1.267,0,0,1,.62.13,1.256,1.256,0,0,1,.39.37,1.473,1.473,0,0,1,.21.53,3.078,3.078,0,0,1,.06.61,3.078,3.078,0,0,1-.06.61,1.422,1.422,0,0,1-.21.52,1.152,1.152,0,0,1-.39.37,1.264,1.264,0,0,1-.62.14,1.21,1.21,0,0,1-.6-.14,1.091,1.091,0,0,1-.39-.38,1.324,1.324,0,0,1-.22-.53A2.884,2.884,0,0,1,83.17-2.66Zm5.09,1.54h-.55v2.4h1.3V0H92.5V1.28h1.3v-2.4h-.67v-4.2H88.97v.45c0,.19,0,.4-.01.63s-.03.48-.05.73a7.537,7.537,0,0,1-.12.81,7.97,7.97,0,0,1-.2.81A4.824,4.824,0,0,1,88.26-1.12ZM90.17-4.2h1.58v3.08h-2.1a3.657,3.657,0,0,0,.21-.53q.09-.285.15-.57c.04-.2.07-.39.09-.59s.04-.38.05-.55.02-.34.02-.48ZM97.49-.09l1.83-5.23H97.84L96.75-1.4h-.02L95.59-5.32H94.04L95.99.28a.584.584,0,0,1-.04.2.629.629,0,0,1-.13.24.8.8,0,0,1-.24.2.81.81,0,0,1-.37.08A1.7,1.7,0,0,1,95,.99a1.031,1.031,0,0,1-.2-.02V2.09c.11.01.2.02.29.02a1.929,1.929,0,0,0,.25.01,3.344,3.344,0,0,0,.59-.04,1.193,1.193,0,0,0,.44-.13.961.961,0,0,0,.32-.25,1.854,1.854,0,0,0,.27-.4c.08-.17.16-.36.25-.59S97.39.22,97.49-.09Zm5.76-5.29a6.483,6.483,0,0,0-.58,2.66,7.282,7.282,0,0,0,.68,2.98,6.913,6.913,0,0,0,.72,1.28l.35.48h1.03a12.636,12.636,0,0,1-.9-1.91,8.3,8.3,0,0,1-.44-2.75,9.589,9.589,0,0,1,.16-1.76,8.127,8.127,0,0,1,.86-2.37l.29-.54h-1.05A9.9,9.9,0,0,0,103.25-5.38Zm5.96,3.92-.9-3.86h-2.08V0h1.3V-4.28h.02l1,4.28h1.26l1-4.28h.02V0h1.3V-5.32h-2.02l-.88,3.86Zm7.94-2.74V0h1.37V-5.32h-4.28l-.04,2.01c-.01.47-.03.85-.06,1.15a3.711,3.711,0,0,1-.14.7.709.709,0,0,1-.21.34.4.4,0,0,1-.28.1,1.686,1.686,0,0,1-.25-.02,1.888,1.888,0,0,1-.18-.06V.06a1.48,1.48,0,0,0,.29.08c.12.01.25.02.41.02a1.468,1.468,0,0,0,.82-.21,1.578,1.578,0,0,0,.51-.64,4.2,4.2,0,0,0,.27-1.05c.05-.42.09-.91.11-1.47l.02-.99Zm4.2.8V-5.32h-1.38V0h1.38V-2.28h2.03V0h1.38V-5.32h-1.38V-3.4Zm10.37,1.3V0h1.38V-5.32h-1.38v2.2a1.746,1.746,0,0,1-.33.15,2.073,2.073,0,0,1-.56.06,2.584,2.584,0,0,1-.42-.03.636.636,0,0,1-.29-.12.463.463,0,0,1-.17-.24.953.953,0,0,1-.06-.37V-5.32h-1.38V-3.4a1.848,1.848,0,0,0,.12.71,1.092,1.092,0,0,0,.36.48,1.679,1.679,0,0,0,.59.26,3.9,3.9,0,0,0,.81.08,2.485,2.485,0,0,0,.38-.02c.13-.01.26-.03.38-.05s.23-.05.33-.08S131.66-2.08,131.72-2.1Zm3.69-.13h3.65a6.738,6.738,0,0,0-.13-1.33,2.661,2.661,0,0,0-.42-1.03,2.089,2.089,0,0,0-.78-.66,2.8,2.8,0,0,0-1.19-.23,2.467,2.467,0,0,0-1.14.23,2.1,2.1,0,0,0-.79.61,2.352,2.352,0,0,0-.44.88,3.583,3.583,0,0,0-.15,1.04,4,4,0,0,0,.2,1.33,2.4,2.4,0,0,0,.55.89,1.977,1.977,0,0,0,.82.5,2.9,2.9,0,0,0,.99.16,2.989,2.989,0,0,0,.76-.09,2.672,2.672,0,0,0,.6-.23,1.87,1.87,0,0,0,.47-.33,2.3,2.3,0,0,0,.33-.38,2.246,2.246,0,0,0,.19-.38,1.051,1.051,0,0,0,.06-.33h-1.43a.794.794,0,0,1-.13.26.952.952,0,0,1-.21.19.724.724,0,0,1-.27.12.929.929,0,0,1-.29.05,1.337,1.337,0,0,1-.48-.08.862.862,0,0,1-.34-.19.711.711,0,0,1-.23-.26,1.754,1.754,0,0,1-.13-.28.912.912,0,0,1-.05-.27A1.765,1.765,0,0,1,135.41-2.23Zm2.21-.92h-2.16a1.324,1.324,0,0,1,.11-.59.917.917,0,0,1,.26-.37.94.94,0,0,1,.35-.2,1.558,1.558,0,0,1,.36-.05,1.487,1.487,0,0,1,.36.05,1.068,1.068,0,0,1,.36.2,1.162,1.162,0,0,1,.26.37A1.486,1.486,0,0,1,137.62-3.15Zm6.06-1.05V0h1.37V-5.32h-4.28l-.04,2.01c-.01.47-.03.85-.06,1.15a3.712,3.712,0,0,1-.14.7.709.709,0,0,1-.21.34.4.4,0,0,1-.28.1,1.686,1.686,0,0,1-.25-.02,1.889,1.889,0,0,1-.18-.06V.06a1.48,1.48,0,0,0,.29.08c.12.01.25.02.41.02a1.468,1.468,0,0,0,.82-.21,1.578,1.578,0,0,0,.51-.64,4.2,4.2,0,0,0,.27-1.05c.05-.42.09-.91.11-1.47l.02-.99Zm4.46-1.18a9.9,9.9,0,0,0-1.12-1.93h-1.05l.29.54a8.127,8.127,0,0,1,.86,2.37,9.588,9.588,0,0,1,.16,1.76,8.3,8.3,0,0,1-.44,2.75,12.636,12.636,0,0,1-.9,1.91h1.03l.35-.48a6.912,6.912,0,0,0,.72-1.28,7.282,7.282,0,0,0,.68-2.98A6.483,6.483,0,0,0,148.14-5.38Z" transform="translate(219.107 413.474)" fill="#242647"/><path d="M2.155,0H8.621a2.155,2.155,0,0,1,2.155,2.155V8.621a2.155,2.155,0,0,1-2.155,2.155H2.155A2.155,2.155,0,0,1,0,8.621V2.155A2.155,2.155,0,0,1,2.155,0Z" transform="translate(205.42 405.591)" fill="#ef8f6d"/><line y2="162.804" transform="translate(593.006 221.066)" fill="none" stroke="#e1dcd5" stroke-linecap="round" stroke-width="1.501"/><path d="M0,0V162.8" transform="translate(553.019 221.066)" fill="none" stroke="#e1dcd5" stroke-linecap="round" stroke-width="1.501"/><path d="M0,0V162.8" transform="translate(513.138 221.066)" fill="none" stroke="#e1dcd5" stroke-linecap="round" stroke-width="1.501"/><path d="M0,0V162.8" transform="translate(473.181 221.066)" fill="none" stroke="#e1dcd5" stroke-linecap="round" stroke-width="1.501"/><path d="M0,0V162.8" transform="translate(433.225 221.066)" fill="none" stroke="#e1dcd5" stroke-linecap="round" stroke-width="1.501"/><path d="M0,0V162.8" transform="translate(393.269 221.066)" fill="none" stroke="#e1dcd5" stroke-linecap="round" stroke-width="1.501"/><path d="M0,0V162.8" transform="translate(353.313 221.066)" fill="none" stroke="#e1dcd5" stroke-linecap="round" stroke-width="1.501"/><path d="M0,0V162.8" transform="translate(313.357 221.066)" fill="none" stroke="#e1dcd5" stroke-linecap="round" stroke-width="1.501"/><path d="M0,0V162.8" transform="translate(273.401 221.066)" fill="none" stroke="#e1dcd5" stroke-linecap="round" stroke-width="1.501"/><path d="M0,0V162.8" transform="translate(233.445 221.066)" fill="none" stroke="#e1dcd5" stroke-linecap="round" stroke-width="1.501"/><path d="M0,0V162.8" transform="translate(193.545 221.066)" fill="none" stroke="#e1dcd5" stroke-linecap="round" stroke-width="1.501"/><path d="M0,0V162.8" transform="translate(153.558 221.066)" fill="none" stroke="#e1dcd5" stroke-linecap="round" stroke-width="1.501"/><path d="M0,0H482.291" transform="translate(150.702 383.588)" fill="none" stroke="#e1dcd5" stroke-linecap="round" stroke-width="1.501"/><path d="M0,0H482.291" transform="translate(150.702 343.802)" fill="none" stroke="#e1dcd5" stroke-linecap="round" stroke-width="1.501"/><path d="M0,0H482.291" transform="translate(150.702 303.911)" fill="none" stroke="#e1dcd5" stroke-linecap="round" stroke-width="1.501"/><path d="M0,0H482.291" transform="translate(150.702 264.019)" fill="none" stroke="#e1dcd5" stroke-linecap="round" stroke-width="1.501"/><path d="M0,0H482.291" transform="translate(150.702 224.127)" fill="none" stroke="#e1dcd5" stroke-linecap="round" stroke-width="1.501"/><path d="M-3398.689-586.342h17.739a2.857,2.857,0,0,1,2.856,2.857v141.119h-23.451V-583.485A2.856,2.856,0,0,1-3398.689-586.342Z" transform="translate(3557.959 825.196)" fill="#ef8f6d"/><path d="M-3389.669-598.413h19.542a2.857,2.857,0,0,1,2.857,2.856v153.191h-25.255V-595.557A2.856,2.856,0,0,1-3389.669-598.413Z" transform="translate(3557.959 825.224)" fill="#f2a947"/><path d="M-3358.7-495.8h17.739a2.856,2.856,0,0,1,2.856,2.856v50.583h-23.451v-50.583A2.856,2.856,0,0,1-3358.7-495.8Z" transform="translate(3557.959 825.091)" fill="#ef8f6d"/><path d="M-3349.682-489.77h19.542a2.856,2.856,0,0,1,2.856,2.857v44.547h-25.254v-44.547A2.856,2.856,0,0,1-3349.682-489.77Z" transform="translate(3557.89 825.087)" fill="#f2a947"/><path d="M-3318.715-509.889h17.739a2.856,2.856,0,0,1,2.856,2.856v64.667h-23.451v-64.667A2.856,2.856,0,0,1-3318.715-509.889Z" transform="translate(3557.865 825.101)" fill="#ef8f6d"/><path d="M-3309.7-510.895h19.542a2.856,2.856,0,0,1,2.856,2.856v65.673h-25.255v-65.673A2.857,2.857,0,0,1-3309.7-510.895Z" transform="translate(3557.858 825.102)" fill="#f2a947"/><path d="M-3278.728-464.621h17.738a2.857,2.857,0,0,1,2.857,2.856v19.4h-23.451v-19.4A2.856,2.856,0,0,1-3278.728-464.621Z" transform="translate(3557.833 825.073)" fill="#ef8f6d"/><path d="M-3269.709-473.674h19.543a2.856,2.856,0,0,1,2.856,2.856v28.452h-25.255v-28.452A2.856,2.856,0,0,1-3269.709-473.674Z" transform="translate(3557.826 825.078)" fill="#f2a947"/><path d="M-3238.741-504.859H-3221a2.856,2.856,0,0,1,2.856,2.856v59.637H-3241.6V-502A2.857,2.857,0,0,1-3238.741-504.859Z" transform="translate(3557.801 825.097)" fill="#ef8f6d"/><path d="M-3229.722-512.907h19.543a2.856,2.856,0,0,1,2.856,2.856v67.685h-25.255v-67.685A2.856,2.856,0,0,1-3229.722-512.907Z" transform="translate(3557.793 825.103)" fill="#f2a947"/><path d="M-3198.72-474.68H-3181a2.856,2.856,0,0,1,2.856,2.856v29.458h-23.427v-29.458A2.855,2.855,0,0,1-3198.72-474.68Z" transform="translate(3557.769 825.078)" fill="#ef8f6d"/><path d="M-3189.71-490.776h19.518a2.857,2.857,0,0,1,2.856,2.857v45.553h-25.23v-45.553A2.856,2.856,0,0,1-3189.71-490.776Z" transform="translate(3557.761 825.088)" fill="#f2a947"/><path d="M-3158.768-474.68h17.739a2.856,2.856,0,0,1,2.856,2.856v29.458h-23.451v-29.458A2.856,2.856,0,0,1-3158.768-474.68Z" transform="translate(3557.737 825.078)" fill="#ef8f6d"/><path d="M-3149.748-507.877h19.542a2.857,2.857,0,0,1,2.857,2.856v62.655H-3152.6v-62.655A2.856,2.856,0,0,1-3149.748-507.877Z" transform="translate(3557.729 825.099)" fill="#f2a947"/><path d="M-3118.781-461.6h17.739a2.856,2.856,0,0,1,2.856,2.856v16.381h-23.451v-16.381A2.856,2.856,0,0,1-3118.781-461.6Z" transform="translate(3557.705 825.072)" fill="#ef8f6d"/><path d="M-3109.761-491.782h19.542a2.856,2.856,0,0,1,2.856,2.857v46.559h-25.254v-46.559A2.856,2.856,0,0,1-3109.761-491.782Z" transform="translate(3557.697 825.088)" fill="#f2a947"/><path d="M-3078.794-460.6h17.739a2.856,2.856,0,0,1,2.856,2.856v15.375h-23.451v-15.375A2.856,2.856,0,0,1-3078.794-460.6Z" transform="translate(3557.673 825.071)" fill="#ef8f6d"/><path d="M-3069.774-455.567h19.542a2.856,2.856,0,0,1,2.856,2.856v10.345h-25.255v-10.345A2.857,2.857,0,0,1-3069.774-455.567Z" transform="translate(3557.665 825.069)" fill="#f2a947"/><path d="M-3038.807-501.841h17.738a2.857,2.857,0,0,1,2.857,2.856v56.619h-23.451v-56.619A2.856,2.856,0,0,1-3038.807-501.841Z" transform="translate(3557.641 825.095)" fill="#ef8f6d"/><path d="M-3029.788-530.008h19.543a2.856,2.856,0,0,1,2.856,2.856v84.786h-25.255v-84.786A2.856,2.856,0,0,1-3029.788-530.008Z" transform="translate(3557.632 825.118)" fill="#f2a947"/><path d="M-2998.82-500.835h17.738a2.856,2.856,0,0,1,2.856,2.856v55.613h-23.45v-55.613A2.856,2.856,0,0,1-2998.82-500.835Z" transform="translate(3557.552 825.094)" fill="#ef8f6d"/><path d="M-2989.8-506.871h19.543a2.856,2.856,0,0,1,2.856,2.856v61.649h-25.255v-61.649A2.856,2.856,0,0,1-2989.8-506.871Z" transform="translate(3557.552 825.099)" fill="#f2a947"/><path d="M-2958.833-520.954h17.738a2.855,2.855,0,0,1,2.856,2.856v75.732h-23.451V-518.1A2.856,2.856,0,0,1-2958.833-520.954Z" transform="translate(3557.552 825.11)" fill="#ef8f6d"/><path d="M-2949.814-523.972h19.543a2.856,2.856,0,0,1,2.856,2.856v78.75h-25.255v-78.75A2.856,2.856,0,0,1-2949.814-523.972Z" transform="translate(3557.552 825.112)" fill="#f2a947"/><path d="M-7.785-3.29h-2v1.28h2V0H-6.5V-2.01h2V-3.29h-2v-2h-1.28Zm5.13,1.4h-1.39a2.077,2.077,0,0,0,.73,1.53,2.5,2.5,0,0,0,1.66.55A2.277,2.277,0,0,0,.225-.59a2.669,2.669,0,0,0,.63-1.75,2.231,2.231,0,0,0-.65-1.72,2.248,2.248,0,0,0-1.54-.59,2.243,2.243,0,0,0-.73.11,3.1,3.1,0,0,0-.51.28l.26-1.55H.575V-6.99h-3.9l-.5,3.91,1.25.06a.916.916,0,0,1,.5-.43,1.161,1.161,0,0,1,.44-.07.9.9,0,0,1,.79.38,1.549,1.549,0,0,1,.25.91,1.5,1.5,0,0,1-.27.92.922.922,0,0,1-.79.36.862.862,0,0,1-.68-.25A1.238,1.238,0,0,1-2.655-1.89ZM4.065.19l3.95-7.27h-.74L3.315.19Zm.52-4.14a1.714,1.714,0,0,0,.53-1.28,1.714,1.714,0,0,0-.53-1.28,1.739,1.739,0,0,0-1.28-.54,1.745,1.745,0,0,0-1.29.54,1.752,1.752,0,0,0-.53,1.28,1.752,1.752,0,0,0,.53,1.28,1.745,1.745,0,0,0,1.29.54A1.723,1.723,0,0,0,4.585-3.95Zm-.73-.73a.764.764,0,0,1-.55.23.747.747,0,0,1-.55-.23.747.747,0,0,1-.23-.55.764.764,0,0,1,.23-.55.747.747,0,0,1,.55-.23.764.764,0,0,1,.55.23.754.754,0,0,1,.22.55A.739.739,0,0,1,3.855-4.68ZM9.335-.39a1.768,1.768,0,0,0,.53-1.28,1.774,1.774,0,0,0-.53-1.29,1.751,1.751,0,0,0-1.29-.53,1.714,1.714,0,0,0-1.28.53,1.72,1.72,0,0,0-.53,1.29,1.729,1.729,0,0,0,.53,1.28,1.714,1.714,0,0,0,1.28.53A1.751,1.751,0,0,0,9.335-.39ZM8.6-2.23a.732.732,0,0,1,.23.56.7.7,0,0,1-.23.54.747.747,0,0,1-.55.23.741.741,0,0,1-.54-.23.7.7,0,0,1-.23-.54.732.732,0,0,1,.23-.56.732.732,0,0,1,.54-.22A.739.739,0,0,1,8.6-2.23Z" transform="translate(173.552 224.999)" fill="#242647"/><path d="M-8.94-1.39A3.345,3.345,0,0,0-9.27,0h4.85V-1.23H-7.51a1.7,1.7,0,0,1,.33-.38c.12-.11.36-.29.71-.54l.56-.39A4.984,4.984,0,0,0-4.9-3.45a2.223,2.223,0,0,0,.47-1.39A2.119,2.119,0,0,0-5.1-6.49a2.476,2.476,0,0,0-1.78-.62A2.032,2.032,0,0,0-8.86-6.05a3.423,3.423,0,0,0-.33,1.46h1.35a2.351,2.351,0,0,1,.16-.87.861.861,0,0,1,.86-.48.893.893,0,0,1,.72.3,1.168,1.168,0,0,1,.25.75,1.448,1.448,0,0,1-.44,1.01,10.2,10.2,0,0,1-1.24.99A3.917,3.917,0,0,0-8.94-1.39Zm5.78-5.05a2.62,2.62,0,0,0-.66,1.85,2.155,2.155,0,0,0,.65,1.68,2.2,2.2,0,0,0,1.5.59,1.8,1.8,0,0,0,.96-.24A1.494,1.494,0,0,0-.3-2.92,4.645,4.645,0,0,1-.49-1.7a1,1,0,0,1-.97.76.8.8,0,0,1-.57-.19.838.838,0,0,1-.26-.51H-3.68A1.82,1.82,0,0,0-2.95-.27,2.3,2.3,0,0,0-1.52.21,2.286,2.286,0,0,0,.77-1.43,6.015,6.015,0,0,0,1.1-3.57,5.539,5.539,0,0,0,.76-5.71,2.21,2.21,0,0,0-1.46-7.14,2.23,2.23,0,0,0-3.16-6.44ZM-.82-3.62a1.028,1.028,0,0,1-.55.16.941.941,0,0,1-.78-.31,1.5,1.5,0,0,1-.26-.95,1.27,1.27,0,0,1,.4-1.06.972.972,0,0,1,.61-.2.922.922,0,0,1,.77.36,1.454,1.454,0,0,1,.28.95A1.155,1.155,0,0,1-.82-3.62ZM3.44,0V-1.46H1.96V0ZM5.67-1.89H4.28A2.077,2.077,0,0,0,5.01-.36,2.5,2.5,0,0,0,6.67.19,2.277,2.277,0,0,0,8.55-.59a2.669,2.669,0,0,0,.63-1.75,2.231,2.231,0,0,0-.65-1.72,2.248,2.248,0,0,0-1.54-.59,2.243,2.243,0,0,0-.73.11,3.1,3.1,0,0,0-.51.28l.26-1.55H8.9V-6.99H5L4.5-3.08l1.25.06a.916.916,0,0,1,.5-.43,1.161,1.161,0,0,1,.44-.07.9.9,0,0,1,.79.38,1.549,1.549,0,0,1,.25.91,1.5,1.5,0,0,1-.27.92.922.922,0,0,1-.79.36.862.862,0,0,1-.68-.25A1.238,1.238,0,0,1,5.67-1.89Z" transform="translate(178.061 236.614)" fill="#fff9ea"/><path d="M-4.565-2.83V0h1.45V-7.18h-3c-.2,0-.39,0-.59.01a2.88,2.88,0,0,0-.59.06,2.636,2.636,0,0,0-.55.15,1.628,1.628,0,0,0-.49.29,2.755,2.755,0,0,0-.29.3,1.833,1.833,0,0,0-.23.38,2.226,2.226,0,0,0-.16.43,2.626,2.626,0,0,0-.05.49,1.776,1.776,0,0,0,.14.74,1.649,1.649,0,0,0,.37.58,1.133,1.133,0,0,0,.35.26,1.514,1.514,0,0,0,.3.13,1.68,1.68,0,0,0-.52.25,1,1,0,0,0-.3.35,1.267,1.267,0,0,0-.16.45,4.266,4.266,0,0,0-.09.57l-.07.68-.04.37c-.01.09-.03.18-.04.25s-.05.14-.07.21l-.12.23h1.56c.01-.04.03-.08.04-.13a.655.655,0,0,0,.05-.18,1.333,1.333,0,0,0,.05-.26,3.378,3.378,0,0,0,.04-.39l.05-.68a1.653,1.653,0,0,1,.17-.69.847.847,0,0,1,.34-.36,1.219,1.219,0,0,1,.49-.12,6.018,6.018,0,0,1,.62-.02Zm-1.81-3.09h1.81v1.91H-6.5l-.28-.03a1.612,1.612,0,0,1-.29-.09.626.626,0,0,1-.25-.16.692.692,0,0,1-.17-.26.907.907,0,0,1-.07-.39,1.25,1.25,0,0,1,.05-.36.809.809,0,0,1,.15-.26.769.769,0,0,1,.18-.18,1.24,1.24,0,0,1,.2-.1.9.9,0,0,1,.19-.04l.23-.03A1.148,1.148,0,0,0-6.375-5.92Zm6,2.52V-5.32h-1.38V0h1.38V-2.28h2.03V0h1.38V-5.32H1.655V-3.4Zm7.52-1.92H4.395V0h2.98a2.286,2.286,0,0,0,.76-.12,1.59,1.59,0,0,0,.58-.34,1.5,1.5,0,0,0,.37-.52,1.831,1.831,0,0,0,.12-.68,1.288,1.288,0,0,0-.21-.74,1.134,1.134,0,0,0-.61-.45A1.2,1.2,0,0,0,8.625-3a.809.809,0,0,0,.2-.21.834.834,0,0,0,.14-.3,1.243,1.243,0,0,0,.05-.41,1.41,1.41,0,0,0-.15-.69,1.207,1.207,0,0,0-.41-.43,2.252,2.252,0,0,0-.6-.22A4.08,4.08,0,0,0,7.145-5.32Zm-.31,2.09H5.775V-4.34h1.1a1.307,1.307,0,0,1,.37.04.7.7,0,0,1,.23.11.409.409,0,0,1,.13.17.538.538,0,0,1,.04.22.657.657,0,0,1-.04.25.315.315,0,0,1-.13.17.669.669,0,0,1-.24.11A2.153,2.153,0,0,1,6.835-3.23Zm0,2.25H5.775V-2.31h1.06a2.629,2.629,0,0,1,.43.03.588.588,0,0,1,.29.11.389.389,0,0,1,.16.2.819.819,0,0,1,.05.33.892.892,0,0,1-.03.22.465.465,0,0,1-.13.21.835.835,0,0,1-.28.17A1.632,1.632,0,0,1,6.835-.98Z" transform="translate(173.551 396.76)" fill="#242647"/><path d="M-6.48-.78V0h1.44V-.78a4.416,4.416,0,0,0,1.31-.26,3.253,3.253,0,0,0,.99-.59,2.7,2.7,0,0,0,.63-.87,2.655,2.655,0,0,0,.22-1.09,3.089,3.089,0,0,0-.06-.58,2.487,2.487,0,0,0-.2-.62,2.641,2.641,0,0,0-.37-.59,2.584,2.584,0,0,0-.58-.5,3.72,3.72,0,0,0-.83-.37A4.514,4.514,0,0,0-5.04-6.4v-.78H-6.48v.78a4.43,4.43,0,0,0-1.1.15,3.351,3.351,0,0,0-.83.37,2.437,2.437,0,0,0-.59.5,2.641,2.641,0,0,0-.37.59,2.487,2.487,0,0,0-.2.62,3.089,3.089,0,0,0-.06.58A2.655,2.655,0,0,0-9.41-2.5a2.7,2.7,0,0,0,.63.87,3.188,3.188,0,0,0,1,.59A4.286,4.286,0,0,0-6.48-.78Zm0-4.58v3.54a2.086,2.086,0,0,1-.59-.1,1.569,1.569,0,0,1-.56-.32,1.577,1.577,0,0,1-.4-.56,1.938,1.938,0,0,1-.16-.84,1.959,1.959,0,0,1,.07-.58,1.487,1.487,0,0,1,.27-.55,1.5,1.5,0,0,1,.53-.41A2.01,2.01,0,0,1-6.48-5.36Zm1.44,3.53V-5.36a2.01,2.01,0,0,1,.84.18,1.554,1.554,0,0,1,.52.41,1.552,1.552,0,0,1,.28.54,2.357,2.357,0,0,1,.07.58,2.137,2.137,0,0,1-.15.84,1.731,1.731,0,0,1-.41.56,1.618,1.618,0,0,1-.55.32A2.214,2.214,0,0,1-5.04-1.83Zm5.1-.4H3.71a6.738,6.738,0,0,0-.13-1.33,2.661,2.661,0,0,0-.42-1.03,2.089,2.089,0,0,0-.78-.66,2.8,2.8,0,0,0-1.19-.23,2.467,2.467,0,0,0-1.14.23,2.1,2.1,0,0,0-.79.61,2.352,2.352,0,0,0-.44.88,3.583,3.583,0,0,0-.15,1.04,4,4,0,0,0,.2,1.33A2.4,2.4,0,0,0-.58-.5,1.977,1.977,0,0,0,.24,0a2.9,2.9,0,0,0,.99.16A2.989,2.989,0,0,0,1.99.07a2.672,2.672,0,0,0,.6-.23,1.87,1.87,0,0,0,.47-.33,2.3,2.3,0,0,0,.33-.38,2.246,2.246,0,0,0,.19-.38,1.051,1.051,0,0,0,.06-.33H2.21a.794.794,0,0,1-.13.26.952.952,0,0,1-.21.19.724.724,0,0,1-.27.12.929.929,0,0,1-.29.05,1.337,1.337,0,0,1-.48-.08.862.862,0,0,1-.34-.19.711.711,0,0,1-.23-.26,1.754,1.754,0,0,1-.13-.28.912.912,0,0,1-.05-.27A1.763,1.763,0,0,1,.06-2.23Zm2.21-.92H.11a1.324,1.324,0,0,1,.11-.59.917.917,0,0,1,.26-.37.94.94,0,0,1,.35-.2,1.558,1.558,0,0,1,.36-.05,1.487,1.487,0,0,1,.36.05,1.068,1.068,0,0,1,.36.2,1.162,1.162,0,0,1,.26.37A1.487,1.487,0,0,1,2.27-3.15ZM7.42-5.32H4.67V0H7.65a2.286,2.286,0,0,0,.76-.12,1.59,1.59,0,0,0,.58-.34,1.5,1.5,0,0,0,.37-.52,1.831,1.831,0,0,0,.12-.68,1.288,1.288,0,0,0-.21-.74,1.134,1.134,0,0,0-.61-.45A1.2,1.2,0,0,0,8.9-3a.809.809,0,0,0,.2-.21.834.834,0,0,0,.14-.3,1.243,1.243,0,0,0,.05-.41,1.41,1.41,0,0,0-.15-.69,1.207,1.207,0,0,0-.41-.43,2.252,2.252,0,0,0-.6-.22A4.08,4.08,0,0,0,7.42-5.32ZM7.11-3.23H6.05V-4.34h1.1a1.307,1.307,0,0,1,.37.04.7.7,0,0,1,.23.11.409.409,0,0,1,.13.17.538.538,0,0,1,.04.22.657.657,0,0,1-.04.25.315.315,0,0,1-.13.17.669.669,0,0,1-.24.11A2.153,2.153,0,0,1,7.11-3.23Zm0,2.25H6.05V-2.31H7.11a2.629,2.629,0,0,1,.43.03.588.588,0,0,1,.29.11.389.389,0,0,1,.16.2.819.819,0,0,1,.05.33.892.892,0,0,1-.03.22.465.465,0,0,1-.13.21.835.835,0,0,1-.28.17A1.632,1.632,0,0,1,7.11-.98Z" transform="translate(213.538 396.76)" fill="#242647"/><path d="M-8.35-1.59-9.61-7.18H-11.8V0h1.38V-6h.02l1.31,6h1.46l1.36-6h.02V0h1.38V-7.18h-2.2L-8.33-1.59Zm9.14.54V-3.87a2.239,2.239,0,0,0-.08-.57,1.275,1.275,0,0,0-.33-.52,2.041,2.041,0,0,0-.69-.38,4.126,4.126,0,0,0-1.16-.14,3.424,3.424,0,0,0-.86.12,2.158,2.158,0,0,0-.61.28,1.541,1.541,0,0,0-.41.39,1.976,1.976,0,0,0-.24.41,1.813,1.813,0,0,0-.12.38,1.8,1.8,0,0,0-.03.27h1.38l.06-.29a.651.651,0,0,1,.15-.23.689.689,0,0,1,.27-.16,1.663,1.663,0,0,1,.44-.05,1.624,1.624,0,0,1,.41.04.636.636,0,0,1,.26.13A.45.45,0,0,1-.63-4a.86.86,0,0,1,.04.24.477.477,0,0,1-.05.22.345.345,0,0,1-.12.12.329.329,0,0,1-.16.07,1.1,1.1,0,0,1-.16.03l-1.35.2a1.679,1.679,0,0,0-.61.19,1.6,1.6,0,0,0-.46.35,1.59,1.59,0,0,0-.29.49,1.736,1.736,0,0,0-.1.61,1.919,1.919,0,0,0,.12.71,1.469,1.469,0,0,0,.34.52,1.6,1.6,0,0,0,.52.31,1.987,1.987,0,0,0,.66.1A2.644,2.644,0,0,0-1.65.1a1.754,1.754,0,0,0,.44-.17A2.164,2.164,0,0,0-.86-.31l.31-.31A1,1,0,0,0-.5-.25L-.42,0H1.11V-.22A.273.273,0,0,1,.99-.28a.316.316,0,0,1-.1-.14A.624.624,0,0,1,.82-.66,2.057,2.057,0,0,1,.79-1.05ZM-.59-2.6v.54a1.535,1.535,0,0,1-.07.46.849.849,0,0,1-.18.34.829.829,0,0,1-.24.22,1.739,1.739,0,0,1-.27.14,1.579,1.579,0,0,1-.26.06,1.909,1.909,0,0,1-.2.02.863.863,0,0,1-.28-.04A.549.549,0,0,1-2.3-.98a.56.56,0,0,1-.16-.21.836.836,0,0,1-.05-.29.829.829,0,0,1,.06-.34.69.69,0,0,1,.18-.24,1.051,1.051,0,0,1,.3-.15,3.262,3.262,0,0,1,.42-.1l.37-.07a1.254,1.254,0,0,0,.34-.1A1.424,1.424,0,0,0-.59-2.6ZM3.33-4.56v-.76H2.01V2.06H3.39V-.66h.02a1.58,1.58,0,0,0,.31.4,1.34,1.34,0,0,0,.37.25,1.441,1.441,0,0,0,.4.13,1.81,1.81,0,0,0,.4.04A2.277,2.277,0,0,0,5.9-.05a2.132,2.132,0,0,0,.7-.6,2.645,2.645,0,0,0,.42-.93,4.341,4.341,0,0,0,.14-1.18,3.651,3.651,0,0,0-.1-.92,2.616,2.616,0,0,0-.26-.7,2.082,2.082,0,0,0-.39-.52,2.052,2.052,0,0,0-.46-.33,2.115,2.115,0,0,0-.51-.19,2.2,2.2,0,0,0-.5-.06,2.009,2.009,0,0,0-.52.06,1.472,1.472,0,0,0-.43.16,1.491,1.491,0,0,0-.34.28,2.252,2.252,0,0,0-.3.42Zm1.2.32a1.107,1.107,0,0,1,.56.14,1.3,1.3,0,0,1,.37.37,1.937,1.937,0,0,1,.2.51,2.666,2.666,0,0,1,.06.56c0,.1,0,.21-.01.33s-.04.24-.07.36a3.616,3.616,0,0,1-.13.35,1.436,1.436,0,0,1-.22.31,1.477,1.477,0,0,1-.32.21,1.152,1.152,0,0,1-.44.08,1.152,1.152,0,0,1-.44-.08,1.477,1.477,0,0,1-.32-.21.945.945,0,0,1-.21-.31,2.13,2.13,0,0,1-.14-.35,2.254,2.254,0,0,1-.06-.36,1.942,1.942,0,0,1-.02-.33,2.666,2.666,0,0,1,.06-.56,1.66,1.66,0,0,1,.21-.51,1.155,1.155,0,0,1,.36-.37A1.081,1.081,0,0,1,4.53-4.24ZM7.7-5.32V-4.2H9.31V0h1.38V-4.2H12.3V-5.32Z" transform="translate(253.427 396.76)" fill="#242647"/><path d="M-2.7,0-5.24-7.18H-6.95L-9.52,0h1.58l.5-1.48h2.65L-4.33,0ZM-6.1-5.56l.89,2.84H-7.04l.92-2.84ZM2.95,0V-5.32H-1.84V0H-.46V-4.2H1.57V0Zm2.6-4.56v-.76H4.23V2.06H5.61V-.66h.02a1.58,1.58,0,0,0,.31.4,1.34,1.34,0,0,0,.37.25,1.441,1.441,0,0,0,.4.13,1.81,1.81,0,0,0,.4.04A2.277,2.277,0,0,0,8.12-.05a2.132,2.132,0,0,0,.7-.6,2.645,2.645,0,0,0,.42-.93,4.341,4.341,0,0,0,.14-1.18,3.651,3.651,0,0,0-.1-.92,2.616,2.616,0,0,0-.26-.7,2.082,2.082,0,0,0-.39-.52,2.052,2.052,0,0,0-.46-.33,2.115,2.115,0,0,0-.51-.19,2.2,2.2,0,0,0-.5-.06,2.009,2.009,0,0,0-.52.06,1.472,1.472,0,0,0-.43.16,1.491,1.491,0,0,0-.34.28,2.252,2.252,0,0,0-.3.42Zm1.2.32a1.107,1.107,0,0,1,.56.14,1.3,1.3,0,0,1,.37.37,1.937,1.937,0,0,1,.2.51,2.666,2.666,0,0,1,.06.56c0,.1,0,.21-.01.33s-.04.24-.07.36a3.616,3.616,0,0,1-.13.35,1.436,1.436,0,0,1-.22.31,1.477,1.477,0,0,1-.32.21,1.152,1.152,0,0,1-.44.08,1.152,1.152,0,0,1-.44-.08,1.477,1.477,0,0,1-.32-.21.945.945,0,0,1-.21-.31,2.13,2.13,0,0,1-.14-.35,2.254,2.254,0,0,1-.06-.36,1.942,1.942,0,0,1-.02-.33,2.666,2.666,0,0,1,.06-.56,1.66,1.66,0,0,1,.21-.51,1.155,1.155,0,0,1,.36-.37A1.081,1.081,0,0,1,6.75-4.24Z" transform="translate(293.382 396.76)" fill="#242647"/><path d="M-5.85-1.59-7.11-7.18H-9.3V0h1.38V-6h.02l1.31,6h1.46l1.36-6h.02V0h1.38V-7.18h-2.2L-5.83-1.59Zm9.14.54V-3.87a2.239,2.239,0,0,0-.08-.57,1.275,1.275,0,0,0-.33-.52,2.041,2.041,0,0,0-.69-.38,4.126,4.126,0,0,0-1.16-.14,3.424,3.424,0,0,0-.86.12,2.158,2.158,0,0,0-.61.28,1.541,1.541,0,0,0-.41.39,1.976,1.976,0,0,0-.24.41,1.813,1.813,0,0,0-.12.38,1.8,1.8,0,0,0-.03.27H.14L.2-3.92a.651.651,0,0,1,.15-.23.689.689,0,0,1,.27-.16,1.663,1.663,0,0,1,.44-.05,1.624,1.624,0,0,1,.41.04.636.636,0,0,1,.26.13A.45.45,0,0,1,1.87-4a.86.86,0,0,1,.04.24.477.477,0,0,1-.05.22.345.345,0,0,1-.12.12.329.329,0,0,1-.16.07,1.1,1.1,0,0,1-.16.03l-1.35.2a1.679,1.679,0,0,0-.61.19A1.6,1.6,0,0,0-1-2.58a1.59,1.59,0,0,0-.29.49,1.736,1.736,0,0,0-.1.61,1.919,1.919,0,0,0,.12.71,1.469,1.469,0,0,0,.34.52A1.6,1.6,0,0,0-.41.06a1.987,1.987,0,0,0,.66.1A2.644,2.644,0,0,0,.85.1a1.754,1.754,0,0,0,.44-.17,2.164,2.164,0,0,0,.35-.24l.31-.31A1,1,0,0,0,2-.25L2.08,0H3.61V-.22a.273.273,0,0,1-.12-.06.316.316,0,0,1-.1-.14.624.624,0,0,1-.07-.24A2.057,2.057,0,0,1,3.29-1.05ZM1.91-2.6v.54a1.535,1.535,0,0,1-.07.46.849.849,0,0,1-.18.34.829.829,0,0,1-.24.22,1.739,1.739,0,0,1-.27.14,1.579,1.579,0,0,1-.26.06,1.909,1.909,0,0,1-.2.02A.863.863,0,0,1,.41-.86.549.549,0,0,1,.2-.98a.56.56,0,0,1-.16-.21.836.836,0,0,1-.05-.29.829.829,0,0,1,.06-.34.69.69,0,0,1,.18-.24,1.051,1.051,0,0,1,.3-.15,3.262,3.262,0,0,1,.42-.1l.37-.07a1.254,1.254,0,0,0,.34-.1A1.424,1.424,0,0,0,1.91-2.6ZM8.62-7.55h-1a.882.882,0,0,1-.02.29.433.433,0,0,1-.11.2.5.5,0,0,1-.21.13,1.133,1.133,0,0,1-.34.04,1,1,0,0,1-.33-.05.552.552,0,0,1-.21-.14.512.512,0,0,1-.1-.21,2.024,2.024,0,0,1-.04-.26h-1a1.615,1.615,0,0,0,.13.66,1.012,1.012,0,0,0,.35.44,1.46,1.46,0,0,0,.53.26,2.8,2.8,0,0,0,.67.08,2.8,2.8,0,0,0,.67-.08,1.46,1.46,0,0,0,.53-.26,1.089,1.089,0,0,0,.35-.44A1.615,1.615,0,0,0,8.62-7.55ZM5.93-2.04V-5.32H4.55V0H6.06L7.94-3.21h.02V0H9.34V-5.32H7.89L5.95-2.04Z" transform="translate(333.337 396.76)" fill="#242647"/><path d="M-11.58-2.29V-7.18h-1.44V0h1.52l2.84-4.86h.02V0H-7.2V-7.18H-8.72l-2.84,4.89Zm7.12-.94V-5.32H-5.84V0h1.38V-2.19h.92a3.105,3.105,0,0,0,.29,1.11,2.122,2.122,0,0,0,.55.72,2.1,2.1,0,0,0,.77.4,3.336,3.336,0,0,0,.91.12A2.77,2.77,0,0,0-.17.04,2.027,2.027,0,0,0,.49-.28,1.95,1.95,0,0,0,.97-.75a3.083,3.083,0,0,0,.33-.59A3.565,3.565,0,0,0,1.48-2a3.793,3.793,0,0,0,.06-.67,3.9,3.9,0,0,0-.15-1.1,2.431,2.431,0,0,0-.46-.89,2.088,2.088,0,0,0-.8-.6,2.745,2.745,0,0,0-1.15-.22,3.224,3.224,0,0,0-.91.13,2.211,2.211,0,0,0-.76.4,2.157,2.157,0,0,0-.54.71,3.157,3.157,0,0,0-.31,1.01ZM.1-2.66a3.34,3.34,0,0,1-.06.65,1.6,1.6,0,0,1-.19.52,1.03,1.03,0,0,1-.35.34.98.98,0,0,1-.52.13.957.957,0,0,1-.52-.13.975.975,0,0,1-.36-.34,1.878,1.878,0,0,1-.2-.52,3.34,3.34,0,0,1-.06-.65,3.34,3.34,0,0,1,.06-.65,1.878,1.878,0,0,1,.2-.52,1.063,1.063,0,0,1,.36-.34.957.957,0,0,1,.52-.13.98.98,0,0,1,.52.13,1.132,1.132,0,0,1,.35.34,1.6,1.6,0,0,1,.19.52A3.34,3.34,0,0,1,.1-2.66ZM3.87-3.4V-5.32H2.49V0H3.87V-2.28H5.9V0H7.28V-5.32H5.9V-3.4Zm6.1-.07V-5.32H8.59V0h2.94c.06,0,.16,0,.28-.01a2.176,2.176,0,0,0,.4-.08,2.142,2.142,0,0,0,.44-.16,1.347,1.347,0,0,0,.41-.31,1.408,1.408,0,0,0,.3-.48,2,2,0,0,0,.11-.69,2.05,2.05,0,0,0-.14-.78,1.3,1.3,0,0,0-.41-.54,1.882,1.882,0,0,0-.65-.32,3.461,3.461,0,0,0-.89-.1Zm1.17,2.43H9.97V-2.43h1.05a2.376,2.376,0,0,1,.39.03,1.007,1.007,0,0,1,.32.11.5.5,0,0,1,.22.21.648.648,0,0,1,.08.35.627.627,0,0,1-.08.35.578.578,0,0,1-.2.21.771.771,0,0,1-.29.1A1.733,1.733,0,0,1,11.14-1.04Z" transform="translate(373.292 396.76)" fill="#242647"/><path d="M-11.785-2.29V-7.18h-1.44V0h1.52l2.84-4.86h.02V0H-7.4V-7.18h-1.52l-2.84,4.89Zm7.12-.94V-5.32h-1.38V0h1.38V-2.19h.92a3.105,3.105,0,0,0,.29,1.11,2.122,2.122,0,0,0,.55.72,2.1,2.1,0,0,0,.77.4,3.336,3.336,0,0,0,.91.12A2.77,2.77,0,0,0-.375.04a2.027,2.027,0,0,0,.66-.32,1.95,1.95,0,0,0,.48-.47,3.083,3.083,0,0,0,.33-.59A3.565,3.565,0,0,0,1.275-2a3.793,3.793,0,0,0,.06-.67,3.9,3.9,0,0,0-.15-1.1,2.431,2.431,0,0,0-.46-.89,2.088,2.088,0,0,0-.8-.6,2.745,2.745,0,0,0-1.15-.22,3.224,3.224,0,0,0-.91.13,2.211,2.211,0,0,0-.76.4,2.157,2.157,0,0,0-.54.71,3.157,3.157,0,0,0-.31,1.01Zm4.56.57a3.34,3.34,0,0,1-.06.65,1.6,1.6,0,0,1-.19.52,1.03,1.03,0,0,1-.35.34.98.98,0,0,1-.52.13.957.957,0,0,1-.52-.13.975.975,0,0,1-.36-.34,1.878,1.878,0,0,1-.2-.52,3.34,3.34,0,0,1-.06-.65,3.34,3.34,0,0,1,.06-.65,1.878,1.878,0,0,1,.2-.52,1.063,1.063,0,0,1,.36-.34.957.957,0,0,1,.52-.13.98.98,0,0,1,.52.13,1.132,1.132,0,0,1,.35.34,1.6,1.6,0,0,1,.19.52A3.34,3.34,0,0,1-.1-2.66ZM5.985-4.2V0h1.37V-5.32H3.075l-.04,2.01c-.01.47-.03.85-.06,1.15a3.711,3.711,0,0,1-.14.7.709.709,0,0,1-.21.34.4.4,0,0,1-.28.1,1.686,1.686,0,0,1-.25-.02,1.888,1.888,0,0,1-.18-.06V.06A1.48,1.48,0,0,0,2.2.14c.12.01.25.02.41.02a1.468,1.468,0,0,0,.82-.21,1.578,1.578,0,0,0,.51-.64,4.2,4.2,0,0,0,.27-1.05c.05-.42.09-.91.11-1.47l.02-.99Zm4.19.73V-5.32H8.8V0h2.94c.06,0,.16,0,.28-.01a2.176,2.176,0,0,0,.4-.08,2.142,2.142,0,0,0,.44-.16,1.347,1.347,0,0,0,.41-.31,1.408,1.408,0,0,0,.3-.48,2,2,0,0,0,.11-.69,2.05,2.05,0,0,0-.14-.78,1.3,1.3,0,0,0-.41-.54,1.882,1.882,0,0,0-.65-.32,3.461,3.461,0,0,0-.89-.1Zm1.17,2.43h-1.17V-2.43h1.05a2.376,2.376,0,0,1,.39.03,1.007,1.007,0,0,1,.32.11.5.5,0,0,1,.22.21.648.648,0,0,1,.08.35.627.627,0,0,1-.08.35.578.578,0,0,1-.2.21.771.771,0,0,1-.29.1A1.733,1.733,0,0,1,11.345-1.04Z" transform="translate(413.246 396.76)" fill="#242647"/><path d="M-1.79,0-4.33-7.18H-6.04L-8.61,0h1.58l.5-1.48h2.65L-3.42,0Zm-3.4-5.56.89,2.84H-6.13l.92-2.84Zm7.05.24H-.89V0H2.09a2.286,2.286,0,0,0,.76-.12,1.59,1.59,0,0,0,.58-.34A1.5,1.5,0,0,0,3.8-.98a1.831,1.831,0,0,0,.12-.68,1.288,1.288,0,0,0-.21-.74,1.134,1.134,0,0,0-.61-.45A1.2,1.2,0,0,0,3.34-3a.809.809,0,0,0,.2-.21.834.834,0,0,0,.14-.3,1.243,1.243,0,0,0,.05-.41,1.41,1.41,0,0,0-.15-.69,1.207,1.207,0,0,0-.41-.43,2.252,2.252,0,0,0-.6-.22A4.08,4.08,0,0,0,1.86-5.32ZM1.55-3.23H.49V-4.34h1.1a1.307,1.307,0,0,1,.37.04.7.7,0,0,1,.23.11.409.409,0,0,1,.13.17.538.538,0,0,1,.04.22.657.657,0,0,1-.04.25.315.315,0,0,1-.13.17.669.669,0,0,1-.24.11A2.153,2.153,0,0,1,1.55-3.23Zm0,2.25H.49V-2.31H1.55a2.629,2.629,0,0,1,.43.03.588.588,0,0,1,.29.11.389.389,0,0,1,.16.2.819.819,0,0,1,.05.33.892.892,0,0,1-.03.22.465.465,0,0,1-.13.21.835.835,0,0,1-.28.17A1.632,1.632,0,0,1,1.55-.98ZM8.61-4.2V-5.32H5.03V0H6.41V-4.2Z" transform="translate(453.202 396.76)" fill="#242647"/><path d="M-4.175-5.06l.07.24h1.5a2.706,2.706,0,0,0-.09-.52,3.682,3.682,0,0,0-.23-.56,3.126,3.126,0,0,0-.4-.54,2.484,2.484,0,0,0-.58-.47,3.432,3.432,0,0,0-.8-.33,4.072,4.072,0,0,0-1.04-.12,3.724,3.724,0,0,0-.81.09,3.343,3.343,0,0,0-.76.3,2.725,2.725,0,0,0-.67.5,3.016,3.016,0,0,0-.54.72,3.748,3.748,0,0,0-.35.96,4.96,4.96,0,0,0-.13,1.2,5,5,0,0,0,.22,1.55,3.444,3.444,0,0,0,.64,1.2A2.809,2.809,0,0,0-7.1-.09a3.526,3.526,0,0,0,1.42.27A3.485,3.485,0,0,0-4.6.02a2.762,2.762,0,0,0,.91-.49A2.923,2.923,0,0,0-3-1.29a3.585,3.585,0,0,0,.4-1.17h-1.49a3.939,3.939,0,0,1-.14.4,1.342,1.342,0,0,1-.26.44,1.511,1.511,0,0,1-.48.36,1.859,1.859,0,0,1-.77.14,1.572,1.572,0,0,1-.73-.17,1.515,1.515,0,0,1-.56-.48,2.337,2.337,0,0,1-.35-.78A4.128,4.128,0,0,1-7.5-3.59a4.185,4.185,0,0,1,.09-.93,2.4,2.4,0,0,1,.25-.67,1.536,1.536,0,0,1,.33-.44,2.284,2.284,0,0,1,.39-.27,2.14,2.14,0,0,1,.38-.13,2,2,0,0,1,.32-.03,2.287,2.287,0,0,1,.56.06,1.745,1.745,0,0,1,.41.17,1.4,1.4,0,0,1,.29.23,2.223,2.223,0,0,1,.19.27A2.046,2.046,0,0,1-4.175-5.06Zm3.6,2.83h3.65a6.738,6.738,0,0,0-.13-1.33,2.661,2.661,0,0,0-.42-1.03,2.089,2.089,0,0,0-.78-.66,2.8,2.8,0,0,0-1.19-.23,2.467,2.467,0,0,0-1.14.23,2.1,2.1,0,0,0-.79.61,2.352,2.352,0,0,0-.44.88,3.583,3.583,0,0,0-.15,1.04,4,4,0,0,0,.2,1.33,2.4,2.4,0,0,0,.55.89,1.977,1.977,0,0,0,.82.5A2.9,2.9,0,0,0,.6.16a2.989,2.989,0,0,0,.76-.09,2.672,2.672,0,0,0,.6-.23,1.87,1.87,0,0,0,.47-.33,2.3,2.3,0,0,0,.33-.38,2.246,2.246,0,0,0,.19-.38,1.051,1.051,0,0,0,.06-.33H1.575a.794.794,0,0,1-.13.26.952.952,0,0,1-.21.19.724.724,0,0,1-.27.12.929.929,0,0,1-.29.05A1.337,1.337,0,0,1,.2-1.04a.862.862,0,0,1-.34-.19.711.711,0,0,1-.23-.26A1.754,1.754,0,0,1-.5-1.77a.912.912,0,0,1-.05-.27A1.763,1.763,0,0,1-.575-2.23Zm2.21-.92H-.525a1.324,1.324,0,0,1,.11-.59.917.917,0,0,1,.26-.37.94.94,0,0,1,.35-.2,1.558,1.558,0,0,1,.36-.05,1.487,1.487,0,0,1,.36.05,1.068,1.068,0,0,1,.36.2,1.162,1.162,0,0,1,.26.37A1.487,1.487,0,0,1,1.635-3.15Zm3.74-.25V-5.32H3.995V0h1.38V-2.28h2.03V0h1.38V-5.32H7.405V-3.4Z" transform="translate(493.157 396.76)" fill="#242647"/><path d="M-9.005-3.59A5.111,5.111,0,0,0-8.8-2.1a3.476,3.476,0,0,0,.65,1.2,3,3,0,0,0,1.08.79,3.731,3.731,0,0,0,1.51.29,3.527,3.527,0,0,0,1.44-.29A3.321,3.321,0,0,0-3.025-.9a3.712,3.712,0,0,0,.68-1.2A4.52,4.52,0,0,0-2.1-3.59a4.477,4.477,0,0,0-.24-1.49,3.712,3.712,0,0,0-.68-1.2,3.184,3.184,0,0,0-1.09-.79,3.527,3.527,0,0,0-1.44-.29,3.731,3.731,0,0,0-1.51.29,2.886,2.886,0,0,0-1.08.79,3.476,3.476,0,0,0-.65,1.2A5.062,5.062,0,0,0-9.005-3.59Zm3.45,2.47a1.8,1.8,0,0,1-.82-.18,1.9,1.9,0,0,1-.61-.52,2.184,2.184,0,0,1-.38-.78,3.119,3.119,0,0,1-.14-.99,3.119,3.119,0,0,1,.14-.99,2.184,2.184,0,0,1,.38-.78,1.755,1.755,0,0,1,.61-.51,1.683,1.683,0,0,1,.82-.19,1.683,1.683,0,0,1,.82.19,1.788,1.788,0,0,1,.62.51,2.577,2.577,0,0,1,.38.78,3.438,3.438,0,0,1,.13.99,3.438,3.438,0,0,1-.13.99,2.577,2.577,0,0,1-.38.78,1.937,1.937,0,0,1-.62.52A1.8,1.8,0,0,1-5.555-1.12ZM.415-3.3V-5.32H-.965V0H.415V-1.68l.56-.57L2.535,0h1.8L2.045-3.11l2.2-2.21H2.405Zm4.23-2.02V-4.2h1.61V0h1.38V-4.2h1.61V-5.32Z" transform="translate(533.112 396.76)" fill="#242647"/><path d="M-7.525-4.45V-7.18h-1.5V0h1.5V-3.21H-4.7V0h1.5V-7.18H-4.7v2.73Zm5.36,1.79a3.389,3.389,0,0,0,.19,1.13,2.407,2.407,0,0,0,.54.9,2.609,2.609,0,0,0,.86.58A2.917,2.917,0,0,0,.555.16,2.984,2.984,0,0,0,1.7-.05a2.467,2.467,0,0,0,.85-.58,2.7,2.7,0,0,0,.54-.9,3.39,3.39,0,0,0,.18-1.13,3.39,3.39,0,0,0-.18-1.13,2.7,2.7,0,0,0-.54-.9,2.337,2.337,0,0,0-.85-.58,2.984,2.984,0,0,0-1.15-.21,2.917,2.917,0,0,0-1.13.21,2.465,2.465,0,0,0-.86.58,2.407,2.407,0,0,0-.54.9A3.389,3.389,0,0,0-2.165-2.66Zm1.44,0a3.069,3.069,0,0,1,.07-.6,1.387,1.387,0,0,1,.22-.53,1.152,1.152,0,0,1,.39-.37,1.21,1.21,0,0,1,.6-.14,1.267,1.267,0,0,1,.62.13,1.256,1.256,0,0,1,.39.37,1.472,1.472,0,0,1,.21.53,3.078,3.078,0,0,1,.06.61,3.078,3.078,0,0,1-.06.61,1.422,1.422,0,0,1-.21.52,1.152,1.152,0,0,1-.39.37,1.264,1.264,0,0,1-.62.14,1.21,1.21,0,0,1-.6-.14,1.091,1.091,0,0,1-.39-.38,1.324,1.324,0,0,1-.22-.53A2.885,2.885,0,0,1-.725-2.66Zm8.41.7V0h1.39V-5.32H5.965c-.1.01-.21.01-.33.03a2.2,2.2,0,0,0-.37.07,1.21,1.21,0,0,0-.35.13,1.54,1.54,0,0,0-.28.19,1.161,1.161,0,0,0-.24.29,1.212,1.212,0,0,0-.18.38,1.964,1.964,0,0,0-.07.51.864.864,0,0,0,.01.15,1.366,1.366,0,0,0,.02.19l.06.2a.538.538,0,0,0,.1.2,1.545,1.545,0,0,0,.19.24.951.951,0,0,0,.2.15.582.582,0,0,0,.19.1l.16.06a1.887,1.887,0,0,0-.37.15.577.577,0,0,0-.21.2.731.731,0,0,0-.11.27,1.787,1.787,0,0,0-.06.37l-.07.64a1.5,1.5,0,0,0-.02.2L4.2-.41a1.176,1.176,0,0,1-.07.2,1,1,0,0,1-.1.21h1.46a1.557,1.557,0,0,0,.1-.37l.02-.29.02-.51a1.5,1.5,0,0,1,.08-.43.611.611,0,0,1,.21-.24,1.038,1.038,0,0,1,.35-.1c.14-.01.31-.02.51-.02ZM6.575-4.28h1.11v1.34H6.535c-.11,0-.22,0-.33-.01a.735.735,0,0,1-.3-.07.532.532,0,0,1-.22-.2.667.667,0,0,1-.09-.38.7.7,0,0,1,.09-.39A.447.447,0,0,1,5.9-4.2a.833.833,0,0,1,.32-.07C6.335-4.28,6.455-4.28,6.575-4.28Z" transform="translate(573.013 396.76)" fill="#242647"/><text transform="translate(613 396.76)" fill="#242647" font-size="10" font-family="Helvetica-Bold, Helvetica" font-weight="700" style="isolation:isolate"><tspan x="-9.52" y="0"></tspan></text><path d="M-5.86-2.13V-3.45h-2.8v1.32Zm1.95.24H-5.3A2.077,2.077,0,0,0-4.57-.36,2.5,2.5,0,0,0-2.91.19,2.277,2.277,0,0,0-1.03-.59,2.669,2.669,0,0,0-.4-2.34a2.231,2.231,0,0,0-.65-1.72,2.248,2.248,0,0,0-1.54-.59,2.243,2.243,0,0,0-.73.11,3.1,3.1,0,0,0-.51.28l.26-1.55H-.68V-6.99h-3.9l-.5,3.91,1.25.06a.916.916,0,0,1,.5-.43,1.161,1.161,0,0,1,.44-.07.9.9,0,0,1,.79.38,1.549,1.549,0,0,1,.25.91,1.5,1.5,0,0,1-.27.92.922.922,0,0,1-.79.36.862.862,0,0,1-.68-.25A1.238,1.238,0,0,1-3.91-1.89ZM2.81.19,6.76-7.08H6.02L2.06.19Zm.52-4.14a1.714,1.714,0,0,0,.53-1.28,1.714,1.714,0,0,0-.53-1.28,1.739,1.739,0,0,0-1.28-.54,1.745,1.745,0,0,0-1.29.54A1.752,1.752,0,0,0,.23-5.23,1.752,1.752,0,0,0,.76-3.95a1.745,1.745,0,0,0,1.29.54A1.723,1.723,0,0,0,3.33-3.95ZM2.6-4.68a.764.764,0,0,1-.55.23.747.747,0,0,1-.55-.23.747.747,0,0,1-.23-.55.764.764,0,0,1,.23-.55.747.747,0,0,1,.55-.23.764.764,0,0,1,.55.23.754.754,0,0,1,.22.55A.739.739,0,0,1,2.6-4.68ZM8.08-.39a1.768,1.768,0,0,0,.53-1.28,1.774,1.774,0,0,0-.53-1.29,1.751,1.751,0,0,0-1.29-.53,1.714,1.714,0,0,0-1.28.53,1.72,1.72,0,0,0-.53,1.29A1.729,1.729,0,0,0,5.51-.39,1.714,1.714,0,0,0,6.79.14,1.751,1.751,0,0,0,8.08-.39ZM7.34-2.23a.732.732,0,0,1,.23.56.7.7,0,0,1-.23.54.747.747,0,0,1-.55.23.741.741,0,0,1-.54-.23.7.7,0,0,1-.23-.54.732.732,0,0,1,.23-.56.732.732,0,0,1,.54-.22A.739.739,0,0,1,7.34-2.23Z" transform="translate(213.538 327.494)" fill="#242647"/><path d="M-7.785-3.29h-2v1.28h2V0H-6.5V-2.01h2V-3.29h-2v-2h-1.28Zm4.44-3.15A2.62,2.62,0,0,0-4-4.59a2.155,2.155,0,0,0,.65,1.68,2.2,2.2,0,0,0,1.5.59,1.8,1.8,0,0,0,.96-.24,1.494,1.494,0,0,0,.41-.36A4.645,4.645,0,0,1-.675-1.7a1,1,0,0,1-.97.76.8.8,0,0,1-.57-.19.838.838,0,0,1-.26-.51h-1.39a1.82,1.82,0,0,0,.73,1.37A2.3,2.3,0,0,0-1.7.21,2.286,2.286,0,0,0,.585-1.43a6.015,6.015,0,0,0,.33-2.14,5.539,5.539,0,0,0-.34-2.14,2.21,2.21,0,0,0-2.22-1.43A2.23,2.23,0,0,0-3.345-6.44ZM-1-3.62a1.028,1.028,0,0,1-.55.16.941.941,0,0,1-.78-.31,1.5,1.5,0,0,1-.26-.95,1.27,1.27,0,0,1,.4-1.06.972.972,0,0,1,.61-.2.922.922,0,0,1,.77.36,1.454,1.454,0,0,1,.28.95A1.155,1.155,0,0,1-1-3.62ZM4.065.19l3.95-7.27h-.74L3.315.19Zm.52-4.14a1.714,1.714,0,0,0,.53-1.28,1.714,1.714,0,0,0-.53-1.28,1.739,1.739,0,0,0-1.28-.54,1.745,1.745,0,0,0-1.29.54,1.752,1.752,0,0,0-.53,1.28,1.752,1.752,0,0,0,.53,1.28,1.745,1.745,0,0,0,1.29.54A1.723,1.723,0,0,0,4.585-3.95Zm-.73-.73a.764.764,0,0,1-.55.23.747.747,0,0,1-.55-.23.747.747,0,0,1-.23-.55.764.764,0,0,1,.23-.55.747.747,0,0,1,.55-.23.764.764,0,0,1,.55.23.754.754,0,0,1,.22.55A.739.739,0,0,1,3.855-4.68ZM9.335-.39a1.768,1.768,0,0,0,.53-1.28,1.774,1.774,0,0,0-.53-1.29,1.751,1.751,0,0,0-1.29-.53,1.714,1.714,0,0,0-1.28.53,1.72,1.72,0,0,0-.53,1.29,1.729,1.729,0,0,0,.53,1.28,1.714,1.714,0,0,0,1.28.53A1.751,1.751,0,0,0,9.335-.39ZM8.6-2.23a.732.732,0,0,1,.23.56.7.7,0,0,1-.23.54.747.747,0,0,1-.55.23.741.741,0,0,1-.54-.23.7.7,0,0,1-.23-.54.732.732,0,0,1,.23-.56.732.732,0,0,1,.54-.22A.739.739,0,0,1,8.6-2.23Z" transform="translate(293.382 349.571)" fill="#242647"/><path d="M-7.785-3.29h-2v1.28h2V0H-6.5V-2.01h2V-3.29h-2v-2h-1.28ZM.345-6.18a2,2,0,0,0-1.9-.95,2,2,0,0,0-1.89.95,5.457,5.457,0,0,0-.55,2.71,5.389,5.389,0,0,0,.55,2.7,2,2,0,0,0,1.89.95,2,2,0,0,0,1.9-.95A5.5,5.5,0,0,0,.9-3.47,5.569,5.569,0,0,0,.345-6.18Zm-2.72,4.57a6.754,6.754,0,0,1-.2-1.86,6.732,6.732,0,0,1,.2-1.9.8.8,0,0,1,.82-.61.788.788,0,0,1,.82.61,6.811,6.811,0,0,1,.19,1.9,6.823,6.823,0,0,1-.19,1.86.793.793,0,0,1-.82.65A.807.807,0,0,1-2.375-1.61ZM4.065.19l3.95-7.27h-.74L3.315.19Zm.52-4.14a1.714,1.714,0,0,0,.53-1.28,1.714,1.714,0,0,0-.53-1.28,1.739,1.739,0,0,0-1.28-.54,1.745,1.745,0,0,0-1.29.54,1.752,1.752,0,0,0-.53,1.28,1.752,1.752,0,0,0,.53,1.28,1.745,1.745,0,0,0,1.29.54A1.723,1.723,0,0,0,4.585-3.95Zm-.73-.73a.764.764,0,0,1-.55.23.747.747,0,0,1-.55-.23.747.747,0,0,1-.23-.55.764.764,0,0,1,.23-.55.747.747,0,0,1,.55-.23.764.764,0,0,1,.55.23.754.754,0,0,1,.22.55A.739.739,0,0,1,3.855-4.68ZM9.335-.39a1.768,1.768,0,0,0,.53-1.28,1.774,1.774,0,0,0-.53-1.29,1.751,1.751,0,0,0-1.29-.53,1.714,1.714,0,0,0-1.28.53,1.72,1.72,0,0,0-.53,1.29,1.729,1.729,0,0,0,.53,1.28,1.714,1.714,0,0,0,1.28.53A1.751,1.751,0,0,0,9.335-.39ZM8.6-2.23a.732.732,0,0,1,.23.56.7.7,0,0,1-.23.54.747.747,0,0,1-.55.23.741.741,0,0,1-.54-.23.7.7,0,0,1-.23-.54.732.732,0,0,1,.23-.56.732.732,0,0,1,.54-.22A.739.739,0,0,1,8.6-2.23Z" transform="translate(253.427 312.443)" fill="#242647"/><path d="M-7.785-3.29h-2v1.28h2V0H-6.5V-2.01h2V-3.29h-2v-2h-1.28ZM-.635-5.3H.745a1.907,1.907,0,0,0-.66-1.35,2.347,2.347,0,0,0-1.57-.5,2.13,2.13,0,0,0-1.17.31,2.444,2.444,0,0,0-.8.83,4.077,4.077,0,0,0-.47,1.5,11.39,11.39,0,0,0-.07,1.32,4.557,4.557,0,0,0,.5,2.26A2.109,2.109,0,0,0-1.525.19,2.182,2.182,0,0,0,.305-.57a2.732,2.732,0,0,0,.6-1.75A2.326,2.326,0,0,0,.3-3.96a2.028,2.028,0,0,0-1.54-.63,1.875,1.875,0,0,0-.78.14,1.539,1.539,0,0,0-.61.45,4.8,4.8,0,0,1,.22-1.24,1,1,0,0,1,.97-.77.791.791,0,0,1,.68.34A.752.752,0,0,1-.635-5.3Zm-1.65,3.99a1.358,1.358,0,0,1-.31-.93,1.236,1.236,0,0,1,.41-1.03,1,1,0,0,1,.63-.21.966.966,0,0,1,.74.33,1.354,1.354,0,0,1,.3.95,1.415,1.415,0,0,1-.26.9.852.852,0,0,1-.73.35A.967.967,0,0,1-2.285-1.31ZM4.065.19l3.95-7.27h-.74L3.315.19Zm.52-4.14a1.714,1.714,0,0,0,.53-1.28,1.714,1.714,0,0,0-.53-1.28,1.739,1.739,0,0,0-1.28-.54,1.745,1.745,0,0,0-1.29.54,1.752,1.752,0,0,0-.53,1.28,1.752,1.752,0,0,0,.53,1.28,1.745,1.745,0,0,0,1.29.54A1.723,1.723,0,0,0,4.585-3.95Zm-.73-.73a.764.764,0,0,1-.55.23.747.747,0,0,1-.55-.23.747.747,0,0,1-.23-.55.764.764,0,0,1,.23-.55.747.747,0,0,1,.55-.23.764.764,0,0,1,.55.23.754.754,0,0,1,.22.55A.739.739,0,0,1,3.855-4.68ZM9.335-.39a1.768,1.768,0,0,0,.53-1.28,1.774,1.774,0,0,0-.53-1.29,1.751,1.751,0,0,0-1.29-.53,1.714,1.714,0,0,0-1.28.53,1.72,1.72,0,0,0-.53,1.29,1.729,1.729,0,0,0,.53,1.28,1.714,1.714,0,0,0,1.28.53A1.751,1.751,0,0,0,9.335-.39ZM8.6-2.23a.732.732,0,0,1,.23.56.7.7,0,0,1-.23.54.747.747,0,0,1-.55.23.741.741,0,0,1-.54-.23.7.7,0,0,1-.23-.54.732.732,0,0,1,.23-.56.732.732,0,0,1,.54-.22A.739.739,0,0,1,8.6-2.23Z" transform="translate(333.336 310.435)" fill="#242647"/><path d="M-10.565-3.29h-2v1.28h2V0h1.28V-2.01h2V-3.29h-2v-2h-1.28Zm4.17-2.54v.95h1.67V0H-3.3V-7.08h-1.15a1,1,0,0,1-.06.28,1.24,1.24,0,0,1-.27.51,1.3,1.3,0,0,1-.68.37A6.208,6.208,0,0,1-6.395-5.83ZM.125-1.89h-1.39A2.077,2.077,0,0,0-.535-.36a2.5,2.5,0,0,0,1.66.55,2.277,2.277,0,0,0,1.88-.78,2.669,2.669,0,0,0,.63-1.75,2.231,2.231,0,0,0-.65-1.72,2.248,2.248,0,0,0-1.54-.59,2.243,2.243,0,0,0-.73.11,3.1,3.1,0,0,0-.51.28l.26-1.55h2.89V-6.99h-3.9l-.5,3.91,1.25.06a.916.916,0,0,1,.5-.43,1.161,1.161,0,0,1,.44-.07.9.9,0,0,1,.79.38,1.549,1.549,0,0,1,.25.91,1.5,1.5,0,0,1-.27.92.922.922,0,0,1-.79.36.862.862,0,0,1-.68-.25A1.238,1.238,0,0,1,.125-1.89ZM6.845.19,10.8-7.08h-.74L6.1.19Zm.52-4.14a1.714,1.714,0,0,0,.53-1.28,1.714,1.714,0,0,0-.53-1.28,1.739,1.739,0,0,0-1.28-.54,1.745,1.745,0,0,0-1.29.54,1.752,1.752,0,0,0-.53,1.28A1.752,1.752,0,0,0,4.8-3.95a1.745,1.745,0,0,0,1.29.54A1.723,1.723,0,0,0,7.365-3.95Zm-.73-.73a.764.764,0,0,1-.55.23.747.747,0,0,1-.55-.23.747.747,0,0,1-.23-.55.764.764,0,0,1,.23-.55.747.747,0,0,1,.55-.23.764.764,0,0,1,.55.23.754.754,0,0,1,.22.55A.739.739,0,0,1,6.635-4.68Zm5.48,4.29a1.768,1.768,0,0,0,.53-1.28,1.774,1.774,0,0,0-.53-1.29,1.751,1.751,0,0,0-1.29-.53,1.714,1.714,0,0,0-1.28.53,1.72,1.72,0,0,0-.53,1.29,1.729,1.729,0,0,0,.53,1.28,1.714,1.714,0,0,0,1.28.53A1.751,1.751,0,0,0,12.115-.39Zm-.74-1.84a.732.732,0,0,1,.23.56.7.7,0,0,1-.23.54.747.747,0,0,1-.55.23.741.741,0,0,1-.54-.23.7.7,0,0,1-.23-.54.732.732,0,0,1,.23-.56.732.732,0,0,1,.54-.22A.739.739,0,0,1,11.375-2.23Z" transform="translate(373.292 332.512)" fill="#242647"/><path d="M-10.565-3.29h-2v1.28h2V0h1.28V-2.01h2V-3.29h-2v-2h-1.28Zm5.11,1.12h-1.37a2.889,2.889,0,0,0,.35,1.36,2.216,2.216,0,0,0,2.09.99,2.347,2.347,0,0,0,1.84-.69,2.214,2.214,0,0,0,.62-1.57,1.706,1.706,0,0,0-.53-1.35A1,1,0,0,0-3-3.76a1.246,1.246,0,0,0,.49-.37,1.532,1.532,0,0,0,.37-1.05,1.733,1.733,0,0,0-.62-1.41A2.444,2.444,0,0,0-4.4-7.11a2.717,2.717,0,0,0-.92.13,1.829,1.829,0,0,0-.65.38,2.082,2.082,0,0,0-.54.77,3.548,3.548,0,0,0-.18,1h1.3a1.348,1.348,0,0,1,.22-.84.852.852,0,0,1,.73-.31.9.9,0,0,1,.67.25.964.964,0,0,1,.23.66A.816.816,0,0,1-4-4.24a2.562,2.562,0,0,1-.95.13v1a2.79,2.79,0,0,1,1.01.13.914.914,0,0,1,.57.93,1.049,1.049,0,0,1-.3.81,1.038,1.038,0,0,1-.72.28.94.94,0,0,1-.92-.51A1.482,1.482,0,0,1-5.455-2.17Zm9.2-3.73V-6.99h-5l-.02,1.25h3.53A9.754,9.754,0,0,0,.975-3.96,8.491,8.491,0,0,0-.275,0h1.45a6.506,6.506,0,0,1,.23-1.56,10.4,10.4,0,0,1,.54-1.61,9.124,9.124,0,0,1,.93-1.63A9.708,9.708,0,0,1,3.745-5.9ZM6.845.19,10.8-7.08h-.74L6.1.19Zm.52-4.14a1.714,1.714,0,0,0,.53-1.28,1.714,1.714,0,0,0-.53-1.28,1.739,1.739,0,0,0-1.28-.54,1.745,1.745,0,0,0-1.29.54,1.752,1.752,0,0,0-.53,1.28A1.752,1.752,0,0,0,4.8-3.95a1.745,1.745,0,0,0,1.29.54A1.723,1.723,0,0,0,7.365-3.95Zm-.73-.73a.764.764,0,0,1-.55.23.747.747,0,0,1-.55-.23.747.747,0,0,1-.23-.55.764.764,0,0,1,.23-.55.747.747,0,0,1,.55-.23.764.764,0,0,1,.55.23.754.754,0,0,1,.22.55A.739.739,0,0,1,6.635-4.68Zm5.48,4.29a1.768,1.768,0,0,0,.53-1.28,1.774,1.774,0,0,0-.53-1.29,1.751,1.751,0,0,0-1.29-.53,1.714,1.714,0,0,0-1.28.53,1.72,1.72,0,0,0-.53,1.29,1.729,1.729,0,0,0,.53,1.28,1.714,1.714,0,0,0,1.28.53A1.751,1.751,0,0,0,12.115-.39Zm-.74-1.84a.732.732,0,0,1,.23.56.7.7,0,0,1-.23.54.747.747,0,0,1-.55.23.741.741,0,0,1-.54-.23.7.7,0,0,1-.23-.54.732.732,0,0,1,.23-.56.732.732,0,0,1,.54-.22A.739.739,0,0,1,11.375-2.23Z" transform="translate(413.247 315.62)" fill="#242647"/><path d="M-10.565-3.29h-2v1.28h2V0h1.28V-2.01h2V-3.29h-2v-2h-1.28Zm5.11,1.12h-1.37a2.889,2.889,0,0,0,.35,1.36,2.216,2.216,0,0,0,2.09.99,2.347,2.347,0,0,0,1.84-.69,2.214,2.214,0,0,0,.62-1.57,1.706,1.706,0,0,0-.53-1.35A1,1,0,0,0-3-3.76a1.246,1.246,0,0,0,.49-.37,1.532,1.532,0,0,0,.37-1.05,1.733,1.733,0,0,0-.62-1.41A2.444,2.444,0,0,0-4.4-7.11a2.717,2.717,0,0,0-.92.13,1.829,1.829,0,0,0-.65.38,2.082,2.082,0,0,0-.54.77,3.548,3.548,0,0,0-.18,1h1.3a1.348,1.348,0,0,1,.22-.84.852.852,0,0,1,.73-.31.9.9,0,0,1,.67.25.964.964,0,0,1,.23.66A.816.816,0,0,1-4-4.24a2.562,2.562,0,0,1-.95.13v1a2.79,2.79,0,0,1,1.01.13.914.914,0,0,1,.57.93,1.049,1.049,0,0,1-.3.81,1.038,1.038,0,0,1-.72.28.94.94,0,0,1-.92-.51A1.482,1.482,0,0,1-5.455-2.17Zm8.58-4.01a2,2,0,0,0-1.9-.95,2,2,0,0,0-1.89.95,5.457,5.457,0,0,0-.55,2.71,5.389,5.389,0,0,0,.55,2.7,2,2,0,0,0,1.89.95,2,2,0,0,0,1.9-.95,5.5,5.5,0,0,0,.55-2.7A5.569,5.569,0,0,0,3.125-6.18ZM.405-1.61a6.754,6.754,0,0,1-.2-1.86,6.732,6.732,0,0,1,.2-1.9.8.8,0,0,1,.82-.61.788.788,0,0,1,.82.61,6.811,6.811,0,0,1,.19,1.9,6.823,6.823,0,0,1-.19,1.86.793.793,0,0,1-.82.65A.807.807,0,0,1,.405-1.61ZM6.845.19,10.8-7.08h-.74L6.1.19Zm.52-4.14a1.714,1.714,0,0,0,.53-1.28,1.714,1.714,0,0,0-.53-1.28,1.739,1.739,0,0,0-1.28-.54,1.745,1.745,0,0,0-1.29.54,1.752,1.752,0,0,0-.53,1.28A1.752,1.752,0,0,0,4.8-3.95a1.745,1.745,0,0,0,1.29.54A1.723,1.723,0,0,0,7.365-3.95Zm-.73-.73a.764.764,0,0,1-.55.23.747.747,0,0,1-.55-.23.747.747,0,0,1-.23-.55.764.764,0,0,1,.23-.55.747.747,0,0,1,.55-.23.764.764,0,0,1,.55.23.754.754,0,0,1,.22.55A.739.739,0,0,1,6.635-4.68Zm5.48,4.29a1.768,1.768,0,0,0,.53-1.28,1.774,1.774,0,0,0-.53-1.29,1.751,1.751,0,0,0-1.29-.53,1.714,1.714,0,0,0-1.28.53,1.72,1.72,0,0,0-.53,1.29,1.729,1.729,0,0,0,.53,1.28,1.714,1.714,0,0,0,1.28.53A1.751,1.751,0,0,0,12.115-.39Zm-.74-1.84a.732.732,0,0,1,.23.56.7.7,0,0,1-.23.54.747.747,0,0,1-.55.23.741.741,0,0,1-.54-.23.7.7,0,0,1-.23-.54.732.732,0,0,1,.23-.56.732.732,0,0,1,.54-.22A.739.739,0,0,1,11.375-2.23Z" transform="translate(453.201 331.509)" fill="#242647"/><path d="M-5.86-2.13V-3.45h-2.8v1.32ZM-1.89-5.3H-.51a1.907,1.907,0,0,0-.66-1.35,2.347,2.347,0,0,0-1.57-.5,2.13,2.13,0,0,0-1.17.31,2.444,2.444,0,0,0-.8.83,4.077,4.077,0,0,0-.47,1.5,11.39,11.39,0,0,0-.07,1.32,4.557,4.557,0,0,0,.5,2.26A2.109,2.109,0,0,0-2.78.19,2.182,2.182,0,0,0-.95-.57a2.732,2.732,0,0,0,.6-1.75A2.326,2.326,0,0,0-.96-3.96,2.028,2.028,0,0,0-2.5-4.59a1.875,1.875,0,0,0-.78.14A1.539,1.539,0,0,0-3.89-4a4.8,4.8,0,0,1,.22-1.24,1,1,0,0,1,.97-.77.791.791,0,0,1,.68.34A.752.752,0,0,1-1.89-5.3ZM-3.54-1.31a1.358,1.358,0,0,1-.31-.93,1.236,1.236,0,0,1,.41-1.03,1,1,0,0,1,.63-.21.966.966,0,0,1,.74.33,1.354,1.354,0,0,1,.3.95,1.415,1.415,0,0,1-.26.9.852.852,0,0,1-.73.35A.967.967,0,0,1-3.54-1.31ZM2.81.19,6.76-7.08H6.02L2.06.19Zm.52-4.14a1.714,1.714,0,0,0,.53-1.28,1.714,1.714,0,0,0-.53-1.28,1.739,1.739,0,0,0-1.28-.54,1.745,1.745,0,0,0-1.29.54A1.752,1.752,0,0,0,.23-5.23,1.752,1.752,0,0,0,.76-3.95a1.745,1.745,0,0,0,1.29.54A1.723,1.723,0,0,0,3.33-3.95ZM2.6-4.68a.764.764,0,0,1-.55.23.747.747,0,0,1-.55-.23.747.747,0,0,1-.23-.55.764.764,0,0,1,.23-.55.747.747,0,0,1,.55-.23.764.764,0,0,1,.55.23.754.754,0,0,1,.22.55A.739.739,0,0,1,2.6-4.68ZM8.08-.39a1.768,1.768,0,0,0,.53-1.28,1.774,1.774,0,0,0-.53-1.29,1.751,1.751,0,0,0-1.29-.53,1.714,1.714,0,0,0-1.28.53,1.72,1.72,0,0,0-.53,1.29A1.729,1.729,0,0,0,5.51-.39,1.714,1.714,0,0,0,6.79.14,1.751,1.751,0,0,0,8.08-.39ZM7.34-2.23a.732.732,0,0,1,.23.56.7.7,0,0,1-.23.54.747.747,0,0,1-.55.23.741.741,0,0,1-.54-.23.7.7,0,0,1-.23-.54.732.732,0,0,1,.23-.56.732.732,0,0,1,.54-.22A.739.739,0,0,1,7.34-2.23Z" transform="translate(493.157 362.616)" fill="#242647"/><path d="M-10.565-3.29h-2v1.28h2V0h1.28V-2.01h2V-3.29h-2v-2h-1.28Zm4.12,1.9A3.345,3.345,0,0,0-6.775,0h4.85V-1.23h-3.09a1.7,1.7,0,0,1,.33-.38c.12-.11.36-.29.71-.54l.56-.39A4.984,4.984,0,0,0-2.4-3.45a2.223,2.223,0,0,0,.47-1.39A2.119,2.119,0,0,0-2.6-6.49a2.476,2.476,0,0,0-1.78-.62,2.032,2.032,0,0,0-1.98,1.06,3.423,3.423,0,0,0-.33,1.46h1.35a2.351,2.351,0,0,1,.16-.87.861.861,0,0,1,.86-.48.893.893,0,0,1,.72.3,1.168,1.168,0,0,1,.25.75,1.448,1.448,0,0,1-.44,1.01,10.2,10.2,0,0,1-1.24.99A3.917,3.917,0,0,0-6.445-1.39Zm5.56,0A3.345,3.345,0,0,0-1.215,0h4.85V-1.23H.545a1.7,1.7,0,0,1,.33-.38c.12-.11.36-.29.71-.54l.56-.39a4.984,4.984,0,0,0,1.01-.91,2.223,2.223,0,0,0,.47-1.39,2.119,2.119,0,0,0-.67-1.65,2.476,2.476,0,0,0-1.78-.62A2.032,2.032,0,0,0-.8-6.05a3.423,3.423,0,0,0-.33,1.46H.215a2.351,2.351,0,0,1,.16-.87.861.861,0,0,1,.86-.48.893.893,0,0,1,.72.3,1.168,1.168,0,0,1,.25.75,1.448,1.448,0,0,1-.44,1.01,10.2,10.2,0,0,1-1.24.99A3.917,3.917,0,0,0-.885-1.39ZM6.845.19,10.8-7.08h-.74L6.1.19Zm.52-4.14a1.714,1.714,0,0,0,.53-1.28,1.714,1.714,0,0,0-.53-1.28,1.739,1.739,0,0,0-1.28-.54,1.745,1.745,0,0,0-1.29.54,1.752,1.752,0,0,0-.53,1.28A1.752,1.752,0,0,0,4.8-3.95a1.745,1.745,0,0,0,1.29.54A1.723,1.723,0,0,0,7.365-3.95Zm-.73-.73a.764.764,0,0,1-.55.23.747.747,0,0,1-.55-.23.747.747,0,0,1-.23-.55.764.764,0,0,1,.23-.55.747.747,0,0,1,.55-.23.764.764,0,0,1,.55.23.754.754,0,0,1,.22.55A.739.739,0,0,1,6.635-4.68Zm5.48,4.29a1.768,1.768,0,0,0,.53-1.28,1.774,1.774,0,0,0-.53-1.29,1.751,1.751,0,0,0-1.29-.53,1.714,1.714,0,0,0-1.28.53,1.72,1.72,0,0,0-.53,1.29,1.729,1.729,0,0,0,.53,1.28,1.714,1.714,0,0,0,1.28.53A1.751,1.751,0,0,0,12.115-.39Zm-.74-1.84a.732.732,0,0,1,.23.56.7.7,0,0,1-.23.54.747.747,0,0,1-.55.23.741.741,0,0,1-.54-.23.7.7,0,0,1-.23-.54.732.732,0,0,1,.23-.56.732.732,0,0,1,.54-.22A.739.739,0,0,1,11.375-2.23Z" transform="translate(533.11 293.377)" fill="#242647"/><path d="M-7.785-3.29h-2v1.28h2V0H-6.5V-2.01h2V-3.29h-2v-2h-1.28Zm5.11,1.12h-1.37a2.889,2.889,0,0,0,.35,1.36A2.216,2.216,0,0,0-1.6.18,2.347,2.347,0,0,0,.235-.51a2.214,2.214,0,0,0,.62-1.57,1.706,1.706,0,0,0-.53-1.35,1,1,0,0,0-.55-.33,1.246,1.246,0,0,0,.49-.37,1.532,1.532,0,0,0,.37-1.05,1.733,1.733,0,0,0-.62-1.41,2.444,2.444,0,0,0-1.64-.52,2.717,2.717,0,0,0-.92.13,1.829,1.829,0,0,0-.65.38,2.082,2.082,0,0,0-.54.77,3.548,3.548,0,0,0-.18,1h1.3a1.348,1.348,0,0,1,.22-.84.852.852,0,0,1,.73-.31.9.9,0,0,1,.67.25.964.964,0,0,1,.23.66.816.816,0,0,1-.46.83,2.562,2.562,0,0,1-.95.13v1a2.79,2.79,0,0,1,1.01.13.914.914,0,0,1,.57.93,1.049,1.049,0,0,1-.3.81,1.038,1.038,0,0,1-.72.28.94.94,0,0,1-.92-.51A1.482,1.482,0,0,1-2.675-2.17ZM4.065.19l3.95-7.27h-.74L3.315.19Zm.52-4.14a1.714,1.714,0,0,0,.53-1.28,1.714,1.714,0,0,0-.53-1.28,1.739,1.739,0,0,0-1.28-.54,1.745,1.745,0,0,0-1.29.54,1.752,1.752,0,0,0-.53,1.28,1.752,1.752,0,0,0,.53,1.28,1.745,1.745,0,0,0,1.29.54A1.723,1.723,0,0,0,4.585-3.95Zm-.73-.73a.764.764,0,0,1-.55.23.747.747,0,0,1-.55-.23.747.747,0,0,1-.23-.55.764.764,0,0,1,.23-.55.747.747,0,0,1,.55-.23.764.764,0,0,1,.55.23.754.754,0,0,1,.22.55A.739.739,0,0,1,3.855-4.68ZM9.335-.39a1.768,1.768,0,0,0,.53-1.28,1.774,1.774,0,0,0-.53-1.29,1.751,1.751,0,0,0-1.29-.53,1.714,1.714,0,0,0-1.28.53,1.72,1.72,0,0,0-.53,1.29,1.729,1.729,0,0,0,.53,1.28,1.714,1.714,0,0,0,1.28.53A1.751,1.751,0,0,0,9.335-.39ZM8.6-2.23a.732.732,0,0,1,.23.56.7.7,0,0,1-.23.54.747.747,0,0,1-.55.23.741.741,0,0,1-.54-.23.7.7,0,0,1-.23-.54.732.732,0,0,1,.23-.56.732.732,0,0,1,.54-.22A.739.739,0,0,1,8.6-2.23Z" transform="translate(573.013 316.586)" fill="#242647"/><text transform="translate(613 299.478)" fill="#242647" font-size="10" font-family="Helvetica-Bold, Helvetica" font-weight="700" style="isolation:isolate"><tspan x="-10.145" y="0">+9%</tspan></text><path d="M-8.89-5.83v.95h1.67V0H-5.8V-7.08H-6.95a1,1,0,0,1-.06.28,1.24,1.24,0,0,1-.27.51,1.3,1.3,0,0,1-.68.37A6.208,6.208,0,0,1-8.89-5.83Zm8.44.53H.93A1.907,1.907,0,0,0,.27-6.65a2.347,2.347,0,0,0-1.57-.5,2.13,2.13,0,0,0-1.17.31,2.444,2.444,0,0,0-.8.83,4.077,4.077,0,0,0-.47,1.5,11.39,11.39,0,0,0-.07,1.32,4.557,4.557,0,0,0,.5,2.26A2.109,2.109,0,0,0-1.34.19,2.182,2.182,0,0,0,.49-.57a2.732,2.732,0,0,0,.6-1.75A2.326,2.326,0,0,0,.48-3.96a2.028,2.028,0,0,0-1.54-.63,1.875,1.875,0,0,0-.78.14A1.539,1.539,0,0,0-2.45-4a4.8,4.8,0,0,1,.22-1.24,1,1,0,0,1,.97-.77.791.791,0,0,1,.68.34A.752.752,0,0,1-.45-5.3ZM-2.1-1.31a1.358,1.358,0,0,1-.31-.93A1.236,1.236,0,0,1-2-3.27a1,1,0,0,1,.63-.21.966.966,0,0,1,.74.33,1.354,1.354,0,0,1,.3.95,1.415,1.415,0,0,1-.26.9.852.852,0,0,1-.73.35A.967.967,0,0,1-2.1-1.31ZM3.44,0V-1.46H1.96V0ZM8.67-6.18a2,2,0,0,0-1.9-.95,2,2,0,0,0-1.89.95,5.457,5.457,0,0,0-.55,2.71,5.389,5.389,0,0,0,.55,2.7A2,2,0,0,0,6.77.18a2,2,0,0,0,1.9-.95,5.5,5.5,0,0,0,.55-2.7A5.569,5.569,0,0,0,8.67-6.18ZM5.95-1.61a6.754,6.754,0,0,1-.2-1.86,6.732,6.732,0,0,1,.2-1.9.8.8,0,0,1,.82-.61.788.788,0,0,1,.82.61,6.811,6.811,0,0,1,.19,1.9,6.823,6.823,0,0,1-.19,1.86.793.793,0,0,1-.82.65A.807.807,0,0,1,5.95-1.61Z" transform="translate(217.978 345.987)" fill="#fff9ea"/><path d="M-8.89-5.83v.95h1.67V0H-5.8V-7.08H-6.95a1,1,0,0,1-.06.28,1.24,1.24,0,0,1-.27.51,1.3,1.3,0,0,1-.68.37A6.208,6.208,0,0,1-8.89-5.83Zm5.31,2.79a2.171,2.171,0,0,0-.28,1.08A2.139,2.139,0,0,0-3.25-.44a2.4,2.4,0,0,0,1.8.63A2.577,2.577,0,0,0,.4-.44a2.03,2.03,0,0,0,.66-1.52A2.269,2.269,0,0,0,.8-3.04a2.043,2.043,0,0,0-.79-.78,1.386,1.386,0,0,0,.67-.69,2.12,2.12,0,0,0,.15-.74A1.723,1.723,0,0,0,.25-6.57a2.317,2.317,0,0,0-1.64-.54,2.3,2.3,0,0,0-1.64.54,1.723,1.723,0,0,0-.58,1.32,2.12,2.12,0,0,0,.15.74,1.706,1.706,0,0,0,.67.74A1.7,1.7,0,0,0-3.58-3.04Zm1.54-1.43a.815.815,0,0,1-.24-.63.854.854,0,0,1,.24-.66.887.887,0,0,1,.65-.23.929.929,0,0,1,.66.23A.929.929,0,0,1-.5-5.1a.887.887,0,0,1-.23.63.9.9,0,0,1-.66.25A.858.858,0,0,1-2.04-4.47Zm-.1,3.22a1.132,1.132,0,0,1-.27-.81,1.1,1.1,0,0,1,.28-.82.972.972,0,0,1,.74-.28,1.011,1.011,0,0,1,.75.28,1.142,1.142,0,0,1,.27.82,1.132,1.132,0,0,1-.27.81.951.951,0,0,1-.75.29A.951.951,0,0,1-2.14-1.25ZM3.44,0V-1.46H1.96V0ZM4.56-3.04a2.171,2.171,0,0,0-.28,1.08A2.139,2.139,0,0,0,4.89-.44a2.4,2.4,0,0,0,1.8.63A2.577,2.577,0,0,0,8.54-.44,2.03,2.03,0,0,0,9.2-1.96a2.269,2.269,0,0,0-.26-1.08,2.043,2.043,0,0,0-.79-.78,1.386,1.386,0,0,0,.67-.69,2.12,2.12,0,0,0,.15-.74,1.723,1.723,0,0,0-.58-1.32,2.317,2.317,0,0,0-1.64-.54,2.3,2.3,0,0,0-1.64.54,1.723,1.723,0,0,0-.58,1.32,2.12,2.12,0,0,0,.15.74,1.706,1.706,0,0,0,.67.74A1.7,1.7,0,0,0,4.56-3.04ZM6.1-4.47a.815.815,0,0,1-.24-.63.854.854,0,0,1,.24-.66.887.887,0,0,1,.65-.23.929.929,0,0,1,.66.23.929.929,0,0,1,.23.66.887.887,0,0,1-.23.63.9.9,0,0,1-.66.25A.858.858,0,0,1,6.1-4.47ZM6-1.25a1.132,1.132,0,0,1-.27-.81,1.1,1.1,0,0,1,.28-.82.972.972,0,0,1,.74-.28,1.011,1.011,0,0,1,.75.28,1.142,1.142,0,0,1,.27.82,1.132,1.132,0,0,1-.27.81.951.951,0,0,1-.75.29A.951.951,0,0,1,6-1.25Z" transform="translate(257.933 324.913)" fill="#fff9ea"/><path d="M-8.89-5.83v.95h1.67V0H-5.8V-7.08H-6.95a1,1,0,0,1-.06.28,1.24,1.24,0,0,1-.27.51,1.3,1.3,0,0,1-.68.37A6.208,6.208,0,0,1-8.89-5.83Zm6.4,3.66H-3.86A2.889,2.889,0,0,0-3.51-.81,2.216,2.216,0,0,0-1.42.18,2.347,2.347,0,0,0,.42-.51a2.214,2.214,0,0,0,.62-1.57A1.706,1.706,0,0,0,.51-3.43a1,1,0,0,0-.55-.33,1.246,1.246,0,0,0,.49-.37A1.532,1.532,0,0,0,.82-5.18,1.733,1.733,0,0,0,.2-6.59a2.444,2.444,0,0,0-1.64-.52,2.717,2.717,0,0,0-.92.13,1.829,1.829,0,0,0-.65.38,2.082,2.082,0,0,0-.54.77,3.548,3.548,0,0,0-.18,1h1.3a1.348,1.348,0,0,1,.22-.84.852.852,0,0,1,.73-.31.9.9,0,0,1,.67.25.964.964,0,0,1,.23.66.816.816,0,0,1-.46.83,2.562,2.562,0,0,1-.95.13v1a2.79,2.79,0,0,1,1.01.13.914.914,0,0,1,.57.93,1.049,1.049,0,0,1-.3.81,1.038,1.038,0,0,1-.72.28.94.94,0,0,1-.92-.51A1.482,1.482,0,0,1-2.49-2.17ZM3.44,0V-1.46H1.96V0ZM4.98-6.44a2.62,2.62,0,0,0-.66,1.85,2.155,2.155,0,0,0,.65,1.68,2.2,2.2,0,0,0,1.5.59,1.8,1.8,0,0,0,.96-.24,1.494,1.494,0,0,0,.41-.36A4.645,4.645,0,0,1,7.65-1.7a1,1,0,0,1-.97.76.8.8,0,0,1-.57-.19.838.838,0,0,1-.26-.51H4.46A1.82,1.82,0,0,0,5.19-.27,2.3,2.3,0,0,0,6.62.21,2.286,2.286,0,0,0,8.91-1.43a6.015,6.015,0,0,0,.33-2.14A5.539,5.539,0,0,0,8.9-5.71,2.21,2.21,0,0,0,6.68-7.14,2.23,2.23,0,0,0,4.98-6.44ZM7.32-3.62a1.028,1.028,0,0,1-.55.16.941.941,0,0,1-.78-.31,1.5,1.5,0,0,1-.26-.95,1.27,1.27,0,0,1,.4-1.06.972.972,0,0,1,.61-.2.922.922,0,0,1,.77.36,1.454,1.454,0,0,1,.28.95A1.155,1.155,0,0,1,7.32-3.62Z" transform="translate(297.888 362.041)" fill="#fff9ea"/><path d="M-8.89-5.83v.95h1.67V0H-5.8V-7.08H-6.95a1,1,0,0,1-.06.28,1.24,1.24,0,0,1-.27.51,1.3,1.3,0,0,1-.68.37A6.208,6.208,0,0,1-8.89-5.83Zm5.31,2.79a2.171,2.171,0,0,0-.28,1.08A2.139,2.139,0,0,0-3.25-.44a2.4,2.4,0,0,0,1.8.63A2.577,2.577,0,0,0,.4-.44a2.03,2.03,0,0,0,.66-1.52A2.269,2.269,0,0,0,.8-3.04a2.043,2.043,0,0,0-.79-.78,1.386,1.386,0,0,0,.67-.69,2.12,2.12,0,0,0,.15-.74A1.723,1.723,0,0,0,.25-6.57a2.317,2.317,0,0,0-1.64-.54,2.3,2.3,0,0,0-1.64.54,1.723,1.723,0,0,0-.58,1.32,2.12,2.12,0,0,0,.15.74,1.706,1.706,0,0,0,.67.74A1.7,1.7,0,0,0-3.58-3.04Zm1.54-1.43a.815.815,0,0,1-.24-.63.854.854,0,0,1,.24-.66.887.887,0,0,1,.65-.23.929.929,0,0,1,.66.23A.929.929,0,0,1-.5-5.1a.887.887,0,0,1-.23.63.9.9,0,0,1-.66.25A.858.858,0,0,1-2.04-4.47Zm-.1,3.22a1.132,1.132,0,0,1-.27-.81,1.1,1.1,0,0,1,.28-.82.972.972,0,0,1,.74-.28,1.011,1.011,0,0,1,.75.28,1.142,1.142,0,0,1,.27.82,1.132,1.132,0,0,1-.27.81.951.951,0,0,1-.75.29A.951.951,0,0,1-2.14-1.25ZM3.44,0V-1.46H1.96V0ZM4.98-6.44a2.62,2.62,0,0,0-.66,1.85,2.155,2.155,0,0,0,.65,1.68,2.2,2.2,0,0,0,1.5.59,1.8,1.8,0,0,0,.96-.24,1.494,1.494,0,0,0,.41-.36A4.645,4.645,0,0,1,7.65-1.7a1,1,0,0,1-.97.76.8.8,0,0,1-.57-.19.838.838,0,0,1-.26-.51H4.46A1.82,1.82,0,0,0,5.19-.27,2.3,2.3,0,0,0,6.62.21,2.286,2.286,0,0,0,8.91-1.43a6.015,6.015,0,0,0,.33-2.14A5.539,5.539,0,0,0,8.9-5.71,2.21,2.21,0,0,0,6.68-7.14,2.23,2.23,0,0,0,4.98-6.44ZM7.32-3.62a1.028,1.028,0,0,1-.55.16.941.941,0,0,1-.78-.31,1.5,1.5,0,0,1-.26-.95,1.27,1.27,0,0,1,.4-1.06.972.972,0,0,1,.61-.2.922.922,0,0,1,.77.36,1.454,1.454,0,0,1,.28.95A1.155,1.155,0,0,1,7.32-3.62Z" transform="translate(337.843 322.906)" fill="#fff9ea"/><path d="M-8.89-5.83v.95h1.67V0H-5.8V-7.08H-6.95a1,1,0,0,1-.06.28,1.24,1.24,0,0,1-.27.51,1.3,1.3,0,0,1-.68.37A6.208,6.208,0,0,1-8.89-5.83Zm8.44.53H.93A1.907,1.907,0,0,0,.27-6.65a2.347,2.347,0,0,0-1.57-.5,2.13,2.13,0,0,0-1.17.31,2.444,2.444,0,0,0-.8.83,4.077,4.077,0,0,0-.47,1.5,11.39,11.39,0,0,0-.07,1.32,4.557,4.557,0,0,0,.5,2.26A2.109,2.109,0,0,0-1.34.19,2.182,2.182,0,0,0,.49-.57a2.732,2.732,0,0,0,.6-1.75A2.326,2.326,0,0,0,.48-3.96a2.028,2.028,0,0,0-1.54-.63,1.875,1.875,0,0,0-.78.14A1.539,1.539,0,0,0-2.45-4a4.8,4.8,0,0,1,.22-1.24,1,1,0,0,1,.97-.77.791.791,0,0,1,.68.34A.752.752,0,0,1-.45-5.3ZM-2.1-1.31a1.358,1.358,0,0,1-.31-.93A1.236,1.236,0,0,1-2-3.27a1,1,0,0,1,.63-.21.966.966,0,0,1,.74.33,1.354,1.354,0,0,1,.3.95,1.415,1.415,0,0,1-.26.9.852.852,0,0,1-.73.35A.967.967,0,0,1-2.1-1.31ZM3.44,0V-1.46H1.96V0ZM5.65-2.17H4.28A2.889,2.889,0,0,0,4.63-.81,2.216,2.216,0,0,0,6.72.18,2.347,2.347,0,0,0,8.56-.51a2.214,2.214,0,0,0,.62-1.57,1.706,1.706,0,0,0-.53-1.35,1,1,0,0,0-.55-.33,1.246,1.246,0,0,0,.49-.37,1.532,1.532,0,0,0,.37-1.05,1.733,1.733,0,0,0-.62-1.41A2.444,2.444,0,0,0,6.7-7.11a2.717,2.717,0,0,0-.92.13,1.829,1.829,0,0,0-.65.38,2.082,2.082,0,0,0-.54.77,3.548,3.548,0,0,0-.18,1h1.3a1.348,1.348,0,0,1,.22-.84.852.852,0,0,1,.73-.31.9.9,0,0,1,.67.25.964.964,0,0,1,.23.66.816.816,0,0,1-.46.83,2.562,2.562,0,0,1-.95.13v1a2.79,2.79,0,0,1,1.01.13.914.914,0,0,1,.57.93,1.049,1.049,0,0,1-.3.81,1.038,1.038,0,0,1-.72.28.94.94,0,0,1-.92-.51A1.482,1.482,0,0,1,5.65-2.17Z" transform="translate(377.811 344.982)" fill="#fff9ea"/><path d="M-8.89-5.83v.95h1.67V0H-5.8V-7.08H-6.95a1,1,0,0,1-.06.28,1.24,1.24,0,0,1-.27.51,1.3,1.3,0,0,1-.68.37A6.208,6.208,0,0,1-8.89-5.83Zm5.73-.61a2.62,2.62,0,0,0-.66,1.85,2.155,2.155,0,0,0,.65,1.68,2.2,2.2,0,0,0,1.5.59,1.8,1.8,0,0,0,.96-.24A1.494,1.494,0,0,0-.3-2.92,4.645,4.645,0,0,1-.49-1.7a1,1,0,0,1-.97.76.8.8,0,0,1-.57-.19.838.838,0,0,1-.26-.51H-3.68A1.82,1.82,0,0,0-2.95-.27,2.3,2.3,0,0,0-1.52.21,2.286,2.286,0,0,0,.77-1.43,6.015,6.015,0,0,0,1.1-3.57,5.539,5.539,0,0,0,.76-5.71,2.21,2.21,0,0,0-1.46-7.14,2.23,2.23,0,0,0-3.16-6.44ZM-.82-3.62a1.028,1.028,0,0,1-.55.16.941.941,0,0,1-.78-.31,1.5,1.5,0,0,1-.26-.95,1.27,1.27,0,0,1,.4-1.06.972.972,0,0,1,.61-.2.922.922,0,0,1,.77.36,1.454,1.454,0,0,1,.28.95A1.155,1.155,0,0,1-.82-3.62ZM3.44,0V-1.46H1.96V0ZM4.66-1.39A3.345,3.345,0,0,0,4.33,0H9.18V-1.23H6.09a1.7,1.7,0,0,1,.33-.38c.12-.11.36-.29.71-.54l.56-.39A4.984,4.984,0,0,0,8.7-3.45a2.223,2.223,0,0,0,.47-1.39A2.119,2.119,0,0,0,8.5-6.49a2.476,2.476,0,0,0-1.78-.62A2.032,2.032,0,0,0,4.74-6.05a3.423,3.423,0,0,0-.33,1.46H5.76a2.351,2.351,0,0,1,.16-.87.861.861,0,0,1,.86-.48.893.893,0,0,1,.72.3,1.168,1.168,0,0,1,.25.75,1.448,1.448,0,0,1-.44,1.01,10.2,10.2,0,0,1-1.24.99A3.917,3.917,0,0,0,4.66-1.39Z" transform="translate(417.753 327.923)" fill="#fff9ea"/><path d="M-8.89-5.83v.95h1.67V0H-5.8V-7.08H-6.95a1,1,0,0,1-.06.28,1.24,1.24,0,0,1-.27.51,1.3,1.3,0,0,1-.68.37A6.208,6.208,0,0,1-8.89-5.83Zm8.44.53H.93A1.907,1.907,0,0,0,.27-6.65a2.347,2.347,0,0,0-1.57-.5,2.13,2.13,0,0,0-1.17.31,2.444,2.444,0,0,0-.8.83,4.077,4.077,0,0,0-.47,1.5,11.39,11.39,0,0,0-.07,1.32,4.557,4.557,0,0,0,.5,2.26A2.109,2.109,0,0,0-1.34.19,2.182,2.182,0,0,0,.49-.57a2.732,2.732,0,0,0,.6-1.75A2.326,2.326,0,0,0,.48-3.96a2.028,2.028,0,0,0-1.54-.63,1.875,1.875,0,0,0-.78.14A1.539,1.539,0,0,0-2.45-4a4.8,4.8,0,0,1,.22-1.24,1,1,0,0,1,.97-.77.791.791,0,0,1,.68.34A.752.752,0,0,1-.45-5.3ZM-2.1-1.31a1.358,1.358,0,0,1-.31-.93A1.236,1.236,0,0,1-2-3.27a1,1,0,0,1,.63-.21.966.966,0,0,1,.74.33,1.354,1.354,0,0,1,.3.95,1.415,1.415,0,0,1-.26.9.852.852,0,0,1-.73.35A.967.967,0,0,1-2.1-1.31ZM3.44,0V-1.46H1.96V0ZM5.65-2.17H4.28A2.889,2.889,0,0,0,4.63-.81,2.216,2.216,0,0,0,6.72.18,2.347,2.347,0,0,0,8.56-.51a2.214,2.214,0,0,0,.62-1.57,1.706,1.706,0,0,0-.53-1.35,1,1,0,0,0-.55-.33,1.246,1.246,0,0,0,.49-.37,1.532,1.532,0,0,0,.37-1.05,1.733,1.733,0,0,0-.62-1.41A2.444,2.444,0,0,0,6.7-7.11a2.717,2.717,0,0,0-.92.13,1.829,1.829,0,0,0-.65.38,2.082,2.082,0,0,0-.54.77,3.548,3.548,0,0,0-.18,1h1.3a1.348,1.348,0,0,1,.22-.84.852.852,0,0,1,.73-.31.9.9,0,0,1,.67.25.964.964,0,0,1,.23.66.816.816,0,0,1-.46.83,2.562,2.562,0,0,1-.95.13v1a2.79,2.79,0,0,1,1.01.13.914.914,0,0,1,.57.93,1.049,1.049,0,0,1-.3.81,1.038,1.038,0,0,1-.72.28.94.94,0,0,1-.92-.51A1.482,1.482,0,0,1,5.65-2.17Z" transform="translate(457.708 343.979)" fill="#fff9ea"/><path d="M-8.33-5.83v.95h1.67V0h1.42V-7.08H-6.39a1,1,0,0,1-.06.28,1.24,1.24,0,0,1-.27.51,1.3,1.3,0,0,1-.68.37A6.208,6.208,0,0,1-8.33-5.83Zm4.34,0v.95h1.67V0H-.9V-7.08H-2.05a1,1,0,0,1-.06.28,1.24,1.24,0,0,1-.27.51,1.3,1.3,0,0,1-.68.37A6.208,6.208,0,0,1-3.99-5.83ZM2.88,0V-1.46H1.4V0ZM7.13-5.3H8.51a1.907,1.907,0,0,0-.66-1.35,2.347,2.347,0,0,0-1.57-.5,2.13,2.13,0,0,0-1.17.31,2.444,2.444,0,0,0-.8.83,4.077,4.077,0,0,0-.47,1.5,11.39,11.39,0,0,0-.07,1.32,4.557,4.557,0,0,0,.5,2.26A2.109,2.109,0,0,0,6.24.19,2.182,2.182,0,0,0,8.07-.57a2.732,2.732,0,0,0,.6-1.75,2.326,2.326,0,0,0-.61-1.64,2.028,2.028,0,0,0-1.54-.63,1.875,1.875,0,0,0-.78.14A1.539,1.539,0,0,0,5.13-4a4.8,4.8,0,0,1,.22-1.24,1,1,0,0,1,.97-.77A.791.791,0,0,1,7-5.67.752.752,0,0,1,7.13-5.3ZM5.48-1.31a1.358,1.358,0,0,1-.31-.93,1.236,1.236,0,0,1,.41-1.03,1,1,0,0,1,.63-.21.966.966,0,0,1,.74.33,1.354,1.354,0,0,1,.3.95,1.415,1.415,0,0,1-.26.9.852.852,0,0,1-.73.35A.967.967,0,0,1,5.48-1.31Z" transform="translate(497.663 379.221)" fill="#fff9ea"/><path d="M-8.94-1.39A3.345,3.345,0,0,0-9.27,0h4.85V-1.23H-7.51a1.7,1.7,0,0,1,.33-.38c.12-.11.36-.29.71-.54l.56-.39A4.984,4.984,0,0,0-4.9-3.45a2.223,2.223,0,0,0,.47-1.39A2.119,2.119,0,0,0-5.1-6.49a2.476,2.476,0,0,0-1.78-.62A2.032,2.032,0,0,0-8.86-6.05a3.423,3.423,0,0,0-.33,1.46h1.35a2.351,2.351,0,0,1,.16-.87.861.861,0,0,1,.86-.48.893.893,0,0,1,.72.3,1.168,1.168,0,0,1,.25.75,1.448,1.448,0,0,1-.44,1.01,10.2,10.2,0,0,1-1.24.99A3.917,3.917,0,0,0-8.94-1.39Zm5.51-4.44v.95h1.67V0H-.34V-7.08H-1.49a1,1,0,0,1-.06.28,1.24,1.24,0,0,1-.27.51,1.3,1.3,0,0,1-.68.37A6.208,6.208,0,0,1-3.43-5.83ZM3.44,0V-1.46H1.96V0ZM8.67-6.18a2,2,0,0,0-1.9-.95,2,2,0,0,0-1.89.95,5.457,5.457,0,0,0-.55,2.71,5.389,5.389,0,0,0,.55,2.7A2,2,0,0,0,6.77.18a2,2,0,0,0,1.9-.95,5.5,5.5,0,0,0,.55-2.7A5.569,5.569,0,0,0,8.67-6.18ZM5.95-1.61a6.754,6.754,0,0,1-.2-1.86,6.732,6.732,0,0,1,.2-1.9.8.8,0,0,1,.82-.61.788.788,0,0,1,.82.61,6.811,6.811,0,0,1,.19,1.9,6.823,6.823,0,0,1-.19,1.86.793.793,0,0,1-.82.65A.807.807,0,0,1,5.95-1.61Z" transform="translate(537.617 305.848)" fill="#fff9ea"/><path d="M-8.89-5.83v.95h1.67V0H-5.8V-7.08H-6.95a1,1,0,0,1-.06.28,1.24,1.24,0,0,1-.27.51,1.3,1.3,0,0,1-.68.37A6.208,6.208,0,0,1-8.89-5.83Zm5.31,2.79a2.171,2.171,0,0,0-.28,1.08A2.139,2.139,0,0,0-3.25-.44a2.4,2.4,0,0,0,1.8.63A2.577,2.577,0,0,0,.4-.44a2.03,2.03,0,0,0,.66-1.52A2.269,2.269,0,0,0,.8-3.04a2.043,2.043,0,0,0-.79-.78,1.386,1.386,0,0,0,.67-.69,2.12,2.12,0,0,0,.15-.74A1.723,1.723,0,0,0,.25-6.57a2.317,2.317,0,0,0-1.64-.54,2.3,2.3,0,0,0-1.64.54,1.723,1.723,0,0,0-.58,1.32,2.12,2.12,0,0,0,.15.74,1.706,1.706,0,0,0,.67.74A1.7,1.7,0,0,0-3.58-3.04Zm1.54-1.43a.815.815,0,0,1-.24-.63.854.854,0,0,1,.24-.66.887.887,0,0,1,.65-.23.929.929,0,0,1,.66.23A.929.929,0,0,1-.5-5.1a.887.887,0,0,1-.23.63.9.9,0,0,1-.66.25A.858.858,0,0,1-2.04-4.47Zm-.1,3.22a1.132,1.132,0,0,1-.27-.81,1.1,1.1,0,0,1,.28-.82.972.972,0,0,1,.74-.28,1.011,1.011,0,0,1,.75.28,1.142,1.142,0,0,1,.27.82,1.132,1.132,0,0,1-.27.81.951.951,0,0,1-.75.29A.951.951,0,0,1-2.14-1.25ZM3.44,0V-1.46H1.96V0ZM4.71-5.83v.95H6.38V0H7.8V-7.08H6.65a1,1,0,0,1-.06.28,1.24,1.24,0,0,1-.27.51,1.3,1.3,0,0,1-.68.37A6.208,6.208,0,0,1,4.71-5.83Z" transform="translate(577.522 328.927)" fill="#fff9ea"/><text transform="translate(617.51 311.867)" fill="#fff9ea" font-size="10" font-family="Helvetica-Bold, Helvetica" font-weight="700" letter-spacing="-0.01em"><tspan x="-9.58" y="0">20.4</tspan></text><path d="M0,0H157.381V37.6H0Z" transform="translate(474.49 225.105)" fill="#fdf8eb"/><path d="M-38.212-16.94h-2.522v4.364h-4.332v2.522h4.332v4.429h2.522v-4.429h4.332v-2.522h-4.332Zm16.875-.259c0-3.621-1.907-5.69-5.4-5.69s-5.4,2.069-5.4,5.69v4.138c0,3.33,1.325,5.172,3.944,5.172a3.385,3.385,0,0,0,3.3-2v4.138c0,2.166-.711,2.78-1.972,2.78-1.131,0-1.843-.614-1.843-2.231v-.808h-3.362v.582c0,3.621,1.81,5.69,5.3,5.69,3.685,0,5.431-2.069,5.431-5.884Zm-5.4,6.078c-1.131,0-1.843-.614-1.843-2.231v-4.073c0-1.616.711-2.2,1.843-2.2s1.843.582,1.843,2.2v4.073C-24.893-11.735-25.6-11.121-26.735-11.121Zm9.828-8.211c0-1,.42-1.422,1.164-1.422.711,0,1.164.42,1.164,1.422v7.759c0,1-.453,1.422-1.164,1.422-.744,0-1.164-.42-1.164-1.422Zm-2.263,7.6c0,2.328,1.2,3.621,3.427,3.621s3.427-1.293,3.427-3.621V-19.17c0-2.328-1.2-3.621-3.427-3.621S-19.17-21.5-19.17-19.17ZM-15.744,0h2.1L-4.72-22.63h-2.1ZM-5.69-11.056c0-1,.42-1.422,1.164-1.422.711,0,1.164.42,1.164,1.422V-3.3c0,1-.453,1.422-1.164,1.422-.744,0-1.164-.42-1.164-1.422Zm-2.263,7.6c0,2.328,1.2,3.621,3.427,3.621S-1.1-1.131-1.1-3.459v-7.435c0-2.328-1.2-3.621-3.427-3.621s-3.427,1.293-3.427,3.621Z" transform="translate(519.866 255.5)" fill="#242647"/><path d="M2.93,4.043H.569V14H3.03a2.117,2.117,0,0,0,2.375-2.361v-.811A2.013,2.013,0,0,0,4.239,8.694a1.956,1.956,0,0,0,1.01-2.006V6.333C5.249,4.8,4.552,4.043,2.93,4.043Zm-.1,5.476c.711,0,1.01.284,1.01,1.209V11.6c0,.74-.284.981-.811.981h-.9V9.519Zm.057-4.054c.555,0,.8.313.8,1.024v.555c0,.8-.356,1.053-.939,1.053H2.134V5.465Zm35.438,0H40.1V14H41.7V4.043H36.761V14h1.565Zm6.045.868c0-.711.313-.981.811-.981s.811.27.811.981V11.71c0,.711-.313.981-.811.981s-.811-.27-.811-.981ZM42.807,11.61a2.379,2.379,0,1,0,4.751,0V6.433a2.379,2.379,0,1,0-4.751,0ZM54.03,10.287V11.71c0,.711-.313.967-.811.967s-.811-.256-.811-.967V6.333c0-.711.313-.981.811-.981s.811.27.811.981V7.4h1.479V6.433c0-1.593-.8-2.5-2.333-2.5s-2.333.91-2.333,2.5V11.61c0,1.593.8,2.5,2.333,2.5s2.333-.91,2.333-2.5V10.287Zm4.836-6.244h-2.3V14h1.565V10.259h.74c1.565,0,2.333-.868,2.333-2.461V6.5C61.2,4.911,60.43,4.043,58.866,4.043Zm0,1.422c.5,0,.768.228.768.939V7.9c0,.711-.27.939-.768.939h-.74V5.465Zm6.629-1.422H63.2L61.611,14h1.437l.27-1.806h1.92L65.509,14h1.579ZM64.271,5.807l.754,5.035H63.517Zm6-1.764H67.912V14h2.461a2.117,2.117,0,0,0,2.375-2.361v-.811a2.013,2.013,0,0,0-1.166-2.134,1.956,1.956,0,0,0,1.01-2.006V6.333C72.592,4.8,71.9,4.043,70.274,4.043Zm-.1,5.476c.711,0,1.01.284,1.01,1.209V11.6c0,.74-.284.981-.811.981h-.9V9.519Zm.057-4.054c.555,0,.8.313.8,1.024v.555c0,.8-.356,1.053-.939,1.053h-.612V5.465Zm5.121,4.267H77.13V14h1.593V4.043H77.13V8.31H75.352V4.043H73.787V14h1.565Zm6.173-4.267h2.7V4.043H79.96V14h4.267V12.578h-2.7V9.662h2.148V8.239H81.525Zm5.334,4.267h1.778V14H90.23V4.043H88.637V8.31H86.859V4.043H85.295V14h1.565Zm7.525-.3.64-2.447V14h1.408V4.043H94.711l-1.28,4.111-.569,2.191v-6.3H91.468V14h1.607Zm5.988,2.176a2.379,2.379,0,1,0,4.751,0V6.433a2.379,2.379,0,1,0-4.751,0V8.31H99.206V4.043H97.641V14h1.565V9.733h1.166Zm1.565-5.277c0-.711.313-.981.811-.981s.811.27.811.981V11.71c0,.711-.313.981-.811.981s-.811-.27-.811-.981ZM3.627,23.219v1.422c0,.711-.313.967-.811.967s-.811-.256-.811-.967V19.264c0-.711.313-.981.811-.981s.811.27.811.981v1.067H5.107v-.967c0-1.593-.8-2.5-2.333-2.5s-2.333.91-2.333,2.5v5.178c0,1.593.8,2.5,2.333,2.5s2.333-.91,2.333-2.5V23.219ZM9.545,18.4h1.778v8.535h1.593V16.974H7.98v9.957H9.545Zm6.671-1.422h-2.3v9.957h1.565V23.19h.74c1.565,0,2.333-.868,2.333-2.461V19.435C18.549,17.842,17.78,16.974,16.216,16.974Zm0,1.422c.5,0,.768.228.768.939v1.494c0,.711-.27.939-.768.939h-.74V18.4Zm4.481,0h2.7V16.974H19.132v9.957H23.4V25.509H20.7V22.593h2.148V21.17H20.7Zm9.6,9.872V25.537h-.683V16.974H25.234l-.356,7.269a2.062,2.062,0,0,1-.384,1.294h-.612v2.731H25.4V26.931h3.343v1.337ZM26.7,18.4h1.323v7.141H25.974a1.764,1.764,0,0,0,.441-1.323Zm6.629,8.535c1.565,0,2.333-.868,2.333-2.461V23.176c0-1.593-.768-2.461-2.333-2.461h-.74V16.974H31.023v9.957Zm-.74-1.422V22.138h.74c.5,0,.768.228.768.939V24.57c0,.711-.27.939-.768.939Zm5.533,1.422V16.974H36.556v9.957Zm7.069,1.337V25.537h-.683V16.974H40.127l-.356,7.269a2.062,2.062,0,0,1-.384,1.294h-.612v2.731H40.3V26.931H43.64v1.337Zm-3.6-9.872h1.323v7.141H40.866a1.764,1.764,0,0,0,.441-1.323Zm9.473-1.422H49.429l-.711,3.414-.37,2.319-.484-2.333-.853-3.4h-1.55l2.162,7.681-.014.085c-.128.725-.583.868-1.38.811v1.394c2.176.142,2.788-.754,3.158-2.546Zm7.909,0H57.409v8.535H56.058V16.974H54.493v8.535H53.142V16.974H51.577v9.957h6.572v1.337h1.522V25.537h-.7ZM63.3,22.365l.64-2.447v7.013h1.408V16.974H63.625l-1.28,4.111-.569,2.191v-6.3H60.382v9.957H61.99Zm5.178-5.391H66.3v9.957h1.366V19.89l1.166,7.041h1.479l1.081-7.141v7.141h1.479V16.974H70.695l-1.067,7.069Z" transform="translate(522.07 230.44)" fill="#242549"/><path d="M246.9-14c-2.2,0-3.08.82-3.08,3.06v7.88c0,2.24.88,3.06,3.08,3.06h.68V-1.8h-.54c-.7,0-1.02-.26-1.02-1.26v-7.88c0-1,.32-1.26,1.02-1.26h.54V-14Zm5.68,4.22c0,1.12-.5,1.48-1.32,1.48h-.66v2h.54c1,0,1.44.48,1.44,1.78v1.1c0,1.24-.44,1.58-1.14,1.58s-1.14-.38-1.14-1.38V-4.9h-2.08v1.54c0,2.24,1.12,3.52,3.28,3.52s3.28-1.28,3.28-3.52v-1.1c0-1.42-.44-2.46-1.54-2.94,1.06-.44,1.54-1.38,1.54-2.88v-.36c0-2.24-1.12-3.52-3.28-3.52s-3.24,1.24-3.24,3.48v1.04h2.02v-1.14c0-1,.46-1.38,1.16-1.38s1.14.34,1.14,1.6ZM259.14-14H255.9V0h2.2V-5.26h1.04c2.2,0,3.28-1.22,3.28-3.46v-1.82C262.42-12.78,261.34-14,259.14-14Zm0,2c.7,0,1.08.32,1.08,1.32v2.1c0,1-.38,1.32-1.08,1.32H258.1V-12Zm8.04,5.58.9-3.44V0h1.98V-14h-2.42l-1.8,5.78-.8,3.08V-14h-1.96V0h2.26ZM270.62-12h2.3V0h2.2V-12h2.3v-2h-6.8Zm9.6,0h3.8v-2h-6V0h6V-2h-3.8V-6.1h3.02v-2h-3.02ZM284.4.02h.34c2.2,0,3.12-1,3.2-3.56l.24-8.46h1.92V0h2.24V-14h-6.22l-.36,10.58c-.04,1.3-.36,1.44-1.36,1.44Zm13.36-6.44.9-3.44V0h1.98V-14h-2.42l-1.8,5.78-.8,3.08V-14h-1.96V0h2.26ZM302.68,0l-.58,2h.9l.96-2.22v-1.9h-2.12V0Zm8.3-14h-3.06V0h1.92V-9.9L311.48,0h2.08l1.52-10.04V0h2.08V-14H314.1l-1.5,9.94ZM317.78.02h.34c2.2,0,3.12-1,3.2-3.56l.24-8.46h1.92V0h2.24V-14H319.5l-.36,10.58c-.04,1.3-.36,1.44-1.36,1.44ZM329.24-6h2.5V0h2.24V-14h-2.24v6h-2.5v-6h-2.2V0h2.2Zm5.98,3.88V0h2.12V-2.12ZM345.8-14v5.68c0,.94-.44,1.44-1.14,1.44a1.236,1.236,0,0,1-1.28-1.38V-14h-2.2v5.92c0,1.92.94,3.22,2.74,3.22a2.72,2.72,0,0,0,1.88-.78V0H348V-14Zm5.66,2h3.8v-2h-6V0h6V-2h-3.8V-6.1h3.02v-2h-3.02ZM355.64.02h.34c2.2,0,3.12-1,3.2-3.56l.24-8.46h1.92V0h2.24V-14h-6.22L357-3.42c-.04,1.3-.36,1.44-1.36,1.44Zm9.26-2.14V0h2.12V-2.12ZM367.78-14v1.8h.54c.7,0,1.02.26,1.02,1.26v7.88c0,1-.32,1.26-1.02,1.26h-.54V0h.68c2.2,0,3.08-.82,3.08-3.06v-7.88c0-2.24-.88-3.06-3.08-3.06Z" transform="translate(129 191)" fill="rgba(36,37,73,0.5)"/><path d="M12.294,5.579c0,3.222-3.477,3.764-3.477,7.049V14h5.072V12.405H10.571a1.207,1.207,0,0,1-.016-.239c0-1.834,3.493-3.142,3.493-6.651,0-1.786-.893-2.807-2.616-2.807S8.817,3.729,8.817,5.515V6.6h1.659V5.4c0-.8.351-1.1.909-1.1S12.294,4.574,12.294,5.579ZM16.855,5.4c0-.8.351-1.1.909-1.1s.909.3.909,1.1v6.029c0,.8-.351,1.1-.909,1.1s-.909-.3-.909-1.1ZM15.1,11.321a2.478,2.478,0,0,0,2.663,2.807,2.478,2.478,0,0,0,2.663-2.807V5.515a2.478,2.478,0,0,0-2.663-2.807A2.478,2.478,0,0,0,15.1,5.515Zm7.655-5.837h1.356V14h1.754V2.836h-1.18a1.738,1.738,0,0,1-1.93,1.4Zm10.494.032a2.478,2.478,0,0,0-2.663-2.807,2.478,2.478,0,0,0-2.663,2.807V7.557c0,1.643.654,2.552,1.946,2.552A1.67,1.67,0,0,0,31.5,9.12v2.041c0,1.069-.351,1.372-.973,1.372-.558,0-.909-.3-.909-1.1v-.4H27.955v.287c0,1.786.893,2.807,2.616,2.807,1.818,0,2.679-1.021,2.679-2.9Zm-2.663,3c-.558,0-.909-.3-.909-1.1V5.4c0-.8.351-1.084.909-1.084s.909.287.909,1.084v2.01C31.5,8.211,31.145,8.514,30.587,8.514Z" transform="translate(522.07 230.44)" fill="#f2a947"/></g></svg>