<svg xmlns="http://www.w3.org/2000/svg" xmlns:xlink="http://www.w3.org/1999/xlink" width="276" height="266" viewBox="0 0 276 266"><defs><filter id="a" x="0" y="0" width="276" height="266" filterUnits="userSpaceOnUse"><feOffset dx="1" dy="3" input="SourceAlpha"/><feGaussianBlur stdDeviation="3" result="b"/><feFlood flood-opacity="0.149"/><feComposite operator="in" in2="b"/><feComposite in="SourceGraphic"/></filter></defs><g transform="translate(-101 -471)"><g transform="matrix(1, 0, 0, 1, 101, 471)" filter="url(#a)"><rect width="258" height="248" rx="8" transform="translate(8 6)" fill="#fff9ea"/></g><g transform="translate(2914.772 258.857)"><line y2="141.339" transform="translate(-2557.365 267.526)" stroke-width="2" stroke="#e3ddd5" stroke-linecap="round" stroke-linejoin="round" fill="none"/><line y2="141.339" transform="translate(-2599.023 267.526)" stroke-width="2" stroke="#e3ddd5" stroke-linecap="round" stroke-linejoin="round" fill="none"/><line y2="141.339" transform="translate(-2640.68 267.526)" stroke-width="2" stroke="#e3ddd5" stroke-linecap="round" stroke-linejoin="round" fill="none"/><line y2="141.339" transform="translate(-2682.338 267.526)" stroke-width="2" stroke="#e3ddd5" stroke-linecap="round" stroke-linejoin="round" fill="none"/><line y2="141.339" transform="translate(-2723.996 267.526)" stroke-width="2" stroke="#e3ddd5" stroke-linecap="round" stroke-linejoin="round" fill="none"/><line y2="141.339" transform="translate(-2765.654 267.526)" stroke-width="2" stroke="#e3ddd5" stroke-linecap="round" stroke-linejoin="round" fill="none"/><line x2="210.769" transform="translate(-2768.134 374.15)" stroke-width="2" stroke="#e3ddd5" stroke-linecap="round" stroke-linejoin="round" fill="none"/><line x2="210.769" transform="translate(-2768.134 339.435)" stroke-width="2" stroke="#e3ddd5" stroke-linecap="round" stroke-linejoin="round" fill="none"/><line x2="210.769" transform="translate(-2768.134 304.72)" stroke-width="2" stroke="#e3ddd5" stroke-linecap="round" stroke-linejoin="round" fill="none"/><line x2="210.769" transform="translate(-2768.134 270.005)" stroke-width="2" stroke="#e3ddd5" stroke-linecap="round" stroke-linejoin="round" fill="none"/></g><path d="M-2760.722,356.9h31.794a2.554,2.554,0,0,1,2.468,2.632v49.131h-36.73V359.532A2.554,2.554,0,0,1-2760.722,356.9Z" transform="translate(2914.772 258.857)" fill="#3f51b5"/><path d="M-2760.722,379.711h31.794a2.554,2.554,0,0,1,2.468,2.632v26.32h-36.73v-26.32A2.554,2.554,0,0,1-2760.722,379.711Z" transform="translate(2914.772 258.857)" fill="#ff4081"/><path d="M-2719.064,322.1h31.793a2.554,2.554,0,0,1,2.468,2.632v42.356h-36.729V324.732A2.554,2.554,0,0,1-2719.064,322.1Z" transform="translate(2914.772 258.857)" fill="#3f51b5"/><path d="M-2719.064,363.675h31.793a2.554,2.554,0,0,1,2.468,2.632v42.356h-36.729V366.307A2.554,2.554,0,0,1-2719.064,363.675Z" transform="translate(2914.772 258.857)" fill="#ff4081"/><path d="M-2677.406,301.228h31.793a2.554,2.554,0,0,1,2.468,2.632v47.6h-36.729v-47.6A2.554,2.554,0,0,1-2677.406,301.228Z" transform="translate(2914.772 258.857)" fill="#3f51b5"/><path d="M-2677.406,348.045h31.793a2.554,2.554,0,0,1,2.468,2.632v57.986h-36.729V350.677A2.554,2.554,0,0,1-2677.406,348.045Z" transform="translate(2914.772 258.857)" fill="#ff4081"/><path d="M-2635.748,346.329h31.793a2.554,2.554,0,0,1,2.468,2.632v47.6h-36.729v-47.6A2.554,2.554,0,0,1-2635.748,346.329Z" transform="translate(2914.772 258.857)" fill="#3f51b5"/><path d="M-2635.748,370.614h31.793a2.554,2.554,0,0,1,2.468,2.632v35.821h-36.729V373.246A2.554,2.554,0,0,1-2635.748,370.614Z" transform="translate(2914.772 258.857)" fill="#ff4081"/><path d="M-2594.09,374.15h31.793a2.554,2.554,0,0,1,2.468,2.632v32.285h-36.729V376.782A2.554,2.554,0,0,1-2594.09,374.15Z" transform="translate(2914.772 258.857)" fill="#3f51b5"/><path d="M-2594.09,387.093h31.793a2.554,2.554,0,0,1,2.468,2.632v18.938h-36.729V389.725A2.554,2.554,0,0,1-2594.09,387.093Z" transform="translate(2914.772 258.857)" fill="#ff4081"/><path d="M-5.61-11.858c0-1.1.484-1.518,1.254-1.518s1.254.418,1.254,1.518v8.316c0,1.1-.484,1.518-1.254,1.518S-5.61-2.442-5.61-3.542ZM-8.03-3.7c0,2.464,1.3,3.872,3.674,3.872S-.682-1.232-.682-3.7V-11.7c0-2.464-1.3-3.872-3.674-3.872S-8.03-14.168-8.03-11.7Z" transform="translate(135.453 670.714)" fill="#242549"/><path d="M-14.652-11.748h1.87V0h2.42V-15.4H-11.99a2.4,2.4,0,0,1-2.662,1.936Zm9.042-.11c0-1.1.484-1.518,1.254-1.518s1.254.418,1.254,1.518v8.316c0,1.1-.484,1.518-1.254,1.518S-5.61-2.442-5.61-3.542ZM-8.03-3.7c0,2.464,1.3,3.872,3.674,3.872S-.682-1.232-.682-3.7V-11.7c0-2.464-1.3-3.872-3.674-3.872S-8.03-14.168-8.03-11.7Z" transform="translate(135.453 636)" fill="#242549"/><path d="M-11.352-11.616c0,4.444-4.8,5.192-4.8,9.724V0h7V-2.2h-4.576a1.665,1.665,0,0,1-.022-.33c0-2.53,4.818-4.334,4.818-9.174,0-2.464-1.232-3.872-3.608-3.872s-3.608,1.408-3.608,3.872v1.5h2.288v-1.65c0-1.1.484-1.518,1.254-1.518S-11.352-13-11.352-11.616Zm5.742-.242c0-1.1.484-1.518,1.254-1.518s1.254.418,1.254,1.518v8.316c0,1.1-.484,1.518-1.254,1.518S-5.61-2.442-5.61-3.542ZM-8.03-3.7c0,2.464,1.3,3.872,3.674,3.872S-.682-1.232-.682-3.7V-11.7c0-2.464-1.3-3.872-3.674-3.872S-8.03-14.168-8.03-11.7Z" transform="translate(135.453 601.285)" fill="#242549"/><path d="M-11.484-10.758c0,1.232-.55,1.628-1.452,1.628h-.946v2.2h.814c1.1,0,1.584.528,1.584,1.958v1.21c0,1.364-.484,1.738-1.254,1.738s-1.254-.418-1.254-1.518v-1.43H-16.28V-3.7c0,2.464,1.232,3.872,3.608,3.872S-9.064-1.232-9.064-3.7v-1.21c0-1.562-.484-2.706-1.694-3.234,1.166-.484,1.694-1.518,1.694-3.168v-.4c0-2.464-1.232-3.872-3.608-3.872S-16.28-14.168-16.28-11.7v.836h2.288v-.99c0-1.1.484-1.518,1.254-1.518s1.254.374,1.254,1.76Zm5.874-1.1c0-1.1.484-1.518,1.254-1.518s1.254.418,1.254,1.518v8.316c0,1.1-.484,1.518-1.254,1.518S-5.61-2.442-5.61-3.542ZM-8.03-3.7c0,2.464,1.3,3.872,3.674,3.872S-.682-1.232-.682-3.7V-11.7c0-2.464-1.3-3.872-3.674-3.872S-8.03-14.168-8.03-11.7Z" transform="translate(135.453 566.57)" fill="#242549"/><path d="M-16.72-2.794h4.664V0H-9.68V-2.794h1.144v-2.2H-9.68V-15.4h-2.64l-4.4,10.406Zm2.222-2.2,2.442-5.786v5.786Zm8.888-6.864c0-1.1.484-1.518,1.254-1.518s1.254.418,1.254,1.518v8.316c0,1.1-.484,1.518-1.254,1.518S-5.61-2.442-5.61-3.542ZM-8.03-3.7c0,2.464,1.3,3.872,3.674,3.872S-.682-1.232-.682-3.7V-11.7c0-2.464-1.3-3.872-3.674-3.872S-8.03-14.168-8.03-11.7Z" transform="translate(135.453 531.856)" fill="#242549"/><g transform="translate(0 -13)"><text transform="translate(161.572 725.103)" fill="#242647" font-size="12" font-family="Helvetica-Bold, Helvetica" font-weight="700" style="isolation:isolate"><tspan x="0" y="0">Доля </tspan><tspan y="0" fill="#3f51b5">Мужчин</tspan></text><rect width="11.517" height="11.517" rx="2.303" transform="translate(147.516 716.356)" fill="#3f51b5"/><text transform="translate(269.25 725.103)" fill="#242647" font-size="12" font-family="Helvetica-Bold, Helvetica" font-weight="700" style="isolation:isolate"><tspan x="0" y="0">Доля </tspan><tspan y="0" fill="#ff4081">Женщин</tspan></text><rect width="11.517" height="11.517" rx="2.303" transform="translate(255.194 716.356)" fill="#ff4081"/></g><path d="M5.208-8.616H.984V0H4.932a4.961,4.961,0,0,0,1.32-.168,2.744,2.744,0,0,0,1.008-.5,2.235,2.235,0,0,0,.648-.8,2.453,2.453,0,0,0,.228-1.1,3.289,3.289,0,0,0-.048-.576,1.778,1.778,0,0,0-.18-.576A1.976,1.976,0,0,0,7.5-4.248a2.255,2.255,0,0,0-.7-.4,2.1,2.1,0,0,0,.48-.324,1.462,1.462,0,0,0,.336-.384A1.993,1.993,0,0,0,7.8-5.82a2.953,2.953,0,0,0,.06-.588,3.422,3.422,0,0,0-.048-.48,2.76,2.76,0,0,0-.168-.5,1.876,1.876,0,0,0-.324-.456,1.786,1.786,0,0,0-.492-.4,2.541,2.541,0,0,0-.684-.264A3.715,3.715,0,0,0,5.208-8.616Zm-.276,3.4H2.712V-7.128H4.98a2.661,2.661,0,0,1,.444.036,1.5,1.5,0,0,1,.372.144.733.733,0,0,1,.252.288,1.033,1.033,0,0,1,.084.456,1.065,1.065,0,0,1-.1.456.8.8,0,0,1-.264.3,1.031,1.031,0,0,1-.384.18A2.793,2.793,0,0,1,4.932-5.22Zm.024,3.732H2.712V-3.8h2.2a3.9,3.9,0,0,1,.528.036,1.231,1.231,0,0,1,.456.168.91.91,0,0,1,.324.348,1.36,1.36,0,0,1,.12.6,1.364,1.364,0,0,1-.1.516,1.063,1.063,0,0,1-.288.36,1.39,1.39,0,0,1-.444.216A1.984,1.984,0,0,1,4.956-1.488Zm4.116-1.7A4.067,4.067,0,0,0,9.3-1.836a2.889,2.889,0,0,0,.648,1.08,3.13,3.13,0,0,0,1.032.7,3.5,3.5,0,0,0,1.356.252,3.581,3.581,0,0,0,1.38-.252,2.96,2.96,0,0,0,1.02-.7,3.241,3.241,0,0,0,.648-1.08A4.068,4.068,0,0,0,15.6-3.192a4.068,4.068,0,0,0-.216-1.356,3.241,3.241,0,0,0-.648-1.08,2.8,2.8,0,0,0-1.02-.7,3.581,3.581,0,0,0-1.38-.252,3.5,3.5,0,0,0-1.356.252,2.958,2.958,0,0,0-1.032.7A2.889,2.889,0,0,0,9.3-4.548,4.067,4.067,0,0,0,9.072-3.192Zm1.728,0a3.683,3.683,0,0,1,.084-.72,1.665,1.665,0,0,1,.264-.636,1.382,1.382,0,0,1,.468-.444,1.452,1.452,0,0,1,.72-.168A1.521,1.521,0,0,1,13.08-5a1.508,1.508,0,0,1,.468.444,1.767,1.767,0,0,1,.252.636,3.694,3.694,0,0,1,.072.732,3.694,3.694,0,0,1-.072.732,1.707,1.707,0,0,1-.252.624,1.382,1.382,0,0,1-.468.444,1.517,1.517,0,0,1-.744.168,1.452,1.452,0,0,1-.72-.168,1.31,1.31,0,0,1-.468-.456,1.589,1.589,0,0,1-.264-.636A3.461,3.461,0,0,1,10.8-3.192ZM16.428-4.62h1.56a.712.712,0,0,1,.276-.588,1.176,1.176,0,0,1,.708-.192,1.663,1.663,0,0,1,.36.036,1.039,1.039,0,0,1,.288.12A.9.9,0,0,1,19.8-5a.9.9,0,0,1,.072.372.74.74,0,0,1-.228.564,1.318,1.318,0,0,1-.792.192h-.636v1.1h.756a1.379,1.379,0,0,1,.792.18.759.759,0,0,1,.252.648.919.919,0,0,1-.048.3,1.191,1.191,0,0,1-.168.324.936.936,0,0,1-.312.24,1.32,1.32,0,0,1-.516.1,1.347,1.347,0,0,1-.456-.072,1.426,1.426,0,0,1-.348-.216A.763.763,0,0,1,17.94-1.6.921.921,0,0,1,17.856-2H16.272a2.142,2.142,0,0,0,.216,1.02,1.723,1.723,0,0,0,.588.684,2.4,2.4,0,0,0,.888.384A5.575,5.575,0,0,0,19.1.192a3.668,3.668,0,0,0,.948-.12A2.388,2.388,0,0,0,20.9-.312,2.062,2.062,0,0,0,21.5-1,1.874,1.874,0,0,0,21.744-2a2.085,2.085,0,0,0-.06-.468,1.459,1.459,0,0,0-.216-.432,1.53,1.53,0,0,0-.384-.348,1.551,1.551,0,0,0-.576-.192v-.024a1.6,1.6,0,0,0,.4-.156,1.168,1.168,0,0,0,.324-.276,1.125,1.125,0,0,0,.216-.372,1.347,1.347,0,0,0,.084-.5,1.651,1.651,0,0,0-.144-.672,1.615,1.615,0,0,0-.432-.564A2.078,2.078,0,0,0,20.2-6.42,3.683,3.683,0,0,0,19.1-6.576a4.92,4.92,0,0,0-1.056.108,2.638,2.638,0,0,0-.84.348,1.685,1.685,0,0,0-.564.6A2.073,2.073,0,0,0,16.428-4.62Zm7.908-.852v-.912H22.752V2.472h1.656V-.792h.024a1.9,1.9,0,0,0,.372.48,1.608,1.608,0,0,0,.444.3,1.73,1.73,0,0,0,.48.156,2.172,2.172,0,0,0,.48.048A2.733,2.733,0,0,0,27.42-.06a2.558,2.558,0,0,0,.84-.72,3.174,3.174,0,0,0,.5-1.116,5.21,5.21,0,0,0,.168-1.416,4.381,4.381,0,0,0-.12-1.1,3.139,3.139,0,0,0-.312-.84,2.5,2.5,0,0,0-.468-.624,2.463,2.463,0,0,0-.552-.4,2.538,2.538,0,0,0-.612-.228,2.641,2.641,0,0,0-.6-.072,2.411,2.411,0,0,0-.624.072,1.766,1.766,0,0,0-.516.192,1.789,1.789,0,0,0-.408.336,2.7,2.7,0,0,0-.36.5Zm1.44.384a1.328,1.328,0,0,1,.672.168,1.565,1.565,0,0,1,.444.444,2.325,2.325,0,0,1,.24.612,3.2,3.2,0,0,1,.072.672c0,.12,0,.252-.012.4s-.048.288-.084.432a4.34,4.34,0,0,1-.156.42,1.723,1.723,0,0,1-.264.372,1.772,1.772,0,0,1-.384.252,1.383,1.383,0,0,1-.528.1,1.383,1.383,0,0,1-.528-.1,1.772,1.772,0,0,1-.384-.252,1.134,1.134,0,0,1-.252-.372,2.556,2.556,0,0,1-.168-.42,2.7,2.7,0,0,1-.072-.432,2.33,2.33,0,0,1-.024-.4,3.2,3.2,0,0,1,.072-.672,1.992,1.992,0,0,1,.252-.612A1.386,1.386,0,0,1,25.1-4.92,1.3,1.3,0,0,1,25.776-5.088ZM35.292-1.26V-4.644a2.687,2.687,0,0,0-.1-.684,1.53,1.53,0,0,0-.4-.624,2.449,2.449,0,0,0-.828-.456,4.951,4.951,0,0,0-1.392-.168,4.109,4.109,0,0,0-1.032.144,2.59,2.59,0,0,0-.732.336,1.849,1.849,0,0,0-.492.468,2.372,2.372,0,0,0-.288.492,2.176,2.176,0,0,0-.144.456,2.166,2.166,0,0,0-.036.324h1.656l.072-.348a.782.782,0,0,1,.18-.276.827.827,0,0,1,.324-.192,2,2,0,0,1,.528-.06,1.949,1.949,0,0,1,.492.048.763.763,0,0,1,.312.156.54.54,0,0,1,.168.228,1.031,1.031,0,0,1,.048.288.572.572,0,0,1-.06.264.414.414,0,0,1-.144.144.394.394,0,0,1-.192.084,1.325,1.325,0,0,1-.192.036l-1.62.24a2.015,2.015,0,0,0-.732.228,1.923,1.923,0,0,0-.552.42,1.908,1.908,0,0,0-.348.588,2.083,2.083,0,0,0-.12.732,2.3,2.3,0,0,0,.144.852,1.762,1.762,0,0,0,.408.624,1.917,1.917,0,0,0,.624.372,2.385,2.385,0,0,0,.792.12,3.173,3.173,0,0,0,.72-.072,2.1,2.1,0,0,0,.528-.2,2.6,2.6,0,0,0,.42-.288l.372-.372a1.2,1.2,0,0,0,.06.444l.1.3h1.836V-.264a.327.327,0,0,1-.144-.072.379.379,0,0,1-.12-.168.748.748,0,0,1-.084-.288A2.468,2.468,0,0,1,35.292-1.26ZM33.636-3.12v.648a1.842,1.842,0,0,1-.084.552,1.019,1.019,0,0,1-.216.408,1,1,0,0,1-.288.264,2.087,2.087,0,0,1-.324.168,1.9,1.9,0,0,1-.312.072,2.291,2.291,0,0,1-.24.024,1.035,1.035,0,0,1-.336-.048.659.659,0,0,1-.252-.144.672.672,0,0,1-.192-.252,1,1,0,0,1-.06-.348.994.994,0,0,1,.072-.408.828.828,0,0,1,.216-.288,1.261,1.261,0,0,1,.36-.18,3.914,3.914,0,0,1,.5-.12l.444-.084a1.5,1.5,0,0,0,.408-.12A1.709,1.709,0,0,0,33.636-3.12Zm6.912-1.008h1.728a2.885,2.885,0,0,0-.18-.852,2.507,2.507,0,0,0-.36-.636,2.551,2.551,0,0,0-.5-.456,3.878,3.878,0,0,0-.588-.3,2.867,2.867,0,0,0-.612-.156,5.7,5.7,0,0,0-.612-.048,3.091,3.091,0,0,0-1.224.228,2.478,2.478,0,0,0-.948.648,3.057,3.057,0,0,0-.612,1.056,4.455,4.455,0,0,0-.216,1.452,4.794,4.794,0,0,0,.2,1.44A2.849,2.849,0,0,0,37.2-.684a2.5,2.5,0,0,0,.936.66A3.556,3.556,0,0,0,39.42.192a3.166,3.166,0,0,0,1-.144,2.7,2.7,0,0,0,.744-.372,2.406,2.406,0,0,0,.54-.5,4.094,4.094,0,0,0,.336-.564,3.664,3.664,0,0,0,.192-.54,1.936,1.936,0,0,0,.048-.408H40.548a1.248,1.248,0,0,1-.06.348,1.306,1.306,0,0,1-.216.372,1.31,1.31,0,0,1-.348.276.98.98,0,0,1-.5.12,1.078,1.078,0,0,1-.684-.192,1.073,1.073,0,0,1-.384-.48,1.775,1.775,0,0,1-.168-.636,6.426,6.426,0,0,1-.036-.66A6.349,6.349,0,0,1,38.2-3.84a2.359,2.359,0,0,1,.18-.648,1.241,1.241,0,0,1,.384-.48,1.028,1.028,0,0,1,.66-.192,1.774,1.774,0,0,1,.468.06.925.925,0,0,1,.324.2.881.881,0,0,1,.2.324A1.949,1.949,0,0,1,40.548-4.128Zm2.376-2.256V-5.04h1.932V0h1.656V-5.04h1.932V-6.384ZM52.44-4.62H54a.712.712,0,0,1,.276-.588,1.176,1.176,0,0,1,.708-.192,1.663,1.663,0,0,1,.36.036,1.039,1.039,0,0,1,.288.12.9.9,0,0,1,.18.24.9.9,0,0,1,.072.372.74.74,0,0,1-.228.564,1.318,1.318,0,0,1-.792.192h-.636v1.1h.756a1.379,1.379,0,0,1,.792.18.759.759,0,0,1,.252.648.919.919,0,0,1-.048.3,1.191,1.191,0,0,1-.168.324.936.936,0,0,1-.312.24,1.32,1.32,0,0,1-.516.1,1.347,1.347,0,0,1-.456-.072,1.426,1.426,0,0,1-.348-.216.763.763,0,0,1-.228-.324A.921.921,0,0,1,53.868-2H52.284A2.141,2.141,0,0,0,52.5-.984a1.723,1.723,0,0,0,.588.684,2.4,2.4,0,0,0,.888.384,5.575,5.575,0,0,0,1.14.108,3.668,3.668,0,0,0,.948-.12,2.388,2.388,0,0,0,.852-.384,2.062,2.062,0,0,0,.6-.684A1.874,1.874,0,0,0,57.756-2a2.085,2.085,0,0,0-.06-.468A1.459,1.459,0,0,0,57.48-2.9a1.53,1.53,0,0,0-.384-.348,1.551,1.551,0,0,0-.576-.192v-.024a1.6,1.6,0,0,0,.4-.156A1.168,1.168,0,0,0,57.24-3.9a1.125,1.125,0,0,0,.216-.372,1.347,1.347,0,0,0,.084-.5,1.651,1.651,0,0,0-.144-.672,1.615,1.615,0,0,0-.432-.564,2.078,2.078,0,0,0-.756-.408,3.683,3.683,0,0,0-1.092-.156,4.92,4.92,0,0,0-1.056.108,2.638,2.638,0,0,0-.84.348,1.685,1.685,0,0,0-.564.6A2.073,2.073,0,0,0,52.44-4.62Zm7.908-.852v-.912H58.764V2.472H60.42V-.792h.024a1.9,1.9,0,0,0,.372.48,1.608,1.608,0,0,0,.444.3,1.729,1.729,0,0,0,.48.156,2.172,2.172,0,0,0,.48.048A2.733,2.733,0,0,0,63.432-.06a2.558,2.558,0,0,0,.84-.72,3.174,3.174,0,0,0,.5-1.116,5.21,5.21,0,0,0,.168-1.416,4.381,4.381,0,0,0-.12-1.1,3.139,3.139,0,0,0-.312-.84,2.5,2.5,0,0,0-.468-.624,2.463,2.463,0,0,0-.552-.4A2.538,2.538,0,0,0,62.88-6.5a2.641,2.641,0,0,0-.6-.072,2.411,2.411,0,0,0-.624.072,1.766,1.766,0,0,0-.516.192,1.789,1.789,0,0,0-.408.336,2.7,2.7,0,0,0-.36.5Zm1.44.384a1.328,1.328,0,0,1,.672.168,1.565,1.565,0,0,1,.444.444,2.325,2.325,0,0,1,.24.612,3.2,3.2,0,0,1,.072.672c0,.12,0,.252-.012.4s-.048.288-.084.432a4.339,4.339,0,0,1-.156.42,1.723,1.723,0,0,1-.264.372,1.772,1.772,0,0,1-.384.252,1.383,1.383,0,0,1-.528.1,1.383,1.383,0,0,1-.528-.1,1.772,1.772,0,0,1-.384-.252,1.134,1.134,0,0,1-.252-.372,2.556,2.556,0,0,1-.168-.42,2.705,2.705,0,0,1-.072-.432,2.33,2.33,0,0,1-.024-.4,3.2,3.2,0,0,1,.072-.672,1.992,1.992,0,0,1,.252-.612,1.386,1.386,0,0,1,.432-.444A1.3,1.3,0,0,1,61.788-5.088ZM67.8-2.448V-6.384H66.144V0h1.812l2.256-3.852h.024V0h1.656V-6.384h-1.74L67.824-2.448Zm5.124-3.936V-5.04h1.932V0h1.656V-5.04h1.932V-6.384Zm7.74,3.708h4.38a8.086,8.086,0,0,0-.156-1.6,3.193,3.193,0,0,0-.5-1.236,2.507,2.507,0,0,0-.936-.792,3.365,3.365,0,0,0-1.428-.276,2.96,2.96,0,0,0-1.368.276,2.519,2.519,0,0,0-.948.732,2.823,2.823,0,0,0-.528,1.056A4.3,4.3,0,0,0,79-3.264a4.806,4.806,0,0,0,.24,1.6A2.884,2.884,0,0,0,79.9-.6a2.373,2.373,0,0,0,.984.6,3.475,3.475,0,0,0,1.188.192A3.587,3.587,0,0,0,82.98.084a3.206,3.206,0,0,0,.72-.276,2.244,2.244,0,0,0,.564-.4,2.762,2.762,0,0,0,.4-.456,2.7,2.7,0,0,0,.228-.456,1.261,1.261,0,0,0,.072-.4H83.244a.953.953,0,0,1-.156.312,1.142,1.142,0,0,1-.252.228.869.869,0,0,1-.324.144,1.115,1.115,0,0,1-.348.06,1.6,1.6,0,0,1-.576-.1,1.034,1.034,0,0,1-.408-.228.853.853,0,0,1-.276-.312,2.1,2.1,0,0,1-.156-.336,1.094,1.094,0,0,1-.06-.324A2.115,2.115,0,0,1,80.664-2.676Zm2.652-1.1H80.724a1.589,1.589,0,0,1,.132-.708,1.1,1.1,0,0,1,.312-.444,1.128,1.128,0,0,1,.42-.24,1.869,1.869,0,0,1,.432-.06,1.785,1.785,0,0,1,.432.06,1.282,1.282,0,0,1,.432.24,1.4,1.4,0,0,1,.312.444A1.784,1.784,0,0,1,83.316-3.78Zm7.272-1.26V0h1.644V-6.384H87.1l-.048,2.412c-.012.564-.036,1.02-.072,1.38a4.454,4.454,0,0,1-.168.84.851.851,0,0,1-.252.408.482.482,0,0,1-.336.12,2.023,2.023,0,0,1-.3-.024A2.266,2.266,0,0,1,85.7-1.32V.072a1.776,1.776,0,0,0,.348.1c.144.012.3.024.492.024a1.761,1.761,0,0,0,.984-.252,1.894,1.894,0,0,0,.612-.768,5.043,5.043,0,0,0,.324-1.26c.06-.5.108-1.092.132-1.764L88.62-5.04Zm7.476,2.688V0h1.668V-6.384H96c-.12.012-.252.012-.4.036a2.641,2.641,0,0,0-.444.084,1.453,1.453,0,0,0-.42.156,1.848,1.848,0,0,0-.336.228,1.393,1.393,0,0,0-.288.348,1.454,1.454,0,0,0-.216.456,2.356,2.356,0,0,0-.084.612,1.036,1.036,0,0,0,.012.18,1.641,1.641,0,0,0,.024.228l.072.24a.646.646,0,0,0,.12.24,1.854,1.854,0,0,0,.228.288,1.141,1.141,0,0,0,.24.18.7.7,0,0,0,.228.12l.192.072a2.265,2.265,0,0,0-.444.18.693.693,0,0,0-.252.24.877.877,0,0,0-.132.324,2.144,2.144,0,0,0-.072.444l-.084.768a1.8,1.8,0,0,0-.024.24l-.036.228a1.412,1.412,0,0,1-.084.24,1.2,1.2,0,0,1-.12.252h1.752a1.868,1.868,0,0,0,.12-.444l.024-.348L95.6-1.4a1.8,1.8,0,0,1,.1-.516.733.733,0,0,1,.252-.288,1.246,1.246,0,0,1,.42-.12c.168-.012.372-.024.612-.024ZM96.732-5.136h1.332v1.608h-1.38c-.132,0-.264,0-.4-.012a.882.882,0,0,1-.36-.084.638.638,0,0,1-.264-.24.8.8,0,0,1-.108-.456.844.844,0,0,1,.108-.468.536.536,0,0,1,.264-.252,1,1,0,0,1,.384-.084C96.444-5.136,96.588-5.136,96.732-5.136Zm8.328-1.32a7.779,7.779,0,0,0-.7,3.192A8.738,8.738,0,0,0,105.18.312a8.3,8.3,0,0,0,.864,1.536l.42.576H107.7A15.162,15.162,0,0,1,106.62.132a9.965,9.965,0,0,1-.528-3.3,11.507,11.507,0,0,1,.192-2.112,9.753,9.753,0,0,1,1.032-2.844l.348-.648H106.4A11.886,11.886,0,0,0,105.06-6.456Zm8.016,1.416V0h1.644V-6.384h-5.136l-.048,2.412c-.012.564-.036,1.02-.072,1.38a4.454,4.454,0,0,1-.168.84.851.851,0,0,1-.252.408.482.482,0,0,1-.336.12,2.023,2.023,0,0,1-.3-.024,2.266,2.266,0,0,1-.216-.072V.072a1.776,1.776,0,0,0,.348.1c.144.012.3.024.492.024a1.761,1.761,0,0,0,.984-.252,1.894,1.894,0,0,0,.612-.768,5.043,5.043,0,0,0,.324-1.26c.06-.5.108-1.092.132-1.764l.024-1.188Zm4.572,2.364h4.38a8.086,8.086,0,0,0-.156-1.6,3.193,3.193,0,0,0-.5-1.236,2.507,2.507,0,0,0-.936-.792A3.365,3.365,0,0,0,119-6.576a2.96,2.96,0,0,0-1.368.276,2.519,2.519,0,0,0-.948.732,2.823,2.823,0,0,0-.528,1.056,4.3,4.3,0,0,0-.18,1.248,4.806,4.806,0,0,0,.24,1.6A2.884,2.884,0,0,0,116.88-.6a2.373,2.373,0,0,0,.984.6,3.475,3.475,0,0,0,1.188.192,3.587,3.587,0,0,0,.912-.108,3.206,3.206,0,0,0,.72-.276,2.244,2.244,0,0,0,.564-.4,2.762,2.762,0,0,0,.4-.456,2.7,2.7,0,0,0,.228-.456,1.261,1.261,0,0,0,.072-.4h-1.716a.953.953,0,0,1-.156.312,1.142,1.142,0,0,1-.252.228.869.869,0,0,1-.324.144,1.115,1.115,0,0,1-.348.06,1.6,1.6,0,0,1-.576-.1,1.034,1.034,0,0,1-.408-.228.853.853,0,0,1-.276-.312,2.1,2.1,0,0,1-.156-.336,1.094,1.094,0,0,1-.06-.324A2.115,2.115,0,0,1,117.648-2.676Zm2.652-1.1h-2.592a1.589,1.589,0,0,1,.132-.708,1.1,1.1,0,0,1,.312-.444,1.128,1.128,0,0,1,.42-.24,1.869,1.869,0,0,1,.432-.06,1.785,1.785,0,0,1,.432.06,1.282,1.282,0,0,1,.432.24,1.4,1.4,0,0,1,.312.444A1.784,1.784,0,0,1,120.3-3.78Zm2.28-2.6V-5.04h1.932V0h1.656V-5.04H128.1V-6.384Zm8.52-.072a11.885,11.885,0,0,0-1.344-2.316H128.5l.348.648a9.753,9.753,0,0,1,1.032,2.844,11.506,11.506,0,0,1,.192,2.112,9.965,9.965,0,0,1-.528,3.3,15.162,15.162,0,0,1-1.08,2.292H129.7l.42-.576A8.3,8.3,0,0,0,130.98.312a8.739,8.739,0,0,0,.816-3.576A7.779,7.779,0,0,0,131.1-6.456Z" transform="translate(146.94 692.49)" fill="#a9a7a9"/><path d="M6.076-10.052H1.148V0H5.754a5.788,5.788,0,0,0,1.54-.2A3.2,3.2,0,0,0,8.47-.784a2.608,2.608,0,0,0,.756-.938A2.862,2.862,0,0,0,9.492-3.01a3.837,3.837,0,0,0-.056-.672,2.074,2.074,0,0,0-.21-.672,2.305,2.305,0,0,0-.476-.6,2.631,2.631,0,0,0-.812-.462A2.446,2.446,0,0,0,8.5-5.8a1.705,1.705,0,0,0,.392-.448A2.325,2.325,0,0,0,9.1-6.79a3.445,3.445,0,0,0,.07-.686,3.992,3.992,0,0,0-.056-.56,3.22,3.22,0,0,0-.2-.588,2.188,2.188,0,0,0-.378-.532,2.083,2.083,0,0,0-.574-.462,2.964,2.964,0,0,0-.8-.308A4.334,4.334,0,0,0,6.076-10.052ZM5.754-6.09H3.164V-8.316H5.81a3.1,3.1,0,0,1,.518.042,1.753,1.753,0,0,1,.434.168.856.856,0,0,1,.294.336,1.2,1.2,0,0,1,.1.532,1.242,1.242,0,0,1-.112.532.932.932,0,0,1-.308.35,1.2,1.2,0,0,1-.448.21A3.259,3.259,0,0,1,5.754-6.09Zm.028,4.354H3.164v-2.7H5.726a4.554,4.554,0,0,1,.616.042,1.436,1.436,0,0,1,.532.2,1.062,1.062,0,0,1,.378.406,1.587,1.587,0,0,1,.14.7,1.591,1.591,0,0,1-.112.6,1.24,1.24,0,0,1-.336.42,1.622,1.622,0,0,1-.518.252A2.314,2.314,0,0,1,5.782-1.736Zm4.8-1.988a4.745,4.745,0,0,0,.266,1.582,3.37,3.37,0,0,0,.756,1.26,3.652,3.652,0,0,0,1.2.812,4.084,4.084,0,0,0,1.582.294A4.178,4.178,0,0,0,16-.07a3.453,3.453,0,0,0,1.19-.812,3.781,3.781,0,0,0,.756-1.26A4.747,4.747,0,0,0,18.2-3.724a4.747,4.747,0,0,0-.252-1.582,3.781,3.781,0,0,0-.756-1.26A3.271,3.271,0,0,0,16-7.378a4.178,4.178,0,0,0-1.61-.294,4.084,4.084,0,0,0-1.582.294,3.451,3.451,0,0,0-1.2.812,3.37,3.37,0,0,0-.756,1.26A4.745,4.745,0,0,0,10.584-3.724Zm2.016,0a4.3,4.3,0,0,1,.1-.84,1.942,1.942,0,0,1,.308-.742,1.612,1.612,0,0,1,.546-.518,1.694,1.694,0,0,1,.84-.2,1.774,1.774,0,0,1,.868.182,1.759,1.759,0,0,1,.546.518,2.061,2.061,0,0,1,.294.742,4.309,4.309,0,0,1,.084.854,4.309,4.309,0,0,1-.084.854,1.991,1.991,0,0,1-.294.728,1.612,1.612,0,0,1-.546.518,1.769,1.769,0,0,1-.868.2,1.694,1.694,0,0,1-.84-.2,1.528,1.528,0,0,1-.546-.532A1.854,1.854,0,0,1,12.7-2.9,4.038,4.038,0,0,1,12.6-3.724ZM19.166-5.39h1.82a.831.831,0,0,1,.322-.686,1.372,1.372,0,0,1,.826-.224,1.94,1.94,0,0,1,.42.042,1.212,1.212,0,0,1,.336.14,1.049,1.049,0,0,1,.21.28,1.044,1.044,0,0,1,.084.434.863.863,0,0,1-.266.658,1.537,1.537,0,0,1-.924.224h-.742v1.288h.882a1.609,1.609,0,0,1,.924.21.886.886,0,0,1,.294.756,1.072,1.072,0,0,1-.056.35,1.39,1.39,0,0,1-.2.378,1.092,1.092,0,0,1-.364.28,1.539,1.539,0,0,1-.6.112,1.571,1.571,0,0,1-.532-.084,1.664,1.664,0,0,1-.406-.252.89.89,0,0,1-.266-.378,1.074,1.074,0,0,1-.1-.476H18.984a2.5,2.5,0,0,0,.252,1.19,2.01,2.01,0,0,0,.686.8A2.8,2.8,0,0,0,20.958.1a6.5,6.5,0,0,0,1.33.126,4.279,4.279,0,0,0,1.106-.14,2.785,2.785,0,0,0,.994-.448,2.406,2.406,0,0,0,.7-.8,2.186,2.186,0,0,0,.28-1.176,2.432,2.432,0,0,0-.07-.546,1.7,1.7,0,0,0-.252-.5,1.785,1.785,0,0,0-.448-.406,1.81,1.81,0,0,0-.672-.224v-.028a1.867,1.867,0,0,0,.462-.182,1.363,1.363,0,0,0,.378-.322,1.313,1.313,0,0,0,.252-.434,1.572,1.572,0,0,0,.1-.588,1.927,1.927,0,0,0-.168-.784,1.884,1.884,0,0,0-.5-.658,2.424,2.424,0,0,0-.882-.476,4.3,4.3,0,0,0-1.274-.182,5.739,5.739,0,0,0-1.232.126,3.078,3.078,0,0,0-.98.406,1.965,1.965,0,0,0-.658.7A2.419,2.419,0,0,0,19.166-5.39Zm9.226-.994V-7.448H26.544V2.884h1.932V-.924H28.5a2.211,2.211,0,0,0,.434.56,1.876,1.876,0,0,0,.518.35,2.018,2.018,0,0,0,.56.182,2.534,2.534,0,0,0,.56.056A3.188,3.188,0,0,0,31.99-.07a2.985,2.985,0,0,0,.98-.84,3.7,3.7,0,0,0,.588-1.3,6.078,6.078,0,0,0,.2-1.652,5.112,5.112,0,0,0-.14-1.288,3.663,3.663,0,0,0-.364-.98A2.915,2.915,0,0,0,32.7-6.86a2.873,2.873,0,0,0-.644-.462,2.961,2.961,0,0,0-.714-.266,3.081,3.081,0,0,0-.7-.084,2.813,2.813,0,0,0-.728.084,2.06,2.06,0,0,0-.6.224,2.088,2.088,0,0,0-.476.392,3.153,3.153,0,0,0-.42.588Zm1.68.448a1.55,1.55,0,0,1,.784.2,1.826,1.826,0,0,1,.518.518,2.712,2.712,0,0,1,.28.714,3.732,3.732,0,0,1,.084.784c0,.14,0,.294-.014.462s-.056.336-.1.5a5.063,5.063,0,0,1-.182.49,2.01,2.01,0,0,1-.308.434,2.068,2.068,0,0,1-.448.294,1.613,1.613,0,0,1-.616.112,1.613,1.613,0,0,1-.616-.112,2.068,2.068,0,0,1-.448-.294,1.323,1.323,0,0,1-.294-.434,2.982,2.982,0,0,1-.2-.49,3.156,3.156,0,0,1-.084-.5,2.719,2.719,0,0,1-.028-.462,3.732,3.732,0,0,1,.084-.784,2.324,2.324,0,0,1,.294-.714,1.617,1.617,0,0,1,.5-.518A1.513,1.513,0,0,1,30.072-5.936Zm11.1,4.466V-5.418a3.135,3.135,0,0,0-.112-.8,1.785,1.785,0,0,0-.462-.728,2.858,2.858,0,0,0-.966-.532,5.776,5.776,0,0,0-1.624-.2,4.794,4.794,0,0,0-1.2.168,3.022,3.022,0,0,0-.854.392,2.157,2.157,0,0,0-.574.546,2.767,2.767,0,0,0-.336.574,2.539,2.539,0,0,0-.168.532,2.527,2.527,0,0,0-.042.378h1.932l.084-.406a.912.912,0,0,1,.21-.322.965.965,0,0,1,.378-.224,2.327,2.327,0,0,1,.616-.07,2.274,2.274,0,0,1,.574.056.891.891,0,0,1,.364.182.63.63,0,0,1,.2.266,1.2,1.2,0,0,1,.056.336.667.667,0,0,1-.07.308A.483.483,0,0,1,39-4.788a.46.46,0,0,1-.224.1,1.546,1.546,0,0,1-.224.042l-1.89.28a2.351,2.351,0,0,0-.854.266,2.243,2.243,0,0,0-.644.49,2.226,2.226,0,0,0-.406.686,2.43,2.43,0,0,0-.14.854,2.687,2.687,0,0,0,.168.994,2.056,2.056,0,0,0,.476.728,2.237,2.237,0,0,0,.728.434,2.782,2.782,0,0,0,.924.14,3.7,3.7,0,0,0,.84-.084A2.456,2.456,0,0,0,38.374-.1a3.03,3.03,0,0,0,.49-.336L39.3-.868a1.405,1.405,0,0,0,.07.518L39.48,0h2.142V-.308a.382.382,0,0,1-.168-.084.443.443,0,0,1-.14-.2.873.873,0,0,1-.1-.336A2.879,2.879,0,0,1,41.174-1.47ZM39.242-3.64v.756a2.149,2.149,0,0,1-.1.644,1.188,1.188,0,0,1-.252.476,1.161,1.161,0,0,1-.336.308,2.435,2.435,0,0,1-.378.2,2.21,2.21,0,0,1-.364.084,2.673,2.673,0,0,1-.28.028,1.208,1.208,0,0,1-.392-.056.768.768,0,0,1-.294-.168.784.784,0,0,1-.224-.294,1.171,1.171,0,0,1-.07-.406,1.16,1.16,0,0,1,.084-.476.966.966,0,0,1,.252-.336,1.472,1.472,0,0,1,.42-.21,4.566,4.566,0,0,1,.588-.14l.518-.1a1.755,1.755,0,0,0,.476-.14A1.994,1.994,0,0,0,39.242-3.64Zm8.064-1.176h2.016a3.366,3.366,0,0,0-.21-.994,2.925,2.925,0,0,0-.42-.742,2.976,2.976,0,0,0-.588-.532,4.524,4.524,0,0,0-.686-.35,3.344,3.344,0,0,0-.714-.182,6.645,6.645,0,0,0-.714-.056,3.606,3.606,0,0,0-1.428.266,2.891,2.891,0,0,0-1.106.756,3.566,3.566,0,0,0-.714,1.232,5.2,5.2,0,0,0-.252,1.694,5.593,5.593,0,0,0,.238,1.68A3.323,3.323,0,0,0,43.4-.8a2.92,2.92,0,0,0,1.092.77,4.148,4.148,0,0,0,1.5.252A3.693,3.693,0,0,0,47.152.056a3.149,3.149,0,0,0,.868-.434,2.807,2.807,0,0,0,.63-.588,4.776,4.776,0,0,0,.392-.658,4.275,4.275,0,0,0,.224-.63,2.259,2.259,0,0,0,.056-.476H47.306a1.456,1.456,0,0,1-.07.406,1.523,1.523,0,0,1-.252.434,1.528,1.528,0,0,1-.406.322,1.143,1.143,0,0,1-.588.14,1.257,1.257,0,0,1-.8-.224,1.251,1.251,0,0,1-.448-.56,2.071,2.071,0,0,1-.2-.742,7.5,7.5,0,0,1-.042-.77,7.407,7.407,0,0,1,.056-.756,2.752,2.752,0,0,1,.21-.756,1.448,1.448,0,0,1,.448-.56,1.2,1.2,0,0,1,.77-.224,2.07,2.07,0,0,1,.546.07,1.079,1.079,0,0,1,.378.238,1.028,1.028,0,0,1,.238.378A2.274,2.274,0,0,1,47.306-4.816Zm2.772-2.632V-5.88h2.254V0h1.932V-5.88h2.254V-7.448ZM67.634-1.47V-5.418a3.135,3.135,0,0,0-.112-.8,1.785,1.785,0,0,0-.462-.728,2.858,2.858,0,0,0-.966-.532,5.776,5.776,0,0,0-1.624-.2,4.794,4.794,0,0,0-1.2.168,3.022,3.022,0,0,0-.854.392,2.157,2.157,0,0,0-.574.546,2.767,2.767,0,0,0-.336.574,2.539,2.539,0,0,0-.168.532,2.527,2.527,0,0,0-.042.378h1.932l.084-.406a.912.912,0,0,1,.21-.322.965.965,0,0,1,.378-.224,2.327,2.327,0,0,1,.616-.07,2.274,2.274,0,0,1,.574.056.891.891,0,0,1,.364.182.63.63,0,0,1,.2.266,1.2,1.2,0,0,1,.056.336.667.667,0,0,1-.07.308.483.483,0,0,1-.168.168.46.46,0,0,1-.224.1,1.546,1.546,0,0,1-.224.042l-1.89.28a2.351,2.351,0,0,0-.854.266,2.243,2.243,0,0,0-.644.49,2.226,2.226,0,0,0-.406.686,2.43,2.43,0,0,0-.14.854,2.687,2.687,0,0,0,.168.994,2.056,2.056,0,0,0,.476.728,2.237,2.237,0,0,0,.728.434,2.782,2.782,0,0,0,.924.14,3.7,3.7,0,0,0,.84-.084A2.456,2.456,0,0,0,64.834-.1a3.029,3.029,0,0,0,.49-.336l.434-.434a1.405,1.405,0,0,0,.07.518L65.94,0h2.142V-.308a.382.382,0,0,1-.168-.084.443.443,0,0,1-.14-.2.873.873,0,0,1-.1-.336A2.879,2.879,0,0,1,67.634-1.47ZM65.7-3.64v.756a2.149,2.149,0,0,1-.1.644,1.188,1.188,0,0,1-.252.476,1.161,1.161,0,0,1-.336.308,2.435,2.435,0,0,1-.378.2,2.21,2.21,0,0,1-.364.084,2.673,2.673,0,0,1-.28.028A1.208,1.208,0,0,1,63.6-1.2a.768.768,0,0,1-.294-.168.784.784,0,0,1-.224-.294,1.171,1.171,0,0,1-.07-.406,1.16,1.16,0,0,1,.084-.476.966.966,0,0,1,.252-.336,1.472,1.472,0,0,1,.42-.21,4.566,4.566,0,0,1,.588-.14l.518-.1a1.755,1.755,0,0,0,.476-.14A1.994,1.994,0,0,0,65.7-3.64ZM73.5-.126l2.562-7.322H73.99L72.464-1.96h-.028l-1.6-5.488H68.67L71.4.392a.817.817,0,0,1-.056.28.88.88,0,0,1-.182.336,1.12,1.12,0,0,1-.336.28,1.134,1.134,0,0,1-.518.112,2.383,2.383,0,0,1-.294-.014,1.444,1.444,0,0,1-.28-.028V2.926c.154.014.28.028.406.028a2.7,2.7,0,0,0,.35.014,4.682,4.682,0,0,0,.826-.056,1.67,1.67,0,0,0,.616-.182,1.345,1.345,0,0,0,.448-.35,2.6,2.6,0,0,0,.378-.56c.112-.238.224-.5.35-.826S73.36.308,73.5-.126Zm3.808-1.442h-.77v3.36h1.82V0h4.886V1.792h1.82v-3.36h-.938v-5.88H78.3v.63c0,.266,0,.56-.014.882s-.042.672-.07,1.022A10.552,10.552,0,0,1,78.05-3.78a11.161,11.161,0,0,1-.28,1.134A6.753,6.753,0,0,1,77.308-1.568ZM79.982-5.88h2.212v4.312h-2.94a5.12,5.12,0,0,0,.294-.742q.126-.4.21-.8c.056-.28.1-.546.126-.826s.056-.532.07-.77.028-.476.028-.672ZM88.06-2.856V-7.448H86.128V0h2.114l2.632-4.494H90.9V0h1.932V-7.448H90.8L88.088-2.856Zm5.978-4.592V-5.88h2.254V0h1.932V-5.88h2.254V-7.448Zm7.2,3.724a4.745,4.745,0,0,0,.266,1.582,3.37,3.37,0,0,0,.756,1.26,3.652,3.652,0,0,0,1.2.812,4.084,4.084,0,0,0,1.582.294,4.178,4.178,0,0,0,1.61-.294,3.453,3.453,0,0,0,1.19-.812,3.781,3.781,0,0,0,.756-1.26,4.746,4.746,0,0,0,.252-1.582,4.746,4.746,0,0,0-.252-1.582,3.781,3.781,0,0,0-.756-1.26,3.271,3.271,0,0,0-1.19-.812,4.178,4.178,0,0,0-1.61-.294,4.084,4.084,0,0,0-1.582.294,3.451,3.451,0,0,0-1.2.812,3.37,3.37,0,0,0-.756,1.26A4.745,4.745,0,0,0,101.234-3.724Zm2.016,0a4.3,4.3,0,0,1,.1-.84,1.942,1.942,0,0,1,.308-.742,1.612,1.612,0,0,1,.546-.518,1.694,1.694,0,0,1,.84-.2,1.774,1.774,0,0,1,.868.182,1.759,1.759,0,0,1,.546.518,2.062,2.062,0,0,1,.294.742,4.309,4.309,0,0,1,.084.854,4.309,4.309,0,0,1-.084.854,1.991,1.991,0,0,1-.294.728,1.612,1.612,0,0,1-.546.518,1.769,1.769,0,0,1-.868.2,1.694,1.694,0,0,1-.84-.2,1.528,1.528,0,0,1-.546-.532,1.854,1.854,0,0,1-.308-.742A4.038,4.038,0,0,1,103.25-3.724Zm8.792-2.66V-7.448h-1.848V2.884h1.932V-.924h.028a2.211,2.211,0,0,0,.434.56,1.876,1.876,0,0,0,.518.35,2.018,2.018,0,0,0,.56.182,2.534,2.534,0,0,0,.56.056A3.188,3.188,0,0,0,115.64-.07a2.985,2.985,0,0,0,.98-.84,3.7,3.7,0,0,0,.588-1.3,6.078,6.078,0,0,0,.2-1.652,5.112,5.112,0,0,0-.14-1.288,3.662,3.662,0,0,0-.364-.98,2.915,2.915,0,0,0-.546-.728,2.873,2.873,0,0,0-.644-.462A2.961,2.961,0,0,0,115-7.588a3.081,3.081,0,0,0-.7-.084,2.813,2.813,0,0,0-.728.084,2.06,2.06,0,0,0-.6.224,2.088,2.088,0,0,0-.476.392,3.153,3.153,0,0,0-.42.588Zm1.68.448a1.55,1.55,0,0,1,.784.2,1.826,1.826,0,0,1,.518.518,2.712,2.712,0,0,1,.28.714,3.732,3.732,0,0,1,.084.784c0,.14,0,.294-.014.462s-.056.336-.1.5a5.063,5.063,0,0,1-.182.49,2.01,2.01,0,0,1-.308.434,2.068,2.068,0,0,1-.448.294,1.613,1.613,0,0,1-.616.112,1.613,1.613,0,0,1-.616-.112,2.068,2.068,0,0,1-.448-.294,1.323,1.323,0,0,1-.294-.434,2.982,2.982,0,0,1-.2-.49,3.156,3.156,0,0,1-.084-.5,2.719,2.719,0,0,1-.028-.462,3.732,3.732,0,0,1,.084-.784,2.324,2.324,0,0,1,.294-.714,1.617,1.617,0,0,1,.5-.518A1.513,1.513,0,0,1,113.722-5.936Zm7.014,3.08V-7.448H118.8V0h2.114l2.632-4.494h.028V0h1.932V-7.448h-2.03l-2.716,4.592Zm8.554,0V-7.448h-1.932V0h2.114L132.1-4.494h.028V0h1.932V-7.448h-2.03l-2.716,4.592Z" transform="translate(120.747 498.79)" fill="#242549"/><path d="M-4.87-5.83v.95H-3.2V0h1.42V-7.08H-2.93a1,1,0,0,1-.06.28,1.24,1.24,0,0,1-.27.51,1.3,1.3,0,0,1-.68.37A6.208,6.208,0,0,1-4.87-5.83ZM.64-1.39A3.345,3.345,0,0,0,.31,0H5.16V-1.23H2.07a1.7,1.7,0,0,1,.33-.38c.12-.11.36-.29.71-.54l.56-.39a4.984,4.984,0,0,0,1.01-.91,2.223,2.223,0,0,0,.47-1.39,2.119,2.119,0,0,0-.67-1.65A2.476,2.476,0,0,0,2.7-7.11,2.032,2.032,0,0,0,.72-6.05,3.423,3.423,0,0,0,.39-4.59H1.74a2.351,2.351,0,0,1,.16-.87.861.861,0,0,1,.86-.48.893.893,0,0,1,.72.3,1.168,1.168,0,0,1,.25.75,1.448,1.448,0,0,1-.44,1.01,10.2,10.2,0,0,1-1.24.99A3.917,3.917,0,0,0,.64-1.39Z" transform="translate(149.118 679.156)" fill="#242647"/><path d="M-4.87-5.83v.95H-3.2V0h1.42V-7.08H-2.93a1,1,0,0,1-.06.28,1.24,1.24,0,0,1-.27.51,1.3,1.3,0,0,1-.68.37A6.208,6.208,0,0,1-4.87-5.83ZM.54-3.04A2.171,2.171,0,0,0,.26-1.96,2.139,2.139,0,0,0,.87-.44a2.4,2.4,0,0,0,1.8.63A2.577,2.577,0,0,0,4.52-.44a2.03,2.03,0,0,0,.66-1.52,2.269,2.269,0,0,0-.26-1.08,2.043,2.043,0,0,0-.79-.78,1.386,1.386,0,0,0,.67-.69,2.12,2.12,0,0,0,.15-.74,1.723,1.723,0,0,0-.58-1.32,2.317,2.317,0,0,0-1.64-.54,2.3,2.3,0,0,0-1.64.54A1.723,1.723,0,0,0,.51-5.25a2.12,2.12,0,0,0,.15.74,1.706,1.706,0,0,0,.67.74A1.7,1.7,0,0,0,.54-3.04ZM2.08-4.47a.815.815,0,0,1-.24-.63.854.854,0,0,1,.24-.66.887.887,0,0,1,.65-.23.929.929,0,0,1,.66.23.929.929,0,0,1,.23.66.887.887,0,0,1-.23.63.9.9,0,0,1-.66.25A.858.858,0,0,1,2.08-4.47Zm-.1,3.22a1.132,1.132,0,0,1-.27-.81,1.1,1.1,0,0,1,.28-.82.972.972,0,0,1,.74-.28,1.011,1.011,0,0,1,.75.28,1.142,1.142,0,0,1,.27.82,1.132,1.132,0,0,1-.27.81.951.951,0,0,1-.75.29A.951.951,0,0,1,1.98-1.25Z" transform="translate(190.776 679.156)" fill="#242647"/><path d="M-4.92-1.39A3.345,3.345,0,0,0-5.25,0H-.4V-1.23H-3.49a1.7,1.7,0,0,1,.33-.38c.12-.11.36-.29.71-.54l.56-.39A4.984,4.984,0,0,0-.88-3.45,2.223,2.223,0,0,0-.41-4.84a2.119,2.119,0,0,0-.67-1.65,2.476,2.476,0,0,0-1.78-.62A2.032,2.032,0,0,0-4.84-6.05a3.423,3.423,0,0,0-.33,1.46h1.35a2.351,2.351,0,0,1,.16-.87.861.861,0,0,1,.86-.48.893.893,0,0,1,.72.3,1.168,1.168,0,0,1,.25.75,1.448,1.448,0,0,1-.44,1.01,10.2,10.2,0,0,1-1.24.99A3.917,3.917,0,0,0-4.92-1.39Zm6.57-.5H.26A2.077,2.077,0,0,0,.99-.36,2.5,2.5,0,0,0,2.65.19,2.277,2.277,0,0,0,4.53-.59a2.669,2.669,0,0,0,.63-1.75,2.231,2.231,0,0,0-.65-1.72,2.248,2.248,0,0,0-1.54-.59,2.243,2.243,0,0,0-.73.11,3.1,3.1,0,0,0-.51.28l.26-1.55H4.88V-6.99H.98L.48-3.08l1.25.06a.916.916,0,0,1,.5-.43,1.161,1.161,0,0,1,.44-.07.9.9,0,0,1,.79.38,1.549,1.549,0,0,1,.25.91,1.5,1.5,0,0,1-.27.92.922.922,0,0,1-.79.36.862.862,0,0,1-.68-.25A1.238,1.238,0,0,1,1.65-1.89Z" transform="translate(232.434 679.156)" fill="#242647"/><path d="M-3.93-2.17H-5.3A2.889,2.889,0,0,0-4.95-.81,2.216,2.216,0,0,0-2.86.18,2.347,2.347,0,0,0-1.02-.51,2.214,2.214,0,0,0-.4-2.08,1.706,1.706,0,0,0-.93-3.43a1,1,0,0,0-.55-.33,1.246,1.246,0,0,0,.49-.37A1.532,1.532,0,0,0-.62-5.18a1.733,1.733,0,0,0-.62-1.41,2.444,2.444,0,0,0-1.64-.52,2.717,2.717,0,0,0-.92.13,1.829,1.829,0,0,0-.65.38,2.082,2.082,0,0,0-.54.77,3.548,3.548,0,0,0-.18,1h1.3a1.348,1.348,0,0,1,.22-.84.852.852,0,0,1,.73-.31.9.9,0,0,1,.67.25.964.964,0,0,1,.23.66.816.816,0,0,1-.46.83,2.562,2.562,0,0,1-.95.13v1a2.79,2.79,0,0,1,1.01.13.914.914,0,0,1,.57.93,1.049,1.049,0,0,1-.3.81,1.038,1.038,0,0,1-.72.28.94.94,0,0,1-.92-.51A1.482,1.482,0,0,1-3.93-2.17Zm5.58.28H.26A2.077,2.077,0,0,0,.99-.36,2.5,2.5,0,0,0,2.65.19,2.277,2.277,0,0,0,4.53-.59a2.669,2.669,0,0,0,.63-1.75,2.231,2.231,0,0,0-.65-1.72,2.248,2.248,0,0,0-1.54-.59,2.243,2.243,0,0,0-.73.11,3.1,3.1,0,0,0-.51.28l.26-1.55H4.88V-6.99H.98L.48-3.08l1.25.06a.916.916,0,0,1,.5-.43,1.161,1.161,0,0,1,.44-.07.9.9,0,0,1,.79.38,1.549,1.549,0,0,1,.25.91,1.5,1.5,0,0,1-.27.92.922.922,0,0,1-.79.36.862.862,0,0,1-.68-.25A1.238,1.238,0,0,1,1.65-1.89Z" transform="translate(274.092 679.156)" fill="#242647"/><path d="M-4.05,0V-1.52h.8V-2.61h-.8V-7.04H-5.61l-2.61,4.3v1.22h2.81V0ZM-7.19-2.61l1.78-3.06v3.06Zm5.92.72H-2.66A2.077,2.077,0,0,0-1.93-.36,2.5,2.5,0,0,0-.27.19,2.277,2.277,0,0,0,1.61-.59a2.669,2.669,0,0,0,.63-1.75,2.231,2.231,0,0,0-.65-1.72A2.248,2.248,0,0,0,.05-4.65a2.243,2.243,0,0,0-.73.11,3.1,3.1,0,0,0-.51.28l.26-1.55H1.96V-6.99h-3.9l-.5,3.91,1.25.06a.916.916,0,0,1,.5-.43,1.161,1.161,0,0,1,.44-.07.9.9,0,0,1,.79.38,1.549,1.549,0,0,1,.25.91,1.5,1.5,0,0,1-.27.92.922.922,0,0,1-.79.36A.862.862,0,0,1-.95-1.2,1.238,1.238,0,0,1-1.27-1.89ZM5-3.29H3v1.28H5V0H6.28V-2.01h2V-3.29h-2v-2H5Z" transform="translate(315.75 679.156)" fill="#242647"/><g transform="translate(2914.772 258.857)"><path d="M-2774.545,255.021V420.3" fill="none" stroke="#242549" stroke-width="2"/></g><path d="M-9.315-5.83v.95h1.67V0h1.42V-7.08h-1.15a1,1,0,0,1-.06.28,1.24,1.24,0,0,1-.27.51,1.3,1.3,0,0,1-.68.37A6.208,6.208,0,0,1-9.315-5.83Zm6.52,3.94h-1.39a2.077,2.077,0,0,0,.73,1.53,2.5,2.5,0,0,0,1.66.55A2.277,2.277,0,0,0,.085-.59a2.669,2.669,0,0,0,.63-1.75,2.231,2.231,0,0,0-.65-1.72,2.248,2.248,0,0,0-1.54-.59,2.243,2.243,0,0,0-.73.11,3.1,3.1,0,0,0-.51.28l.26-1.55H.435V-6.99h-3.9l-.5,3.91,1.25.06a.916.916,0,0,1,.5-.43,1.161,1.161,0,0,1,.44-.07.9.9,0,0,1,.79.38,1.549,1.549,0,0,1,.25.91A1.5,1.5,0,0,1-1-1.31a.922.922,0,0,1-.79.36.862.862,0,0,1-.68-.25A1.238,1.238,0,0,1-2.795-1.89ZM3.925.19l3.95-7.27h-.74L3.175.19Zm.52-4.14a1.714,1.714,0,0,0,.53-1.28,1.714,1.714,0,0,0-.53-1.28,1.739,1.739,0,0,0-1.28-.54,1.745,1.745,0,0,0-1.29.54,1.752,1.752,0,0,0-.53,1.28,1.752,1.752,0,0,0,.53,1.28,1.745,1.745,0,0,0,1.29.54A1.723,1.723,0,0,0,4.445-3.95Zm-.73-.73a.764.764,0,0,1-.55.23.747.747,0,0,1-.55-.23.747.747,0,0,1-.23-.55.764.764,0,0,1,.23-.55.747.747,0,0,1,.55-.23.764.764,0,0,1,.55.23.754.754,0,0,1,.22.55A.739.739,0,0,1,3.715-4.68ZM9.2-.39a1.768,1.768,0,0,0,.53-1.28A1.774,1.774,0,0,0,9.2-2.96a1.751,1.751,0,0,0-1.29-.53,1.714,1.714,0,0,0-1.28.53A1.72,1.72,0,0,0,6.1-1.67a1.729,1.729,0,0,0,.53,1.28,1.714,1.714,0,0,0,1.28.53A1.751,1.751,0,0,0,9.2-.39Zm-.74-1.84a.732.732,0,0,1,.23.56.7.7,0,0,1-.23.54.747.747,0,0,1-.55.23.741.741,0,0,1-.54-.23.7.7,0,0,1-.23-.54.732.732,0,0,1,.23-.56.732.732,0,0,1,.54-.22A.739.739,0,0,1,8.455-2.23Z" transform="translate(169.947 611.387)" fill="#242647"/><path d="M0,0H210.769" transform="translate(146.638 667.722)" fill="none" stroke="#e3ddd5" stroke-linecap="round" stroke-width="2"/><g transform="translate(2914.772 258.857)" style="isolation:isolate"><text transform="translate(-2744.825 377.185)" fill="#fffaee" font-size="10" font-family="Helvetica-Bold, Helvetica" font-weight="700" style="isolation:isolate"><tspan x="-10.005" y="0">44%</tspan></text><text transform="translate(-2744.825 389.372)" fill="#fffaee" font-size="10" font-family="Helvetica-Bold, Helvetica" font-weight="700" style="isolation:isolate"><tspan x="-10.005" y="0">56%</tspan></text></g><path d="M-9.365-1.39A3.345,3.345,0,0,0-9.695,0h4.85V-1.23h-3.09a1.7,1.7,0,0,1,.33-.38c.12-.11.36-.29.71-.54l.56-.39a4.984,4.984,0,0,0,1.01-.91,2.223,2.223,0,0,0,.47-1.39,2.119,2.119,0,0,0-.67-1.65A2.476,2.476,0,0,0-7.3-7.11a2.032,2.032,0,0,0-1.98,1.06,3.423,3.423,0,0,0-.33,1.46h1.35a2.351,2.351,0,0,1,.16-.87.861.861,0,0,1,.86-.48.893.893,0,0,1,.72.3,1.168,1.168,0,0,1,.25.75,1.448,1.448,0,0,1-.44,1.01,10.2,10.2,0,0,1-1.24.99A3.917,3.917,0,0,0-9.365-1.39Zm6.57-.5h-1.39a2.077,2.077,0,0,0,.73,1.53,2.5,2.5,0,0,0,1.66.55A2.277,2.277,0,0,0,.085-.59a2.669,2.669,0,0,0,.63-1.75,2.231,2.231,0,0,0-.65-1.72,2.248,2.248,0,0,0-1.54-.59,2.243,2.243,0,0,0-.73.11,3.1,3.1,0,0,0-.51.28l.26-1.55H.435V-6.99h-3.9l-.5,3.91,1.25.06a.916.916,0,0,1,.5-.43,1.161,1.161,0,0,1,.44-.07.9.9,0,0,1,.79.38,1.549,1.549,0,0,1,.25.91A1.5,1.5,0,0,1-1-1.31a.922.922,0,0,1-.79.36.862.862,0,0,1-.68-.25A1.238,1.238,0,0,1-2.795-1.89ZM3.925.19l3.95-7.27h-.74L3.175.19Zm.52-4.14a1.714,1.714,0,0,0,.53-1.28,1.714,1.714,0,0,0-.53-1.28,1.739,1.739,0,0,0-1.28-.54,1.745,1.745,0,0,0-1.29.54,1.752,1.752,0,0,0-.53,1.28,1.752,1.752,0,0,0,.53,1.28,1.745,1.745,0,0,0,1.29.54A1.723,1.723,0,0,0,4.445-3.95Zm-.73-.73a.764.764,0,0,1-.55.23.747.747,0,0,1-.55-.23.747.747,0,0,1-.23-.55.764.764,0,0,1,.23-.55.747.747,0,0,1,.55-.23.764.764,0,0,1,.55.23.754.754,0,0,1,.22.55A.739.739,0,0,1,3.715-4.68ZM9.2-.39a1.768,1.768,0,0,0,.53-1.28A1.774,1.774,0,0,0,9.2-2.96a1.751,1.751,0,0,0-1.29-.53,1.714,1.714,0,0,0-1.28.53A1.72,1.72,0,0,0,6.1-1.67a1.729,1.729,0,0,0,.53,1.28,1.714,1.714,0,0,0,1.28.53A1.751,1.751,0,0,0,9.2-.39Zm-.74-1.84a.732.732,0,0,1,.23.56.7.7,0,0,1-.23.54.747.747,0,0,1-.55.23.741.741,0,0,1-.54-.23.7.7,0,0,1-.23-.54.732.732,0,0,1,.23-.56.732.732,0,0,1,.54-.22A.739.739,0,0,1,8.455-2.23Z" transform="translate(211.604 576.844)" fill="#242647"/><g transform="translate(2914.772 258.857)" style="isolation:isolate"><text transform="translate(-2703.167 360.732)" fill="#fffaee" font-size="10" font-family="Helvetica-Bold, Helvetica" font-weight="700" style="isolation:isolate"><tspan x="-10.005" y="0">44%</tspan></text><text transform="translate(-2703.167 372.919)" fill="#fffaee" font-size="10" font-family="Helvetica-Bold, Helvetica" font-weight="700" style="isolation:isolate"><tspan x="-10.005" y="0">56%</tspan></text></g><path d="M-8.375-2.17h-1.37a2.889,2.889,0,0,0,.35,1.36A2.216,2.216,0,0,0-7.3.18a2.347,2.347,0,0,0,1.84-.69,2.214,2.214,0,0,0,.62-1.57,1.706,1.706,0,0,0-.53-1.35,1,1,0,0,0-.55-.33,1.246,1.246,0,0,0,.49-.37,1.532,1.532,0,0,0,.37-1.05,1.733,1.733,0,0,0-.62-1.41,2.444,2.444,0,0,0-1.64-.52,2.717,2.717,0,0,0-.92.13,1.829,1.829,0,0,0-.65.38,2.082,2.082,0,0,0-.54.77,3.548,3.548,0,0,0-.18,1h1.3a1.348,1.348,0,0,1,.22-.84.852.852,0,0,1,.73-.31.9.9,0,0,1,.67.25.964.964,0,0,1,.23.66.816.816,0,0,1-.46.83,2.562,2.562,0,0,1-.95.13v1a2.79,2.79,0,0,1,1.01.13.914.914,0,0,1,.57.93,1.049,1.049,0,0,1-.3.81,1.038,1.038,0,0,1-.72.28.94.94,0,0,1-.92-.51A1.482,1.482,0,0,1-8.375-2.17Zm4.62-3.66v.95h1.67V0h1.42V-7.08h-1.15a1,1,0,0,1-.06.28,1.24,1.24,0,0,1-.27.51,1.3,1.3,0,0,1-.68.37A6.208,6.208,0,0,1-3.755-5.83ZM3.925.19l3.95-7.27h-.74L3.175.19Zm.52-4.14a1.714,1.714,0,0,0,.53-1.28,1.714,1.714,0,0,0-.53-1.28,1.739,1.739,0,0,0-1.28-.54,1.745,1.745,0,0,0-1.29.54,1.752,1.752,0,0,0-.53,1.28,1.752,1.752,0,0,0,.53,1.28,1.745,1.745,0,0,0,1.29.54A1.723,1.723,0,0,0,4.445-3.95Zm-.73-.73a.764.764,0,0,1-.55.23.747.747,0,0,1-.55-.23.747.747,0,0,1-.23-.55.764.764,0,0,1,.23-.55.747.747,0,0,1,.55-.23.764.764,0,0,1,.55.23.754.754,0,0,1,.22.55A.739.739,0,0,1,3.715-4.68ZM9.2-.39a1.768,1.768,0,0,0,.53-1.28A1.774,1.774,0,0,0,9.2-2.96a1.751,1.751,0,0,0-1.29-.53,1.714,1.714,0,0,0-1.28.53A1.72,1.72,0,0,0,6.1-1.67a1.729,1.729,0,0,0,.53,1.28,1.714,1.714,0,0,0,1.28.53A1.751,1.751,0,0,0,9.2-.39Zm-.74-1.84a.732.732,0,0,1,.23.56.7.7,0,0,1-.23.54.747.747,0,0,1-.55.23.741.741,0,0,1-.54-.23.7.7,0,0,1-.23-.54.732.732,0,0,1,.23-.56.732.732,0,0,1,.54-.22A.739.739,0,0,1,8.455-2.23Z" transform="translate(253.263 555.972)" fill="#242647"/><g transform="translate(2914.772 258.857)" style="isolation:isolate"><text transform="translate(-2661.509 345.102)" fill="#fffaee" font-size="10" font-family="Helvetica-Bold, Helvetica" font-weight="700" style="isolation:isolate"><tspan x="-10.005" y="0">44%</tspan></text><text transform="translate(-2661.509 357.289)" fill="#fffaee" font-size="10" font-family="Helvetica-Bold, Helvetica" font-weight="700" style="isolation:isolate"><tspan x="-10.005" y="0">56%</tspan></text></g><path d="M-9.315-5.83v.95h1.67V0h1.42V-7.08h-1.15a1,1,0,0,1-.06.28,1.24,1.24,0,0,1-.27.51,1.3,1.3,0,0,1-.68.37A6.208,6.208,0,0,1-9.315-5.83ZM-3.9-3.04a2.171,2.171,0,0,0-.28,1.08,2.139,2.139,0,0,0,.61,1.52,2.4,2.4,0,0,0,1.8.63A2.577,2.577,0,0,0,.075-.44a2.03,2.03,0,0,0,.66-1.52,2.269,2.269,0,0,0-.26-1.08,2.043,2.043,0,0,0-.79-.78,1.386,1.386,0,0,0,.67-.69,2.12,2.12,0,0,0,.15-.74,1.723,1.723,0,0,0-.58-1.32,2.317,2.317,0,0,0-1.64-.54,2.3,2.3,0,0,0-1.64.54,1.723,1.723,0,0,0-.58,1.32,2.12,2.12,0,0,0,.15.74,1.706,1.706,0,0,0,.67.74A1.7,1.7,0,0,0-3.9-3.04Zm1.54-1.43A.815.815,0,0,1-2.6-5.1a.854.854,0,0,1,.24-.66.887.887,0,0,1,.65-.23.929.929,0,0,1,.66.23.929.929,0,0,1,.23.66.887.887,0,0,1-.23.63.9.9,0,0,1-.66.25A.858.858,0,0,1-2.365-4.47Zm-.1,3.22a1.132,1.132,0,0,1-.27-.81,1.1,1.1,0,0,1,.28-.82.972.972,0,0,1,.74-.28,1.011,1.011,0,0,1,.75.28,1.142,1.142,0,0,1,.27.82,1.132,1.132,0,0,1-.27.81.951.951,0,0,1-.75.29A.951.951,0,0,1-2.465-1.25ZM3.925.19l3.95-7.27h-.74L3.175.19Zm.52-4.14a1.714,1.714,0,0,0,.53-1.28,1.714,1.714,0,0,0-.53-1.28,1.739,1.739,0,0,0-1.28-.54,1.745,1.745,0,0,0-1.29.54,1.752,1.752,0,0,0-.53,1.28,1.752,1.752,0,0,0,.53,1.28,1.745,1.745,0,0,0,1.29.54A1.723,1.723,0,0,0,4.445-3.95Zm-.73-.73a.764.764,0,0,1-.55.23.747.747,0,0,1-.55-.23.747.747,0,0,1-.23-.55.764.764,0,0,1,.23-.55.747.747,0,0,1,.55-.23.764.764,0,0,1,.55.23.754.754,0,0,1,.22.55A.739.739,0,0,1,3.715-4.68ZM9.2-.39a1.768,1.768,0,0,0,.53-1.28A1.774,1.774,0,0,0,9.2-2.96a1.751,1.751,0,0,0-1.29-.53,1.714,1.714,0,0,0-1.28.53A1.72,1.72,0,0,0,6.1-1.67a1.729,1.729,0,0,0,.53,1.28,1.714,1.714,0,0,0,1.28.53A1.751,1.751,0,0,0,9.2-.39Zm-.74-1.84a.732.732,0,0,1,.23.56.7.7,0,0,1-.23.54.747.747,0,0,1-.55.23.741.741,0,0,1-.54-.23.7.7,0,0,1-.23-.54.732.732,0,0,1,.23-.56.732.732,0,0,1,.54-.22A.739.739,0,0,1,8.455-2.23Z" transform="translate(294.921 601.072)" fill="#242647"/><g transform="translate(2914.772 258.857)" style="isolation:isolate"><text transform="translate(-2619.852 367.313)" fill="#fffaee" font-size="10" font-family="Helvetica-Bold, Helvetica" font-weight="700" style="isolation:isolate"><tspan x="-14.315" y="0">&lt; 40%</tspan></text><text transform="translate(-2619.852 379.501)" fill="#fffaee" font-size="10" font-family="Helvetica-Bold, Helvetica" font-weight="700" style="isolation:isolate"><tspan x="-14.315" y="0">&gt; 60%</tspan></text></g><path d="M-9.315-5.83v.95h1.67V0h1.42V-7.08h-1.15a1,1,0,0,1-.06.28,1.24,1.24,0,0,1-.27.51,1.3,1.3,0,0,1-.68.37A6.208,6.208,0,0,1-9.315-5.83Zm9.52-.35a2,2,0,0,0-1.9-.95,2,2,0,0,0-1.89.95,5.457,5.457,0,0,0-.55,2.71,5.389,5.389,0,0,0,.55,2.7,2,2,0,0,0,1.89.95,2,2,0,0,0,1.9-.95,5.5,5.5,0,0,0,.55-2.7A5.569,5.569,0,0,0,.205-6.18Zm-2.72,4.57a6.754,6.754,0,0,1-.2-1.86,6.732,6.732,0,0,1,.2-1.9.8.8,0,0,1,.82-.61.788.788,0,0,1,.82.61,6.811,6.811,0,0,1,.19,1.9,6.823,6.823,0,0,1-.19,1.86.793.793,0,0,1-.82.65A.807.807,0,0,1-2.515-1.61ZM3.925.19l3.95-7.27h-.74L3.175.19Zm.52-4.14a1.714,1.714,0,0,0,.53-1.28,1.714,1.714,0,0,0-.53-1.28,1.739,1.739,0,0,0-1.28-.54,1.745,1.745,0,0,0-1.29.54,1.752,1.752,0,0,0-.53,1.28,1.752,1.752,0,0,0,.53,1.28,1.745,1.745,0,0,0,1.29.54A1.723,1.723,0,0,0,4.445-3.95Zm-.73-.73a.764.764,0,0,1-.55.23.747.747,0,0,1-.55-.23.747.747,0,0,1-.23-.55.764.764,0,0,1,.23-.55.747.747,0,0,1,.55-.23.764.764,0,0,1,.55.23.754.754,0,0,1,.22.55A.739.739,0,0,1,3.715-4.68ZM9.2-.39a1.768,1.768,0,0,0,.53-1.28A1.774,1.774,0,0,0,9.2-2.96a1.751,1.751,0,0,0-1.29-.53,1.714,1.714,0,0,0-1.28.53A1.72,1.72,0,0,0,6.1-1.67a1.729,1.729,0,0,0,.53,1.28,1.714,1.714,0,0,0,1.28.53A1.751,1.751,0,0,0,9.2-.39Zm-.74-1.84a.732.732,0,0,1,.23.56.7.7,0,0,1-.23.54.747.747,0,0,1-.55.23.741.741,0,0,1-.54-.23.7.7,0,0,1-.23-.54.732.732,0,0,1,.23-.56.732.732,0,0,1,.54-.22A.739.739,0,0,1,8.455-2.23Z" transform="translate(336.579 628.826)" fill="#242647"/><g transform="translate(2914.772 258.857)" style="isolation:isolate"><text transform="translate(-2578.194 384.589)" fill="#fffaee" font-size="10" font-family="Helvetica-Bold, Helvetica" font-weight="700" style="isolation:isolate"><tspan x="-14.315" y="0">&lt; 40%</tspan></text><text transform="translate(-2578.194 396.776)" fill="#fffaee" font-size="10" font-family="Helvetica-Bold, Helvetica" font-weight="700" style="isolation:isolate"><tspan x="-14.315" y="0">&gt; 60%</tspan></text></g></g></svg>