<svg xmlns="http://www.w3.org/2000/svg" xmlns:xlink="http://www.w3.org/1999/xlink" width="548" height="278" viewBox="0 0 548 278"><defs><filter id="a" x="0" y="0" width="548" height="278" filterUnits="userSpaceOnUse"><feOffset dx="1" dy="3" input="SourceAlpha"/><feGaussianBlur stdDeviation="3" result="b"/><feFlood flood-opacity="0.149"/><feComposite operator="in" in2="b"/><feComposite in="SourceGraphic"/></filter></defs><g transform="translate(-101 -162)"><g transform="matrix(1, 0, 0, 1, 101, 162)" filter="url(#a)"><rect width="530" height="260" rx="8" transform="translate(8 6)" fill="#fff9ea"/></g><path d="M5.68-14H2.46L.22,0H2.24l.38-2.54h2.7L5.7,0H7.92ZM3.96-11.52,5.02-4.44H2.9ZM15.82-14h-2.3l-1,4.8L12-5.94l-.68-3.28L10.12-14H7.94L10.98-3.2l-.02.12c-.18,1.02-.82,1.22-1.94,1.14V.02c3.06.2,3.92-1.06,4.44-3.58Zm9.1,15.88V-1.96h-.96V-14H17.8L17.3-3.78a2.9,2.9,0,0,1-.54,1.82H15.9V1.88h2.14V0h4.7V1.88ZM19.86-12h1.86V-1.96H18.84a2.48,2.48,0,0,0,.62-1.86ZM29.88-6.42l.9-3.44V0h1.98V-14H30.34l-1.8,5.78-.8,3.08V-14H25.78V0h2.26ZM33.32-12h2.3V0h2.2V-12h2.3v-2h-6.8Zm9.42,1.22c0-1,.44-1.38,1.14-1.38s1.14.38,1.14,1.38v7.56c0,1-.44,1.38-1.14,1.38s-1.14-.38-1.14-1.38Zm-2.2,7.42c0,2.24,1.18,3.52,3.34,3.52s3.34-1.28,3.34-3.52v-7.28c0-2.24-1.18-3.52-3.34-3.52s-3.34,1.28-3.34,3.52ZM51.52-14H48.28V0h2.2V-5.26h1.04c2.2,0,3.28-1.22,3.28-3.46v-1.82C54.8-12.78,53.72-14,51.52-14Zm0,2c.7,0,1.08.32,1.08,1.32v2.1c0,1-.38,1.32-1.08,1.32H50.48V-12Zm8.04,5.58.9-3.44V0h1.98V-14H60.02l-1.8,5.78-.8,3.08V-14H55.46V0h2.26ZM65.48,0a4.306,4.306,0,0,0,.2-1.72v-2.2c0-1.3.44-1.78,1.44-1.78h.76V0h2.2V-14H66.76c-2.28,0-3.26,1.06-3.26,3.22v1.1a2.791,2.791,0,0,0,1.44,2.84c-1.1.46-1.46,1.52-1.46,2.98V-1.7A4.123,4.123,0,0,1,63.24,0Zm2.4-12v4.3h-.86c-.82,0-1.32-.36-1.32-1.48v-1.38c0-1,.34-1.44,1.12-1.44ZM79.08,0h2.26L78.28-7.76,81.34-14h-2.2L76.26-7.9V-14h-2.2V0h2.2V-4.3l.68-1.28Zm7-6.42.9-3.44V0h1.98V-14H86.54l-1.8,5.78-.8,3.08V-14H81.98V0h2.26ZM92.36-6h2.5V0H97.1V-14H94.86v6h-2.5v-6h-2.2V0h2.2Zm8-4.78c0-1,.44-1.38,1.14-1.38s1.14.38,1.14,1.38v7.56c0,1-.44,1.38-1.14,1.38s-1.14-.38-1.14-1.38Zm-2.2,7.42c0,2.24,1.18,3.52,3.34,3.52s3.34-1.28,3.34-3.52v-7.28c0-2.24-1.18-3.52-3.34-3.52s-3.34,1.28-3.34,3.52Zm7.1-8.64h2.3V0h2.2V-12h2.3v-2h-6.8Zm9.6,0h3.8v-2h-6V0h6V-2h-3.8V-6.1h3.02v-2h-3.02Zm9.68-2h-3.22L119.08,0h2.02l.38-2.54h2.7L124.56,0h2.22Zm-1.72,2.48,1.06,7.08h-2.12ZM126.8-12h2.3V0h2.2V-12h2.3v-2h-6.8Zm10.64-2H134.2V0h2.2V-5.26h1.04c2.2,0,3.28-1.22,3.28-3.46v-1.82C140.72-12.78,139.64-14,137.44-14Zm0,2c.7,0,1.08.32,1.08,1.32v2.1c0,1-.38,1.32-1.08,1.32H136.4V-12Zm5.96,1.22c0-1,.44-1.38,1.14-1.38s1.14.38,1.14,1.38v7.56c0,1-.44,1.38-1.14,1.38s-1.14-.38-1.14-1.38Zm-2.2,7.42c0,2.24,1.18,3.52,3.34,3.52s3.34-1.28,3.34-3.52v-7.28c0-2.24-1.18-3.52-3.34-3.52s-3.34,1.28-3.34,3.52ZM152.26-14h-3.32V0h3.46c2.2,0,3.34-1.16,3.34-3.32V-4.46c0-1.48-.46-2.54-1.64-3,.98-.46,1.42-1.38,1.42-2.82v-.5C155.52-12.94,154.54-14,152.26-14Zm-.14,7.7c1,0,1.42.4,1.42,1.7v1.22c0,1.04-.4,1.38-1.14,1.38h-1.26V-6.3Zm.08-5.7c.78,0,1.12.44,1.12,1.44v.78c0,1.12-.5,1.48-1.32,1.48h-.86V-12Zm10.56-2h-3.32V0h3.46c2.2,0,3.34-1.16,3.34-3.32V-4.46c0-1.48-.46-2.54-1.64-3,.98-.46,1.42-1.38,1.42-2.82v-.5C166.02-12.94,165.04-14,162.76-14Zm-.14,7.7c1,0,1.42.4,1.42,1.7v1.22c0,1.04-.4,1.38-1.14,1.38h-1.26V-6.3Zm.08-5.7c.78,0,1.12.44,1.12,1.44v.78c0,1.12-.5,1.48-1.32,1.48h-.86V-12Zm11.6,1.44c0,4.04-4.36,4.72-4.36,8.84V0h6.36V-2h-4.16a1.513,1.513,0,0,1-.02-.3c0-2.3,4.38-3.94,4.38-8.34,0-2.24-1.12-3.52-3.28-3.52s-3.28,1.28-3.28,3.52v1.36h2.08v-1.5c0-1,.44-1.38,1.14-1.38S174.3-11.82,174.3-10.56Zm5.22-.22c0-1,.44-1.38,1.14-1.38s1.14.38,1.14,1.38v7.56c0,1-.44,1.38-1.14,1.38s-1.14-.38-1.14-1.38Zm-2.2,7.42c0,2.24,1.18,3.52,3.34,3.52S184-1.12,184-3.36v-7.28c0-2.24-1.18-3.52-3.34-3.52s-3.34,1.28-3.34,3.52Zm9.1-7.32h1.7V0h2.2V-14h-1.48a2.179,2.179,0,0,1-2.42,1.76Zm12.66.04c0-2.24-1.18-3.52-3.34-3.52s-3.34,1.28-3.34,3.52v2.56c0,2.06.82,3.2,2.44,3.2a2.094,2.094,0,0,0,2.04-1.24v2.56c0,1.34-.44,1.72-1.22,1.72-.7,0-1.14-.38-1.14-1.38v-.5h-2.08v.36c0,2.24,1.12,3.52,3.28,3.52,2.28,0,3.36-1.28,3.36-3.64Zm-3.34,3.76c-.7,0-1.14-.38-1.14-1.38v-2.52c0-1,.44-1.36,1.14-1.36s1.14.36,1.14,1.36v2.52C196.88-7.26,196.44-6.88,195.74-6.88Zm7.08.88h4V-8h-4Zm12.24-4.56c0,4.04-4.36,4.72-4.36,8.84V0h6.36V-2H212.9a1.513,1.513,0,0,1-.02-.3c0-2.3,4.38-3.94,4.38-8.34,0-2.24-1.12-3.52-3.28-3.52s-3.28,1.28-3.28,3.52v1.36h2.08v-1.5c0-1,.44-1.38,1.14-1.38S215.06-11.82,215.06-10.56Zm5.22-.22c0-1,.44-1.38,1.14-1.38s1.14.38,1.14,1.38v7.56c0,1-.44,1.38-1.14,1.38s-1.14-.38-1.14-1.38Zm-2.2,7.42c0,2.24,1.18,3.52,3.34,3.52s3.34-1.28,3.34-3.52v-7.28c0-2.24-1.18-3.52-3.34-3.52s-3.34,1.28-3.34,3.52Zm12.1-7.2c0,4.04-4.36,4.72-4.36,8.84V0h6.36V-2h-4.16a1.513,1.513,0,0,1-.02-.3c0-2.3,4.38-3.94,4.38-8.34,0-2.24-1.12-3.52-3.28-3.52s-3.28,1.28-3.28,3.52v1.36h2.08v-1.5c0-1,.44-1.38,1.14-1.38S230.18-11.82,230.18-10.56Zm5.22-.22c0-1,.44-1.38,1.14-1.38s1.14.38,1.14,1.38v7.56c0,1-.44,1.38-1.14,1.38s-1.14-.38-1.14-1.38Zm-2.2,7.42c0,2.24,1.18,3.52,3.34,3.52s3.34-1.28,3.34-3.52v-7.28c0-2.24-1.18-3.52-3.34-3.52s-3.34,1.28-3.34,3.52Z" transform="translate(118 191)" fill="#242549"/><g transform="translate(3583.238 885.164)" style="isolation:isolate"><text transform="translate(-3421.656 -581.259)" fill="#e1dcd5" font-size="100" font-family="BebasNeueBold, Bebas Neue" opacity="0.5" style="isolation:isolate"><tspan x="0" y="0">2020</tspan></text></g><g transform="translate(3583.238 885.164)" style="isolation:isolate"><text transform="translate(-3463.723 -499.808)" fill="#242549" font-size="19.993" font-family="BebasNeueBold, Bebas Neue" letter-spacing="-0.018em" style="isolation:isolate"><tspan x="0" y="0">10</tspan></text></g><g transform="translate(3583.238 885.164)" style="isolation:isolate"><text transform="translate(-3463.723 -539.794)" fill="#242549" font-size="19.993" font-family="BebasNeueBold, Bebas Neue" letter-spacing="-0.018em" style="isolation:isolate"><tspan x="0" y="0">15</tspan></text></g><g transform="translate(3583.238 885.164)" style="isolation:isolate"><text transform="translate(-3463.723 -579.781)" fill="#242549" font-size="19.993" font-family="BebasNeueBold, Bebas Neue" letter-spacing="-0.018em" style="isolation:isolate"><tspan x="0" y="0">20</tspan></text></g><g transform="translate(3583.238 885.164)" style="isolation:isolate"><text transform="translate(-3463.723 -619.767)" fill="#242549" font-size="19.993" font-family="BebasNeueBold, Bebas Neue" letter-spacing="-0.018em" style="isolation:isolate"><tspan x="0" y="0">25</tspan></text></g><g transform="translate(3583.238 885.164)" style="isolation:isolate"><text transform="translate(-3463.723 -659.754)" fill="#242549" font-size="19.993" font-family="BebasNeueBold, Bebas Neue" letter-spacing="-0.018em" style="isolation:isolate"><tspan x="0" y="0">30</tspan></text></g><path d="M0,0H482.7" transform="translate(140.703 384.213)" fill="none" stroke="#e1dcd5" stroke-linecap="round" stroke-width="1.501"/><g transform="translate(3583.238 885.164)"><line y2="162.804" transform="translate(-2999.824 -663.754)" fill="none" stroke="#e1dcd5" stroke-linecap="round" stroke-width="1.501"/><line y2="162.804" transform="translate(-3039.81 -663.754)" fill="none" stroke="#e1dcd5" stroke-linecap="round" stroke-width="1.501"/><line y2="162.804" transform="translate(-3079.797 -663.754)" fill="none" stroke="#e1dcd5" stroke-linecap="round" stroke-width="1.501"/><line y2="162.804" transform="translate(-3119.784 -663.754)" fill="none" stroke="#e1dcd5" stroke-linecap="round" stroke-width="1.501"/><line y2="162.804" transform="translate(-3159.771 -663.754)" fill="none" stroke="#e1dcd5" stroke-linecap="round" stroke-width="1.501"/><line y2="162.804" transform="translate(-3199.758 -663.754)" fill="none" stroke="#e1dcd5" stroke-linecap="round" stroke-width="1.501"/><line y2="162.804" transform="translate(-3239.745 -663.754)" fill="none" stroke="#e1dcd5" stroke-linecap="round" stroke-width="1.501"/><line y2="162.804" transform="translate(-3279.732 -663.754)" fill="none" stroke="#e1dcd5" stroke-linecap="round" stroke-width="1.501"/><line y2="162.804" transform="translate(-3319.718 -663.754)" fill="none" stroke="#e1dcd5" stroke-linecap="round" stroke-width="1.501"/><line y2="162.804" transform="translate(-3359.705 -663.754)" fill="none" stroke="#e1dcd5" stroke-linecap="round" stroke-width="1.501"/><line y2="162.804" transform="translate(-3399.692 -663.754)" fill="none" stroke="#e1dcd5" stroke-linecap="round" stroke-width="1.501"/><line y2="162.804" transform="translate(-3439.679 -663.754)" fill="none" stroke="#e1dcd5" stroke-linecap="round" stroke-width="1.501"/><line x2="482.698" transform="translate(-3442.535 -540.938)" fill="none" stroke="#e1dcd5" stroke-linecap="round" stroke-width="1.501"/><line x2="482.698" transform="translate(-3442.535 -580.924)" fill="none" stroke="#e1dcd5" stroke-linecap="round" stroke-width="1.501"/><line x2="482.698" transform="translate(-3442.535 -620.911)" fill="none" stroke="#e1dcd5" stroke-linecap="round" stroke-width="1.501"/><line x2="482.698" transform="translate(-3442.535 -660.898)" fill="none" stroke="#e1dcd5" stroke-linecap="round" stroke-width="1.501"/></g><g transform="translate(3583.238 885.164)" style="isolation:isolate"><text transform="translate(-3429.342 -487.779)" fill="#242647" font-size="10" font-family="Helvetica-Bold, Helvetica" font-weight="700" style="isolation:isolate"><tspan x="0" y="0">Янв</tspan></text></g><g transform="translate(3583.238 885.164)" style="isolation:isolate"><text transform="translate(-3389.631 -487.779)" fill="#242647" font-size="10" font-family="Helvetica-Bold, Helvetica" font-weight="700" style="isolation:isolate"><tspan x="0" y="0">Фев</tspan></text></g><g transform="translate(3583.238 885.164)" style="isolation:isolate"><text transform="translate(-3352.212 -487.779)" fill="#242647" font-size="10" font-family="Helvetica-Bold, Helvetica" font-weight="700" style="isolation:isolate"><tspan x="0" y="0">Март</tspan></text></g><g transform="translate(3583.238 885.164)" style="isolation:isolate"><text transform="translate(-3309.444 -487.779)" fill="#242647" font-size="10" font-family="Helvetica-Bold, Helvetica" font-weight="700" style="isolation:isolate"><tspan x="0" y="0">Апр</tspan></text></g><g transform="translate(3583.238 885.164)" style="isolation:isolate"><text transform="translate(-3269.738 -487.779)" fill="#242647" font-size="10" font-family="Helvetica-Bold, Helvetica" font-weight="700" style="isolation:isolate"><tspan x="0" y="0">Май</tspan></text></g><g transform="translate(3583.238 885.164)" style="isolation:isolate"><text transform="translate(-3233.472 -487.779)" fill="#242647" font-size="10" font-family="Helvetica-Bold, Helvetica" font-weight="700" style="isolation:isolate"><tspan x="0" y="0">Июнь</tspan></text></g><g transform="translate(3583.238 885.164)" style="isolation:isolate"><text transform="translate(-3193.693 -487.779)" fill="#242647" font-size="10" font-family="Helvetica-Bold, Helvetica" font-weight="700" style="isolation:isolate"><tspan x="0" y="0">Июль</tspan></text></g><g transform="translate(3583.238 885.164)" style="isolation:isolate"><text transform="translate(-3148.589 -487.779)" fill="#242647" font-size="10" font-family="Helvetica-Bold, Helvetica" font-weight="700" style="isolation:isolate"><tspan x="0" y="0">Авг</tspan></text></g><g transform="translate(3583.238 885.164)" style="isolation:isolate"><text transform="translate(-3109.237 -487.779)" fill="#242647" font-size="10" font-family="Helvetica-Bold, Helvetica" font-weight="700" style="isolation:isolate"><tspan x="0" y="0">Сен</tspan></text></g><g transform="translate(3583.238 885.164)" style="isolation:isolate"><text transform="translate(-3069.247 -487.779)" fill="#242647" font-size="10" font-family="Helvetica-Bold, Helvetica" font-weight="700" style="isolation:isolate"><tspan x="0" y="0">Окт</tspan></text></g><g transform="translate(3583.238 885.164)" style="isolation:isolate"><text transform="translate(-3029.541 -487.779)" fill="#242647" font-size="10" font-family="Helvetica-Bold, Helvetica" font-weight="700" style="isolation:isolate"><tspan x="0" y="0">Ноя</tspan></text></g><g transform="translate(3583.238 885.164)" style="isolation:isolate"><text transform="translate(-2989.349 -487.779)" fill="#242647" font-size="10" font-family="Helvetica-Bold, Helvetica" font-weight="700" style="isolation:isolate"><tspan x="0" y="0">Дек</tspan></text></g><path d="M.351-3.864h1.3a.6.6,0,0,1,.231-.492.984.984,0,0,1,.592-.161,1.391,1.391,0,0,1,.3.03.869.869,0,0,1,.241.1.752.752,0,0,1,.151.2.748.748,0,0,1,.06.311.619.619,0,0,1-.191.472,1.1,1.1,0,0,1-.662.161H1.847v.923h.632a1.153,1.153,0,0,1,.662.151.635.635,0,0,1,.211.542.769.769,0,0,1-.04.251,1,1,0,0,1-.141.271.783.783,0,0,1-.261.2,1.1,1.1,0,0,1-.432.08A1.127,1.127,0,0,1,2.1-.883a1.193,1.193,0,0,1-.291-.181.638.638,0,0,1-.191-.271.77.77,0,0,1-.07-.341H.221A1.791,1.791,0,0,0,.4-.823a1.441,1.441,0,0,0,.492.572A2.009,2.009,0,0,0,1.636.07a4.663,4.663,0,0,0,.954.09,3.068,3.068,0,0,0,.793-.1A2,2,0,0,0,4.1-.261a1.725,1.725,0,0,0,.5-.572,1.567,1.567,0,0,0,.2-.843,1.744,1.744,0,0,0-.05-.391,1.22,1.22,0,0,0-.181-.361,1.28,1.28,0,0,0-.321-.291,1.3,1.3,0,0,0-.482-.161V-2.9a1.339,1.339,0,0,0,.331-.13.977.977,0,0,0,.271-.231.941.941,0,0,0,.181-.311,1.127,1.127,0,0,0,.07-.422,1.381,1.381,0,0,0-.12-.562,1.351,1.351,0,0,0-.361-.472A1.738,1.738,0,0,0,3.5-5.37,3.08,3.08,0,0,0,2.59-5.5a4.115,4.115,0,0,0-.883.09,2.207,2.207,0,0,0-.7.291,1.409,1.409,0,0,0-.472.5A1.734,1.734,0,0,0,.351-3.864Zm6.614-.713V-5.34H5.641V2.068H7.026V-.662h.02a1.585,1.585,0,0,0,.311.4,1.345,1.345,0,0,0,.371.251,1.447,1.447,0,0,0,.4.13,1.817,1.817,0,0,0,.4.04A2.286,2.286,0,0,0,9.545-.05a2.14,2.14,0,0,0,.7-.6,2.655,2.655,0,0,0,.422-.933A4.357,4.357,0,0,0,10.81-2.77a3.665,3.665,0,0,0-.1-.923,2.626,2.626,0,0,0-.261-.7,2.09,2.09,0,0,0-.391-.522A2.06,2.06,0,0,0,9.6-5.249a2.123,2.123,0,0,0-.512-.191,2.209,2.209,0,0,0-.5-.06,2.016,2.016,0,0,0-.522.06,1.477,1.477,0,0,0-.432.161A1.5,1.5,0,0,0,7.287-5a2.26,2.26,0,0,0-.3.422Zm1.2.321a1.111,1.111,0,0,1,.562.141,1.309,1.309,0,0,1,.371.371,1.945,1.945,0,0,1,.2.512,2.676,2.676,0,0,1,.06.562c0,.1,0,.211-.01.331s-.04.241-.07.361a3.63,3.63,0,0,1-.13.351,1.441,1.441,0,0,1-.221.311,1.482,1.482,0,0,1-.321.211,1.157,1.157,0,0,1-.442.08,1.157,1.157,0,0,1-.442-.08,1.482,1.482,0,0,1-.321-.211A.949.949,0,0,1,7.2-1.626a2.138,2.138,0,0,1-.141-.351A2.263,2.263,0,0,1,7-2.339a1.949,1.949,0,0,1-.02-.331,2.676,2.676,0,0,1,.06-.562,1.666,1.666,0,0,1,.211-.512,1.16,1.16,0,0,1,.361-.371A1.085,1.085,0,0,1,8.17-4.256ZM13.2-2.048V-5.34H11.813V0h1.516l1.887-3.222h.02V0h1.385V-5.34H15.166L13.219-2.048ZM17.484-5.34v1.124H19.1V0h1.385V-4.216H22.1V-5.34Zm6.474,3.1h3.663a6.763,6.763,0,0,0-.13-1.335,2.671,2.671,0,0,0-.422-1.034,2.1,2.1,0,0,0-.783-.662A2.815,2.815,0,0,0,25.092-5.5a2.476,2.476,0,0,0-1.144.231,2.107,2.107,0,0,0-.793.612,2.361,2.361,0,0,0-.442.883,3.6,3.6,0,0,0-.151,1.044,4.02,4.02,0,0,0,.2,1.335,2.412,2.412,0,0,0,.552.893,1.985,1.985,0,0,0,.823.5,2.907,2.907,0,0,0,.994.161A3,3,0,0,0,25.9.07a2.681,2.681,0,0,0,.6-.231,1.877,1.877,0,0,0,.472-.331A2.311,2.311,0,0,0,27.3-.873a2.254,2.254,0,0,0,.191-.381,1.055,1.055,0,0,0,.06-.331H26.116a.8.8,0,0,1-.13.261.955.955,0,0,1-.211.191.727.727,0,0,1-.271.12.933.933,0,0,1-.291.05,1.342,1.342,0,0,1-.482-.08.865.865,0,0,1-.341-.191.714.714,0,0,1-.231-.261,1.76,1.76,0,0,1-.13-.281.915.915,0,0,1-.05-.271A1.769,1.769,0,0,1,23.958-2.238Zm2.218-.923H24.008a1.329,1.329,0,0,1,.11-.592.921.921,0,0,1,.261-.371.944.944,0,0,1,.351-.2,1.564,1.564,0,0,1,.361-.05,1.493,1.493,0,0,1,.361.05,1.072,1.072,0,0,1,.361.2,1.167,1.167,0,0,1,.261.371A1.492,1.492,0,0,1,26.176-3.162Zm6.082-1.054V0h1.375V-5.34h-4.3L29.3-3.322c-.01.472-.03.853-.06,1.154a3.725,3.725,0,0,1-.141.7.712.712,0,0,1-.211.341.4.4,0,0,1-.281.1,1.692,1.692,0,0,1-.251-.02,1.9,1.9,0,0,1-.181-.06V.06a1.485,1.485,0,0,0,.291.08c.12.01.251.02.412.02A1.473,1.473,0,0,0,29.7-.05a1.584,1.584,0,0,0,.512-.642,4.218,4.218,0,0,0,.271-1.054c.05-.422.09-.913.11-1.475l.02-.994Zm4.216,2.168V-5.34H35.089V0H36.6l1.887-3.222h.02V0H39.9V-5.34H38.441L36.494-2.048ZM46.812-5.34h-2.76V0h2.991a2.3,2.3,0,0,0,.763-.12,1.6,1.6,0,0,0,.582-.341,1.5,1.5,0,0,0,.371-.522,1.837,1.837,0,0,0,.12-.683,1.293,1.293,0,0,0-.211-.743,1.138,1.138,0,0,0-.612-.452,1.208,1.208,0,0,0,.241-.151.812.812,0,0,0,.2-.211.837.837,0,0,0,.141-.3,1.248,1.248,0,0,0,.05-.412,1.416,1.416,0,0,0-.151-.693,1.212,1.212,0,0,0-.412-.432,2.261,2.261,0,0,0-.6-.221A4.1,4.1,0,0,0,46.812-5.34Zm-.311,2.1H45.437V-4.356h1.1a1.312,1.312,0,0,1,.371.04.707.707,0,0,1,.231.11.411.411,0,0,1,.13.171.54.54,0,0,1,.04.221.659.659,0,0,1-.04.251.316.316,0,0,1-.13.171.672.672,0,0,1-.241.11A2.161,2.161,0,0,1,46.5-3.242Zm0,2.258H45.437V-2.319H46.5a2.639,2.639,0,0,1,.432.03.591.591,0,0,1,.291.11.391.391,0,0,1,.161.2.822.822,0,0,1,.05.331.9.9,0,0,1-.03.221.467.467,0,0,1-.13.211.838.838,0,0,1-.281.171A1.638,1.638,0,0,1,46.5-.984ZM52.764-1.4A3.357,3.357,0,0,0,52.433,0H57.3V-1.235H54.2a1.709,1.709,0,0,1,.331-.381c.12-.11.361-.291.713-.542l.562-.391a5,5,0,0,0,1.014-.913,2.231,2.231,0,0,0,.472-1.4,2.127,2.127,0,0,0-.672-1.656,2.486,2.486,0,0,0-1.787-.622,2.04,2.04,0,0,0-1.987,1.064,3.436,3.436,0,0,0-.331,1.465h1.355a2.36,2.36,0,0,1,.161-.873.865.865,0,0,1,.863-.482.9.9,0,0,1,.723.3,1.173,1.173,0,0,1,.251.753,1.453,1.453,0,0,1-.442,1.014,10.233,10.233,0,0,1-1.245.994A3.931,3.931,0,0,0,52.764-1.4ZM62.369-6.2a2.009,2.009,0,0,0-1.907-.954,2,2,0,0,0-1.9.954,5.477,5.477,0,0,0-.552,2.72,5.409,5.409,0,0,0,.552,2.71,2,2,0,0,0,1.9.954,2.009,2.009,0,0,0,1.907-.954,5.52,5.52,0,0,0,.552-2.71A5.589,5.589,0,0,0,62.369-6.2Zm-2.73,4.587a6.779,6.779,0,0,1-.2-1.867,6.757,6.757,0,0,1,.2-1.907A.805.805,0,0,1,60.462-6a.79.79,0,0,1,.823.612,6.836,6.836,0,0,1,.191,1.907,6.848,6.848,0,0,1-.191,1.867.8.8,0,0,1-.823.652A.81.81,0,0,1,59.639-1.616Zm4.286.221A3.357,3.357,0,0,0,63.594,0h4.868V-1.235h-3.1a1.708,1.708,0,0,1,.331-.381c.12-.11.361-.291.713-.542l.562-.391a5,5,0,0,0,1.014-.913,2.231,2.231,0,0,0,.472-1.4,2.127,2.127,0,0,0-.672-1.656,2.486,2.486,0,0,0-1.787-.622,2.04,2.04,0,0,0-1.987,1.064,3.436,3.436,0,0,0-.331,1.465h1.355a2.36,2.36,0,0,1,.161-.873.865.865,0,0,1,.863-.482.9.9,0,0,1,.723.3,1.173,1.173,0,0,1,.251.753,1.453,1.453,0,0,1-.442,1.014A10.234,10.234,0,0,1,65.34-2.9,3.931,3.931,0,0,0,63.925-1.4ZM73.53-6.2a2.009,2.009,0,0,0-1.907-.954,2,2,0,0,0-1.9.954,5.477,5.477,0,0,0-.552,2.72,5.409,5.409,0,0,0,.552,2.71,2,2,0,0,0,1.9.954A2.009,2.009,0,0,0,73.53-.773a5.52,5.52,0,0,0,.552-2.71A5.589,5.589,0,0,0,73.53-6.2ZM70.8-1.616a6.779,6.779,0,0,1-.2-1.867,6.757,6.757,0,0,1,.2-1.907A.805.805,0,0,1,71.623-6a.79.79,0,0,1,.823.612,6.836,6.836,0,0,1,.191,1.907,6.848,6.848,0,0,1-.191,1.867.8.8,0,0,1-.823.652A.81.81,0,0,1,70.8-1.616Zm10.689-2.6V-5.34H77.9V0h1.385V-4.216Zm.542,1.546a3.4,3.4,0,0,0,.191,1.134,2.416,2.416,0,0,0,.542.9,2.618,2.618,0,0,0,.863.582,2.928,2.928,0,0,0,1.134.211A3,3,0,0,0,85.916-.05a2.476,2.476,0,0,0,.853-.582,2.71,2.71,0,0,0,.542-.9,3.4,3.4,0,0,0,.181-1.134A3.4,3.4,0,0,0,87.311-3.8a2.71,2.71,0,0,0-.542-.9,2.345,2.345,0,0,0-.853-.582A3,3,0,0,0,84.762-5.5a2.928,2.928,0,0,0-1.134.211,2.474,2.474,0,0,0-.863.582,2.416,2.416,0,0,0-.542.9A3.4,3.4,0,0,0,82.032-2.67Zm1.445,0a3.08,3.08,0,0,1,.07-.6,1.392,1.392,0,0,1,.221-.532,1.156,1.156,0,0,1,.391-.371,1.214,1.214,0,0,1,.6-.141,1.272,1.272,0,0,1,.622.13,1.261,1.261,0,0,1,.391.371,1.478,1.478,0,0,1,.211.532,3.089,3.089,0,0,1,.06.612,3.089,3.089,0,0,1-.06.612,1.428,1.428,0,0,1-.211.522,1.156,1.156,0,0,1-.391.371,1.268,1.268,0,0,1-.622.141,1.214,1.214,0,0,1-.6-.141,1.1,1.1,0,0,1-.391-.381,1.329,1.329,0,0,1-.221-.532A2.9,2.9,0,0,1,83.477-2.67Zm5.109,1.546h-.552V1.285h1.3V0h3.5V1.285h1.3V-1.124h-.672V-5.34H89.3v.452c0,.191,0,.4-.01.632s-.03.482-.05.733a7.564,7.564,0,0,1-.12.813,8,8,0,0,1-.2.813A4.842,4.842,0,0,1,88.586-1.124ZM90.5-4.216h1.586v3.091H89.981a3.671,3.671,0,0,0,.211-.532q.09-.286.151-.572c.04-.2.07-.391.09-.592s.04-.381.05-.552.02-.341.02-.482ZM97.85-.09,99.687-5.34H98.2L97.107-1.405h-.02L95.943-5.34H94.387L96.344.281a.586.586,0,0,1-.04.2.631.631,0,0,1-.13.241.8.8,0,0,1-.241.2.813.813,0,0,1-.371.08,1.708,1.708,0,0,1-.211-.01,1.035,1.035,0,0,1-.2-.02V2.1c.11.01.2.02.291.02a1.936,1.936,0,0,0,.251.01,3.357,3.357,0,0,0,.592-.04,1.2,1.2,0,0,0,.442-.13.964.964,0,0,0,.321-.251,1.861,1.861,0,0,0,.271-.4c.08-.171.161-.361.251-.592S97.75.221,97.85-.09Zm5.781-5.31a6.507,6.507,0,0,0-.582,2.67,7.309,7.309,0,0,0,.683,2.991,6.939,6.939,0,0,0,.723,1.285l.351.482h1.034a12.682,12.682,0,0,1-.9-1.917,8.335,8.335,0,0,1-.442-2.76,9.624,9.624,0,0,1,.161-1.766,8.157,8.157,0,0,1,.863-2.379l.291-.542h-1.054A9.942,9.942,0,0,0,103.631-5.4Zm5.982,3.934-.9-3.874h-2.088V0h1.3V-4.3h.02l1,4.3h1.265l1-4.3h.02V0h1.3V-5.34h-2.027l-.883,3.874Zm7.969-2.75V0h1.375V-5.34h-4.3l-.04,2.017c-.01.472-.03.853-.06,1.154a3.725,3.725,0,0,1-.141.7.712.712,0,0,1-.211.341.4.4,0,0,1-.281.1,1.692,1.692,0,0,1-.251-.02,1.9,1.9,0,0,1-.181-.06V.06a1.485,1.485,0,0,0,.291.08c.12.01.251.02.412.02a1.473,1.473,0,0,0,.823-.211,1.584,1.584,0,0,0,.512-.642,4.218,4.218,0,0,0,.271-1.054c.05-.422.09-.913.11-1.475l.02-.994Zm4.215.8V-5.34h-1.385V0H121.8V-2.288h2.037V0h1.385V-5.34h-1.385v1.927Zm10.408,1.3V0h1.385V-5.34h-1.385v2.208a1.753,1.753,0,0,1-.331.151,2.081,2.081,0,0,1-.562.06,2.594,2.594,0,0,1-.422-.03.639.639,0,0,1-.291-.12.465.465,0,0,1-.171-.241.956.956,0,0,1-.06-.371V-5.34h-1.385v1.927a1.854,1.854,0,0,0,.12.713,1.1,1.1,0,0,0,.361.482,1.685,1.685,0,0,0,.592.261,3.91,3.91,0,0,0,.813.08,2.494,2.494,0,0,0,.381-.02c.13-.01.261-.03.381-.05s.231-.05.331-.08S132.146-2.088,132.206-2.108Zm3.7-.13h3.663a6.763,6.763,0,0,0-.13-1.335,2.671,2.671,0,0,0-.422-1.034,2.1,2.1,0,0,0-.783-.662,2.815,2.815,0,0,0-1.194-.231,2.476,2.476,0,0,0-1.144.231,2.107,2.107,0,0,0-.793.612,2.361,2.361,0,0,0-.442.883,3.6,3.6,0,0,0-.151,1.044,4.02,4.02,0,0,0,.2,1.335,2.412,2.412,0,0,0,.552.893,1.985,1.985,0,0,0,.823.5,2.907,2.907,0,0,0,.994.161,3,3,0,0,0,.763-.09,2.682,2.682,0,0,0,.6-.231,1.877,1.877,0,0,0,.472-.331,2.311,2.311,0,0,0,.331-.381,2.254,2.254,0,0,0,.191-.381,1.055,1.055,0,0,0,.06-.331h-1.435a.8.8,0,0,1-.13.261.955.955,0,0,1-.211.191.727.727,0,0,1-.271.12.933.933,0,0,1-.291.05,1.342,1.342,0,0,1-.482-.08.865.865,0,0,1-.341-.191.714.714,0,0,1-.231-.261,1.76,1.76,0,0,1-.13-.281.915.915,0,0,1-.05-.271A1.768,1.768,0,0,1,135.91-2.238Zm2.218-.923H135.96a1.329,1.329,0,0,1,.11-.592.921.921,0,0,1,.261-.371.944.944,0,0,1,.351-.2,1.563,1.563,0,0,1,.361-.05,1.493,1.493,0,0,1,.361.05,1.072,1.072,0,0,1,.361.2,1.167,1.167,0,0,1,.261.371A1.492,1.492,0,0,1,138.128-3.162Zm6.082-1.054V0h1.375V-5.34h-4.3l-.04,2.017c-.01.472-.03.853-.06,1.154a3.724,3.724,0,0,1-.141.7.711.711,0,0,1-.211.341.4.4,0,0,1-.281.1,1.692,1.692,0,0,1-.251-.02,1.894,1.894,0,0,1-.181-.06V.06a1.485,1.485,0,0,0,.291.08c.12.01.251.02.412.02a1.473,1.473,0,0,0,.823-.211,1.584,1.584,0,0,0,.512-.642,4.218,4.218,0,0,0,.271-1.054c.05-.422.09-.913.11-1.475l.02-.994ZM148.687-5.4a9.941,9.941,0,0,0-1.124-1.937h-1.054l.291.542a8.157,8.157,0,0,1,.863,2.379,9.624,9.624,0,0,1,.161,1.766,8.335,8.335,0,0,1-.442,2.76,12.683,12.683,0,0,1-.9,1.917h1.034l.351-.482a6.938,6.938,0,0,0,.723-1.285,7.309,7.309,0,0,0,.683-2.991A6.506,6.506,0,0,0,148.687-5.4Z" transform="translate(400.18 414.217)" fill="#242647"/><path d="M2.163,0H8.653a2.163,2.163,0,0,1,2.163,2.163V8.653a2.163,2.163,0,0,1-2.163,2.163H2.163A2.163,2.163,0,0,1,0,8.653V2.163A2.163,2.163,0,0,1,2.163,0Z" transform="translate(386.336 406.305)" fill="#4862ad"/><path d="M.351-3.864h1.3a.6.6,0,0,1,.231-.492.984.984,0,0,1,.592-.161,1.391,1.391,0,0,1,.3.03.869.869,0,0,1,.241.1.752.752,0,0,1,.151.2.748.748,0,0,1,.06.311.619.619,0,0,1-.191.472,1.1,1.1,0,0,1-.662.161H1.847v.923h.632a1.153,1.153,0,0,1,.662.151.635.635,0,0,1,.211.542.769.769,0,0,1-.04.251,1,1,0,0,1-.141.271.783.783,0,0,1-.261.2,1.1,1.1,0,0,1-.432.08A1.127,1.127,0,0,1,2.1-.883a1.193,1.193,0,0,1-.291-.181.638.638,0,0,1-.191-.271.77.77,0,0,1-.07-.341H.221A1.791,1.791,0,0,0,.4-.823a1.441,1.441,0,0,0,.492.572A2.009,2.009,0,0,0,1.636.07a4.663,4.663,0,0,0,.954.09,3.068,3.068,0,0,0,.793-.1A2,2,0,0,0,4.1-.261a1.725,1.725,0,0,0,.5-.572,1.567,1.567,0,0,0,.2-.843,1.744,1.744,0,0,0-.05-.391,1.22,1.22,0,0,0-.181-.361,1.28,1.28,0,0,0-.321-.291,1.3,1.3,0,0,0-.482-.161V-2.9a1.339,1.339,0,0,0,.331-.13.977.977,0,0,0,.271-.231.941.941,0,0,0,.181-.311,1.127,1.127,0,0,0,.07-.422,1.381,1.381,0,0,0-.12-.562,1.351,1.351,0,0,0-.361-.472A1.738,1.738,0,0,0,3.5-5.37,3.08,3.08,0,0,0,2.59-5.5a4.115,4.115,0,0,0-.883.09,2.207,2.207,0,0,0-.7.291,1.409,1.409,0,0,0-.472.5A1.734,1.734,0,0,0,.351-3.864Zm6.614-.713V-5.34H5.641V2.068H7.026V-.662h.02a1.585,1.585,0,0,0,.311.4,1.345,1.345,0,0,0,.371.251,1.447,1.447,0,0,0,.4.13,1.817,1.817,0,0,0,.4.04A2.286,2.286,0,0,0,9.545-.05a2.14,2.14,0,0,0,.7-.6,2.655,2.655,0,0,0,.422-.933A4.357,4.357,0,0,0,10.81-2.77a3.665,3.665,0,0,0-.1-.923,2.626,2.626,0,0,0-.261-.7,2.09,2.09,0,0,0-.391-.522A2.06,2.06,0,0,0,9.6-5.249a2.123,2.123,0,0,0-.512-.191,2.209,2.209,0,0,0-.5-.06,2.016,2.016,0,0,0-.522.06,1.477,1.477,0,0,0-.432.161A1.5,1.5,0,0,0,7.287-5a2.26,2.26,0,0,0-.3.422Zm1.2.321a1.111,1.111,0,0,1,.562.141,1.309,1.309,0,0,1,.371.371,1.945,1.945,0,0,1,.2.512,2.676,2.676,0,0,1,.06.562c0,.1,0,.211-.01.331s-.04.241-.07.361a3.63,3.63,0,0,1-.13.351,1.441,1.441,0,0,1-.221.311,1.482,1.482,0,0,1-.321.211,1.157,1.157,0,0,1-.442.08,1.157,1.157,0,0,1-.442-.08,1.482,1.482,0,0,1-.321-.211A.949.949,0,0,1,7.2-1.626a2.138,2.138,0,0,1-.141-.351A2.263,2.263,0,0,1,7-2.339a1.949,1.949,0,0,1-.02-.331,2.676,2.676,0,0,1,.06-.562,1.666,1.666,0,0,1,.211-.512,1.16,1.16,0,0,1,.361-.371A1.085,1.085,0,0,1,8.17-4.256ZM13.2-2.048V-5.34H11.813V0h1.516l1.887-3.222h.02V0h1.385V-5.34H15.166L13.219-2.048ZM17.484-5.34v1.124H19.1V0h1.385V-4.216H22.1V-5.34Zm6.474,3.1h3.663a6.763,6.763,0,0,0-.13-1.335,2.671,2.671,0,0,0-.422-1.034,2.1,2.1,0,0,0-.783-.662A2.815,2.815,0,0,0,25.092-5.5a2.476,2.476,0,0,0-1.144.231,2.107,2.107,0,0,0-.793.612,2.361,2.361,0,0,0-.442.883,3.6,3.6,0,0,0-.151,1.044,4.02,4.02,0,0,0,.2,1.335,2.412,2.412,0,0,0,.552.893,1.985,1.985,0,0,0,.823.5,2.907,2.907,0,0,0,.994.161A3,3,0,0,0,25.9.07a2.681,2.681,0,0,0,.6-.231,1.877,1.877,0,0,0,.472-.331A2.311,2.311,0,0,0,27.3-.873a2.254,2.254,0,0,0,.191-.381,1.055,1.055,0,0,0,.06-.331H26.116a.8.8,0,0,1-.13.261.955.955,0,0,1-.211.191.727.727,0,0,1-.271.12.933.933,0,0,1-.291.05,1.342,1.342,0,0,1-.482-.08.865.865,0,0,1-.341-.191.714.714,0,0,1-.231-.261,1.76,1.76,0,0,1-.13-.281.915.915,0,0,1-.05-.271A1.769,1.769,0,0,1,23.958-2.238Zm2.218-.923H24.008a1.329,1.329,0,0,1,.11-.592.921.921,0,0,1,.261-.371.944.944,0,0,1,.351-.2,1.564,1.564,0,0,1,.361-.05,1.493,1.493,0,0,1,.361.05,1.072,1.072,0,0,1,.361.2,1.167,1.167,0,0,1,.261.371A1.492,1.492,0,0,1,26.176-3.162Zm6.082-1.054V0h1.375V-5.34h-4.3L29.3-3.322c-.01.472-.03.853-.06,1.154a3.725,3.725,0,0,1-.141.7.712.712,0,0,1-.211.341.4.4,0,0,1-.281.1,1.692,1.692,0,0,1-.251-.02,1.9,1.9,0,0,1-.181-.06V.06a1.485,1.485,0,0,0,.291.08c.12.01.251.02.412.02A1.473,1.473,0,0,0,29.7-.05a1.584,1.584,0,0,0,.512-.642,4.218,4.218,0,0,0,.271-1.054c.05-.422.09-.913.11-1.475l.02-.994Zm4.216,2.168V-5.34H35.089V0H36.6l1.887-3.222h.02V0H39.9V-5.34H38.441L36.494-2.048ZM46.812-5.34h-2.76V0h2.991a2.3,2.3,0,0,0,.763-.12,1.6,1.6,0,0,0,.582-.341,1.5,1.5,0,0,0,.371-.522,1.837,1.837,0,0,0,.12-.683,1.293,1.293,0,0,0-.211-.743,1.138,1.138,0,0,0-.612-.452,1.208,1.208,0,0,0,.241-.151.812.812,0,0,0,.2-.211.837.837,0,0,0,.141-.3,1.248,1.248,0,0,0,.05-.412,1.416,1.416,0,0,0-.151-.693,1.212,1.212,0,0,0-.412-.432,2.261,2.261,0,0,0-.6-.221A4.1,4.1,0,0,0,46.812-5.34Zm-.311,2.1H45.437V-4.356h1.1a1.312,1.312,0,0,1,.371.04.707.707,0,0,1,.231.11.411.411,0,0,1,.13.171.54.54,0,0,1,.04.221.659.659,0,0,1-.04.251.316.316,0,0,1-.13.171.672.672,0,0,1-.241.11A2.161,2.161,0,0,1,46.5-3.242Zm0,2.258H45.437V-2.319H46.5a2.639,2.639,0,0,1,.432.03.591.591,0,0,1,.291.11.391.391,0,0,1,.161.2.822.822,0,0,1,.05.331.9.9,0,0,1-.03.221.467.467,0,0,1-.13.211.838.838,0,0,1-.281.171A1.638,1.638,0,0,1,46.5-.984ZM52.764-1.4A3.357,3.357,0,0,0,52.433,0H57.3V-1.235H54.2a1.709,1.709,0,0,1,.331-.381c.12-.11.361-.291.713-.542l.562-.391a5,5,0,0,0,1.014-.913,2.231,2.231,0,0,0,.472-1.4,2.127,2.127,0,0,0-.672-1.656,2.486,2.486,0,0,0-1.787-.622,2.04,2.04,0,0,0-1.987,1.064,3.436,3.436,0,0,0-.331,1.465h1.355a2.36,2.36,0,0,1,.161-.873.865.865,0,0,1,.863-.482.9.9,0,0,1,.723.3,1.173,1.173,0,0,1,.251.753,1.453,1.453,0,0,1-.442,1.014,10.233,10.233,0,0,1-1.245.994A3.931,3.931,0,0,0,52.764-1.4ZM62.369-6.2a2.009,2.009,0,0,0-1.907-.954,2,2,0,0,0-1.9.954,5.477,5.477,0,0,0-.552,2.72,5.409,5.409,0,0,0,.552,2.71,2,2,0,0,0,1.9.954,2.009,2.009,0,0,0,1.907-.954,5.52,5.52,0,0,0,.552-2.71A5.589,5.589,0,0,0,62.369-6.2Zm-2.73,4.587a6.779,6.779,0,0,1-.2-1.867,6.757,6.757,0,0,1,.2-1.907A.805.805,0,0,1,60.462-6a.79.79,0,0,1,.823.612,6.836,6.836,0,0,1,.191,1.907,6.848,6.848,0,0,1-.191,1.867.8.8,0,0,1-.823.652A.81.81,0,0,1,59.639-1.616Zm4.336-4.236V-4.9h1.676V0h1.425V-7.106H65.922a1.007,1.007,0,0,1-.06.281,1.245,1.245,0,0,1-.271.512,1.3,1.3,0,0,1-.683.371A6.23,6.23,0,0,1,63.975-5.852Zm5.852-.612a2.629,2.629,0,0,0-.662,1.857,2.163,2.163,0,0,0,.652,1.686,2.213,2.213,0,0,0,1.506.592,1.806,1.806,0,0,0,.964-.241,1.5,1.5,0,0,0,.412-.361,4.662,4.662,0,0,1-.191,1.225,1,1,0,0,1-.974.763.805.805,0,0,1-.572-.191.841.841,0,0,1-.261-.512H69.3a1.826,1.826,0,0,0,.733,1.375,2.313,2.313,0,0,0,1.435.482,2.3,2.3,0,0,0,2.3-1.646A6.037,6.037,0,0,0,74.1-3.583a5.559,5.559,0,0,0-.341-2.148,2.219,2.219,0,0,0-2.228-1.435A2.239,2.239,0,0,0,69.827-6.464Zm2.349,2.83a1.032,1.032,0,0,1-.552.161.945.945,0,0,1-.783-.311,1.5,1.5,0,0,1-.261-.954,1.275,1.275,0,0,1,.4-1.064.975.975,0,0,1,.612-.2.925.925,0,0,1,.773.361,1.459,1.459,0,0,1,.281.954A1.159,1.159,0,0,1,72.175-3.633Zm9.314-.582V-5.34H77.9V0h1.385V-4.216Zm.542,1.546a3.4,3.4,0,0,0,.191,1.134,2.416,2.416,0,0,0,.542.9,2.618,2.618,0,0,0,.863.582,2.928,2.928,0,0,0,1.134.211A3,3,0,0,0,85.916-.05a2.476,2.476,0,0,0,.853-.582,2.71,2.71,0,0,0,.542-.9,3.4,3.4,0,0,0,.181-1.134A3.4,3.4,0,0,0,87.311-3.8a2.71,2.71,0,0,0-.542-.9,2.345,2.345,0,0,0-.853-.582A3,3,0,0,0,84.762-5.5a2.928,2.928,0,0,0-1.134.211,2.474,2.474,0,0,0-.863.582,2.416,2.416,0,0,0-.542.9A3.4,3.4,0,0,0,82.032-2.67Zm1.445,0a3.08,3.08,0,0,1,.07-.6,1.392,1.392,0,0,1,.221-.532,1.156,1.156,0,0,1,.391-.371,1.214,1.214,0,0,1,.6-.141,1.272,1.272,0,0,1,.622.13,1.261,1.261,0,0,1,.391.371,1.478,1.478,0,0,1,.211.532,3.089,3.089,0,0,1,.06.612,3.089,3.089,0,0,1-.06.612,1.428,1.428,0,0,1-.211.522,1.156,1.156,0,0,1-.391.371,1.268,1.268,0,0,1-.622.141,1.214,1.214,0,0,1-.6-.141,1.1,1.1,0,0,1-.391-.381,1.329,1.329,0,0,1-.221-.532A2.9,2.9,0,0,1,83.477-2.67Zm5.109,1.546h-.552V1.285h1.3V0h3.5V1.285h1.3V-1.124h-.672V-5.34H89.3v.452c0,.191,0,.4-.01.632s-.03.482-.05.733a7.564,7.564,0,0,1-.12.813,8,8,0,0,1-.2.813A4.842,4.842,0,0,1,88.586-1.124ZM90.5-4.216h1.586v3.091H89.981a3.671,3.671,0,0,0,.211-.532q.09-.286.151-.572c.04-.2.07-.391.09-.592s.04-.381.05-.552.02-.341.02-.482ZM97.85-.09,99.687-5.34H98.2L97.107-1.405h-.02L95.943-5.34H94.387L96.344.281a.586.586,0,0,1-.04.2.631.631,0,0,1-.13.241.8.8,0,0,1-.241.2.813.813,0,0,1-.371.08,1.708,1.708,0,0,1-.211-.01,1.035,1.035,0,0,1-.2-.02V2.1c.11.01.2.02.291.02a1.936,1.936,0,0,0,.251.01,3.357,3.357,0,0,0,.592-.04,1.2,1.2,0,0,0,.442-.13.964.964,0,0,0,.321-.251,1.861,1.861,0,0,0,.271-.4c.08-.171.161-.361.251-.592S97.75.221,97.85-.09Zm5.781-5.31a6.507,6.507,0,0,0-.582,2.67,7.309,7.309,0,0,0,.683,2.991,6.939,6.939,0,0,0,.723,1.285l.351.482h1.034a12.682,12.682,0,0,1-.9-1.917,8.335,8.335,0,0,1-.442-2.76,9.624,9.624,0,0,1,.161-1.766,8.157,8.157,0,0,1,.863-2.379l.291-.542h-1.054A9.942,9.942,0,0,0,103.631-5.4Zm5.982,3.934-.9-3.874h-2.088V0h1.3V-4.3h.02l1,4.3h1.265l1-4.3h.02V0h1.3V-5.34h-2.027l-.883,3.874Zm7.969-2.75V0h1.375V-5.34h-4.3l-.04,2.017c-.01.472-.03.853-.06,1.154a3.725,3.725,0,0,1-.141.7.712.712,0,0,1-.211.341.4.4,0,0,1-.281.1,1.692,1.692,0,0,1-.251-.02,1.9,1.9,0,0,1-.181-.06V.06a1.485,1.485,0,0,0,.291.08c.12.01.251.02.412.02a1.473,1.473,0,0,0,.823-.211,1.584,1.584,0,0,0,.512-.642,4.218,4.218,0,0,0,.271-1.054c.05-.422.09-.913.11-1.475l.02-.994Zm4.215.8V-5.34h-1.385V0H121.8V-2.288h2.037V0h1.385V-5.34h-1.385v1.927Zm10.408,1.3V0h1.385V-5.34h-1.385v2.208a1.753,1.753,0,0,1-.331.151,2.081,2.081,0,0,1-.562.06,2.594,2.594,0,0,1-.422-.03.639.639,0,0,1-.291-.12.465.465,0,0,1-.171-.241.956.956,0,0,1-.06-.371V-5.34h-1.385v1.927a1.854,1.854,0,0,0,.12.713,1.1,1.1,0,0,0,.361.482,1.685,1.685,0,0,0,.592.261,3.91,3.91,0,0,0,.813.08,2.494,2.494,0,0,0,.381-.02c.13-.01.261-.03.381-.05s.231-.05.331-.08S132.146-2.088,132.206-2.108Zm3.7-.13h3.663a6.763,6.763,0,0,0-.13-1.335,2.671,2.671,0,0,0-.422-1.034,2.1,2.1,0,0,0-.783-.662,2.815,2.815,0,0,0-1.194-.231,2.476,2.476,0,0,0-1.144.231,2.107,2.107,0,0,0-.793.612,2.361,2.361,0,0,0-.442.883,3.6,3.6,0,0,0-.151,1.044,4.02,4.02,0,0,0,.2,1.335,2.412,2.412,0,0,0,.552.893,1.985,1.985,0,0,0,.823.5,2.907,2.907,0,0,0,.994.161,3,3,0,0,0,.763-.09,2.682,2.682,0,0,0,.6-.231,1.877,1.877,0,0,0,.472-.331,2.311,2.311,0,0,0,.331-.381,2.255,2.255,0,0,0,.191-.381,1.055,1.055,0,0,0,.06-.331h-1.435a.8.8,0,0,1-.13.261.955.955,0,0,1-.211.191.727.727,0,0,1-.271.12.933.933,0,0,1-.291.05,1.342,1.342,0,0,1-.482-.08.865.865,0,0,1-.341-.191.714.714,0,0,1-.231-.261,1.76,1.76,0,0,1-.13-.281.915.915,0,0,1-.05-.271A1.768,1.768,0,0,1,135.91-2.238Zm2.218-.923H135.96a1.329,1.329,0,0,1,.11-.592.921.921,0,0,1,.261-.371.944.944,0,0,1,.351-.2,1.563,1.563,0,0,1,.361-.05,1.493,1.493,0,0,1,.361.05,1.072,1.072,0,0,1,.361.2,1.167,1.167,0,0,1,.261.371A1.492,1.492,0,0,1,138.128-3.162Zm6.082-1.054V0h1.375V-5.34h-4.3l-.04,2.017c-.01.472-.03.853-.06,1.154a3.724,3.724,0,0,1-.141.7.711.711,0,0,1-.211.341.4.4,0,0,1-.281.1,1.692,1.692,0,0,1-.251-.02,1.894,1.894,0,0,1-.181-.06V.06a1.485,1.485,0,0,0,.291.08c.12.01.251.02.412.02a1.473,1.473,0,0,0,.823-.211,1.584,1.584,0,0,0,.512-.642,4.218,4.218,0,0,0,.271-1.054c.05-.422.09-.913.11-1.475l.02-.994ZM148.687-5.4a9.941,9.941,0,0,0-1.124-1.937h-1.054l.291.542a8.157,8.157,0,0,1,.863,2.379,9.624,9.624,0,0,1,.161,1.766,8.335,8.335,0,0,1-.442,2.76,12.683,12.683,0,0,1-.9,1.917h1.034l.351-.482a6.938,6.938,0,0,0,.723-1.285,7.309,7.309,0,0,0,.683-2.991A6.506,6.506,0,0,0,148.687-5.4Z" transform="translate(209.403 414.217)" fill="#242647"/><path d="M2.163,0H8.653a2.163,2.163,0,0,1,2.163,2.163V8.653a2.163,2.163,0,0,1-2.163,2.163H2.163A2.163,2.163,0,0,1,0,8.653V2.163A2.163,2.163,0,0,1,2.163,0Z" transform="translate(195.56 406.305)" fill="#f2a947"/><path d="M-3433.956-658.282h19.614a2.866,2.866,0,0,1,2.867,2.867v153.756h-25.348V-655.415A2.867,2.867,0,0,1-3433.956-658.282Z" transform="translate(3583.238 885.164)" fill="#f2a947"/><path d="M-3393.822-549.237h19.615a2.866,2.866,0,0,1,2.866,2.866v44.712h-25.348v-44.712A2.867,2.867,0,0,1-3393.822-549.237Z" transform="translate(3583.238 885.164)" fill="#f2a947"/><path d="M-3353.687-570.441h19.614a2.867,2.867,0,0,1,2.867,2.867v65.915h-25.348v-65.915A2.867,2.867,0,0,1-3353.687-570.441Z" transform="translate(3583.238 885.164)" fill="#f2a947"/><path d="M-3313.553-533.083h19.615a2.867,2.867,0,0,1,2.866,2.867v28.557h-25.348v-28.557A2.867,2.867,0,0,1-3313.553-533.083Z" transform="translate(3583.238 885.164)" fill="#f2a947"/><path d="M-3273.418-572.46h19.614a2.867,2.867,0,0,1,2.867,2.867v67.934h-25.348v-67.934A2.867,2.867,0,0,1-3273.418-572.46Z" transform="translate(3583.238 885.164)" fill="#f2a947"/><path d="M-3233.259-550.247h19.59a2.866,2.866,0,0,1,2.866,2.867v45.721h-25.322V-547.38A2.866,2.866,0,0,1-3233.259-550.247Z" transform="translate(3583.238 885.164)" fill="#f2a947"/><path d="M-3193.149-567.412h19.614a2.867,2.867,0,0,1,2.867,2.867v62.886h-25.348v-62.886A2.867,2.867,0,0,1-3193.149-567.412Z" transform="translate(3583.238 885.164)" fill="#f2a947"/><path d="M-3153.015-551.257h19.615a2.867,2.867,0,0,1,2.866,2.867v46.731h-25.348V-548.39A2.868,2.868,0,0,1-3153.015-551.257Z" transform="translate(3583.238 885.164)" fill="#f2a947"/><path d="M-3113.178-514.73h19.615a2.866,2.866,0,0,1,2.866,2.867v10.382h-25.348v-10.382A2.867,2.867,0,0,1-3113.178-514.73Z" transform="translate(3583.238 885.164)" fill="#f2a947"/><path d="M-3072.746-589.624h19.615a2.866,2.866,0,0,1,2.866,2.866v85.1h-25.348v-85.1A2.867,2.867,0,0,1-3072.746-589.624Z" transform="translate(3583.238 885.164)" fill="#f2a947"/><path d="M-3032.612-566.4H-3013a2.868,2.868,0,0,1,2.867,2.867v61.876h-25.348v-61.876A2.867,2.867,0,0,1-3032.612-566.4Z" transform="translate(3583.238 885.164)" fill="#f2a947"/><path d="M-2992.477-583.566h19.614A2.866,2.866,0,0,1-2970-580.7v79.041h-25.348V-580.7A2.867,2.867,0,0,1-2992.477-583.566Z" transform="translate(3583.238 885.164)" fill="#f2a947"/><path d="M-3424.9-656.263h19.615a2.867,2.867,0,0,1,2.866,2.867v151.737h-25.348V-653.4A2.867,2.867,0,0,1-3424.9-656.263Z" transform="translate(3583.238 885.164)" fill="#4862ad"/><path d="M-3384.768-584.576h19.614a2.867,2.867,0,0,1,2.867,2.867v80.05h-25.348v-80.05A2.867,2.867,0,0,1-3384.768-584.576Z" transform="translate(3583.238 885.164)" fill="#4862ad"/><path d="M-10.6-3.3h-2.007v1.285H-10.6V0h1.285V-2.017h2.007V-3.3H-9.319V-5.31H-10.6ZM-6.469-1.4A3.357,3.357,0,0,0-6.8,0h4.868V-1.235h-3.1A1.709,1.709,0,0,1-4.7-1.616c.12-.11.361-.291.713-.542l.562-.391a5,5,0,0,0,1.014-.913,2.231,2.231,0,0,0,.472-1.4,2.127,2.127,0,0,0-.672-1.656A2.486,2.486,0,0,0-4.4-7.136,2.04,2.04,0,0,0-6.388-6.072,3.436,3.436,0,0,0-6.72-4.607h1.355A2.36,2.36,0,0,1-5.2-5.48a.865.865,0,0,1,.863-.482.9.9,0,0,1,.723.3,1.173,1.173,0,0,1,.251.753,1.453,1.453,0,0,1-.442,1.014A10.233,10.233,0,0,1-5.054-2.9,3.931,3.931,0,0,0-6.469-1.4Zm5.48-1.656A2.179,2.179,0,0,0-1.27-1.967,2.147,2.147,0,0,0-.657-.442,2.413,2.413,0,0,0,1.149.191,2.587,2.587,0,0,0,3.006-.442a2.038,2.038,0,0,0,.662-1.526,2.277,2.277,0,0,0-.261-1.084,2.05,2.05,0,0,0-.793-.783,1.391,1.391,0,0,0,.672-.693,2.128,2.128,0,0,0,.151-.743,1.73,1.73,0,0,0-.582-1.325,2.325,2.325,0,0,0-1.646-.542,2.309,2.309,0,0,0-1.646.542,1.73,1.73,0,0,0-.582,1.325,2.128,2.128,0,0,0,.151.743A1.712,1.712,0,0,0-.2-3.784,1.706,1.706,0,0,0-.989-3.051ZM.557-4.487a.818.818,0,0,1-.241-.632.857.857,0,0,1,.241-.662.891.891,0,0,1,.652-.231.932.932,0,0,1,.662.231.932.932,0,0,1,.231.662.89.89,0,0,1-.231.632.9.9,0,0,1-.662.251A.861.861,0,0,1,.557-4.487Zm-.1,3.232a1.136,1.136,0,0,1-.271-.813,1.107,1.107,0,0,1,.281-.823.976.976,0,0,1,.743-.281,1.015,1.015,0,0,1,.753.281,1.146,1.146,0,0,1,.271.823,1.136,1.136,0,0,1-.271.813.955.955,0,0,1-.753.291A.955.955,0,0,1,.457-1.255ZM6.87.191l3.965-7.3h-.743L6.118.191Zm.522-4.155a1.72,1.72,0,0,0,.532-1.285,1.72,1.72,0,0,0-.532-1.285,1.745,1.745,0,0,0-1.285-.542,1.751,1.751,0,0,0-1.295.542,1.758,1.758,0,0,0-.532,1.285,1.758,1.758,0,0,0,.532,1.285,1.751,1.751,0,0,0,1.295.542A1.729,1.729,0,0,0,7.392-3.965ZM6.659-4.7a.766.766,0,0,1-.552.231A.75.75,0,0,1,5.555-4.7a.75.75,0,0,1-.231-.552A.766.766,0,0,1,5.555-5.8a.75.75,0,0,1,.552-.231.766.766,0,0,1,.552.231.757.757,0,0,1,.221.552A.741.741,0,0,1,6.659-4.7Zm5.5,4.306a1.774,1.774,0,0,0,.532-1.285,1.781,1.781,0,0,0-.532-1.295A1.758,1.758,0,0,0,10.865-3.5a1.72,1.72,0,0,0-1.285.532,1.727,1.727,0,0,0-.532,1.295A1.735,1.735,0,0,0,9.58-.391a1.72,1.72,0,0,0,1.285.532A1.758,1.758,0,0,0,12.16-.391Zm-.743-1.847a.735.735,0,0,1,.231.562.707.707,0,0,1-.231.542.75.75,0,0,1-.552.231.744.744,0,0,1-.542-.231.707.707,0,0,1-.231-.542.735.735,0,0,1,.231-.562.735.735,0,0,1,.542-.221A.741.741,0,0,1,11.417-2.238Z" transform="translate(203.751 298.532)" fill="#242647"/><path d="M-8.672-2.138V-3.463h-2.81v1.325ZM-3.924,0V-1.526h.8V-2.62h-.8V-7.066H-5.49L-8.11-2.75v1.225h2.82V0ZM-7.076-2.62l1.787-3.071V-2.62ZM-2.148-1.4A3.357,3.357,0,0,0-2.479,0H2.389V-1.235h-3.1a1.709,1.709,0,0,1,.331-.381c.12-.11.361-.291.713-.542l.562-.391a5,5,0,0,0,1.014-.913,2.231,2.231,0,0,0,.472-1.4,2.127,2.127,0,0,0-.672-1.656A2.486,2.486,0,0,0-.08-7.136,2.04,2.04,0,0,0-2.068-6.072,3.436,3.436,0,0,0-2.4-4.607h1.355A2.36,2.36,0,0,1-.883-5.48.865.865,0,0,1-.02-5.962a.9.9,0,0,1,.723.3,1.173,1.173,0,0,1,.251.753A1.453,1.453,0,0,1,.512-3.894,10.233,10.233,0,0,1-.733-2.9,3.931,3.931,0,0,0-2.148-1.4ZM5.611.191l3.965-7.3H8.832L4.858.191Zm.522-4.155a1.72,1.72,0,0,0,.532-1.285,1.72,1.72,0,0,0-.532-1.285,1.745,1.745,0,0,0-1.285-.542,1.751,1.751,0,0,0-1.295.542,1.758,1.758,0,0,0-.532,1.285,1.758,1.758,0,0,0,.532,1.285,1.751,1.751,0,0,0,1.295.542A1.729,1.729,0,0,0,6.133-3.965ZM5.4-4.7a.766.766,0,0,1-.552.231A.75.75,0,0,1,4.3-4.7a.75.75,0,0,1-.231-.552A.766.766,0,0,1,4.3-5.8a.75.75,0,0,1,.552-.231A.766.766,0,0,1,5.4-5.8a.757.757,0,0,1,.221.552A.741.741,0,0,1,5.4-4.7ZM10.9-.391a1.774,1.774,0,0,0,.532-1.285A1.781,1.781,0,0,0,10.9-2.971,1.758,1.758,0,0,0,9.605-3.5a1.72,1.72,0,0,0-1.285.532,1.727,1.727,0,0,0-.532,1.295A1.735,1.735,0,0,0,8.321-.391,1.72,1.72,0,0,0,9.605.141,1.758,1.758,0,0,0,10.9-.391Zm-.743-1.847a.735.735,0,0,1,.231.562.707.707,0,0,1-.231.542A.75.75,0,0,1,9.605-.9a.744.744,0,0,1-.542-.231.707.707,0,0,1-.231-.542.735.735,0,0,1,.231-.562.735.735,0,0,1,.542-.221A.741.741,0,0,1,10.157-2.238Z" transform="translate(243.885 312.817)" fill="#242647"/><path d="M-8.973-1.4A3.357,3.357,0,0,0-9.3,0h4.868V-1.235h-3.1a1.709,1.709,0,0,1,.331-.381c.12-.11.361-.291.713-.542l.562-.391a5,5,0,0,0,1.014-.913,2.231,2.231,0,0,0,.472-1.4,2.127,2.127,0,0,0-.672-1.656,2.486,2.486,0,0,0-1.787-.622A2.04,2.04,0,0,0-8.893-6.072a3.436,3.436,0,0,0-.331,1.465h1.355a2.36,2.36,0,0,1,.161-.873.865.865,0,0,1,.863-.482.9.9,0,0,1,.723.3,1.173,1.173,0,0,1,.251.753,1.453,1.453,0,0,1-.442,1.014A10.233,10.233,0,0,1-7.558-2.9,3.931,3.931,0,0,0-8.973-1.4ZM.532-6.2a2.009,2.009,0,0,0-1.907-.954,2,2,0,0,0-1.9.954,5.477,5.477,0,0,0-.552,2.72,5.409,5.409,0,0,0,.552,2.71,2,2,0,0,0,1.9.954A2.009,2.009,0,0,0,.532-.773a5.52,5.52,0,0,0,.552-2.71A5.589,5.589,0,0,0,.532-6.2ZM-2.2-1.616a6.779,6.779,0,0,1-.2-1.867A6.757,6.757,0,0,1-2.2-5.39.805.805,0,0,1-1.375-6a.79.79,0,0,1,.823.612A6.836,6.836,0,0,1-.361-3.483,6.848,6.848,0,0,1-.552-1.616a.8.8,0,0,1-.823.652A.81.81,0,0,1-2.2-1.616ZM3.453,0V-1.465H1.967V0ZM7.718-5.32H9.1a1.914,1.914,0,0,0-.662-1.355,2.355,2.355,0,0,0-1.576-.5,2.138,2.138,0,0,0-1.174.311,2.453,2.453,0,0,0-.8.833,4.092,4.092,0,0,0-.472,1.506A11.432,11.432,0,0,0,4.346-3.2a4.574,4.574,0,0,0,.5,2.268A2.116,2.116,0,0,0,6.825.191,2.19,2.19,0,0,0,8.662-.572a2.742,2.742,0,0,0,.6-1.756,2.334,2.334,0,0,0-.612-1.646,2.035,2.035,0,0,0-1.546-.632,1.882,1.882,0,0,0-.783.141,1.545,1.545,0,0,0-.612.452,4.812,4.812,0,0,1,.221-1.245,1.008,1.008,0,0,1,.974-.773.794.794,0,0,1,.683.341A.755.755,0,0,1,7.718-5.32Zm-1.656,4a1.363,1.363,0,0,1-.311-.933,1.24,1.24,0,0,1,.412-1.034,1,1,0,0,1,.632-.211.969.969,0,0,1,.743.331,1.359,1.359,0,0,1,.3.954,1.42,1.42,0,0,1-.261.9.856.856,0,0,1-.733.351A.971.971,0,0,1,6.062-1.315Z" transform="translate(208.277 311.23)" fill="#fff9ea"/><path d="M-8.973-1.4A3.357,3.357,0,0,0-9.3,0h4.868V-1.235h-3.1a1.709,1.709,0,0,1,.331-.381c.12-.11.361-.291.713-.542l.562-.391a5,5,0,0,0,1.014-.913,2.231,2.231,0,0,0,.472-1.4,2.127,2.127,0,0,0-.672-1.656,2.486,2.486,0,0,0-1.787-.622A2.04,2.04,0,0,0-8.893-6.072a3.436,3.436,0,0,0-.331,1.465h1.355a2.36,2.36,0,0,1,.161-.873.865.865,0,0,1,.863-.482.9.9,0,0,1,.723.3,1.173,1.173,0,0,1,.251.753,1.453,1.453,0,0,1-.442,1.014A10.233,10.233,0,0,1-7.558-2.9,3.931,3.931,0,0,0-8.973-1.4Zm5.8-5.069a2.629,2.629,0,0,0-.662,1.857,2.163,2.163,0,0,0,.652,1.686,2.213,2.213,0,0,0,1.506.592,1.806,1.806,0,0,0,.964-.241A1.5,1.5,0,0,0-.3-2.931,4.662,4.662,0,0,1-.492-1.706a1,1,0,0,1-.974.763.805.805,0,0,1-.572-.191A.841.841,0,0,1-2.3-1.646h-1.4A1.826,1.826,0,0,0-2.961-.271,2.313,2.313,0,0,0-1.526.211a2.3,2.3,0,0,0,2.3-1.646A6.038,6.038,0,0,0,1.1-3.583,5.559,5.559,0,0,0,.763-5.731,2.219,2.219,0,0,0-1.465-7.166,2.239,2.239,0,0,0-3.172-6.464Zm2.349,2.83a1.032,1.032,0,0,1-.552.161.945.945,0,0,1-.783-.311,1.5,1.5,0,0,1-.261-.954,1.275,1.275,0,0,1,.4-1.064A.975.975,0,0,1-1.405-6a.925.925,0,0,1,.773.361,1.459,1.459,0,0,1,.281.954A1.159,1.159,0,0,1-.823-3.633ZM3.453,0V-1.465H1.967V0ZM8.481,0V-1.526h.8V-2.62h-.8V-7.066H6.915L4.3-2.75v1.225h2.82V0ZM5.33-2.62,7.116-5.691V-2.62Z" transform="translate(168.405 239.832)" fill="#fff9ea"/><path d="M-7.814-3.3H-9.821v1.285h2.007V0h1.285V-2.017h2.007V-3.3H-6.529V-5.31H-7.814ZM.346-6.2a2.009,2.009,0,0,0-1.907-.954,2,2,0,0,0-1.9.954,5.477,5.477,0,0,0-.552,2.72,5.409,5.409,0,0,0,.552,2.71,2,2,0,0,0,1.9.954A2.009,2.009,0,0,0,.346-.773,5.52,5.52,0,0,0,.9-3.483,5.589,5.589,0,0,0,.346-6.2Zm-2.73,4.587a6.779,6.779,0,0,1-.2-1.867,6.757,6.757,0,0,1,.2-1.907A.805.805,0,0,1-1.561-6a.79.79,0,0,1,.823.612A6.836,6.836,0,0,1-.547-3.483,6.848,6.848,0,0,1-.738-1.616a.8.8,0,0,1-.823.652A.81.81,0,0,1-2.384-1.616ZM4.08.191l3.965-7.3H7.3L3.327.191ZM4.6-3.965a1.72,1.72,0,0,0,.532-1.285A1.72,1.72,0,0,0,4.6-6.534a1.745,1.745,0,0,0-1.285-.542,1.751,1.751,0,0,0-1.295.542A1.758,1.758,0,0,0,1.49-5.249a1.758,1.758,0,0,0,.532,1.285,1.751,1.751,0,0,0,1.295.542A1.729,1.729,0,0,0,4.6-3.965ZM3.869-4.7a.766.766,0,0,1-.552.231A.75.75,0,0,1,2.765-4.7a.75.75,0,0,1-.231-.552A.766.766,0,0,1,2.765-5.8a.75.75,0,0,1,.552-.231.766.766,0,0,1,.552.231.757.757,0,0,1,.221.552A.741.741,0,0,1,3.869-4.7Zm5.5,4.306A1.774,1.774,0,0,0,9.9-1.676a1.781,1.781,0,0,0-.532-1.295A1.758,1.758,0,0,0,8.075-3.5a1.72,1.72,0,0,0-1.285.532,1.727,1.727,0,0,0-.532,1.295A1.735,1.735,0,0,0,6.79-.391,1.72,1.72,0,0,0,8.075.141,1.758,1.758,0,0,0,9.369-.391ZM8.627-2.238a.735.735,0,0,1,.231.562.707.707,0,0,1-.231.542A.75.75,0,0,1,8.075-.9a.744.744,0,0,1-.542-.231A.707.707,0,0,1,7.3-1.676a.735.735,0,0,1,.231-.562.735.735,0,0,1,.542-.221A.741.741,0,0,1,8.627-2.238Z" transform="translate(163.616 224.975)" fill="#242647"/><path d="M-3345.583-514.785h19.615a2.867,2.867,0,0,1,2.867,2.867v10.259h-25.349v-10.259A2.867,2.867,0,0,1-3345.583-514.785Z" transform="translate(3583.238 885.164)" fill="#4862ad"/><path d="M-8.923-5.852V-4.9h1.676V0h1.425V-7.106H-6.976a1.007,1.007,0,0,1-.06.281,1.245,1.245,0,0,1-.271.512,1.3,1.3,0,0,1-.683.371A6.23,6.23,0,0,1-8.923-5.852ZM.532-6.2a2.009,2.009,0,0,0-1.907-.954,2,2,0,0,0-1.9.954,5.477,5.477,0,0,0-.552,2.72,5.409,5.409,0,0,0,.552,2.71,2,2,0,0,0,1.9.954A2.009,2.009,0,0,0,.532-.773a5.52,5.52,0,0,0,.552-2.71A5.589,5.589,0,0,0,.532-6.2ZM-2.2-1.616a6.779,6.779,0,0,1-.2-1.867A6.757,6.757,0,0,1-2.2-5.39.805.805,0,0,1-1.375-6a.79.79,0,0,1,.823.612A6.836,6.836,0,0,1-.361-3.483,6.848,6.848,0,0,1-.552-1.616a.8.8,0,0,1-.823.652A.81.81,0,0,1-2.2-1.616ZM3.453,0V-1.465H1.967V0ZM4.577-3.051A2.179,2.179,0,0,0,4.3-1.967,2.147,2.147,0,0,0,4.908-.442,2.413,2.413,0,0,0,6.715.191,2.587,2.587,0,0,0,8.572-.442a2.038,2.038,0,0,0,.662-1.526,2.277,2.277,0,0,0-.261-1.084,2.05,2.05,0,0,0-.793-.783,1.391,1.391,0,0,0,.672-.693A2.128,2.128,0,0,0,9-5.269a1.73,1.73,0,0,0-.582-1.325,2.325,2.325,0,0,0-1.646-.542,2.309,2.309,0,0,0-1.646.542,1.73,1.73,0,0,0-.582,1.325,2.128,2.128,0,0,0,.151.743,1.712,1.712,0,0,0,.672.743A1.706,1.706,0,0,0,4.577-3.051ZM6.123-4.487a.818.818,0,0,1-.241-.632.857.857,0,0,1,.241-.662.891.891,0,0,1,.652-.231.932.932,0,0,1,.662.231.932.932,0,0,1,.231.662.89.89,0,0,1-.231.632.9.9,0,0,1-.662.251A.861.861,0,0,1,6.123-4.487Zm-.1,3.232a1.136,1.136,0,0,1-.271-.813,1.107,1.107,0,0,1,.281-.823.976.976,0,0,1,.743-.281,1.015,1.015,0,0,1,.753.281,1.146,1.146,0,0,1,.271.823,1.136,1.136,0,0,1-.271.813.955.955,0,0,1-.753.291A.955.955,0,0,1,6.022-1.255Z" transform="translate(247.462 380.009)" fill="#fff9ea"/><path d="M6.76-14c-2.2,0-3.08.82-3.08,3.06v7.88C3.68-.82,4.56,0,6.76,0h.68V-1.8H6.9c-.7,0-1.02-.26-1.02-1.26v-7.88c0-1,.32-1.26,1.02-1.26h.54V-14Zm5.68,4.22c0,1.12-.5,1.48-1.32,1.48h-.66v2H11c1,0,1.44.48,1.44,1.78v1.1c0,1.24-.44,1.58-1.14,1.58s-1.14-.38-1.14-1.38V-4.9H8.08v1.54C8.08-1.12,9.2.16,11.36.16s3.28-1.28,3.28-3.52v-1.1c0-1.42-.44-2.46-1.54-2.94,1.06-.44,1.54-1.38,1.54-2.88v-.36c0-2.24-1.12-3.52-3.28-3.52s-3.24,1.24-3.24,3.48v1.04h2.02v-1.14c0-1,.46-1.38,1.16-1.38s1.14.34,1.14,1.6ZM19-14H15.76V0h2.2V-5.26H19c2.2,0,3.28-1.22,3.28-3.46v-1.82C22.28-12.78,21.2-14,19-14Zm0,2c.7,0,1.08.32,1.08,1.32v2.1c0,1-.38,1.32-1.08,1.32H17.96V-12Zm8.04,5.58.9-3.44V0h1.98V-14H27.5L25.7-8.22l-.8,3.08V-14H22.94V0H25.2ZM30.48-12h2.3V0h2.2V-12h2.3v-2h-6.8Zm9.6,0h3.8v-2h-6V0h6V-2h-3.8V-6.1H43.1v-2H40.08ZM44.26.02h.34c2.2,0,3.12-1,3.2-3.56L48.04-12h1.92V0H52.2V-14H45.98L45.62-3.42c-.04,1.3-.36,1.44-1.36,1.44ZM57.62-6.42l.9-3.44V0H60.5V-14H58.08l-1.8,5.78-.8,3.08V-14H53.52V0h2.26ZM62.54,0l-.58,2h.9l.96-2.22v-1.9H61.7V0Zm8.3-14H67.78V0H69.7V-9.9L71.34,0h2.08l1.52-10.04V0h2.08V-14H73.96l-1.5,9.94ZM77.64.02h.34c2.2,0,3.12-1,3.2-3.56L81.42-12h1.92V0h2.24V-14H79.36L79-3.42c-.04,1.3-.36,1.44-1.36,1.44ZM89.1-6h2.5V0h2.24V-14H91.6v6H89.1v-6H86.9V0h2.2Zm5.98,3.88V0H97.2V-2.12ZM105.66-14v5.68c0,.94-.44,1.44-1.14,1.44a1.236,1.236,0,0,1-1.28-1.38V-14h-2.2v5.92c0,1.92.94,3.22,2.74,3.22a2.72,2.72,0,0,0,1.88-.78V0h2.2V-14Zm5.66,2h3.8v-2h-6V0h6V-2h-3.8V-6.1h3.02v-2h-3.02ZM115.5.02h.34c2.2,0,3.12-1,3.2-3.56l.24-8.46h1.92V0h2.24V-14h-6.22l-.36,10.58c-.04,1.3-.36,1.44-1.36,1.44Zm9.26-2.14V0h2.12V-2.12ZM127.64-14v1.8h.54c.7,0,1.02.26,1.02,1.26v7.88c0,1-.32,1.26-1.02,1.26h-.54V0h.68c2.2,0,3.08-.82,3.08-3.06v-7.88c0-2.24-.88-3.06-3.08-3.06Z" transform="translate(358 191)" fill="rgba(36,37,73,0.5)"/></g></svg>