<svg xmlns="http://www.w3.org/2000/svg" xmlns:xlink="http://www.w3.org/1999/xlink" width="276" height="266" viewBox="0 0 276 266"><defs><filter id="a" x="0" y="0" width="276" height="266" filterUnits="userSpaceOnUse"><feOffset dx="1" dy="3" input="SourceAlpha"/><feGaussianBlur stdDeviation="3" result="b"/><feFlood flood-opacity="0.149"/><feComposite operator="in" in2="b"/><feComposite in="SourceGraphic"/></filter></defs><g transform="translate(-374 -471)"><g transform="matrix(1, 0, 0, 1, 374, 471)" filter="url(#a)"><rect width="258" height="248" rx="8" transform="translate(8 6)" fill="#fff9ea"/></g><path d="M7.378-7.084l.1.336h2.1a3.788,3.788,0,0,0-.126-.728,5.155,5.155,0,0,0-.322-.784,4.377,4.377,0,0,0-.56-.756,3.478,3.478,0,0,0-.812-.658,4.8,4.8,0,0,0-1.12-.462A5.7,5.7,0,0,0,5.18-10.3a5.213,5.213,0,0,0-1.134.126,4.68,4.68,0,0,0-1.064.42,3.815,3.815,0,0,0-.938.7A4.222,4.222,0,0,0,1.288-8.05,5.247,5.247,0,0,0,.8-6.706a6.944,6.944,0,0,0-.182,1.68,7.006,7.006,0,0,0,.308,2.17,4.822,4.822,0,0,0,.9,1.68A3.932,3.932,0,0,0,3.276-.126,4.937,4.937,0,0,0,5.264.252,4.88,4.88,0,0,0,6.776.028,3.867,3.867,0,0,0,8.05-.658a4.092,4.092,0,0,0,.966-1.148,5.019,5.019,0,0,0,.56-1.638H7.49a5.515,5.515,0,0,1-.2.56,1.879,1.879,0,0,1-.364.616,2.116,2.116,0,0,1-.672.5,2.6,2.6,0,0,1-1.078.2,2.2,2.2,0,0,1-1.022-.238,2.121,2.121,0,0,1-.784-.672,3.272,3.272,0,0,1-.49-1.092,5.779,5.779,0,0,1-.168-1.456,5.859,5.859,0,0,1,.126-1.3,3.357,3.357,0,0,1,.35-.938,2.151,2.151,0,0,1,.462-.616A3.2,3.2,0,0,1,4.2-8.26a3,3,0,0,1,.532-.182,2.806,2.806,0,0,1,.448-.042,3.2,3.2,0,0,1,.784.084,2.443,2.443,0,0,1,.574.238,1.959,1.959,0,0,1,.406.322,3.112,3.112,0,0,1,.266.378A2.864,2.864,0,0,1,7.378-7.084Zm3.206,3.36a4.745,4.745,0,0,0,.266,1.582,3.37,3.37,0,0,0,.756,1.26,3.652,3.652,0,0,0,1.2.812,4.084,4.084,0,0,0,1.582.294A4.178,4.178,0,0,0,16-.07a3.453,3.453,0,0,0,1.19-.812,3.781,3.781,0,0,0,.756-1.26A4.747,4.747,0,0,0,18.2-3.724a4.747,4.747,0,0,0-.252-1.582,3.781,3.781,0,0,0-.756-1.26A3.271,3.271,0,0,0,16-7.378a4.178,4.178,0,0,0-1.61-.294,4.084,4.084,0,0,0-1.582.294,3.451,3.451,0,0,0-1.2.812,3.37,3.37,0,0,0-.756,1.26A4.745,4.745,0,0,0,10.584-3.724Zm2.016,0a4.3,4.3,0,0,1,.1-.84,1.942,1.942,0,0,1,.308-.742,1.612,1.612,0,0,1,.546-.518,1.694,1.694,0,0,1,.84-.2,1.774,1.774,0,0,1,.868.182,1.759,1.759,0,0,1,.546.518,2.061,2.061,0,0,1,.294.742,4.309,4.309,0,0,1,.084.854,4.309,4.309,0,0,1-.084.854,1.991,1.991,0,0,1-.294.728,1.612,1.612,0,0,1-.546.518,1.769,1.769,0,0,1-.868.2,1.694,1.694,0,0,1-.84-.2,1.528,1.528,0,0,1-.546-.532A1.854,1.854,0,0,1,12.7-2.9,4.038,4.038,0,0,1,12.6-3.724ZM23.968-4.816h2.016a3.366,3.366,0,0,0-.21-.994,2.925,2.925,0,0,0-.42-.742,2.976,2.976,0,0,0-.588-.532,4.524,4.524,0,0,0-.686-.35,3.345,3.345,0,0,0-.714-.182,6.645,6.645,0,0,0-.714-.056,3.606,3.606,0,0,0-1.428.266,2.891,2.891,0,0,0-1.106.756A3.566,3.566,0,0,0,19.4-5.418a5.2,5.2,0,0,0-.252,1.694,5.593,5.593,0,0,0,.238,1.68A3.323,3.323,0,0,0,20.062-.8a2.92,2.92,0,0,0,1.092.77,4.148,4.148,0,0,0,1.5.252A3.693,3.693,0,0,0,23.814.056a3.149,3.149,0,0,0,.868-.434,2.807,2.807,0,0,0,.63-.588,4.776,4.776,0,0,0,.392-.658,4.275,4.275,0,0,0,.224-.63,2.259,2.259,0,0,0,.056-.476H23.968a1.456,1.456,0,0,1-.07.406,1.523,1.523,0,0,1-.252.434,1.528,1.528,0,0,1-.406.322,1.143,1.143,0,0,1-.588.14,1.257,1.257,0,0,1-.8-.224,1.251,1.251,0,0,1-.448-.56,2.071,2.071,0,0,1-.2-.742,7.5,7.5,0,0,1-.042-.77,7.407,7.407,0,0,1,.056-.756,2.752,2.752,0,0,1,.21-.756,1.448,1.448,0,0,1,.448-.56,1.2,1.2,0,0,1,.77-.224,2.07,2.07,0,0,1,.546.07,1.079,1.079,0,0,1,.378.238,1.028,1.028,0,0,1,.238.378A2.274,2.274,0,0,1,23.968-4.816ZM26.74-7.448V-5.88h2.254V0h1.932V-5.88H33.18V-7.448ZM40.4-1.47V-5.418a3.135,3.135,0,0,0-.112-.8,1.785,1.785,0,0,0-.462-.728,2.858,2.858,0,0,0-.966-.532,5.776,5.776,0,0,0-1.624-.2,4.794,4.794,0,0,0-1.2.168,3.022,3.022,0,0,0-.854.392,2.157,2.157,0,0,0-.574.546,2.767,2.767,0,0,0-.336.574,2.539,2.539,0,0,0-.168.532,2.527,2.527,0,0,0-.042.378h1.932l.084-.406a.912.912,0,0,1,.21-.322.965.965,0,0,1,.378-.224,2.327,2.327,0,0,1,.616-.07,2.274,2.274,0,0,1,.574.056.891.891,0,0,1,.364.182.63.63,0,0,1,.2.266,1.2,1.2,0,0,1,.056.336.667.667,0,0,1-.07.308.483.483,0,0,1-.168.168.46.46,0,0,1-.224.1,1.546,1.546,0,0,1-.224.042l-1.89.28a2.351,2.351,0,0,0-.854.266,2.243,2.243,0,0,0-.644.49,2.226,2.226,0,0,0-.406.686,2.43,2.43,0,0,0-.14.854,2.687,2.687,0,0,0,.168.994A2.056,2.056,0,0,0,34.5-.35a2.237,2.237,0,0,0,.728.434,2.782,2.782,0,0,0,.924.14,3.7,3.7,0,0,0,.84-.084A2.456,2.456,0,0,0,37.6-.1a3.03,3.03,0,0,0,.49-.336l.434-.434a1.405,1.405,0,0,0,.07.518L38.71,0h2.142V-.308a.382.382,0,0,1-.168-.084.443.443,0,0,1-.14-.2.873.873,0,0,1-.1-.336A2.879,2.879,0,0,1,40.4-1.47ZM38.472-3.64v.756a2.149,2.149,0,0,1-.1.644,1.188,1.188,0,0,1-.252.476,1.161,1.161,0,0,1-.336.308,2.434,2.434,0,0,1-.378.2,2.21,2.21,0,0,1-.364.084,2.673,2.673,0,0,1-.28.028,1.208,1.208,0,0,1-.392-.056.768.768,0,0,1-.294-.168.784.784,0,0,1-.224-.294,1.171,1.171,0,0,1-.07-.406,1.16,1.16,0,0,1,.084-.476.966.966,0,0,1,.252-.336,1.472,1.472,0,0,1,.42-.21,4.566,4.566,0,0,1,.588-.14l.518-.1a1.755,1.755,0,0,0,.476-.14A1.994,1.994,0,0,0,38.472-3.64Zm7.6-3.808h-3.85V0H46.4A3.2,3.2,0,0,0,47.46-.168a2.226,2.226,0,0,0,.812-.476,2.094,2.094,0,0,0,.518-.728,2.563,2.563,0,0,0,.168-.952,1.8,1.8,0,0,0-.294-1.036,1.587,1.587,0,0,0-.854-.63,1.685,1.685,0,0,0,.336-.21,1.132,1.132,0,0,0,.28-.294,1.168,1.168,0,0,0,.2-.42,1.741,1.741,0,0,0,.07-.574,1.975,1.975,0,0,0-.21-.966,1.69,1.69,0,0,0-.574-.6,3.153,3.153,0,0,0-.84-.308A5.712,5.712,0,0,0,46.074-7.448ZM45.64-4.522H44.156V-6.076H45.7a1.829,1.829,0,0,1,.518.056.985.985,0,0,1,.322.154.573.573,0,0,1,.182.238.753.753,0,0,1,.056.308.919.919,0,0,1-.056.35.441.441,0,0,1-.182.238.937.937,0,0,1-.336.154A3.014,3.014,0,0,1,45.64-4.522Zm0,3.15H44.156V-3.234H45.64a3.68,3.68,0,0,1,.6.042.824.824,0,0,1,.406.154.545.545,0,0,1,.224.28,1.147,1.147,0,0,1,.07.462,1.249,1.249,0,0,1-.042.308.651.651,0,0,1-.182.294,1.168,1.168,0,0,1-.392.238A2.285,2.285,0,0,1,45.64-1.372ZM61.11,0V-7.448H54.4V0h1.932V-5.88h2.842V0Zm1.4-3.724a4.745,4.745,0,0,0,.266,1.582,3.37,3.37,0,0,0,.756,1.26,3.652,3.652,0,0,0,1.2.812,4.084,4.084,0,0,0,1.582.294,4.178,4.178,0,0,0,1.61-.294,3.453,3.453,0,0,0,1.19-.812,3.781,3.781,0,0,0,.756-1.26,4.746,4.746,0,0,0,.252-1.582,4.746,4.746,0,0,0-.252-1.582,3.781,3.781,0,0,0-.756-1.26,3.271,3.271,0,0,0-1.19-.812,4.178,4.178,0,0,0-1.61-.294,4.084,4.084,0,0,0-1.582.294,3.451,3.451,0,0,0-1.2.812,3.37,3.37,0,0,0-.756,1.26A4.745,4.745,0,0,0,62.51-3.724Zm2.016,0a4.3,4.3,0,0,1,.1-.84,1.942,1.942,0,0,1,.308-.742,1.612,1.612,0,0,1,.546-.518,1.694,1.694,0,0,1,.84-.2,1.774,1.774,0,0,1,.868.182,1.759,1.759,0,0,1,.546.518,2.062,2.062,0,0,1,.294.742,4.309,4.309,0,0,1,.084.854,4.309,4.309,0,0,1-.084.854,1.991,1.991,0,0,1-.294.728,1.612,1.612,0,0,1-.546.518,1.769,1.769,0,0,1-.868.2,1.694,1.694,0,0,1-.84-.2,1.528,1.528,0,0,1-.546-.532,1.854,1.854,0,0,1-.308-.742A4.038,4.038,0,0,1,64.526-3.724ZM75.894-4.816H77.91a3.366,3.366,0,0,0-.21-.994,2.925,2.925,0,0,0-.42-.742,2.976,2.976,0,0,0-.588-.532,4.525,4.525,0,0,0-.686-.35,3.344,3.344,0,0,0-.714-.182,6.645,6.645,0,0,0-.714-.056,3.606,3.606,0,0,0-1.428.266,2.891,2.891,0,0,0-1.106.756,3.566,3.566,0,0,0-.714,1.232,5.2,5.2,0,0,0-.252,1.694,5.593,5.593,0,0,0,.238,1.68A3.323,3.323,0,0,0,71.988-.8a2.92,2.92,0,0,0,1.092.77,4.148,4.148,0,0,0,1.5.252A3.693,3.693,0,0,0,75.74.056a3.149,3.149,0,0,0,.868-.434,2.807,2.807,0,0,0,.63-.588,4.776,4.776,0,0,0,.392-.658,4.275,4.275,0,0,0,.224-.63,2.259,2.259,0,0,0,.056-.476H75.894a1.456,1.456,0,0,1-.07.406,1.523,1.523,0,0,1-.252.434,1.528,1.528,0,0,1-.406.322,1.143,1.143,0,0,1-.588.14,1.257,1.257,0,0,1-.8-.224,1.251,1.251,0,0,1-.448-.56,2.071,2.071,0,0,1-.2-.742,7.5,7.5,0,0,1-.042-.77,7.407,7.407,0,0,1,.056-.756,2.753,2.753,0,0,1,.21-.756,1.448,1.448,0,0,1,.448-.56,1.2,1.2,0,0,1,.77-.224,2.07,2.07,0,0,1,.546.07,1.079,1.079,0,0,1,.378.238,1.028,1.028,0,0,1,.238.378A2.274,2.274,0,0,1,75.894-4.816Zm4.8,1.694h5.11a9.433,9.433,0,0,0-.182-1.862,3.725,3.725,0,0,0-.588-1.442,2.925,2.925,0,0,0-1.092-.924,3.926,3.926,0,0,0-1.666-.322,3.453,3.453,0,0,0-1.6.322,2.939,2.939,0,0,0-1.106.854,3.293,3.293,0,0,0-.616,1.232,5.016,5.016,0,0,0-.21,1.456,5.607,5.607,0,0,0,.28,1.862A3.364,3.364,0,0,0,79.8-.7a2.768,2.768,0,0,0,1.148.7,4.055,4.055,0,0,0,1.386.224A4.185,4.185,0,0,0,83.4.1a3.74,3.74,0,0,0,.84-.322A2.618,2.618,0,0,0,84.9-.686a3.223,3.223,0,0,0,.462-.532,3.144,3.144,0,0,0,.266-.532,1.472,1.472,0,0,0,.084-.462h-2a1.111,1.111,0,0,1-.182.364,1.332,1.332,0,0,1-.294.266,1.013,1.013,0,0,1-.378.168,1.3,1.3,0,0,1-.406.07,1.871,1.871,0,0,1-.672-.112,1.207,1.207,0,0,1-.476-.266,1,1,0,0,1-.322-.364,2.455,2.455,0,0,1-.182-.392,1.276,1.276,0,0,1-.07-.378A2.468,2.468,0,0,1,80.7-3.122ZM83.79-4.41H80.766a1.853,1.853,0,0,1,.154-.826,1.284,1.284,0,0,1,.364-.518,1.316,1.316,0,0,1,.49-.28,2.181,2.181,0,0,1,.5-.07,2.082,2.082,0,0,1,.5.07,1.5,1.5,0,0,1,.5.28,1.627,1.627,0,0,1,.364.518A2.081,2.081,0,0,1,83.79-4.41Zm5.236,2.842v-5.88H87.094V0h8.96V1.792h1.764v-3.36h-.9v-5.88H94.99v5.88H92.974v-5.88H91.042v5.88Zm11.116-1.554h5.11a9.433,9.433,0,0,0-.182-1.862,3.725,3.725,0,0,0-.588-1.442,2.925,2.925,0,0,0-1.092-.924,3.926,3.926,0,0,0-1.666-.322,3.453,3.453,0,0,0-1.6.322,2.939,2.939,0,0,0-1.106.854,3.293,3.293,0,0,0-.616,1.232,5.016,5.016,0,0,0-.21,1.456,5.607,5.607,0,0,0,.28,1.862A3.364,3.364,0,0,0,99.246-.7a2.768,2.768,0,0,0,1.148.7,4.055,4.055,0,0,0,1.386.224A4.185,4.185,0,0,0,102.844.1a3.74,3.74,0,0,0,.84-.322,2.618,2.618,0,0,0,.658-.462,3.223,3.223,0,0,0,.462-.532,3.144,3.144,0,0,0,.266-.532,1.472,1.472,0,0,0,.084-.462h-2a1.111,1.111,0,0,1-.182.364,1.332,1.332,0,0,1-.294.266,1.013,1.013,0,0,1-.378.168,1.3,1.3,0,0,1-.406.07,1.871,1.871,0,0,1-.672-.112,1.207,1.207,0,0,1-.476-.266,1,1,0,0,1-.322-.364,2.455,2.455,0,0,1-.182-.392,1.276,1.276,0,0,1-.07-.378A2.468,2.468,0,0,1,100.142-3.122Zm3.094-1.288h-3.024a1.853,1.853,0,0,1,.154-.826,1.284,1.284,0,0,1,.364-.518,1.316,1.316,0,0,1,.49-.28,2.181,2.181,0,0,1,.5-.07,2.082,2.082,0,0,1,.5.07,1.5,1.5,0,0,1,.5.28,1.627,1.627,0,0,1,.364.518A2.081,2.081,0,0,1,103.236-4.41Zm5.236-.35V-7.448H106.54V0h1.932V-3.192h2.842V0h1.932V-7.448h-1.932V-4.76Zm8.554,1.9V-7.448h-1.932V0h2.114l2.632-4.494h.028V0H121.8V-7.448h-2.03l-2.716,4.592Zm11.4.112V0h1.946V-7.448h-4.354c-.14.014-.294.014-.462.042a3.082,3.082,0,0,0-.518.1,1.7,1.7,0,0,0-.49.182,2.156,2.156,0,0,0-.392.266,1.625,1.625,0,0,0-.336.406,1.7,1.7,0,0,0-.252.532,2.749,2.749,0,0,0-.1.714,1.209,1.209,0,0,0,.014.21,1.913,1.913,0,0,0,.028.266l.084.28a.754.754,0,0,0,.14.28,2.163,2.163,0,0,0,.266.336,1.331,1.331,0,0,0,.28.21.815.815,0,0,0,.266.14l.224.084a2.642,2.642,0,0,0-.518.21.809.809,0,0,0-.294.28,1.023,1.023,0,0,0-.154.378,2.5,2.5,0,0,0-.084.518l-.1.9a2.1,2.1,0,0,0-.028.28l-.042.266a1.647,1.647,0,0,1-.1.28,1.4,1.4,0,0,1-.14.294h2.044a2.18,2.18,0,0,0,.14-.518l.028-.406.028-.714a2.1,2.1,0,0,1,.112-.6.856.856,0,0,1,.294-.336,1.454,1.454,0,0,1,.49-.14c.2-.014.434-.028.714-.028Zm-1.554-3.248h1.554v1.876h-1.61c-.154,0-.308,0-.462-.014a1.029,1.029,0,0,1-.42-.1.745.745,0,0,1-.308-.28.933.933,0,0,1-.126-.532.984.984,0,0,1,.126-.546.626.626,0,0,1,.308-.294,1.166,1.166,0,0,1,.448-.1C126.532-5.992,126.7-5.992,126.868-5.992Z" transform="translate(393.747 498.79)" fill="#242549"/><g transform="translate(388 655)" fill="none"><path d="M8,0H238a8,8,0,0,1,8,8V22a8,8,0,0,1-8,8H8a8,8,0,0,1-8-8V8A8,8,0,0,1,8,0Z" stroke="none"/><path d="M 8 2 C 4.691604614257813 2 2 4.691600799560547 2 8 L 2 22 C 2 25.30839920043945 4.691604614257813 28 8 28 L 238 28 C 241.3083953857422 28 244 25.30839920043945 244 22 L 244 8 C 244 4.691600799560547 241.3083953857422 2 238 2 L 8 2 M 8 0 L 238 0 C 242.4182739257813 0 246 3.581733703613281 246 8 L 246 22 C 246 26.41826629638672 242.4182739257813 30 238 30 L 8 30 C 3.58172607421875 30 0 26.41826629638672 0 22 L 0 8 C 0 3.581733703613281 3.58172607421875 0 8 0 Z" stroke="none" fill="#242549"/></g><g transform="translate(389 655)" fill="#242549"><path d="M 65 29 L 8 29 C 4.140190124511719 29 1 25.85980987548828 1 22 L 1 8 C 1 4.140190124511719 4.140190124511719 1 8 1 L 65 1 C 68.85980987548828 1 72 4.140190124511719 72 8 L 72 22 C 72 25.85980987548828 68.85980987548828 29 65 29 Z" stroke="none"/><path d="M 8 2 C 4.69158935546875 2 2 4.69158935546875 2 8 L 2 22 C 2 25.30841064453125 4.69158935546875 28 8 28 L 65 28 C 68.30841064453125 28 71 25.30841064453125 71 22 L 71 8 C 71 4.69158935546875 68.30841064453125 2 65 2 L 8 2 M 8 0 L 65 0 C 69.41827392578125 0 73 3.581722259521484 73 8 L 73 22 C 73 26.41827774047852 69.41827392578125 30 65 30 L 8 30 C 3.581718444824219 30 0 26.41827774047852 0 22 L 0 8 C 0 3.581722259521484 3.581718444824219 0 8 0 Z" stroke="none" fill="#242549"/></g><g transform="translate(445 655)" fill="#242549" opacity="0.66"><path d="M 89 29 L 8 29 C 4.140186786651611 29 1 25.85981369018555 1 22 L 1 8 C 1 4.140186786651611 4.140186786651611 1 8 1 L 89 1 C 92.85980987548828 1 96 4.140186786651611 96 8 L 96 22 C 96 25.85981369018555 92.85980987548828 29 89 29 Z" stroke="none"/><path d="M 8 2 C 4.69158935546875 2 2 4.691585540771484 2 8 L 2 22 C 2 25.30841445922852 4.69158935546875 28 8 28 L 89 28 C 92.30841064453125 28 95 25.30841445922852 95 22 L 95 8 C 95 4.691585540771484 92.30841064453125 2 89 2 L 8 2 M 8 0 L 89 0 C 93.41828918457031 0 97 3.581727981567383 97 8 L 97 22 C 97 26.41827201843262 93.41828918457031 30 89 30 L 8 30 C 3.581710815429688 30 0 26.41827201843262 0 22 L 0 8 C 0 3.581727981567383 3.581710815429688 0 8 0 Z" stroke="none" fill="#242549"/></g><path d="M-17.9-12.734a2.378,2.378,0,0,0-.343-1.478,1.231,1.231,0,0,0-1.005-.414q-1.348,0-1.348,1.632v1.774h-2.46v-1.609a4.39,4.39,0,0,1,.994-3.087,3.733,3.733,0,0,1,2.886-1.076,3.733,3.733,0,0,1,2.886,1.076,4.39,4.39,0,0,1,.994,3.087,7.177,7.177,0,0,1-.532,2.744,8.431,8.431,0,0,1-1.3,2.224q-.769.923-1.526,1.727a11.713,11.713,0,0,0-1.289,1.62,2.86,2.86,0,0,0-.532,1.549,1.96,1.96,0,0,0,.024.355h4.92V-.244h-7.523V-2.278A5.7,5.7,0,0,1-22.52-4.75,8.065,8.065,0,0,1-21.23-6.714q.757-.84,1.514-1.656A7.7,7.7,0,0,0-18.427-10.3,5.569,5.569,0,0,0-17.9-12.734Zm11.852-.095V-4.36q0,4.305-3.974,4.305A3.733,3.733,0,0,1-12.9-1.131,4.39,4.39,0,0,1-13.9-4.218v-.426h2.46v.591q0,1.632,1.348,1.632A1.3,1.3,0,0,0-9-2.869a2.636,2.636,0,0,0,.355-1.585V-7.482a2.446,2.446,0,0,1-2.413,1.467q-2.886,0-2.886-3.785v-3.028A4.333,4.333,0,0,1-12.927-15.9a3.82,3.82,0,0,1,2.933-1.088A3.82,3.82,0,0,1-7.061-15.9,4.333,4.333,0,0,1-6.043-12.829Zm-5.3,2.815q0,1.632,1.348,1.632t1.348-1.632v-2.981q0-1.609-1.348-1.609t-1.348,1.609Zm7.026,7.262h2.508V-.244H-4.317ZM-.035-5.59h2.46v1.538q0,1.609,1.348,1.609T5.122-4.052V-7.7q0-1.632-1.348-1.632T2.425-7.7v.5H-.035l.473-9.6H7.3v2.366H2.78l-.213,3.951a2.471,2.471,0,0,1,2.271-1.206q2.886,0,2.886,3.785v3.69a4.39,4.39,0,0,1-.994,3.087A3.733,3.733,0,0,1,3.845-.054,3.733,3.733,0,0,1,.959-1.131,4.39,4.39,0,0,1-.035-4.218Zm11-8.8v5.677q0,1.041.852,1.041t.852-1.041V-14.39q0-1.041-.852-1.041T10.965-14.39ZM9.309-8.831v-5.441a2.776,2.776,0,0,1,.639-1.963,2.43,2.43,0,0,1,1.869-.686,2.43,2.43,0,0,1,1.869.686,2.776,2.776,0,0,1,.639,1.963v5.441a2.776,2.776,0,0,1-.639,1.963,2.43,2.43,0,0,1-1.869.686,2.43,2.43,0,0,1-1.869-.686A2.776,2.776,0,0,1,9.309-8.831ZM11.817-.244,18.346-16.8h1.538L13.354-.244Zm7.357-8.09v5.677q0,1.041.852,1.041t.852-1.041V-8.334q0-1.041-.852-1.041T19.174-8.334ZM17.518-2.775V-8.216a2.776,2.776,0,0,1,.639-1.963,2.43,2.43,0,0,1,1.869-.686,2.43,2.43,0,0,1,1.869.686,2.776,2.776,0,0,1,.639,1.963v5.441a2.776,2.776,0,0,1-.639,1.963,2.43,2.43,0,0,1-1.869.686,2.43,2.43,0,0,1-1.869-.686A2.776,2.776,0,0,1,17.518-2.775Z" transform="translate(427.341 630.349)" fill="#242549"/><path d="M-18.039-11.811v-.923a2.378,2.378,0,0,0-.343-1.478,1.231,1.231,0,0,0-1.005-.414q-1.348,0-1.348,1.632v1.065H-23.2v-.9a4.39,4.39,0,0,1,.994-3.087,3.733,3.733,0,0,1,2.886-1.076,3.733,3.733,0,0,1,2.886,1.076,4.39,4.39,0,0,1,.994,3.087v.426q0,2.649-1.822,3.406,1.822.8,1.822,3.477v1.3a4.39,4.39,0,0,1-.994,3.087A3.733,3.733,0,0,1-19.316-.054,3.733,3.733,0,0,1-22.2-1.131,4.39,4.39,0,0,1-23.2-4.218V-5.59h2.46v1.538q0,1.632,1.348,1.632a1.231,1.231,0,0,0,1.005-.414,2.328,2.328,0,0,0,.343-1.455v-1.3a2.555,2.555,0,0,0-.4-1.62,1.6,1.6,0,0,0-1.3-.485h-.875v-2.366H-19.6a1.562,1.562,0,0,0,1.171-.4A1.9,1.9,0,0,0-18.039-11.811Zm9.368,0v-.923a2.378,2.378,0,0,0-.343-1.478,1.231,1.231,0,0,0-1.005-.414q-1.348,0-1.348,1.632v1.065h-2.46v-.9a4.39,4.39,0,0,1,.994-3.087,3.733,3.733,0,0,1,2.886-1.076,3.733,3.733,0,0,1,2.886,1.076,4.39,4.39,0,0,1,.994,3.087v.426q0,2.649-1.822,3.406,1.822.8,1.822,3.477v1.3a4.39,4.39,0,0,1-.994,3.087A3.733,3.733,0,0,1-9.949-.054a3.733,3.733,0,0,1-2.886-1.076,4.39,4.39,0,0,1-.994-3.087V-5.59h2.46v1.538q0,1.632,1.348,1.632a1.231,1.231,0,0,0,1.005-.414,2.328,2.328,0,0,0,.343-1.455v-1.3a2.555,2.555,0,0,0-.4-1.62,1.6,1.6,0,0,0-1.3-.485h-.875v-2.366h1.017a1.562,1.562,0,0,0,1.171-.4A1.9,1.9,0,0,0-8.671-11.811Zm4.353,9.06h2.508V-.244H-4.319ZM1.69-12.876v-1.845a2.814,2.814,0,0,0,1.916-.52A3.881,3.881,0,0,0,4.552-16.8H6.3V-.244H3.7V-12.876Zm9.273-1.514v5.677q0,1.041.852,1.041t.852-1.041V-14.39q0-1.041-.852-1.041T10.963-14.39ZM9.307-8.831v-5.441a2.776,2.776,0,0,1,.639-1.963,2.43,2.43,0,0,1,1.869-.686,2.43,2.43,0,0,1,1.869.686,2.776,2.776,0,0,1,.639,1.963v5.441a2.776,2.776,0,0,1-.639,1.963,2.43,2.43,0,0,1-1.869.686,2.43,2.43,0,0,1-1.869-.686A2.776,2.776,0,0,1,9.307-8.831ZM11.815-.244,18.344-16.8h1.538L13.352-.244Zm7.357-8.09v5.677q0,1.041.852,1.041t.852-1.041V-8.334q0-1.041-.852-1.041T19.172-8.334ZM17.516-2.775V-8.216a2.776,2.776,0,0,1,.639-1.963,2.43,2.43,0,0,1,1.869-.686,2.43,2.43,0,0,1,1.869.686,2.776,2.776,0,0,1,.639,1.963v5.441a2.776,2.776,0,0,1-.639,1.963,2.43,2.43,0,0,1-1.869.686,2.43,2.43,0,0,1-1.869-.686A2.776,2.776,0,0,1,17.516-2.775Z" transform="translate(506.196 630.349)" fill="#242549"/><g transform="translate(426 655)" fill="#242549" opacity="0.331"><path d="M 188 29 L 8 29 C 4.140174865722656 29 1 25.85982513427734 1 22 L 1 8 C 1 4.140174865722656 4.140174865722656 1 8 1 L 188 1 C 191.8598175048828 1 195 4.140174865722656 195 8 L 195 22 C 195 25.85982513427734 191.8598175048828 29 188 29 Z" stroke="none"/><path d="M 8 2 C 4.691574096679688 2 2 4.691579818725586 2 8 L 2 22 C 2 25.30842208862305 4.691574096679688 28 8 28 L 188 28 C 191.3084259033203 28 194 25.30842208862305 194 22 L 194 8 C 194 4.691579818725586 191.3084259033203 2 188 2 L 8 2 M 8 0 L 188 0 C 192.4182586669922 0 196 3.581710815429688 196 8 L 196 22 C 196 26.41828918457031 192.4182586669922 30 188 30 L 8 30 C 3.581710815429688 30 0 26.41828918457031 0 22 L 0 8 C 0 3.581710815429688 3.581710815429688 0 8 0 Z" stroke="none" fill="#242549"/></g><path d="M-18.039-11.811v-.923a2.378,2.378,0,0,0-.343-1.478,1.231,1.231,0,0,0-1.005-.414q-1.348,0-1.348,1.632v1.065H-23.2v-.9a4.39,4.39,0,0,1,.994-3.087,3.733,3.733,0,0,1,2.886-1.076,3.733,3.733,0,0,1,2.886,1.076,4.39,4.39,0,0,1,.994,3.087v.426q0,2.649-1.822,3.406,1.822.8,1.822,3.477v1.3a4.39,4.39,0,0,1-.994,3.087A3.733,3.733,0,0,1-19.316-.054,3.733,3.733,0,0,1-22.2-1.131,4.39,4.39,0,0,1-23.2-4.218V-5.59h2.46v1.538q0,1.632,1.348,1.632a1.231,1.231,0,0,0,1.005-.414,2.328,2.328,0,0,0,.343-1.455v-1.3a2.555,2.555,0,0,0-.4-1.62,1.6,1.6,0,0,0-1.3-.485h-.875v-2.366H-19.6a1.562,1.562,0,0,0,1.171-.4A1.9,1.9,0,0,0-18.039-11.811Zm6.742-1.183v8.942q0,1.632,1.348,1.632T-8.6-4.052v-8.942q0-1.632-1.348-1.632T-11.3-12.994Zm-2.6,8.776v-8.611A4.333,4.333,0,0,1-12.882-15.9a3.82,3.82,0,0,1,2.933-1.088A3.82,3.82,0,0,1-7.015-15.9,4.333,4.333,0,0,1-6-12.829v8.611A4.333,4.333,0,0,1-7.015-1.143,3.82,3.82,0,0,1-9.949-.054a3.82,3.82,0,0,1-2.933-1.088A4.333,4.333,0,0,1-13.9-4.218Zm9.581,1.467h2.508V-.244H-4.319ZM1.69-12.876v-1.845a2.814,2.814,0,0,0,1.916-.52A3.881,3.881,0,0,0,4.552-16.8H6.3V-.244H3.7V-12.876Zm9.273-1.514v5.677q0,1.041.852,1.041t.852-1.041V-14.39q0-1.041-.852-1.041T10.963-14.39ZM9.307-8.831v-5.441a2.776,2.776,0,0,1,.639-1.963,2.43,2.43,0,0,1,1.869-.686,2.43,2.43,0,0,1,1.869.686,2.776,2.776,0,0,1,.639,1.963v5.441a2.776,2.776,0,0,1-.639,1.963,2.43,2.43,0,0,1-1.869.686,2.43,2.43,0,0,1-1.869-.686A2.776,2.776,0,0,1,9.307-8.831ZM11.815-.244,18.344-16.8h1.538L13.352-.244Zm7.357-8.09v5.677q0,1.041.852,1.041t.852-1.041V-8.334q0-1.041-.852-1.041T19.172-8.334ZM17.516-2.775V-8.216a2.776,2.776,0,0,1,.639-1.963,2.43,2.43,0,0,1,1.869-.686,2.43,2.43,0,0,1,1.869.686,2.776,2.776,0,0,1,.639,1.963v5.441a2.776,2.776,0,0,1-.639,1.963,2.43,2.43,0,0,1-1.869.686,2.43,2.43,0,0,1-1.869-.686A2.776,2.776,0,0,1,17.516-2.775Z" transform="translate(585.049 630.349)" fill="#242549"/><path d="M5.689,1.122a1,1,0,0,1,1.621,0l4.544,6.292A1,1,0,0,1,11.044,9H1.956a1,1,0,0,1-.811-1.585Z" transform="translate(433 647) rotate(180)" fill="#242549"/><path d="M5.689,1.122a1,1,0,0,1,1.621,0l4.544,6.292A1,1,0,0,1,11.044,9H1.956a1,1,0,0,1-.811-1.585Z" transform="translate(512 647) rotate(180)" fill="#242549"/><path d="M5.689,1.122a1,1,0,0,1,1.621,0l4.544,6.292A1,1,0,0,1,11.044,9H1.956a1,1,0,0,1-.811-1.585Z" transform="translate(591 647) rotate(180)" fill="#242549"/><g transform="translate(396.924 527.912)"><path d="M3595.1,795.179v4.094a4.015,4.015,0,0,0,8.029,0v-4.934" transform="translate(-3553.208 -760.405)" fill="none" stroke="#242549" stroke-linejoin="round" stroke-width="2"/><path d="M3559.709,809.137v13.08h18.067V804.934h8.6" transform="translate(-3554.754 -759.957)" fill="none" stroke="#242549" stroke-linecap="square" stroke-miterlimit="10" stroke-width="2"/><path d="M3564.959,797.684h-3.021a7.006,7.006,0,0,0-7,7.005v17.8h4.956" transform="translate(-3554.934 -760.23)" fill="none" stroke="#242549" stroke-miterlimit="10" stroke-width="2"/><line x1="21.234" transform="translate(18.18 37.401)" fill="none" stroke="#242549" stroke-miterlimit="10" stroke-width="2"/><path d="M3564.5,794.339v4.934a4.015,4.015,0,0,0,8.03,0v-4.934" transform="translate(-3554.523 -760.405)" fill="none" stroke="#242549" stroke-linejoin="round" stroke-width="2"/><line y2="13.08" transform="translate(36.88 49.179)" fill="none" stroke="#242549" stroke-linecap="square" stroke-miterlimit="10" stroke-width="2"/><line y2="13.08" transform="translate(55.159 49.179)" fill="none" stroke="#242549" stroke-linecap="square" stroke-miterlimit="10" stroke-width="2"/><path d="M3613.52,805.8v16.694h-27.977v-17.8a7.006,7.006,0,0,1,7.005-7.005h2.74" transform="translate(-3553.51 -760.23)" fill="none" stroke="#242549" stroke-linecap="square" stroke-miterlimit="10" stroke-width="2"/><path d="M3602.944,797.684h2.916a6.982,6.982,0,0,1,2.037.3" transform="translate(-3552.855 -760.283)" fill="none" stroke="#242549" stroke-miterlimit="10" stroke-width="2"/><rect width="6.166" height="9.254" rx="1.35" stroke-width="2" fill="none" stroke="#242549" stroke-linecap="square" stroke-miterlimit="10" transform="translate(61.221 45.523) rotate(-180)"/><g transform="translate(0.775 0)"><path d="M3579.723,780.553l.82.07a2.43,2.43,0,0,1,2.219,2.624l-.08.954a2.429,2.429,0,0,1-2.624,2.219l-.82-.068" transform="translate(-3554.793 -761.008)" fill="none" stroke="#242549" stroke-linecap="square" stroke-linejoin="round" stroke-width="2"/><path d="M3558.744,784.626l-.836-.07a2.43,2.43,0,0,1-2.218-2.624l.08-.955a2.429,2.429,0,0,1,2.624-2.218l.819.069" transform="translate(-3555.681 -761.076)" fill="none" stroke="#242549" stroke-linejoin="round" stroke-width="2"/><path d="M3564.841,787.2a4.427,4.427,0,0,0,8.088.678" transform="translate(-3555.336 -760.758)" fill="none" stroke="#242549" stroke-linecap="square" stroke-linejoin="round" stroke-width="2"/><line x1="0.109" y2="1.305" transform="translate(19.41 18.872)" stroke-width="2" stroke="#242549" stroke-linecap="square" stroke-linejoin="round" fill="none"/><line y1="1.305" x2="0.109" transform="translate(8.738 17.978)" stroke-width="2" stroke="#242549" stroke-linecap="square" stroke-linejoin="round" fill="none"/><path d="M3582,781.459l3.927-16.049a13.31,13.31,0,0,1-7.741-.353l-8.732-3.1a4.2,4.2,0,0,0-4.212.832l-3.112,2.792-1.7-.142a3.583,3.583,0,0,0-3.871,3.272l-.4,4.72a8.042,8.042,0,0,0,.051,1.8l.635,4.48" transform="translate(-3555.664 -761.718)" fill="none" stroke="#242549" stroke-miterlimit="10" stroke-width="2"/><path d="M3580.81,777.177c-1.717.372-8.963,1.662-14.442-2.516a13.845,13.845,0,0,1-2.445-2.4.2.2,0,0,0-.349.111,3.258,3.258,0,0,1-.935,2.2,4.429,4.429,0,0,1-3.251,1.086l-.721,8.6a10.736,10.736,0,0,0,9.8,11.6h0a10.735,10.735,0,0,0,11.6-9.8Z" transform="translate(-3555.569 -761.324)" fill="none" stroke="#242549" stroke-linecap="square" stroke-miterlimit="10" stroke-width="2"/></g><g transform="translate(29.513 0.054)"><path d="M3608.246,775.54l.957,8.577a10.737,10.737,0,0,1-9.48,11.861h0a10.738,10.738,0,0,1-11.861-9.48l-1.018-9.124" transform="translate(-3582.974 -761.251)" fill="none" stroke="#242549" stroke-linecap="square" stroke-miterlimit="10" stroke-width="2"/><path d="M3607.835,778.83l.818-.091a2.431,2.431,0,0,1,2.685,2.146l.106.951a2.43,2.43,0,0,1-2.146,2.684l-.816.091" transform="translate(-3582.184 -761.131)" fill="none" stroke="#242549" stroke-linecap="square" stroke-linejoin="round" stroke-width="2"/><path d="M3588.04,786.9l-.835.093a2.431,2.431,0,0,1-2.684-2.146l-.106-.952a2.429,2.429,0,0,1,2.145-2.684l.818-.091" transform="translate(-3583.066 -761.041)" fill="none" stroke="#242549" stroke-linecap="square" stroke-linejoin="round" stroke-width="2"/><path d="M3594.537,788.258a4.428,4.428,0,0,0,8.067-.9" transform="translate(-3582.685 -760.806)" fill="none" stroke="#242549" stroke-linecap="square" stroke-linejoin="round" stroke-width="2"/><line x2="0.145" y2="1.301" transform="translate(20.213 18.086)" stroke-width="2" stroke="#242549" stroke-linecap="square" stroke-linejoin="round" fill="none"/><line x1="0.145" y1="1.301" transform="translate(9.569 19.274)" stroke-width="2" stroke="#242549" stroke-linecap="square" stroke-linejoin="round" fill="none"/><path d="M3583.123,772.2a10.7,10.7,0,0,0,.058,1.625l.417,3.737.682,6.109,1.012,9.07a4.2,4.2,0,0,0,4.644,3.712l5.8-.647" transform="translate(-3583.115 -761.377)" fill="none" stroke="#242549" stroke-miterlimit="10" stroke-width="2"/><path d="M3603.674,795.3l5.9-.659a4.2,4.2,0,0,0,3.712-4.643l-2.315-20.749a5.605,5.605,0,0,0-6.192-4.948l-2.175.242a3.923,3.923,0,0,0-4.185-2.753l-5.883.657a10.637,10.637,0,0,0-8.255,5.645" transform="translate(-3583.07 -761.769)" fill="none" stroke="#242549" stroke-miterlimit="10" stroke-width="2"/><g transform="translate(3.654 6.668)"><path d="M3608.6,778.926l-.583-5.232a10.675,10.675,0,0,0-2.276-5.5,24.758,24.758,0,0,1-15,7.31,25.019,25.019,0,0,1-4.1.115c.012.151.023.3.04.455l.614,5.5" transform="translate(-3586.636 -768.195)" fill="none" stroke="#242549" stroke-linecap="square" stroke-miterlimit="10" stroke-width="2"/></g></g></g><g transform="translate(473.709 527.912)"><path d="M3652.608,793.677v4.4a3.578,3.578,0,0,0,7.156,0v-4.4" transform="translate(-3642.666 -762.032)" fill="none" stroke="#242549" stroke-linejoin="round" stroke-width="2"/><path d="M3665.32,780.645h.732a2.165,2.165,0,0,1,2.165,2.165v.853a2.165,2.165,0,0,1-2.165,2.164h-.732" transform="translate(-3642.161 -762.603)" fill="none" stroke="#242549" stroke-linecap="square" stroke-linejoin="round" stroke-width="2"/><path d="M3647,785.828h-.748a2.165,2.165,0,0,1-2.166-2.164v-.853a2.166,2.166,0,0,1,2.166-2.165h.732" transform="translate(-3643.01 -762.603)" fill="none" stroke="#242549" stroke-linejoin="round" stroke-width="2"/><path d="M3652.616,788.376a3.945,3.945,0,0,0,7.232,0" transform="translate(-3642.666 -762.276)" fill="none" stroke="#242549" stroke-linecap="square" stroke-linejoin="round" stroke-width="2"/><line y2="1.167" transform="translate(18.292 17.841)" stroke-width="2" stroke="#242549" stroke-linecap="square" stroke-linejoin="round" fill="none"/><line y1="1.167" transform="translate(8.712 17.841)" stroke-width="2" stroke="#242549" stroke-linecap="square" stroke-linejoin="round" fill="none"/><line y2="16.948" transform="translate(21.636 45.311)" fill="none" stroke="#242549" stroke-linecap="square" stroke-miterlimit="10" stroke-width="2"/><line y2="16.948" transform="translate(5.401 45.311)" fill="none" stroke="#242549" stroke-linecap="square" stroke-miterlimit="10" stroke-width="2"/><path d="M3644.089,803.885v20.168h24.927V802.9a6.241,6.241,0,0,0-6.241-6.241h-2.691" transform="translate(-3643.01 -761.794)" fill="none" stroke="#242549" stroke-linecap="square" stroke-miterlimit="10" stroke-width="2"/><path d="M3652.768,796.658h-2.6a6.241,6.241,0,0,0-1.815.269" transform="translate(-3642.85 -761.927)" fill="none" stroke="#242549" stroke-miterlimit="10" stroke-width="2"/><rect width="5.494" height="8.245" rx="1.203" stroke-width="2" fill="none" stroke="#242549" stroke-linecap="square" stroke-miterlimit="10" transform="translate(0 33.733)"/><path d="M3646.9,777.433l-.016,8.033a9.566,9.566,0,0,0,9.566,9.566h0a9.567,9.567,0,0,0,9.566-9.566v-9.826" transform="translate(-3642.905 -762.796)" fill="none" stroke="#242549" stroke-miterlimit="10" stroke-width="2"/><path d="M3644.089,783.849V769.138a2.525,2.525,0,0,1,2.525-2.525h16.859a6.5,6.5,0,0,0,4.9-2.224,6.5,6.5,0,0,1,2.749,5.483,6.606,6.606,0,0,1-6.656,6.344h-16.215a1.249,1.249,0,0,0-1.248,1.249v2.218" transform="translate(-3643.01 -763.31)" fill="none" stroke="#242549" stroke-linecap="square" stroke-miterlimit="10" stroke-width="2"/><line y1="6.246" transform="translate(25.059 11.96)" fill="none" stroke="#242549" stroke-miterlimit="10" stroke-width="2"/><path d="M3678.132,790.8a9.522,9.522,0,0,1-4.85,1.319h0a9.557,9.557,0,0,1-8.095-4.466" transform="translate(-3642.156 -762.302)" fill="none" stroke="#242549" stroke-linecap="square" stroke-miterlimit="10" stroke-width="2"/><path d="M3669.5,791.307v4.4a3.577,3.577,0,0,0,7.154,0v-4.4" transform="translate(-3641.99 -762.135)" fill="none" stroke="#242549" stroke-linejoin="round" stroke-width="2"/><path d="M3669.5,786.005a3.944,3.944,0,0,0,7.231,0" transform="translate(-3641.99 -762.377)" fill="none" stroke="#242549" stroke-linecap="square" stroke-linejoin="round" stroke-width="2"/><line y2="1.167" transform="translate(35.851 15.368)" stroke-width="2" stroke="#242549" stroke-linecap="square" stroke-linejoin="round" fill="none"/><line y1="1.167" transform="translate(26.289 15.368)" stroke-width="2" stroke="#242549" stroke-linecap="square" stroke-linejoin="round" fill="none"/><line x1="10.118" transform="translate(26.071 62.259)" fill="none" stroke="#242549" stroke-miterlimit="10" stroke-width="2"/><path d="M3659.5,794.67l.608-.079a36.028,36.028,0,0,1,4.669-.3h5.09" transform="translate(-3642.387 -762.027)" fill="none" stroke="#242549" stroke-miterlimit="10" stroke-width="2"/><line y1="0.613" x2="4.694" transform="translate(5.233 33.583)" fill="none" stroke="#242549" stroke-miterlimit="10" stroke-width="2"/><path d="M3686.758,794.67l-.608-.079a36.025,36.025,0,0,0-4.669-.3h-5.09" transform="translate(-3641.709 -762.027)" fill="none" stroke="#242549" stroke-miterlimit="10" stroke-width="2"/><line x1="4.694" y1="0.613" transform="translate(52.239 33.583)" fill="none" stroke="#242549" stroke-miterlimit="10" stroke-width="2"/><path d="M3669.5,772.291l5.068,3.233a.869.869,0,0,0,.483.147h3.123" transform="translate(-3641.988 -763.012)" fill="none" stroke="#242549" stroke-miterlimit="10" stroke-width="2"/><path d="M3683.064,766.476a6.829,6.829,0,0,0-5.727-3.128h-7a1.856,1.856,0,0,0-1.856,1.855" transform="translate(-3642.021 -763.349)" fill="none" stroke="#242549" stroke-miterlimit="10" stroke-width="2"/><g transform="translate(36.253 0.531)"><path d="M3680.671,778h3.314a12.83,12.83,0,0,0,9.793-4.526.485.485,0,0,1,.856.3,4.56,4.56,0,0,0,.063.569,4.375,4.375,0,0,0,3.74,3.563,4.468,4.468,0,0,0,1.35-.037v7.69a9.567,9.567,0,0,1-9.567,9.566h0a9.567,9.567,0,0,1-9.566-9.566Z" transform="translate(-3677.757 -763.431)" fill="none" stroke="#242549" stroke-linecap="square" stroke-miterlimit="10" stroke-width="2"/><path d="M3686.382,793.677v4.4a3.577,3.577,0,1,0,7.155,0v-4.4" transform="translate(-3677.542 -762.565)" fill="none" stroke="#242549" stroke-linejoin="round" stroke-width="2"/><path d="M3686.7,794.78h-7.133a1.707,1.707,0,0,1-1.707-1.707V776.324a12.463,12.463,0,0,1,12.463-12.463h0a12.463,12.463,0,0,1,12.464,12.463v16.749a1.708,1.708,0,0,1-1.707,1.707h-7.226" transform="translate(-3677.863 -763.861)" fill="none" stroke="#242549" stroke-linejoin="round" stroke-width="2"/><path d="M3699.094,780.645h.732a2.166,2.166,0,0,1,2.165,2.165v.853a2.165,2.165,0,0,1-2.165,2.164h-.732" transform="translate(-3677.063 -763.136)" fill="none" stroke="#242549" stroke-linecap="square" stroke-linejoin="round" stroke-width="2"/><path d="M3680.777,785.828h-.749a2.165,2.165,0,0,1-2.166-2.164v-.853a2.166,2.166,0,0,1,2.166-2.165h.732" transform="translate(-3677.863 -763.136)" fill="none" stroke="#242549" stroke-linecap="square" stroke-linejoin="round" stroke-width="2"/><path d="M3686.39,787.654a3.945,3.945,0,0,0,7.232,0" transform="translate(-3677.542 -762.84)" fill="none" stroke="#242549" stroke-linecap="square" stroke-linejoin="round" stroke-width="2"/><line y2="1.167" transform="translate(17.176 17.307)" stroke-width="2" stroke="#242549" stroke-linecap="square" stroke-linejoin="round" fill="none"/><line y1="1.167" transform="translate(7.633 17.307)" stroke-width="2" stroke="#242549" stroke-linecap="square" stroke-linejoin="round" fill="none"/><rect width="5.494" height="8.245" rx="1.203" stroke-width="2" fill="none" stroke="#242549" stroke-linecap="square" stroke-miterlimit="10" transform="translate(26.006 41.445) rotate(-180)"/><line y2="16.948" transform="translate(4.415 44.78)" fill="none" stroke="#242549" stroke-linecap="square" stroke-miterlimit="10" stroke-width="2"/><line y2="16.948" transform="translate(20.605 44.78)" fill="none" stroke="#242549" stroke-linecap="square" stroke-miterlimit="10" stroke-width="2"/><path d="M3702.79,803.885v20.168h-24.928V802.9a6.241,6.241,0,0,1,6.242-6.241h2.6" transform="translate(-3677.863 -762.326)" fill="none" stroke="#242549" stroke-linecap="square" stroke-miterlimit="10" stroke-width="2"/><path d="M3693.367,796.658h2.6a6.242,6.242,0,0,1,1.815.269" transform="translate(-3677.28 -762.459)" fill="none" stroke="#242549" stroke-miterlimit="10" stroke-width="2"/></g></g><g transform="translate(556.722 527.913)"><g transform="translate(0 0)"><g transform="translate(19.792 21.724)"><path d="M3667.921,874.3l-.012,6.293a7.968,7.968,0,0,0,7.968,7.968h0a7.968,7.968,0,0,0,7.967-7.968v-6.405l-9.317.077-1.084-2.71a.623.623,0,0,0-1.158,0l-1.084,2.71Z" transform="translate(-3665.496 -862.228)" fill="none" stroke="#242549" stroke-linecap="square" stroke-miterlimit="10" stroke-width="2"/><path d="M3672.679,887.387v3.663a2.98,2.98,0,0,0,5.959,0v-3.663" transform="translate(-3665.316 -861.617)" fill="none" stroke="#242549" stroke-linejoin="round" stroke-width="2"/><path d="M3672.946,888.305H3667a1.421,1.421,0,0,1-1.421-1.422v-13.95a10.381,10.381,0,0,1,10.382-10.382h0a10.381,10.381,0,0,1,10.381,10.382v13.95a1.421,1.421,0,0,1-1.422,1.422h-6.018" transform="translate(-3665.583 -862.552)" fill="none" stroke="#242549" stroke-linejoin="round" stroke-width="2"/><path d="M3683.266,876.533h.61a1.8,1.8,0,0,1,1.8,1.8v.711a1.8,1.8,0,0,1-1.8,1.8h-.61" transform="translate(-3664.917 -862.026)" fill="none" stroke="#242549" stroke-linecap="square" stroke-linejoin="round" stroke-width="2"/><path d="M3668.009,880.85h-.622a1.8,1.8,0,0,1-1.8-1.8v-.711a1.8,1.8,0,0,1,1.8-1.8h.61" transform="translate(-3665.583 -862.026)" fill="none" stroke="#242549" stroke-linecap="square" stroke-linejoin="round" stroke-width="2"/><path d="M3672.685,882.37a3.285,3.285,0,0,0,6.023,0" transform="translate(-3665.315 -861.806)" fill="none" stroke="#242549" stroke-linecap="square" stroke-linejoin="round" stroke-width="2"/><line y2="0.972" transform="translate(14.306 14.345)" stroke-width="2" stroke="#242549" stroke-linecap="square" stroke-linejoin="round" fill="none"/><line y1="0.972" transform="translate(6.358 14.345)" stroke-width="2" stroke="#242549" stroke-linecap="square" stroke-linejoin="round" fill="none"/><path d="M3672.946,889.87h-2.164a5.2,5.2,0,0,0-5.2,5.2v6.99h20.762v-6.99a5.2,5.2,0,0,0-5.2-5.2h-2.241" transform="translate(-3665.583 -861.523)" fill="none" stroke="#242549" stroke-linecap="square" stroke-miterlimit="10" stroke-width="2"/></g><line y1="8.153" transform="translate(35.271 14.916)" fill="none" stroke="#242549" stroke-miterlimit="10" stroke-width="2"/><path d="M3701.722,856.5v8.616A10.718,10.718,0,0,1,3691,875.834h0a10.661,10.661,0,0,1-5.413-1.465" transform="translate(-3644.903 -841.038)" fill="none" stroke="#242549" stroke-miterlimit="10" stroke-width="2"/><path d="M3686.9,874.4v4.926a4.008,4.008,0,1,0,8.016,0V874.4" transform="translate(-3644.907 -840.372)" fill="none" stroke="#242549" stroke-linejoin="round" stroke-width="2"/><path d="M3701.136,859.8h.821a2.425,2.425,0,0,1,2.425,2.426v.956a2.425,2.425,0,0,1-2.425,2.426h-.821" transform="translate(-3644.318 -840.914)" fill="none" stroke="#242549" stroke-linecap="square" stroke-linejoin="round" stroke-width="2"/><path d="M3677.35,862.706v-.478a2.426,2.426,0,0,1,2.426-2.426h.821" transform="translate(-3645.332 -840.913)" fill="none" stroke="#242549" stroke-linecap="square" stroke-linejoin="round" stroke-width="2"/><path d="M3686.9,867.385a4.419,4.419,0,0,0,8.1,0" transform="translate(-3644.906 -840.631)" fill="none" stroke="#242549" stroke-linecap="square" stroke-linejoin="round" stroke-width="2"/><line y2="1.307" transform="translate(51.38 18.672)" stroke-width="2" stroke="#242549" stroke-linecap="square" stroke-linejoin="round" fill="none"/><line y1="1.307" transform="translate(40.601 18.672)" stroke-width="2" stroke="#242549" stroke-linecap="square" stroke-linejoin="round" fill="none"/><line y1="2.826" transform="translate(36.979 47.5)" fill="none" stroke="#242549" stroke-miterlimit="10" stroke-width="2"/><path d="M3700.022,889.023V902.09h-14.43" transform="translate(-3644.903 -839.831)" fill="none" stroke="#242549" stroke-linecap="square" stroke-miterlimit="10" stroke-width="2"/><path d="M3694.62,877.743h3.015a6.993,6.993,0,0,1,6.993,6.993v17.779h-4.946" transform="translate(-3644.563 -840.256)" fill="none" stroke="#242549" stroke-linecap="square" stroke-miterlimit="10" stroke-width="2"/><path d="M3686.9,877.743" transform="translate(-3644.936 -840.245)" fill="none" stroke="#242549" stroke-linecap="square" stroke-miterlimit="10" stroke-width="2"/><path d="M3666.467,877.743" transform="translate(-3645.801 -840.245)" fill="none" stroke="#242549" stroke-linecap="square" stroke-miterlimit="10" stroke-width="2"/><path d="M3656.34,874.4v4.926a4.008,4.008,0,1,0,8.016,0V874.4" transform="translate(-3646.222 -840.372)" fill="none" stroke="#242549" stroke-linejoin="round" stroke-width="2"/><path d="M3670.582,859.8h.821a2.425,2.425,0,0,1,2.425,2.426v.611" transform="translate(-3645.62 -840.913)" fill="none" stroke="#242549" stroke-linejoin="round" stroke-width="2"/><path d="M3650.059,865.61h-.838a2.425,2.425,0,0,1-2.425-2.426v-.956a2.425,2.425,0,0,1,2.425-2.426h.821" transform="translate(-3646.634 -840.914)" fill="none" stroke="#242549" stroke-linejoin="round" stroke-width="2"/><path d="M3656.349,867.385a4.419,4.419,0,0,0,8.1,0" transform="translate(-3646.222 -840.631)" fill="none" stroke="#242549" stroke-linecap="square" stroke-linejoin="round" stroke-width="2"/><line y2="1.307" transform="translate(19.492 18.672)" stroke-width="2" stroke="#242549" stroke-linecap="square" stroke-linejoin="round" fill="none"/><line y1="1.307" transform="translate(8.714 18.672)" stroke-width="2" stroke="#242549" stroke-linecap="square" stroke-linejoin="round" fill="none"/><line y2="2.866" transform="translate(23.247 47.5)" fill="none" stroke="#242549" stroke-miterlimit="10" stroke-width="2"/><line y2="13.067" transform="translate(5.004 49.192)" fill="none" stroke="#242549" stroke-linecap="square" stroke-miterlimit="10" stroke-width="2"/><line x1="1.575" transform="translate(18.165 37.498)" fill="none" stroke="#242549" stroke-linecap="square" stroke-miterlimit="10" stroke-width="2"/><line y1="10.064" transform="translate(24.955 13.073)" fill="none" stroke="#242549" stroke-miterlimit="10" stroke-width="2"/><path d="M3649.941,856.13l-.017,9a10.717,10.717,0,0,0,10.717,10.718h0a10.669,10.669,0,0,0,5.531-1.535" transform="translate(-3646.517 -841.052)" fill="none" stroke="#242549" stroke-miterlimit="10" stroke-width="2"/><line x2="1.352" transform="translate(40.605 34.034)" fill="none" stroke="#242549" stroke-miterlimit="10" stroke-width="2"/><path d="M3695.274,875.63h5.931a4.2,4.2,0,0,0,4.2-4.2v-20.84a5.6,5.6,0,0,0-5.595-5.6h-2.185a3.916,3.916,0,0,0-3.848-3.195h-5.908a10.631,10.631,0,0,0-10.631,10.631v11.039" transform="translate(-3645.218 -841.582)" fill="none" stroke="#242549" stroke-miterlimit="10" stroke-width="2"/><g transform="translate(35.383 7.633)"><path d="M3701.915,859.91v-5.255a10.678,10.678,0,0,0-1.647-5.709,24.715,24.715,0,0,1-15.692,5.593,24.979,24.979,0,0,1-4.084-.34c-.007.151-.012.3-.012.457v5.528" transform="translate(-3680.479 -848.946)" fill="none" stroke="#242549" stroke-linecap="square" stroke-miterlimit="10" stroke-width="2"/></g><path d="M3646.8,863.392V846.91a2.829,2.829,0,0,1,2.829-2.829h18.889A7.277,7.277,0,0,0,3674,841.59a7.282,7.282,0,0,1,3.08,6.143,7.4,7.4,0,0,1-7.456,7.109h-18.167a1.4,1.4,0,0,0-1.4,1.4v2.485" transform="translate(-3646.634 -841.59)" fill="none" stroke="#242549" stroke-linecap="square" stroke-miterlimit="10" stroke-width="2"/><line y1="6.998" transform="translate(27.092 12.112)" fill="none" stroke="#242549" stroke-miterlimit="10" stroke-width="2"/><path d="M3656.648,877.743h-3.016a6.993,6.993,0,0,0-6.993,6.993v17.779H3666.3" transform="translate(-3646.64 -840.256)" fill="none" stroke="#242549" stroke-linecap="square" stroke-miterlimit="10" stroke-width="2"/></g><line y2="5.057" transform="translate(36.979 57.202)" fill="none" stroke="#242549" stroke-linecap="square" stroke-miterlimit="10" stroke-width="2"/><line y2="5.057" transform="translate(23.247 57.202)" fill="none" stroke="#242549" stroke-linecap="square" stroke-miterlimit="10" stroke-width="2"/></g><path d="M-17.744-5.186h4.6V0h-1.372V-4.077h-1.86V0h-1.372ZM-10.625-3.6l-1.245-.225a1.939,1.939,0,0,1,.723-1.113A2.644,2.644,0,0,1-9.624-5.3a3.283,3.283,0,0,1,1.367.217,1.364,1.364,0,0,1,.632.552,2.829,2.829,0,0,1,.183,1.228l-.015,1.6A5.56,5.56,0,0,0-7.39-.7a2.943,2.943,0,0,0,.247.7H-8.5q-.054-.137-.132-.405-.034-.122-.049-.161a2.474,2.474,0,0,1-.752.513,2.154,2.154,0,0,1-.854.171A1.767,1.767,0,0,1-11.55-.317a1.444,1.444,0,0,1-.461-1.1A1.475,1.475,0,0,1-11.8-2.2a1.372,1.372,0,0,1,.588-.527,4.6,4.6,0,0,1,1.091-.32,7.476,7.476,0,0,0,1.333-.337v-.137a.71.71,0,0,0-.2-.564,1.17,1.17,0,0,0-.737-.168.982.982,0,0,0-.571.144A1,1,0,0,0-10.625-3.6ZM-8.789-2.49a8.576,8.576,0,0,1-.835.21,2.515,2.515,0,0,0-.747.239.572.572,0,0,0-.269.483.673.673,0,0,0,.215.5.75.75,0,0,0,.547.21,1.188,1.188,0,0,0,.708-.244.859.859,0,0,0,.327-.454,2.709,2.709,0,0,0,.054-.669Zm2.661-2.7h1.279v.762a1.914,1.914,0,0,1,.674-.635A1.857,1.857,0,0,1-3.232-5.3,1.977,1.977,0,0,1-1.7-4.595a2.866,2.866,0,0,1,.63,1.973A2.953,2.953,0,0,1-1.7-.6a1.978,1.978,0,0,1-1.538.72,1.748,1.748,0,0,1-.779-.171A2.625,2.625,0,0,1-4.756-.64V1.973H-6.128Zm1.357,2.5a2,2,0,0,0,.347,1.292,1.06,1.06,0,0,0,.845.417.991.991,0,0,0,.8-.383,1.975,1.975,0,0,0,.317-1.257,1.874,1.874,0,0,0-.327-1.211,1.012,1.012,0,0,0-.811-.4,1.053,1.053,0,0,0-.835.388A1.728,1.728,0,0,0-4.771-2.681ZM1.045-3.6-.2-3.828A1.939,1.939,0,0,1,.522-4.941,2.644,2.644,0,0,1,2.046-5.3a3.283,3.283,0,0,1,1.367.217,1.364,1.364,0,0,1,.632.552,2.829,2.829,0,0,1,.183,1.228L4.214-1.7A5.56,5.56,0,0,0,4.28-.7a2.943,2.943,0,0,0,.247.7H3.169q-.054-.137-.132-.405Q3-.527,2.988-.566a2.474,2.474,0,0,1-.752.513,2.154,2.154,0,0,1-.854.171A1.767,1.767,0,0,1,.12-.317a1.444,1.444,0,0,1-.461-1.1A1.475,1.475,0,0,1-.132-2.2a1.372,1.372,0,0,1,.588-.527,4.6,4.6,0,0,1,1.091-.32,7.476,7.476,0,0,0,1.333-.337v-.137a.71.71,0,0,0-.2-.564,1.17,1.17,0,0,0-.737-.168.982.982,0,0,0-.571.144A1,1,0,0,0,1.045-3.6ZM2.881-2.49a8.576,8.576,0,0,1-.835.21,2.515,2.515,0,0,0-.747.239.572.572,0,0,0-.269.483.673.673,0,0,0,.215.5.75.75,0,0,0,.547.21A1.188,1.188,0,0,0,2.5-1.094a.859.859,0,0,0,.327-.454,2.709,2.709,0,0,0,.054-.669Zm2.739-2.7h1.7L8.608-1.572l1.3-3.613H11.6V0H10.435V-3.413L9.17,0H8L6.792-3.413V0H5.62Zm7.324,0h1.318v3.257l2.109-3.257H17.72V0H16.4V-3.315L14.263,0H12.944Z" transform="translate(424 604)" fill="#242549"/><path d="M-23.057-3.652l-1.353.244a.982.982,0,0,0-.31-.61.936.936,0,0,0-.627-.205,1.025,1.025,0,0,0-.818.354,1.814,1.814,0,0,0-.305,1.184,2.1,2.1,0,0,0,.31,1.3A1.018,1.018,0,0,0-25.327-1a.925.925,0,0,0,.64-.222,1.336,1.336,0,0,0,.352-.764l1.348.229a2.391,2.391,0,0,1-.806,1.4,2.494,2.494,0,0,1-1.6.474A2.374,2.374,0,0,1-27.2-.6a2.783,2.783,0,0,1-.676-1.987,2.789,2.789,0,0,1,.679-2A2.411,2.411,0,0,1-25.366-5.3,2.5,2.5,0,0,1-23.86-4.9,2.259,2.259,0,0,1-23.057-3.652ZM-14.951,0h-3.926V1.367H-19.99v-2.49h.562a3.044,3.044,0,0,0,.581-1.221,13.159,13.159,0,0,0,.273-2.842h4.185v4.063h.557v2.49h-1.118Zm-.8-1.123,0-2.935H-17.4a5.468,5.468,0,0,1-.684,2.935Zm2.817-4.062h1.279v.762a1.914,1.914,0,0,1,.674-.635,1.857,1.857,0,0,1,.942-.244A1.977,1.977,0,0,1-8.5-4.595a2.866,2.866,0,0,1,.63,1.973A2.953,2.953,0,0,1-8.506-.6a1.978,1.978,0,0,1-1.538.72,1.748,1.748,0,0,1-.779-.171,2.625,2.625,0,0,1-.735-.586V1.973H-12.93Zm1.357,2.5a2,2,0,0,0,.347,1.292,1.06,1.06,0,0,0,.845.417.991.991,0,0,0,.8-.383,1.975,1.975,0,0,0,.317-1.257,1.874,1.874,0,0,0-.327-1.211,1.012,1.012,0,0,0-.811-.4,1.053,1.053,0,0,0-.835.388A1.728,1.728,0,0,0-11.572-2.681Zm4.009-2.5H-6.1L-4.863-1.5l1.211-3.682h1.421L-4.062-.2l-.327.9a3.683,3.683,0,0,1-.344.693,1.5,1.5,0,0,1-.376.388,1.644,1.644,0,0,1-.522.232,2.713,2.713,0,0,1-.7.083,3.635,3.635,0,0,1-.776-.083L-7.231.947a3.035,3.035,0,0,0,.581.063A.861.861,0,0,0-5.942.73,1.948,1.948,0,0,0-5.591.015ZM-.088-2.129v-.894A2.059,2.059,0,0,0,.43-3.069a.628.628,0,0,0,.305-.225A.631.631,0,0,0,.879-3.7.679.679,0,0,0,.7-4.153.666.666,0,0,0,.166-4.36a1,1,0,0,0-.488.117,1.06,1.06,0,0,0-.391.557l-1.162-.249a1.605,1.605,0,0,1,.752-1.025A2.525,2.525,0,0,1,.19-5.3a2.206,2.206,0,0,1,1.453.43,1.348,1.348,0,0,1,.515,1.079,1.012,1.012,0,0,1-.222.671,2.068,2.068,0,0,1-.7.5,1.742,1.742,0,0,1,.862.474,1.139,1.139,0,0,1,.286.791A1.287,1.287,0,0,1,1.816-.32,2.626,2.626,0,0,1,.186.117a2.058,2.058,0,0,1-2.271-1.45L-.83-1.562a1.039,1.039,0,0,0,1,.762A.905.905,0,0,0,.789-1a.615.615,0,0,0,.232-.476.554.554,0,0,0-.242-.476,1.061,1.061,0,0,0-.632-.173Zm3.6-3.057H4.888v2.153H6.265a5.059,5.059,0,0,1,1.245.117,1.308,1.308,0,0,1,.723.505,1.471,1.471,0,0,1,.288.9,1.312,1.312,0,0,1-.515,1.13A2.6,2.6,0,0,1,6.46,0H3.516ZM4.888-.869H6.167a1.048,1.048,0,0,0,.769-.2A.687.687,0,0,0,7.1-1.528a.524.524,0,0,0-.291-.518,2.608,2.608,0,0,0-1.033-.142H4.888Zm9.189-4.316V0H12.715V-2.153h-.127a1.405,1.405,0,0,0-.652.115,1.548,1.548,0,0,0-.461.486l-.083.1L10.488,0h-1.6l.981-1.5a1.652,1.652,0,0,1,.762-.742A1.3,1.3,0,0,1,9.7-2.683a1.487,1.487,0,0,1-.359-1.028,1.517,1.517,0,0,1,.237-.859,1.184,1.184,0,0,1,.63-.486,3.977,3.977,0,0,1,1.169-.129ZM12.715-4.3h-.981a1.388,1.388,0,0,0-.762.154.579.579,0,0,0-.22.51A.559.559,0,0,0,11-3.125a1.6,1.6,0,0,0,.815.156h.9Zm2.793-.884h1.7L18.5-1.572l1.3-3.613h1.694V0H20.322V-3.413L19.058,0H17.886L16.68-3.413V0H15.508Zm7.324,0H24.15v3.257L26.26-5.186h1.348V0H26.289V-3.315L24.15,0H22.832Z" transform="translate(500 604)" fill="#242549"/><path d="M-16.719-3.652l-1.353.244a.982.982,0,0,0-.31-.61.936.936,0,0,0-.627-.205,1.025,1.025,0,0,0-.818.354,1.814,1.814,0,0,0-.305,1.184,2.1,2.1,0,0,0,.31,1.3A1.018,1.018,0,0,0-18.989-1a.925.925,0,0,0,.64-.222A1.336,1.336,0,0,0-18-1.987l1.348.229a2.391,2.391,0,0,1-.806,1.4,2.494,2.494,0,0,1-1.6.474A2.374,2.374,0,0,1-20.867-.6a2.783,2.783,0,0,1-.676-1.987,2.789,2.789,0,0,1,.679-2A2.411,2.411,0,0,1-19.028-5.3a2.5,2.5,0,0,1,1.506.408A2.259,2.259,0,0,1-16.719-3.652Zm4.043,2,1.367.229a2.243,2.243,0,0,1-.833,1.145,2.446,2.446,0,0,1-1.423.393,2.32,2.32,0,0,1-2-.884,2.969,2.969,0,0,1-.513-1.787,2.863,2.863,0,0,1,.674-2.019,2.219,2.219,0,0,1,1.7-.73,2.3,2.3,0,0,1,1.826.764,3.381,3.381,0,0,1,.64,2.341h-3.437a1.388,1.388,0,0,0,.332.95,1.039,1.039,0,0,0,.791.339.84.84,0,0,0,.542-.176A1.086,1.086,0,0,0-12.676-1.65Zm.078-1.387a1.321,1.321,0,0,0-.308-.906.944.944,0,0,0-.713-.31.953.953,0,0,0-.742.327,1.266,1.266,0,0,0-.288.889Zm2.388-2.148h1.7l1.289,3.613,1.3-3.613h1.694V0H-5.4V-3.413L-6.66,0H-7.832L-9.038-3.413V0H-10.21Zm7.388,0H-1.45v2.153H-.073a5.059,5.059,0,0,1,1.245.117,1.308,1.308,0,0,1,.723.505,1.471,1.471,0,0,1,.288.9,1.312,1.312,0,0,1-.515,1.13A2.6,2.6,0,0,1,.122,0H-2.822ZM-1.45-.869H-.171a1.048,1.048,0,0,0,.769-.2.687.687,0,0,0,.168-.464.524.524,0,0,0-.291-.518A2.608,2.608,0,0,0-.557-2.187H-1.45ZM7.739-5.186V0H6.377V-2.153H6.25a1.405,1.405,0,0,0-.652.115,1.548,1.548,0,0,0-.461.486l-.083.1L4.15,0h-1.6l.981-1.5A1.652,1.652,0,0,1,4.3-2.246a1.3,1.3,0,0,1-.935-.437A1.487,1.487,0,0,1,3-3.711,1.517,1.517,0,0,1,3.24-4.57a1.184,1.184,0,0,1,.63-.486,3.977,3.977,0,0,1,1.169-.129ZM6.377-4.3H5.4a1.388,1.388,0,0,0-.762.154.579.579,0,0,0-.22.51.559.559,0,0,0,.249.513,1.6,1.6,0,0,0,.815.156h.9ZM9.17-5.186h1.7l1.289,3.613,1.3-3.613h1.694V0H13.984V-3.413L12.72,0H11.548L10.342-3.413V0H9.17Zm7.324,0h1.318v3.257l2.109-3.257H21.27V0H19.951V-3.315L17.813,0H16.494Z" transform="translate(582 604)" fill="#242549"/></g></svg>