<svg xmlns="http://www.w3.org/2000/svg" width="291.063" height="250" viewBox="0 0 291.063 250"><g transform="translate(-3350.72 -1746)"><g transform="translate(0 -0.719)"><path d="M-14.652-11.748h1.87V0h2.42V-15.4H-11.99a2.4,2.4,0,0,1-2.662,1.936Zm9.042-.11c0-1.1.484-1.518,1.254-1.518s1.254.418,1.254,1.518v8.316c0,1.1-.484,1.518-1.254,1.518S-5.61-2.442-5.61-3.542ZM-8.03-3.7c0,2.464,1.3,3.872,3.674,3.872S-.682-1.232-.682-3.7V-11.7c0-2.464-1.3-3.872-3.674-3.872S-8.03-14.168-8.03-11.7Z" transform="translate(3367 1934.935)" fill="#242549"/><path d="M-14.652-11.748h1.87V0h2.42V-15.4H-11.99a2.4,2.4,0,0,1-2.662,1.936Zm6.71,6.776V-3.7C-7.942-1.232-6.71.176-4.334.176S-.726-1.232-.726-3.7V-7.128c0-2.266-.9-3.52-2.684-3.52A2.309,2.309,0,0,0-5.522-9.526l.2-3.674h4.2v-2.2H-7.5l-.44,8.932h2.288V-6.93c0-1.1.484-1.518,1.254-1.518s1.254.418,1.254,1.518v3.388c0,1.1-.484,1.5-1.254,1.5s-1.254-.4-1.254-1.5v-1.43Z" transform="translate(3367 1892.737)" fill="#242549"/><path d="M-11.352-11.616c0,4.444-4.8,5.192-4.8,9.724V0h7V-2.2h-4.576a1.665,1.665,0,0,1-.022-.33c0-2.53,4.818-4.334,4.818-9.174,0-2.464-1.232-3.872-3.608-3.872s-3.608,1.408-3.608,3.872v1.5h2.288v-1.65c0-1.1.484-1.518,1.254-1.518S-11.352-13-11.352-11.616Zm5.742-.242c0-1.1.484-1.518,1.254-1.518s1.254.418,1.254,1.518v8.316c0,1.1-.484,1.518-1.254,1.518S-5.61-2.442-5.61-3.542ZM-8.03-3.7c0,2.464,1.3,3.872,3.674,3.872S-.682-1.232-.682-3.7V-11.7c0-2.464-1.3-3.872-3.674-3.872S-8.03-14.168-8.03-11.7Z" transform="translate(3367 1850.538)" fill="#242549"/><path d="M-11.352-11.616c0,4.444-4.8,5.192-4.8,9.724V0h7V-2.2h-4.576a1.665,1.665,0,0,1-.022-.33c0-2.53,4.818-4.334,4.818-9.174,0-2.464-1.232-3.872-3.608-3.872s-3.608,1.408-3.608,3.872v1.5h2.288v-1.65c0-1.1.484-1.518,1.254-1.518S-11.352-13-11.352-11.616Zm3.41,6.644V-3.7C-7.942-1.232-6.71.176-4.334.176S-.726-1.232-.726-3.7V-7.128c0-2.266-.9-3.52-2.684-3.52A2.309,2.309,0,0,0-5.522-9.526l.2-3.674h4.2v-2.2H-7.5l-.44,8.932h2.288V-6.93c0-1.1.484-1.518,1.254-1.518s1.254.418,1.254,1.518v3.388c0,1.1-.484,1.5-1.254,1.5s-1.254-.4-1.254-1.5v-1.43Z" transform="translate(3367 1808.34)" fill="#242549"/><path d="M-11.484-10.758c0,1.232-.55,1.628-1.452,1.628h-.946v2.2h.814c1.1,0,1.584.528,1.584,1.958v1.21c0,1.364-.484,1.738-1.254,1.738s-1.254-.418-1.254-1.518v-1.43H-16.28V-3.7c0,2.464,1.232,3.872,3.608,3.872S-9.064-1.232-9.064-3.7v-1.21c0-1.562-.484-2.706-1.694-3.234,1.166-.484,1.694-1.518,1.694-3.168v-.4c0-2.464-1.232-3.872-3.608-3.872S-16.28-14.168-16.28-11.7v.836h2.288v-.99c0-1.1.484-1.518,1.254-1.518s1.254.374,1.254,1.76Zm5.874-1.1c0-1.1.484-1.518,1.254-1.518s1.254.418,1.254,1.518v8.316c0,1.1-.484,1.518-1.254,1.518S-5.61-2.442-5.61-3.542ZM-8.03-3.7c0,2.464,1.3,3.872,3.674,3.872S-.682-1.232-.682-3.7V-11.7c0-2.464-1.3-3.872-3.674-3.872S-8.03-14.168-8.03-11.7Z" transform="translate(3367 1766.142)" fill="#242549"/><path d="M.42-4.62H1.98a.712.712,0,0,1,.276-.588A1.176,1.176,0,0,1,2.964-5.4a1.663,1.663,0,0,1,.36.036,1.039,1.039,0,0,1,.288.12.9.9,0,0,1,.18.24.9.9,0,0,1,.072.372.74.74,0,0,1-.228.564,1.318,1.318,0,0,1-.792.192H2.208v1.1h.756a1.379,1.379,0,0,1,.792.18.759.759,0,0,1,.252.648.919.919,0,0,1-.048.3,1.191,1.191,0,0,1-.168.324.936.936,0,0,1-.312.24,1.32,1.32,0,0,1-.516.1,1.347,1.347,0,0,1-.456-.072,1.426,1.426,0,0,1-.348-.216A.763.763,0,0,1,1.932-1.6.921.921,0,0,1,1.848-2H.264A2.142,2.142,0,0,0,.48-.984,1.723,1.723,0,0,0,1.068-.3a2.4,2.4,0,0,0,.888.384A5.575,5.575,0,0,0,3.1.192a3.668,3.668,0,0,0,.948-.12A2.388,2.388,0,0,0,4.9-.312,2.062,2.062,0,0,0,5.5-1,1.874,1.874,0,0,0,5.736-2a2.085,2.085,0,0,0-.06-.468A1.459,1.459,0,0,0,5.46-2.9a1.53,1.53,0,0,0-.384-.348A1.551,1.551,0,0,0,4.5-3.444v-.024a1.6,1.6,0,0,0,.4-.156A1.168,1.168,0,0,0,5.22-3.9a1.125,1.125,0,0,0,.216-.372,1.347,1.347,0,0,0,.084-.5,1.651,1.651,0,0,0-.144-.672,1.615,1.615,0,0,0-.432-.564,2.078,2.078,0,0,0-.756-.408A3.683,3.683,0,0,0,3.1-6.576a4.92,4.92,0,0,0-1.056.108,2.638,2.638,0,0,0-.84.348,1.685,1.685,0,0,0-.564.6A2.073,2.073,0,0,0,.42-4.62Zm7.908-.852v-.912H6.744V2.472H8.4V-.792h.024a1.9,1.9,0,0,0,.372.48,1.608,1.608,0,0,0,.444.3,1.73,1.73,0,0,0,.48.156,2.172,2.172,0,0,0,.48.048A2.733,2.733,0,0,0,11.412-.06a2.558,2.558,0,0,0,.84-.72,3.174,3.174,0,0,0,.5-1.116,5.21,5.21,0,0,0,.168-1.416,4.381,4.381,0,0,0-.12-1.1,3.139,3.139,0,0,0-.312-.84,2.5,2.5,0,0,0-.468-.624,2.463,2.463,0,0,0-.552-.4A2.538,2.538,0,0,0,10.86-6.5a2.641,2.641,0,0,0-.6-.072,2.411,2.411,0,0,0-.624.072,1.766,1.766,0,0,0-.516.192,1.789,1.789,0,0,0-.408.336,2.7,2.7,0,0,0-.36.5Zm1.44.384a1.328,1.328,0,0,1,.672.168,1.565,1.565,0,0,1,.444.444,2.325,2.325,0,0,1,.24.612,3.2,3.2,0,0,1,.072.672c0,.12,0,.252-.012.4s-.048.288-.084.432a4.34,4.34,0,0,1-.156.42,1.723,1.723,0,0,1-.264.372,1.772,1.772,0,0,1-.384.252,1.383,1.383,0,0,1-.528.1,1.383,1.383,0,0,1-.528-.1,1.772,1.772,0,0,1-.384-.252A1.134,1.134,0,0,1,8.6-1.944a2.556,2.556,0,0,1-.168-.42A2.705,2.705,0,0,1,8.364-2.8a2.33,2.33,0,0,1-.024-.4,3.2,3.2,0,0,1,.072-.672,1.992,1.992,0,0,1,.252-.612A1.386,1.386,0,0,1,9.1-4.92,1.3,1.3,0,0,1,9.768-5.088Zm6.012,2.64V-6.384H14.124V0h1.812l2.256-3.852h.024V0h1.656V-6.384h-1.74L15.8-2.448ZM20.9-6.384V-5.04h1.932V0h1.656V-5.04h1.932V-6.384Zm7.74,3.708h4.38a8.086,8.086,0,0,0-.156-1.6,3.193,3.193,0,0,0-.5-1.236,2.507,2.507,0,0,0-.936-.792A3.365,3.365,0,0,0,30-6.576a2.96,2.96,0,0,0-1.368.276,2.519,2.519,0,0,0-.948.732,2.823,2.823,0,0,0-.528,1.056,4.3,4.3,0,0,0-.18,1.248,4.806,4.806,0,0,0,.24,1.6A2.884,2.884,0,0,0,27.876-.6a2.373,2.373,0,0,0,.984.6,3.475,3.475,0,0,0,1.188.192A3.587,3.587,0,0,0,30.96.084a3.206,3.206,0,0,0,.72-.276,2.244,2.244,0,0,0,.564-.4,2.763,2.763,0,0,0,.4-.456,2.7,2.7,0,0,0,.228-.456,1.261,1.261,0,0,0,.072-.4H31.224a.953.953,0,0,1-.156.312,1.142,1.142,0,0,1-.252.228.869.869,0,0,1-.324.144,1.115,1.115,0,0,1-.348.06,1.6,1.6,0,0,1-.576-.1,1.034,1.034,0,0,1-.408-.228.853.853,0,0,1-.276-.312,2.1,2.1,0,0,1-.156-.336,1.094,1.094,0,0,1-.06-.324A2.116,2.116,0,0,1,28.644-2.676ZM31.3-3.78H28.7a1.589,1.589,0,0,1,.132-.708,1.1,1.1,0,0,1,.312-.444,1.128,1.128,0,0,1,.42-.24A1.869,1.869,0,0,1,30-5.232a1.785,1.785,0,0,1,.432.06,1.282,1.282,0,0,1,.432.24,1.4,1.4,0,0,1,.312.444A1.784,1.784,0,0,1,31.3-3.78Zm7.272-1.26V0h1.644V-6.384H35.076l-.048,2.412c-.012.564-.036,1.02-.072,1.38a4.454,4.454,0,0,1-.168.84.851.851,0,0,1-.252.408.482.482,0,0,1-.336.12,2.023,2.023,0,0,1-.3-.024,2.266,2.266,0,0,1-.216-.072V.072a1.776,1.776,0,0,0,.348.1c.144.012.3.024.492.024a1.761,1.761,0,0,0,.984-.252,1.894,1.894,0,0,0,.612-.768,5.043,5.043,0,0,0,.324-1.26c.06-.5.108-1.092.132-1.764L36.6-5.04Zm5.04,2.592V-6.384H41.952V0h1.812L46.02-3.852h.024V0H47.7V-6.384H45.96L43.632-2.448Zm12.36-3.936h-3.3V0h3.576a2.744,2.744,0,0,0,.912-.144,1.908,1.908,0,0,0,.7-.408,1.8,1.8,0,0,0,.444-.624,2.2,2.2,0,0,0,.144-.816,1.545,1.545,0,0,0-.252-.888,1.361,1.361,0,0,0-.732-.54,1.444,1.444,0,0,0,.288-.18.971.971,0,0,0,.24-.252,1,1,0,0,0,.168-.36,1.492,1.492,0,0,0,.06-.492,1.693,1.693,0,0,0-.18-.828,1.449,1.449,0,0,0-.492-.516,2.7,2.7,0,0,0-.72-.264A4.9,4.9,0,0,0,55.968-6.384ZM55.6-3.876H54.324V-5.208h1.32a1.568,1.568,0,0,1,.444.048.845.845,0,0,1,.276.132.491.491,0,0,1,.156.2.646.646,0,0,1,.048.264.788.788,0,0,1-.048.3.378.378,0,0,1-.156.2.8.8,0,0,1-.288.132A2.584,2.584,0,0,1,55.6-3.876Zm0,2.7H54.324v-1.6H55.6a3.155,3.155,0,0,1,.516.036.706.706,0,0,1,.348.132.467.467,0,0,1,.192.24.983.983,0,0,1,.06.4,1.07,1.07,0,0,1-.036.264.558.558,0,0,1-.156.252,1,1,0,0,1-.336.2A1.958,1.958,0,0,1,55.6-1.176Zm7.488-.492A4.014,4.014,0,0,0,62.688,0h5.82V-1.476H64.8a2.043,2.043,0,0,1,.4-.456c.144-.132.432-.348.852-.648l.672-.468A5.98,5.98,0,0,0,67.932-4.14,2.668,2.668,0,0,0,68.5-5.808a2.543,2.543,0,0,0-.8-1.98,2.972,2.972,0,0,0-2.136-.744A2.439,2.439,0,0,0,63.18-7.26a4.108,4.108,0,0,0-.4,1.752H64.4A2.821,2.821,0,0,1,64.6-6.552a1.034,1.034,0,0,1,1.032-.576,1.072,1.072,0,0,1,.864.36,1.4,1.4,0,0,1,.3.9,1.738,1.738,0,0,1-.528,1.212,12.235,12.235,0,0,1-1.488,1.188A4.7,4.7,0,0,0,63.084-1.668ZM74.568-7.416a2.4,2.4,0,0,0-2.28-1.14,2.394,2.394,0,0,0-2.268,1.14,6.548,6.548,0,0,0-.66,3.252,6.467,6.467,0,0,0,.66,3.24A2.394,2.394,0,0,0,72.288.216a2.4,2.4,0,0,0,2.28-1.14,6.6,6.6,0,0,0,.66-3.24A6.683,6.683,0,0,0,74.568-7.416ZM71.3-1.932a8.1,8.1,0,0,1-.24-2.232,8.079,8.079,0,0,1,.24-2.28.962.962,0,0,1,.984-.732.945.945,0,0,1,.984.732,8.173,8.173,0,0,1,.228,2.28,8.187,8.187,0,0,1-.228,2.232.952.952,0,0,1-.984.78A.969.969,0,0,1,71.3-1.932Zm5.124.264A4.014,4.014,0,0,0,76.032,0h5.82V-1.476H78.144a2.043,2.043,0,0,1,.4-.456c.144-.132.432-.348.852-.648l.672-.468A5.98,5.98,0,0,0,81.276-4.14a2.668,2.668,0,0,0,.564-1.668,2.543,2.543,0,0,0-.8-1.98A2.972,2.972,0,0,0,78.9-8.532,2.439,2.439,0,0,0,76.524-7.26a4.108,4.108,0,0,0-.4,1.752h1.62a2.821,2.821,0,0,1,.192-1.044,1.034,1.034,0,0,1,1.032-.576,1.072,1.072,0,0,1,.864.36,1.4,1.4,0,0,1,.3.9,1.738,1.738,0,0,1-.528,1.212A12.235,12.235,0,0,1,78.12-3.468,4.7,4.7,0,0,0,76.428-1.668ZM87.912-7.416a2.4,2.4,0,0,0-2.28-1.14,2.394,2.394,0,0,0-2.268,1.14,6.548,6.548,0,0,0-.66,3.252,6.467,6.467,0,0,0,.66,3.24A2.394,2.394,0,0,0,85.632.216a2.4,2.4,0,0,0,2.28-1.14,6.6,6.6,0,0,0,.66-3.24A6.683,6.683,0,0,0,87.912-7.416ZM84.648-1.932a8.1,8.1,0,0,1-.24-2.232,8.079,8.079,0,0,1,.24-2.28.962.962,0,0,1,.984-.732.945.945,0,0,1,.984.732,8.173,8.173,0,0,1,.228,2.28,8.187,8.187,0,0,1-.228,2.232.952.952,0,0,1-.984.78A.969.969,0,0,1,84.648-1.932ZM97.428-5.04V-6.384h-4.3V0h1.656V-5.04Zm.648,1.848A4.067,4.067,0,0,0,98.3-1.836a2.889,2.889,0,0,0,.648,1.08,3.13,3.13,0,0,0,1.032.7,3.5,3.5,0,0,0,1.356.252,3.581,3.581,0,0,0,1.38-.252,2.96,2.96,0,0,0,1.02-.7,3.241,3.241,0,0,0,.648-1.08,4.069,4.069,0,0,0,.216-1.356,4.069,4.069,0,0,0-.216-1.356,3.241,3.241,0,0,0-.648-1.08,2.8,2.8,0,0,0-1.02-.7,3.581,3.581,0,0,0-1.38-.252,3.5,3.5,0,0,0-1.356.252,2.958,2.958,0,0,0-1.032.7,2.889,2.889,0,0,0-.648,1.08A4.067,4.067,0,0,0,98.076-3.192Zm1.728,0a3.682,3.682,0,0,1,.084-.72,1.664,1.664,0,0,1,.264-.636,1.382,1.382,0,0,1,.468-.444,1.452,1.452,0,0,1,.72-.168,1.521,1.521,0,0,1,.744.156,1.508,1.508,0,0,1,.468.444,1.767,1.767,0,0,1,.252.636,3.694,3.694,0,0,1,.072.732,3.694,3.694,0,0,1-.072.732,1.707,1.707,0,0,1-.252.624,1.382,1.382,0,0,1-.468.444,1.517,1.517,0,0,1-.744.168,1.452,1.452,0,0,1-.72-.168,1.31,1.31,0,0,1-.468-.456,1.589,1.589,0,0,1-.264-.636A3.461,3.461,0,0,1,99.8-3.192Zm6.108,1.848h-.66v2.88h1.56V0H111V1.536h1.56v-2.88h-.8v-5.04h-4.992v.54c0,.228,0,.48-.012.756s-.036.576-.06.876a9.045,9.045,0,0,1-.144.972,9.567,9.567,0,0,1-.24.972A5.788,5.788,0,0,1,105.912-1.344Zm2.292-3.7h1.9v3.7h-2.52a4.389,4.389,0,0,0,.252-.636q.108-.342.18-.684c.048-.24.084-.468.108-.708s.048-.456.06-.66.024-.408.024-.576Zm8.784,4.932,2.2-6.276h-1.776L116.1-1.68h-.024l-1.368-4.7h-1.86l2.34,6.72a.7.7,0,0,1-.048.24.755.755,0,0,1-.156.288.96.96,0,0,1-.288.24.972.972,0,0,1-.444.1A2.043,2.043,0,0,1,114,1.188a1.238,1.238,0,0,1-.24-.024V2.508c.132.012.24.024.348.024a2.315,2.315,0,0,0,.3.012,4.013,4.013,0,0,0,.708-.048,1.431,1.431,0,0,0,.528-.156,1.153,1.153,0,0,0,.384-.3,2.224,2.224,0,0,0,.324-.48c.1-.2.192-.432.3-.708S116.868.264,116.988-.108ZM123.9-6.456a7.779,7.779,0,0,0-.7,3.192A8.738,8.738,0,0,0,124.02.312a8.3,8.3,0,0,0,.864,1.536l.42.576h1.236A15.162,15.162,0,0,1,125.46.132a9.965,9.965,0,0,1-.528-3.3,11.507,11.507,0,0,1,.192-2.112,9.753,9.753,0,0,1,1.032-2.844l.348-.648h-1.26A11.886,11.886,0,0,0,123.9-6.456Zm7.152,4.7-1.08-4.632h-2.5V0h1.56V-5.136h.024L130.26,0h1.512l1.2-5.136H133V0h1.56V-6.384h-2.424l-1.056,4.632ZM140.58-5.04V0h1.644V-6.384h-5.136l-.048,2.412c-.012.564-.036,1.02-.072,1.38a4.452,4.452,0,0,1-.168.84.851.851,0,0,1-.252.408.482.482,0,0,1-.336.12,2.023,2.023,0,0,1-.3-.024,2.265,2.265,0,0,1-.216-.072V.072a1.775,1.775,0,0,0,.348.1c.144.012.3.024.492.024a1.761,1.761,0,0,0,.984-.252,1.894,1.894,0,0,0,.612-.768,5.043,5.043,0,0,0,.324-1.26c.06-.5.108-1.092.132-1.764l.024-1.188Zm5.04.96v-2.3h-1.656V0h1.656V-2.736h2.436V0h1.656V-6.384h-1.656v2.3Zm12.444,1.56V0h1.656V-6.384h-1.656v2.64a2.1,2.1,0,0,1-.4.18,2.487,2.487,0,0,1-.672.072,3.1,3.1,0,0,1-.5-.036.764.764,0,0,1-.348-.144.556.556,0,0,1-.2-.288,1.143,1.143,0,0,1-.072-.444v-1.98h-1.656v2.3a2.217,2.217,0,0,0,.144.852,1.31,1.31,0,0,0,.432.576,2.015,2.015,0,0,0,.708.312,4.675,4.675,0,0,0,.972.1,2.981,2.981,0,0,0,.456-.024c.156-.012.312-.036.456-.06s.276-.06.4-.1S157.992-2.5,158.064-2.52Zm4.428-.156h4.38a8.085,8.085,0,0,0-.156-1.6,3.193,3.193,0,0,0-.5-1.236,2.507,2.507,0,0,0-.936-.792,3.366,3.366,0,0,0-1.428-.276,2.96,2.96,0,0,0-1.368.276,2.519,2.519,0,0,0-.948.732A2.823,2.823,0,0,0,161-4.512a4.3,4.3,0,0,0-.18,1.248,4.806,4.806,0,0,0,.24,1.6,2.884,2.884,0,0,0,.66,1.068,2.373,2.373,0,0,0,.984.6A3.475,3.475,0,0,0,163.9.192a3.587,3.587,0,0,0,.912-.108,3.206,3.206,0,0,0,.72-.276,2.244,2.244,0,0,0,.564-.4,2.763,2.763,0,0,0,.4-.456,2.694,2.694,0,0,0,.228-.456,1.261,1.261,0,0,0,.072-.4h-1.716a.953.953,0,0,1-.156.312,1.142,1.142,0,0,1-.252.228.869.869,0,0,1-.324.144,1.115,1.115,0,0,1-.348.06,1.6,1.6,0,0,1-.576-.1,1.034,1.034,0,0,1-.408-.228.853.853,0,0,1-.276-.312,2.106,2.106,0,0,1-.156-.336,1.094,1.094,0,0,1-.06-.324A2.117,2.117,0,0,1,162.492-2.676Zm2.652-1.1h-2.592a1.589,1.589,0,0,1,.132-.708A1.1,1.1,0,0,1,163-4.932a1.128,1.128,0,0,1,.42-.24,1.869,1.869,0,0,1,.432-.06,1.785,1.785,0,0,1,.432.06,1.282,1.282,0,0,1,.432.24,1.4,1.4,0,0,1,.312.444A1.784,1.784,0,0,1,165.144-3.78Zm7.272-1.26V0h1.644V-6.384h-5.136l-.048,2.412c-.012.564-.036,1.02-.072,1.38a4.452,4.452,0,0,1-.168.84.851.851,0,0,1-.252.408.482.482,0,0,1-.336.12,2.023,2.023,0,0,1-.3-.024,2.265,2.265,0,0,1-.216-.072V.072a1.775,1.775,0,0,0,.348.1c.144.012.3.024.492.024a1.761,1.761,0,0,0,.984-.252,1.894,1.894,0,0,0,.612-.768,5.043,5.043,0,0,0,.324-1.26c.06-.5.108-1.092.132-1.764l.024-1.188Zm5.352-1.416a11.885,11.885,0,0,0-1.344-2.316h-1.26l.348.648a9.753,9.753,0,0,1,1.032,2.844,11.506,11.506,0,0,1,.192,2.112,9.965,9.965,0,0,1-.528,3.3,15.162,15.162,0,0,1-1.08,2.292h1.236l.42-.576a8.3,8.3,0,0,0,.864-1.536,8.739,8.739,0,0,0,.816-3.576A7.779,7.779,0,0,0,177.768-6.456Z" transform="translate(3405.427 1988.246)" fill="#242647"/><rect width="14" height="14" rx="2.8" transform="translate(3389.742 1977.614)" fill="#4862ad"/><path d="M.42-4.62H1.98a.712.712,0,0,1,.276-.588A1.176,1.176,0,0,1,2.964-5.4a1.663,1.663,0,0,1,.36.036,1.039,1.039,0,0,1,.288.12.9.9,0,0,1,.18.24.9.9,0,0,1,.072.372.74.74,0,0,1-.228.564,1.318,1.318,0,0,1-.792.192H2.208v1.1h.756a1.379,1.379,0,0,1,.792.18.759.759,0,0,1,.252.648.919.919,0,0,1-.048.3,1.191,1.191,0,0,1-.168.324.936.936,0,0,1-.312.24,1.32,1.32,0,0,1-.516.1,1.347,1.347,0,0,1-.456-.072,1.426,1.426,0,0,1-.348-.216A.763.763,0,0,1,1.932-1.6.921.921,0,0,1,1.848-2H.264A2.142,2.142,0,0,0,.48-.984,1.723,1.723,0,0,0,1.068-.3a2.4,2.4,0,0,0,.888.384A5.575,5.575,0,0,0,3.1.192a3.668,3.668,0,0,0,.948-.12A2.388,2.388,0,0,0,4.9-.312,2.062,2.062,0,0,0,5.5-1,1.874,1.874,0,0,0,5.736-2a2.085,2.085,0,0,0-.06-.468A1.459,1.459,0,0,0,5.46-2.9a1.53,1.53,0,0,0-.384-.348A1.551,1.551,0,0,0,4.5-3.444v-.024a1.6,1.6,0,0,0,.4-.156A1.168,1.168,0,0,0,5.22-3.9a1.125,1.125,0,0,0,.216-.372,1.347,1.347,0,0,0,.084-.5,1.651,1.651,0,0,0-.144-.672,1.615,1.615,0,0,0-.432-.564,2.078,2.078,0,0,0-.756-.408A3.683,3.683,0,0,0,3.1-6.576a4.92,4.92,0,0,0-1.056.108,2.638,2.638,0,0,0-.84.348,1.685,1.685,0,0,0-.564.6A2.073,2.073,0,0,0,.42-4.62Zm7.908-.852v-.912H6.744V2.472H8.4V-.792h.024a1.9,1.9,0,0,0,.372.48,1.608,1.608,0,0,0,.444.3,1.73,1.73,0,0,0,.48.156,2.172,2.172,0,0,0,.48.048A2.733,2.733,0,0,0,11.412-.06a2.558,2.558,0,0,0,.84-.72,3.174,3.174,0,0,0,.5-1.116,5.21,5.21,0,0,0,.168-1.416,4.381,4.381,0,0,0-.12-1.1,3.139,3.139,0,0,0-.312-.84,2.5,2.5,0,0,0-.468-.624,2.463,2.463,0,0,0-.552-.4A2.538,2.538,0,0,0,10.86-6.5a2.641,2.641,0,0,0-.6-.072,2.411,2.411,0,0,0-.624.072,1.766,1.766,0,0,0-.516.192,1.789,1.789,0,0,0-.408.336,2.7,2.7,0,0,0-.36.5Zm1.44.384a1.328,1.328,0,0,1,.672.168,1.565,1.565,0,0,1,.444.444,2.325,2.325,0,0,1,.24.612,3.2,3.2,0,0,1,.072.672c0,.12,0,.252-.012.4s-.048.288-.084.432a4.34,4.34,0,0,1-.156.42,1.723,1.723,0,0,1-.264.372,1.772,1.772,0,0,1-.384.252,1.383,1.383,0,0,1-.528.1,1.383,1.383,0,0,1-.528-.1,1.772,1.772,0,0,1-.384-.252A1.134,1.134,0,0,1,8.6-1.944a2.556,2.556,0,0,1-.168-.42A2.705,2.705,0,0,1,8.364-2.8a2.33,2.33,0,0,1-.024-.4,3.2,3.2,0,0,1,.072-.672,1.992,1.992,0,0,1,.252-.612A1.386,1.386,0,0,1,9.1-4.92,1.3,1.3,0,0,1,9.768-5.088Zm6.012,2.64V-6.384H14.124V0h1.812l2.256-3.852h.024V0h1.656V-6.384h-1.74L15.8-2.448ZM20.9-6.384V-5.04h1.932V0h1.656V-5.04h1.932V-6.384Zm7.74,3.708h4.38a8.086,8.086,0,0,0-.156-1.6,3.193,3.193,0,0,0-.5-1.236,2.507,2.507,0,0,0-.936-.792A3.365,3.365,0,0,0,30-6.576a2.96,2.96,0,0,0-1.368.276,2.519,2.519,0,0,0-.948.732,2.823,2.823,0,0,0-.528,1.056,4.3,4.3,0,0,0-.18,1.248,4.806,4.806,0,0,0,.24,1.6A2.884,2.884,0,0,0,27.876-.6a2.373,2.373,0,0,0,.984.6,3.475,3.475,0,0,0,1.188.192A3.587,3.587,0,0,0,30.96.084a3.206,3.206,0,0,0,.72-.276,2.244,2.244,0,0,0,.564-.4,2.763,2.763,0,0,0,.4-.456,2.7,2.7,0,0,0,.228-.456,1.261,1.261,0,0,0,.072-.4H31.224a.953.953,0,0,1-.156.312,1.142,1.142,0,0,1-.252.228.869.869,0,0,1-.324.144,1.115,1.115,0,0,1-.348.06,1.6,1.6,0,0,1-.576-.1,1.034,1.034,0,0,1-.408-.228.853.853,0,0,1-.276-.312,2.1,2.1,0,0,1-.156-.336,1.094,1.094,0,0,1-.06-.324A2.116,2.116,0,0,1,28.644-2.676ZM31.3-3.78H28.7a1.589,1.589,0,0,1,.132-.708,1.1,1.1,0,0,1,.312-.444,1.128,1.128,0,0,1,.42-.24A1.869,1.869,0,0,1,30-5.232a1.785,1.785,0,0,1,.432.06,1.282,1.282,0,0,1,.432.24,1.4,1.4,0,0,1,.312.444A1.784,1.784,0,0,1,31.3-3.78Zm7.272-1.26V0h1.644V-6.384H35.076l-.048,2.412c-.012.564-.036,1.02-.072,1.38a4.454,4.454,0,0,1-.168.84.851.851,0,0,1-.252.408.482.482,0,0,1-.336.12,2.023,2.023,0,0,1-.3-.024,2.266,2.266,0,0,1-.216-.072V.072a1.776,1.776,0,0,0,.348.1c.144.012.3.024.492.024a1.761,1.761,0,0,0,.984-.252,1.894,1.894,0,0,0,.612-.768,5.043,5.043,0,0,0,.324-1.26c.06-.5.108-1.092.132-1.764L36.6-5.04Zm5.04,2.592V-6.384H41.952V0h1.812L46.02-3.852h.024V0H47.7V-6.384H45.96L43.632-2.448Zm12.36-3.936h-3.3V0h3.576a2.744,2.744,0,0,0,.912-.144,1.908,1.908,0,0,0,.7-.408,1.8,1.8,0,0,0,.444-.624,2.2,2.2,0,0,0,.144-.816,1.545,1.545,0,0,0-.252-.888,1.361,1.361,0,0,0-.732-.54,1.444,1.444,0,0,0,.288-.18.971.971,0,0,0,.24-.252,1,1,0,0,0,.168-.36,1.492,1.492,0,0,0,.06-.492,1.693,1.693,0,0,0-.18-.828,1.449,1.449,0,0,0-.492-.516,2.7,2.7,0,0,0-.72-.264A4.9,4.9,0,0,0,55.968-6.384ZM55.6-3.876H54.324V-5.208h1.32a1.568,1.568,0,0,1,.444.048.845.845,0,0,1,.276.132.491.491,0,0,1,.156.2.646.646,0,0,1,.048.264.788.788,0,0,1-.048.3.378.378,0,0,1-.156.2.8.8,0,0,1-.288.132A2.584,2.584,0,0,1,55.6-3.876Zm0,2.7H54.324v-1.6H55.6a3.155,3.155,0,0,1,.516.036.706.706,0,0,1,.348.132.467.467,0,0,1,.192.24.983.983,0,0,1,.06.4,1.07,1.07,0,0,1-.036.264.558.558,0,0,1-.156.252,1,1,0,0,1-.336.2A1.958,1.958,0,0,1,55.6-1.176Zm7.488-.492A4.014,4.014,0,0,0,62.688,0h5.82V-1.476H64.8a2.043,2.043,0,0,1,.4-.456c.144-.132.432-.348.852-.648l.672-.468A5.98,5.98,0,0,0,67.932-4.14,2.668,2.668,0,0,0,68.5-5.808a2.543,2.543,0,0,0-.8-1.98,2.972,2.972,0,0,0-2.136-.744A2.439,2.439,0,0,0,63.18-7.26a4.108,4.108,0,0,0-.4,1.752H64.4A2.821,2.821,0,0,1,64.6-6.552a1.034,1.034,0,0,1,1.032-.576,1.072,1.072,0,0,1,.864.36,1.4,1.4,0,0,1,.3.9,1.738,1.738,0,0,1-.528,1.212,12.235,12.235,0,0,1-1.488,1.188A4.7,4.7,0,0,0,63.084-1.668ZM74.568-7.416a2.4,2.4,0,0,0-2.28-1.14,2.394,2.394,0,0,0-2.268,1.14,6.548,6.548,0,0,0-.66,3.252,6.467,6.467,0,0,0,.66,3.24A2.394,2.394,0,0,0,72.288.216a2.4,2.4,0,0,0,2.28-1.14,6.6,6.6,0,0,0,.66-3.24A6.683,6.683,0,0,0,74.568-7.416ZM71.3-1.932a8.1,8.1,0,0,1-.24-2.232,8.079,8.079,0,0,1,.24-2.28.962.962,0,0,1,.984-.732.945.945,0,0,1,.984.732,8.173,8.173,0,0,1,.228,2.28,8.187,8.187,0,0,1-.228,2.232.952.952,0,0,1-.984.78A.969.969,0,0,1,71.3-1.932ZM76.488-7v1.14h2V0h1.7V-8.5h-1.38a1.2,1.2,0,0,1-.072.336,1.488,1.488,0,0,1-.324.612A1.56,1.56,0,0,1,77.6-7.1,7.449,7.449,0,0,1,76.488-7Zm7-.732a3.144,3.144,0,0,0-.792,2.22,2.586,2.586,0,0,0,.78,2.016,2.645,2.645,0,0,0,1.8.708,2.159,2.159,0,0,0,1.152-.288,1.793,1.793,0,0,0,.492-.432,5.574,5.574,0,0,1-.228,1.464,1.194,1.194,0,0,1-1.164.912.963.963,0,0,1-.684-.228,1,1,0,0,1-.312-.612H82.86a2.184,2.184,0,0,0,.876,1.644,2.766,2.766,0,0,0,1.716.576A2.743,2.743,0,0,0,88.2-1.716a7.218,7.218,0,0,0,.4-2.568,6.647,6.647,0,0,0-.408-2.568,2.652,2.652,0,0,0-2.664-1.716A2.677,2.677,0,0,0,83.484-7.728Zm2.808,3.384a1.234,1.234,0,0,1-.66.192,1.13,1.13,0,0,1-.936-.372,1.794,1.794,0,0,1-.312-1.14,1.524,1.524,0,0,1,.48-1.272,1.166,1.166,0,0,1,.732-.24,1.106,1.106,0,0,1,.924.432,1.744,1.744,0,0,1,.336,1.14A1.386,1.386,0,0,1,86.292-4.344Zm11.136-.7V-6.384h-4.3V0h1.656V-5.04Zm.648,1.848A4.067,4.067,0,0,0,98.3-1.836a2.889,2.889,0,0,0,.648,1.08,3.13,3.13,0,0,0,1.032.7,3.5,3.5,0,0,0,1.356.252,3.581,3.581,0,0,0,1.38-.252,2.96,2.96,0,0,0,1.02-.7,3.241,3.241,0,0,0,.648-1.08,4.069,4.069,0,0,0,.216-1.356,4.069,4.069,0,0,0-.216-1.356,3.241,3.241,0,0,0-.648-1.08,2.8,2.8,0,0,0-1.02-.7,3.581,3.581,0,0,0-1.38-.252,3.5,3.5,0,0,0-1.356.252,2.958,2.958,0,0,0-1.032.7,2.889,2.889,0,0,0-.648,1.08A4.067,4.067,0,0,0,98.076-3.192Zm1.728,0a3.682,3.682,0,0,1,.084-.72,1.664,1.664,0,0,1,.264-.636,1.382,1.382,0,0,1,.468-.444,1.452,1.452,0,0,1,.72-.168,1.521,1.521,0,0,1,.744.156,1.508,1.508,0,0,1,.468.444,1.767,1.767,0,0,1,.252.636,3.694,3.694,0,0,1,.072.732,3.694,3.694,0,0,1-.072.732,1.707,1.707,0,0,1-.252.624,1.382,1.382,0,0,1-.468.444,1.517,1.517,0,0,1-.744.168,1.452,1.452,0,0,1-.72-.168,1.31,1.31,0,0,1-.468-.456,1.589,1.589,0,0,1-.264-.636A3.461,3.461,0,0,1,99.8-3.192Zm6.108,1.848h-.66v2.88h1.56V0H111V1.536h1.56v-2.88h-.8v-5.04h-4.992v.54c0,.228,0,.48-.012.756s-.036.576-.06.876a9.045,9.045,0,0,1-.144.972,9.567,9.567,0,0,1-.24.972A5.788,5.788,0,0,1,105.912-1.344Zm2.292-3.7h1.9v3.7h-2.52a4.389,4.389,0,0,0,.252-.636q.108-.342.18-.684c.048-.24.084-.468.108-.708s.048-.456.06-.66.024-.408.024-.576Zm8.784,4.932,2.2-6.276h-1.776L116.1-1.68h-.024l-1.368-4.7h-1.86l2.34,6.72a.7.7,0,0,1-.048.24.755.755,0,0,1-.156.288.96.96,0,0,1-.288.24.972.972,0,0,1-.444.1A2.043,2.043,0,0,1,114,1.188a1.238,1.238,0,0,1-.24-.024V2.508c.132.012.24.024.348.024a2.315,2.315,0,0,0,.3.012,4.013,4.013,0,0,0,.708-.048,1.431,1.431,0,0,0,.528-.156,1.153,1.153,0,0,0,.384-.3,2.224,2.224,0,0,0,.324-.48c.1-.2.192-.432.3-.708S116.868.264,116.988-.108ZM123.9-6.456a7.779,7.779,0,0,0-.7,3.192A8.738,8.738,0,0,0,124.02.312a8.3,8.3,0,0,0,.864,1.536l.42.576h1.236A15.162,15.162,0,0,1,125.46.132a9.965,9.965,0,0,1-.528-3.3,11.507,11.507,0,0,1,.192-2.112,9.753,9.753,0,0,1,1.032-2.844l.348-.648h-1.26A11.886,11.886,0,0,0,123.9-6.456Zm7.152,4.7-1.08-4.632h-2.5V0h1.56V-5.136h.024L130.26,0h1.512l1.2-5.136H133V0h1.56V-6.384h-2.424l-1.056,4.632ZM140.58-5.04V0h1.644V-6.384h-5.136l-.048,2.412c-.012.564-.036,1.02-.072,1.38a4.452,4.452,0,0,1-.168.84.851.851,0,0,1-.252.408.482.482,0,0,1-.336.12,2.023,2.023,0,0,1-.3-.024,2.265,2.265,0,0,1-.216-.072V.072a1.775,1.775,0,0,0,.348.1c.144.012.3.024.492.024a1.761,1.761,0,0,0,.984-.252,1.894,1.894,0,0,0,.612-.768,5.043,5.043,0,0,0,.324-1.26c.06-.5.108-1.092.132-1.764l.024-1.188Zm5.04.96v-2.3h-1.656V0h1.656V-2.736h2.436V0h1.656V-6.384h-1.656v2.3Zm12.444,1.56V0h1.656V-6.384h-1.656v2.64a2.1,2.1,0,0,1-.4.18,2.487,2.487,0,0,1-.672.072,3.1,3.1,0,0,1-.5-.036.764.764,0,0,1-.348-.144.556.556,0,0,1-.2-.288,1.143,1.143,0,0,1-.072-.444v-1.98h-1.656v2.3a2.217,2.217,0,0,0,.144.852,1.31,1.31,0,0,0,.432.576,2.015,2.015,0,0,0,.708.312,4.675,4.675,0,0,0,.972.1,2.981,2.981,0,0,0,.456-.024c.156-.012.312-.036.456-.06s.276-.06.4-.1S157.992-2.5,158.064-2.52Zm4.428-.156h4.38a8.085,8.085,0,0,0-.156-1.6,3.193,3.193,0,0,0-.5-1.236,2.507,2.507,0,0,0-.936-.792,3.366,3.366,0,0,0-1.428-.276,2.96,2.96,0,0,0-1.368.276,2.519,2.519,0,0,0-.948.732A2.823,2.823,0,0,0,161-4.512a4.3,4.3,0,0,0-.18,1.248,4.806,4.806,0,0,0,.24,1.6,2.884,2.884,0,0,0,.66,1.068,2.373,2.373,0,0,0,.984.6A3.475,3.475,0,0,0,163.9.192a3.587,3.587,0,0,0,.912-.108,3.206,3.206,0,0,0,.72-.276,2.244,2.244,0,0,0,.564-.4,2.763,2.763,0,0,0,.4-.456,2.694,2.694,0,0,0,.228-.456,1.261,1.261,0,0,0,.072-.4h-1.716a.953.953,0,0,1-.156.312,1.142,1.142,0,0,1-.252.228.869.869,0,0,1-.324.144,1.115,1.115,0,0,1-.348.06,1.6,1.6,0,0,1-.576-.1,1.034,1.034,0,0,1-.408-.228.853.853,0,0,1-.276-.312,2.106,2.106,0,0,1-.156-.336,1.094,1.094,0,0,1-.06-.324A2.117,2.117,0,0,1,162.492-2.676Zm2.652-1.1h-2.592a1.589,1.589,0,0,1,.132-.708A1.1,1.1,0,0,1,163-4.932a1.128,1.128,0,0,1,.42-.24,1.869,1.869,0,0,1,.432-.06,1.785,1.785,0,0,1,.432.06,1.282,1.282,0,0,1,.432.24,1.4,1.4,0,0,1,.312.444A1.784,1.784,0,0,1,165.144-3.78Zm7.272-1.26V0h1.644V-6.384h-5.136l-.048,2.412c-.012.564-.036,1.02-.072,1.38a4.452,4.452,0,0,1-.168.84.851.851,0,0,1-.252.408.482.482,0,0,1-.336.12,2.023,2.023,0,0,1-.3-.024,2.265,2.265,0,0,1-.216-.072V.072a1.775,1.775,0,0,0,.348.1c.144.012.3.024.492.024a1.761,1.761,0,0,0,.984-.252,1.894,1.894,0,0,0,.612-.768,5.043,5.043,0,0,0,.324-1.26c.06-.5.108-1.092.132-1.764l.024-1.188Zm5.352-1.416a11.885,11.885,0,0,0-1.344-2.316h-1.26l.348.648a9.753,9.753,0,0,1,1.032,2.844,11.506,11.506,0,0,1,.192,2.112,9.965,9.965,0,0,1-.528,3.3,15.162,15.162,0,0,1-1.08,2.292h1.236l.42-.576a8.3,8.3,0,0,0,.864-1.536,8.739,8.739,0,0,0,.816-3.576A7.779,7.779,0,0,0,177.768-6.456Z" transform="translate(3405.427 1969.267)" fill="#242647"/><rect width="14" height="14" rx="2.8" transform="translate(3389.742 1958.635)" fill="#f2a947"/><g transform="translate(3377.235 1746.719)"><path d="M-2270.617,946.987v250" transform="translate(2270.617 -946.987)" fill="none" stroke="#242549" stroke-width="2"/></g><g transform="translate(3384.347 1757.972)"><path d="M-4.565-2.83V0h1.45V-7.18h-3c-.2,0-.39,0-.59.01a2.88,2.88,0,0,0-.59.06,2.636,2.636,0,0,0-.55.15,1.628,1.628,0,0,0-.49.29,2.755,2.755,0,0,0-.29.3,1.833,1.833,0,0,0-.23.38,2.226,2.226,0,0,0-.16.43,2.626,2.626,0,0,0-.05.49,1.776,1.776,0,0,0,.14.74,1.649,1.649,0,0,0,.37.58,1.133,1.133,0,0,0,.35.26,1.514,1.514,0,0,0,.3.13,1.68,1.68,0,0,0-.52.25,1,1,0,0,0-.3.35,1.267,1.267,0,0,0-.16.45,4.266,4.266,0,0,0-.09.57l-.07.68-.04.37c-.01.09-.03.18-.04.25s-.05.14-.07.21l-.12.23h1.56c.01-.04.03-.08.04-.13a.655.655,0,0,0,.05-.18,1.333,1.333,0,0,0,.05-.26,3.378,3.378,0,0,0,.04-.39l.05-.68a1.653,1.653,0,0,1,.17-.69.847.847,0,0,1,.34-.36,1.219,1.219,0,0,1,.49-.12,6.018,6.018,0,0,1,.62-.02Zm-1.81-3.09h1.81v1.91H-6.5l-.28-.03a1.612,1.612,0,0,1-.29-.09.626.626,0,0,1-.25-.16.692.692,0,0,1-.17-.26.907.907,0,0,1-.07-.39,1.25,1.25,0,0,1,.05-.36.809.809,0,0,1,.15-.26.769.769,0,0,1,.18-.18,1.24,1.24,0,0,1,.2-.1.9.9,0,0,1,.19-.04l.23-.03A1.148,1.148,0,0,0-6.375-5.92Zm6,2.52V-5.32h-1.38V0h1.38V-2.28h2.03V0h1.38V-5.32H1.655V-3.4Zm7.52-1.92H4.395V0h2.98a2.286,2.286,0,0,0,.76-.12,1.59,1.59,0,0,0,.58-.34,1.5,1.5,0,0,0,.37-.52,1.831,1.831,0,0,0,.12-.68,1.288,1.288,0,0,0-.21-.74,1.134,1.134,0,0,0-.61-.45A1.2,1.2,0,0,0,8.625-3a.809.809,0,0,0,.2-.21.834.834,0,0,0,.14-.3,1.243,1.243,0,0,0,.05-.41,1.41,1.41,0,0,0-.15-.69,1.207,1.207,0,0,0-.41-.43,2.252,2.252,0,0,0-.6-.22A4.08,4.08,0,0,0,7.145-5.32Zm-.31,2.09H5.775V-4.34h1.1a1.307,1.307,0,0,1,.37.04.7.7,0,0,1,.23.11.409.409,0,0,1,.13.17.538.538,0,0,1,.04.22.657.657,0,0,1-.04.25.315.315,0,0,1-.13.17.669.669,0,0,1-.24.11A2.153,2.153,0,0,1,6.835-3.23Zm0,2.25H5.775V-2.31h1.06a2.629,2.629,0,0,1,.43.03.588.588,0,0,1,.29.11.389.389,0,0,1,.16.2.819.819,0,0,1,.05.33.892.892,0,0,1-.03.22.465.465,0,0,1-.13.21.835.835,0,0,1-.28.17A1.632,1.632,0,0,1,6.835-.98Z" transform="translate(14 189.656)" fill="#242647"/><path d="M-6.48-.78V0h1.44V-.78a4.416,4.416,0,0,0,1.31-.26,3.253,3.253,0,0,0,.99-.59,2.7,2.7,0,0,0,.63-.87,2.655,2.655,0,0,0,.22-1.09,3.089,3.089,0,0,0-.06-.58,2.487,2.487,0,0,0-.2-.62,2.641,2.641,0,0,0-.37-.59,2.584,2.584,0,0,0-.58-.5,3.72,3.72,0,0,0-.83-.37A4.514,4.514,0,0,0-5.04-6.4v-.78H-6.48v.78a4.43,4.43,0,0,0-1.1.15,3.351,3.351,0,0,0-.83.37,2.437,2.437,0,0,0-.59.5,2.641,2.641,0,0,0-.37.59,2.487,2.487,0,0,0-.2.62,3.089,3.089,0,0,0-.06.58A2.655,2.655,0,0,0-9.41-2.5a2.7,2.7,0,0,0,.63.87,3.188,3.188,0,0,0,1,.59A4.286,4.286,0,0,0-6.48-.78Zm0-4.58v3.54a2.086,2.086,0,0,1-.59-.1,1.569,1.569,0,0,1-.56-.32,1.577,1.577,0,0,1-.4-.56,1.938,1.938,0,0,1-.16-.84,1.959,1.959,0,0,1,.07-.58,1.487,1.487,0,0,1,.27-.55,1.5,1.5,0,0,1,.53-.41A2.01,2.01,0,0,1-6.48-5.36Zm1.44,3.53V-5.36a2.01,2.01,0,0,1,.84.18,1.554,1.554,0,0,1,.52.41,1.552,1.552,0,0,1,.28.54,2.357,2.357,0,0,1,.07.58,2.137,2.137,0,0,1-.15.84,1.731,1.731,0,0,1-.41.56,1.618,1.618,0,0,1-.55.32A2.214,2.214,0,0,1-5.04-1.83Zm5.1-.4H3.71a6.738,6.738,0,0,0-.13-1.33,2.661,2.661,0,0,0-.42-1.03,2.089,2.089,0,0,0-.78-.66,2.8,2.8,0,0,0-1.19-.23,2.467,2.467,0,0,0-1.14.23,2.1,2.1,0,0,0-.79.61,2.352,2.352,0,0,0-.44.88,3.583,3.583,0,0,0-.15,1.04,4,4,0,0,0,.2,1.33A2.4,2.4,0,0,0-.58-.5,1.977,1.977,0,0,0,.24,0a2.9,2.9,0,0,0,.99.16A2.989,2.989,0,0,0,1.99.07a2.672,2.672,0,0,0,.6-.23,1.87,1.87,0,0,0,.47-.33,2.3,2.3,0,0,0,.33-.38,2.246,2.246,0,0,0,.19-.38,1.051,1.051,0,0,0,.06-.33H2.21a.794.794,0,0,1-.13.26.952.952,0,0,1-.21.19.724.724,0,0,1-.27.12.929.929,0,0,1-.29.05,1.337,1.337,0,0,1-.48-.08.862.862,0,0,1-.34-.19.711.711,0,0,1-.23-.26,1.754,1.754,0,0,1-.13-.28.912.912,0,0,1-.05-.27A1.763,1.763,0,0,1,.06-2.23Zm2.21-.92H.11a1.324,1.324,0,0,1,.11-.59.917.917,0,0,1,.26-.37.94.94,0,0,1,.35-.2,1.558,1.558,0,0,1,.36-.05,1.487,1.487,0,0,1,.36.05,1.068,1.068,0,0,1,.36.2,1.162,1.162,0,0,1,.26.37A1.487,1.487,0,0,1,2.27-3.15ZM7.42-5.32H4.67V0H7.65a2.286,2.286,0,0,0,.76-.12,1.59,1.59,0,0,0,.58-.34,1.5,1.5,0,0,0,.37-.52,1.831,1.831,0,0,0,.12-.68,1.288,1.288,0,0,0-.21-.74,1.134,1.134,0,0,0-.61-.45A1.2,1.2,0,0,0,8.9-3a.809.809,0,0,0,.2-.21.834.834,0,0,0,.14-.3,1.243,1.243,0,0,0,.05-.41,1.41,1.41,0,0,0-.15-.69,1.207,1.207,0,0,0-.41-.43,2.252,2.252,0,0,0-.6-.22A4.08,4.08,0,0,0,7.42-5.32ZM7.11-3.23H6.05V-4.34h1.1a1.307,1.307,0,0,1,.37.04.7.7,0,0,1,.23.11.409.409,0,0,1,.13.17.538.538,0,0,1,.04.22.657.657,0,0,1-.04.25.315.315,0,0,1-.13.17.669.669,0,0,1-.24.11A2.153,2.153,0,0,1,7.11-3.23Zm0,2.25H6.05V-2.31H7.11a2.629,2.629,0,0,1,.43.03.588.588,0,0,1,.29.11.389.389,0,0,1,.16.2.819.819,0,0,1,.05.33.892.892,0,0,1-.03.22.465.465,0,0,1-.13.21.835.835,0,0,1-.28.17A1.632,1.632,0,0,1,7.11-.98Z" transform="translate(56.097 189.656)" fill="#242647"/><path d="M-8.35-1.59-9.61-7.18H-11.8V0h1.38V-6h.02l1.31,6h1.46l1.36-6h.02V0h1.38V-7.18h-2.2L-8.33-1.59Zm9.14.54V-3.87a2.239,2.239,0,0,0-.08-.57,1.275,1.275,0,0,0-.33-.52,2.041,2.041,0,0,0-.69-.38,4.126,4.126,0,0,0-1.16-.14,3.424,3.424,0,0,0-.86.12,2.158,2.158,0,0,0-.61.28,1.541,1.541,0,0,0-.41.39,1.976,1.976,0,0,0-.24.41,1.813,1.813,0,0,0-.12.38,1.8,1.8,0,0,0-.03.27h1.38l.06-.29a.651.651,0,0,1,.15-.23.689.689,0,0,1,.27-.16,1.663,1.663,0,0,1,.44-.05,1.624,1.624,0,0,1,.41.04.636.636,0,0,1,.26.13A.45.45,0,0,1-.63-4a.86.86,0,0,1,.04.24.477.477,0,0,1-.05.22.345.345,0,0,1-.12.12.329.329,0,0,1-.16.07,1.1,1.1,0,0,1-.16.03l-1.35.2a1.679,1.679,0,0,0-.61.19,1.6,1.6,0,0,0-.46.35,1.59,1.59,0,0,0-.29.49,1.736,1.736,0,0,0-.1.61,1.919,1.919,0,0,0,.12.71,1.469,1.469,0,0,0,.34.52,1.6,1.6,0,0,0,.52.31,1.987,1.987,0,0,0,.66.1A2.644,2.644,0,0,0-1.65.1a1.754,1.754,0,0,0,.44-.17A2.164,2.164,0,0,0-.86-.31l.31-.31A1,1,0,0,0-.5-.25L-.42,0H1.11V-.22A.273.273,0,0,1,.99-.28a.316.316,0,0,1-.1-.14A.624.624,0,0,1,.82-.66,2.057,2.057,0,0,1,.79-1.05ZM-.59-2.6v.54a1.535,1.535,0,0,1-.07.46.849.849,0,0,1-.18.34.829.829,0,0,1-.24.22,1.739,1.739,0,0,1-.27.14,1.579,1.579,0,0,1-.26.06,1.909,1.909,0,0,1-.2.02.863.863,0,0,1-.28-.04A.549.549,0,0,1-2.3-.98a.56.56,0,0,1-.16-.21.836.836,0,0,1-.05-.29.829.829,0,0,1,.06-.34.69.69,0,0,1,.18-.24,1.051,1.051,0,0,1,.3-.15,3.262,3.262,0,0,1,.42-.1l.37-.07a1.254,1.254,0,0,0,.34-.1A1.424,1.424,0,0,0-.59-2.6ZM3.33-4.56v-.76H2.01V2.06H3.39V-.66h.02a1.58,1.58,0,0,0,.31.4,1.34,1.34,0,0,0,.37.25,1.441,1.441,0,0,0,.4.13,1.81,1.81,0,0,0,.4.04A2.277,2.277,0,0,0,5.9-.05a2.132,2.132,0,0,0,.7-.6,2.645,2.645,0,0,0,.42-.93,4.341,4.341,0,0,0,.14-1.18,3.651,3.651,0,0,0-.1-.92,2.616,2.616,0,0,0-.26-.7,2.082,2.082,0,0,0-.39-.52,2.052,2.052,0,0,0-.46-.33,2.115,2.115,0,0,0-.51-.19,2.2,2.2,0,0,0-.5-.06,2.009,2.009,0,0,0-.52.06,1.472,1.472,0,0,0-.43.16,1.491,1.491,0,0,0-.34.28,2.252,2.252,0,0,0-.3.42Zm1.2.32a1.107,1.107,0,0,1,.56.14,1.3,1.3,0,0,1,.37.37,1.937,1.937,0,0,1,.2.51,2.666,2.666,0,0,1,.06.56c0,.1,0,.21-.01.33s-.04.24-.07.36a3.616,3.616,0,0,1-.13.35,1.436,1.436,0,0,1-.22.31,1.477,1.477,0,0,1-.32.21,1.152,1.152,0,0,1-.44.08,1.152,1.152,0,0,1-.44-.08,1.477,1.477,0,0,1-.32-.21.945.945,0,0,1-.21-.31,2.13,2.13,0,0,1-.14-.35,2.254,2.254,0,0,1-.06-.36,1.942,1.942,0,0,1-.02-.33,2.666,2.666,0,0,1,.06-.56,1.66,1.66,0,0,1,.21-.51,1.155,1.155,0,0,1,.36-.37A1.081,1.081,0,0,1,4.53-4.24ZM7.7-5.32V-4.2H9.31V0h1.38V-4.2H12.3V-5.32Z" transform="translate(99.205 189.656)" fill="#242647"/><path d="M-2.7,0-5.24-7.18H-6.95L-9.52,0h1.58l.5-1.48h2.65L-4.33,0ZM-6.1-5.56l.89,2.84H-7.04l.92-2.84ZM2.95,0V-5.32H-1.84V0H-.46V-4.2H1.57V0Zm2.6-4.56v-.76H4.23V2.06H5.61V-.66h.02a1.58,1.58,0,0,0,.31.4,1.34,1.34,0,0,0,.37.25,1.441,1.441,0,0,0,.4.13,1.81,1.81,0,0,0,.4.04A2.277,2.277,0,0,0,8.12-.05a2.132,2.132,0,0,0,.7-.6,2.645,2.645,0,0,0,.42-.93,4.341,4.341,0,0,0,.14-1.18,3.651,3.651,0,0,0-.1-.92,2.616,2.616,0,0,0-.26-.7,2.082,2.082,0,0,0-.39-.52,2.052,2.052,0,0,0-.46-.33,2.115,2.115,0,0,0-.51-.19,2.2,2.2,0,0,0-.5-.06,2.009,2.009,0,0,0-.52.06,1.472,1.472,0,0,0-.43.16,1.491,1.491,0,0,0-.34.28,2.252,2.252,0,0,0-.3.42Zm1.2.32a1.107,1.107,0,0,1,.56.14,1.3,1.3,0,0,1,.37.37,1.937,1.937,0,0,1,.2.51,2.666,2.666,0,0,1,.06.56c0,.1,0,.21-.01.33s-.04.24-.07.36a3.616,3.616,0,0,1-.13.35,1.436,1.436,0,0,1-.22.31,1.477,1.477,0,0,1-.32.21,1.152,1.152,0,0,1-.44.08,1.152,1.152,0,0,1-.44-.08,1.477,1.477,0,0,1-.32-.21.945.945,0,0,1-.21-.31,2.13,2.13,0,0,1-.14-.35,2.254,2.254,0,0,1-.06-.36,1.942,1.942,0,0,1-.02-.33,2.666,2.666,0,0,1,.06-.56,1.66,1.66,0,0,1,.21-.51,1.155,1.155,0,0,1,.36-.37A1.081,1.081,0,0,1,6.75-4.24Z" transform="translate(140.313 189.656)" fill="#242647"/><path d="M-5.85-1.59-7.11-7.18H-9.3V0h1.38V-6h.02l1.31,6h1.46l1.36-6h.02V0h1.38V-7.18h-2.2L-5.83-1.59Zm9.14.54V-3.87a2.239,2.239,0,0,0-.08-.57,1.275,1.275,0,0,0-.33-.52,2.041,2.041,0,0,0-.69-.38,4.126,4.126,0,0,0-1.16-.14,3.424,3.424,0,0,0-.86.12,2.158,2.158,0,0,0-.61.28,1.541,1.541,0,0,0-.41.39,1.976,1.976,0,0,0-.24.41,1.813,1.813,0,0,0-.12.38,1.8,1.8,0,0,0-.03.27H.14L.2-3.92a.651.651,0,0,1,.15-.23.689.689,0,0,1,.27-.16,1.663,1.663,0,0,1,.44-.05,1.624,1.624,0,0,1,.41.04.636.636,0,0,1,.26.13A.45.45,0,0,1,1.87-4a.86.86,0,0,1,.04.24.477.477,0,0,1-.05.22.345.345,0,0,1-.12.12.329.329,0,0,1-.16.07,1.1,1.1,0,0,1-.16.03l-1.35.2a1.679,1.679,0,0,0-.61.19A1.6,1.6,0,0,0-1-2.58a1.59,1.59,0,0,0-.29.49,1.736,1.736,0,0,0-.1.61,1.919,1.919,0,0,0,.12.71,1.469,1.469,0,0,0,.34.52A1.6,1.6,0,0,0-.41.06a1.987,1.987,0,0,0,.66.1A2.644,2.644,0,0,0,.85.1a1.754,1.754,0,0,0,.44-.17,2.164,2.164,0,0,0,.35-.24l.31-.31A1,1,0,0,0,2-.25L2.08,0H3.61V-.22a.273.273,0,0,1-.12-.06.316.316,0,0,1-.1-.14.624.624,0,0,1-.07-.24A2.057,2.057,0,0,1,3.29-1.05ZM1.91-2.6v.54a1.535,1.535,0,0,1-.07.46.849.849,0,0,1-.18.34.829.829,0,0,1-.24.22,1.739,1.739,0,0,1-.27.14,1.579,1.579,0,0,1-.26.06,1.909,1.909,0,0,1-.2.02A.863.863,0,0,1,.41-.86.549.549,0,0,1,.2-.98a.56.56,0,0,1-.16-.21.836.836,0,0,1-.05-.29.829.829,0,0,1,.06-.34.69.69,0,0,1,.18-.24,1.051,1.051,0,0,1,.3-.15,3.262,3.262,0,0,1,.42-.1l.37-.07a1.254,1.254,0,0,0,.34-.1A1.424,1.424,0,0,0,1.91-2.6ZM8.62-7.55h-1a.882.882,0,0,1-.02.29.433.433,0,0,1-.11.2.5.5,0,0,1-.21.13,1.133,1.133,0,0,1-.34.04,1,1,0,0,1-.33-.05.552.552,0,0,1-.21-.14.512.512,0,0,1-.1-.21,2.024,2.024,0,0,1-.04-.26h-1a1.615,1.615,0,0,0,.13.66,1.012,1.012,0,0,0,.35.44,1.46,1.46,0,0,0,.53.26,2.8,2.8,0,0,0,.67.08,2.8,2.8,0,0,0,.67-.08,1.46,1.46,0,0,0,.53-.26,1.089,1.089,0,0,0,.35-.44A1.615,1.615,0,0,0,8.62-7.55ZM5.93-2.04V-5.32H4.55V0H6.06L7.94-3.21h.02V0H9.34V-5.32H7.89L5.95-2.04Z" transform="translate(182.42 189.656)" fill="#242647"/><path d="M-11.58-2.29V-7.18h-1.44V0h1.52l2.84-4.86h.02V0H-7.2V-7.18H-8.72l-2.84,4.89Zm7.12-.94V-5.32H-5.84V0h1.38V-2.19h.92a3.105,3.105,0,0,0,.29,1.11,2.122,2.122,0,0,0,.55.72,2.1,2.1,0,0,0,.77.4,3.336,3.336,0,0,0,.91.12A2.77,2.77,0,0,0-.17.04,2.027,2.027,0,0,0,.49-.28,1.95,1.95,0,0,0,.97-.75a3.083,3.083,0,0,0,.33-.59A3.565,3.565,0,0,0,1.48-2a3.793,3.793,0,0,0,.06-.67,3.9,3.9,0,0,0-.15-1.1,2.431,2.431,0,0,0-.46-.89,2.088,2.088,0,0,0-.8-.6,2.745,2.745,0,0,0-1.15-.22,3.224,3.224,0,0,0-.91.13,2.211,2.211,0,0,0-.76.4,2.157,2.157,0,0,0-.54.71,3.157,3.157,0,0,0-.31,1.01ZM.1-2.66a3.34,3.34,0,0,1-.06.65,1.6,1.6,0,0,1-.19.52,1.03,1.03,0,0,1-.35.34.98.98,0,0,1-.52.13.957.957,0,0,1-.52-.13.975.975,0,0,1-.36-.34,1.878,1.878,0,0,1-.2-.52,3.34,3.34,0,0,1-.06-.65,3.34,3.34,0,0,1,.06-.65,1.878,1.878,0,0,1,.2-.52,1.063,1.063,0,0,1,.36-.34.957.957,0,0,1,.52-.13.98.98,0,0,1,.52.13,1.132,1.132,0,0,1,.35.34,1.6,1.6,0,0,1,.19.52A3.34,3.34,0,0,1,.1-2.66ZM3.87-3.4V-5.32H2.49V0H3.87V-2.28H5.9V0H7.28V-5.32H5.9V-3.4Zm6.1-.07V-5.32H8.59V0h2.94c.06,0,.16,0,.28-.01a2.176,2.176,0,0,0,.4-.08,2.142,2.142,0,0,0,.44-.16,1.347,1.347,0,0,0,.41-.31,1.408,1.408,0,0,0,.3-.48,2,2,0,0,0,.11-.69,2.05,2.05,0,0,0-.14-.78,1.3,1.3,0,0,0-.41-.54,1.882,1.882,0,0,0-.65-.32,3.461,3.461,0,0,0-.89-.1Zm1.17,2.43H9.97V-2.43h1.05a2.376,2.376,0,0,1,.39.03,1.007,1.007,0,0,1,.32.11.5.5,0,0,1,.22.21.648.648,0,0,1,.08.35.627.627,0,0,1-.08.35.578.578,0,0,1-.2.21.771.771,0,0,1-.29.1A1.733,1.733,0,0,1,11.14-1.04Z" transform="translate(224.48 189.656)" fill="#242647"/><line y2="171.809" transform="translate(256.436 3.947)" stroke-width="2" stroke="#e3ddd5" stroke-linecap="round" stroke-linejoin="round" fill="none"/><line y2="171.809" transform="translate(214.238 3.947)" stroke-width="2" stroke="#e3ddd5" stroke-linecap="round" stroke-linejoin="round" fill="none"/><line y2="171.809" transform="translate(172.208 3.947)" stroke-width="2" stroke="#e3ddd5" stroke-linecap="round" stroke-linejoin="round" fill="none"/><line y2="171.809" transform="translate(130.093 3.947)" stroke-width="2" stroke="#e3ddd5" stroke-linecap="round" stroke-linejoin="round" fill="none"/><line y2="171.809" transform="translate(87.979 3.947)" stroke-width="2" stroke="#e3ddd5" stroke-linecap="round" stroke-linejoin="round" fill="none"/><line y2="171.809" transform="translate(45.957 3.947)" stroke-width="2" stroke="#e3ddd5" stroke-linecap="round" stroke-linejoin="round" fill="none"/><line y2="171.809" transform="translate(3.758 3.947)" stroke-width="2" stroke="#e3ddd5" stroke-linecap="round" stroke-linejoin="round" fill="none"/><line x2="255.692" transform="translate(0.744 133.558)" stroke-width="2" stroke="#e3ddd5" stroke-linecap="round" stroke-linejoin="round" fill="none"/><line x2="255.692" transform="translate(0.744 91.359)" stroke-width="2" stroke="#e3ddd5" stroke-linecap="round" stroke-linejoin="round" fill="none"/><line x2="255.692" transform="translate(0.744 49.16)" stroke-width="2" stroke="#e3ddd5" stroke-linecap="round" stroke-linejoin="round" fill="none"/><line x2="255.692" transform="translate(0.744 6.962)" stroke-width="2" stroke="#e3ddd5" stroke-linecap="round" stroke-linejoin="round" fill="none"/><path d="M-2253.814,968.263h20.623a3.014,3.014,0,0,1,3.014,3.015v161.664h-26.651V971.278A3.014,3.014,0,0,1-2253.814,968.263Z" transform="translate(2263.505 -958.24)" fill="#f2a947"/><g transform="translate(6.972)"><path d="M-124.576-49.6c0,18.978-20.481,22.172-20.481,41.525V0h29.876V-9.395h-19.541a7.111,7.111,0,0,1-.094-1.409c0-10.8,20.575-18.508,20.575-39.177,0-10.522-5.261-16.535-15.408-16.535s-15.408,6.013-15.408,16.535v6.389h9.771v-7.046c0-4.7,2.067-6.482,5.355-6.482S-124.576-55.524-124.576-49.6Zm26.212-1.033c0-4.7,2.067-6.482,5.355-6.482s5.355,1.785,5.355,6.482v35.513c0,4.7-2.067,6.482-5.355,6.482s-5.355-1.785-5.355-6.482ZM-108.7-15.783C-108.7-5.261-103.156.752-93.009.752S-77.32-5.261-77.32-15.783v-34.2c0-10.522-5.543-16.535-15.689-16.535S-108.7-60.5-108.7-49.981ZM-50.169-49.6c0,18.978-20.481,22.172-20.481,41.525V0h29.876V-9.395H-60.315a7.111,7.111,0,0,1-.094-1.409c0-10.8,20.575-18.508,20.575-39.177,0-10.522-5.261-16.535-15.408-16.535S-70.649-60.5-70.649-49.981v6.389h9.771v-7.046c0-4.7,2.067-6.482,5.355-6.482S-50.169-55.524-50.169-49.6Zm26.212-1.033c0-4.7,2.067-6.482,5.355-6.482s5.355,1.785,5.355,6.482v35.513c0,4.7-2.067,6.482-5.355,6.482s-5.355-1.785-5.355-6.482ZM-34.291-15.783C-34.291-5.261-28.748.752-18.6.752S-2.912-5.261-2.912-15.783v-34.2c0-10.522-5.543-16.535-15.689-16.535S-34.291-60.5-34.291-49.981Z" transform="translate(172.189 81.497)" fill="#e1dcd5" opacity="0.5"/><g transform="translate(0 11.06)"><path d="M-2253.527,969.3h20.571a3.011,3.011,0,0,1,3.006,3.015V1134h-26.583V972.315A3.011,3.011,0,0,1-2253.527,969.3Z" transform="translate(2256.533 -969.3)" fill="#f2a947"/><path d="M-2211.437,1083.966h20.571a3.011,3.011,0,0,1,3.006,3.015V1134h-26.583v-47.016A3.011,3.011,0,0,1-2211.437,1083.966Z" transform="translate(2256.43 -969.3)" fill="#f2a947"/><path d="M-2169.347,1061.67h20.571a3.01,3.01,0,0,1,3.006,3.014V1134h-26.583v-69.313A3.01,3.01,0,0,1-2169.347,1061.67Z" transform="translate(2256.327 -969.3)" fill="#f2a947"/><path d="M-2127.257,1100.954h20.57a3.01,3.01,0,0,1,3.007,3.014V1134h-26.583v-30.029A3.01,3.01,0,0,1-2127.257,1100.954Z" transform="translate(2256.224 -969.3)" fill="#f2a947"/><path d="M-2085.167,1059.546h20.57a3.011,3.011,0,0,1,3.007,3.015V1134h-26.583v-71.436A3.011,3.011,0,0,1-2085.167,1059.546Z" transform="translate(2256.122 -969.3)" fill="#f2a947"/><path d="M-2043.077,1082.9h20.57a3.011,3.011,0,0,1,3.007,3.015V1134h-26.583v-48.078A3.011,3.011,0,0,1-2043.077,1082.9Z" transform="translate(2256.019 -969.3)" fill="#f2a947"/><path d="M-2244.033,971.424h20.571a3.01,3.01,0,0,1,3.006,3.014V1134h-26.583V974.438A3.01,3.01,0,0,1-2244.033,971.424Z" transform="translate(2256.533 -969.3)" fill="#4862ad"/><path d="M-2201.943,1046.806h20.571a3.01,3.01,0,0,1,3.006,3.014V1134h-26.583V1049.82A3.01,3.01,0,0,1-2201.943,1046.806Z" transform="translate(2256.407 -969.3)" fill="#4862ad"/><path d="M-2159.853,1120.195h20.57a3.01,3.01,0,0,1,3.007,3.014V1134h-26.583v-10.788A3.01,3.01,0,0,1-2159.853,1120.195Z" transform="translate(2256.304 -969.3)" fill="#4862ad"/></g><path d="M-10.565-3.29h-2v1.28h2V0h1.28V-2.01h2V-3.29h-2v-2h-1.28Zm4.12,1.9A3.345,3.345,0,0,0-6.775,0h4.85V-1.23h-3.09a1.7,1.7,0,0,1,.33-.38c.12-.11.36-.29.71-.54l.56-.39A4.984,4.984,0,0,0-2.4-3.45a2.223,2.223,0,0,0,.47-1.39A2.119,2.119,0,0,0-2.6-6.49a2.476,2.476,0,0,0-1.78-.62,2.032,2.032,0,0,0-1.98,1.06,3.423,3.423,0,0,0-.33,1.46h1.35a2.351,2.351,0,0,1,.16-.87.861.861,0,0,1,.86-.48.893.893,0,0,1,.72.3,1.168,1.168,0,0,1,.25.75,1.448,1.448,0,0,1-.44,1.01,10.2,10.2,0,0,1-1.24.99A3.917,3.917,0,0,0-6.445-1.39Zm5.46-1.65a2.171,2.171,0,0,0-.28,1.08A2.139,2.139,0,0,0-.655-.44a2.4,2.4,0,0,0,1.8.63A2.577,2.577,0,0,0,3-.44a2.03,2.03,0,0,0,.66-1.52A2.269,2.269,0,0,0,3.4-3.04a2.043,2.043,0,0,0-.79-.78,1.386,1.386,0,0,0,.67-.69,2.12,2.12,0,0,0,.15-.74,1.723,1.723,0,0,0-.58-1.32,2.317,2.317,0,0,0-1.64-.54,2.3,2.3,0,0,0-1.64.54,1.723,1.723,0,0,0-.58,1.32,2.12,2.12,0,0,0,.15.74,1.706,1.706,0,0,0,.67.74A1.7,1.7,0,0,0-.985-3.04ZM.555-4.47a.815.815,0,0,1-.24-.63.854.854,0,0,1,.24-.66.887.887,0,0,1,.65-.23.929.929,0,0,1,.66.23.929.929,0,0,1,.23.66.887.887,0,0,1-.23.63.9.9,0,0,1-.66.25A.858.858,0,0,1,.555-4.47Zm-.1,3.22a1.132,1.132,0,0,1-.27-.81,1.1,1.1,0,0,1,.28-.82.972.972,0,0,1,.74-.28,1.011,1.011,0,0,1,.75.28,1.142,1.142,0,0,1,.27.82,1.132,1.132,0,0,1-.27.81.951.951,0,0,1-.75.29A.951.951,0,0,1,.455-1.25ZM6.845.19,10.8-7.08h-.74L6.1.19Zm.52-4.14a1.714,1.714,0,0,0,.53-1.28,1.714,1.714,0,0,0-.53-1.28,1.739,1.739,0,0,0-1.28-.54,1.745,1.745,0,0,0-1.29.54,1.752,1.752,0,0,0-.53,1.28A1.752,1.752,0,0,0,4.8-3.95a1.745,1.745,0,0,0,1.29.54A1.723,1.723,0,0,0,7.365-3.95Zm-.73-.73a.764.764,0,0,1-.55.23.747.747,0,0,1-.55-.23.747.747,0,0,1-.23-.55.764.764,0,0,1,.23-.55.747.747,0,0,1,.55-.23.764.764,0,0,1,.55.23.754.754,0,0,1,.22.55A.739.739,0,0,1,6.635-4.68Zm5.48,4.29a1.768,1.768,0,0,0,.53-1.28,1.774,1.774,0,0,0-.53-1.29,1.751,1.751,0,0,0-1.29-.53,1.714,1.714,0,0,0-1.28.53,1.72,1.72,0,0,0-.53,1.29,1.729,1.729,0,0,0,.53,1.28,1.714,1.714,0,0,0,1.28.53A1.751,1.751,0,0,0,12.115-.39Zm-.74-1.84a.732.732,0,0,1,.23.56.7.7,0,0,1-.23.54.747.747,0,0,1-.55.23.741.741,0,0,1-.54-.23.7.7,0,0,1-.23-.54.732.732,0,0,1,.23-.56.732.732,0,0,1,.54-.22A.739.739,0,0,1,11.375-2.23Z" transform="translate(60.013 85.348)" fill="#242647"/><path d="M-8.64-2.13V-3.45h-2.8v1.32ZM-3.91,0V-1.52h.8V-2.61h-.8V-7.04H-5.47l-2.61,4.3v1.22h2.81V0ZM-7.05-2.61l1.78-3.06v3.06Zm4.91,1.22A3.345,3.345,0,0,0-2.47,0H2.38V-1.23H-.71a1.7,1.7,0,0,1,.33-.38c.12-.11.36-.29.71-.54l.56-.39A4.984,4.984,0,0,0,1.9-3.45a2.223,2.223,0,0,0,.47-1.39A2.119,2.119,0,0,0,1.7-6.49,2.476,2.476,0,0,0-.08-7.11,2.032,2.032,0,0,0-2.06-6.05a3.423,3.423,0,0,0-.33,1.46h1.35a2.351,2.351,0,0,1,.16-.87.861.861,0,0,1,.86-.48.893.893,0,0,1,.72.3,1.168,1.168,0,0,1,.25.75A1.448,1.448,0,0,1,.51-3.88a10.2,10.2,0,0,1-1.24.99A3.917,3.917,0,0,0-2.14-1.39ZM5.59.19,9.54-7.08H8.8L4.84.19Zm.52-4.14a1.714,1.714,0,0,0,.53-1.28,1.714,1.714,0,0,0-.53-1.28,1.739,1.739,0,0,0-1.28-.54,1.745,1.745,0,0,0-1.29.54,1.752,1.752,0,0,0-.53,1.28,1.752,1.752,0,0,0,.53,1.28,1.745,1.745,0,0,0,1.29.54A1.723,1.723,0,0,0,6.11-3.95Zm-.73-.73a.764.764,0,0,1-.55.23.747.747,0,0,1-.55-.23.747.747,0,0,1-.23-.55.764.764,0,0,1,.23-.55.747.747,0,0,1,.55-.23.764.764,0,0,1,.55.23.754.754,0,0,1,.22.55A.739.739,0,0,1,5.38-4.68ZM10.86-.39a1.768,1.768,0,0,0,.53-1.28,1.774,1.774,0,0,0-.53-1.29,1.751,1.751,0,0,0-1.29-.53,1.714,1.714,0,0,0-1.28.53,1.72,1.72,0,0,0-.53,1.29A1.729,1.729,0,0,0,8.29-.39,1.714,1.714,0,0,0,9.57.14,1.751,1.751,0,0,0,10.86-.39Zm-.74-1.84a.732.732,0,0,1,.23.56.7.7,0,0,1-.23.54.747.747,0,0,1-.55.23.741.741,0,0,1-.54-.23.7.7,0,0,1-.23-.54.732.732,0,0,1,.23-.56.732.732,0,0,1,.54-.22A.739.739,0,0,1,10.12-2.23Z" transform="translate(102 100.369)" fill="#242647"/><path d="M-8.94-1.39A3.345,3.345,0,0,0-9.27,0h4.85V-1.23H-7.51a1.7,1.7,0,0,1,.33-.38c.12-.11.36-.29.71-.54l.56-.39A4.984,4.984,0,0,0-4.9-3.45a2.223,2.223,0,0,0,.47-1.39A2.119,2.119,0,0,0-5.1-6.49a2.476,2.476,0,0,0-1.78-.62A2.032,2.032,0,0,0-8.86-6.05a3.423,3.423,0,0,0-.33,1.46h1.35a2.351,2.351,0,0,1,.16-.87.861.861,0,0,1,.86-.48.893.893,0,0,1,.72.3,1.168,1.168,0,0,1,.25.75,1.448,1.448,0,0,1-.44,1.01,10.2,10.2,0,0,1-1.24.99A3.917,3.917,0,0,0-8.94-1.39ZM.53-6.18a2,2,0,0,0-1.9-.95,2,2,0,0,0-1.89.95,5.457,5.457,0,0,0-.55,2.71,5.389,5.389,0,0,0,.55,2.7A2,2,0,0,0-1.37.18,2,2,0,0,0,.53-.77a5.5,5.5,0,0,0,.55-2.7A5.569,5.569,0,0,0,.53-6.18ZM-2.19-1.61a6.754,6.754,0,0,1-.2-1.86,6.732,6.732,0,0,1,.2-1.9.8.8,0,0,1,.82-.61.788.788,0,0,1,.82.61,6.811,6.811,0,0,1,.19,1.9A6.823,6.823,0,0,1-.55-1.61a.793.793,0,0,1-.82.65A.807.807,0,0,1-2.19-1.61ZM3.44,0V-1.46H1.96V0ZM7.69-5.3H9.07a1.907,1.907,0,0,0-.66-1.35,2.347,2.347,0,0,0-1.57-.5,2.13,2.13,0,0,0-1.17.31,2.444,2.444,0,0,0-.8.83,4.077,4.077,0,0,0-.47,1.5,11.39,11.39,0,0,0-.07,1.32,4.557,4.557,0,0,0,.5,2.26A2.109,2.109,0,0,0,6.8.19,2.182,2.182,0,0,0,8.63-.57a2.732,2.732,0,0,0,.6-1.75,2.326,2.326,0,0,0-.61-1.64,2.028,2.028,0,0,0-1.54-.63,1.875,1.875,0,0,0-.78.14A1.539,1.539,0,0,0,5.69-4a4.8,4.8,0,0,1,.22-1.24,1,1,0,0,1,.97-.77.791.791,0,0,1,.68.34A.752.752,0,0,1,7.69-5.3ZM6.04-1.31a1.358,1.358,0,0,1-.31-.93,1.236,1.236,0,0,1,.41-1.03,1,1,0,0,1,.63-.21.966.966,0,0,1,.74.33,1.354,1.354,0,0,1,.3.95,1.415,1.415,0,0,1-.26.9.852.852,0,0,1-.73.35A.967.967,0,0,1,6.04-1.31Z" transform="translate(64.746 98.701)" fill="#fff9ea"/><path d="M-8.94-1.39A3.345,3.345,0,0,0-9.27,0h4.85V-1.23H-7.51a1.7,1.7,0,0,1,.33-.38c.12-.11.36-.29.71-.54l.56-.39A4.984,4.984,0,0,0-4.9-3.45a2.223,2.223,0,0,0,.47-1.39A2.119,2.119,0,0,0-5.1-6.49a2.476,2.476,0,0,0-1.78-.62A2.032,2.032,0,0,0-8.86-6.05a3.423,3.423,0,0,0-.33,1.46h1.35a2.351,2.351,0,0,1,.16-.87.861.861,0,0,1,.86-.48.893.893,0,0,1,.72.3,1.168,1.168,0,0,1,.25.75,1.448,1.448,0,0,1-.44,1.01,10.2,10.2,0,0,1-1.24.99A3.917,3.917,0,0,0-8.94-1.39Zm5.78-5.05a2.62,2.62,0,0,0-.66,1.85,2.155,2.155,0,0,0,.65,1.68,2.2,2.2,0,0,0,1.5.59,1.8,1.8,0,0,0,.96-.24A1.494,1.494,0,0,0-.3-2.92,4.645,4.645,0,0,1-.49-1.7a1,1,0,0,1-.97.76.8.8,0,0,1-.57-.19.838.838,0,0,1-.26-.51H-3.68A1.82,1.82,0,0,0-2.95-.27,2.3,2.3,0,0,0-1.52.21,2.286,2.286,0,0,0,.77-1.43,6.015,6.015,0,0,0,1.1-3.57,5.539,5.539,0,0,0,.76-5.71,2.21,2.21,0,0,0-1.46-7.14,2.23,2.23,0,0,0-3.16-6.44ZM-.82-3.62a1.028,1.028,0,0,1-.55.16.941.941,0,0,1-.78-.31,1.5,1.5,0,0,1-.26-.95,1.27,1.27,0,0,1,.4-1.06.972.972,0,0,1,.61-.2.922.922,0,0,1,.77.36,1.454,1.454,0,0,1,.28.95A1.155,1.155,0,0,1-.82-3.62ZM3.44,0V-1.46H1.96V0ZM8.45,0V-1.52h.8V-2.61h-.8V-7.04H6.89L4.28-2.74v1.22H7.09V0ZM5.31-2.61,7.09-5.67v3.06Z" transform="translate(23.061 23.623)" fill="#fff9ea"/><text transform="translate(106.736 171.025)" fill="#fff9ea" font-size="10" font-family="Helvetica-Bold, Helvetica" font-weight="700" letter-spacing="-0.01em"><tspan x="-9.58" y="0">10.8</tspan></text><path d="M-7.785-3.29h-2v1.28h2V0H-6.5V-2.01h2V-3.29h-2v-2h-1.28ZM.345-6.18a2,2,0,0,0-1.9-.95,2,2,0,0,0-1.89.95,5.457,5.457,0,0,0-.55,2.71,5.389,5.389,0,0,0,.55,2.7,2,2,0,0,0,1.89.95,2,2,0,0,0,1.9-.95A5.5,5.5,0,0,0,.9-3.47,5.569,5.569,0,0,0,.345-6.18Zm-2.72,4.57a6.754,6.754,0,0,1-.2-1.86,6.732,6.732,0,0,1,.2-1.9.8.8,0,0,1,.82-.61.788.788,0,0,1,.82.61,6.811,6.811,0,0,1,.19,1.9,6.823,6.823,0,0,1-.19,1.86.793.793,0,0,1-.82.65A.807.807,0,0,1-2.375-1.61ZM4.065.19l3.95-7.27h-.74L3.315.19Zm.52-4.14a1.714,1.714,0,0,0,.53-1.28,1.714,1.714,0,0,0-.53-1.28,1.739,1.739,0,0,0-1.28-.54,1.745,1.745,0,0,0-1.29.54,1.752,1.752,0,0,0-.53,1.28,1.752,1.752,0,0,0,.53,1.28,1.745,1.745,0,0,0,1.29.54A1.723,1.723,0,0,0,4.585-3.95Zm-.73-.73a.764.764,0,0,1-.55.23.747.747,0,0,1-.55-.23.747.747,0,0,1-.23-.55.764.764,0,0,1,.23-.55.747.747,0,0,1,.55-.23.764.764,0,0,1,.55.23.754.754,0,0,1,.22.55A.739.739,0,0,1,3.855-4.68ZM9.335-.39a1.768,1.768,0,0,0,.53-1.28,1.774,1.774,0,0,0-.53-1.29,1.751,1.751,0,0,0-1.29-.53,1.714,1.714,0,0,0-1.28.53,1.72,1.72,0,0,0-.53,1.29,1.729,1.729,0,0,0,.53,1.28,1.714,1.714,0,0,0,1.28.53A1.751,1.751,0,0,0,9.335-.39ZM8.6-2.23a.732.732,0,0,1,.23.56.7.7,0,0,1-.23.54.747.747,0,0,1-.55.23.741.741,0,0,1-.54-.23.7.7,0,0,1-.23-.54.732.732,0,0,1,.23-.56.732.732,0,0,1,.54-.22A.739.739,0,0,1,8.6-2.23Z" transform="translate(18.039 8)" fill="#242647"/></g><line x2="255.692" transform="translate(0.744 175.756)" stroke-width="2" stroke="#e3ddd5" stroke-linecap="round" stroke-linejoin="round" fill="none"/></g></g></g></svg>