<svg xmlns="http://www.w3.org/2000/svg" width="508.758" height="236.576" viewBox="0 0 508.758 236.576"><g transform="translate(-122.242 -187.424)"><path d="M6.248-15.4H2.706L.242,0H2.464l.418-2.794h2.97L6.27,0H8.712ZM4.356-12.672,5.522-4.884H3.19ZM17.8-15.4h-2.53l-1.1,5.28L13.6-6.534l-.748-3.608L11.528-15.4H9.13L12.474-3.52l-.022.132c-.2,1.122-.9,1.342-2.134,1.254V.022c3.366.22,4.312-1.166,4.884-3.938ZM28.2,2.068V-2.156H27.148V-15.4H20.372l-.55,11.242a3.189,3.189,0,0,1-.594,2h-.946V2.068h2.354V0h5.17V2.068ZM22.638-13.2h2.046V-2.156H21.516A2.728,2.728,0,0,0,22.2-4.2ZM34.056-7.062l.99-3.784V0h2.178V-15.4H34.562l-1.98,6.358L31.7-5.654V-15.4H29.546V0h2.486Zm4.18-6.138h2.53V0h2.42V-13.2h2.53v-2.2h-7.48Zm10.758,1.342c0-1.1.484-1.518,1.254-1.518s1.254.418,1.254,1.518v8.316c0,1.1-.484,1.518-1.254,1.518s-1.254-.418-1.254-1.518ZM46.574-3.7c0,2.464,1.3,3.872,3.674,3.872S53.922-1.232,53.922-3.7V-11.7c0-2.464-1.3-3.872-3.674-3.872s-3.674,1.408-3.674,3.872ZM59.048-15.4H55.484V0H57.9V-5.786h1.144c2.42,0,3.608-1.342,3.608-3.806v-2C62.656-14.058,61.468-15.4,59.048-15.4Zm0,2.2c.77,0,1.188.352,1.188,1.452v2.31c0,1.1-.418,1.452-1.188,1.452H57.9V-13.2Zm9.24,6.138.99-3.784V0h2.178V-15.4H68.794l-1.98,6.358-.88,3.388V-15.4H63.778V0h2.486ZM75.2,0a4.736,4.736,0,0,0,.22-1.892v-2.42c0-1.43.484-1.958,1.584-1.958h.836V0h2.42V-15.4H76.6c-2.508,0-3.586,1.166-3.586,3.542v1.21c0,1.584.506,2.618,1.584,3.124C73.392-7.018,73-5.852,73-4.246V-1.87A4.535,4.535,0,0,1,72.732,0Zm2.64-13.2v4.73H76.89c-.9,0-1.452-.4-1.452-1.628v-1.518c0-1.1.374-1.584,1.232-1.584ZM90.948,0h2.486L90.068-8.536,93.434-15.4h-2.42L87.846-8.69V-15.4h-2.42V0h2.42V-4.73l.748-1.408Zm8.1-7.062.99-3.784V0h2.178V-15.4H99.55L97.57-9.042l-.88,3.388V-15.4H94.534V0H97.02Zm7.3.462h2.75V0h2.464V-15.4H109.1v6.6h-2.75v-6.6h-2.42V0h2.42Zm9.2-5.258c0-1.1.484-1.518,1.254-1.518s1.254.418,1.254,1.518v8.316c0,1.1-.484,1.518-1.254,1.518s-1.254-.418-1.254-1.518ZM113.124-3.7c0,2.464,1.3,3.872,3.674,3.872s3.674-1.408,3.674-3.872V-11.7c0-2.464-1.3-3.872-3.674-3.872s-3.674,1.408-3.674,3.872Zm8.206-9.5h2.53V0h2.42V-13.2h2.53v-2.2h-7.48Zm10.956,0h4.18v-2.2h-6.6V0h6.6V-2.2h-4.18V-6.71h3.322v-2.2h-3.322Zm11.044-2.2h-3.542L137.324,0h2.222l.418-2.794h2.97L143.352,0h2.442Zm-1.892,2.728L142.6-4.884h-2.332Zm4.774-.528h2.53V0h2.42V-13.2h2.53v-2.2h-7.48Zm12.1-2.2h-3.564V0h2.42V-5.786h1.144c2.42,0,3.608-1.342,3.608-3.806v-2C161.92-14.058,160.732-15.4,158.312-15.4Zm0,2.2c.77,0,1.188.352,1.188,1.452v2.31c0,1.1-.418,1.452-1.188,1.452h-1.144V-13.2Zm6.952,1.342c0-1.1.484-1.518,1.254-1.518s1.254.418,1.254,1.518v8.316c0,1.1-.484,1.518-1.254,1.518s-1.254-.418-1.254-1.518ZM162.844-3.7c0,2.464,1.3,3.872,3.674,3.872s3.674-1.408,3.674-3.872V-11.7c0-2.464-1.3-3.872-3.674-3.872s-3.674,1.408-3.674,3.872Zm12.562-11.7h-3.652V0h3.806c2.42,0,3.674-1.276,3.674-3.652V-4.906c0-1.628-.506-2.794-1.8-3.3,1.078-.506,1.562-1.518,1.562-3.1v-.55C178.992-14.234,177.914-15.4,175.406-15.4Zm-.154,8.47c1.1,0,1.562.44,1.562,1.87v1.342c0,1.144-.44,1.518-1.254,1.518h-1.386V-6.93Zm.088-6.27c.858,0,1.232.484,1.232,1.584v.858c0,1.232-.55,1.628-1.452,1.628h-.946V-13.2Zm12.3-2.2c-2.42,0-3.388.9-3.388,3.366v8.668C184.25-.9,185.218,0,187.638,0h.748V-1.98h-.594c-.77,0-1.122-.286-1.122-1.386v-8.668c0-1.1.352-1.386,1.122-1.386h.594V-15.4Zm6.644,4.642c0,1.232-.55,1.628-1.452,1.628H192.1v2.2h.594c1.1,0,1.584.528,1.584,1.958v1.21c0,1.364-.484,1.738-1.254,1.738s-1.254-.418-1.254-1.518V-5.39h-2.288V-3.7c0,2.464,1.232,3.872,3.608,3.872S196.7-1.232,196.7-3.7v-1.21c0-1.562-.484-2.706-1.694-3.234,1.166-.484,1.694-1.518,1.694-3.168v-.4c0-2.464-1.232-3.872-3.608-3.872s-3.564,1.364-3.564,3.828V-10.6h2.222v-1.254c0-1.1.506-1.518,1.276-1.518s1.254.374,1.254,1.76Zm7.612-4.642H198.33V0h2.42V-5.786h1.144c2.42,0,3.608-1.342,3.608-3.806v-2C205.5-14.058,204.314-15.4,201.894-15.4Zm0,2.2c.77,0,1.188.352,1.188,1.452v2.31c0,1.1-.418,1.452-1.188,1.452H200.75V-13.2Zm9.24,6.138.99-3.784V0H214.3V-15.4H211.64l-1.98,6.358-.88,3.388V-15.4h-2.156V0h2.486Zm4.18-6.138h2.53V0h2.42V-13.2h2.53v-2.2h-7.48Zm10.956,0h4.18v-2.2h-6.6V0h6.6V-2.2h-4.18V-6.71h3.322v-2.2H226.27ZM231.264.022h.374c2.42,0,3.432-1.1,3.52-3.916l.264-9.306h2.112V0H240V-15.4h-6.842l-.4,11.638c-.044,1.43-.4,1.584-1.5,1.584Zm15.092-7.084.99-3.784V0h2.178V-15.4h-2.662l-1.98,6.358L244-5.654V-15.4h-2.156V0h2.486ZM252.164,0l-.638,2.2h.99l1.056-2.442v-2.09H251.24V0Zm9.922-15.4H258.72V0h2.112V-10.89L262.636,0h2.288L266.6-11.044V0h2.288V-15.4h-3.366l-1.65,10.934ZM269.962.022h.374c2.42,0,3.432-1.1,3.52-3.916l.264-9.306h2.112V0H278.7V-15.4h-6.842l-.4,11.638c-.044,1.43-.4,1.584-1.5,1.584Zm13-6.622h2.75V0h2.464V-15.4h-2.464v6.6h-2.75v-6.6h-2.42V0h2.42Zm6.974,4.268V0h2.332V-2.332ZM302.368-15.4v6.248c0,1.034-.484,1.584-1.254,1.584a1.36,1.36,0,0,1-1.408-1.518V-15.4h-2.42v6.512c0,2.112,1.034,3.542,3.014,3.542a2.992,2.992,0,0,0,2.068-.858V0h2.42V-15.4Zm6.622,2.2h4.18v-2.2h-6.6V0h6.6V-2.2h-4.18V-6.71h3.322v-2.2H308.99ZM313.984.022h.374c2.42,0,3.432-1.1,3.52-3.916l.264-9.306h2.112V0h2.464V-15.4h-6.842l-.4,11.638c-.044,1.43-.4,1.584-1.5,1.584Zm10.582-2.354V0H326.9V-2.332ZM328.13-15.4v1.98h.594c.77,0,1.122.286,1.122,1.386v8.668c0,1.1-.352,1.386-1.122,1.386h-.594V0h.748c2.42,0,3.388-.9,3.388-3.366v-8.668c0-2.464-.968-3.366-3.388-3.366Z" transform="translate(122 203)" fill="rgba(42,34,75,0.5)"/><g transform="translate(4879 1576)"><g transform="translate(2606 -7339)"><line y2="165" transform="translate(-7299 5985)" fill="none" stroke="#e3ddd5" stroke-width="2"/><line y2="165" transform="translate(-7259 5985)" fill="none" stroke="#e3ddd5" stroke-width="2"/><line y2="165" transform="translate(-7219 5985)" fill="none" stroke="#e3ddd5" stroke-width="2"/><line y2="165" transform="translate(-7179 5985)" fill="none" stroke="#e3ddd5" stroke-width="2"/><line y2="165" transform="translate(-7139 5985)" fill="none" stroke="#e3ddd5" stroke-width="2"/><line y2="165" transform="translate(-7099 5985)" fill="none" stroke="#e3ddd5" stroke-width="2"/><line y2="165" transform="translate(-7059 5985)" fill="none" stroke="#e3ddd5" stroke-width="2"/><line y2="165" transform="translate(-7019 5985)" fill="none" stroke="#e3ddd5" stroke-width="2"/><line y2="165" transform="translate(-6979 5985)" fill="none" stroke="#e3ddd5" stroke-width="2"/><line y2="165" transform="translate(-6939 5985)" fill="none" stroke="#e3ddd5" stroke-width="2"/><line y2="165" transform="translate(-6899 5985)" fill="none" stroke="#e3ddd5" stroke-width="2"/><line x1="489" transform="translate(-7343 6150)" fill="none" stroke="#e3ddd5" stroke-width="2"/><line y2="488" transform="matrix(0, 1, -1, 0, -6854.915, 6110)" fill="none" stroke="#e3ddd5" stroke-width="2"/><line y2="488" transform="matrix(0, 1, -1, 0, -6854.915, 6070)" fill="none" stroke="#e3ddd5" stroke-width="2"/><line y2="488" transform="matrix(0, 1, -1, 0, -6854.915, 6030)" fill="none" stroke="#e3ddd5" stroke-width="2"/><line y2="488" transform="matrix(0, 1, -1, 0, -6854.915, 5990)" fill="none" stroke="#e3ddd5" stroke-width="2"/></g><g transform="translate(2216 -4757)"><rect width="28" height="155" transform="translate(-6951 3412)" fill="#ffa726"/><rect width="28" height="47" transform="translate(-6911 3520)" fill="#ffa726"/><rect width="28" height="68" transform="translate(-6871 3499)" fill="#ffa726"/><rect width="28" height="31" transform="translate(-6831 3536)" fill="#ffa726"/><rect width="28" height="70" transform="translate(-6791 3497)" fill="#ffa726"/><rect width="28" height="48" transform="translate(-6751 3519)" fill="#ffa726"/><rect width="28" height="65" transform="translate(-6711 3502)" fill="#ffa726"/><rect width="28" height="49" transform="translate(-6671 3518)" fill="#ffa726"/><rect width="28" height="13" transform="translate(-6631 3554)" fill="#ffa726"/><rect width="28" height="87" transform="translate(-6591 3480)" fill="#ffa726"/><rect width="28" height="64" transform="translate(-6551 3503)" fill="#ffa726"/><rect width="28" height="81" transform="translate(-6511 3486)" fill="#ffa726"/></g><path d="M-10.087-4.242a5.463,5.463,0,0,1,.393-2.2,4.043,4.043,0,0,1,.8-1.178A3.344,3.344,0,0,1-7.784-8.4a4.716,4.716,0,0,1,1.852-.34A4.033,4.033,0,0,1-2.895-7.559a4.514,4.514,0,0,1,1.14,3.275A4.5,4.5,0,0,1-2.886-1.028,4,4,0,0,1-5.909.146,4.043,4.043,0,0,1-8.956-1.022,4.436,4.436,0,0,1-10.087-4.242ZM-8.3-4.3a3.219,3.219,0,0,0,.674,2.212,2.2,2.2,0,0,0,1.711.753,2.177,2.177,0,0,0,1.7-.747,3.283,3.283,0,0,0,.665-2.241,3.23,3.23,0,0,0-.647-2.2,2.191,2.191,0,0,0-1.72-.727,2.205,2.205,0,0,0-1.729.735A3.245,3.245,0,0,0-8.3-4.3ZM-.478-6.223H1.163V-3.68a.849.849,0,0,0,.58-.252,3.33,3.33,0,0,0,.41-.9,2.375,2.375,0,0,1,.691-1.178,1.705,1.705,0,0,1,.984-.258q.187,0,.65.029l.006,1.09a1.756,1.756,0,0,0-.832.123,1.7,1.7,0,0,0-.393.768,1.543,1.543,0,0,1-.826,1.061A2.261,2.261,0,0,1,3.753-1.84q.029.059.064.123L4.737,0H2.968l-.82-1.8a2.193,2.193,0,0,0-.437-.7.833.833,0,0,0-.548-.155V0H-.478Zm5.332,0h5.631v1.33H8.493V0H6.847V-4.893H4.854Z" transform="translate(-4356 -1174)" fill="#242549"/><path d="M-5.613,0V-3.586h-.352a2.031,2.031,0,0,0-1.157.246A7.088,7.088,0,0,0-8.273-1.869L-9.527,0H-11.6l1.049-1.676a10.266,10.266,0,0,1,.99-1.4,3.786,3.786,0,0,1,.926-.718,2.692,2.692,0,0,1-1.734-.835,2.36,2.36,0,0,1-.533-1.55,2.49,2.49,0,0,1,.4-1.392,1.925,1.925,0,0,1,1.043-.814A6.753,6.753,0,0,1-7.529-8.59h3.65V0Zm0-7.137H-6.967a12.071,12.071,0,0,0-1.356.047.9.9,0,0,0-.56.316,1.033,1.033,0,0,0-.234.7,1.075,1.075,0,0,0,.226.718.958.958,0,0,0,.574.331A9.756,9.756,0,0,0-6.9-4.957h1.283Zm3.41.914H-.557v2.279H1.8V-6.223H3.451V0H1.8V-2.613H-.557V0H-2.2Zm7.33,0h3.6a2.8,2.8,0,0,1,1.658.4A1.414,1.414,0,0,1,10.939-4.6a1.433,1.433,0,0,1-.3.908,1.438,1.438,0,0,1-.759.516,1.612,1.612,0,0,1,.961.592,1.576,1.576,0,0,1,.316.949,1.478,1.478,0,0,1-.533,1.181A2.375,2.375,0,0,1,9.047,0H5.127ZM6.785-3.639H7.846a2.376,2.376,0,0,0,1.11-.193A.65.65,0,0,0,9.3-4.441.582.582,0,0,0,8.979-5a2.685,2.685,0,0,0-1.134-.167H6.785Zm0,2.584h1.3a2.314,2.314,0,0,0,1.025-.17.628.628,0,0,0,.322-.609.634.634,0,0,0-.369-.63,3.914,3.914,0,0,0-1.436-.173H6.785Z" transform="translate(-4716 -1174)" fill="#242549"/><path d="M-6.176-1V0h-1.7V-1a3.975,3.975,0,0,1-2.9-1.017,3.385,3.385,0,0,1-.847-2.353,3.257,3.257,0,0,1,.885-2.388,4.125,4.125,0,0,1,2.865-.976v-.85h1.7v.85a4,4,0,0,1,2.9,1.008,3.363,3.363,0,0,1,.853,2.361,3.364,3.364,0,0,1-.85,2.353A3.993,3.993,0,0,1-6.176-1Zm0-1.447a2.743,2.743,0,0,0,1.169-.229,1.436,1.436,0,0,0,.694-.615,2.475,2.475,0,0,0,.205-1.131q0-1.863-2.068-1.863Zm-1.7,0V-6.287A2.164,2.164,0,0,0-9.457-5.8a2.019,2.019,0,0,0-.486,1.479Q-9.943-2.449-7.875-2.449ZM2.561-1.98,4.2-1.705a2.691,2.691,0,0,1-1,1.374A2.935,2.935,0,0,1,1.494.141,2.784,2.784,0,0,1-.908-.92a3.563,3.563,0,0,1-.615-2.145A3.436,3.436,0,0,1-.715-5.487,2.663,2.663,0,0,1,1.33-6.363a2.762,2.762,0,0,1,2.191.917,4.057,4.057,0,0,1,.768,2.81H.164a1.666,1.666,0,0,0,.4,1.14,1.246,1.246,0,0,0,.949.407,1.008,1.008,0,0,0,.65-.211A1.3,1.3,0,0,0,2.561-1.98Zm.094-1.664a1.585,1.585,0,0,0-.369-1.087A1.133,1.133,0,0,0,1.43-5.1a1.144,1.144,0,0,0-.891.393A1.519,1.519,0,0,0,.193-3.645ZM5.648-6.223h3.6a2.8,2.8,0,0,1,1.658.4A1.414,1.414,0,0,1,11.461-4.6a1.433,1.433,0,0,1-.3.908,1.438,1.438,0,0,1-.759.516,1.612,1.612,0,0,1,.961.592,1.576,1.576,0,0,1,.316.949,1.478,1.478,0,0,1-.533,1.181A2.375,2.375,0,0,1,9.568,0H5.648ZM7.307-3.639H8.367a2.376,2.376,0,0,0,1.11-.193.65.65,0,0,0,.343-.609A.582.582,0,0,0,9.5-5a2.685,2.685,0,0,0-1.134-.167H7.307Zm0,2.584h1.3a2.314,2.314,0,0,0,1.025-.17.628.628,0,0,0,.322-.609.634.634,0,0,0-.369-.63A3.914,3.914,0,0,0,8.15-2.637H7.307Z" transform="translate(-4676 -1174)" fill="#242549"/><path d="M0,0H28V153H0Z" transform="translate(-4725 -1343)" fill="#4361b4"/><path d="M-14.083,0V-8.59h2.6L-9.929-2.73-8.388-8.59h2.6V0H-7.4V-6.762L-9.1,0h-1.67l-1.7-6.762V0ZM-2.7-4.324l-1.494-.27A2.327,2.327,0,0,1-3.325-5.93,3.173,3.173,0,0,1-1.5-6.363,3.94,3.94,0,0,1,.144-6.1,1.636,1.636,0,0,1,.9-5.44a3.4,3.4,0,0,1,.22,1.474L1.1-2.045a6.672,6.672,0,0,0,.079,1.21,3.532,3.532,0,0,0,.3.835H-.149Q-.214-.164-.308-.486-.349-.633-.366-.68a2.968,2.968,0,0,1-.9.615A2.584,2.584,0,0,1-2.294.141,2.12,2.12,0,0,1-3.809-.381,1.733,1.733,0,0,1-4.362-1.7a1.77,1.77,0,0,1,.252-.94A1.646,1.646,0,0,1-3.4-3.272a5.518,5.518,0,0,1,1.31-.384,8.971,8.971,0,0,0,1.6-.4v-.164A.853.853,0,0,0-.729-4.9a1.4,1.4,0,0,0-.885-.2,1.178,1.178,0,0,0-.686.173A1.2,1.2,0,0,0-2.7-4.324ZM-.5-2.988a10.292,10.292,0,0,1-1,.252,3.018,3.018,0,0,0-.9.287.687.687,0,0,0-.322.58.808.808,0,0,0,.258.6A.9.9,0,0,0-1.8-1.02a1.426,1.426,0,0,0,.85-.293A1.031,1.031,0,0,0-.56-1.857,3.251,3.251,0,0,0-.5-2.66ZM2.7-6.223H4.233v.914a2.3,2.3,0,0,1,.809-.762,2.229,2.229,0,0,1,1.131-.293,2.372,2.372,0,0,1,1.84.85,3.439,3.439,0,0,1,.756,2.367A3.543,3.543,0,0,1,8.007-.724,2.373,2.373,0,0,1,6.161.141a2.1,2.1,0,0,1-.935-.205,3.15,3.15,0,0,1-.882-.7V2.367H2.7ZM4.327-3.217a2.4,2.4,0,0,0,.416,1.55,1.273,1.273,0,0,0,1.014.5,1.19,1.19,0,0,0,.955-.46,2.37,2.37,0,0,0,.381-1.509A2.249,2.249,0,0,0,6.7-4.588a1.214,1.214,0,0,0-.973-.475,1.263,1.263,0,0,0-1,.466A2.073,2.073,0,0,0,4.327-3.217ZM9.179-6.223H14.81v1.33H12.817V0H11.171V-4.893H9.179Z" transform="translate(-4636 -1174)" fill="#242549"/><path d="M-3,0H-4.89l-.75-1.951H-9.073L-9.782,0h-1.84l3.346-8.59h1.834ZM-6.2-3.4-7.38-6.586-8.54-3.4Zm4.037-2.824H3.366V0H1.72V-4.893H-.513V0H-2.159Zm7.266,0H6.642v.914A2.3,2.3,0,0,1,7.45-6.07a2.229,2.229,0,0,1,1.131-.293,2.372,2.372,0,0,1,1.84.85,3.439,3.439,0,0,1,.756,2.367,3.543,3.543,0,0,1-.762,2.423A2.373,2.373,0,0,1,8.569.141a2.1,2.1,0,0,1-.935-.205,3.15,3.15,0,0,1-.882-.7V2.367H5.106ZM6.735-3.217a2.4,2.4,0,0,0,.416,1.55,1.273,1.273,0,0,0,1.014.5,1.19,1.19,0,0,0,.955-.46A2.37,2.37,0,0,0,9.5-3.135a2.249,2.249,0,0,0-.393-1.453,1.214,1.214,0,0,0-.973-.475,1.263,1.263,0,0,0-1,.466A2.073,2.073,0,0,0,6.735-3.217Z" transform="translate(-4596 -1174)" fill="#242549"/><path d="M-11.247,0V-8.59h2.6L-7.093-2.73-5.552-8.59h2.6V0H-4.562V-6.762L-6.267,0h-1.67l-1.7-6.762V0ZM.138-4.324l-1.494-.27A2.327,2.327,0,0,1-.489-5.93a3.173,3.173,0,0,1,1.828-.434A3.94,3.94,0,0,1,2.979-6.1a1.636,1.636,0,0,1,.759.662,3.4,3.4,0,0,1,.22,1.474L3.94-2.045A6.672,6.672,0,0,0,4.02-.835a3.532,3.532,0,0,0,.3.835H2.687q-.064-.164-.158-.486Q2.487-.633,2.47-.68a2.968,2.968,0,0,1-.9.615A2.584,2.584,0,0,1,.542.141,2.12,2.12,0,0,1-.973-.381,1.733,1.733,0,0,1-1.526-1.7a1.77,1.77,0,0,1,.252-.94,1.646,1.646,0,0,1,.706-.633,5.518,5.518,0,0,1,1.31-.384,8.971,8.971,0,0,0,1.6-.4v-.164A.853.853,0,0,0,2.106-4.9a1.4,1.4,0,0,0-.885-.2,1.178,1.178,0,0,0-.686.173A1.2,1.2,0,0,0,.138-4.324Zm2.2,1.336a10.292,10.292,0,0,1-1,.252,3.018,3.018,0,0,0-.9.287.687.687,0,0,0-.322.58.808.808,0,0,0,.258.6.9.9,0,0,0,.656.252,1.426,1.426,0,0,0,.85-.293,1.031,1.031,0,0,0,.393-.545,3.251,3.251,0,0,0,.064-.8Zm3.2-3.234H7.122v3.908L9.653-6.223h1.617V0H9.688V-3.979L7.122,0H5.54ZM9.483-8.748h.8A1.858,1.858,0,0,1,9.727-7.5a1.791,1.791,0,0,1-1.269.454A1.791,1.791,0,0,1,7.189-7.5a1.858,1.858,0,0,1-.56-1.251h.8a.9.9,0,0,0,.293.63,1.1,1.1,0,0,0,.732.214,1.1,1.1,0,0,0,.732-.214A.9.9,0,0,0,9.483-8.748Z" transform="translate(-4556 -1174)" fill="#242549"/><path d="M-15.853-8.59h1.623v5.719l3.48-5.719h1.729V0h-1.623V-5.607L-14.118,0h-1.734Zm8.578,2.367h1.646v2.514h1.313A2.98,2.98,0,0,1-3.41-5.634a2.91,2.91,0,0,1,2.077-.729,2.89,2.89,0,0,1,2.15.85,3.343,3.343,0,0,1,.838,2.449,4,4,0,0,1-.313,1.641A2.623,2.623,0,0,1,.384-.29,2.975,2.975,0,0,1-1.3.141,2.851,2.851,0,0,1-3.524-.671,2.83,2.83,0,0,1-4.315-2.4H-5.628V0H-7.274ZM-1.356-5.08a1.143,1.143,0,0,0-1,.439,2.45,2.45,0,0,0-.313,1.4,2.872,2.872,0,0,0,.337,1.661,1.218,1.218,0,0,0,1.022.431A1.059,1.059,0,0,0-.36-1.632a2.676,2.676,0,0,0,.316-1.45A2.605,2.605,0,0,0-.387-4.673,1.2,1.2,0,0,0-1.356-5.08ZM2.921-6.223H4.567v2.279H6.923V-6.223H8.575V0H6.923V-2.613H4.567V0H2.921Zm7.348,0h1.646v2.584h1.652a6.071,6.071,0,0,1,1.494.141,1.57,1.57,0,0,1,.867.606,1.765,1.765,0,0,1,.346,1.081,1.575,1.575,0,0,1-.618,1.356A3.124,3.124,0,0,1,13.8,0H10.269Zm1.646,5.18H13.45a1.257,1.257,0,0,0,.923-.234.824.824,0,0,0,.2-.557.628.628,0,0,0-.349-.621,3.13,3.13,0,0,0-1.239-.17H11.915Z" transform="translate(-4516 -1174)" fill="#242549"/><path d="M-15.891-8.59h1.623v5.719l3.48-5.719h1.729V0h-1.623V-5.607L-14.156,0h-1.734Zm8.578,2.367h1.646v2.514h1.313a2.98,2.98,0,0,1,.905-1.925,2.91,2.91,0,0,1,2.077-.729,2.89,2.89,0,0,1,2.15.85,3.343,3.343,0,0,1,.838,2.449A4,4,0,0,1,1.3-1.424,2.623,2.623,0,0,1,.346-.29,2.975,2.975,0,0,1-1.336.141,2.851,2.851,0,0,1-3.562-.671,2.83,2.83,0,0,1-4.354-2.4H-5.666V0H-7.312ZM-1.395-5.08a1.143,1.143,0,0,0-1,.439,2.45,2.45,0,0,0-.313,1.4A2.872,2.872,0,0,0-2.37-1.579a1.218,1.218,0,0,0,1.022.431A1.059,1.059,0,0,0-.4-1.632a2.676,2.676,0,0,0,.316-1.45A2.605,2.605,0,0,0-.425-4.673,1.2,1.2,0,0,0-1.395-5.08ZM3.094-6.223H8.607V0H6.967V-4.887H4.723v2.795a3.249,3.249,0,0,1-.246,1.5,1.282,1.282,0,0,1-.545.565,2.505,2.505,0,0,1-.961.135A6.743,6.743,0,0,1,1.934,0V-1.213q.053,0,.275.012.258.018.4.018.334,0,.41-.22a5.423,5.423,0,0,0,.076-1.222Zm7.213,0h1.646v2.584h1.652A6.071,6.071,0,0,1,15.1-3.5a1.57,1.57,0,0,1,.867.606,1.765,1.765,0,0,1,.346,1.081,1.575,1.575,0,0,1-.618,1.356A3.124,3.124,0,0,1,13.84,0H10.307Zm1.646,5.18h1.535a1.257,1.257,0,0,0,.923-.234.824.824,0,0,0,.2-.557.628.628,0,0,0-.349-.621,3.13,3.13,0,0,0-1.239-.17H11.953Z" transform="translate(-4476 -1174)" fill="#242549"/><path d="M-1.9,0H-3.788l-.75-1.951H-7.972L-8.681,0h-1.84l3.346-8.59h1.834ZM-5.095-3.4-6.278-6.586-7.438-3.4ZM-.976-6.223h3.6a2.8,2.8,0,0,1,1.658.4A1.414,1.414,0,0,1,4.837-4.6a1.433,1.433,0,0,1-.3.908,1.438,1.438,0,0,1-.759.516,1.612,1.612,0,0,1,.961.592,1.576,1.576,0,0,1,.316.949A1.478,1.478,0,0,1,4.521-.454,2.375,2.375,0,0,1,2.944,0H-.976ZM.683-3.639H1.743a2.376,2.376,0,0,0,1.11-.193A.65.65,0,0,0,3.2-4.441.582.582,0,0,0,2.877-5a2.685,2.685,0,0,0-1.134-.167H.683Zm0,2.584h1.3a2.314,2.314,0,0,0,1.025-.17.628.628,0,0,0,.322-.609.634.634,0,0,0-.369-.63,3.914,3.914,0,0,0-1.436-.173H.683ZM6.319-6.223h4.2v1.33H7.966V0H6.319Z" transform="translate(-4436 -1174)" fill="#242549"/><path d="M-4.925-3.158l1.682.533A3.772,3.772,0,0,1-4.529-.536,3.668,3.668,0,0,1-6.812.146,3.7,3.7,0,0,1-9.624-1.022a4.473,4.473,0,0,1-1.1-3.2A4.7,4.7,0,0,1-9.618-7.55,3.8,3.8,0,0,1-6.706-8.736,3.573,3.573,0,0,1-4.146-7.8a3.388,3.388,0,0,1,.879,1.582l-1.717.41a1.821,1.821,0,0,0-.636-1.055,1.821,1.821,0,0,0-1.175-.387,1.954,1.954,0,0,0-1.55.686,3.361,3.361,0,0,0-.595,2.221,3.6,3.6,0,0,0,.586,2.32,1.9,1.9,0,0,0,1.523.691A1.737,1.737,0,0,0-5.64-1.775,2.553,2.553,0,0,0-4.925-3.158ZM1.837-1.98l1.641.275a2.691,2.691,0,0,1-1,1.374A2.935,2.935,0,0,1,.771.141,2.784,2.784,0,0,1-1.632-.92a3.563,3.563,0,0,1-.615-2.145,3.436,3.436,0,0,1,.809-2.423A2.663,2.663,0,0,1,.606-6.363,2.762,2.762,0,0,1,2.8-5.446a4.057,4.057,0,0,1,.768,2.81H-.56a1.666,1.666,0,0,0,.4,1.14,1.246,1.246,0,0,0,.949.407,1.008,1.008,0,0,0,.65-.211A1.3,1.3,0,0,0,1.837-1.98Zm.094-1.664a1.585,1.585,0,0,0-.369-1.087A1.133,1.133,0,0,0,.706-5.1a1.144,1.144,0,0,0-.891.393A1.519,1.519,0,0,0-.53-3.645ZM4.843-6.223H6.489v2.279H8.845V-6.223H10.5V0H8.845V-2.613H6.489V0H4.843Z" transform="translate(-4396 -1174)" fill="#242549"/><path d="M0,0H28V82H0Z" transform="translate(-4685 -1272)" fill="#4361b4"/><path d="M0,0H28V11H0Z" transform="translate(-4645 -1201)" fill="#4361b4"/><path d="M-13.68-10.68v-1.56a2.379,2.379,0,0,0,1.62-.44,3.282,3.282,0,0,0,.8-1.32h1.48V0h-2.2V-10.68Zm8.58-.1v7.56q0,1.38,1.14,1.38t1.14-1.38v-7.56q0-1.38-1.14-1.38T-5.1-10.78ZM-7.3-3.36v-7.28a3.663,3.663,0,0,1,.86-2.6,3.23,3.23,0,0,1,2.48-.92,3.23,3.23,0,0,1,2.48.92,3.663,3.663,0,0,1,.86,2.6v7.28a3.663,3.663,0,0,1-.86,2.6A3.23,3.23,0,0,1-3.96.16,3.23,3.23,0,0,1-6.44-.76,3.663,3.663,0,0,1-7.3-3.36Z" transform="translate(-4741 -1182)" fill="#242549"/><path d="M-13.68-10.68v-1.56a2.379,2.379,0,0,0,1.62-.44,3.282,3.282,0,0,0,.8-1.32h1.48V0h-2.2V-10.68Zm6.46,6.16h2.08v1.3q0,1.36,1.14,1.36t1.14-1.36V-6.3q0-1.38-1.14-1.38T-5.14-6.3v.42H-7.22l.4-8.12h5.8v2H-4.84l-.18,3.34A2.089,2.089,0,0,1-3.1-9.68q2.44,0,2.44,3.2v3.12A3.712,3.712,0,0,1-1.5-.75,3.156,3.156,0,0,1-3.94.16,3.156,3.156,0,0,1-6.38-.75a3.712,3.712,0,0,1-.84-2.61Z" transform="translate(-4741 -1222)" fill="#242549"/><path d="M-10.68-10.56a2.01,2.01,0,0,0-.29-1.25,1.041,1.041,0,0,0-.85-.35q-1.14,0-1.14,1.38v1.5h-2.08v-1.36a3.712,3.712,0,0,1,.84-2.61,3.156,3.156,0,0,1,2.44-.91,3.156,3.156,0,0,1,2.44.91,3.712,3.712,0,0,1,.84,2.61,6.068,6.068,0,0,1-.45,2.32,7.128,7.128,0,0,1-1.1,1.88q-.65.78-1.29,1.46a9.9,9.9,0,0,0-1.09,1.37,2.418,2.418,0,0,0-.45,1.31,1.657,1.657,0,0,0,.02.3h4.16V0h-6.36V-1.72a4.82,4.82,0,0,1,.45-2.09A6.819,6.819,0,0,1-13.5-5.47q.64-.71,1.28-1.4A6.508,6.508,0,0,0-11.13-8.5,4.708,4.708,0,0,0-10.68-10.56Zm5.58-.22v7.56q0,1.38,1.14,1.38t1.14-1.38v-7.56q0-1.38-1.14-1.38T-5.1-10.78ZM-7.3-3.36v-7.28a3.663,3.663,0,0,1,.86-2.6,3.23,3.23,0,0,1,2.48-.92,3.23,3.23,0,0,1,2.48.92,3.663,3.663,0,0,1,.86,2.6v7.28a3.663,3.663,0,0,1-.86,2.6A3.23,3.23,0,0,1-3.96.16,3.23,3.23,0,0,1-6.44-.76,3.663,3.663,0,0,1-7.3-3.36Z" transform="translate(-4740 -1262)" fill="#242549"/><path d="M-10.68-10.56a2.01,2.01,0,0,0-.29-1.25,1.041,1.041,0,0,0-.85-.35q-1.14,0-1.14,1.38v1.5h-2.08v-1.36a3.712,3.712,0,0,1,.84-2.61,3.156,3.156,0,0,1,2.44-.91,3.156,3.156,0,0,1,2.44.91,3.712,3.712,0,0,1,.84,2.61,6.068,6.068,0,0,1-.45,2.32,7.128,7.128,0,0,1-1.1,1.88q-.65.78-1.29,1.46a9.9,9.9,0,0,0-1.09,1.37,2.418,2.418,0,0,0-.45,1.31,1.657,1.657,0,0,0,.02.3h4.16V0h-6.36V-1.72a4.82,4.82,0,0,1,.45-2.09A6.819,6.819,0,0,1-13.5-5.47q.64-.71,1.28-1.4A6.508,6.508,0,0,0-11.13-8.5,4.708,4.708,0,0,0-10.68-10.56Zm3.46,6.04h2.08v1.3q0,1.36,1.14,1.36t1.14-1.36V-6.3q0-1.38-1.14-1.38T-5.14-6.3v.42H-7.22l.4-8.12h5.8v2H-4.84l-.18,3.34A2.089,2.089,0,0,1-3.1-9.68q2.44,0,2.44,3.2v3.12A3.712,3.712,0,0,1-1.5-.75,3.156,3.156,0,0,1-3.94.16,3.156,3.156,0,0,1-6.38-.75a3.712,3.712,0,0,1-.84-2.61Z" transform="translate(-4740 -1302)" fill="#242549"/><path d="M-12.765-1.236V-3.469h-2.25V-5.01h2.25V-7.242h1.5V-5.01h2.256v1.541h-2.256v2.232Zm10.33-.293V0H-8.206a3.975,3.975,0,0,1,.563-1.644A10.937,10.937,0,0,1-5.792-3.7,11.646,11.646,0,0,0-4.427-5.109a1.811,1.811,0,0,0,.34-1.008,1.146,1.146,0,0,0-.3-.847,1.1,1.1,0,0,0-.817-.3,1.1,1.1,0,0,0-.82.311,1.6,1.6,0,0,0-.352,1.031l-1.641-.164a2.69,2.69,0,0,1,.92-1.951,3.089,3.089,0,0,1,1.934-.592,2.8,2.8,0,0,1,2,.686,2.249,2.249,0,0,1,.727,1.705,2.968,2.968,0,0,1-.208,1.1,4.492,4.492,0,0,1-.659,1.1,10.549,10.549,0,0,1-1.078,1.1q-.779.715-.987.949a2.842,2.842,0,0,0-.337.457ZM.091-4.635a1.92,1.92,0,0,1-.929-.741,1.937,1.937,0,0,1-.29-1.034A2.08,2.08,0,0,1-.457-8,2.689,2.689,0,0,1,1.45-8.625,2.693,2.693,0,0,1,3.352-8,2.071,2.071,0,0,1,4.028-6.41a1.873,1.873,0,0,1-.311,1.063,1.966,1.966,0,0,1-.873.712A2.3,2.3,0,0,1,3.932-3.8,2.217,2.217,0,0,1,4.3-2.525,2.589,2.589,0,0,1,3.545-.592,2.758,2.758,0,0,1,1.526.152,3.051,3.051,0,0,1-.425-.463a2.4,2.4,0,0,1-.92-1.992A2.464,2.464,0,0,1-1-3.735,2.226,2.226,0,0,1,.091-4.635Zm.34-1.658a1.031,1.031,0,0,0,.278.768,1.008,1.008,0,0,0,.741.275,1.02,1.02,0,0,0,.75-.278A1.035,1.035,0,0,0,2.481-6.3,1,1,0,0,0,2.2-7.04a.994.994,0,0,0-.735-.278,1.021,1.021,0,0,0-.756.281A1.006,1.006,0,0,0,.431-6.293ZM.278-2.613A1.513,1.513,0,0,0,.627-1.553a1.131,1.131,0,0,0,.87.381,1.093,1.093,0,0,0,.844-.366A1.517,1.517,0,0,0,2.675-2.6a1.369,1.369,0,0,0-.34-.97,1.124,1.124,0,0,0-.861-.366,1.03,1.03,0,0,0-.9.416A1.525,1.525,0,0,0,.278-2.613ZM5.364-6.469A2.477,2.477,0,0,1,5.871-8.18a1.766,1.766,0,0,1,1.374-.557,1.807,1.807,0,0,1,1.4.554,2.475,2.475,0,0,1,.507,1.714,2.477,2.477,0,0,1-.507,1.711A1.766,1.766,0,0,1,7.274-4.2a1.807,1.807,0,0,1-1.4-.554A2.475,2.475,0,0,1,5.364-6.469ZM6.647-6.48a2.22,2.22,0,0,0,.193,1.125.466.466,0,0,0,.4.211.471.471,0,0,0,.41-.211A2.28,2.28,0,0,0,7.843-6.48,2.242,2.242,0,0,0,7.655-7.6a.467.467,0,0,0-.41-.217.466.466,0,0,0-.4.211A2.22,2.22,0,0,0,6.647-6.48ZM8.5.328H7.28l4.576-9.064H13.04Zm2.66-2.256a2.477,2.477,0,0,1,.507-1.711A1.78,1.78,0,0,1,13.052-4.2a1.788,1.788,0,0,1,1.392.557,2.477,2.477,0,0,1,.507,1.711,2.487,2.487,0,0,1-.507,1.717,1.766,1.766,0,0,1-1.374.557,1.8,1.8,0,0,1-1.4-.557A2.487,2.487,0,0,1,11.159-1.928Zm1.283-.006a2.183,2.183,0,0,0,.193,1.119.462.462,0,0,0,.4.217.457.457,0,0,0,.4-.211,2.22,2.22,0,0,0,.193-1.125,2.28,2.28,0,0,0-.187-1.125.471.471,0,0,0-.41-.211.457.457,0,0,0-.4.211A2.22,2.22,0,0,0,12.442-1.934Z" transform="translate(-4675 -1277)" fill="#242549"/><path d="M-13.333-2.291V-3.937H-10.1v1.646ZM-6.272,0V-1.729H-9.788V-3.17l3.727-5.455h1.383v5.449h1.066v1.447H-4.679V0Zm0-3.176V-6.111L-8.247-3.176ZM2.733-1.529V0H-3.038a3.975,3.975,0,0,1,.563-1.644A10.937,10.937,0,0,1-.624-3.7,11.646,11.646,0,0,0,.741-5.109a1.811,1.811,0,0,0,.34-1.008,1.146,1.146,0,0,0-.3-.847,1.1,1.1,0,0,0-.817-.3,1.1,1.1,0,0,0-.82.311A1.6,1.6,0,0,0-1.2-5.918l-1.641-.164a2.69,2.69,0,0,1,.92-1.951A3.089,3.089,0,0,1,.009-8.625a2.8,2.8,0,0,1,2,.686,2.249,2.249,0,0,1,.727,1.705,2.968,2.968,0,0,1-.208,1.1,4.492,4.492,0,0,1-.659,1.1,10.549,10.549,0,0,1-1.078,1.1q-.779.715-.987.949a2.842,2.842,0,0,0-.337.457ZM3.858-6.469A2.477,2.477,0,0,1,4.365-8.18a1.766,1.766,0,0,1,1.374-.557,1.807,1.807,0,0,1,1.4.554,2.475,2.475,0,0,1,.507,1.714,2.477,2.477,0,0,1-.507,1.711A1.766,1.766,0,0,1,5.769-4.2a1.807,1.807,0,0,1-1.4-.554A2.475,2.475,0,0,1,3.858-6.469ZM5.142-6.48a2.22,2.22,0,0,0,.193,1.125.466.466,0,0,0,.4.211.471.471,0,0,0,.41-.211A2.28,2.28,0,0,0,6.337-6.48,2.242,2.242,0,0,0,6.149-7.6a.467.467,0,0,0-.41-.217.466.466,0,0,0-.4.211A2.22,2.22,0,0,0,5.142-6.48ZM6.993.328H5.774l4.576-9.064h1.184Zm2.66-2.256a2.477,2.477,0,0,1,.507-1.711A1.78,1.78,0,0,1,11.546-4.2a1.788,1.788,0,0,1,1.392.557,2.477,2.477,0,0,1,.507,1.711,2.487,2.487,0,0,1-.507,1.717,1.766,1.766,0,0,1-1.374.557,1.8,1.8,0,0,1-1.4-.557A2.487,2.487,0,0,1,9.653-1.928Zm1.283-.006A2.183,2.183,0,0,0,11.13-.814a.462.462,0,0,0,.4.217.457.457,0,0,0,.4-.211,2.22,2.22,0,0,0,.193-1.125,2.28,2.28,0,0,0-.187-1.125.471.471,0,0,0-.41-.211.457.457,0,0,0-.4.211A2.22,2.22,0,0,0,10.937-1.934Z" transform="translate(-4636 -1264)" fill="#242549"/><path d="M2.537-2.555V-3.627a2.471,2.471,0,0,0,.621-.056.753.753,0,0,0,.366-.27A.757.757,0,0,0,3.7-4.441a.815.815,0,0,0-.214-.542.8.8,0,0,0-.642-.249,1.2,1.2,0,0,0-.586.141,1.272,1.272,0,0,0-.469.668l-1.395-.3a1.926,1.926,0,0,1,.9-1.23,3.03,3.03,0,0,1,1.576-.41,2.647,2.647,0,0,1,1.743.516,1.617,1.617,0,0,1,.618,1.295,1.214,1.214,0,0,1-.267.806,2.481,2.481,0,0,1-.841.595,2.09,2.09,0,0,1,1.034.568,1.366,1.366,0,0,1,.343.949,1.544,1.544,0,0,1-.68,1.251A3.152,3.152,0,0,1,2.865.141Q.639.141.141-1.6l1.506-.275a1.246,1.246,0,0,0,1.2.914A1.086,1.086,0,0,0,3.589-1.2a.738.738,0,0,0,.278-.571.665.665,0,0,0-.29-.571,1.273,1.273,0,0,0-.759-.208ZM6.779-6.223H8.314v.914a2.3,2.3,0,0,1,.809-.762,2.229,2.229,0,0,1,1.131-.293,2.372,2.372,0,0,1,1.84.85,3.439,3.439,0,0,1,.756,2.367,3.543,3.543,0,0,1-.762,2.423,2.373,2.373,0,0,1-1.846.864,2.1,2.1,0,0,1-.935-.205,3.15,3.15,0,0,1-.882-.7V2.367H6.779ZM8.408-3.217a2.4,2.4,0,0,0,.416,1.55,1.273,1.273,0,0,0,1.014.5,1.19,1.19,0,0,0,.955-.46,2.37,2.37,0,0,0,.381-1.509,2.249,2.249,0,0,0-.393-1.453,1.214,1.214,0,0,0-.973-.475,1.263,1.263,0,0,0-1,.466A2.073,2.073,0,0,0,8.408-3.217Zm5.707-3.006H15.7v3.908l2.531-3.908h1.617V0H18.264V-3.979L15.7,0H14.115Zm6.68,0h5.631v1.33H24.434V0H22.787V-4.893H20.795ZM31.014-1.98l1.641.275a2.691,2.691,0,0,1-1,1.374,2.935,2.935,0,0,1-1.708.472,2.784,2.784,0,0,1-2.4-1.061,3.563,3.563,0,0,1-.615-2.145,3.436,3.436,0,0,1,.809-2.423,2.663,2.663,0,0,1,2.045-.876,2.762,2.762,0,0,1,2.191.917,4.057,4.057,0,0,1,.768,2.81H28.617a1.666,1.666,0,0,0,.4,1.14,1.246,1.246,0,0,0,.949.407,1.008,1.008,0,0,0,.65-.211A1.3,1.3,0,0,0,31.014-1.98Zm.094-1.664a1.585,1.585,0,0,0-.369-1.087,1.133,1.133,0,0,0-.855-.372,1.144,1.144,0,0,0-.891.393,1.519,1.519,0,0,0-.346,1.066Zm3.422-2.578h5.514V0H38.4V-4.887H36.158v2.795a3.249,3.249,0,0,1-.246,1.5,1.282,1.282,0,0,1-.545.565,2.505,2.505,0,0,1-.961.135A6.743,6.743,0,0,1,33.369,0V-1.213q.053,0,.275.012.258.018.4.018.334,0,.41-.22a5.423,5.423,0,0,0,.076-1.222Zm7.137,0h1.582v3.908l2.531-3.908H47.4V0H45.814V-3.979L43.248,0H41.666Zm10.77,0h3.6a2.8,2.8,0,0,1,1.658.4A1.414,1.414,0,0,1,58.248-4.6a1.433,1.433,0,0,1-.3.908,1.438,1.438,0,0,1-.759.516,1.612,1.612,0,0,1,.961.592,1.576,1.576,0,0,1,.316.949,1.478,1.478,0,0,1-.533,1.181A2.375,2.375,0,0,1,56.355,0h-3.92Zm1.658,2.584h1.061a2.376,2.376,0,0,0,1.11-.193.65.65,0,0,0,.343-.609A.582.582,0,0,0,56.288-5a2.685,2.685,0,0,0-1.134-.167H54.094Zm0,2.584h1.3a2.314,2.314,0,0,0,1.025-.17.628.628,0,0,0,.322-.609.634.634,0,0,0-.369-.63,3.914,3.914,0,0,0-1.436-.173h-.844Zm14.244-.475V0H62.566a3.975,3.975,0,0,1,.563-1.644A10.937,10.937,0,0,1,64.98-3.7a11.646,11.646,0,0,0,1.365-1.406,1.811,1.811,0,0,0,.34-1.008,1.146,1.146,0,0,0-.3-.847,1.1,1.1,0,0,0-.817-.3,1.1,1.1,0,0,0-.82.311A1.6,1.6,0,0,0,64.4-5.918L62.76-6.082a2.69,2.69,0,0,1,.92-1.951,3.089,3.089,0,0,1,1.934-.592,2.8,2.8,0,0,1,2,.686,2.249,2.249,0,0,1,.727,1.705,2.968,2.968,0,0,1-.208,1.1,4.492,4.492,0,0,1-.659,1.1,10.548,10.548,0,0,1-1.078,1.1q-.779.715-.987.949a2.842,2.842,0,0,0-.337.457Zm3.9-7.1a2.347,2.347,0,0,1,1.951.891,5.686,5.686,0,0,1,.838,3.5,5.7,5.7,0,0,1-.844,3.5,2.343,2.343,0,0,1-1.945.879,2.458,2.458,0,0,1-2.021-.964,5.7,5.7,0,0,1-.768-3.437,5.675,5.675,0,0,1,.844-3.492A2.343,2.343,0,0,1,72.234-8.625Zm0,1.365a.823.823,0,0,0-.533.19,1.278,1.278,0,0,0-.363.683,9.415,9.415,0,0,0-.17,2.15,9.346,9.346,0,0,0,.152,2.077,1.46,1.46,0,0,0,.384.753.819.819,0,0,0,.53.188.823.823,0,0,0,.533-.19,1.278,1.278,0,0,0,.363-.683,9.332,9.332,0,0,0,.17-2.145,9.346,9.346,0,0,0-.152-2.077,1.481,1.481,0,0,0-.384-.756A.811.811,0,0,0,72.234-7.26ZM80.338,0H78.691V-6.205a5.676,5.676,0,0,1-2.127,1.248V-6.451a4.762,4.762,0,0,0,1.4-.8A3.039,3.039,0,0,0,79-8.625h1.336Zm2.5-1.986,1.594-.176a1.153,1.153,0,0,0,.3.721.9.9,0,0,0,.65.234,1.061,1.061,0,0,0,.867-.469,3.993,3.993,0,0,0,.457-1.945,1.966,1.966,0,0,1-1.553.721,2.32,2.32,0,0,1-1.749-.782,2.852,2.852,0,0,1-.735-2.036,2.9,2.9,0,0,1,.776-2.106,2.637,2.637,0,0,1,1.978-.8,2.662,2.662,0,0,1,2.145,1.011,5.222,5.222,0,0,1,.838,3.325,5.286,5.286,0,0,1-.873,3.4A2.824,2.824,0,0,1,85.26.152a2.4,2.4,0,0,1-1.629-.536A2.588,2.588,0,0,1,82.834-1.986Zm3.727-3.6a1.878,1.878,0,0,0-.366-1.236,1.081,1.081,0,0,0-.847-.439.949.949,0,0,0-.759.36,1.838,1.838,0,0,0-.3,1.181A1.876,1.876,0,0,0,84.615-4.5a1.029,1.029,0,0,0,.82.39,1.018,1.018,0,0,0,.8-.375A1.638,1.638,0,0,0,86.561-5.584Zm6.533-.639h4.2v1.33H94.74V0H93.094ZM97.617-3.2a3.366,3.366,0,0,1,.4-1.588,2.775,2.775,0,0,1,1.146-1.172,3.4,3.4,0,0,1,1.655-.4,3.107,3.107,0,0,1,2.314.917,3.168,3.168,0,0,1,.9,2.317,3.206,3.206,0,0,1-.911,2.341,3.08,3.08,0,0,1-2.294.929A3.613,3.613,0,0,1,99.2-.246,2.653,2.653,0,0,1,98.021-1.38,3.778,3.778,0,0,1,97.617-3.2Zm1.688.088a2.062,2.062,0,0,0,.439,1.418,1.4,1.4,0,0,0,1.084.492,1.387,1.387,0,0,0,1.081-.492,2.09,2.09,0,0,0,.437-1.43,2.052,2.052,0,0,0-.437-1.406,1.387,1.387,0,0,0-1.081-.492,1.4,1.4,0,0,0-1.084.492A2.062,2.062,0,0,0,99.3-3.111ZM110.314,0H105.6V1.641h-1.336V-1.348h.674a3.653,3.653,0,0,0,.7-1.465,15.791,15.791,0,0,0,.328-3.41h5.021v4.875h.668V1.641h-1.342Zm-.955-1.348.006-3.521h-1.992a6.561,6.561,0,0,1-.82,3.521Zm2.795-4.875h1.752L115.395-1.8l1.453-4.418h1.705l-2.2,5.988L115.963.85a4.419,4.419,0,0,1-.413.832,1.8,1.8,0,0,1-.451.466,1.972,1.972,0,0,1-.627.278,3.256,3.256,0,0,1-.841.1,4.362,4.362,0,0,1-.932-.1l-.146-1.289a3.642,3.642,0,0,0,.7.076,1.033,1.033,0,0,0,.85-.337,2.338,2.338,0,0,0,.422-.858Zm13.518,8.748h-1.131a11.394,11.394,0,0,1-1.365-2.812,9.214,9.214,0,0,1-.469-2.824,8.869,8.869,0,0,1,.58-3.205,11.247,11.247,0,0,1,1.277-2.42h1.125a17.775,17.775,0,0,0-1.1,3.021,11.176,11.176,0,0,0-.3,2.64,11.265,11.265,0,0,0,.179,1.969,12.847,12.847,0,0,0,.489,1.916Q125.156,1.406,125.672,2.525Zm1.313-8.748h2.039l1.547,4.336,1.559-4.336h2.033V0h-1.4V-4.1L131.244,0h-1.406l-1.447-4.1V0h-1.406Zm9.275,0h5.514V0h-1.641V-4.887h-2.244v2.795a3.249,3.249,0,0,1-.246,1.5,1.282,1.282,0,0,1-.545.565,2.505,2.505,0,0,1-.961.135A6.743,6.743,0,0,1,135.1,0V-1.213q.053,0,.275.012.258.018.4.018.334,0,.41-.22a5.423,5.423,0,0,0,.076-1.222Zm7.113,0h1.646v2.279h2.355V-6.223h1.652V0h-1.652V-2.613H145.02V0h-1.646Zm10.453,0h1.664v1.488a2.362,2.362,0,0,0,.091.759.855.855,0,0,0,.387.428,1.425,1.425,0,0,0,.747.179,2.9,2.9,0,0,0,.984-.2V-6.223h1.646V0H157.7V-2.484a6.18,6.18,0,0,1-1.465.258,2.819,2.819,0,0,1-1.359-.325,1.77,1.77,0,0,1-.826-.832,3.408,3.408,0,0,1-.223-1.351ZM164.59-1.98l1.641.275a2.691,2.691,0,0,1-1,1.374,2.935,2.935,0,0,1-1.708.472,2.784,2.784,0,0,1-2.4-1.061,3.563,3.563,0,0,1-.615-2.145,3.436,3.436,0,0,1,.809-2.423,2.663,2.663,0,0,1,2.045-.876,2.762,2.762,0,0,1,2.191.917,4.057,4.057,0,0,1,.768,2.81h-4.125a1.666,1.666,0,0,0,.4,1.14,1.246,1.246,0,0,0,.949.407,1.008,1.008,0,0,0,.65-.211A1.3,1.3,0,0,0,164.59-1.98Zm.094-1.664a1.585,1.585,0,0,0-.369-1.087,1.133,1.133,0,0,0-.855-.372,1.144,1.144,0,0,0-.891.393,1.519,1.519,0,0,0-.346,1.066Zm3.422-2.578h5.514V0h-1.641V-4.887h-2.244v2.795a3.249,3.249,0,0,1-.246,1.5,1.282,1.282,0,0,1-.545.565,2.505,2.505,0,0,1-.961.135A6.743,6.743,0,0,1,166.945,0V-1.213q.053,0,.275.012.258.018.4.018.334,0,.41-.22a5.423,5.423,0,0,0,.076-1.222Zm6.721,8.748q.486-1.043.686-1.6a11.834,11.834,0,0,0,.369-1.283,13.416,13.416,0,0,0,.252-1.38,10.739,10.739,0,0,0,.082-1.339,11.281,11.281,0,0,0-.3-2.64,17.561,17.561,0,0,0-1.1-3.021h1.119a10.763,10.763,0,0,1,1.374,2.672A8.7,8.7,0,0,1,177.8-3.2a9.887,9.887,0,0,1-.387,2.625,11.048,11.048,0,0,1-1.447,3.1Z" transform="translate(-4729 -1156)" fill="#242549"/><path d="M0,0H15V15H0Z" transform="translate(-4539 -1167)" fill="#4361b4"/><path d="M0,0H15V15H0Z" transform="translate(-4750 -1167)" fill="#ffa726"/><path d="M-4.673-1.274V0h-4.81a3.312,3.312,0,0,1,.469-1.37A9.114,9.114,0,0,1-7.471-3.086,9.705,9.705,0,0,0-6.333-4.258,1.51,1.51,0,0,0-6.05-5.1.955.955,0,0,0-6.3-5.8a.921.921,0,0,0-.681-.247.914.914,0,0,0-.684.259,1.329,1.329,0,0,0-.293.859l-1.367-.137a2.241,2.241,0,0,1,.767-1.626,2.574,2.574,0,0,1,1.611-.493,2.329,2.329,0,0,1,1.665.571A1.874,1.874,0,0,1-4.673-5.2a2.473,2.473,0,0,1-.173.92,3.743,3.743,0,0,1-.549.916,8.79,8.79,0,0,1-.9.913q-.649.6-.823.791a2.368,2.368,0,0,0-.281.381Zm3.247-5.913A1.956,1.956,0,0,1,.2-6.445,4.738,4.738,0,0,1,.9-3.53,4.749,4.749,0,0,1,.2-.61,1.953,1.953,0,0,1-1.426.122a2.049,2.049,0,0,1-1.685-.8,4.748,4.748,0,0,1-.64-2.864,4.729,4.729,0,0,1,.7-2.91A1.953,1.953,0,0,1-1.426-7.187Zm0,1.138a.685.685,0,0,0-.444.159,1.065,1.065,0,0,0-.3.569A7.846,7.846,0,0,0-2.314-3.53,7.788,7.788,0,0,0-2.187-1.8a1.217,1.217,0,0,0,.32.627.682.682,0,0,0,.442.156.685.685,0,0,0,.444-.159,1.065,1.065,0,0,0,.3-.569A7.777,7.777,0,0,0-.537-3.53,7.788,7.788,0,0,0-.664-5.261a1.234,1.234,0,0,0-.32-.63A.676.676,0,0,0-1.426-6.05ZM2.109,0V-1.372H3.481V0ZM9.243-5.405l-1.328.146a.967.967,0,0,0-.254-.605.74.74,0,0,0-.532-.2.9.9,0,0,0-.735.391,3.29,3.29,0,0,0-.378,1.626A1.6,1.6,0,0,1,7.29-4.648a1.946,1.946,0,0,1,1.472.654A2.372,2.372,0,0,1,9.375-2.3,2.423,2.423,0,0,1,8.73-.542,2.206,2.206,0,0,1,7.075.122,2.213,2.213,0,0,1,5.293-.72a4.333,4.333,0,0,1-.7-2.761,4.415,4.415,0,0,1,.728-2.837,2.348,2.348,0,0,1,1.89-.869,2.006,2.006,0,0,1,1.35.457A2.139,2.139,0,0,1,9.243-5.405ZM6.133-2.412A1.555,1.555,0,0,0,6.44-1.379a.905.905,0,0,0,.7.364.8.8,0,0,0,.635-.3,1.5,1.5,0,0,0,.254-.977,1.572,1.572,0,0,0-.273-1.023.858.858,0,0,0-.684-.325.859.859,0,0,0-.669.31A1.346,1.346,0,0,0,6.133-2.412Z" transform="translate(-4671 -1261)" fill="#fff9ea"/><path d="M-5.8,0H-7.168V-5.171A4.73,4.73,0,0,1-8.94-4.131V-5.376a3.968,3.968,0,0,0,1.167-.667,2.533,2.533,0,0,0,.864-1.145H-5.8Zm4.37-7.187A1.956,1.956,0,0,1,.2-6.445,4.738,4.738,0,0,1,.9-3.53,4.749,4.749,0,0,1,.2-.61,1.953,1.953,0,0,1-1.426.122a2.049,2.049,0,0,1-1.685-.8,4.748,4.748,0,0,1-.64-2.864,4.729,4.729,0,0,1,.7-2.91A1.953,1.953,0,0,1-1.426-7.187Zm0,1.138a.685.685,0,0,0-.444.159,1.065,1.065,0,0,0-.3.569A7.846,7.846,0,0,0-2.314-3.53,7.788,7.788,0,0,0-2.187-1.8a1.217,1.217,0,0,0,.32.627.682.682,0,0,0,.442.156.685.685,0,0,0,.444-.159,1.065,1.065,0,0,0,.3-.569A7.777,7.777,0,0,0-.537-3.53,7.788,7.788,0,0,0-.664-5.261a1.234,1.234,0,0,0-.32-.63A.676.676,0,0,0-1.426-6.05ZM2.109,0V-1.372H3.481V0ZM5.771-3.862A1.6,1.6,0,0,1,5-4.48a1.614,1.614,0,0,1-.242-.862,1.733,1.733,0,0,1,.559-1.323A2.241,2.241,0,0,1,6.9-7.187a2.244,2.244,0,0,1,1.584.522,1.726,1.726,0,0,1,.564,1.323,1.561,1.561,0,0,1-.259.886,1.638,1.638,0,0,1-.728.593,1.918,1.918,0,0,1,.906.7,1.848,1.848,0,0,1,.31,1.06A2.157,2.157,0,0,1,8.65-.493a2.3,2.3,0,0,1-1.682.62A2.543,2.543,0,0,1,5.342-.386a2,2,0,0,1-.767-1.66,2.053,2.053,0,0,1,.288-1.067A1.855,1.855,0,0,1,5.771-3.862Zm.283-1.382a.859.859,0,0,0,.232.64.84.84,0,0,0,.618.229.85.85,0,0,0,.625-.232.863.863,0,0,0,.234-.642.835.835,0,0,0-.232-.618A.828.828,0,0,0,6.919-6.1a.851.851,0,0,0-.63.234A.838.838,0,0,0,6.055-5.244ZM5.928-2.178a1.26,1.26,0,0,0,.291.884.942.942,0,0,0,.725.317.911.911,0,0,0,.7-.305,1.264,1.264,0,0,0,.278-.881,1.141,1.141,0,0,0-.283-.808.937.937,0,0,0-.718-.305.858.858,0,0,0-.75.347A1.271,1.271,0,0,0,5.928-2.178Z" transform="translate(-4631 -1192)" fill="#fff9ea"/><path d="M-10.541,0V-8.59h1.734v3.381h3.4V-8.59h1.734V0H-5.408V-3.756h-3.4V0Zm8.268-3.2a3.366,3.366,0,0,1,.4-1.588A2.775,2.775,0,0,1-.724-5.959a3.4,3.4,0,0,1,1.655-.4,3.107,3.107,0,0,1,2.314.917,3.168,3.168,0,0,1,.9,2.317A3.206,3.206,0,0,1,3.237-.788,3.08,3.08,0,0,1,.943.141,3.613,3.613,0,0,1-.688-.246,2.653,2.653,0,0,1-1.869-1.38,3.778,3.778,0,0,1-2.273-3.2Zm1.688.088A2.062,2.062,0,0,0-.146-1.693,1.4,1.4,0,0,0,.938-1.2a1.387,1.387,0,0,0,1.081-.492,2.09,2.09,0,0,0,.437-1.43,2.052,2.052,0,0,0-.437-1.406A1.387,1.387,0,0,0,.938-5.021a1.4,1.4,0,0,0-1.084.492A2.062,2.062,0,0,0-.586-3.111Zm11.2-3.111V0H8.977V-2.584H8.824a1.686,1.686,0,0,0-.782.138,1.858,1.858,0,0,0-.554.583l-.1.123L6.3,0H4.389L5.566-1.8A1.982,1.982,0,0,1,6.48-2.7,1.564,1.564,0,0,1,5.358-3.22a1.785,1.785,0,0,1-.431-1.233,1.821,1.821,0,0,1,.284-1.031,1.421,1.421,0,0,1,.756-.583,4.773,4.773,0,0,1,1.4-.155ZM8.977-5.162H7.8a1.666,1.666,0,0,0-.914.185.694.694,0,0,0-.264.612.67.67,0,0,0,.3.615,1.918,1.918,0,0,0,.979.188H8.977Z" transform="translate(-4316 -1174)" fill="#242549"/><path d="M-9.123-8.59h5.936v7.148h.756V1.875H-3.873V0H-9.281V1.875h-1.441V-1.441H-10A7.957,7.957,0,0,0-9.293-4a32.779,32.779,0,0,0,.17-3.683Zm1.652,1.441A16.736,16.736,0,0,1-8.18-1.441h3.264V-7.148ZM2.473-1.98l1.641.275a2.691,2.691,0,0,1-1,1.374A2.935,2.935,0,0,1,1.406.141,2.784,2.784,0,0,1-1-.92a3.563,3.563,0,0,1-.615-2.145A3.436,3.436,0,0,1-.8-5.487a2.663,2.663,0,0,1,2.045-.876,2.762,2.762,0,0,1,2.191.917A4.057,4.057,0,0,1,4.2-2.637H.076a1.666,1.666,0,0,0,.4,1.14,1.246,1.246,0,0,0,.949.407,1.008,1.008,0,0,0,.65-.211A1.3,1.3,0,0,0,2.473-1.98Zm.094-1.664A1.585,1.585,0,0,0,2.2-4.731,1.133,1.133,0,0,0,1.342-5.1a1.144,1.144,0,0,0-.891.393A1.519,1.519,0,0,0,.105-3.645ZM5.479-6.223H7.119V-3.68a.849.849,0,0,0,.58-.252,3.33,3.33,0,0,0,.41-.9A2.375,2.375,0,0,1,8.8-6.006a1.705,1.705,0,0,1,.984-.258q.187,0,.65.029l.006,1.09a1.756,1.756,0,0,0-.832.123,1.7,1.7,0,0,0-.393.768,1.543,1.543,0,0,1-.826,1.061A2.261,2.261,0,0,1,9.709-1.84q.029.059.064.123L10.693,0H8.924L8.1-1.8a2.193,2.193,0,0,0-.437-.7.833.833,0,0,0-.548-.155V0H5.479Z" transform="translate(-4276 -1174)" fill="#242549"/><path d="M2.537-2.555V-3.627a2.471,2.471,0,0,0,.621-.056.753.753,0,0,0,.366-.27A.757.757,0,0,0,3.7-4.441a.815.815,0,0,0-.214-.542.8.8,0,0,0-.642-.249,1.2,1.2,0,0,0-.586.141,1.272,1.272,0,0,0-.469.668l-1.395-.3a1.926,1.926,0,0,1,.9-1.23,3.03,3.03,0,0,1,1.576-.41,2.647,2.647,0,0,1,1.743.516,1.617,1.617,0,0,1,.618,1.295,1.214,1.214,0,0,1-.267.806,2.481,2.481,0,0,1-.841.595,2.09,2.09,0,0,1,1.034.568,1.366,1.366,0,0,1,.343.949,1.544,1.544,0,0,1-.68,1.251A3.152,3.152,0,0,1,2.865.141Q.639.141.141-1.6l1.506-.275a1.246,1.246,0,0,0,1.2.914A1.086,1.086,0,0,0,3.589-1.2a.738.738,0,0,0,.278-.571.665.665,0,0,0-.29-.571,1.273,1.273,0,0,0-.759-.208ZM6.779-6.223H8.314v.914a2.3,2.3,0,0,1,.809-.762,2.229,2.229,0,0,1,1.131-.293,2.372,2.372,0,0,1,1.84.85,3.439,3.439,0,0,1,.756,2.367,3.543,3.543,0,0,1-.762,2.423,2.373,2.373,0,0,1-1.846.864,2.1,2.1,0,0,1-.935-.205,3.15,3.15,0,0,1-.882-.7V2.367H6.779ZM8.408-3.217a2.4,2.4,0,0,0,.416,1.55,1.273,1.273,0,0,0,1.014.5,1.19,1.19,0,0,0,.955-.46,2.37,2.37,0,0,0,.381-1.509,2.249,2.249,0,0,0-.393-1.453,1.214,1.214,0,0,0-.973-.475,1.263,1.263,0,0,0-1,.466A2.073,2.073,0,0,0,8.408-3.217Zm5.707-3.006H15.7v3.908l2.531-3.908h1.617V0H18.264V-3.979L15.7,0H14.115Zm6.68,0h5.631v1.33H24.434V0H22.787V-4.893H20.795ZM31.014-1.98l1.641.275a2.691,2.691,0,0,1-1,1.374,2.935,2.935,0,0,1-1.708.472,2.784,2.784,0,0,1-2.4-1.061,3.563,3.563,0,0,1-.615-2.145,3.436,3.436,0,0,1,.809-2.423,2.663,2.663,0,0,1,2.045-.876,2.762,2.762,0,0,1,2.191.917,4.057,4.057,0,0,1,.768,2.81H28.617a1.666,1.666,0,0,0,.4,1.14,1.246,1.246,0,0,0,.949.407,1.008,1.008,0,0,0,.65-.211A1.3,1.3,0,0,0,31.014-1.98Zm.094-1.664a1.585,1.585,0,0,0-.369-1.087,1.133,1.133,0,0,0-.855-.372,1.144,1.144,0,0,0-.891.393,1.519,1.519,0,0,0-.346,1.066Zm3.422-2.578h5.514V0H38.4V-4.887H36.158v2.795a3.249,3.249,0,0,1-.246,1.5,1.282,1.282,0,0,1-.545.565,2.505,2.505,0,0,1-.961.135A6.743,6.743,0,0,1,33.369,0V-1.213q.053,0,.275.012.258.018.4.018.334,0,.41-.22a5.423,5.423,0,0,0,.076-1.222Zm7.137,0h1.582v3.908l2.531-3.908H47.4V0H45.814V-3.979L43.248,0H41.666Zm10.77,0h3.6a2.8,2.8,0,0,1,1.658.4A1.414,1.414,0,0,1,58.248-4.6a1.433,1.433,0,0,1-.3.908,1.438,1.438,0,0,1-.759.516,1.612,1.612,0,0,1,.961.592,1.576,1.576,0,0,1,.316.949,1.478,1.478,0,0,1-.533,1.181A2.375,2.375,0,0,1,56.355,0h-3.92Zm1.658,2.584h1.061a2.376,2.376,0,0,0,1.11-.193.65.65,0,0,0,.343-.609A.582.582,0,0,0,56.288-5a2.685,2.685,0,0,0-1.134-.167H54.094Zm0,2.584h1.3a2.314,2.314,0,0,0,1.025-.17.628.628,0,0,0,.322-.609.634.634,0,0,0-.369-.63,3.914,3.914,0,0,0-1.436-.173h-.844Zm14.244-.475V0H62.566a3.975,3.975,0,0,1,.563-1.644A10.937,10.937,0,0,1,64.98-3.7a11.646,11.646,0,0,0,1.365-1.406,1.811,1.811,0,0,0,.34-1.008,1.146,1.146,0,0,0-.3-.847,1.1,1.1,0,0,0-.817-.3,1.1,1.1,0,0,0-.82.311A1.6,1.6,0,0,0,64.4-5.918L62.76-6.082a2.69,2.69,0,0,1,.92-1.951,3.089,3.089,0,0,1,1.934-.592,2.8,2.8,0,0,1,2,.686,2.249,2.249,0,0,1,.727,1.705,2.968,2.968,0,0,1-.208,1.1,4.492,4.492,0,0,1-.659,1.1,10.548,10.548,0,0,1-1.078,1.1q-.779.715-.987.949a2.842,2.842,0,0,0-.337.457Zm3.9-7.1a2.347,2.347,0,0,1,1.951.891,5.686,5.686,0,0,1,.838,3.5,5.7,5.7,0,0,1-.844,3.5,2.343,2.343,0,0,1-1.945.879,2.458,2.458,0,0,1-2.021-.964,5.7,5.7,0,0,1-.768-3.437,5.675,5.675,0,0,1,.844-3.492A2.343,2.343,0,0,1,72.234-8.625Zm0,1.365a.823.823,0,0,0-.533.19,1.278,1.278,0,0,0-.363.683,9.415,9.415,0,0,0-.17,2.15,9.346,9.346,0,0,0,.152,2.077,1.46,1.46,0,0,0,.384.753.819.819,0,0,0,.53.188.823.823,0,0,0,.533-.19,1.278,1.278,0,0,0,.363-.683,9.332,9.332,0,0,0,.17-2.145,9.346,9.346,0,0,0-.152-2.077,1.481,1.481,0,0,0-.384-.756A.811.811,0,0,0,72.234-7.26Zm9.451,5.73V0H75.914a3.975,3.975,0,0,1,.563-1.644A10.937,10.937,0,0,1,78.328-3.7a11.646,11.646,0,0,0,1.365-1.406,1.811,1.811,0,0,0,.34-1.008,1.146,1.146,0,0,0-.3-.847,1.1,1.1,0,0,0-.817-.3,1.1,1.1,0,0,0-.82.311,1.6,1.6,0,0,0-.352,1.031l-1.641-.164a2.69,2.69,0,0,1,.92-1.951,3.089,3.089,0,0,1,1.934-.592,2.8,2.8,0,0,1,2,.686,2.249,2.249,0,0,1,.727,1.705,2.968,2.968,0,0,1-.208,1.1,4.492,4.492,0,0,1-.659,1.1,10.548,10.548,0,0,1-1.078,1.1q-.779.715-.987.949a2.842,2.842,0,0,0-.337.457Zm3.9-7.1a2.347,2.347,0,0,1,1.951.891,5.686,5.686,0,0,1,.838,3.5,5.7,5.7,0,0,1-.844,3.5,2.343,2.343,0,0,1-1.945.879,2.458,2.458,0,0,1-2.021-.964,5.7,5.7,0,0,1-.768-3.437,5.675,5.675,0,0,1,.844-3.492A2.343,2.343,0,0,1,85.582-8.625Zm0,1.365a.823.823,0,0,0-.533.19,1.278,1.278,0,0,0-.363.683,9.415,9.415,0,0,0-.17,2.15,9.346,9.346,0,0,0,.152,2.077,1.46,1.46,0,0,0,.384.753.819.819,0,0,0,.53.188.823.823,0,0,0,.533-.19,1.278,1.278,0,0,0,.363-.683,9.332,9.332,0,0,0,.17-2.145A9.346,9.346,0,0,0,86.5-6.313a1.481,1.481,0,0,0-.384-.756A.811.811,0,0,0,85.582-7.26Zm7.512,1.037h4.2v1.33H94.74V0H93.094ZM97.617-3.2a3.366,3.366,0,0,1,.4-1.588,2.775,2.775,0,0,1,1.146-1.172,3.4,3.4,0,0,1,1.655-.4,3.107,3.107,0,0,1,2.314.917,3.168,3.168,0,0,1,.9,2.317,3.206,3.206,0,0,1-.911,2.341,3.08,3.08,0,0,1-2.294.929A3.613,3.613,0,0,1,99.2-.246,2.653,2.653,0,0,1,98.021-1.38,3.778,3.778,0,0,1,97.617-3.2Zm1.688.088a2.062,2.062,0,0,0,.439,1.418,1.4,1.4,0,0,0,1.084.492,1.387,1.387,0,0,0,1.081-.492,2.09,2.09,0,0,0,.437-1.43,2.052,2.052,0,0,0-.437-1.406,1.387,1.387,0,0,0-1.081-.492,1.4,1.4,0,0,0-1.084.492A2.062,2.062,0,0,0,99.3-3.111ZM110.314,0H105.6V1.641h-1.336V-1.348h.674a3.653,3.653,0,0,0,.7-1.465,15.791,15.791,0,0,0,.328-3.41h5.021v4.875h.668V1.641h-1.342Zm-.955-1.348.006-3.521h-1.992a6.561,6.561,0,0,1-.82,3.521Zm2.795-4.875h1.752L115.395-1.8l1.453-4.418h1.705l-2.2,5.988L115.963.85a4.419,4.419,0,0,1-.413.832,1.8,1.8,0,0,1-.451.466,1.972,1.972,0,0,1-.627.278,3.256,3.256,0,0,1-.841.1,4.362,4.362,0,0,1-.932-.1l-.146-1.289a3.642,3.642,0,0,0,.7.076,1.033,1.033,0,0,0,.85-.337,2.338,2.338,0,0,0,.422-.858Zm13.518,8.748h-1.131a11.394,11.394,0,0,1-1.365-2.812,9.214,9.214,0,0,1-.469-2.824,8.869,8.869,0,0,1,.58-3.205,11.247,11.247,0,0,1,1.277-2.42h1.125a17.775,17.775,0,0,0-1.1,3.021,11.176,11.176,0,0,0-.3,2.64,11.265,11.265,0,0,0,.179,1.969,12.847,12.847,0,0,0,.489,1.916Q125.156,1.406,125.672,2.525Zm1.313-8.748h2.039l1.547,4.336,1.559-4.336h2.033V0h-1.4V-4.1L131.244,0h-1.406l-1.447-4.1V0h-1.406Zm9.275,0h5.514V0h-1.641V-4.887h-2.244v2.795a3.249,3.249,0,0,1-.246,1.5,1.282,1.282,0,0,1-.545.565,2.505,2.505,0,0,1-.961.135A6.743,6.743,0,0,1,135.1,0V-1.213q.053,0,.275.012.258.018.4.018.334,0,.41-.22a5.423,5.423,0,0,0,.076-1.222Zm7.113,0h1.646v2.279h2.355V-6.223h1.652V0h-1.652V-2.613H145.02V0h-1.646Zm10.453,0h1.664v1.488a2.362,2.362,0,0,0,.091.759.855.855,0,0,0,.387.428,1.425,1.425,0,0,0,.747.179,2.9,2.9,0,0,0,.984-.2V-6.223h1.646V0H157.7V-2.484a6.18,6.18,0,0,1-1.465.258,2.819,2.819,0,0,1-1.359-.325,1.77,1.77,0,0,1-.826-.832,3.408,3.408,0,0,1-.223-1.351ZM164.59-1.98l1.641.275a2.691,2.691,0,0,1-1,1.374,2.935,2.935,0,0,1-1.708.472,2.784,2.784,0,0,1-2.4-1.061,3.563,3.563,0,0,1-.615-2.145,3.436,3.436,0,0,1,.809-2.423,2.663,2.663,0,0,1,2.045-.876,2.762,2.762,0,0,1,2.191.917,4.057,4.057,0,0,1,.768,2.81h-4.125a1.666,1.666,0,0,0,.4,1.14,1.246,1.246,0,0,0,.949.407,1.008,1.008,0,0,0,.65-.211A1.3,1.3,0,0,0,164.59-1.98Zm.094-1.664a1.585,1.585,0,0,0-.369-1.087,1.133,1.133,0,0,0-.855-.372,1.144,1.144,0,0,0-.891.393,1.519,1.519,0,0,0-.346,1.066Zm3.422-2.578h5.514V0h-1.641V-4.887h-2.244v2.795a3.249,3.249,0,0,1-.246,1.5,1.282,1.282,0,0,1-.545.565,2.505,2.505,0,0,1-.961.135A6.743,6.743,0,0,1,166.945,0V-1.213q.053,0,.275.012.258.018.4.018.334,0,.41-.22a5.423,5.423,0,0,0,.076-1.222Zm6.721,8.748q.486-1.043.686-1.6a11.834,11.834,0,0,0,.369-1.283,13.416,13.416,0,0,0,.252-1.38,10.739,10.739,0,0,0,.082-1.339,11.281,11.281,0,0,0-.3-2.64,17.561,17.561,0,0,0-1.1-3.021h1.119a10.763,10.763,0,0,1,1.374,2.672A8.7,8.7,0,0,1,177.8-3.2a9.887,9.887,0,0,1-.387,2.625,11.048,11.048,0,0,1-1.447,3.1Z" transform="translate(-4518 -1156)" fill="#242549"/><path d="M-4.673-1.274V0h-4.81a3.312,3.312,0,0,1,.469-1.37A9.114,9.114,0,0,1-7.471-3.086,9.705,9.705,0,0,0-6.333-4.258,1.51,1.51,0,0,0-6.05-5.1.955.955,0,0,0-6.3-5.8a.921.921,0,0,0-.681-.247.914.914,0,0,0-.684.259,1.329,1.329,0,0,0-.293.859l-1.367-.137a2.241,2.241,0,0,1,.767-1.626,2.574,2.574,0,0,1,1.611-.493,2.329,2.329,0,0,1,1.665.571A1.874,1.874,0,0,1-4.673-5.2a2.473,2.473,0,0,1-.173.92,3.743,3.743,0,0,1-.549.916,8.79,8.79,0,0,1-.9.913q-.649.6-.823.791a2.368,2.368,0,0,0-.281.381Zm.957-.381L-2.388-1.8a.961.961,0,0,0,.254.6.753.753,0,0,0,.542.2A.884.884,0,0,0-.869-1.4,3.327,3.327,0,0,0-.488-3.018a1.638,1.638,0,0,1-1.294.6A1.934,1.934,0,0,1-3.24-3.069a2.377,2.377,0,0,1-.613-1.7,2.413,2.413,0,0,1,.647-1.755,2.2,2.2,0,0,1,1.648-.667,2.218,2.218,0,0,1,1.787.842,4.352,4.352,0,0,1,.7,2.771A4.405,4.405,0,0,1,.2-.742,2.354,2.354,0,0,1-1.694.127,2,2,0,0,1-3.052-.32,2.157,2.157,0,0,1-3.716-1.655Zm3.105-3a1.565,1.565,0,0,0-.305-1.03.9.9,0,0,0-.706-.366.791.791,0,0,0-.632.3,1.532,1.532,0,0,0-.251.984,1.563,1.563,0,0,0,.273,1.018.858.858,0,0,0,.684.325.849.849,0,0,0,.667-.312A1.365,1.365,0,0,0-.61-4.653ZM2.109,0V-1.372H3.481V0ZM7.285,0V-1.44H4.355v-1.2L7.461-7.187H8.613v4.541H9.5V-1.44H8.613V0Zm0-2.646V-5.093L5.64-2.646Z" transform="translate(-4711 -1330)" fill="#fff9ea"/><path d="M-9.428-1.236V-3.469h-2.25V-5.01h2.25V-7.242h1.5V-5.01h2.256v1.541H-7.928v2.232Zm7.553-7.389a2.347,2.347,0,0,1,1.951.891,5.686,5.686,0,0,1,.838,3.5A5.7,5.7,0,0,1,.07-.732,2.343,2.343,0,0,1-1.875.146,2.458,2.458,0,0,1-3.9-.817a5.7,5.7,0,0,1-.768-3.437A5.675,5.675,0,0,1-3.82-7.746,2.343,2.343,0,0,1-1.875-8.625Zm0,1.365a.823.823,0,0,0-.533.19,1.278,1.278,0,0,0-.363.683,9.415,9.415,0,0,0-.17,2.15,9.346,9.346,0,0,0,.152,2.077,1.46,1.46,0,0,0,.384.753.819.819,0,0,0,.53.188.823.823,0,0,0,.533-.19,1.278,1.278,0,0,0,.363-.683,9.332,9.332,0,0,0,.17-2.145A9.346,9.346,0,0,0-.961-6.313a1.481,1.481,0,0,0-.384-.756A.811.811,0,0,0-1.875-7.26Zm3.9.791A2.477,2.477,0,0,1,2.534-8.18a1.766,1.766,0,0,1,1.374-.557,1.807,1.807,0,0,1,1.4.554,2.475,2.475,0,0,1,.507,1.714,2.477,2.477,0,0,1-.507,1.711A1.766,1.766,0,0,1,3.938-4.2a1.807,1.807,0,0,1-1.4-.554A2.475,2.475,0,0,1,2.027-6.469ZM3.311-6.48A2.22,2.22,0,0,0,3.5-5.355a.466.466,0,0,0,.4.211.471.471,0,0,0,.41-.211A2.28,2.28,0,0,0,4.506-6.48,2.242,2.242,0,0,0,4.318-7.6a.467.467,0,0,0-.41-.217.466.466,0,0,0-.4.211A2.22,2.22,0,0,0,3.311-6.48ZM5.162.328H3.943L8.52-8.736H9.7Zm2.66-2.256a2.477,2.477,0,0,1,.507-1.711A1.78,1.78,0,0,1,9.715-4.2a1.788,1.788,0,0,1,1.392.557,2.477,2.477,0,0,1,.507,1.711,2.487,2.487,0,0,1-.507,1.717A1.766,1.766,0,0,1,9.732.346a1.8,1.8,0,0,1-1.4-.557A2.487,2.487,0,0,1,7.822-1.928Zm1.283-.006A2.183,2.183,0,0,0,9.3-.814.462.462,0,0,0,9.7-.6a.457.457,0,0,0,.4-.211A2.22,2.22,0,0,0,10.3-1.934a2.28,2.28,0,0,0-.187-1.125A.471.471,0,0,0,9.7-3.27a.457.457,0,0,0-.4.211A2.22,2.22,0,0,0,9.105-1.934Z" transform="translate(-4714 -1350)" fill="#242549"/></g></g></svg>