<svg xmlns="http://www.w3.org/2000/svg" width="290.512" height="250.033" viewBox="0 0 290.512 250.033"><g transform="translate(-23.28 -569.769)"><g transform="translate(56.978 585.361)"><line y2="171.546" transform="translate(255.814 0)" stroke-width="2" stroke="#e3ddd5" stroke-linecap="round" stroke-linejoin="round" fill="none"/><line y2="171.546" transform="translate(205.253 0)" stroke-width="2" stroke="#e3ddd5" stroke-linecap="round" stroke-linejoin="round" fill="none"/><line y2="171.546" transform="translate(154.693 0)" stroke-width="2" stroke="#e3ddd5" stroke-linecap="round" stroke-linejoin="round" fill="none"/><line y2="171.546" transform="translate(104.131 0)" stroke-width="2" stroke="#e3ddd5" stroke-linecap="round" stroke-linejoin="round" fill="none"/><line y2="171.546" transform="translate(53.57 0)" stroke-width="2" stroke="#e3ddd5" stroke-linecap="round" stroke-linejoin="round" fill="none"/><line y2="171.546" transform="translate(3.01 0)" stroke-width="2" stroke="#e3ddd5" stroke-linecap="round" stroke-linejoin="round" fill="none"/><line x2="255.814" transform="translate(0 129.412)" stroke-width="2" stroke="#e3ddd5" stroke-linecap="round" stroke-linejoin="round" fill="none"/><line x2="255.814" transform="translate(0 87.278)" stroke-width="2" stroke="#e3ddd5" stroke-linecap="round" stroke-linejoin="round" fill="none"/><line x2="255.814" transform="translate(0 45.144)" stroke-width="2" stroke="#e3ddd5" stroke-linecap="round" stroke-linejoin="round" fill="none"/><line x2="255.814" transform="translate(0 3.01)" stroke-width="2" stroke="#e3ddd5" stroke-linecap="round" stroke-linejoin="round" fill="none"/></g><path d="M-3072.521,463.617h38.588a3.1,3.1,0,0,1,3,3.194v59.631h-44.579V466.811A3.1,3.1,0,0,1-3072.521,463.617Z" transform="translate(3138.495 230.221)" fill="#3f51b5"/><path d="M-3072.521,491.345h38.588a3.1,3.1,0,0,1,3,3.194v31.945h-44.579V494.539A3.1,3.1,0,0,1-3072.521,491.345Z" transform="translate(3138.495 230.179)" fill="#ff4081"/><path d="M-3021.883,421.314h38.589a3.1,3.1,0,0,1,3,3.2v51.407h-44.58V424.509A3.1,3.1,0,0,1-3021.883,421.314Z" transform="translate(3138.417 230.286)" fill="#3f51b5"/><path d="M-3021.883,471.852h38.589a3.1,3.1,0,0,1,3,3.194v51.408h-44.58V475.046A3.1,3.1,0,0,1-3021.883,471.852Z" transform="translate(3138.417 230.208)" fill="#ff4081"/><path d="M-2971.244,395.943h38.588a3.1,3.1,0,0,1,3,3.194v57.77h-44.579v-57.77A3.1,3.1,0,0,1-2971.244,395.943Z" transform="translate(3138.34 230.324)" fill="#3f51b5"/><path d="M-2971.244,452.852h38.588a3.1,3.1,0,0,1,3,3.194v70.379h-44.579V456.046A3.1,3.1,0,0,1-2971.244,452.852Z" transform="translate(3138.34 230.238)" fill="#ff4081"/><path d="M-2920.606,450.766h38.589a3.1,3.1,0,0,1,3,3.194v57.77h-44.58V453.96A3.1,3.1,0,0,1-2920.606,450.766Z" transform="translate(3138.262 230.241)" fill="#3f51b5"/><path d="M-2920.606,480.286h38.589a3.1,3.1,0,0,1,3,3.194v43.477h-44.58V483.48A3.1,3.1,0,0,1-2920.606,480.286Z" transform="translate(3138.262 230.196)" fill="#ff4081"/><path d="M-2869.967,484.585h38.588a3.1,3.1,0,0,1,3,3.194v39.185h-44.579V487.779A3.1,3.1,0,0,1-2869.967,484.585Z" transform="translate(3138.185 230.189)" fill="#3f51b5"/><path d="M-2869.967,500.318h38.588a3.1,3.1,0,0,1,3,3.194V526.5h-44.579V503.512A3.1,3.1,0,0,1-2869.967,500.318Z" transform="translate(3138.185 230.165)" fill="#ff4081"/><path d="M-5.61-11.858c0-1.1.484-1.518,1.254-1.518s1.254.418,1.254,1.518v8.316c0,1.1-.484,1.518-1.254,1.518S-5.61-2.442-5.61-3.542ZM-8.03-3.7c0,2.464,1.3,3.872,3.674,3.872S-.682-1.232-.682-3.7V-11.7c0-2.464-1.3-3.872-3.674-3.872S-8.03-14.168-8.03-11.7Z" transform="translate(39.988 759.138)" fill="#242549"/><path d="M-14.652-11.748h1.87V0h2.42V-15.4H-11.99a2.4,2.4,0,0,1-2.662,1.936Zm9.042-.11c0-1.1.484-1.518,1.254-1.518s1.254.418,1.254,1.518v8.316c0,1.1-.484,1.518-1.254,1.518S-5.61-2.442-5.61-3.542ZM-8.03-3.7c0,2.464,1.3,3.872,3.674,3.872S-.682-1.232-.682-3.7V-11.7c0-2.464-1.3-3.872-3.674-3.872S-8.03-14.168-8.03-11.7Z" transform="translate(40 717.005)" fill="#242549"/><path d="M-11.352-11.616c0,4.444-4.8,5.192-4.8,9.724V0h7V-2.2h-4.576a1.665,1.665,0,0,1-.022-.33c0-2.53,4.818-4.334,4.818-9.174,0-2.464-1.232-3.872-3.608-3.872s-3.608,1.408-3.608,3.872v1.5h2.288v-1.65c0-1.1.484-1.518,1.254-1.518S-11.352-13-11.352-11.616Zm5.742-.242c0-1.1.484-1.518,1.254-1.518s1.254.418,1.254,1.518v8.316c0,1.1-.484,1.518-1.254,1.518S-5.61-2.442-5.61-3.542ZM-8.03-3.7c0,2.464,1.3,3.872,3.674,3.872S-.682-1.232-.682-3.7V-11.7c0-2.464-1.3-3.872-3.674-3.872S-8.03-14.168-8.03-11.7Z" transform="translate(40 674.87)" fill="#242549"/><path d="M-11.484-10.758c0,1.232-.55,1.628-1.452,1.628h-.946v2.2h.814c1.1,0,1.584.528,1.584,1.958v1.21c0,1.364-.484,1.738-1.254,1.738s-1.254-.418-1.254-1.518v-1.43H-16.28V-3.7c0,2.464,1.232,3.872,3.608,3.872S-9.064-1.232-9.064-3.7v-1.21c0-1.562-.484-2.706-1.694-3.234,1.166-.484,1.694-1.518,1.694-3.168v-.4c0-2.464-1.232-3.872-3.608-3.872S-16.28-14.168-16.28-11.7v.836h2.288v-.99c0-1.1.484-1.518,1.254-1.518s1.254.374,1.254,1.76Zm5.874-1.1c0-1.1.484-1.518,1.254-1.518s1.254.418,1.254,1.518v8.316c0,1.1-.484,1.518-1.254,1.518S-5.61-2.442-5.61-3.542ZM-8.03-3.7c0,2.464,1.3,3.872,3.674,3.872S-.682-1.232-.682-3.7V-11.7c0-2.464-1.3-3.872-3.674-3.872S-8.03-14.168-8.03-11.7Z" transform="translate(40 632.737)" fill="#242549"/><path d="M-16.72-2.794h4.664V0H-9.68V-2.794h1.144v-2.2H-9.68V-15.4h-2.64l-4.4,10.406Zm2.222-2.2,2.442-5.786v5.786Zm8.888-6.864c0-1.1.484-1.518,1.254-1.518s1.254.418,1.254,1.518v8.316c0,1.1-.484,1.518-1.254,1.518S-5.61-2.442-5.61-3.542ZM-8.03-3.7c0,2.464,1.3,3.872,3.674,3.872S-.682-1.232-.682-3.7V-11.7c0-2.464-1.3-3.872-3.674-3.872S-8.03-14.168-8.03-11.7Z" transform="translate(40 590.603)" fill="#242549"/><path d="M1.564-8.59H7.5v7.148h.756V1.875H6.814V0H1.406V1.875H-.035V-1.441H.691A7.957,7.957,0,0,0,1.395-4a32.779,32.779,0,0,0,.17-3.683ZM3.217-7.148a16.736,16.736,0,0,1-.709,5.707H5.771V-7.148ZM9.176-3.2a3.366,3.366,0,0,1,.4-1.588,2.775,2.775,0,0,1,1.146-1.172,3.4,3.4,0,0,1,1.655-.4,3.107,3.107,0,0,1,2.314.917,3.168,3.168,0,0,1,.9,2.317,3.206,3.206,0,0,1-.911,2.341,3.08,3.08,0,0,1-2.294.929,3.613,3.613,0,0,1-1.632-.387A2.653,2.653,0,0,1,9.58-1.38,3.778,3.778,0,0,1,9.176-3.2Zm1.688.088A2.062,2.062,0,0,0,11.3-1.693a1.4,1.4,0,0,0,1.084.492,1.387,1.387,0,0,0,1.081-.492,2.09,2.09,0,0,0,.437-1.43,2.052,2.052,0,0,0-.437-1.406,1.387,1.387,0,0,0-1.081-.492,1.4,1.4,0,0,0-1.084.492A2.062,2.062,0,0,0,10.863-3.111Zm6.17-3.111h5.514V0H20.906V-4.887H18.662v2.795a3.249,3.249,0,0,1-.246,1.5,1.282,1.282,0,0,1-.545.565,2.505,2.505,0,0,1-.961.135A6.743,6.743,0,0,1,15.873,0V-1.213q.053,0,.275.012.258.018.4.018.334,0,.41-.22a5.423,5.423,0,0,0,.076-1.222Zm12.51,0V0H27.908V-2.584h-.152a1.686,1.686,0,0,0-.782.138,1.858,1.858,0,0,0-.554.583l-.1.123L25.236,0H23.32L24.5-1.8a1.982,1.982,0,0,1,.914-.891A1.564,1.564,0,0,1,24.29-3.22a1.785,1.785,0,0,1-.431-1.233,1.821,1.821,0,0,1,.284-1.031,1.421,1.421,0,0,1,.756-.583,4.773,4.773,0,0,1,1.4-.155ZM27.908-5.162H26.73a1.666,1.666,0,0,0-.914.185.694.694,0,0,0-.264.612.67.67,0,0,0,.3.615,1.918,1.918,0,0,0,.979.188h1.078ZM34.535,0V-8.59h2.6L38.689-2.73,40.23-8.59h2.6V0H41.221V-6.762L39.516,0h-1.67l-1.7-6.762V0Zm9.229-6.223h1.752L47-1.8l1.453-4.418h1.705l-2.2,5.988L47.572.85a4.419,4.419,0,0,1-.413.832,1.8,1.8,0,0,1-.451.466,1.972,1.972,0,0,1-.627.278,3.256,3.256,0,0,1-.841.1,4.362,4.362,0,0,1-.932-.1l-.146-1.289a3.642,3.642,0,0,0,.7.076,1.033,1.033,0,0,0,.85-.337,2.338,2.338,0,0,0,.422-.858ZM53.941,0V-2.654a.729.729,0,0,0-.448.144,3.681,3.681,0,0,0-.442.712L52.266,0H50.5l.879-1.717q.668-1.289,1.389-1.477a1.561,1.561,0,0,1-.826-1.061,1.728,1.728,0,0,0-.4-.765,1.718,1.718,0,0,0-.835-.126v-1.09q.486-.029.68-.029a1.731,1.731,0,0,1,.932.24,2.33,2.33,0,0,1,.727,1.2,3.88,3.88,0,0,0,.422.94.6.6,0,0,0,.475.208V-6.223h1.635V-3.68a.57.57,0,0,0,.478-.205,3.908,3.908,0,0,0,.419-.943,2.377,2.377,0,0,1,.712-1.189,1.747,1.747,0,0,1,.97-.246q.17,0,.656.029v1.09a1.719,1.719,0,0,0-.832.126,1.7,1.7,0,0,0-.4.765,1.561,1.561,0,0,1-.826,1.061q.721.188,1.389,1.477L59.021,0h-1.77l-.779-1.8a2.219,2.219,0,0,0-.39-.656.775.775,0,0,0-.507-.2V0Zm5.438-6.223h1.664v1.488a2.362,2.362,0,0,0,.091.759.855.855,0,0,0,.387.428,1.425,1.425,0,0,0,.747.179,2.9,2.9,0,0,0,.984-.2V-6.223H64.9V0H63.252V-2.484a6.18,6.18,0,0,1-1.465.258,2.819,2.819,0,0,1-1.359-.325,1.77,1.77,0,0,1-.826-.832,3.408,3.408,0,0,1-.223-1.351Zm7.119,0H68.08v3.908l2.531-3.908h1.617V0H70.646V-3.979L68.08,0H66.5Zm7.354,0H75.5v2.279h2.355V-6.223h1.652V0H77.854V-2.613H75.5V0H73.852Z" transform="translate(78.53 808.36)" fill="#3f51b5"/><rect width="13.979" height="13.979" rx="2.8" transform="translate(61.685 797.73)" fill="#3f51b5"/><path d="M1.564-8.59H7.5v7.148h.756V1.875H6.814V0H1.406V1.875H-.035V-1.441H.691A7.957,7.957,0,0,0,1.395-4a32.779,32.779,0,0,0,.17-3.683ZM3.217-7.148a16.736,16.736,0,0,1-.709,5.707H5.771V-7.148ZM9.176-3.2a3.366,3.366,0,0,1,.4-1.588,2.775,2.775,0,0,1,1.146-1.172,3.4,3.4,0,0,1,1.655-.4,3.107,3.107,0,0,1,2.314.917,3.168,3.168,0,0,1,.9,2.317,3.206,3.206,0,0,1-.911,2.341,3.08,3.08,0,0,1-2.294.929,3.613,3.613,0,0,1-1.632-.387A2.653,2.653,0,0,1,9.58-1.38,3.778,3.778,0,0,1,9.176-3.2Zm1.688.088A2.062,2.062,0,0,0,11.3-1.693a1.4,1.4,0,0,0,1.084.492,1.387,1.387,0,0,0,1.081-.492,2.09,2.09,0,0,0,.437-1.43,2.052,2.052,0,0,0-.437-1.406,1.387,1.387,0,0,0-1.081-.492,1.4,1.4,0,0,0-1.084.492A2.062,2.062,0,0,0,10.863-3.111Zm6.17-3.111h5.514V0H20.906V-4.887H18.662v2.795a3.249,3.249,0,0,1-.246,1.5,1.282,1.282,0,0,1-.545.565,2.505,2.505,0,0,1-.961.135A6.743,6.743,0,0,1,15.873,0V-1.213q.053,0,.275.012.258.018.4.018.334,0,.41-.22a5.423,5.423,0,0,0,.076-1.222Zm12.51,0V0H27.908V-2.584h-.152a1.686,1.686,0,0,0-.782.138,1.858,1.858,0,0,0-.554.583l-.1.123L25.236,0H23.32L24.5-1.8a1.982,1.982,0,0,1,.914-.891A1.564,1.564,0,0,1,24.29-3.22a1.785,1.785,0,0,1-.431-1.233,1.821,1.821,0,0,1,.284-1.031,1.421,1.421,0,0,1,.756-.583,4.773,4.773,0,0,1,1.4-.155ZM27.908-5.162H26.73a1.666,1.666,0,0,0-.914.185.694.694,0,0,0-.264.612.67.67,0,0,0,.3.615,1.918,1.918,0,0,0,.979.188h1.078ZM39.955-8.59v3.656a.875.875,0,0,0,.656-.322,6.18,6.18,0,0,0,.615-1.312,3.724,3.724,0,0,1,1.055-1.711,3.266,3.266,0,0,1,1.775-.363l.252-.006v1.283l-.252-.006a1.714,1.714,0,0,0-.773.132,1,1,0,0,0-.4.4,8.55,8.55,0,0,0-.451,1.107,3.927,3.927,0,0,1-.343.744,1.758,1.758,0,0,1-.653.563,1.826,1.826,0,0,1,.958.665,8.92,8.92,0,0,1,.829,1.4L44.4,0H42.357L41.326-2.221a1.405,1.405,0,0,0-.1-.182q-.047-.088-.211-.4a2.788,2.788,0,0,0-.539-.785.8.8,0,0,0-.521-.17V0H38.262V-3.762a.83.83,0,0,0-.516.164,2.524,2.524,0,0,0-.539.791q-.182.352-.217.4-.053.088-.1.182L35.859,0H33.82l1.172-2.355a9.15,9.15,0,0,1,.817-1.386,1.822,1.822,0,0,1,.976-.683,1.772,1.772,0,0,1-.653-.56,4.019,4.019,0,0,1-.349-.747,9.307,9.307,0,0,0-.442-1.1.985.985,0,0,0-.4-.41,1.8,1.8,0,0,0-.812-.135q-.07,0-.223.006V-8.648l.252.006a3.265,3.265,0,0,1,1.793.369A3.8,3.8,0,0,1,36.99-6.568a6.34,6.34,0,0,0,.618,1.315.87.87,0,0,0,.653.319V-8.59ZM49-1.98l1.641.275a2.691,2.691,0,0,1-1,1.374A2.935,2.935,0,0,1,47.93.141a2.784,2.784,0,0,1-2.4-1.061,3.563,3.563,0,0,1-.615-2.145,3.436,3.436,0,0,1,.809-2.423,2.663,2.663,0,0,1,2.045-.876,2.762,2.762,0,0,1,2.191.917,4.057,4.057,0,0,1,.768,2.81H46.6A1.666,1.666,0,0,0,47-1.5a1.246,1.246,0,0,0,.949.407A1.008,1.008,0,0,0,48.6-1.3,1.3,1.3,0,0,0,49-1.98Zm.094-1.664a1.585,1.585,0,0,0-.369-1.087,1.133,1.133,0,0,0-.855-.372,1.144,1.144,0,0,0-.891.393,1.519,1.519,0,0,0-.346,1.066ZM52-6.223h1.646v2.279H56V-6.223h1.652V0H56V-2.613H53.648V0H52Zm7.277,0H60.8V-1.33h1.893V-6.223h1.518V-1.33h1.916V-6.223h1.518V-1.33h.674V1.641h-1.33V0H59.279Zm10.119,0H70.98v3.908l2.531-3.908h1.617V0H73.547V-3.979L70.98,0H69.4Zm7.354,0H78.4v2.279h2.355V-6.223h1.652V0H80.754V-2.613H78.4V0H76.752Z" transform="translate(195.87 808.36)" fill="#ff4081"/><rect width="13.979" height="13.979" rx="2.8" transform="translate(179.024 797.73)" fill="#ff4081"/><path d="M.879-8.59H4.313A9.919,9.919,0,0,1,5.833-8.5a2.234,2.234,0,0,1,.9.354,2.2,2.2,0,0,1,.659.718,1.945,1.945,0,0,1,.264,1A2,2,0,0,1,7.327-5.32a2.015,2.015,0,0,1-.882.756,2.261,2.261,0,0,1,1.207.779A2.069,2.069,0,0,1,8.074-2.49,2.553,2.553,0,0,1,7.8-1.351a2.3,2.3,0,0,1-.744.885,2.458,2.458,0,0,1-1.163.407Q5.461-.012,3.8,0H.879ZM2.613-7.16v1.986H3.75q1.014,0,1.26-.029a1.146,1.146,0,0,0,.7-.308.907.907,0,0,0,.255-.671.942.942,0,0,0-.22-.647,1,1,0,0,0-.653-.3Q4.834-7.16,3.609-7.16Zm0,3.416v2.3H4.219A7.846,7.846,0,0,0,5.408-1.5a1.075,1.075,0,0,0,.63-.343,1.055,1.055,0,0,0,.243-.729,1.121,1.121,0,0,0-.187-.656,1.06,1.06,0,0,0-.542-.393,5.892,5.892,0,0,0-1.538-.123ZM9.146-3.2a3.366,3.366,0,0,1,.4-1.588A2.775,2.775,0,0,1,10.7-5.959a3.4,3.4,0,0,1,1.655-.4,3.107,3.107,0,0,1,2.314.917,3.168,3.168,0,0,1,.9,2.317,3.206,3.206,0,0,1-.911,2.341,3.08,3.08,0,0,1-2.294.929,3.613,3.613,0,0,1-1.632-.387A2.653,2.653,0,0,1,9.551-1.38,3.778,3.778,0,0,1,9.146-3.2Zm1.688.088a2.062,2.062,0,0,0,.439,1.418,1.4,1.4,0,0,0,1.084.492,1.387,1.387,0,0,0,1.081-.492,2.09,2.09,0,0,0,.437-1.43,2.052,2.052,0,0,0-.437-1.406,1.387,1.387,0,0,0-1.081-.492,1.4,1.4,0,0,0-1.084.492A2.062,2.062,0,0,0,10.834-3.111Zm7.541.557V-3.627A2.471,2.471,0,0,0,19-3.683a.753.753,0,0,0,.366-.27.757.757,0,0,0,.173-.489.815.815,0,0,0-.214-.542.8.8,0,0,0-.642-.249,1.2,1.2,0,0,0-.586.141,1.272,1.272,0,0,0-.469.668l-1.395-.3a1.926,1.926,0,0,1,.9-1.23,3.03,3.03,0,0,1,1.576-.41,2.647,2.647,0,0,1,1.743.516,1.617,1.617,0,0,1,.618,1.295,1.214,1.214,0,0,1-.267.806,2.481,2.481,0,0,1-.841.595A2.09,2.09,0,0,1,21-2.584a1.366,1.366,0,0,1,.343.949,1.544,1.544,0,0,1-.68,1.251A3.152,3.152,0,0,1,18.7.141q-2.227,0-2.725-1.74l1.506-.275a1.246,1.246,0,0,0,1.2.914,1.086,1.086,0,0,0,.741-.243.738.738,0,0,0,.278-.571.665.665,0,0,0-.29-.571,1.273,1.273,0,0,0-.759-.208Zm4.242-3.668h1.535v.914a2.3,2.3,0,0,1,.809-.762,2.229,2.229,0,0,1,1.131-.293,2.372,2.372,0,0,1,1.84.85,3.439,3.439,0,0,1,.756,2.367,3.543,3.543,0,0,1-.762,2.423A2.373,2.373,0,0,1,26.08.141a2.1,2.1,0,0,1-.935-.205,3.15,3.15,0,0,1-.882-.7V2.367H22.617Zm1.629,3.006a2.4,2.4,0,0,0,.416,1.55,1.273,1.273,0,0,0,1.014.5,1.19,1.19,0,0,0,.955-.46,2.37,2.37,0,0,0,.381-1.509,2.249,2.249,0,0,0-.393-1.453,1.214,1.214,0,0,0-.973-.475,1.263,1.263,0,0,0-1,.466A2.073,2.073,0,0,0,24.246-3.217Zm6.979-1.107-1.494-.27A2.327,2.327,0,0,1,30.6-5.93a3.173,3.173,0,0,1,1.828-.434,3.94,3.94,0,0,1,1.641.261,1.636,1.636,0,0,1,.759.662,3.4,3.4,0,0,1,.22,1.474l-.018,1.922a6.672,6.672,0,0,0,.079,1.21A3.532,3.532,0,0,0,35.4,0H33.773q-.064-.164-.158-.486-.041-.146-.059-.193a2.968,2.968,0,0,1-.9.615,2.584,2.584,0,0,1-1.025.205,2.12,2.12,0,0,1-1.515-.521A1.733,1.733,0,0,1,29.561-1.7a1.77,1.77,0,0,1,.252-.94,1.646,1.646,0,0,1,.706-.633,5.518,5.518,0,0,1,1.31-.384,8.971,8.971,0,0,0,1.6-.4v-.164a.853.853,0,0,0-.234-.677,1.4,1.4,0,0,0-.885-.2,1.178,1.178,0,0,0-.686.173A1.2,1.2,0,0,0,31.225-4.324Zm2.2,1.336a10.292,10.292,0,0,1-1,.252,3.018,3.018,0,0,0-.9.287.687.687,0,0,0-.322.58.808.808,0,0,0,.258.6.9.9,0,0,0,.656.252,1.426,1.426,0,0,0,.85-.293,1.031,1.031,0,0,0,.393-.545,3.251,3.251,0,0,0,.064-.8Zm8.666-1.395-1.623.293a1.178,1.178,0,0,0-.372-.732,1.124,1.124,0,0,0-.753-.246,1.23,1.23,0,0,0-.981.425A2.177,2.177,0,0,0,38-3.223a2.518,2.518,0,0,0,.372,1.564,1.222,1.222,0,0,0,1,.457,1.11,1.11,0,0,0,.768-.267,1.6,1.6,0,0,0,.422-.917l1.617.275a2.87,2.87,0,0,1-.967,1.682,2.993,2.993,0,0,1-1.916.568,2.849,2.849,0,0,1-2.177-.861A3.339,3.339,0,0,1,36.3-3.105a3.347,3.347,0,0,1,.814-2.4,2.893,2.893,0,0,1,2.2-.858,3.006,3.006,0,0,1,1.808.489A2.711,2.711,0,0,1,42.094-4.383Zm.51-1.84h5.631v1.33H46.242V0H44.6V-4.893H42.6ZM54.229-2.555V-3.627a2.471,2.471,0,0,0,.621-.056.753.753,0,0,0,.366-.27.757.757,0,0,0,.173-.489.815.815,0,0,0-.214-.542.8.8,0,0,0-.642-.249,1.2,1.2,0,0,0-.586.141,1.272,1.272,0,0,0-.469.668l-1.395-.3a1.926,1.926,0,0,1,.9-1.23,3.03,3.03,0,0,1,1.576-.41,2.647,2.647,0,0,1,1.743.516,1.617,1.617,0,0,1,.618,1.295,1.214,1.214,0,0,1-.267.806,2.481,2.481,0,0,1-.841.595,2.09,2.09,0,0,1,1.034.568,1.366,1.366,0,0,1,.343.949,1.544,1.544,0,0,1-.68,1.251,3.152,3.152,0,0,1-1.957.524q-2.227,0-2.725-1.74l1.506-.275a1.246,1.246,0,0,0,1.2.914A1.086,1.086,0,0,0,55.28-1.2a.738.738,0,0,0,.278-.571.665.665,0,0,0-.29-.571,1.273,1.273,0,0,0-.759-.208Zm4.242-3.668h1.535v.914a2.3,2.3,0,0,1,.809-.762,2.229,2.229,0,0,1,1.131-.293,2.372,2.372,0,0,1,1.84.85,3.439,3.439,0,0,1,.756,2.367,3.543,3.543,0,0,1-.762,2.423,2.373,2.373,0,0,1-1.846.864A2.1,2.1,0,0,1,61-.064a3.15,3.15,0,0,1-.882-.7V2.367H58.471ZM60.1-3.217a2.4,2.4,0,0,0,.416,1.55,1.273,1.273,0,0,0,1.014.5,1.19,1.19,0,0,0,.955-.46,2.37,2.37,0,0,0,.381-1.509,2.249,2.249,0,0,0-.393-1.453,1.214,1.214,0,0,0-.973-.475,1.263,1.263,0,0,0-1,.466A2.073,2.073,0,0,0,60.1-3.217Zm5.707-3.006h1.582v3.908L69.92-6.223h1.617V0H69.955V-3.979L67.389,0H65.807Zm6.68,0h5.631v1.33H76.125V0H74.479V-4.893H72.486ZM82.705-1.98l1.641.275a2.691,2.691,0,0,1-1,1.374,2.935,2.935,0,0,1-1.708.472,2.784,2.784,0,0,1-2.4-1.061,3.563,3.563,0,0,1-.615-2.145,3.436,3.436,0,0,1,.809-2.423,2.663,2.663,0,0,1,2.045-.876,2.762,2.762,0,0,1,2.191.917,4.057,4.057,0,0,1,.768,2.81H80.309a1.666,1.666,0,0,0,.4,1.14,1.246,1.246,0,0,0,.949.407,1.008,1.008,0,0,0,.65-.211A1.3,1.3,0,0,0,82.705-1.98ZM82.8-3.645a1.585,1.585,0,0,0-.369-1.087,1.133,1.133,0,0,0-.855-.372,1.144,1.144,0,0,0-.891.393,1.519,1.519,0,0,0-.346,1.066Zm3.422-2.578h5.514V0H90.094V-4.887H87.85v2.795a3.249,3.249,0,0,1-.246,1.5,1.282,1.282,0,0,1-.545.565A2.505,2.505,0,0,1,86.1.105,6.743,6.743,0,0,1,85.061,0V-1.213q.053,0,.275.012.258.018.4.018.334,0,.41-.22a5.423,5.423,0,0,0,.076-1.222Zm12.51,0V0H97.1V-2.584h-.152a1.686,1.686,0,0,0-.782.138,1.858,1.858,0,0,0-.554.583l-.1.123L94.424,0H92.508l1.178-1.8A1.982,1.982,0,0,1,94.6-2.7a1.564,1.564,0,0,1-1.122-.524,1.785,1.785,0,0,1-.431-1.233,1.821,1.821,0,0,1,.284-1.031,1.421,1.421,0,0,1,.756-.583,4.773,4.773,0,0,1,1.4-.155ZM97.1-5.162H95.918A1.666,1.666,0,0,0,95-4.978a.694.694,0,0,0-.264.612.67.67,0,0,0,.3.615,1.918,1.918,0,0,0,.979.188H97.1Zm9.369,7.688h-1.131a11.394,11.394,0,0,1-1.365-2.812,9.214,9.214,0,0,1-.469-2.824,8.869,8.869,0,0,1,.58-3.205,11.247,11.247,0,0,1,1.277-2.42h1.125a17.775,17.775,0,0,0-1.1,3.021,11.176,11.176,0,0,0-.3,2.64,11.265,11.265,0,0,0,.179,1.969,12.847,12.847,0,0,0,.489,1.916Q105.949,1.406,106.465,2.525Zm1.711-8.748h5.514V0h-1.641V-4.887H109.8v2.795a3.249,3.249,0,0,1-.246,1.5,1.282,1.282,0,0,1-.545.565,2.505,2.505,0,0,1-.961.135A6.743,6.743,0,0,1,107.016,0V-1.213q.053,0,.275.012.258.018.4.018.334,0,.41-.22a5.423,5.423,0,0,0,.076-1.222ZM118.8-1.98l1.641.275a2.691,2.691,0,0,1-1,1.374,2.935,2.935,0,0,1-1.708.472,2.784,2.784,0,0,1-2.4-1.061,3.563,3.563,0,0,1-.615-2.145,3.436,3.436,0,0,1,.809-2.423,2.663,2.663,0,0,1,2.045-.876,2.762,2.762,0,0,1,2.191.917,4.057,4.057,0,0,1,.768,2.81H116.4a1.666,1.666,0,0,0,.4,1.14,1.246,1.246,0,0,0,.949.407,1.008,1.008,0,0,0,.65-.211A1.3,1.3,0,0,0,118.8-1.98Zm.094-1.664a1.585,1.585,0,0,0-.369-1.087,1.133,1.133,0,0,0-.855-.372,1.144,1.144,0,0,0-.891.393,1.519,1.519,0,0,0-.346,1.066Zm2.08-2.578H126.6v1.33h-1.992V0h-1.646V-4.893h-1.992Zm6.158,8.748q.486-1.043.686-1.6a11.834,11.834,0,0,0,.369-1.283,13.416,13.416,0,0,0,.252-1.38,10.739,10.739,0,0,0,.082-1.339,11.281,11.281,0,0,0-.3-2.64,17.561,17.561,0,0,0-1.1-3.021h1.119a10.763,10.763,0,0,1,1.374,2.672A8.7,8.7,0,0,1,130.1-3.2a9.887,9.887,0,0,1-.387,2.625,11.048,11.048,0,0,1-1.447,3.1Z" transform="translate(60.986 788.41)" fill="#a9a7a9"/><path d="M5.208-8.616H.984V0H4.932a4.961,4.961,0,0,0,1.32-.168,2.744,2.744,0,0,0,1.008-.5,2.235,2.235,0,0,0,.648-.8,2.453,2.453,0,0,0,.228-1.1,3.289,3.289,0,0,0-.048-.576,1.778,1.778,0,0,0-.18-.576A1.976,1.976,0,0,0,7.5-4.248a2.255,2.255,0,0,0-.7-.4,2.1,2.1,0,0,0,.48-.324,1.462,1.462,0,0,0,.336-.384A1.993,1.993,0,0,0,7.8-5.82a2.953,2.953,0,0,0,.06-.588,3.422,3.422,0,0,0-.048-.48,2.76,2.76,0,0,0-.168-.5,1.876,1.876,0,0,0-.324-.456,1.786,1.786,0,0,0-.492-.4,2.541,2.541,0,0,0-.684-.264A3.715,3.715,0,0,0,5.208-8.616Zm-.276,3.4H2.712V-7.128H4.98a2.661,2.661,0,0,1,.444.036,1.5,1.5,0,0,1,.372.144.733.733,0,0,1,.252.288,1.033,1.033,0,0,1,.084.456,1.065,1.065,0,0,1-.1.456.8.8,0,0,1-.264.3,1.031,1.031,0,0,1-.384.18A2.793,2.793,0,0,1,4.932-5.22Zm.024,3.732H2.712V-3.8h2.2a3.9,3.9,0,0,1,.528.036,1.231,1.231,0,0,1,.456.168.91.91,0,0,1,.324.348,1.36,1.36,0,0,1,.12.6,1.364,1.364,0,0,1-.1.516,1.063,1.063,0,0,1-.288.36,1.39,1.39,0,0,1-.444.216A1.984,1.984,0,0,1,4.956-1.488Zm4.116-1.7A4.067,4.067,0,0,0,9.3-1.836a2.889,2.889,0,0,0,.648,1.08,3.13,3.13,0,0,0,1.032.7,3.5,3.5,0,0,0,1.356.252,3.581,3.581,0,0,0,1.38-.252,2.96,2.96,0,0,0,1.02-.7,3.241,3.241,0,0,0,.648-1.08A4.068,4.068,0,0,0,15.6-3.192a4.068,4.068,0,0,0-.216-1.356,3.241,3.241,0,0,0-.648-1.08,2.8,2.8,0,0,0-1.02-.7,3.581,3.581,0,0,0-1.38-.252,3.5,3.5,0,0,0-1.356.252,2.958,2.958,0,0,0-1.032.7A2.889,2.889,0,0,0,9.3-4.548,4.067,4.067,0,0,0,9.072-3.192Zm1.728,0a3.683,3.683,0,0,1,.084-.72,1.665,1.665,0,0,1,.264-.636,1.382,1.382,0,0,1,.468-.444,1.452,1.452,0,0,1,.72-.168A1.521,1.521,0,0,1,13.08-5a1.508,1.508,0,0,1,.468.444,1.767,1.767,0,0,1,.252.636,3.694,3.694,0,0,1,.072.732,3.694,3.694,0,0,1-.072.732,1.707,1.707,0,0,1-.252.624,1.382,1.382,0,0,1-.468.444,1.517,1.517,0,0,1-.744.168,1.452,1.452,0,0,1-.72-.168,1.31,1.31,0,0,1-.468-.456,1.589,1.589,0,0,1-.264-.636A3.461,3.461,0,0,1,10.8-3.192ZM16.428-4.62h1.56a.712.712,0,0,1,.276-.588,1.176,1.176,0,0,1,.708-.192,1.663,1.663,0,0,1,.36.036,1.039,1.039,0,0,1,.288.12A.9.9,0,0,1,19.8-5a.9.9,0,0,1,.072.372.74.74,0,0,1-.228.564,1.318,1.318,0,0,1-.792.192h-.636v1.1h.756a1.379,1.379,0,0,1,.792.18.759.759,0,0,1,.252.648.919.919,0,0,1-.048.3,1.191,1.191,0,0,1-.168.324.936.936,0,0,1-.312.24,1.32,1.32,0,0,1-.516.1,1.347,1.347,0,0,1-.456-.072,1.426,1.426,0,0,1-.348-.216A.763.763,0,0,1,17.94-1.6.921.921,0,0,1,17.856-2H16.272a2.142,2.142,0,0,0,.216,1.02,1.723,1.723,0,0,0,.588.684,2.4,2.4,0,0,0,.888.384A5.575,5.575,0,0,0,19.1.192a3.668,3.668,0,0,0,.948-.12A2.388,2.388,0,0,0,20.9-.312,2.062,2.062,0,0,0,21.5-1,1.874,1.874,0,0,0,21.744-2a2.085,2.085,0,0,0-.06-.468,1.459,1.459,0,0,0-.216-.432,1.53,1.53,0,0,0-.384-.348,1.551,1.551,0,0,0-.576-.192v-.024a1.6,1.6,0,0,0,.4-.156,1.168,1.168,0,0,0,.324-.276,1.125,1.125,0,0,0,.216-.372,1.347,1.347,0,0,0,.084-.5,1.651,1.651,0,0,0-.144-.672,1.615,1.615,0,0,0-.432-.564A2.078,2.078,0,0,0,20.2-6.42,3.683,3.683,0,0,0,19.1-6.576a4.92,4.92,0,0,0-1.056.108,2.638,2.638,0,0,0-.84.348,1.685,1.685,0,0,0-.564.6A2.073,2.073,0,0,0,16.428-4.62Zm7.908-.852v-.912H22.752V2.472h1.656V-.792h.024a1.9,1.9,0,0,0,.372.48,1.608,1.608,0,0,0,.444.3,1.73,1.73,0,0,0,.48.156,2.172,2.172,0,0,0,.48.048A2.733,2.733,0,0,0,27.42-.06a2.558,2.558,0,0,0,.84-.72,3.174,3.174,0,0,0,.5-1.116,5.21,5.21,0,0,0,.168-1.416,4.381,4.381,0,0,0-.12-1.1,3.139,3.139,0,0,0-.312-.84,2.5,2.5,0,0,0-.468-.624,2.463,2.463,0,0,0-.552-.4,2.538,2.538,0,0,0-.612-.228,2.641,2.641,0,0,0-.6-.072,2.411,2.411,0,0,0-.624.072,1.766,1.766,0,0,0-.516.192,1.789,1.789,0,0,0-.408.336,2.7,2.7,0,0,0-.36.5Zm1.44.384a1.328,1.328,0,0,1,.672.168,1.565,1.565,0,0,1,.444.444,2.325,2.325,0,0,1,.24.612,3.2,3.2,0,0,1,.072.672c0,.12,0,.252-.012.4s-.048.288-.084.432a4.34,4.34,0,0,1-.156.42,1.723,1.723,0,0,1-.264.372,1.772,1.772,0,0,1-.384.252,1.383,1.383,0,0,1-.528.1,1.383,1.383,0,0,1-.528-.1,1.772,1.772,0,0,1-.384-.252,1.134,1.134,0,0,1-.252-.372,2.556,2.556,0,0,1-.168-.42,2.7,2.7,0,0,1-.072-.432,2.33,2.33,0,0,1-.024-.4,3.2,3.2,0,0,1,.072-.672,1.992,1.992,0,0,1,.252-.612A1.386,1.386,0,0,1,25.1-4.92,1.3,1.3,0,0,1,25.776-5.088ZM35.292-1.26V-4.644a2.687,2.687,0,0,0-.1-.684,1.53,1.53,0,0,0-.4-.624,2.449,2.449,0,0,0-.828-.456,4.951,4.951,0,0,0-1.392-.168,4.109,4.109,0,0,0-1.032.144,2.59,2.59,0,0,0-.732.336,1.849,1.849,0,0,0-.492.468,2.372,2.372,0,0,0-.288.492,2.176,2.176,0,0,0-.144.456,2.166,2.166,0,0,0-.036.324h1.656l.072-.348a.782.782,0,0,1,.18-.276.827.827,0,0,1,.324-.192,2,2,0,0,1,.528-.06,1.949,1.949,0,0,1,.492.048.763.763,0,0,1,.312.156.54.54,0,0,1,.168.228,1.031,1.031,0,0,1,.048.288.572.572,0,0,1-.06.264.414.414,0,0,1-.144.144.394.394,0,0,1-.192.084,1.325,1.325,0,0,1-.192.036l-1.62.24a2.015,2.015,0,0,0-.732.228,1.923,1.923,0,0,0-.552.42,1.908,1.908,0,0,0-.348.588,2.083,2.083,0,0,0-.12.732,2.3,2.3,0,0,0,.144.852,1.762,1.762,0,0,0,.408.624,1.917,1.917,0,0,0,.624.372,2.385,2.385,0,0,0,.792.12,3.173,3.173,0,0,0,.72-.072,2.1,2.1,0,0,0,.528-.2,2.6,2.6,0,0,0,.42-.288l.372-.372a1.2,1.2,0,0,0,.06.444l.1.3h1.836V-.264a.327.327,0,0,1-.144-.072.379.379,0,0,1-.12-.168.748.748,0,0,1-.084-.288A2.468,2.468,0,0,1,35.292-1.26ZM33.636-3.12v.648a1.842,1.842,0,0,1-.084.552,1.019,1.019,0,0,1-.216.408,1,1,0,0,1-.288.264,2.087,2.087,0,0,1-.324.168,1.9,1.9,0,0,1-.312.072,2.291,2.291,0,0,1-.24.024,1.035,1.035,0,0,1-.336-.048.659.659,0,0,1-.252-.144.672.672,0,0,1-.192-.252,1,1,0,0,1-.06-.348.994.994,0,0,1,.072-.408.828.828,0,0,1,.216-.288,1.261,1.261,0,0,1,.36-.18,3.914,3.914,0,0,1,.5-.12l.444-.084a1.5,1.5,0,0,0,.408-.12A1.709,1.709,0,0,0,33.636-3.12Zm6.912-1.008h1.728a2.885,2.885,0,0,0-.18-.852,2.507,2.507,0,0,0-.36-.636,2.551,2.551,0,0,0-.5-.456,3.878,3.878,0,0,0-.588-.3,2.867,2.867,0,0,0-.612-.156,5.7,5.7,0,0,0-.612-.048,3.091,3.091,0,0,0-1.224.228,2.478,2.478,0,0,0-.948.648,3.057,3.057,0,0,0-.612,1.056,4.455,4.455,0,0,0-.216,1.452,4.794,4.794,0,0,0,.2,1.44A2.849,2.849,0,0,0,37.2-.684a2.5,2.5,0,0,0,.936.66A3.556,3.556,0,0,0,39.42.192a3.166,3.166,0,0,0,1-.144,2.7,2.7,0,0,0,.744-.372,2.406,2.406,0,0,0,.54-.5,4.094,4.094,0,0,0,.336-.564,3.664,3.664,0,0,0,.192-.54,1.936,1.936,0,0,0,.048-.408H40.548a1.248,1.248,0,0,1-.06.348,1.306,1.306,0,0,1-.216.372,1.31,1.31,0,0,1-.348.276.98.98,0,0,1-.5.12,1.078,1.078,0,0,1-.684-.192,1.073,1.073,0,0,1-.384-.48,1.775,1.775,0,0,1-.168-.636,6.426,6.426,0,0,1-.036-.66A6.349,6.349,0,0,1,38.2-3.84a2.359,2.359,0,0,1,.18-.648,1.241,1.241,0,0,1,.384-.48,1.028,1.028,0,0,1,.66-.192,1.774,1.774,0,0,1,.468.06.925.925,0,0,1,.324.2.881.881,0,0,1,.2.324A1.949,1.949,0,0,1,40.548-4.128Zm2.376-2.256V-5.04h1.932V0h1.656V-5.04h1.932V-6.384ZM57.972-1.26V-4.644a2.687,2.687,0,0,0-.1-.684,1.53,1.53,0,0,0-.4-.624,2.449,2.449,0,0,0-.828-.456,4.951,4.951,0,0,0-1.392-.168,4.109,4.109,0,0,0-1.032.144A2.59,2.59,0,0,0,53.5-6.1,1.849,1.849,0,0,0,53-5.628a2.371,2.371,0,0,0-.288.492,2.176,2.176,0,0,0-.144.456,2.166,2.166,0,0,0-.036.324h1.656l.072-.348a.782.782,0,0,1,.18-.276.827.827,0,0,1,.324-.192,2,2,0,0,1,.528-.06,1.949,1.949,0,0,1,.492.048.763.763,0,0,1,.312.156.54.54,0,0,1,.168.228,1.031,1.031,0,0,1,.048.288.572.572,0,0,1-.06.264.414.414,0,0,1-.144.144.394.394,0,0,1-.192.084,1.325,1.325,0,0,1-.192.036l-1.62.24a2.015,2.015,0,0,0-.732.228,1.923,1.923,0,0,0-.552.42,1.908,1.908,0,0,0-.348.588,2.083,2.083,0,0,0-.12.732,2.3,2.3,0,0,0,.144.852,1.762,1.762,0,0,0,.408.624,1.917,1.917,0,0,0,.624.372,2.385,2.385,0,0,0,.792.12,3.173,3.173,0,0,0,.72-.072,2.1,2.1,0,0,0,.528-.2,2.6,2.6,0,0,0,.42-.288l.372-.372a1.2,1.2,0,0,0,.06.444l.1.3h1.836V-.264a.327.327,0,0,1-.144-.072.379.379,0,0,1-.12-.168.748.748,0,0,1-.084-.288A2.468,2.468,0,0,1,57.972-1.26ZM56.316-3.12v.648a1.842,1.842,0,0,1-.084.552,1.019,1.019,0,0,1-.216.408,1,1,0,0,1-.288.264,2.087,2.087,0,0,1-.324.168,1.9,1.9,0,0,1-.312.072,2.291,2.291,0,0,1-.24.024,1.035,1.035,0,0,1-.336-.048.659.659,0,0,1-.252-.144.672.672,0,0,1-.192-.252,1,1,0,0,1-.06-.348.994.994,0,0,1,.072-.408.828.828,0,0,1,.216-.288,1.261,1.261,0,0,1,.36-.18,3.914,3.914,0,0,1,.5-.12l.444-.084a1.5,1.5,0,0,0,.408-.12A1.709,1.709,0,0,0,56.316-3.12ZM63-.108l2.2-6.276H63.42l-1.308,4.7h-.024l-1.368-4.7H58.86L61.2.336a.7.7,0,0,1-.048.24A.755.755,0,0,1,61,.864a.96.96,0,0,1-.288.24.972.972,0,0,1-.444.1,2.043,2.043,0,0,1-.252-.012,1.238,1.238,0,0,1-.24-.024V2.508c.132.012.24.024.348.024a2.315,2.315,0,0,0,.3.012,4.013,4.013,0,0,0,.708-.048,1.431,1.431,0,0,0,.528-.156,1.153,1.153,0,0,0,.384-.3,2.225,2.225,0,0,0,.324-.48c.1-.2.192-.432.3-.708S62.88.264,63-.108Zm3.264-1.236H65.6v2.88h1.56V0h4.188V1.536h1.56v-2.88h-.8v-5.04H67.116v.54c0,.228,0,.48-.012.756s-.036.576-.06.876a9.045,9.045,0,0,1-.144.972,9.567,9.567,0,0,1-.24.972A5.788,5.788,0,0,1,66.264-1.344Zm2.292-3.7h1.9v3.7h-2.52a4.389,4.389,0,0,0,.252-.636q.108-.342.18-.684c.048-.24.084-.468.108-.708s.048-.456.06-.66.024-.408.024-.576ZM75.48-2.448V-6.384H73.824V0h1.812l2.256-3.852h.024V0h1.656V-6.384h-1.74L75.5-2.448ZM80.6-6.384V-5.04h1.932V0h1.656V-5.04h1.932V-6.384Zm6.168,3.192A4.067,4.067,0,0,0,87-1.836a2.889,2.889,0,0,0,.648,1.08,3.13,3.13,0,0,0,1.032.7,3.5,3.5,0,0,0,1.356.252,3.581,3.581,0,0,0,1.38-.252,2.96,2.96,0,0,0,1.02-.7,3.241,3.241,0,0,0,.648-1.08A4.069,4.069,0,0,0,93.3-3.192a4.069,4.069,0,0,0-.216-1.356,3.241,3.241,0,0,0-.648-1.08,2.8,2.8,0,0,0-1.02-.7,3.581,3.581,0,0,0-1.38-.252,3.5,3.5,0,0,0-1.356.252,2.958,2.958,0,0,0-1.032.7A2.889,2.889,0,0,0,87-4.548,4.067,4.067,0,0,0,86.772-3.192Zm1.728,0a3.682,3.682,0,0,1,.084-.72,1.664,1.664,0,0,1,.264-.636,1.382,1.382,0,0,1,.468-.444,1.452,1.452,0,0,1,.72-.168A1.521,1.521,0,0,1,90.78-5a1.508,1.508,0,0,1,.468.444,1.767,1.767,0,0,1,.252.636,3.694,3.694,0,0,1,.072.732,3.694,3.694,0,0,1-.072.732,1.707,1.707,0,0,1-.252.624,1.382,1.382,0,0,1-.468.444,1.517,1.517,0,0,1-.744.168,1.452,1.452,0,0,1-.72-.168,1.31,1.31,0,0,1-.468-.456,1.589,1.589,0,0,1-.264-.636A3.461,3.461,0,0,1,88.5-3.192Zm7.536-2.28v-.912H94.452V2.472h1.656V-.792h.024a1.9,1.9,0,0,0,.372.48,1.608,1.608,0,0,0,.444.3,1.73,1.73,0,0,0,.48.156,2.172,2.172,0,0,0,.48.048A2.733,2.733,0,0,0,99.12-.06a2.558,2.558,0,0,0,.84-.72,3.174,3.174,0,0,0,.5-1.116,5.21,5.21,0,0,0,.168-1.416,4.381,4.381,0,0,0-.12-1.1,3.139,3.139,0,0,0-.312-.84,2.5,2.5,0,0,0-.468-.624,2.463,2.463,0,0,0-.552-.4,2.538,2.538,0,0,0-.612-.228,2.641,2.641,0,0,0-.6-.072,2.411,2.411,0,0,0-.624.072,1.766,1.766,0,0,0-.516.192,1.789,1.789,0,0,0-.408.336,2.7,2.7,0,0,0-.36.5Zm1.44.384a1.329,1.329,0,0,1,.672.168,1.565,1.565,0,0,1,.444.444,2.325,2.325,0,0,1,.24.612,3.2,3.2,0,0,1,.072.672c0,.12,0,.252-.012.4s-.048.288-.084.432a4.339,4.339,0,0,1-.156.42,1.723,1.723,0,0,1-.264.372A1.772,1.772,0,0,1,98-1.32a1.383,1.383,0,0,1-.528.1,1.383,1.383,0,0,1-.528-.1,1.772,1.772,0,0,1-.384-.252,1.134,1.134,0,0,1-.252-.372,2.556,2.556,0,0,1-.168-.42,2.7,2.7,0,0,1-.072-.432,2.331,2.331,0,0,1-.024-.4,3.2,3.2,0,0,1,.072-.672,1.992,1.992,0,0,1,.252-.612A1.386,1.386,0,0,1,96.8-4.92,1.3,1.3,0,0,1,97.476-5.088Zm6.012,2.64V-6.384h-1.656V0h1.812L105.9-3.852h.024V0h1.656V-6.384h-1.74l-2.328,3.936Zm7.332,0V-6.384h-1.656V0h1.812l2.256-3.852h.024V0h1.656V-6.384h-1.74l-2.328,3.936Z" transform="translate(60.986 578.385)" fill="#242549"/><path d="M-1.626,0H-3V-5.171a4.73,4.73,0,0,1-1.772,1.04V-5.376A3.968,3.968,0,0,0-3.6-6.042a2.533,2.533,0,0,0,.864-1.145h1.113ZM5.059-1.274V0H.249A3.312,3.312,0,0,1,.718-1.37,9.114,9.114,0,0,1,2.261-3.086,9.705,9.705,0,0,0,3.4-4.258a1.51,1.51,0,0,0,.283-.84A.955.955,0,0,0,3.435-5.8a.921.921,0,0,0-.681-.247.914.914,0,0,0-.684.259,1.329,1.329,0,0,0-.293.859L.41-5.068a2.241,2.241,0,0,1,.767-1.626,2.574,2.574,0,0,1,1.611-.493,2.329,2.329,0,0,1,1.665.571A1.874,1.874,0,0,1,5.059-5.2a2.473,2.473,0,0,1-.173.92,3.743,3.743,0,0,1-.549.916,8.79,8.79,0,0,1-.9.913q-.649.6-.823.791a2.368,2.368,0,0,0-.281.381Z" transform="translate(58.996 769.798)" fill="#242647"/><path d="M-1.626,0H-3V-5.171a4.73,4.73,0,0,1-1.772,1.04V-5.376A3.968,3.968,0,0,0-3.6-6.042a2.533,2.533,0,0,0,.864-1.145h1.113ZM1.6-3.862A1.6,1.6,0,0,1,.828-4.48a1.614,1.614,0,0,1-.242-.862,1.733,1.733,0,0,1,.559-1.323,2.241,2.241,0,0,1,1.589-.522,2.244,2.244,0,0,1,1.584.522,1.726,1.726,0,0,1,.564,1.323,1.561,1.561,0,0,1-.259.886,1.638,1.638,0,0,1-.728.593,1.918,1.918,0,0,1,.906.7,1.848,1.848,0,0,1,.31,1.06A2.157,2.157,0,0,1,4.48-.493,2.3,2.3,0,0,1,2.8.127,2.543,2.543,0,0,1,1.172-.386a2,2,0,0,1-.767-1.66A2.053,2.053,0,0,1,.693-3.113,1.855,1.855,0,0,1,1.6-3.862Zm.283-1.382a.859.859,0,0,0,.232.64.84.84,0,0,0,.618.229.85.85,0,0,0,.625-.232.863.863,0,0,0,.234-.642.835.835,0,0,0-.232-.618A.828.828,0,0,0,2.749-6.1a.851.851,0,0,0-.63.234A.838.838,0,0,0,1.885-5.244ZM1.758-2.178a1.26,1.26,0,0,0,.291.884.942.942,0,0,0,.725.317.911.911,0,0,0,.7-.305,1.264,1.264,0,0,0,.278-.881,1.141,1.141,0,0,0-.283-.808.937.937,0,0,0-.718-.305A.858.858,0,0,0,2-2.93,1.271,1.271,0,0,0,1.758-2.178Z" transform="translate(109.557 769.798)" fill="#242647"/><path d="M-.5-1.274V0h-4.81a3.312,3.312,0,0,1,.469-1.37A9.114,9.114,0,0,1-3.3-3.086,9.705,9.705,0,0,0-2.163-4.258,1.51,1.51,0,0,0-1.88-5.1.955.955,0,0,0-2.126-5.8a.921.921,0,0,0-.681-.247.914.914,0,0,0-.684.259,1.329,1.329,0,0,0-.293.859l-1.367-.137a2.241,2.241,0,0,1,.767-1.626,2.574,2.574,0,0,1,1.611-.493,2.329,2.329,0,0,1,1.665.571A1.874,1.874,0,0,1-.5-5.2a2.473,2.473,0,0,1-.173.92,3.743,3.743,0,0,1-.549.916,8.79,8.79,0,0,1-.9.913q-.649.6-.823.791a2.368,2.368,0,0,0-.281.381Zm.947-.566,1.367-.142a1.173,1.173,0,0,0,.347.735.941.941,0,0,0,.664.271.922.922,0,0,0,.728-.349,1.588,1.588,0,0,0,.3-1.052,1.442,1.442,0,0,0-.3-.989.984.984,0,0,0-.769-.33,1.4,1.4,0,0,0-1.06.522L.61-3.335l.7-3.726H4.941v1.284H2.354L2.139-4.561a2.075,2.075,0,0,1,.938-.229,2.06,2.06,0,0,1,1.548.664A2.391,2.391,0,0,1,5.259-2.4,2.585,2.585,0,0,1,4.746-.825,2.273,2.273,0,0,1,2.808.122,2.406,2.406,0,0,1,1.191-.41,2.192,2.192,0,0,1,.444-1.841Z" transform="translate(160.118 769.798)" fill="#242647"/><path d="M-5.186-1.9l1.328-.161a1.257,1.257,0,0,0,.342.776.935.935,0,0,0,.674.269.926.926,0,0,0,.715-.322,1.249,1.249,0,0,0,.291-.869,1.165,1.165,0,0,0-.278-.82.887.887,0,0,0-.679-.3,2.394,2.394,0,0,0-.63.1l.151-1.118a1.2,1.2,0,0,0,.85-.242.86.86,0,0,0,.293-.681.779.779,0,0,0-.215-.576.772.772,0,0,0-.571-.215.827.827,0,0,0-.6.244,1.147,1.147,0,0,0-.3.713l-1.265-.215a2.827,2.827,0,0,1,.4-1.038,1.8,1.8,0,0,1,.742-.61,2.493,2.493,0,0,1,1.067-.222,2.128,2.128,0,0,1,1.621.645,1.682,1.682,0,0,1,.5,1.191,1.686,1.686,0,0,1-1.03,1.5A1.667,1.667,0,0,1-.8-3.257,1.714,1.714,0,0,1-.43-2.148,2.15,2.15,0,0,1-1.118-.542,2.372,2.372,0,0,1-2.832.122,2.36,2.36,0,0,1-4.443-.437,2.2,2.2,0,0,1-5.186-1.9Zm5.63.059,1.367-.142a1.173,1.173,0,0,0,.347.735.941.941,0,0,0,.664.271.922.922,0,0,0,.728-.349,1.588,1.588,0,0,0,.3-1.052,1.442,1.442,0,0,0-.3-.989.984.984,0,0,0-.769-.33,1.4,1.4,0,0,0-1.06.522L.61-3.335l.7-3.726H4.941v1.284H2.354L2.139-4.561a2.075,2.075,0,0,1,.938-.229,2.06,2.06,0,0,1,1.548.664A2.391,2.391,0,0,1,5.259-2.4,2.585,2.585,0,0,1,4.746-.825,2.273,2.273,0,0,1,2.808.122,2.406,2.406,0,0,1,1.191-.41,2.192,2.192,0,0,1,.444-1.841Z" transform="translate(210.679 769.798)" fill="#242647"/><path d="M-5.366,0V-1.44H-8.3v-1.2L-5.19-7.187h1.152v4.541h.889V-1.44h-.889V0Zm0-2.646V-5.093L-7.012-2.646Zm2.891.806,1.367-.142a1.173,1.173,0,0,0,.347.735A.941.941,0,0,0-.1-.977.922.922,0,0,0,.63-1.326a1.588,1.588,0,0,0,.3-1.052,1.442,1.442,0,0,0-.3-.989A.984.984,0,0,0-.137-3.7a1.4,1.4,0,0,0-1.06.522L-2.31-3.335l.7-3.726H2.021v1.284H-.566L-.781-4.561A2.075,2.075,0,0,1,.156-4.79,2.06,2.06,0,0,1,1.7-4.126,2.391,2.391,0,0,1,2.339-2.4,2.585,2.585,0,0,1,1.826-.825,2.273,2.273,0,0,1-.112.122,2.406,2.406,0,0,1-1.729-.41,2.192,2.192,0,0,1-2.476-1.841Zm7.407.811v-1.86H3.057V-4.175H4.932v-1.86h1.25v1.86h1.88v1.284H6.182v1.86Z" transform="translate(261.243 768.798)" fill="#242647"/><g transform="translate(49.196 570.185)"><path d="M-3089.32,339.774V589.392" transform="translate(3089.32 -339.774)" fill="none" stroke="#242549" stroke-width="2"/></g><path d="M-11.178-7v1.14h2V0h1.7V-8.5H-8.85a1.2,1.2,0,0,1-.072.336,1.488,1.488,0,0,1-.324.612,1.56,1.56,0,0,1-.816.444A7.449,7.449,0,0,1-11.178-7Zm7.824,4.728H-5.022A2.493,2.493,0,0,0-4.146-.432a3,3,0,0,0,1.992.66A2.733,2.733,0,0,0,.1-.708a3.2,3.2,0,0,0,.756-2.1,2.678,2.678,0,0,0-.78-2.064A2.7,2.7,0,0,0-1.77-5.58a2.692,2.692,0,0,0-.876.132,3.72,3.72,0,0,0-.612.336l.312-1.86H.522V-8.388h-4.68l-.6,4.692,1.5.072a1.1,1.1,0,0,1,.6-.516,1.393,1.393,0,0,1,.528-.084,1.08,1.08,0,0,1,.948.456,1.859,1.859,0,0,1,.3,1.092,1.8,1.8,0,0,1-.324,1.1,1.106,1.106,0,0,1-.948.432,1.035,1.035,0,0,1-.816-.3A1.485,1.485,0,0,1-3.354-2.268ZM4.71.228,9.45-8.5H8.562L3.81.228ZM5.334-4.74A2.056,2.056,0,0,0,5.97-6.276a2.056,2.056,0,0,0-.636-1.536A2.086,2.086,0,0,0,3.8-8.46a2.094,2.094,0,0,0-1.548.648,2.1,2.1,0,0,0-.636,1.536A2.1,2.1,0,0,0,2.25-4.74,2.094,2.094,0,0,0,3.8-4.092,2.067,2.067,0,0,0,5.334-4.74Zm-.876-.876a.916.916,0,0,1-.66.276.9.9,0,0,1-.66-.276.9.9,0,0,1-.276-.66.916.916,0,0,1,.276-.66.9.9,0,0,1,.66-.276.916.916,0,0,1,.66.276.905.905,0,0,1,.264.66A.886.886,0,0,1,4.458-5.616ZM11.034-.468A2.122,2.122,0,0,0,11.67-2a2.129,2.129,0,0,0-.636-1.548,2.1,2.1,0,0,0-1.548-.636,2.056,2.056,0,0,0-1.536.636A2.064,2.064,0,0,0,7.314-2,2.075,2.075,0,0,0,7.95-.468,2.056,2.056,0,0,0,9.486.168,2.1,2.1,0,0,0,11.034-.468Zm-.888-2.208A.879.879,0,0,1,10.422-2a.846.846,0,0,1-.276.648.9.9,0,0,1-.66.276.889.889,0,0,1-.648-.276A.846.846,0,0,1,8.562-2a.879.879,0,0,1,.276-.672.878.878,0,0,1,.648-.264A.886.886,0,0,1,10.146-2.676Z" transform="translate(84.286 687.548)" fill="#242647"/><line x2="255.814" transform="translate(56.978 756.908)" stroke-width="2" stroke="#e3ddd5" stroke-linecap="round" stroke-linejoin="round" fill="none"/><path d="M-6.4-8.4v5.549H-5.32v.879H-6.4V0h-.949V-1.975H-11.3v-.832q.551-.621,1.113-1.327t1.075-1.433q.513-.727.949-1.45A13.254,13.254,0,0,0-7.424-8.4Zm-3.814,5.549h2.865V-6.967Q-7.787-6.2-8.18-5.6t-.747,1.1q-.354.492-.677.891ZM.07-8.4v5.549H1.148v.879H.07V0H-.879V-1.975H-4.828v-.832q.551-.621,1.113-1.327T-2.64-5.566q.513-.727.949-1.45A13.254,13.254,0,0,0-.955-8.4ZM-3.744-2.854H-.879V-6.967Q-1.318-6.2-1.711-5.6t-.747,1.1q-.354.492-.677.891Zm7.67-1.336a1.771,1.771,0,0,1-1.383-.571,2.192,2.192,0,0,1-.516-1.526,2.355,2.355,0,0,1,.545-1.644,1.888,1.888,0,0,1,1.471-.6,1.765,1.765,0,0,1,1.392.557,2.275,2.275,0,0,1,.5,1.564A2.3,2.3,0,0,1,5.376-4.8,1.871,1.871,0,0,1,3.926-4.189Zm.082-3.7a1.055,1.055,0,0,0-.879.413A1.8,1.8,0,0,0,2.807-6.34a1.725,1.725,0,0,0,.316,1.1,1.044,1.044,0,0,0,.861.4,1.02,1.02,0,0,0,.861-.41,1.845,1.845,0,0,0,.311-1.137,1.76,1.76,0,0,0-.308-1.1A1.007,1.007,0,0,0,4.008-7.887ZM9.551-8.4,4.16.059H3.322L8.707-8.4ZM8.93.129A1.767,1.767,0,0,1,7.547-.445a2.194,2.194,0,0,1-.516-1.523,2.361,2.361,0,0,1,.551-1.649,1.883,1.883,0,0,1,1.465-.606,1.758,1.758,0,0,1,1.389.563,2.3,2.3,0,0,1,.5,1.576A2.293,2.293,0,0,1,10.38-.478,1.871,1.871,0,0,1,8.93.129Zm.082-3.691a1.056,1.056,0,0,0-.882.41,1.808,1.808,0,0,0-.319,1.137A1.7,1.7,0,0,0,8.127-.923a1.044,1.044,0,0,0,.861.4A1.017,1.017,0,0,0,9.85-.94a1.848,1.848,0,0,0,.311-1.134,1.732,1.732,0,0,0-.308-1.1A1.016,1.016,0,0,0,9.012-3.562Z" transform="translate(84.288 718.476)" fill="#fffaee"/><path d="M-5.7-2.566a2.828,2.828,0,0,1-.211,1.113,2.434,2.434,0,0,1-.6.855,2.689,2.689,0,0,1-.94.551A3.678,3.678,0,0,1-8.678.146a3.383,3.383,0,0,1-1.74-.352v-1.02a3.2,3.2,0,0,0,1.752.551,2.371,2.371,0,0,0,.823-.135,1.829,1.829,0,0,0,.624-.375,1.606,1.606,0,0,0,.4-.58,1.964,1.964,0,0,0,.138-.744,1.594,1.594,0,0,0-.551-1.286,2.415,2.415,0,0,0-1.6-.466q-.17,0-.357.006l-.375.015q-.187.009-.366.021t-.325.029L-9.973-8.4h3.885v.867H-9.141l-.17,2.467q.188-.012.4-.021t.375-.009a3.771,3.771,0,0,1,1.2.176,2.533,2.533,0,0,1,.894.5,2.1,2.1,0,0,1,.557.8A2.8,2.8,0,0,1-5.7-2.566Zm6.779-.1a3.113,3.113,0,0,1-.2,1.131,2.718,2.718,0,0,1-.551.891A2.461,2.461,0,0,1-.51-.062,2.654,2.654,0,0,1-1.564.146,2.4,2.4,0,0,1-2.7-.117a2.4,2.4,0,0,1-.85-.759,3.639,3.639,0,0,1-.53-1.21A6.555,6.555,0,0,1-4.26-3.7a7.572,7.572,0,0,1,.243-1.989,4.833,4.833,0,0,1,.691-1.529A3.187,3.187,0,0,1-2.244-8.2,2.9,2.9,0,0,1-.832-8.543,3.4,3.4,0,0,1,.563-8.3v.908A2.961,2.961,0,0,0-.809-7.729a2.043,2.043,0,0,0-1.014.252,2.328,2.328,0,0,0-.773.712,3.472,3.472,0,0,0-.5,1.11,5.634,5.634,0,0,0-.173,1.447h.023A2.018,2.018,0,0,1-1.324-5.256a2.522,2.522,0,0,1,.993.188,2.144,2.144,0,0,1,.756.53,2.388,2.388,0,0,1,.483.817A3.111,3.111,0,0,1,1.078-2.666Zm-.984.123a2.615,2.615,0,0,0-.111-.791,1.716,1.716,0,0,0-.319-.6A1.377,1.377,0,0,0-.85-4.31a1.725,1.725,0,0,0-.691-.132,1.618,1.618,0,0,0-.662.135,1.649,1.649,0,0,0-.527.366,1.7,1.7,0,0,0-.349.539,1.707,1.707,0,0,0-.126.653,2.606,2.606,0,0,0,.123.812,2.1,2.1,0,0,0,.346.659,1.644,1.644,0,0,0,.53.442,1.448,1.448,0,0,0,.683.161A1.563,1.563,0,0,0-.861-.812,1.477,1.477,0,0,0-.352-1.2a1.777,1.777,0,0,0,.328-.589A2.334,2.334,0,0,0,.094-2.543ZM3.926-4.189a1.771,1.771,0,0,1-1.383-.571,2.192,2.192,0,0,1-.516-1.526,2.355,2.355,0,0,1,.545-1.644,1.888,1.888,0,0,1,1.471-.6,1.765,1.765,0,0,1,1.392.557,2.275,2.275,0,0,1,.5,1.564A2.3,2.3,0,0,1,5.376-4.8,1.871,1.871,0,0,1,3.926-4.189Zm.082-3.7a1.055,1.055,0,0,0-.879.413A1.8,1.8,0,0,0,2.807-6.34a1.725,1.725,0,0,0,.316,1.1,1.044,1.044,0,0,0,.861.4,1.02,1.02,0,0,0,.861-.41,1.845,1.845,0,0,0,.311-1.137,1.76,1.76,0,0,0-.308-1.1A1.007,1.007,0,0,0,4.008-7.887ZM9.551-8.4,4.16.059H3.322L8.707-8.4ZM8.93.129A1.767,1.767,0,0,1,7.547-.445a2.194,2.194,0,0,1-.516-1.523,2.361,2.361,0,0,1,.551-1.649,1.883,1.883,0,0,1,1.465-.606,1.758,1.758,0,0,1,1.389.563,2.3,2.3,0,0,1,.5,1.576A2.293,2.293,0,0,1,10.38-.478,1.871,1.871,0,0,1,8.93.129Zm.082-3.691a1.056,1.056,0,0,0-.882.41,1.808,1.808,0,0,0-.319,1.137A1.7,1.7,0,0,0,8.127-.923a1.044,1.044,0,0,0,.861.4A1.017,1.017,0,0,0,9.85-.94a1.848,1.848,0,0,0,.311-1.134,1.732,1.732,0,0,0-.308-1.1A1.016,1.016,0,0,0,9.012-3.562Z" transform="translate(84.288 733.268)" fill="#fffaee"/><path d="M-11.238-1.668A4.014,4.014,0,0,0-11.634,0h5.82V-1.476H-9.522a2.043,2.043,0,0,1,.4-.456c.144-.132.432-.348.852-.648l.672-.468A5.98,5.98,0,0,0-6.39-4.14a2.668,2.668,0,0,0,.564-1.668,2.543,2.543,0,0,0-.8-1.98,2.972,2.972,0,0,0-2.136-.744A2.439,2.439,0,0,0-11.142-7.26a4.108,4.108,0,0,0-.4,1.752h1.62a2.821,2.821,0,0,1,.192-1.044,1.034,1.034,0,0,1,1.032-.576,1.072,1.072,0,0,1,.864.36,1.4,1.4,0,0,1,.3.9,1.738,1.738,0,0,1-.528,1.212A12.235,12.235,0,0,1-9.546-3.468,4.7,4.7,0,0,0-11.238-1.668Zm7.884-.6H-5.022A2.493,2.493,0,0,0-4.146-.432a3,3,0,0,0,1.992.66A2.733,2.733,0,0,0,.1-.708a3.2,3.2,0,0,0,.756-2.1,2.678,2.678,0,0,0-.78-2.064A2.7,2.7,0,0,0-1.77-5.58a2.692,2.692,0,0,0-.876.132,3.72,3.72,0,0,0-.612.336l.312-1.86H.522V-8.388h-4.68l-.6,4.692,1.5.072a1.1,1.1,0,0,1,.6-.516,1.393,1.393,0,0,1,.528-.084,1.08,1.08,0,0,1,.948.456,1.859,1.859,0,0,1,.3,1.092,1.8,1.8,0,0,1-.324,1.1,1.106,1.106,0,0,1-.948.432,1.035,1.035,0,0,1-.816-.3A1.485,1.485,0,0,1-3.354-2.268ZM4.71.228,9.45-8.5H8.562L3.81.228ZM5.334-4.74A2.056,2.056,0,0,0,5.97-6.276a2.056,2.056,0,0,0-.636-1.536A2.086,2.086,0,0,0,3.8-8.46a2.094,2.094,0,0,0-1.548.648,2.1,2.1,0,0,0-.636,1.536A2.1,2.1,0,0,0,2.25-4.74,2.094,2.094,0,0,0,3.8-4.092,2.067,2.067,0,0,0,5.334-4.74Zm-.876-.876a.916.916,0,0,1-.66.276.9.9,0,0,1-.66-.276.9.9,0,0,1-.276-.66.916.916,0,0,1,.276-.66.9.9,0,0,1,.66-.276.916.916,0,0,1,.66.276.905.905,0,0,1,.264.66A.886.886,0,0,1,4.458-5.616ZM11.034-.468A2.122,2.122,0,0,0,11.67-2a2.129,2.129,0,0,0-.636-1.548,2.1,2.1,0,0,0-1.548-.636,2.056,2.056,0,0,0-1.536.636A2.064,2.064,0,0,0,7.314-2,2.075,2.075,0,0,0,7.95-.468,2.056,2.056,0,0,0,9.486.168,2.1,2.1,0,0,0,11.034-.468Zm-.888-2.208A.879.879,0,0,1,10.422-2a.846.846,0,0,1-.276.648.9.9,0,0,1-.66.276.889.889,0,0,1-.648-.276A.846.846,0,0,1,8.562-2a.879.879,0,0,1,.276-.672.878.878,0,0,1,.648-.264A.886.886,0,0,1,10.146-2.676Z" transform="translate(134.847 645.621)" fill="#242647"/><path d="M-6.4-8.4v5.549H-5.32v.879H-6.4V0h-.949V-1.975H-11.3v-.832q.551-.621,1.113-1.327t1.075-1.433q.513-.727.949-1.45A13.254,13.254,0,0,0-7.424-8.4Zm-3.814,5.549h2.865V-6.967Q-7.787-6.2-8.18-5.6t-.747,1.1q-.354.492-.677.891ZM.07-8.4v5.549H1.148v.879H.07V0H-.879V-1.975H-4.828v-.832q.551-.621,1.113-1.327T-2.64-5.566q.513-.727.949-1.45A13.254,13.254,0,0,0-.955-8.4ZM-3.744-2.854H-.879V-6.967Q-1.318-6.2-1.711-5.6t-.747,1.1q-.354.492-.677.891Zm7.67-1.336a1.771,1.771,0,0,1-1.383-.571,2.192,2.192,0,0,1-.516-1.526,2.355,2.355,0,0,1,.545-1.644,1.888,1.888,0,0,1,1.471-.6,1.765,1.765,0,0,1,1.392.557,2.275,2.275,0,0,1,.5,1.564A2.3,2.3,0,0,1,5.376-4.8,1.871,1.871,0,0,1,3.926-4.189Zm.082-3.7a1.055,1.055,0,0,0-.879.413A1.8,1.8,0,0,0,2.807-6.34a1.725,1.725,0,0,0,.316,1.1,1.044,1.044,0,0,0,.861.4,1.02,1.02,0,0,0,.861-.41,1.845,1.845,0,0,0,.311-1.137,1.76,1.76,0,0,0-.308-1.1A1.007,1.007,0,0,0,4.008-7.887ZM9.551-8.4,4.16.059H3.322L8.707-8.4ZM8.93.129A1.767,1.767,0,0,1,7.547-.445a2.194,2.194,0,0,1-.516-1.523,2.361,2.361,0,0,1,.551-1.649,1.883,1.883,0,0,1,1.465-.606,1.758,1.758,0,0,1,1.389.563,2.3,2.3,0,0,1,.5,1.576A2.293,2.293,0,0,1,10.38-.478,1.871,1.871,0,0,1,8.93.129Zm.082-3.691a1.056,1.056,0,0,0-.882.41,1.808,1.808,0,0,0-.319,1.137A1.7,1.7,0,0,0,8.127-.923a1.044,1.044,0,0,0,.861.4A1.017,1.017,0,0,0,9.85-.94a1.848,1.848,0,0,0,.311-1.134,1.732,1.732,0,0,0-.308-1.1A1.016,1.016,0,0,0,9.012-3.562Z" transform="translate(134.849 698.507)" fill="#fffaee"/><path d="M-5.7-2.566a2.828,2.828,0,0,1-.211,1.113,2.434,2.434,0,0,1-.6.855,2.689,2.689,0,0,1-.94.551A3.678,3.678,0,0,1-8.678.146a3.383,3.383,0,0,1-1.74-.352v-1.02a3.2,3.2,0,0,0,1.752.551,2.371,2.371,0,0,0,.823-.135,1.829,1.829,0,0,0,.624-.375,1.606,1.606,0,0,0,.4-.58,1.964,1.964,0,0,0,.138-.744,1.594,1.594,0,0,0-.551-1.286,2.415,2.415,0,0,0-1.6-.466q-.17,0-.357.006l-.375.015q-.187.009-.366.021t-.325.029L-9.973-8.4h3.885v.867H-9.141l-.17,2.467q.188-.012.4-.021t.375-.009a3.771,3.771,0,0,1,1.2.176,2.533,2.533,0,0,1,.894.5,2.1,2.1,0,0,1,.557.8A2.8,2.8,0,0,1-5.7-2.566Zm6.779-.1a3.113,3.113,0,0,1-.2,1.131,2.718,2.718,0,0,1-.551.891A2.461,2.461,0,0,1-.51-.062,2.654,2.654,0,0,1-1.564.146,2.4,2.4,0,0,1-2.7-.117a2.4,2.4,0,0,1-.85-.759,3.639,3.639,0,0,1-.53-1.21A6.555,6.555,0,0,1-4.26-3.7a7.572,7.572,0,0,1,.243-1.989,4.833,4.833,0,0,1,.691-1.529A3.187,3.187,0,0,1-2.244-8.2,2.9,2.9,0,0,1-.832-8.543,3.4,3.4,0,0,1,.563-8.3v.908A2.961,2.961,0,0,0-.809-7.729a2.043,2.043,0,0,0-1.014.252,2.328,2.328,0,0,0-.773.712,3.472,3.472,0,0,0-.5,1.11,5.634,5.634,0,0,0-.173,1.447h.023A2.018,2.018,0,0,1-1.324-5.256a2.522,2.522,0,0,1,.993.188,2.144,2.144,0,0,1,.756.53,2.388,2.388,0,0,1,.483.817A3.111,3.111,0,0,1,1.078-2.666Zm-.984.123a2.615,2.615,0,0,0-.111-.791,1.716,1.716,0,0,0-.319-.6A1.377,1.377,0,0,0-.85-4.31a1.725,1.725,0,0,0-.691-.132,1.618,1.618,0,0,0-.662.135,1.649,1.649,0,0,0-.527.366,1.7,1.7,0,0,0-.349.539,1.707,1.707,0,0,0-.126.653,2.606,2.606,0,0,0,.123.812,2.1,2.1,0,0,0,.346.659,1.644,1.644,0,0,0,.53.442,1.448,1.448,0,0,0,.683.161A1.563,1.563,0,0,0-.861-.812,1.477,1.477,0,0,0-.352-1.2a1.777,1.777,0,0,0,.328-.589A2.334,2.334,0,0,0,.094-2.543ZM3.926-4.189a1.771,1.771,0,0,1-1.383-.571,2.192,2.192,0,0,1-.516-1.526,2.355,2.355,0,0,1,.545-1.644,1.888,1.888,0,0,1,1.471-.6,1.765,1.765,0,0,1,1.392.557,2.275,2.275,0,0,1,.5,1.564A2.3,2.3,0,0,1,5.376-4.8,1.871,1.871,0,0,1,3.926-4.189Zm.082-3.7a1.055,1.055,0,0,0-.879.413A1.8,1.8,0,0,0,2.807-6.34a1.725,1.725,0,0,0,.316,1.1,1.044,1.044,0,0,0,.861.4,1.02,1.02,0,0,0,.861-.41,1.845,1.845,0,0,0,.311-1.137,1.76,1.76,0,0,0-.308-1.1A1.007,1.007,0,0,0,4.008-7.887ZM9.551-8.4,4.16.059H3.322L8.707-8.4ZM8.93.129A1.767,1.767,0,0,1,7.547-.445a2.194,2.194,0,0,1-.516-1.523,2.361,2.361,0,0,1,.551-1.649,1.883,1.883,0,0,1,1.465-.606,1.758,1.758,0,0,1,1.389.563,2.3,2.3,0,0,1,.5,1.576A2.293,2.293,0,0,1,10.38-.478,1.871,1.871,0,0,1,8.93.129Zm.082-3.691a1.056,1.056,0,0,0-.882.41,1.808,1.808,0,0,0-.319,1.137A1.7,1.7,0,0,0,8.127-.923a1.044,1.044,0,0,0,.861.4A1.017,1.017,0,0,0,9.85-.94a1.848,1.848,0,0,0,.311-1.134,1.732,1.732,0,0,0-.308-1.1A1.016,1.016,0,0,0,9.012-3.562Z" transform="translate(134.849 713.298)" fill="#fffaee"/><path d="M-10.05-2.6h-1.644a3.467,3.467,0,0,0,.42,1.632A2.659,2.659,0,0,0-8.766.216,2.817,2.817,0,0,0-6.558-.612,2.657,2.657,0,0,0-5.814-2.5a2.047,2.047,0,0,0-.636-1.62,1.206,1.206,0,0,0-.66-.4,1.5,1.5,0,0,0,.588-.444,1.839,1.839,0,0,0,.444-1.26,2.08,2.08,0,0,0-.744-1.692A2.933,2.933,0,0,0-8.79-8.532a3.261,3.261,0,0,0-1.1.156,2.195,2.195,0,0,0-.78.456A2.5,2.5,0,0,0-11.322-7a4.258,4.258,0,0,0-.216,1.2h1.56A1.618,1.618,0,0,1-9.714-6.8a1.023,1.023,0,0,1,.876-.372,1.077,1.077,0,0,1,.8.3,1.156,1.156,0,0,1,.276.792.979.979,0,0,1-.552,1,3.074,3.074,0,0,1-1.14.156v1.2a3.348,3.348,0,0,1,1.212.156A1.1,1.1,0,0,1-7.554-2.46a1.259,1.259,0,0,1-.36.972,1.245,1.245,0,0,1-.864.336,1.128,1.128,0,0,1-1.1-.612A1.779,1.779,0,0,1-10.05-2.6ZM-4.506-7v1.14h2V0H-.8V-8.5h-1.38a1.2,1.2,0,0,1-.072.336,1.488,1.488,0,0,1-.324.612A1.56,1.56,0,0,1-3.39-7.1,7.449,7.449,0,0,1-4.506-7ZM4.71.228,9.45-8.5H8.562L3.81.228ZM5.334-4.74A2.056,2.056,0,0,0,5.97-6.276a2.056,2.056,0,0,0-.636-1.536A2.086,2.086,0,0,0,3.8-8.46a2.094,2.094,0,0,0-1.548.648,2.1,2.1,0,0,0-.636,1.536A2.1,2.1,0,0,0,2.25-4.74,2.094,2.094,0,0,0,3.8-4.092,2.067,2.067,0,0,0,5.334-4.74Zm-.876-.876a.916.916,0,0,1-.66.276.9.9,0,0,1-.66-.276.9.9,0,0,1-.276-.66.916.916,0,0,1,.276-.66.9.9,0,0,1,.66-.276.916.916,0,0,1,.66.276.905.905,0,0,1,.264.66A.886.886,0,0,1,4.458-5.616ZM11.034-.468A2.122,2.122,0,0,0,11.67-2a2.129,2.129,0,0,0-.636-1.548,2.1,2.1,0,0,0-1.548-.636,2.056,2.056,0,0,0-1.536.636A2.064,2.064,0,0,0,7.314-2,2.075,2.075,0,0,0,7.95-.468,2.056,2.056,0,0,0,9.486.168,2.1,2.1,0,0,0,11.034-.468Zm-.888-2.208A.879.879,0,0,1,10.422-2a.846.846,0,0,1-.276.648.9.9,0,0,1-.66.276.889.889,0,0,1-.648-.276A.846.846,0,0,1,8.562-2a.879.879,0,0,1,.276-.672.878.878,0,0,1,.648-.264A.886.886,0,0,1,10.146-2.676Z" transform="translate(185.408 620.289)" fill="#242647"/><path d="M-6.4-8.4v5.549H-5.32v.879H-6.4V0h-.949V-1.975H-11.3v-.832q.551-.621,1.113-1.327t1.075-1.433q.513-.727.949-1.45A13.254,13.254,0,0,0-7.424-8.4Zm-3.814,5.549h2.865V-6.967Q-7.787-6.2-8.18-5.6t-.747,1.1q-.354.492-.677.891ZM.07-8.4v5.549H1.148v.879H.07V0H-.879V-1.975H-4.828v-.832q.551-.621,1.113-1.327T-2.64-5.566q.513-.727.949-1.45A13.254,13.254,0,0,0-.955-8.4ZM-3.744-2.854H-.879V-6.967Q-1.318-6.2-1.711-5.6t-.747,1.1q-.354.492-.677.891Zm7.67-1.336a1.771,1.771,0,0,1-1.383-.571,2.192,2.192,0,0,1-.516-1.526,2.355,2.355,0,0,1,.545-1.644,1.888,1.888,0,0,1,1.471-.6,1.765,1.765,0,0,1,1.392.557,2.275,2.275,0,0,1,.5,1.564A2.3,2.3,0,0,1,5.376-4.8,1.871,1.871,0,0,1,3.926-4.189Zm.082-3.7a1.055,1.055,0,0,0-.879.413A1.8,1.8,0,0,0,2.807-6.34a1.725,1.725,0,0,0,.316,1.1,1.044,1.044,0,0,0,.861.4,1.02,1.02,0,0,0,.861-.41,1.845,1.845,0,0,0,.311-1.137,1.76,1.76,0,0,0-.308-1.1A1.007,1.007,0,0,0,4.008-7.887ZM9.551-8.4,4.16.059H3.322L8.707-8.4ZM8.93.129A1.767,1.767,0,0,1,7.547-.445a2.194,2.194,0,0,1-.516-1.523,2.361,2.361,0,0,1,.551-1.649,1.883,1.883,0,0,1,1.465-.606,1.758,1.758,0,0,1,1.389.563,2.3,2.3,0,0,1,.5,1.576A2.293,2.293,0,0,1,10.38-.478,1.871,1.871,0,0,1,8.93.129Zm.082-3.691a1.056,1.056,0,0,0-.882.41,1.808,1.808,0,0,0-.319,1.137A1.7,1.7,0,0,0,8.127-.923a1.044,1.044,0,0,0,.861.4A1.017,1.017,0,0,0,9.85-.94a1.848,1.848,0,0,0,.311-1.134,1.732,1.732,0,0,0-.308-1.1A1.016,1.016,0,0,0,9.012-3.562Z" transform="translate(185.41 679.536)" fill="#fffaee"/><path d="M-5.7-2.566a2.828,2.828,0,0,1-.211,1.113,2.434,2.434,0,0,1-.6.855,2.689,2.689,0,0,1-.94.551A3.678,3.678,0,0,1-8.678.146a3.383,3.383,0,0,1-1.74-.352v-1.02a3.2,3.2,0,0,0,1.752.551,2.371,2.371,0,0,0,.823-.135,1.829,1.829,0,0,0,.624-.375,1.606,1.606,0,0,0,.4-.58,1.964,1.964,0,0,0,.138-.744,1.594,1.594,0,0,0-.551-1.286,2.415,2.415,0,0,0-1.6-.466q-.17,0-.357.006l-.375.015q-.187.009-.366.021t-.325.029L-9.973-8.4h3.885v.867H-9.141l-.17,2.467q.188-.012.4-.021t.375-.009a3.771,3.771,0,0,1,1.2.176,2.533,2.533,0,0,1,.894.5,2.1,2.1,0,0,1,.557.8A2.8,2.8,0,0,1-5.7-2.566Zm6.779-.1a3.113,3.113,0,0,1-.2,1.131,2.718,2.718,0,0,1-.551.891A2.461,2.461,0,0,1-.51-.062,2.654,2.654,0,0,1-1.564.146,2.4,2.4,0,0,1-2.7-.117a2.4,2.4,0,0,1-.85-.759,3.639,3.639,0,0,1-.53-1.21A6.555,6.555,0,0,1-4.26-3.7a7.572,7.572,0,0,1,.243-1.989,4.833,4.833,0,0,1,.691-1.529A3.187,3.187,0,0,1-2.244-8.2,2.9,2.9,0,0,1-.832-8.543,3.4,3.4,0,0,1,.563-8.3v.908A2.961,2.961,0,0,0-.809-7.729a2.043,2.043,0,0,0-1.014.252,2.328,2.328,0,0,0-.773.712,3.472,3.472,0,0,0-.5,1.11,5.634,5.634,0,0,0-.173,1.447h.023A2.018,2.018,0,0,1-1.324-5.256a2.522,2.522,0,0,1,.993.188,2.144,2.144,0,0,1,.756.53,2.388,2.388,0,0,1,.483.817A3.111,3.111,0,0,1,1.078-2.666Zm-.984.123a2.615,2.615,0,0,0-.111-.791,1.716,1.716,0,0,0-.319-.6A1.377,1.377,0,0,0-.85-4.31a1.725,1.725,0,0,0-.691-.132,1.618,1.618,0,0,0-.662.135,1.649,1.649,0,0,0-.527.366,1.7,1.7,0,0,0-.349.539,1.707,1.707,0,0,0-.126.653,2.606,2.606,0,0,0,.123.812,2.1,2.1,0,0,0,.346.659,1.644,1.644,0,0,0,.53.442,1.448,1.448,0,0,0,.683.161A1.563,1.563,0,0,0-.861-.812,1.477,1.477,0,0,0-.352-1.2a1.777,1.777,0,0,0,.328-.589A2.334,2.334,0,0,0,.094-2.543ZM3.926-4.189a1.771,1.771,0,0,1-1.383-.571,2.192,2.192,0,0,1-.516-1.526,2.355,2.355,0,0,1,.545-1.644,1.888,1.888,0,0,1,1.471-.6,1.765,1.765,0,0,1,1.392.557,2.275,2.275,0,0,1,.5,1.564A2.3,2.3,0,0,1,5.376-4.8,1.871,1.871,0,0,1,3.926-4.189Zm.082-3.7a1.055,1.055,0,0,0-.879.413A1.8,1.8,0,0,0,2.807-6.34a1.725,1.725,0,0,0,.316,1.1,1.044,1.044,0,0,0,.861.4,1.02,1.02,0,0,0,.861-.41,1.845,1.845,0,0,0,.311-1.137,1.76,1.76,0,0,0-.308-1.1A1.007,1.007,0,0,0,4.008-7.887ZM9.551-8.4,4.16.059H3.322L8.707-8.4ZM8.93.129A1.767,1.767,0,0,1,7.547-.445a2.194,2.194,0,0,1-.516-1.523,2.361,2.361,0,0,1,.551-1.649,1.883,1.883,0,0,1,1.465-.606,1.758,1.758,0,0,1,1.389.563,2.3,2.3,0,0,1,.5,1.576A2.293,2.293,0,0,1,10.38-.478,1.871,1.871,0,0,1,8.93.129Zm.082-3.691a1.056,1.056,0,0,0-.882.41,1.808,1.808,0,0,0-.319,1.137A1.7,1.7,0,0,0,8.127-.923a1.044,1.044,0,0,0,.861.4A1.017,1.017,0,0,0,9.85-.94a1.848,1.848,0,0,0,.311-1.134,1.732,1.732,0,0,0-.308-1.1A1.016,1.016,0,0,0,9.012-3.562Z" transform="translate(185.41 694.327)" fill="#fffaee"/><path d="M-11.178-7v1.14h2V0h1.7V-8.5H-8.85a1.2,1.2,0,0,1-.072.336,1.488,1.488,0,0,1-.324.612,1.56,1.56,0,0,1-.816.444A7.449,7.449,0,0,1-11.178-7Zm6.492,3.348a2.6,2.6,0,0,0-.336,1.3A2.567,2.567,0,0,0-4.29-.528,2.885,2.885,0,0,0-2.13.228,3.092,3.092,0,0,0,.09-.528,2.436,2.436,0,0,0,.882-2.352a2.722,2.722,0,0,0-.312-1.3,2.452,2.452,0,0,0-.948-.936,1.664,1.664,0,0,0,.8-.828A2.544,2.544,0,0,0,.606-6.3a2.068,2.068,0,0,0-.7-1.584,2.78,2.78,0,0,0-1.968-.648,2.76,2.76,0,0,0-1.968.648,2.068,2.068,0,0,0-.7,1.584,2.544,2.544,0,0,0,.18.888,2.047,2.047,0,0,0,.8.888A2.039,2.039,0,0,0-4.686-3.648Zm1.848-1.716a.977.977,0,0,1-.288-.756,1.025,1.025,0,0,1,.288-.792,1.065,1.065,0,0,1,.78-.276,1.115,1.115,0,0,1,.792.276A1.115,1.115,0,0,1-.99-6.12a1.064,1.064,0,0,1-.276.756,1.077,1.077,0,0,1-.792.3A1.03,1.03,0,0,1-2.838-5.364ZM-2.958-1.5a1.359,1.359,0,0,1-.324-.972,1.323,1.323,0,0,1,.336-.984,1.167,1.167,0,0,1,.888-.336,1.213,1.213,0,0,1,.9.336,1.37,1.37,0,0,1,.324.984,1.359,1.359,0,0,1-.324.972,1.142,1.142,0,0,1-.9.348A1.142,1.142,0,0,1-2.958-1.5ZM4.71.228,9.45-8.5H8.562L3.81.228ZM5.334-4.74A2.056,2.056,0,0,0,5.97-6.276a2.056,2.056,0,0,0-.636-1.536A2.086,2.086,0,0,0,3.8-8.46a2.094,2.094,0,0,0-1.548.648,2.1,2.1,0,0,0-.636,1.536A2.1,2.1,0,0,0,2.25-4.74,2.094,2.094,0,0,0,3.8-4.092,2.067,2.067,0,0,0,5.334-4.74Zm-.876-.876a.916.916,0,0,1-.66.276.9.9,0,0,1-.66-.276.9.9,0,0,1-.276-.66.916.916,0,0,1,.276-.66.9.9,0,0,1,.66-.276.916.916,0,0,1,.66.276.905.905,0,0,1,.264.66A.886.886,0,0,1,4.458-5.616ZM11.034-.468A2.122,2.122,0,0,0,11.67-2a2.129,2.129,0,0,0-.636-1.548,2.1,2.1,0,0,0-1.548-.636,2.056,2.056,0,0,0-1.536.636A2.064,2.064,0,0,0,7.314-2,2.075,2.075,0,0,0,7.95-.468,2.056,2.056,0,0,0,9.486.168,2.1,2.1,0,0,0,11.034-.468Zm-.888-2.208A.879.879,0,0,1,10.422-2a.846.846,0,0,1-.276.648.9.9,0,0,1-.66.276.889.889,0,0,1-.648-.276A.846.846,0,0,1,8.562-2a.879.879,0,0,1,.276-.672.878.878,0,0,1,.648-.264A.886.886,0,0,1,10.146-2.676Z" transform="translate(235.969 675.028)" fill="#242647"/><path d="M-10.494-.744l-5.039-2.531v-.346l5.039-2.824v.879L-14.256-3.48v.023l3.762,1.84ZM-.65-8.4v5.549H.428v.879H-.65V0H-1.6V-1.975H-5.549v-.832Q-5-3.428-4.436-4.134T-3.36-5.566q.513-.727.949-1.45A13.254,13.254,0,0,0-1.676-8.4ZM-4.465-2.854H-1.6V-6.967Q-2.039-6.2-2.432-5.6t-.747,1.1q-.354.492-.677.891ZM6.814-4.236a8.254,8.254,0,0,1-.19,1.869A4.355,4.355,0,0,1,6.073-.993a2.479,2.479,0,0,1-.885.85A2.422,2.422,0,0,1,4,.146,2.262,2.262,0,0,1,2.868-.132a2.364,2.364,0,0,1-.835-.812,4.113,4.113,0,0,1-.516-1.31,8.1,8.1,0,0,1-.176-1.778,9.166,9.166,0,0,1,.185-1.945,4.45,4.45,0,0,1,.542-1.415,2.412,2.412,0,0,1,.888-.861,2.492,2.492,0,0,1,1.216-.29Q6.814-8.543,6.814-4.236Zm-.984.094q0-3.586-1.705-3.586-1.8,0-1.8,3.65,0,3.4,1.764,3.4Q5.83-.674,5.83-4.143Zm3.844-.047a1.771,1.771,0,0,1-1.383-.571,2.192,2.192,0,0,1-.516-1.526A2.355,2.355,0,0,1,8.32-7.931a1.888,1.888,0,0,1,1.471-.6,1.765,1.765,0,0,1,1.392.557,2.275,2.275,0,0,1,.5,1.564A2.3,2.3,0,0,1,11.124-4.8,1.871,1.871,0,0,1,9.674-4.189Zm.082-3.7a1.055,1.055,0,0,0-.879.413A1.8,1.8,0,0,0,8.555-6.34a1.725,1.725,0,0,0,.316,1.1,1.044,1.044,0,0,0,.861.4,1.02,1.02,0,0,0,.861-.41A1.845,1.845,0,0,0,10.9-6.387a1.76,1.76,0,0,0-.308-1.1A1.007,1.007,0,0,0,9.756-7.887ZM15.3-8.4,9.908.059H9.07L14.455-8.4ZM14.678.129a1.767,1.767,0,0,1-1.383-.574,2.194,2.194,0,0,1-.516-1.523,2.361,2.361,0,0,1,.551-1.649,1.883,1.883,0,0,1,1.465-.606,1.758,1.758,0,0,1,1.389.563,2.3,2.3,0,0,1,.5,1.576,2.293,2.293,0,0,1-.554,1.608A1.871,1.871,0,0,1,14.678.129Zm.082-3.691a1.056,1.056,0,0,0-.882.41,1.808,1.808,0,0,0-.319,1.137,1.7,1.7,0,0,0,.316,1.093,1.044,1.044,0,0,0,.861.4A1.017,1.017,0,0,0,15.6-.94a1.848,1.848,0,0,0,.311-1.134,1.732,1.732,0,0,0-.308-1.1A1.016,1.016,0,0,0,14.76-3.562Z" transform="translate(234.978 706.494)" fill="#fffaee"/><path d="M-10.494-3.275-15.533-.744v-.873l3.773-1.828V-3.48l-3.773-2.086v-.879l5.039,2.824ZM.357-2.666a3.113,3.113,0,0,1-.2,1.131,2.718,2.718,0,0,1-.551.891,2.461,2.461,0,0,1-.838.583A2.654,2.654,0,0,1-2.285.146,2.4,2.4,0,0,1-3.419-.117a2.4,2.4,0,0,1-.85-.759,3.639,3.639,0,0,1-.53-1.21A6.555,6.555,0,0,1-4.98-3.7a7.572,7.572,0,0,1,.243-1.989,4.833,4.833,0,0,1,.691-1.529A3.187,3.187,0,0,1-2.965-8.2a2.9,2.9,0,0,1,1.412-.346A3.4,3.4,0,0,1-.158-8.3v.908a2.961,2.961,0,0,0-1.371-.334,2.043,2.043,0,0,0-1.014.252,2.328,2.328,0,0,0-.773.712,3.472,3.472,0,0,0-.5,1.11,5.634,5.634,0,0,0-.173,1.447h.023A2.018,2.018,0,0,1-2.045-5.256a2.522,2.522,0,0,1,.993.188,2.144,2.144,0,0,1,.756.53,2.388,2.388,0,0,1,.483.817A3.111,3.111,0,0,1,.357-2.666Zm-.984.123a2.615,2.615,0,0,0-.111-.791,1.716,1.716,0,0,0-.319-.6A1.377,1.377,0,0,0-1.57-4.31a1.725,1.725,0,0,0-.691-.132,1.618,1.618,0,0,0-.662.135,1.649,1.649,0,0,0-.527.366A1.7,1.7,0,0,0-3.8-3.4a1.707,1.707,0,0,0-.126.653,2.606,2.606,0,0,0,.123.812,2.1,2.1,0,0,0,.346.659,1.644,1.644,0,0,0,.53.442,1.448,1.448,0,0,0,.683.161,1.563,1.563,0,0,0,.662-.138,1.477,1.477,0,0,0,.51-.384,1.777,1.777,0,0,0,.328-.589A2.334,2.334,0,0,0-.627-2.543ZM6.814-4.236a8.254,8.254,0,0,1-.19,1.869A4.355,4.355,0,0,1,6.073-.993a2.479,2.479,0,0,1-.885.85A2.422,2.422,0,0,1,4,.146,2.262,2.262,0,0,1,2.868-.132a2.364,2.364,0,0,1-.835-.812,4.113,4.113,0,0,1-.516-1.31,8.1,8.1,0,0,1-.176-1.778,9.166,9.166,0,0,1,.185-1.945,4.45,4.45,0,0,1,.542-1.415,2.412,2.412,0,0,1,.888-.861,2.492,2.492,0,0,1,1.216-.29Q6.814-8.543,6.814-4.236Zm-.984.094q0-3.586-1.705-3.586-1.8,0-1.8,3.65,0,3.4,1.764,3.4Q5.83-.674,5.83-4.143Zm3.844-.047a1.771,1.771,0,0,1-1.383-.571,2.192,2.192,0,0,1-.516-1.526A2.355,2.355,0,0,1,8.32-7.931a1.888,1.888,0,0,1,1.471-.6,1.765,1.765,0,0,1,1.392.557,2.275,2.275,0,0,1,.5,1.564A2.3,2.3,0,0,1,11.124-4.8,1.871,1.871,0,0,1,9.674-4.189Zm.082-3.7a1.055,1.055,0,0,0-.879.413A1.8,1.8,0,0,0,8.555-6.34a1.725,1.725,0,0,0,.316,1.1,1.044,1.044,0,0,0,.861.4,1.02,1.02,0,0,0,.861-.41A1.845,1.845,0,0,0,10.9-6.387a1.76,1.76,0,0,0-.308-1.1A1.007,1.007,0,0,0,9.756-7.887ZM15.3-8.4,9.908.059H9.07L14.455-8.4ZM14.678.129a1.767,1.767,0,0,1-1.383-.574,2.194,2.194,0,0,1-.516-1.523,2.361,2.361,0,0,1,.551-1.649,1.883,1.883,0,0,1,1.465-.606,1.758,1.758,0,0,1,1.389.563,2.3,2.3,0,0,1,.5,1.576,2.293,2.293,0,0,1-.554,1.608A1.871,1.871,0,0,1,14.678.129Zm.082-3.691a1.056,1.056,0,0,0-.882.41,1.808,1.808,0,0,0-.319,1.137,1.7,1.7,0,0,0,.316,1.093,1.044,1.044,0,0,0,.861.4A1.017,1.017,0,0,0,15.6-.94a1.848,1.848,0,0,0,.311-1.134,1.732,1.732,0,0,0-.308-1.1A1.016,1.016,0,0,0,14.76-3.562Z" transform="translate(234.978 721.286)" fill="#fffaee"/><path d="M-11.178-7v1.14h2V0h1.7V-8.5H-8.85a1.2,1.2,0,0,1-.072.336,1.488,1.488,0,0,1-.324.612,1.56,1.56,0,0,1-.816.444A7.449,7.449,0,0,1-11.178-7ZM.246-7.416a2.4,2.4,0,0,0-2.28-1.14A2.394,2.394,0,0,0-4.3-7.416a6.548,6.548,0,0,0-.66,3.252A6.467,6.467,0,0,0-4.3-.924,2.394,2.394,0,0,0-2.034.216,2.4,2.4,0,0,0,.246-.924a6.6,6.6,0,0,0,.66-3.24A6.683,6.683,0,0,0,.246-7.416ZM-3.018-1.932a8.1,8.1,0,0,1-.24-2.232,8.079,8.079,0,0,1,.24-2.28.962.962,0,0,1,.984-.732.945.945,0,0,1,.984.732,8.173,8.173,0,0,1,.228,2.28A8.187,8.187,0,0,1-1.05-1.932a.952.952,0,0,1-.984.78A.969.969,0,0,1-3.018-1.932ZM4.71.228,9.45-8.5H8.562L3.81.228ZM5.334-4.74A2.056,2.056,0,0,0,5.97-6.276a2.056,2.056,0,0,0-.636-1.536A2.086,2.086,0,0,0,3.8-8.46a2.094,2.094,0,0,0-1.548.648,2.1,2.1,0,0,0-.636,1.536A2.1,2.1,0,0,0,2.25-4.74,2.094,2.094,0,0,0,3.8-4.092,2.067,2.067,0,0,0,5.334-4.74Zm-.876-.876a.916.916,0,0,1-.66.276.9.9,0,0,1-.66-.276.9.9,0,0,1-.276-.66.916.916,0,0,1,.276-.66.9.9,0,0,1,.66-.276.916.916,0,0,1,.66.276.905.905,0,0,1,.264.66A.886.886,0,0,1,4.458-5.616ZM11.034-.468A2.122,2.122,0,0,0,11.67-2a2.129,2.129,0,0,0-.636-1.548,2.1,2.1,0,0,0-1.548-.636,2.056,2.056,0,0,0-1.536.636A2.064,2.064,0,0,0,7.314-2,2.075,2.075,0,0,0,7.95-.468,2.056,2.056,0,0,0,9.486.168,2.1,2.1,0,0,0,11.034-.468Zm-.888-2.208A.879.879,0,0,1,10.422-2a.846.846,0,0,1-.276.648.9.9,0,0,1-.66.276.889.889,0,0,1-.648-.276A.846.846,0,0,1,8.562-2a.879.879,0,0,1,.276-.672.878.878,0,0,1,.648-.264A.886.886,0,0,1,10.146-2.676Z" transform="translate(286.53 708.714)" fill="#242647"/><path d="M-10.494-.744l-5.039-2.531v-.346l5.039-2.824v.879L-14.256-3.48v.023l3.762,1.84ZM-.65-8.4v5.549H.428v.879H-.65V0H-1.6V-1.975H-5.549v-.832Q-5-3.428-4.436-4.134T-3.36-5.566q.513-.727.949-1.45A13.254,13.254,0,0,0-1.676-8.4ZM-4.465-2.854H-1.6V-6.967Q-2.039-6.2-2.432-5.6t-.747,1.1q-.354.492-.677.891ZM6.814-4.236a8.254,8.254,0,0,1-.19,1.869A4.355,4.355,0,0,1,6.073-.993a2.479,2.479,0,0,1-.885.85A2.422,2.422,0,0,1,4,.146,2.262,2.262,0,0,1,2.868-.132a2.364,2.364,0,0,1-.835-.812,4.113,4.113,0,0,1-.516-1.31,8.1,8.1,0,0,1-.176-1.778,9.166,9.166,0,0,1,.185-1.945,4.45,4.45,0,0,1,.542-1.415,2.412,2.412,0,0,1,.888-.861,2.492,2.492,0,0,1,1.216-.29Q6.814-8.543,6.814-4.236Zm-.984.094q0-3.586-1.705-3.586-1.8,0-1.8,3.65,0,3.4,1.764,3.4Q5.83-.674,5.83-4.143Zm3.844-.047a1.771,1.771,0,0,1-1.383-.571,2.192,2.192,0,0,1-.516-1.526A2.355,2.355,0,0,1,8.32-7.931a1.888,1.888,0,0,1,1.471-.6,1.765,1.765,0,0,1,1.392.557,2.275,2.275,0,0,1,.5,1.564A2.3,2.3,0,0,1,11.124-4.8,1.871,1.871,0,0,1,9.674-4.189Zm.082-3.7a1.055,1.055,0,0,0-.879.413A1.8,1.8,0,0,0,8.555-6.34a1.725,1.725,0,0,0,.316,1.1,1.044,1.044,0,0,0,.861.4,1.02,1.02,0,0,0,.861-.41A1.845,1.845,0,0,0,10.9-6.387a1.76,1.76,0,0,0-.308-1.1A1.007,1.007,0,0,0,9.756-7.887ZM15.3-8.4,9.908.059H9.07L14.455-8.4ZM14.678.129a1.767,1.767,0,0,1-1.383-.574,2.194,2.194,0,0,1-.516-1.523,2.361,2.361,0,0,1,.551-1.649,1.883,1.883,0,0,1,1.465-.606,1.758,1.758,0,0,1,1.389.563,2.3,2.3,0,0,1,.5,1.576,2.293,2.293,0,0,1-.554,1.608A1.871,1.871,0,0,1,14.678.129Zm.082-3.691a1.056,1.056,0,0,0-.882.41,1.808,1.808,0,0,0-.319,1.137,1.7,1.7,0,0,0,.316,1.093,1.044,1.044,0,0,0,.861.4A1.017,1.017,0,0,0,15.6-.94a1.848,1.848,0,0,0,.311-1.134,1.732,1.732,0,0,0-.308-1.1A1.016,1.016,0,0,0,14.76-3.562Z" transform="translate(285.539 727.462)" fill="#fffaee"/><path d="M-10.494-3.275-15.533-.744v-.873l3.773-1.828V-3.48l-3.773-2.086v-.879l5.039,2.824ZM.357-2.666a3.113,3.113,0,0,1-.2,1.131,2.718,2.718,0,0,1-.551.891,2.461,2.461,0,0,1-.838.583A2.654,2.654,0,0,1-2.285.146,2.4,2.4,0,0,1-3.419-.117a2.4,2.4,0,0,1-.85-.759,3.639,3.639,0,0,1-.53-1.21A6.555,6.555,0,0,1-4.98-3.7a7.572,7.572,0,0,1,.243-1.989,4.833,4.833,0,0,1,.691-1.529A3.187,3.187,0,0,1-2.965-8.2a2.9,2.9,0,0,1,1.412-.346A3.4,3.4,0,0,1-.158-8.3v.908a2.961,2.961,0,0,0-1.371-.334,2.043,2.043,0,0,0-1.014.252,2.328,2.328,0,0,0-.773.712,3.472,3.472,0,0,0-.5,1.11,5.634,5.634,0,0,0-.173,1.447h.023A2.018,2.018,0,0,1-2.045-5.256a2.522,2.522,0,0,1,.993.188,2.144,2.144,0,0,1,.756.53,2.388,2.388,0,0,1,.483.817A3.111,3.111,0,0,1,.357-2.666Zm-.984.123a2.615,2.615,0,0,0-.111-.791,1.716,1.716,0,0,0-.319-.6A1.377,1.377,0,0,0-1.57-4.31a1.725,1.725,0,0,0-.691-.132,1.618,1.618,0,0,0-.662.135,1.649,1.649,0,0,0-.527.366A1.7,1.7,0,0,0-3.8-3.4a1.707,1.707,0,0,0-.126.653,2.606,2.606,0,0,0,.123.812,2.1,2.1,0,0,0,.346.659,1.644,1.644,0,0,0,.53.442,1.448,1.448,0,0,0,.683.161,1.563,1.563,0,0,0,.662-.138,1.477,1.477,0,0,0,.51-.384,1.777,1.777,0,0,0,.328-.589A2.334,2.334,0,0,0-.627-2.543ZM6.814-4.236a8.254,8.254,0,0,1-.19,1.869A4.355,4.355,0,0,1,6.073-.993a2.479,2.479,0,0,1-.885.85A2.422,2.422,0,0,1,4,.146,2.262,2.262,0,0,1,2.868-.132a2.364,2.364,0,0,1-.835-.812,4.113,4.113,0,0,1-.516-1.31,8.1,8.1,0,0,1-.176-1.778,9.166,9.166,0,0,1,.185-1.945,4.45,4.45,0,0,1,.542-1.415,2.412,2.412,0,0,1,.888-.861,2.492,2.492,0,0,1,1.216-.29Q6.814-8.543,6.814-4.236Zm-.984.094q0-3.586-1.705-3.586-1.8,0-1.8,3.65,0,3.4,1.764,3.4Q5.83-.674,5.83-4.143Zm3.844-.047a1.771,1.771,0,0,1-1.383-.571,2.192,2.192,0,0,1-.516-1.526A2.355,2.355,0,0,1,8.32-7.931a1.888,1.888,0,0,1,1.471-.6,1.765,1.765,0,0,1,1.392.557,2.275,2.275,0,0,1,.5,1.564A2.3,2.3,0,0,1,11.124-4.8,1.871,1.871,0,0,1,9.674-4.189Zm.082-3.7a1.055,1.055,0,0,0-.879.413A1.8,1.8,0,0,0,8.555-6.34a1.725,1.725,0,0,0,.316,1.1,1.044,1.044,0,0,0,.861.4,1.02,1.02,0,0,0,.861-.41A1.845,1.845,0,0,0,10.9-6.387a1.76,1.76,0,0,0-.308-1.1A1.007,1.007,0,0,0,9.756-7.887ZM15.3-8.4,9.908.059H9.07L14.455-8.4ZM14.678.129a1.767,1.767,0,0,1-1.383-.574,2.194,2.194,0,0,1-.516-1.523,2.361,2.361,0,0,1,.551-1.649,1.883,1.883,0,0,1,1.465-.606,1.758,1.758,0,0,1,1.389.563,2.3,2.3,0,0,1,.5,1.576,2.293,2.293,0,0,1-.554,1.608A1.871,1.871,0,0,1,14.678.129Zm.082-3.691a1.056,1.056,0,0,0-.882.41,1.808,1.808,0,0,0-.319,1.137,1.7,1.7,0,0,0,.316,1.093,1.044,1.044,0,0,0,.861.4A1.017,1.017,0,0,0,15.6-.94a1.848,1.848,0,0,0,.311-1.134,1.732,1.732,0,0,0-.308-1.1A1.016,1.016,0,0,0,14.76-3.562Z" transform="translate(285.539 742.254)" fill="#fffaee"/></g></svg>