<svg xmlns="http://www.w3.org/2000/svg" width="143.977" height="37" viewBox="0 0 143.977 37"><g transform="translate(-333 -584)"><g transform="translate(337 584)"><path d="M544.179-600.659a1.985,1.985,0,0,0-.059.19c.031-.053.062-.105.1-.157Z" transform="translate(-491.475 619.283)" fill="#e83a4a"/><path d="M489.568-609.977a.562.562,0,0,0-.779.6,6.067,6.067,0,0,1-.518,2.3,4.068,4.068,0,0,0,1.585-2.056C489.988-609.478,490.024-609.843,489.568-609.977Z" transform="translate(-450.494 626.155)" fill="#e83a4a"/><path d="M470.464-606.38c-.443,1.024-1.587,1.967-.433,3.443C470.2-604.278,470.332-605.329,470.464-606.38Z" transform="translate(-436.743 623.48)" fill="#e83a4a"/><path d="M544.33-600.693l.041.036c-.009-.015-.015-.029-.024-.044Z" transform="translate(-491.629 619.314)" fill="#e83a4a"/><path d="M545.741-608.947c.193-.454.358-.93-.194-1.278a.856.856,0,0,0-1.206.4c-.219.64-.829,1.274-.384,2.043C544.606-608.085,545.409-608.165,545.741-608.947Z" transform="translate(-491.239 626.404)" fill="#e83a4a"/><path d="M342.37-671.092v37H486.347v-37Zm123.659,15.274c.78.9-.089,2.074-.24,2.989-.229,1.391.859,2.171.448,3.627,1.684-1.454,1.6-2.644-.06-4.09a4.56,4.56,0,0,1,2.1.1c.311.08.748.319.562.575-.565.776-.2,1.727-.61,2.5a2.938,2.938,0,0,1-3,1.308,2.081,2.081,0,0,1-1.287-2.5c.244-1.687.26-3.41.671-5.076.288-1.166.32-1.212,1.7-1.138C465.9-656.938,465.343-656.609,466.029-655.818Zm-4.224,5.866c.164.511-.272.6-.627.578-.417-.029-.977.433-1.227-.312a4.236,4.236,0,0,1-.211-1.775c.291-1.5.655-3.347,1.009-5.2.125-.656.538-.66,1.078-.557.633.121.7.44.611,1.019C462.124-654.128,461.105-652.129,461.8-649.952Zm-4.557.2c.042.75-.5.7-.97.624s-.742-.155-.669-.908c.159-1.645.46-3.266.639-4.9a2.589,2.589,0,0,1,1.525-2.322l-.358,4.114a8.1,8.1,0,0,1,1.359-.453c.267-.041.219-.752.576-.288.174.226.235.8-.24.856C456.952-652.767,457.165-651.237,457.248-649.751Zm-5.578-1.259a5.674,5.674,0,0,1,2.029,3.986,9.228,9.228,0,0,1-.991,6.032c-.727,1.191-.669,1.226-1.541.971-.265.435,1.009.914-.05,1.34-.572.229-1.168.889-1.505-.269-.035-.122-.466-.133-.714-.191-.365-.085-.319-.389-.314-.635.006-.263.062-.521.44-.525,1.828-.019,2.48-1.192,3.178-2.7.64-1.382.326-2.708.508-4.046.235-1.737-1.1-2.677-2.2-3.6-1.17-.979-1.327-1.618.007-2.373a4.926,4.926,0,0,0,2.368-3.211c.2-.731-.673-1.576-1.583-1.555-.429.01-.811.361-1.28.193.556-1.316,1.535-1.741,2.612-1.17a2.522,2.522,0,0,1,.905,3.229c-.792,1.216-.973,2.778-2.252,3.736C450.939-651.538,451.463-651.17,451.669-651.01Zm-6.006-3.545a19.651,19.651,0,0,1-4.986,5.059.918.918,0,0,1-1.18.083c-.285-.2-.653-.448-.463-.847.852-1.791.929-3.9,2.242-5.492.194-.236.208-.849.666-.625.529.259.238.732.054,1.143q-.9,2.018-1.763,4.055c-.146.348-.515.8-.174,1.087.42.348.645-.256.935-.459,1.918-1.34,3.216-3.262,4.727-4.986.309-.353.491-.9,1.245-.542.775.367.4.956.325,1.326a49.774,49.774,0,0,0-1.3,5.739c-.022.275-.2.558-.493.487a.843.843,0,0,1-.53-.511,3.3,3.3,0,0,1,.12-1.8c.334-1.036.59-2.1.865-3.152A.513.513,0,0,0,445.663-654.555Zm-13.888,2.994a8.483,8.483,0,0,1-.667,2.473c-.089.39-.371.429-.713.263-.388-.189-.4-.454-.122-.718.85-.808.344-1.883.581-2.81.039-.151-.039-.393-.271-.349-1.543.294-3.011-.43-4.532-.318a1.083,1.083,0,0,0-1.159,1.107c-.1,1.064-.536,2.086-.538,3.187,0,.251.1.814-.5.708-.462-.081-.442-.455-.437-.825a9.292,9.292,0,0,1,.538-3.226c.237-.622.092-.8-.617-1.029-1.485-.489-2.861.142-4.286.119-.512-.008-.385.49-.412.816-.087,1.049-.155,2.1-.249,3.147-.032.354-.111.776-.586.713-.507-.068-.369-.477-.319-.832.1-.693.131-1.395.248-2.083.15-.886.251-1.71-1.111-1.884a1.867,1.867,0,0,0,1.605-2.147,5.306,5.306,0,0,1,.734-2.556.757.757,0,0,1,.429.961c-.045.211-.173.4-.237.611-.771,2.484-.62,2.651,1.918,2.179a5.122,5.122,0,0,1,2.2.124c.632.157,1.093.1,1.219-.81a34.034,34.034,0,0,1,.97-3.93c.013-.05.139-.071.3-.149a6.42,6.42,0,0,1-.31,3.425c-.3,1.025-.058,1.424.963,1.332a17.83,17.83,0,0,1,3.7.22c.9.1,1.3-.285,1.38-1.145a12.556,12.556,0,0,1,1.281-4.36c.38,1.85-.613,3.578-.481,5.424,1.5-.138,2.89-.864,4.415-.714.5.049,1.3-.235,1.209.737-.078.872-.69.439-1.175.467-1.38.081-2.759.224-4.126.427C431.839-652.886,431.743-652.126,431.775-651.561Zm-22.456,1.4c.021.4-.087.923-.554.863-.434-.056-.26-.57-.165-.874a13.5,13.5,0,0,0,.229-3.132,35.22,35.22,0,0,1-3.387,3.757c-.422.364-.752.951-1.417.69-.8-.313-.292-.995-.278-1.489.036-1.336.7-2.584.537-3.984-.044-.392.487-1.178,1.068-1.065.815.159.459.87.324,1.406a30.979,30.979,0,0,0-1.161,4.508,23.768,23.768,0,0,0,4.193-4.635c.241-.356.523-.873,1.012-.622.383.2.111.708.076,1.085A24.073,24.073,0,0,0,409.319-650.165Zm-10.8,1.208c-.1,1.758.149,3.535.2,5.306.014.489.252,1.391-.2,1.4-.807.018-.4-.889-.465-1.361-.282-2.024-.868-4.014-.688-6.094a20.134,20.134,0,0,1,1.109-5.307c.372-1,1.388-.466,2.106-.521.689-.052.967.6,1.02,1.152a2.75,2.75,0,0,1-1.913,2.533c-.573.175-.8.052-.671-.428A6.987,6.987,0,0,0,398.518-648.957Zm-8.265-2.752c1.257-.811.922.037.8.84a3.518,3.518,0,0,0,0-4.15c.769-.135,1.007.415,1.452.681.339-.189.051-1.179.871-.87.685.259.248.743.164,1.191a12.512,12.512,0,0,0-.115,1.946c-.018.653.163,1.045.938.694.305-.138.74-.314.91.135s-.374.509-.61.721c-.152.137-.49.31-.574.246-1.157-.879-2.2-.312-3.34.092-1.074.381-1.674-.458-2.21-1.235a1.485,1.485,0,0,1,.285-1.917c.412-.516.517-1.224,1.086-1.625.214-.151.464-.344.71-.151.263.206.088.459-.032.7a5.463,5.463,0,0,0-.842,2.165C389.735-651.97,389.72-651.365,390.253-651.709Zm-4.172-.2c-.082.006-.2-.016-.24.03-.782.847-1.617,1.368-2.731.521-.949-.722-.318-1.637-.217-2.415.128-.983.987-1.593,1.767-2.13A1.654,1.654,0,0,1,387-654.565c.084,1.723.379,3.481-.235,5.19a1.434,1.434,0,0,1-1.342,1.068c-.626.049-1.2.029-1.5-.706C385.746-648.989,386.315-649.775,386.082-651.905Zm-12.317,1.215c.019.243-.095.587.233.675.3.081.421-.209.564-.435.327-.518.686-1.015,1.033-1.52a.5.5,0,0,1,.788-.143c.4.28.154.429-.065.7-.429.533-.75,1.151-1.136,1.72a1.405,1.405,0,0,1-1.543.77c-.655-.185-.748-.864-.736-1.42a15.6,15.6,0,0,1,.6-4.758c.193-.563.1-1.136.288-1.667.216-.6-.339-.625-.566-.612a16.871,16.871,0,0,1-4.336-.652.915.915,0,0,0-1.262.716c-.906,2.637-1.524,5.362-2.577,7.958a10.78,10.78,0,0,1-1.652,2.783,1.426,1.426,0,0,1-2.293.112,3.307,3.307,0,0,1-1.068-3.669c.531.574.4,1.336.7,1.944.707,1.418,1.693,1.57,2.526.231a19.88,19.88,0,0,0,2.452-6.708,14.532,14.532,0,0,1,1.021-2.939c.116-.269.518-.648.013-.889a.691.691,0,0,0-1.031.487c-.055.165-.108.331-.169.494-.12.32.246.991-.372.906-.544-.074-.347-.7-.266-1.117a2.155,2.155,0,0,1,2.784-1.9c3.555.908,7.141.511,10.714.37.622-.025,1.279-.4,1.975-.487.456-.059,1.028-.269,1.017.265-.009.427.28,1.205-.657,1.421a24.6,24.6,0,0,1-3.79.508c-2.114.152-2.174.113-2.571,2.058A17.322,17.322,0,0,0,373.764-650.69Zm4.935-4.323c.493-1.063,1.508-.671,2.331-.453.869.231.558.882.44,1.495a17.736,17.736,0,0,1-.452,3.079c-.325.859-.56,1.736-1.829,1.487s-1.38-1.228-1.609-2.307A29.653,29.653,0,0,1,378.7-655.013Z" transform="translate(-346.37 671.092)" fill="#e83a4a"/></g></g></svg>