<svg xmlns="http://www.w3.org/2000/svg" width="82.164" height="28.384" viewBox="0 0 82.164 28.384"><g transform="translate(-0.002)"><g transform="translate(33.161 2.116)"><g transform="translate(0 0.143)"><path d="M160.788,10.922h5.078v1.8h-3v1.637h2.794v1.736h-2.794v1.917h3v1.817h-5.078Z" transform="translate(-160.788 -10.922)" fill="#fff9ea"/></g><g transform="translate(6.024 0.143)"><path d="M189.912,10.922h2.066v5.9a2.337,2.337,0,0,0,.193,1.058.641.641,0,0,0,.585.355.661.661,0,0,0,.61-.323,1.808,1.808,0,0,0,.205-.965V10.922h2.079v6.136a2.921,2.921,0,0,1-.759,2.153,2.93,2.93,0,0,1-2.153.759,2.83,2.83,0,0,1-2.085-.734,2.948,2.948,0,0,1-.741-2.178Z" transform="translate(-189.912 -10.922)" fill="#fff9ea"/></g><g transform="translate(12.869 0.143)"><path d="M223.008,10.922h3.2a2.62,2.62,0,0,1,1.755.566,1.959,1.959,0,0,1,.678,1.593,2.2,2.2,0,0,1-.485,1.444,3.115,3.115,0,0,1-1.444.946A1.744,1.744,0,0,1,228.2,17l.6,2.825h-2.271l-.33-2.464a2.176,2.176,0,0,0-.3-.909.727.727,0,0,0-.635-.292h-.193v3.665h-2.072Zm2.072,1.736h0v1.9h.454a.931.931,0,0,0,.74-.286,1.071,1.071,0,0,0,.255-.728.913.913,0,0,0-.224-.672.954.954,0,0,0-.678-.218Z" transform="translate(-223.008 -10.922)" fill="#fff9ea"/></g><g transform="translate(18.88 0.143)"><path d="M254.4,10.922h2.06l2.352,8.9h-2.265l-.317-1.767h-1.705l-.324,1.767h-2.128Zm.989,2.433h0l-.573,3.111h1.133Z" transform="translate(-252.072 -10.922)" fill="#fff9ea"/></g><g transform="translate(26.068)"><path d="M286.823,16.621a2.989,2.989,0,0,0,1.941.958,1.145,1.145,0,0,0,.8-.305.952.952,0,0,0,.33-.728.916.916,0,0,0-.236-.61,3.164,3.164,0,0,0-.909-.6,4.3,4.3,0,0,1-1.425-1.033,2.067,2.067,0,0,1-.5-1.437,2.532,2.532,0,0,1,.778-1.873,2.856,2.856,0,0,1,2.066-.759,4.064,4.064,0,0,1,1.83.473v2.128a2.388,2.388,0,0,0-1.612-.815,1.008,1.008,0,0,0-.666.23.7.7,0,0,0-.28.554.733.733,0,0,0,.23.547,2.625,2.625,0,0,0,.828.5,4.373,4.373,0,0,1,1.518,1.027,2.243,2.243,0,0,1,.516,1.562,2.862,2.862,0,0,1-.884,2.116,3.01,3.01,0,0,1-2.178.871,4.722,4.722,0,0,1-2.147-.6Z" transform="translate(-286.823 -10.23)" fill="#fff9ea"/></g><g transform="translate(32.303 0.143)"><path d="M316.971,10.922h2.091v8.9h-2.091Z" transform="translate(-316.971 -10.922)" fill="#fff9ea"/></g><g transform="translate(35.091 0.143)"><path d="M332.777,10.922h2.066l2.346,8.9h-2.265l-.317-1.767H332.9l-.324,1.767H330.45Zm.989,2.433h0l-.572,3.111h1.126Z" transform="translate(-330.45 -10.922)" fill="#fff9ea"/></g><g transform="translate(42.459 0.143)"><path d="M366.073,10.922h2.116l1.014,2.825c.3.84.529,1.562.691,2.178h.112l-.05-1.506v-3.5h1.991v8.9h-2.109l-1.014-2.819c-.3-.84-.535-1.568-.7-2.184h-.112l.05,1.506v3.5h-1.991Z" transform="translate(-366.073 -10.922)" fill="#fff9ea"/></g><g transform="translate(0.18 15.403)"><path d="M161.66,86.8h4.176v.765h-3.311V90.9h3.111v.716h-3.111v4.095h-.865Z" transform="translate(-161.66 -86.802)" fill="#fff9ea"/></g><g transform="translate(11.4 15.403)"><path d="M215.908,86.8h.871v8.9h-.871Z" transform="translate(-215.908 -86.802)" fill="#fff9ea"/></g><g transform="translate(19.888 15.403)"><path d="M256.947,86.8h.865v8.152h3.311v.753h-4.176Z" transform="translate(-256.947 -86.802)" fill="#fff9ea"/></g><g transform="translate(30.94 15.403)"><path d="M311.433,86.8l1.923,4.9,1.91-4.9h1.039v8.9h-.784V90.025l.006-1.462c0-.187-.006-.454-.006-.815a19.221,19.221,0,0,1-.616,1.873l-1.55,4.039-1.319-3.392q-.383-.989-.915-2.446c.056,1.917.081,2.987.081,3.2v4.686h-.822V86.8Z" transform="translate(-310.381 -86.802)" fill="#fff9ea"/></g><g transform="translate(43.971 15.254)"><path d="M373.4,93.423a6.548,6.548,0,0,0,1.1.765,2,2,0,0,0,.865.205,1.8,1.8,0,0,0,1.244-.5,1.67,1.67,0,0,0,.548-1.294,1.453,1.453,0,0,0-.361-1.008,3.611,3.611,0,0,0-1.382-.772c-1.35-.516-2.029-1.288-2.029-2.327a2.29,2.29,0,0,1,.722-1.705,2.364,2.364,0,0,1,1.724-.709,2.953,2.953,0,0,1,1.693.616v1.151a4.494,4.494,0,0,0-.915-.7,1.556,1.556,0,0,0-.765-.193,1.456,1.456,0,0,0-1.108.46,1.474,1.474,0,0,0-.448,1.064,1.214,1.214,0,0,0,.4.965,5.491,5.491,0,0,0,1.45.784,5.916,5.916,0,0,1,1.02.516,2.093,2.093,0,0,1,.641.74,2.26,2.26,0,0,1,.255,1.1,2.688,2.688,0,0,1-2.663,2.7,3.5,3.5,0,0,1-1.991-.74Z" transform="translate(-373.384 -86.08)" fill="#fff9ea"/></g></g><g transform="translate(32.52 14.044)"><path d="M207.335,69.42H157.689v-.46h49.646Z" transform="translate(-157.689 -68.96)" fill="#fff9ea"/></g><path d="M27.656,1.851H28.87V0H0V1.851H1.1a.43.43,0,0,1,.436.429V4a.43.43,0,0,1-.436.429H0V28.384H28.87V4.425H27.656A.435.435,0,0,1,27.214,4V2.28A.435.435,0,0,1,27.656,1.851Zm-7.592.429h0a.43.43,0,0,1,.436-.429h2.054a.428.428,0,0,1,.429.429V4a.428.428,0,0,1-.429.429H20.5A.43.43,0,0,1,20.064,4Zm-7.15,0h0a.435.435,0,0,1,.442-.429H15.4a.435.435,0,0,1,.442.429V4a.435.435,0,0,1-.442.429H13.356A.435.435,0,0,1,12.914,4Zm-7.15,0h0a.435.435,0,0,1,.442-.429H8.247a.435.435,0,0,1,.442.429V4a.435.435,0,0,1-.442.429H6.206A.435.435,0,0,1,5.764,4ZM27.787,17.364h0a.822.822,0,0,1,.734,1.024.392.392,0,0,1-.025.631c.473.306.4.521.311.582-.019.221-.249.165-.547.135.541.38.236.791-.019.815.044.5-.56.423-.859.3.05.349-.678.251-1.058.018.05.429-.386.386-.56.325a.55.55,0,0,1-.653.27.544.544,0,0,1-.461.019.836.836,0,0,1-.815-.472.686.686,0,0,1-.411-.662c-.006-.141-.392-.4-.548-.484s-1.276-.46-1.344-.245a.262.262,0,0,1-.106.153c-.112.074-.23-.147-.162.129a.4.4,0,0,1-.342.466.309.309,0,0,1-.23.417.35.35,0,0,1-.286.4c.019.227-.068.3-.317.423,0,.527-.274.5-.4.558a.34.34,0,0,1-.286.429c.05.349-.162.4-.386.472a.466.466,0,0,1-.46.423c-.044.558-.5.576-.641.631.012.233-.243.313-.548.331.031.306-.361.4-.56.325a.924.924,0,0,1-1.1.061.419.419,0,0,1-.566.368c0,.527-.554.637-.84.625a.867.867,0,0,1-.964.435c-.193-.049-.311.27-.461.533s-.548.282-.61.061-.218-.239-.261-.092a4.8,4.8,0,0,1-.467.735c-.292.435-.989,1.091-.778.8a3.509,3.509,0,0,0,.274-1.459c.019-.4-.162-.325-.255-.117a2.151,2.151,0,0,1-.516.656,8.042,8.042,0,0,1-.958.8c-.355.221-.392.178-.106-.129a4.263,4.263,0,0,0,.728-1.33c.031-.2-.106-.11-.286.19a1.881,1.881,0,0,1-.461.613,2.972,2.972,0,0,1-.828.533,1.637,1.637,0,0,1-.828.227c-.156,0-.728-.1-.361-.178a3.554,3.554,0,0,0,.921-.312,2.237,2.237,0,0,0,.89-.889c.15-.251.131-.392-.012-.245a3.271,3.271,0,0,1-.834.846,2.8,2.8,0,0,1-1.774.527c-.516.018-.741-.1.212-.239a2.547,2.547,0,0,0,1.767-.846c.317-.276.268-.539.205-.466a2.354,2.354,0,0,1-1.244.975,2.155,2.155,0,0,1-2.209-.337c-.181-.233-.2-.4.218-.19.187.092.535.233.535.233a1.872,1.872,0,0,0,2.215-.49,1.893,1.893,0,0,1-2.2.27c-.33-.233-.224-.319-.037-.239a2.1,2.1,0,0,0,2.408-.349,7.24,7.24,0,0,0,1.755-2.691,2.364,2.364,0,0,1-.759.533c.541-.638,1.238-1.735,1.618-2.243s1.12-1.336,1.966-2.372a21.18,21.18,0,0,0,1.413-1.961,6.127,6.127,0,0,0-1.686-.392A7.1,7.1,0,0,0,11.284,17c-.112.067-.591.11-.722.159s-.044.208.012.349a.563.563,0,0,1-.349-.423c-.149-.729.585-.981.865-1.066a2.913,2.913,0,0,1,1.717-.723,9.829,9.829,0,0,0,1.35-.245,8.5,8.5,0,0,1-1.78-2.035c-.205-.349-.174-.735.174-.521s1.3,1.152,1.537,1.318.274.024.093-.233-1-1.391-1.3-1.82-.249-.57.411-.184A3.347,3.347,0,0,1,14.657,12.8c.212.429.61.791.566.674s-.205-.564-.3-.84a11.244,11.244,0,0,0-1.1-1.618c-.367-.466.037-.509.249-.429a3.93,3.93,0,0,1,1.189.8,2.808,2.808,0,0,1,.759,1.453c.025.263.056.435.181.172a3.071,3.071,0,0,0-.311-1.741c-.255-.417-.28-.864.38-.576a1.633,1.633,0,0,1,.94,1.385c.05.472-.143.693.081.588s.3-.815.349-1.342.205-.711.585-.521.4.742.355,1.03-.3.558-.112.619.909-.748,1.276-1.158.56.092.448.221a1.071,1.071,0,0,0-.162.631c.006.239.417-.172.7-.4a.363.363,0,0,1,.6.123c.348-.313.61.117.535.38.2-.147.66-.135.709-.018s-.093.141-.044.257.261.153.243.331-.149.092-.137.208.261.037.317.166.174.129.324.19.068.092.224.264.087.067.118.429a.862.862,0,0,1,.137,1.422c-.317.159-.38.031-.423.172a15.984,15.984,0,0,0,2.645.012,1.107,1.107,0,0,1,1.045.674A.78.78,0,0,1,27.787,17.364Z" fill="#fff9ea" fill-rule="evenodd"/></g></svg>