<svg xmlns="http://www.w3.org/2000/svg" width="22" height="21.001" viewBox="0 0 22 21.001"><g transform="translate(5811 -12948)"><rect width="22" height="21" transform="translate(-5811 12948)" fill="#292c45"/><g transform="translate(-5802.638 12949.726)"><path d="M-423.429-359.324q.006-3.863,0-7.726c0-.209.077-.25.255-.248.715.008,1.43,0,2.144.009.194,0,.272-.062.294-.256.09-.771.187-1.54.28-2.31.027-.227.049-.454.077-.71-.1-.006-.192-.015-.28-.015-.837,0-1.673-.006-2.51,0-.2,0-.266-.057-.262-.269.012-.62.009-1.24,0-1.86-.009-1.117.5-1.411,1.4-1.452.5-.023,1-.011,1.506,0,.183,0,.256-.05.254-.253-.009-.819-.007-1.637,0-2.456,0-.166-.044-.25-.212-.259-.2-.01-.392-.046-.589-.053a10.586,10.586,0,0,0-2.769.072,3.584,3.584,0,0,0-2.75,3.095,20.412,20.412,0,0,0-.1,2.159c-.011.318,0,.636,0,.954s0,.32-.317.32h-2.309c-.009.087-.021.148-.021.209,0,.946,0,1.892,0,2.837,0,.19.056.245.234.243.73-.009,1.46,0,2.19-.008.185,0,.231.062.231.247q-.007,3.863,0,7.726c0,.159-.034.228-.162.243h3.588C-423.392-359.1-423.429-359.166-423.429-359.324Z" transform="translate(429.908 378.357)" fill="#fffaea"/></g></g></svg>