<svg xmlns="http://www.w3.org/2000/svg" width="60.687" height="12" viewBox="0 0 60.687 12"><g transform="translate(-308 -120.5)"><text transform="translate(308 130)" fill="#1f1736" font-size="10" font-family="Arial-BoldMT, Arial" font-weight="700" letter-spacing="-0.015em" opacity="0.501"><tspan x="0" y="0">Фильтры</tspan></text><g transform="translate(386.655 -1196.896)"><g transform="translate(-29.655 1317.396)"><path d="M-27.927,1319.131a1.281,1.281,0,0,1,.178.047q.622.246,1.241.5a.069.069,0,0,0,.076-.01,4.392,4.392,0,0,1,.708-.412.062.062,0,0,0,.041-.055q.077-.549.157-1.1c.013-.091.023-.183.04-.274a.523.523,0,0,1,.529-.429q1.147,0,2.294,0a.541.541,0,0,1,.541.5c.05.41.118.818.171,1.228a.177.177,0,0,0,.119.161,3.772,3.772,0,0,1,.648.382.062.062,0,0,0,.068.007l1.236-.5a.534.534,0,0,1,.7.24l1.124,1.946a.531.531,0,0,1,.009.567.607.607,0,0,1-.145.16c-.348.277-.7.549-1.05.823a.064.064,0,0,0-.03.066,3.88,3.88,0,0,1,0,.828.06.06,0,0,0,.027.063l1.048.819a.539.539,0,0,1,.143.731l-1.135,1.966a.53.53,0,0,1-.666.234q-.631-.252-1.261-.506a.066.066,0,0,0-.072.008,4.429,4.429,0,0,1-.712.414.062.062,0,0,0-.04.056q-.1.682-.195,1.364a.525.525,0,0,1-.452.43c-.05,0-.1.007-.151.007h-2.2a.548.548,0,0,1-.433-.184.6.6,0,0,1-.133-.334c-.06-.43-.123-.859-.184-1.289a.059.059,0,0,0-.04-.051,4.3,4.3,0,0,1-.716-.416.062.062,0,0,0-.068-.006l-1.236.5a.534.534,0,0,1-.7-.242q-.562-.973-1.124-1.946a.532.532,0,0,1-.009-.567.582.582,0,0,1,.139-.155c.35-.277.7-.551,1.054-.825a.071.071,0,0,0,.032-.074,3.766,3.766,0,0,1,0-.819.064.064,0,0,0-.028-.067q-.528-.411-1.055-.824a.534.534,0,0,1-.141-.713q.574-1,1.152-1.992A.543.543,0,0,1-27.927,1319.131Zm4.117,2.265a2,2,0,0,0-2,1.983,2,2,0,0,0,2,2.016,2,2,0,0,0,2-1.988A2,2,0,0,0-23.811,1321.4Z" transform="translate(29.655 -1317.396)" fill="#1f1736"/></g></g></g></svg>