<svg xmlns="http://www.w3.org/2000/svg" xmlns:xlink="http://www.w3.org/1999/xlink" width="373" height="379.545" viewBox="0 0 373 379.545"><defs><filter id="a" x="0" y="332.007" width="373" height="39.993" filterUnits="userSpaceOnUse"><feOffset dy="3" input="SourceAlpha"/><feGaussianBlur stdDeviation="3" result="b"/><feFlood flood-opacity="0.161"/><feComposite operator="in" in2="b"/><feComposite in="SourceGraphic"/></filter></defs><g transform="translate(-1 -236)"><g transform="translate(-1151.133 -1042.155)"><rect width="355" height="355" rx="8" transform="translate(1161.133 1278.155)" fill="#fff9ea"/><path d="M1516.133,1544.405h-311.6v-266.25" fill="none" stroke="#e3ded5" stroke-width="2"/><line y1="266.25" transform="translate(1237.94 1278.155)" fill="none" stroke="#e3ded5" stroke-width="2"/><line y1="266.25" transform="translate(1271.343 1278.155)" fill="none" stroke="#e3ded5" stroke-width="2"/><line y1="266.25" transform="translate(1304.746 1278.155)" fill="none" stroke="#e3ded5" stroke-width="2"/><line y1="266.25" transform="translate(1338.149 1278.155)" fill="none" stroke="#e3ded5" stroke-width="2"/><line y1="266.25" transform="translate(1371.552 1278.155)" fill="none" stroke="#e3ded5" stroke-width="2"/><line y1="266.25" transform="translate(1404.956 1278.155)" fill="none" stroke="#e3ded5" stroke-width="2"/><line y1="266.25" transform="translate(1438.359 1278.155)" fill="none" stroke="#e3ded5" stroke-width="2"/><line x2="311.597" transform="translate(1204.536 1511.124)" fill="none" stroke="#e3ded5" stroke-linejoin="bevel" stroke-width="1.5" stroke-dasharray="8"/><line x2="311.597" transform="translate(1204.536 1444.561)" fill="none" stroke="#e3ded5" stroke-linejoin="bevel" stroke-width="1.5" stroke-dasharray="8"/><line x2="311.597" transform="translate(1204.536 1411.28)" fill="none" stroke="#e3ded5" stroke-width="2"/><line x2="311.597" transform="translate(1204.536 1377.999)" fill="none" stroke="#e3ded5" stroke-linejoin="bevel" stroke-width="1.5" stroke-dasharray="8"/><line x2="311.597" transform="translate(1204.536 1344.718)" fill="none" stroke="#e3ded5" stroke-width="2"/><line x2="311.597" transform="translate(1204.536 1311.436)" fill="none" stroke="#e3ded5" stroke-linejoin="bevel" stroke-width="1.5" stroke-dasharray="8"/><line x2="311.597" transform="translate(1204.536 1527.764)" fill="none" stroke="#e3ded5" stroke-linejoin="bevel" stroke-width="1" stroke-dasharray="4"/><line x2="311.597" transform="translate(1204.536 1461.202)" fill="none" stroke="#e3ded5" stroke-linejoin="bevel" stroke-width="1" stroke-dasharray="4"/><line x2="311.597" transform="translate(1204.536 1394.639)" fill="none" stroke="#e3ded5" stroke-linejoin="bevel" stroke-width="1" stroke-dasharray="4"/><line x2="311.597" transform="translate(1204.536 1328.077)" fill="none" stroke="#e3ded5" stroke-linejoin="bevel" stroke-width="1" stroke-dasharray="4"/><line x2="311.597" transform="translate(1204.536 1494.483)" fill="none" stroke="#e3ded5" stroke-linejoin="bevel" stroke-width="1" stroke-dasharray="4"/><line x2="311.597" transform="translate(1204.536 1427.921)" fill="none" stroke="#e3ded5" stroke-linejoin="bevel" stroke-width="1" stroke-dasharray="4"/><line x2="311.597" transform="translate(1204.536 1361.358)" fill="none" stroke="#e3ded5" stroke-linejoin="bevel" stroke-width="1" stroke-dasharray="4"/><line x2="311.597" transform="translate(1204.536 1294.796)" fill="none" stroke="#e3ded5" stroke-linejoin="bevel" stroke-width="1" stroke-dasharray="4"/><line y1="266.25" transform="translate(1471.762 1278.155)" fill="none" stroke="#e3ded5" stroke-width="2"/><line y1="266.25" transform="translate(1505.165 1278.155)" fill="none" stroke="#e3ded5" stroke-width="2"/><path d="M8,0H110.21a0,0,0,0,1,0,0V266.25a0,0,0,0,1,0,0H0a0,0,0,0,1,0,0V8A8,8,0,0,1,8,0Z" transform="translate(1161.133 1278.155)" fill="#e3ded5" opacity="0.5" style="isolation:isolate"/><path d="M0,0H177.5a0,0,0,0,1,0,0V266.25a0,0,0,0,1,0,0H8a8,8,0,0,1-8-8V0A0,0,0,0,1,0,0Z" transform="translate(1516.133 1544.405) rotate(180)" fill="#ffbe28" opacity="0.102" style="isolation:isolate"/><rect width="33.403" height="66.563" transform="translate(1237.94 1477.843)" fill="none" stroke="#e3ded5" stroke-width="2"/><path d="M-3.57-7.546c0-.7.308-.966.8-.966s.8.266.8.966v5.292c0,.7-.308.966-.8.966s-.8-.266-.8-.966ZM-5.11-2.352A2.175,2.175,0,0,0-2.772.112,2.175,2.175,0,0,0-.434-2.352v-5.1A2.175,2.175,0,0,0-2.772-9.912,2.175,2.175,0,0,0-5.11-7.448Z" transform="translate(1197.59 1557.408) rotate(-45)" fill="#242549"/><path d="M-40.88-3.164v.812c0,1.568.784,2.464,2.3,2.464s2.3-.9,2.3-2.464V-4.536c0-1.442-.574-2.24-1.708-2.24a1.469,1.469,0,0,0-1.344.714l.126-2.338h2.674V-9.8H-40.6l-.28,5.684h1.456V-4.41c0-.7.308-.966.8-.966s.8.266.8.966v2.156c0,.7-.308.952-.8.952s-.8-.252-.8-.952v-.91Zm6.818-4.382c0-.7.308-.966.8-.966s.8.266.8.966v5.292c0,.7-.308.966-.8.966s-.8-.266-.8-.966ZM-35.6-2.352A2.175,2.175,0,0,0-33.264.112a2.175,2.175,0,0,0,2.338-2.464v-5.1a2.175,2.175,0,0,0-2.338-2.464A2.175,2.175,0,0,0-35.6-7.448Zm6.874-5.194c0-.7.308-.966.8-.966s.8.266.8.966v5.292c0,.7-.308.966-.8.966s-.8-.266-.8-.966Zm-1.54,5.194A2.175,2.175,0,0,0-27.93.112a2.175,2.175,0,0,0,2.338-2.464v-5.1A2.175,2.175,0,0,0-27.93-9.912a2.175,2.175,0,0,0-2.338,2.464ZM-23.3-8.4h1.61V0h1.54V-8.4h1.61V-9.8H-23.3Zm7.49,8.4c1.54,0,2.3-.854,2.3-2.422V-3.7c0-1.568-.756-2.422-2.3-2.422h-.728V-9.8h-1.54V0Zm-.728-1.4V-4.718h.728c.49,0,.756.224.756.924v1.47c0,.7-.266.924-.756.924ZM-11.088,0V-9.8h-1.54V0Zm3.92-3.654v1.4c0,.7-.308.952-.8.952s-.8-.252-.8-.952V-7.546c0-.7.308-.966.8-.966s.8.266.8.966V-6.5h1.456v-.952c0-1.568-.784-2.464-2.3-2.464s-2.3.9-2.3,2.464v5.1c0,1.568.784,2.464,2.3,2.464s2.3-.9,2.3-2.464v-1.3ZM-5.124-8.54l-.392,1.19,2.3.392L-4.858-5.32l1.008.742L-2.772-6.65l1.078,2.072L-.686-5.32-2.324-6.958l2.3-.392L-.42-8.54-2.506-7.49l.364-2.31H-3.4l.364,2.31Z" transform="translate(1244.993 1557.408) rotate(-45)" fill="#242549"/><path d="M-27.174-7.476h1.19V0h1.54V-9.8H-25.48a1.526,1.526,0,0,1-1.694,1.232ZM-16.744-9.8h-2.142V0h1.344V-6.93L-16.394,0h1.456l1.064-7.028V0h1.456V-9.8H-14.56l-1.05,6.958Zm4.8,9.814h.238c1.54,0,2.184-.7,2.24-2.492L-9.3-8.4h1.344V0h1.568V-9.8h-4.354l-.252,7.406c-.028.91-.252,1.008-.952,1.008ZM-3.878-4.2h1.75V0H-.56V-9.8H-2.128v4.2h-1.75V-9.8h-1.54V0h1.54Z" transform="translate(1278.396 1557.408) rotate(-45)" fill="#242549"/><path d="M-34.9-7.476h1.19V0h1.54V-9.8h-1.036A1.526,1.526,0,0,1-34.9-8.568Zm4.382,5.992V0h1.484V-1.484Zm2.324-1.68v.812c0,1.568.784,2.464,2.3,2.464s2.3-.9,2.3-2.464V-4.536c0-1.442-.574-2.24-1.708-2.24a1.469,1.469,0,0,0-1.344.714L-26.53-8.4h2.674V-9.8h-4.06l-.28,5.684h1.456V-4.41c0-.7.308-.966.8-.966s.8.266.8.966v2.156c0,.7-.308.952-.8.952s-.8-.252-.8-.952v-.91ZM-16.744-9.8h-2.142V0h1.344V-6.93L-16.394,0h1.456l1.064-7.028V0h1.456V-9.8H-14.56l-1.05,6.958Zm4.8,9.814h.238c1.54,0,2.184-.7,2.24-2.492L-9.3-8.4h1.344V0h1.568V-9.8h-4.354l-.252,7.406c-.028.91-.252,1.008-.952,1.008ZM-3.878-4.2h1.75V0H-.56V-9.8H-2.128v4.2h-1.75V-9.8h-1.54V0h1.54Z" transform="translate(1311.799 1557.408) rotate(-45)" fill="#242549"/><path d="M-25.074-7.392c0,2.828-3.052,3.3-3.052,6.188V0h4.452V-1.4h-2.912a1.06,1.06,0,0,1-.014-.21c0-1.61,3.066-2.758,3.066-5.838,0-1.568-.784-2.464-2.3-2.464s-2.3.9-2.3,2.464V-6.5h1.456v-1.05c0-.7.308-.966.8-.966S-25.074-8.274-25.074-7.392Zm8.33-2.408h-2.142V0h1.344V-6.93L-16.394,0h1.456l1.064-7.028V0h1.456V-9.8H-14.56l-1.05,6.958Zm4.8,9.814h.238c1.54,0,2.184-.7,2.24-2.492L-9.3-8.4h1.344V0h1.568V-9.8h-4.354l-.252,7.406c-.028.91-.252,1.008-.952,1.008ZM-3.878-4.2h1.75V0H-.56V-9.8H-2.128v4.2h-1.75V-9.8h-1.54V0h1.54Z" transform="translate(1345.203 1557.408) rotate(-45)" fill="#242549"/><path d="M-32.8-7.392c0,2.828-3.052,3.3-3.052,6.188V0H-31.4V-1.4h-2.912a1.06,1.06,0,0,1-.014-.21c0-1.61,3.066-2.758,3.066-5.838,0-1.568-.784-2.464-2.3-2.464s-2.3.9-2.3,2.464V-6.5H-34.4v-1.05c0-.7.308-.966.8-.966S-32.8-8.274-32.8-7.392Zm2.282,5.908V0h1.484V-1.484Zm2.324-1.68v.812c0,1.568.784,2.464,2.3,2.464s2.3-.9,2.3-2.464V-4.536c0-1.442-.574-2.24-1.708-2.24a1.469,1.469,0,0,0-1.344.714L-26.53-8.4h2.674V-9.8h-4.06l-.28,5.684h1.456V-4.41c0-.7.308-.966.8-.966s.8.266.8.966v2.156c0,.7-.308.952-.8.952s-.8-.252-.8-.952v-.91ZM-16.744-9.8h-2.142V0h1.344V-6.93L-16.394,0h1.456l1.064-7.028V0h1.456V-9.8H-14.56l-1.05,6.958Zm4.8,9.814h.238c1.54,0,2.184-.7,2.24-2.492L-9.3-8.4h1.344V0h1.568V-9.8h-4.354l-.252,7.406c-.028.91-.252,1.008-.952,1.008ZM-3.878-4.2h1.75V0H-.56V-9.8H-2.128v4.2h-1.75V-9.8h-1.54V0h1.54Z" transform="translate(1378.606 1557.408) rotate(-45)" fill="#242549"/><path d="M-25.158-6.846c0,.784-.35,1.036-.924,1.036h-.6v1.4h.518c.7,0,1.008.336,1.008,1.246v.77c0,.868-.308,1.106-.8,1.106s-.8-.266-.8-.966v-.91H-28.21v.812c0,1.568.784,2.464,2.3,2.464s2.3-.9,2.3-2.464v-.77A2,2,0,0,0-24.7-5.18,1.909,1.909,0,0,0-23.618-7.2v-.252c0-1.568-.784-2.464-2.3-2.464s-2.3.9-2.3,2.464v.532h1.456v-.63c0-.7.308-.966.8-.966s.8.238.8,1.12ZM-16.744-9.8h-2.142V0h1.344V-6.93L-16.394,0h1.456l1.064-7.028V0h1.456V-9.8H-14.56l-1.05,6.958Zm4.8,9.814h.238c1.54,0,2.184-.7,2.24-2.492L-9.3-8.4h1.344V0h1.568V-9.8h-4.354l-.252,7.406c-.028.91-.252,1.008-.952,1.008ZM-3.878-4.2h1.75V0H-.56V-9.8H-2.128v4.2h-1.75V-9.8h-1.54V0h1.54Z" transform="translate(1412.009 1557.408) rotate(-45)" fill="#242549"/><path d="M-28.49-1.778h2.968V0h1.512V-1.778h.728v-1.4h-.728V-9.8h-1.68l-2.8,6.622Zm1.414-1.4,1.554-3.682v3.682ZM-16.744-9.8h-2.142V0h1.344V-6.93L-16.394,0h1.456l1.064-7.028V0h1.456V-9.8H-14.56l-1.05,6.958Zm4.8,9.814h.238c1.54,0,2.184-.7,2.24-2.492L-9.3-8.4h1.344V0h1.568V-9.8h-4.354l-.252,7.406c-.028.91-.252,1.008-.952,1.008ZM-3.878-4.2h1.75V0H-.56V-9.8H-2.128v4.2h-1.75V-9.8h-1.54V0h1.54Z" transform="translate(1445.413 1557.408) rotate(-45)" fill="#242549"/><path d="M-28.2-3.164v.812c0,1.568.784,2.464,2.3,2.464s2.3-.9,2.3-2.464V-4.536c0-1.442-.574-2.24-1.708-2.24a1.469,1.469,0,0,0-1.344.714L-26.53-8.4h2.674V-9.8h-4.06l-.28,5.684h1.456V-4.41c0-.7.308-.966.8-.966s.8.266.8.966v2.156c0,.7-.308.952-.8.952s-.8-.252-.8-.952v-.91ZM-16.744-9.8h-2.142V0h1.344V-6.93L-16.394,0h1.456l1.064-7.028V0h1.456V-9.8H-14.56l-1.05,6.958Zm4.8,9.814h.238c1.54,0,2.184-.7,2.24-2.492L-9.3-8.4h1.344V0h1.568V-9.8h-4.354l-.252,7.406c-.028.91-.252,1.008-.952,1.008ZM-3.878-4.2h1.75V0H-.56V-9.8H-2.128v4.2h-1.75V-9.8h-1.54V0h1.54Z" transform="translate(1478.816 1557.408) rotate(-45)" fill="#242549"/><path d="M-28.224-2.352A2.175,2.175,0,0,0-25.886.112a2.175,2.175,0,0,0,2.338-2.464V-4.144c0-1.442-.574-2.24-1.708-2.24a1.466,1.466,0,0,0-1.428.868V-7.308c0-.938.308-1.2.854-1.2.49,0,.8.266.8.966v.35h1.456v-.252c0-1.568-.784-2.464-2.3-2.464-1.6,0-2.352.9-2.352,2.548Zm2.338-2.632c.49,0,.8.266.8.966v1.764c0,.7-.308.952-.8.952s-.8-.252-.8-.952V-4.018C-26.684-4.718-26.376-4.984-25.886-4.984ZM-16.744-9.8h-2.142V0h1.344V-6.93L-16.394,0h1.456l1.064-7.028V0h1.456V-9.8H-14.56l-1.05,6.958Zm4.8,9.814h.238c1.54,0,2.184-.7,2.24-2.492L-9.3-8.4h1.344V0h1.568V-9.8h-4.354l-.252,7.406c-.028.91-.252,1.008-.952,1.008ZM-3.878-4.2h1.75V0H-.56V-9.8H-2.128v4.2h-1.75V-9.8h-1.54V0h1.54Z" transform="translate(1512.219 1557.408) rotate(-45)" fill="#242549"/><path d="M-19.376-3.164v.812c0,1.568.784,2.464,2.3,2.464s2.3-.9,2.3-2.464V-4.536c0-1.442-.574-2.24-1.708-2.24a1.469,1.469,0,0,0-1.344.714L-17.71-8.4h2.674V-9.8H-19.1l-.28,5.684h1.456V-4.41c0-.7.308-.966.8-.966s.8.266.8.966v2.156c0,.7-.308.952-.8.952s-.8-.252-.8-.952v-.91Zm7.028-4.382c0-.7.308-.966.8-.966s.8.266.8.966v5.292c0,.7-.308.966-.8.966s-.8-.266-.8-.966Zm-1.54,5.194A2.175,2.175,0,0,0-11.55.112,2.175,2.175,0,0,0-9.212-2.352v-5.1A2.175,2.175,0,0,0-11.55-9.912a2.175,2.175,0,0,0-2.338,2.464Zm6.566-6.02c0-.434.182-.616.5-.616s.5.182.5.616v3.36c0,.434-.2.616-.5.616s-.5-.182-.5-.616Zm-.98,3.29A1.375,1.375,0,0,0-6.818-3.514,1.375,1.375,0,0,0-5.334-5.082V-8.3A1.375,1.375,0,0,0-6.818-9.87,1.375,1.375,0,0,0-8.3-8.3ZM-6.818,0h.91l3.864-9.8h-.91Zm4.354-4.788c0-.434.182-.616.5-.616s.5.182.5.616v3.36c0,.434-.2.616-.5.616s-.5-.182-.5-.616Zm-.98,3.29A1.375,1.375,0,0,0-1.96.07,1.375,1.375,0,0,0-.476-1.5v-3.22A1.375,1.375,0,0,0-1.96-6.286,1.375,1.375,0,0,0-3.444-4.718Z" transform="translate(1197.59 1477.844) rotate(-45)" fill="#242549"/><path d="M-23.9-7.476h1.19V0h1.54V-9.8H-22.2A1.526,1.526,0,0,1-23.9-8.568Zm6.006-.07c0-.7.308-.966.8-.966s.8.266.8.966v5.292c0,.7-.308.966-.8.966s-.8-.266-.8-.966Zm-1.54,5.194A2.175,2.175,0,0,0-17.094.112a2.175,2.175,0,0,0,2.338-2.464v-5.1a2.175,2.175,0,0,0-2.338-2.464,2.175,2.175,0,0,0-2.338,2.464Zm7.084-5.194c0-.7.308-.966.8-.966s.8.266.8.966v5.292c0,.7-.308.966-.8.966s-.8-.266-.8-.966Zm-1.54,5.194A2.175,2.175,0,0,0-11.55.112,2.175,2.175,0,0,0-9.212-2.352v-5.1A2.175,2.175,0,0,0-11.55-9.912a2.175,2.175,0,0,0-2.338,2.464Zm6.566-6.02c0-.434.182-.616.5-.616s.5.182.5.616v3.36c0,.434-.2.616-.5.616s-.5-.182-.5-.616Zm-.98,3.29A1.375,1.375,0,0,0-6.818-3.514,1.375,1.375,0,0,0-5.334-5.082V-8.3A1.375,1.375,0,0,0-6.818-9.87,1.375,1.375,0,0,0-8.3-8.3ZM-6.818,0h.91l3.864-9.8h-.91Zm4.354-4.788c0-.434.182-.616.5-.616s.5.182.5.616v3.36c0,.434-.2.616-.5.616s-.5-.182-.5-.616Zm-.98,3.29A1.375,1.375,0,0,0-1.96.07,1.375,1.375,0,0,0-.476-1.5v-3.22A1.375,1.375,0,0,0-1.96-6.286,1.375,1.375,0,0,0-3.444-4.718Z" transform="translate(1197.59 1411.279) rotate(-45)" fill="#242549"/><path d="M-23.9-7.476h1.19V0h1.54V-9.8H-22.2A1.526,1.526,0,0,1-23.9-8.568Zm4.522,4.312v.812c0,1.568.784,2.464,2.3,2.464s2.3-.9,2.3-2.464V-4.536c0-1.442-.574-2.24-1.708-2.24a1.469,1.469,0,0,0-1.344.714L-17.71-8.4h2.674V-9.8H-19.1l-.28,5.684h1.456V-4.41c0-.7.308-.966.8-.966s.8.266.8.966v2.156c0,.7-.308.952-.8.952s-.8-.252-.8-.952v-.91Zm7.028-4.382c0-.7.308-.966.8-.966s.8.266.8.966v5.292c0,.7-.308.966-.8.966s-.8-.266-.8-.966Zm-1.54,5.194A2.175,2.175,0,0,0-11.55.112,2.175,2.175,0,0,0-9.212-2.352v-5.1A2.175,2.175,0,0,0-11.55-9.912a2.175,2.175,0,0,0-2.338,2.464Zm6.566-6.02c0-.434.182-.616.5-.616s.5.182.5.616v3.36c0,.434-.2.616-.5.616s-.5-.182-.5-.616Zm-.98,3.29A1.375,1.375,0,0,0-6.818-3.514,1.375,1.375,0,0,0-5.334-5.082V-8.3A1.375,1.375,0,0,0-6.818-9.87,1.375,1.375,0,0,0-8.3-8.3ZM-6.818,0h.91l3.864-9.8h-.91Zm4.354-4.788c0-.434.182-.616.5-.616s.5.182.5.616v3.36c0,.434-.2.616-.5.616s-.5-.182-.5-.616Zm-.98,3.29A1.375,1.375,0,0,0-1.96.07,1.375,1.375,0,0,0-.476-1.5v-3.22A1.375,1.375,0,0,0-1.96-6.286,1.375,1.375,0,0,0-3.444-4.718Z" transform="translate(1197.59 1344.715) rotate(-45)" fill="#242549"/><path d="M2.112-7.7H.429V0H1.485V-5.445L2.387,0H3.531l.836-5.522V0H5.511V-7.7H3.828L3-2.233Zm6.941,0H7.282L6.05,0H7.161L7.37-1.4H8.855L9.064,0h1.221ZM8.107-6.336,8.69-2.442H7.524ZM10.483.011h.187c1.21,0,1.716-.55,1.76-1.958L12.562-6.6h1.056V0H14.85V-7.7H11.429l-.2,5.819c-.022.715-.2.792-.748.792Zm6.38-5.94c0-.55.242-.759.627-.759s.627.209.627.759v4.158c0,.55-.242.759-.627.759s-.627-.209-.627-.759Zm-1.21,4.081A1.709,1.709,0,0,0,17.49.088a1.709,1.709,0,0,0,1.837-1.936v-4A1.709,1.709,0,0,0,17.49-7.788a1.709,1.709,0,0,0-1.837,1.936ZM21.912-7.7H20.086V0h1.9a1.637,1.637,0,0,0,1.837-1.826v-.627a1.557,1.557,0,0,0-.9-1.65A1.512,1.512,0,0,0,23.7-5.654v-.275C23.7-7.117,23.166-7.7,21.912-7.7Zm-.077,4.235c.55,0,.781.22.781.935v.671c0,.572-.22.759-.627.759H21.3V-3.465ZM21.879-6.6c.429,0,.616.242.616.792v.429c0,.616-.275.814-.726.814H21.3V-6.6Zm3.861,0h2.09V-7.7h-3.3V0h3.3V-1.1H25.74V-3.355H27.4v-1.1H25.74Zm4.6-1.1H28.556V0h1.21V-2.893h.572c1.21,0,1.8-.671,1.8-1.9v-1C32.142-7.029,31.548-7.7,30.338-7.7Zm0,1.1c.385,0,.594.176.594.726v1.155c0,.55-.209.726-.594.726h-.572V-6.6Zm3.454.671c0-.55.242-.759.627-.759s.627.209.627.759v4.158c0,.55-.242.759-.627.759s-.627-.209-.627-.759Zm-1.21,4.081A1.709,1.709,0,0,0,34.419.088a1.709,1.709,0,0,0,1.837-1.936v-4a1.709,1.709,0,0,0-1.837-1.936,1.709,1.709,0,0,0-1.837,1.936ZM38.027,0a2.368,2.368,0,0,0,.11-.946v-1.21c0-.715.242-.979.792-.979h.418V0h1.21V-7.7H38.731c-1.254,0-1.793.583-1.793,1.771v.605a1.535,1.535,0,0,0,.792,1.562c-.6.253-.8.836-.8,1.639V-.935A2.268,2.268,0,0,1,36.8,0Zm1.32-6.6v2.365h-.473c-.451,0-.726-.2-.726-.814v-.759c0-.55.187-.792.616-.792Zm1.716,0h1.265V0h1.21V-6.6H44.8V-7.7h-3.74Zm5.456,3.3h1.375V0h1.232V-7.7H47.894v3.3H46.519V-7.7h-1.21V0h1.21ZM51.766,0c1.21,0,1.8-.671,1.8-1.9v-1c0-1.232-.594-1.9-1.8-1.9h-.572V-7.7h-1.21V0Zm-.572-1.1V-3.707h.572c.385,0,.594.176.594.726v1.155c0,.55-.209.726-.594.726ZM55.473,0V-7.7h-1.21V0Zm2.1,0H56.331V-7.7h1.078v4.873l.44-1.694.99-3.179H60.17V0H59.081V-5.423l-.495,1.892Zm1.243-9.416c-.033.407-.22.506-.55.506s-.484-.1-.517-.506H57A1.135,1.135,0,0,0,58.267-8.2a1.137,1.137,0,0,0,1.287-1.221ZM2.805,7.129v1.1c0,.55-.242.748-.627.748s-.627-.2-.627-.748V4.071c0-.55.242-.759.627-.759s.627.209.627.759V4.9H3.949V4.148c0-1.232-.616-1.936-1.8-1.936s-1.8.7-1.8,1.936v4c0,1.232.616,1.936,1.8,1.936s1.8-.7,1.8-1.936V7.129ZM4.664,10H7.832v1.034H9.009V8.922H8.481V2.3H7.249V8.9H5.874V2.3H4.664Zm6.193-6.6h2.09V2.3h-3.3V10h3.3V8.9h-2.09V6.645h1.661v-1.1H10.857Zm4.026,3.3h1.375V10H17.49V2.3H16.258V5.6H14.883V2.3h-1.21V10h1.21Zm6.149-4.4H19.261L18.029,10H19.14l.209-1.4h1.485l.209,1.4h1.221Zm-.946,1.364.583,3.894H19.5Zm4.5-1.364H22.8V10h1.21V7.107h.572c1.21,0,1.8-.671,1.8-1.9v-1C26.389,2.971,25.8,2.3,24.585,2.3Zm0,1.1c.385,0,.594.176.594.726V5.281c0,.55-.209.726-.594.726h-.572V3.4Zm4.6,3.069.5-1.892V10h1.089V2.3H29.436l-.99,3.179-.44,1.694V2.3H26.928V10h1.243ZM32.846,10H31.6V2.3h1.078V7.173l.44-1.694.99-3.179h1.331V10H34.353V4.577l-.495,1.892ZM34.089.584c-.033.407-.22.506-.55.506s-.484-.1-.517-.506h-.748a1.277,1.277,0,0,0,2.552,0Z" transform="translate(1207.537 1310.35)" fill="#827e82"/><path d="M2.222-7.7H.44V0H1.65V-2.893h.572c1.21,0,1.8-.671,1.8-1.9v-1C4.026-7.029,3.432-7.7,2.222-7.7Zm0,1.1c.385,0,.594.176.594.726v1.155c0,.55-.209.726-.594.726H1.65V-6.6Zm3.553,0h2.09V-7.7h-3.3V0h3.3V-1.1H5.775V-3.355H7.436v-1.1H5.775Zm5.5-1.1H9.5L8.272,0H9.383l.209-1.4h1.485L11.286,0h1.221Zm-.946,1.364.583,3.894H9.746ZM12.7.011h.187c1.21,0,1.716-.55,1.76-1.958L14.784-6.6H15.84V0h1.232V-7.7H13.651l-.2,5.819c-.022.715-.2.792-.748.792Zm7.524-3.542.5-1.892V0h1.089V-7.7H20.482l-.99,3.179-.44,1.694V-7.7H17.974V0h1.243Zm4.785.66v1.1c0,.55-.242.748-.627.748s-.627-.2-.627-.748V-5.929c0-.55.242-.759.627-.759s.627.209.627.759V-5.1h1.144v-.748c0-1.232-.616-1.936-1.8-1.936s-1.8.7-1.8,1.936v4c0,1.232.616,1.936,1.8,1.936s1.8-.7,1.8-1.936V-2.871ZM26.521-6.6h1.265V0H29V-6.6h1.265V-7.7h-3.74Zm6.5,3.069.495-1.892V0h1.089V-7.7H33.275l-.99,3.179-.44,1.694V-7.7H30.767V0H32.01ZM37.906-7.7v3.124c0,.517-.242.792-.627.792a.68.68,0,0,1-.7-.759V-7.7h-1.21v3.256c0,1.056.517,1.771,1.507,1.771A1.5,1.5,0,0,0,37.906-3.1V0h1.21V-7.7Zm3.289,4.4H42.57V0H43.8V-7.7H42.57v3.3H41.195V-7.7h-1.21V0h1.21ZM46.442,0c1.21,0,1.8-.671,1.8-1.9v-1c0-1.232-.594-1.9-1.8-1.9H45.87V-7.7H44.66V0ZM45.87-1.1V-3.707h.572c.385,0,.594.176.594.726v1.155c0,.55-.209.726-.594.726ZM50.149,0V-7.7h-1.21V0Zm2.1,0H51.007V-7.7h1.078v4.873l.44-1.694.99-3.179h1.331V0H53.757V-5.423l-.495,1.892Zm1.243-9.416c-.033.407-.22.506-.55.506s-.484-.1-.517-.506h-.748A1.135,1.135,0,0,0,52.943-8.2,1.137,1.137,0,0,0,54.23-9.416ZM2.805,7.129v1.1c0,.55-.242.748-.627.748s-.627-.2-.627-.748V4.071c0-.55.242-.759.627-.759s.627.209.627.759V4.9H3.949V4.148c0-1.232-.616-1.936-1.8-1.936s-1.8.7-1.8,1.936v4c0,1.232.616,1.936,1.8,1.936s1.8-.7,1.8-1.936V7.129ZM4.664,10H7.832v1.034H9.009V8.922H8.481V2.3H7.249V8.9H5.874V2.3H4.664Zm6.193-6.6h2.09V2.3h-3.3V10h3.3V8.9h-2.09V6.645h1.661v-1.1H10.857Zm4.026,3.3h1.375V10H17.49V2.3H16.258V5.6H14.883V2.3h-1.21V10h1.21Zm6.149-4.4H19.261L18.029,10H19.14l.209-1.4h1.485l.209,1.4h1.221Zm-.946,1.364.583,3.894H19.5Zm4.5-1.364H22.8V10h1.21V7.107h.572c1.21,0,1.8-.671,1.8-1.9v-1C26.389,2.971,25.8,2.3,24.585,2.3Zm0,1.1c.385,0,.594.176.594.726V5.281c0,.55-.209.726-.594.726h-.572V3.4Zm4.6,3.069.5-1.892V10h1.089V2.3H29.436l-.99,3.179-.44,1.694V2.3H26.928V10h1.243ZM32.846,10H31.6V2.3h1.078V7.173l.44-1.694.99-3.179h1.331V10H34.353V4.577l-.495,1.892ZM34.089.584c-.033.407-.22.506-.55.506s-.484-.1-.517-.506h-.748a1.277,1.277,0,0,0,2.552,0Z" transform="translate(1274.343 1310.35)" fill="#827e82"/><path d="M2.112-7.7H.429V0H1.485V-5.445L2.387,0H3.531l.836-5.522V0H5.511V-7.7H3.828L3-2.233Zm6.941,0H7.282L6.05,0H7.161L7.37-1.4H8.855L9.064,0h1.221ZM8.107-6.336,8.69-2.442H7.524ZM12.045,0V-6.6h1.98V-7.7h-3.19V0Zm5.027-3.531.495-1.892V0h1.089V-7.7H17.325l-.99,3.179L15.9-2.827V-7.7H14.817V0H16.06ZM20.5,0a2.368,2.368,0,0,0,.11-.946v-1.21c0-.715.242-.979.792-.979h.418V0h1.21V-7.7H21.208c-1.254,0-1.793.583-1.793,1.771v.605a1.535,1.535,0,0,0,.792,1.562c-.605.253-.8.836-.8,1.639V-.935A2.268,2.268,0,0,1,19.272,0Zm1.32-6.6v2.365h-.473c-.451,0-.726-.2-.726-.814v-.759c0-.55.187-.792.616-.792ZM28.336,0h1.243L27.9-4.268,29.579-7.7h-1.21L26.785-4.345V-7.7h-1.21V0h1.21V-2.365l.374-.7Zm4.026-3.531.495-1.892V0h1.089V-7.7H32.615l-.99,3.179-.44,1.694V-7.7H30.107V0H31.35Zm3.63.231h1.375V0H38.6V-7.7H37.367v3.3H35.992V-7.7h-1.21V0h1.21Zm4.576-2.629c0-.55.242-.759.627-.759s.627.209.627.759v4.158c0,.55-.242.759-.627.759s-.627-.209-.627-.759Zm-1.21,4.081A1.709,1.709,0,0,0,41.195.088a1.709,1.709,0,0,0,1.837-1.936v-4a1.709,1.709,0,0,0-1.837-1.936,1.709,1.709,0,0,0-1.837,1.936Z" transform="translate(1341.149 1310.35)" fill="#827e82"/><line x2="311.597" transform="translate(1204.536 1477.843)" fill="none" stroke="#e3ded5" stroke-width="22"/><line x2="210.511" transform="translate(1204.536 1477.843)" fill="none" stroke="#292b45" stroke-width="2" opacity="0.325" style="isolation:isolate"/><path d="M1438.359,1544.405l-33.4-33.281-33.4-16.641-33.4-16.641-129.111-64.32" fill="none" stroke="#c2b8f3" stroke-miterlimit="10" stroke-width="4"/><path d="M1209.929,1543.953l-1.783-3.58,195.627-97.457,112.36-111.95v5.646l-110,109.595-.291.145Z" fill="#6bcc6b"/><circle cx="4" cy="4" r="4" transform="translate(1233.94 1423.921)" fill="#242549"/><circle cx="4" cy="4" r="4" transform="translate(1267.343 1440.561)" fill="#242549"/><circle cx="4" cy="4" r="4" transform="translate(1300.746 1457.202)" fill="#242549"/><circle cx="4" cy="4" r="4" transform="translate(1334.149 1473.843)" fill="#242549"/><circle cx="4" cy="4" r="4" transform="translate(1367.552 1457.202)" fill="#242549"/><circle cx="4" cy="4" r="4" transform="translate(1400.956 1440.561)" fill="#242549"/><circle cx="4" cy="4" r="4" transform="translate(1434.359 1407.28)" fill="#242549"/><circle cx="4" cy="4" r="4" transform="translate(1467.762 1373.999)" fill="#242549"/><circle cx="4" cy="4" r="4" transform="translate(1501.165 1340.718)" fill="#242549"/><circle cx="4" cy="4" r="4" transform="translate(1367.552 1490.483)" fill="#242549"/><circle cx="4" cy="4" r="4" transform="translate(1400.956 1507.124)" fill="#242549"/><circle cx="4" cy="4" r="4" transform="translate(1233.939 1523.764)" fill="#242549"/><circle cx="4" cy="4" r="4" transform="translate(1267.343 1507.124)" fill="#242549"/><circle cx="4" cy="4" r="4" transform="translate(1300.747 1490.483)" fill="#242549"/><path d="M-16.362-3.648a2.6,2.6,0,0,0-.336,1.3,2.567,2.567,0,0,0,.732,1.824,2.885,2.885,0,0,0,2.16.756,3.092,3.092,0,0,0,2.22-.756,2.436,2.436,0,0,0,.792-1.824,2.722,2.722,0,0,0-.312-1.3,2.452,2.452,0,0,0-.948-.936,1.664,1.664,0,0,0,.8-.828,2.544,2.544,0,0,0,.18-.888,2.068,2.068,0,0,0-.7-1.584,2.78,2.78,0,0,0-1.968-.648,2.76,2.76,0,0,0-1.968.648A2.068,2.068,0,0,0-16.4-6.3a2.544,2.544,0,0,0,.18.888,2.047,2.047,0,0,0,.8.888A2.039,2.039,0,0,0-16.362-3.648Zm1.848-1.716A.977.977,0,0,1-14.8-6.12a1.025,1.025,0,0,1,.288-.792,1.065,1.065,0,0,1,.78-.276,1.115,1.115,0,0,1,.792.276,1.115,1.115,0,0,1,.276.792,1.064,1.064,0,0,1-.276.756,1.077,1.077,0,0,1-.792.3A1.03,1.03,0,0,1-14.514-5.364Zm-.12,3.864a1.359,1.359,0,0,1-.324-.972,1.323,1.323,0,0,1,.336-.984,1.167,1.167,0,0,1,.888-.336,1.213,1.213,0,0,1,.9.336,1.37,1.37,0,0,1,.324.984,1.359,1.359,0,0,1-.324.972,1.142,1.142,0,0,1-.9.348A1.142,1.142,0,0,1-14.634-1.5Zm10.62-5.58V-8.388h-6l-.024,1.5H-5.8A11.7,11.7,0,0,0-7.338-4.752,10.189,10.189,0,0,0-8.838,0H-7.1a7.807,7.807,0,0,1,.276-1.872A12.474,12.474,0,0,1-6.174-3.8,10.948,10.948,0,0,1-5.058-5.76,11.649,11.649,0,0,1-4.014-7.08ZM-1.146,0V-1.752H-2.922V0Zm2.8-2.268H-.018A2.493,2.493,0,0,0,.858-.432,3,3,0,0,0,2.85.228,2.733,2.733,0,0,0,5.106-.708a3.2,3.2,0,0,0,.756-2.1,2.678,2.678,0,0,0-.78-2.064A2.7,2.7,0,0,0,3.234-5.58a2.692,2.692,0,0,0-.876.132,3.72,3.72,0,0,0-.612.336l.312-1.86H5.526V-8.388H.846L.246-3.7l1.5.072a1.1,1.1,0,0,1,.6-.516,1.393,1.393,0,0,1,.528-.084,1.08,1.08,0,0,1,.948.456,1.859,1.859,0,0,1,.3,1.092,1.8,1.8,0,0,1-.324,1.1,1.106,1.106,0,0,1-.948.432,1.035,1.035,0,0,1-.816-.3A1.485,1.485,0,0,1,1.65-2.268ZM9.714.228,14.454-8.5h-.888L8.814.228Zm.624-4.968a2.056,2.056,0,0,0,.636-1.536,2.056,2.056,0,0,0-.636-1.536A2.086,2.086,0,0,0,8.8-8.46a2.094,2.094,0,0,0-1.548.648,2.1,2.1,0,0,0-.636,1.536A2.1,2.1,0,0,0,7.254-4.74,2.094,2.094,0,0,0,8.8-4.092,2.067,2.067,0,0,0,10.338-4.74Zm-.876-.876a.916.916,0,0,1-.66.276.9.9,0,0,1-.66-.276.9.9,0,0,1-.276-.66.916.916,0,0,1,.276-.66.9.9,0,0,1,.66-.276.916.916,0,0,1,.66.276.905.905,0,0,1,.264.66A.886.886,0,0,1,9.462-5.616ZM16.038-.468A2.122,2.122,0,0,0,16.674-2a2.129,2.129,0,0,0-.636-1.548,2.1,2.1,0,0,0-1.548-.636,2.056,2.056,0,0,0-1.536.636A2.064,2.064,0,0,0,12.318-2a2.075,2.075,0,0,0,.636,1.536A2.056,2.056,0,0,0,14.49.168,2.1,2.1,0,0,0,16.038-.468ZM15.15-2.676A.879.879,0,0,1,15.426-2a.846.846,0,0,1-.276.648.9.9,0,0,1-.66.276.889.889,0,0,1-.648-.276A.846.846,0,0,1,13.566-2a.879.879,0,0,1,.276-.672.878.878,0,0,1,.648-.264A.886.886,0,0,1,15.15-2.676Z" transform="translate(1237.939 1420.921)" fill="#242549"/><path d="M-16.182-7v1.14h2V0h1.7V-8.5h-1.38a1.2,1.2,0,0,1-.072.336,1.488,1.488,0,0,1-.324.612,1.56,1.56,0,0,1-.816.444A7.449,7.449,0,0,1-16.182-7ZM-9.57-1.668A4.014,4.014,0,0,0-9.966,0h5.82V-1.476H-7.854a2.043,2.043,0,0,1,.4-.456c.144-.132.432-.348.852-.648l.672-.468A5.98,5.98,0,0,0-4.722-4.14a2.668,2.668,0,0,0,.564-1.668,2.543,2.543,0,0,0-.8-1.98A2.972,2.972,0,0,0-7.1-8.532,2.439,2.439,0,0,0-9.474-7.26a4.108,4.108,0,0,0-.4,1.752h1.62a2.821,2.821,0,0,1,.192-1.044,1.034,1.034,0,0,1,1.032-.576,1.072,1.072,0,0,1,.864.36,1.4,1.4,0,0,1,.3.9A1.738,1.738,0,0,1-6.39-4.656,12.235,12.235,0,0,1-7.878-3.468,4.7,4.7,0,0,0-9.57-1.668ZM-1.146,0V-1.752H-2.922V0Zm2.8-2.268H-.018A2.493,2.493,0,0,0,.858-.432,3,3,0,0,0,2.85.228,2.733,2.733,0,0,0,5.106-.708a3.2,3.2,0,0,0,.756-2.1,2.678,2.678,0,0,0-.78-2.064A2.7,2.7,0,0,0,3.234-5.58a2.692,2.692,0,0,0-.876.132,3.72,3.72,0,0,0-.612.336l.312-1.86H5.526V-8.388H.846L.246-3.7l1.5.072a1.1,1.1,0,0,1,.6-.516,1.393,1.393,0,0,1,.528-.084,1.08,1.08,0,0,1,.948.456,1.859,1.859,0,0,1,.3,1.092,1.8,1.8,0,0,1-.324,1.1,1.106,1.106,0,0,1-.948.432,1.035,1.035,0,0,1-.816-.3A1.485,1.485,0,0,1,1.65-2.268ZM9.714.228,14.454-8.5h-.888L8.814.228Zm.624-4.968a2.056,2.056,0,0,0,.636-1.536,2.056,2.056,0,0,0-.636-1.536A2.086,2.086,0,0,0,8.8-8.46a2.094,2.094,0,0,0-1.548.648,2.1,2.1,0,0,0-.636,1.536A2.1,2.1,0,0,0,7.254-4.74,2.094,2.094,0,0,0,8.8-4.092,2.067,2.067,0,0,0,10.338-4.74Zm-.876-.876a.916.916,0,0,1-.66.276.9.9,0,0,1-.66-.276.9.9,0,0,1-.276-.66.916.916,0,0,1,.276-.66.9.9,0,0,1,.66-.276.916.916,0,0,1,.66.276.905.905,0,0,1,.264.66A.886.886,0,0,1,9.462-5.616ZM16.038-.468A2.122,2.122,0,0,0,16.674-2a2.129,2.129,0,0,0-.636-1.548,2.1,2.1,0,0,0-1.548-.636,2.056,2.056,0,0,0-1.536.636A2.064,2.064,0,0,0,12.318-2a2.075,2.075,0,0,0,.636,1.536A2.056,2.056,0,0,0,14.49.168,2.1,2.1,0,0,0,16.038-.468ZM15.15-2.676A.879.879,0,0,1,15.426-2a.846.846,0,0,1-.276.648.9.9,0,0,1-.66.276.889.889,0,0,1-.648-.276A.846.846,0,0,1,13.566-2a.879.879,0,0,1,.276-.672.878.878,0,0,1,.648-.264A.886.886,0,0,1,15.15-2.676Z" transform="translate(1237.939 1520.764)" fill="#242549"/><path d="M-11.238-1.668A4.014,4.014,0,0,0-11.634,0h5.82V-1.476H-9.522a2.043,2.043,0,0,1,.4-.456c.144-.132.432-.348.852-.648l.672-.468A5.98,5.98,0,0,0-6.39-4.14a2.668,2.668,0,0,0,.564-1.668,2.543,2.543,0,0,0-.8-1.98,2.972,2.972,0,0,0-2.136-.744A2.439,2.439,0,0,0-11.142-7.26a4.108,4.108,0,0,0-.4,1.752h1.62a2.821,2.821,0,0,1,.192-1.044,1.034,1.034,0,0,1,1.032-.576,1.072,1.072,0,0,1,.864.36,1.4,1.4,0,0,1,.3.9,1.738,1.738,0,0,1-.528,1.212A12.235,12.235,0,0,1-9.546-3.468,4.7,4.7,0,0,0-11.238-1.668Zm7.884-.6H-5.022A2.493,2.493,0,0,0-4.146-.432a3,3,0,0,0,1.992.66A2.733,2.733,0,0,0,.1-.708a3.2,3.2,0,0,0,.756-2.1,2.678,2.678,0,0,0-.78-2.064A2.7,2.7,0,0,0-1.77-5.58a2.692,2.692,0,0,0-.876.132,3.72,3.72,0,0,0-.612.336l.312-1.86H.522V-8.388h-4.68l-.6,4.692,1.5.072a1.1,1.1,0,0,1,.6-.516,1.393,1.393,0,0,1,.528-.084,1.08,1.08,0,0,1,.948.456,1.859,1.859,0,0,1,.3,1.092,1.8,1.8,0,0,1-.324,1.1,1.106,1.106,0,0,1-.948.432,1.035,1.035,0,0,1-.816-.3A1.485,1.485,0,0,1-3.354-2.268ZM4.71.228,9.45-8.5H8.562L3.81.228ZM5.334-4.74A2.056,2.056,0,0,0,5.97-6.276a2.056,2.056,0,0,0-.636-1.536A2.086,2.086,0,0,0,3.8-8.46a2.094,2.094,0,0,0-1.548.648,2.1,2.1,0,0,0-.636,1.536A2.1,2.1,0,0,0,2.25-4.74,2.094,2.094,0,0,0,3.8-4.092,2.067,2.067,0,0,0,5.334-4.74Zm-.876-.876a.916.916,0,0,1-.66.276.9.9,0,0,1-.66-.276.9.9,0,0,1-.276-.66.916.916,0,0,1,.276-.66.9.9,0,0,1,.66-.276.916.916,0,0,1,.66.276.905.905,0,0,1,.264.66A.886.886,0,0,1,4.458-5.616ZM11.034-.468A2.122,2.122,0,0,0,11.67-2a2.129,2.129,0,0,0-.636-1.548,2.1,2.1,0,0,0-1.548-.636,2.056,2.056,0,0,0-1.536.636A2.064,2.064,0,0,0,7.314-2,2.075,2.075,0,0,0,7.95-.468,2.056,2.056,0,0,0,9.486.168,2.1,2.1,0,0,0,11.034-.468Zm-.888-2.208A.879.879,0,0,1,10.422-2a.846.846,0,0,1-.276.648.9.9,0,0,1-.66.276.889.889,0,0,1-.648-.276A.846.846,0,0,1,8.562-2a.879.879,0,0,1,.276-.672.878.878,0,0,1,.648-.264A.886.886,0,0,1,10.146-2.676Z" transform="translate(1271.343 1504.123)" fill="#242549"/><path d="M-15.054-2.6H-16.7a3.467,3.467,0,0,0,.42,1.632A2.659,2.659,0,0,0-13.77.216a2.817,2.817,0,0,0,2.208-.828A2.657,2.657,0,0,0-10.818-2.5a2.047,2.047,0,0,0-.636-1.62,1.206,1.206,0,0,0-.66-.4,1.5,1.5,0,0,0,.588-.444,1.839,1.839,0,0,0,.444-1.26,2.08,2.08,0,0,0-.744-1.692,2.933,2.933,0,0,0-1.968-.624,3.261,3.261,0,0,0-1.1.156,2.195,2.195,0,0,0-.78.456A2.5,2.5,0,0,0-16.326-7a4.258,4.258,0,0,0-.216,1.2h1.56A1.618,1.618,0,0,1-14.718-6.8a1.023,1.023,0,0,1,.876-.372,1.077,1.077,0,0,1,.8.3,1.156,1.156,0,0,1,.276.792.979.979,0,0,1-.552,1,3.074,3.074,0,0,1-1.14.156v1.2a3.348,3.348,0,0,1,1.212.156,1.1,1.1,0,0,1,.684,1.116,1.259,1.259,0,0,1-.36.972,1.245,1.245,0,0,1-.864.336,1.128,1.128,0,0,1-1.1-.612A1.779,1.779,0,0,1-15.054-2.6ZM-4.014-7.08V-8.388h-6l-.024,1.5H-5.8A11.7,11.7,0,0,0-7.338-4.752,10.189,10.189,0,0,0-8.838,0H-7.1a7.807,7.807,0,0,1,.276-1.872A12.474,12.474,0,0,1-6.174-3.8,10.948,10.948,0,0,1-5.058-5.76,11.649,11.649,0,0,1-4.014-7.08ZM-1.146,0V-1.752H-2.922V0Zm2.8-2.268H-.018A2.493,2.493,0,0,0,.858-.432,3,3,0,0,0,2.85.228,2.733,2.733,0,0,0,5.106-.708a3.2,3.2,0,0,0,.756-2.1,2.678,2.678,0,0,0-.78-2.064A2.7,2.7,0,0,0,3.234-5.58a2.692,2.692,0,0,0-.876.132,3.72,3.72,0,0,0-.612.336l.312-1.86H5.526V-8.388H.846L.246-3.7l1.5.072a1.1,1.1,0,0,1,.6-.516,1.393,1.393,0,0,1,.528-.084,1.08,1.08,0,0,1,.948.456,1.859,1.859,0,0,1,.3,1.092,1.8,1.8,0,0,1-.324,1.1,1.106,1.106,0,0,1-.948.432,1.035,1.035,0,0,1-.816-.3A1.485,1.485,0,0,1,1.65-2.268ZM9.714.228,14.454-8.5h-.888L8.814.228Zm.624-4.968a2.056,2.056,0,0,0,.636-1.536,2.056,2.056,0,0,0-.636-1.536A2.086,2.086,0,0,0,8.8-8.46a2.094,2.094,0,0,0-1.548.648,2.1,2.1,0,0,0-.636,1.536A2.1,2.1,0,0,0,7.254-4.74,2.094,2.094,0,0,0,8.8-4.092,2.067,2.067,0,0,0,10.338-4.74Zm-.876-.876a.916.916,0,0,1-.66.276.9.9,0,0,1-.66-.276.9.9,0,0,1-.276-.66.916.916,0,0,1,.276-.66.9.9,0,0,1,.66-.276.916.916,0,0,1,.66.276.905.905,0,0,1,.264.66A.886.886,0,0,1,9.462-5.616ZM16.038-.468A2.122,2.122,0,0,0,16.674-2a2.129,2.129,0,0,0-.636-1.548,2.1,2.1,0,0,0-1.548-.636,2.056,2.056,0,0,0-1.536.636A2.064,2.064,0,0,0,12.318-2a2.075,2.075,0,0,0,.636,1.536A2.056,2.056,0,0,0,14.49.168,2.1,2.1,0,0,0,16.038-.468ZM15.15-2.676A.879.879,0,0,1,15.426-2a.846.846,0,0,1-.276.648.9.9,0,0,1-.66.276.889.889,0,0,1-.648-.276A.846.846,0,0,1,13.566-2a.879.879,0,0,1,.276-.672.878.878,0,0,1,.648-.264A.886.886,0,0,1,15.15-2.676Z" transform="translate(1304.747 1487.481)" fill="#242549"/><path d="M-5.682-7.08V-8.388h-6l-.024,1.5H-7.47A11.7,11.7,0,0,0-9.006-4.752,10.189,10.189,0,0,0-10.506,0h1.74A7.807,7.807,0,0,1-8.49-1.872,12.474,12.474,0,0,1-7.842-3.8,10.948,10.948,0,0,1-6.726-5.76,11.649,11.649,0,0,1-5.682-7.08Zm2.328,4.812H-5.022A2.493,2.493,0,0,0-4.146-.432a3,3,0,0,0,1.992.66A2.733,2.733,0,0,0,.1-.708a3.2,3.2,0,0,0,.756-2.1,2.678,2.678,0,0,0-.78-2.064A2.7,2.7,0,0,0-1.77-5.58a2.692,2.692,0,0,0-.876.132,3.72,3.72,0,0,0-.612.336l.312-1.86H.522V-8.388h-4.68l-.6,4.692,1.5.072a1.1,1.1,0,0,1,.6-.516,1.393,1.393,0,0,1,.528-.084,1.08,1.08,0,0,1,.948.456,1.859,1.859,0,0,1,.3,1.092,1.8,1.8,0,0,1-.324,1.1,1.106,1.106,0,0,1-.948.432,1.035,1.035,0,0,1-.816-.3A1.485,1.485,0,0,1-3.354-2.268ZM4.71.228,9.45-8.5H8.562L3.81.228ZM5.334-4.74A2.056,2.056,0,0,0,5.97-6.276a2.056,2.056,0,0,0-.636-1.536A2.086,2.086,0,0,0,3.8-8.46a2.094,2.094,0,0,0-1.548.648,2.1,2.1,0,0,0-.636,1.536A2.1,2.1,0,0,0,2.25-4.74,2.094,2.094,0,0,0,3.8-4.092,2.067,2.067,0,0,0,5.334-4.74Zm-.876-.876a.916.916,0,0,1-.66.276.9.9,0,0,1-.66-.276.9.9,0,0,1-.276-.66.916.916,0,0,1,.276-.66.9.9,0,0,1,.66-.276.916.916,0,0,1,.66.276.905.905,0,0,1,.264.66A.886.886,0,0,1,4.458-5.616ZM11.034-.468A2.122,2.122,0,0,0,11.67-2a2.129,2.129,0,0,0-.636-1.548,2.1,2.1,0,0,0-1.548-.636,2.056,2.056,0,0,0-1.536.636A2.064,2.064,0,0,0,7.314-2,2.075,2.075,0,0,0,7.95-.468,2.056,2.056,0,0,0,9.486.168,2.1,2.1,0,0,0,11.034-.468Zm-.888-2.208A.879.879,0,0,1,10.422-2a.846.846,0,0,1-.276.648.9.9,0,0,1-.66.276.889.889,0,0,1-.648-.276A.846.846,0,0,1,8.562-2a.879.879,0,0,1,.276-.672.878.878,0,0,1,.648-.264A.886.886,0,0,1,10.146-2.676Z" transform="translate(1271.343 1437.561)" fill="#242549"/><path d="M-12.606-6.36h1.656a2.289,2.289,0,0,0-.792-1.62,2.816,2.816,0,0,0-1.884-.6,2.556,2.556,0,0,0-1.4.372,2.933,2.933,0,0,0-.96,1,4.893,4.893,0,0,0-.564,1.8,13.669,13.669,0,0,0-.084,1.584,5.468,5.468,0,0,0,.6,2.712A2.53,2.53,0,0,0-13.674.228a2.618,2.618,0,0,0,2.2-.912,3.278,3.278,0,0,0,.72-2.1,2.791,2.791,0,0,0-.732-1.968,2.433,2.433,0,0,0-1.848-.756,2.25,2.25,0,0,0-.936.168,1.847,1.847,0,0,0-.732.54,5.754,5.754,0,0,1,.264-1.488,1.206,1.206,0,0,1,1.164-.924.949.949,0,0,1,.816.408A.9.9,0,0,1-12.606-6.36Zm-1.98,4.788a1.63,1.63,0,0,1-.372-1.116,1.483,1.483,0,0,1,.492-1.236,1.2,1.2,0,0,1,.756-.252,1.159,1.159,0,0,1,.888.4,1.624,1.624,0,0,1,.36,1.14,1.7,1.7,0,0,1-.312,1.08,1.023,1.023,0,0,1-.876.42A1.161,1.161,0,0,1-14.586-1.572Zm5.016-.1A4.014,4.014,0,0,0-9.966,0h5.82V-1.476H-7.854a2.043,2.043,0,0,1,.4-.456c.144-.132.432-.348.852-.648l.672-.468A5.98,5.98,0,0,0-4.722-4.14a2.668,2.668,0,0,0,.564-1.668,2.543,2.543,0,0,0-.8-1.98A2.972,2.972,0,0,0-7.1-8.532,2.439,2.439,0,0,0-9.474-7.26a4.108,4.108,0,0,0-.4,1.752h1.62a2.821,2.821,0,0,1,.192-1.044,1.034,1.034,0,0,1,1.032-.576,1.072,1.072,0,0,1,.864.36,1.4,1.4,0,0,1,.3.9A1.738,1.738,0,0,1-6.39-4.656,12.235,12.235,0,0,1-7.878-3.468,4.7,4.7,0,0,0-9.57-1.668ZM-1.146,0V-1.752H-2.922V0Zm2.8-2.268H-.018A2.493,2.493,0,0,0,.858-.432,3,3,0,0,0,2.85.228,2.733,2.733,0,0,0,5.106-.708a3.2,3.2,0,0,0,.756-2.1,2.678,2.678,0,0,0-.78-2.064A2.7,2.7,0,0,0,3.234-5.58a2.692,2.692,0,0,0-.876.132,3.72,3.72,0,0,0-.612.336l.312-1.86H5.526V-8.388H.846L.246-3.7l1.5.072a1.1,1.1,0,0,1,.6-.516,1.393,1.393,0,0,1,.528-.084,1.08,1.08,0,0,1,.948.456,1.859,1.859,0,0,1,.3,1.092,1.8,1.8,0,0,1-.324,1.1,1.106,1.106,0,0,1-.948.432,1.035,1.035,0,0,1-.816-.3A1.485,1.485,0,0,1,1.65-2.268ZM9.714.228,14.454-8.5h-.888L8.814.228Zm.624-4.968a2.056,2.056,0,0,0,.636-1.536,2.056,2.056,0,0,0-.636-1.536A2.086,2.086,0,0,0,8.8-8.46a2.094,2.094,0,0,0-1.548.648,2.1,2.1,0,0,0-.636,1.536A2.1,2.1,0,0,0,7.254-4.74,2.094,2.094,0,0,0,8.8-4.092,2.067,2.067,0,0,0,10.338-4.74Zm-.876-.876a.916.916,0,0,1-.66.276.9.9,0,0,1-.66-.276.9.9,0,0,1-.276-.66.916.916,0,0,1,.276-.66.9.9,0,0,1,.66-.276.916.916,0,0,1,.66.276.905.905,0,0,1,.264.66A.886.886,0,0,1,9.462-5.616ZM16.038-.468A2.122,2.122,0,0,0,16.674-2a2.129,2.129,0,0,0-.636-1.548,2.1,2.1,0,0,0-1.548-.636,2.056,2.056,0,0,0-1.536.636A2.064,2.064,0,0,0,12.318-2a2.075,2.075,0,0,0,.636,1.536A2.056,2.056,0,0,0,14.49.168,2.1,2.1,0,0,0,16.038-.468ZM15.15-2.676A.879.879,0,0,1,15.426-2a.846.846,0,0,1-.276.648.9.9,0,0,1-.66.276.889.889,0,0,1-.648-.276A.846.846,0,0,1,13.566-2a.879.879,0,0,1,.276-.672.878.878,0,0,1,.648-.264A.886.886,0,0,1,15.15-2.676Z" transform="translate(1304.747 1454.202)" fill="#242549"/><path d="M-10.026-2.268h-1.668a2.493,2.493,0,0,0,.876,1.836,3,3,0,0,0,1.992.66A2.733,2.733,0,0,0-6.57-.708a3.2,3.2,0,0,0,.756-2.1,2.678,2.678,0,0,0-.78-2.064A2.7,2.7,0,0,0-8.442-5.58a2.692,2.692,0,0,0-.876.132,3.72,3.72,0,0,0-.612.336l.312-1.86H-6.15V-8.388h-4.68l-.6,4.692,1.5.072a1.1,1.1,0,0,1,.6-.516A1.393,1.393,0,0,1-8.8-4.224a1.08,1.08,0,0,1,.948.456,1.859,1.859,0,0,1,.3,1.092,1.8,1.8,0,0,1-.324,1.1,1.106,1.106,0,0,1-.948.432,1.035,1.035,0,0,1-.816-.3A1.485,1.485,0,0,1-10.026-2.268ZM.246-7.416a2.4,2.4,0,0,0-2.28-1.14A2.394,2.394,0,0,0-4.3-7.416a6.548,6.548,0,0,0-.66,3.252A6.467,6.467,0,0,0-4.3-.924,2.394,2.394,0,0,0-2.034.216,2.4,2.4,0,0,0,.246-.924a6.6,6.6,0,0,0,.66-3.24A6.683,6.683,0,0,0,.246-7.416ZM-3.018-1.932a8.1,8.1,0,0,1-.24-2.232,8.079,8.079,0,0,1,.24-2.28.962.962,0,0,1,.984-.732.945.945,0,0,1,.984.732,8.173,8.173,0,0,1,.228,2.28A8.187,8.187,0,0,1-1.05-1.932a.952.952,0,0,1-.984.78A.969.969,0,0,1-3.018-1.932ZM4.71.228,9.45-8.5H8.562L3.81.228ZM5.334-4.74A2.056,2.056,0,0,0,5.97-6.276a2.056,2.056,0,0,0-.636-1.536A2.086,2.086,0,0,0,3.8-8.46a2.094,2.094,0,0,0-1.548.648,2.1,2.1,0,0,0-.636,1.536A2.1,2.1,0,0,0,2.25-4.74,2.094,2.094,0,0,0,3.8-4.092,2.067,2.067,0,0,0,5.334-4.74Zm-.876-.876a.916.916,0,0,1-.66.276.9.9,0,0,1-.66-.276.9.9,0,0,1-.276-.66.916.916,0,0,1,.276-.66.9.9,0,0,1,.66-.276.916.916,0,0,1,.66.276.905.905,0,0,1,.264.66A.886.886,0,0,1,4.458-5.616ZM11.034-.468A2.122,2.122,0,0,0,11.67-2a2.129,2.129,0,0,0-.636-1.548,2.1,2.1,0,0,0-1.548-.636,2.056,2.056,0,0,0-1.536.636A2.064,2.064,0,0,0,7.314-2,2.075,2.075,0,0,0,7.95-.468,2.056,2.056,0,0,0,9.486.168,2.1,2.1,0,0,0,11.034-.468Zm-.888-2.208A.879.879,0,0,1,10.422-2a.846.846,0,0,1-.276.648.9.9,0,0,1-.66.276.889.889,0,0,1-.648-.276A.846.846,0,0,1,8.562-2a.879.879,0,0,1,.276-.672.878.878,0,0,1,.648-.264A.886.886,0,0,1,10.146-2.676Z" transform="translate(1338.151 1470.842)" fill="#242549"/><path d="M-12.606-6.36h1.656a2.289,2.289,0,0,0-.792-1.62,2.816,2.816,0,0,0-1.884-.6,2.556,2.556,0,0,0-1.4.372,2.933,2.933,0,0,0-.96,1,4.893,4.893,0,0,0-.564,1.8,13.669,13.669,0,0,0-.084,1.584,5.468,5.468,0,0,0,.6,2.712A2.53,2.53,0,0,0-13.674.228a2.618,2.618,0,0,0,2.2-.912,3.278,3.278,0,0,0,.72-2.1,2.791,2.791,0,0,0-.732-1.968,2.433,2.433,0,0,0-1.848-.756,2.25,2.25,0,0,0-.936.168,1.847,1.847,0,0,0-.732.54,5.754,5.754,0,0,1,.264-1.488,1.206,1.206,0,0,1,1.164-.924.949.949,0,0,1,.816.408A.9.9,0,0,1-12.606-6.36Zm-1.98,4.788a1.63,1.63,0,0,1-.372-1.116,1.483,1.483,0,0,1,.492-1.236,1.2,1.2,0,0,1,.756-.252,1.159,1.159,0,0,1,.888.4,1.624,1.624,0,0,1,.36,1.14,1.7,1.7,0,0,1-.312,1.08,1.023,1.023,0,0,1-.876.42A1.161,1.161,0,0,1-14.586-1.572Zm5.016-.1A4.014,4.014,0,0,0-9.966,0h5.82V-1.476H-7.854a2.043,2.043,0,0,1,.4-.456c.144-.132.432-.348.852-.648l.672-.468A5.98,5.98,0,0,0-4.722-4.14a2.668,2.668,0,0,0,.564-1.668,2.543,2.543,0,0,0-.8-1.98A2.972,2.972,0,0,0-7.1-8.532,2.439,2.439,0,0,0-9.474-7.26a4.108,4.108,0,0,0-.4,1.752h1.62a2.821,2.821,0,0,1,.192-1.044,1.034,1.034,0,0,1,1.032-.576,1.072,1.072,0,0,1,.864.36,1.4,1.4,0,0,1,.3.9A1.738,1.738,0,0,1-6.39-4.656,12.235,12.235,0,0,1-7.878-3.468,4.7,4.7,0,0,0-9.57-1.668ZM-1.146,0V-1.752H-2.922V0Zm2.8-2.268H-.018A2.493,2.493,0,0,0,.858-.432,3,3,0,0,0,2.85.228,2.733,2.733,0,0,0,5.106-.708a3.2,3.2,0,0,0,.756-2.1,2.678,2.678,0,0,0-.78-2.064A2.7,2.7,0,0,0,3.234-5.58a2.692,2.692,0,0,0-.876.132,3.72,3.72,0,0,0-.612.336l.312-1.86H5.526V-8.388H.846L.246-3.7l1.5.072a1.1,1.1,0,0,1,.6-.516,1.393,1.393,0,0,1,.528-.084,1.08,1.08,0,0,1,.948.456,1.859,1.859,0,0,1,.3,1.092,1.8,1.8,0,0,1-.324,1.1,1.106,1.106,0,0,1-.948.432,1.035,1.035,0,0,1-.816-.3A1.485,1.485,0,0,1,1.65-2.268ZM9.714.228,14.454-8.5h-.888L8.814.228Zm.624-4.968a2.056,2.056,0,0,0,.636-1.536,2.056,2.056,0,0,0-.636-1.536A2.086,2.086,0,0,0,8.8-8.46a2.094,2.094,0,0,0-1.548.648,2.1,2.1,0,0,0-.636,1.536A2.1,2.1,0,0,0,7.254-4.74,2.094,2.094,0,0,0,8.8-4.092,2.067,2.067,0,0,0,10.338-4.74Zm-.876-.876a.916.916,0,0,1-.66.276.9.9,0,0,1-.66-.276.9.9,0,0,1-.276-.66.916.916,0,0,1,.276-.66.9.9,0,0,1,.66-.276.916.916,0,0,1,.66.276.905.905,0,0,1,.264.66A.886.886,0,0,1,9.462-5.616ZM16.038-.468A2.122,2.122,0,0,0,16.674-2a2.129,2.129,0,0,0-.636-1.548,2.1,2.1,0,0,0-1.548-.636,2.056,2.056,0,0,0-1.536.636A2.064,2.064,0,0,0,12.318-2a2.075,2.075,0,0,0,.636,1.536A2.056,2.056,0,0,0,14.49.168,2.1,2.1,0,0,0,16.038-.468ZM15.15-2.676A.879.879,0,0,1,15.426-2a.846.846,0,0,1-.276.648.9.9,0,0,1-.66.276.889.889,0,0,1-.648-.276A.846.846,0,0,1,13.566-2a.879.879,0,0,1,.276-.672.878.878,0,0,1,.648-.264A.886.886,0,0,1,15.15-2.676Z" transform="translate(1371.555 1454.2)" fill="#242549"/><path d="M-5.682-7.08V-8.388h-6l-.024,1.5H-7.47A11.7,11.7,0,0,0-9.006-4.752,10.189,10.189,0,0,0-10.506,0h1.74A7.807,7.807,0,0,1-8.49-1.872,12.474,12.474,0,0,1-7.842-3.8,10.948,10.948,0,0,1-6.726-5.76,11.649,11.649,0,0,1-5.682-7.08Zm2.328,4.812H-5.022A2.493,2.493,0,0,0-4.146-.432a3,3,0,0,0,1.992.66A2.733,2.733,0,0,0,.1-.708a3.2,3.2,0,0,0,.756-2.1,2.678,2.678,0,0,0-.78-2.064A2.7,2.7,0,0,0-1.77-5.58a2.692,2.692,0,0,0-.876.132,3.72,3.72,0,0,0-.612.336l.312-1.86H.522V-8.388h-4.68l-.6,4.692,1.5.072a1.1,1.1,0,0,1,.6-.516,1.393,1.393,0,0,1,.528-.084,1.08,1.08,0,0,1,.948.456,1.859,1.859,0,0,1,.3,1.092,1.8,1.8,0,0,1-.324,1.1,1.106,1.106,0,0,1-.948.432,1.035,1.035,0,0,1-.816-.3A1.485,1.485,0,0,1-3.354-2.268ZM4.71.228,9.45-8.5H8.562L3.81.228ZM5.334-4.74A2.056,2.056,0,0,0,5.97-6.276a2.056,2.056,0,0,0-.636-1.536A2.086,2.086,0,0,0,3.8-8.46a2.094,2.094,0,0,0-1.548.648,2.1,2.1,0,0,0-.636,1.536A2.1,2.1,0,0,0,2.25-4.74,2.094,2.094,0,0,0,3.8-4.092,2.067,2.067,0,0,0,5.334-4.74Zm-.876-.876a.916.916,0,0,1-.66.276.9.9,0,0,1-.66-.276.9.9,0,0,1-.276-.66.916.916,0,0,1,.276-.66.9.9,0,0,1,.66-.276.916.916,0,0,1,.66.276.905.905,0,0,1,.264.66A.886.886,0,0,1,4.458-5.616ZM11.034-.468A2.122,2.122,0,0,0,11.67-2a2.129,2.129,0,0,0-.636-1.548,2.1,2.1,0,0,0-1.548-.636,2.056,2.056,0,0,0-1.536.636A2.064,2.064,0,0,0,7.314-2,2.075,2.075,0,0,0,7.95-.468,2.056,2.056,0,0,0,9.486.168,2.1,2.1,0,0,0,11.034-.468Zm-.888-2.208A.879.879,0,0,1,10.422-2a.846.846,0,0,1-.276.648.9.9,0,0,1-.66.276.889.889,0,0,1-.648-.276A.846.846,0,0,1,8.562-2a.879.879,0,0,1,.276-.672.878.878,0,0,1,.648-.264A.886.886,0,0,1,10.146-2.676Z" transform="translate(1404.959 1437.559)" fill="#242549"/><path d="M-14.514-7v1.14h2V0h1.7V-8.5h-1.38a1.2,1.2,0,0,1-.072.336,1.488,1.488,0,0,1-.324.612A1.56,1.56,0,0,1-13.4-7.1,7.449,7.449,0,0,1-14.514-7Zm11.424-.42a2.4,2.4,0,0,0-2.28-1.14,2.394,2.394,0,0,0-2.268,1.14A6.548,6.548,0,0,0-8.3-4.164a6.467,6.467,0,0,0,.66,3.24A2.394,2.394,0,0,0-5.37.216,2.4,2.4,0,0,0-3.09-.924a6.6,6.6,0,0,0,.66-3.24A6.683,6.683,0,0,0-3.09-7.416ZM-6.354-1.932a8.1,8.1,0,0,1-.24-2.232,8.079,8.079,0,0,1,.24-2.28.962.962,0,0,1,.984-.732.945.945,0,0,1,.984.732,8.173,8.173,0,0,1,.228,2.28,8.187,8.187,0,0,1-.228,2.232.952.952,0,0,1-.984.78A.969.969,0,0,1-6.354-1.932ZM3.582-7.416A2.4,2.4,0,0,0,1.3-8.556,2.394,2.394,0,0,0-.966-7.416a6.548,6.548,0,0,0-.66,3.252,6.467,6.467,0,0,0,.66,3.24A2.394,2.394,0,0,0,1.3.216a2.4,2.4,0,0,0,2.28-1.14,6.6,6.6,0,0,0,.66-3.24A6.683,6.683,0,0,0,3.582-7.416ZM.318-1.932a8.1,8.1,0,0,1-.24-2.232,8.079,8.079,0,0,1,.24-2.28A.962.962,0,0,1,1.3-7.176a.945.945,0,0,1,.984.732,8.173,8.173,0,0,1,.228,2.28,8.187,8.187,0,0,1-.228,2.232.952.952,0,0,1-.984.78A.969.969,0,0,1,.318-1.932ZM8.046.228,12.786-8.5H11.9L7.146.228ZM8.67-4.74a2.056,2.056,0,0,0,.636-1.536A2.056,2.056,0,0,0,8.67-7.812,2.086,2.086,0,0,0,7.134-8.46a2.094,2.094,0,0,0-1.548.648A2.1,2.1,0,0,0,4.95-6.276,2.1,2.1,0,0,0,5.586-4.74a2.094,2.094,0,0,0,1.548.648A2.067,2.067,0,0,0,8.67-4.74Zm-.876-.876a.916.916,0,0,1-.66.276.9.9,0,0,1-.66-.276.9.9,0,0,1-.276-.66.916.916,0,0,1,.276-.66.9.9,0,0,1,.66-.276.916.916,0,0,1,.66.276.905.905,0,0,1,.264.66A.886.886,0,0,1,7.794-5.616ZM14.37-.468A2.122,2.122,0,0,0,15.006-2a2.129,2.129,0,0,0-.636-1.548,2.1,2.1,0,0,0-1.548-.636,2.056,2.056,0,0,0-1.536.636A2.064,2.064,0,0,0,10.65-2a2.075,2.075,0,0,0,.636,1.536,2.056,2.056,0,0,0,1.536.636A2.1,2.1,0,0,0,14.37-.468Zm-.888-2.208A.879.879,0,0,1,13.758-2a.846.846,0,0,1-.276.648.9.9,0,0,1-.66.276.889.889,0,0,1-.648-.276A.846.846,0,0,1,11.9-2a.879.879,0,0,1,.276-.672.878.878,0,0,1,.648-.264A.886.886,0,0,1,13.482-2.676Z" transform="translate(1438.359 1404.28)" fill="#242549"/><path d="M-14.514-7v1.14h2V0h1.7V-8.5h-1.38a1.2,1.2,0,0,1-.072.336,1.488,1.488,0,0,1-.324.612A1.56,1.56,0,0,1-13.4-7.1,7.449,7.449,0,0,1-14.514-7ZM-7.9-1.668A4.014,4.014,0,0,0-8.3,0h5.82V-1.476H-6.186a2.043,2.043,0,0,1,.4-.456c.144-.132.432-.348.852-.648l.672-.468A5.98,5.98,0,0,0-3.054-4.14,2.668,2.668,0,0,0-2.49-5.808a2.543,2.543,0,0,0-.8-1.98A2.972,2.972,0,0,0-5.43-8.532,2.439,2.439,0,0,0-7.806-7.26a4.108,4.108,0,0,0-.4,1.752h1.62A2.821,2.821,0,0,1-6.39-6.552a1.034,1.034,0,0,1,1.032-.576,1.072,1.072,0,0,1,.864.36,1.4,1.4,0,0,1,.3.9,1.738,1.738,0,0,1-.528,1.212A12.235,12.235,0,0,1-6.21-3.468,4.7,4.7,0,0,0-7.9-1.668Zm7.884-.6H-1.686A2.493,2.493,0,0,0-.81-.432a3,3,0,0,0,1.992.66A2.733,2.733,0,0,0,3.438-.708a3.2,3.2,0,0,0,.756-2.1,2.678,2.678,0,0,0-.78-2.064A2.7,2.7,0,0,0,1.566-5.58a2.692,2.692,0,0,0-.876.132,3.72,3.72,0,0,0-.612.336L.39-6.972H3.858V-8.388H-.822l-.6,4.692,1.5.072a1.1,1.1,0,0,1,.6-.516,1.393,1.393,0,0,1,.528-.084,1.08,1.08,0,0,1,.948.456,1.859,1.859,0,0,1,.3,1.092,1.8,1.8,0,0,1-.324,1.1,1.106,1.106,0,0,1-.948.432,1.035,1.035,0,0,1-.816-.3A1.485,1.485,0,0,1-.018-2.268ZM8.046.228,12.786-8.5H11.9L7.146.228ZM8.67-4.74a2.056,2.056,0,0,0,.636-1.536A2.056,2.056,0,0,0,8.67-7.812,2.086,2.086,0,0,0,7.134-8.46a2.094,2.094,0,0,0-1.548.648A2.1,2.1,0,0,0,4.95-6.276,2.1,2.1,0,0,0,5.586-4.74a2.094,2.094,0,0,0,1.548.648A2.067,2.067,0,0,0,8.67-4.74Zm-.876-.876a.916.916,0,0,1-.66.276.9.9,0,0,1-.66-.276.9.9,0,0,1-.276-.66.916.916,0,0,1,.276-.66.9.9,0,0,1,.66-.276.916.916,0,0,1,.66.276.905.905,0,0,1,.264.66A.886.886,0,0,1,7.794-5.616ZM14.37-.468A2.122,2.122,0,0,0,15.006-2a2.129,2.129,0,0,0-.636-1.548,2.1,2.1,0,0,0-1.548-.636,2.056,2.056,0,0,0-1.536.636A2.064,2.064,0,0,0,10.65-2a2.075,2.075,0,0,0,.636,1.536,2.056,2.056,0,0,0,1.536.636A2.1,2.1,0,0,0,14.37-.468Zm-.888-2.208A.879.879,0,0,1,13.758-2a.846.846,0,0,1-.276.648.9.9,0,0,1-.66.276.889.889,0,0,1-.648-.276A.846.846,0,0,1,11.9-2a.879.879,0,0,1,.276-.672.878.878,0,0,1,.648-.264A.886.886,0,0,1,13.482-2.676Z" transform="translate(1471.759 1371.002)" fill="#242549"/><path d="M-29.856-7v1.14h2V0h1.7V-8.5h-1.38a1.2,1.2,0,0,1-.072.336,1.488,1.488,0,0,1-.324.612,1.56,1.56,0,0,1-.816.444A7.449,7.449,0,0,1-29.856-7Zm7.824,4.728H-23.7a2.493,2.493,0,0,0,.876,1.836,3,3,0,0,0,1.992.66,2.733,2.733,0,0,0,2.256-.936,3.2,3.2,0,0,0,.756-2.1,2.678,2.678,0,0,0-.78-2.064,2.7,2.7,0,0,0-1.848-.708,2.692,2.692,0,0,0-.876.132,3.72,3.72,0,0,0-.612.336l.312-1.86h3.468V-8.388h-4.68l-.6,4.692,1.5.072a1.1,1.1,0,0,1,.6-.516,1.393,1.393,0,0,1,.528-.084,1.08,1.08,0,0,1,.948.456,1.859,1.859,0,0,1,.3,1.092,1.8,1.8,0,0,1-.324,1.1,1.106,1.106,0,0,1-.948.432,1.035,1.035,0,0,1-.816-.3A1.485,1.485,0,0,1-22.032-2.268ZM-11.76-7.416a2.4,2.4,0,0,0-2.28-1.14,2.394,2.394,0,0,0-2.268,1.14,6.548,6.548,0,0,0-.66,3.252,6.467,6.467,0,0,0,.66,3.24A2.394,2.394,0,0,0-14.04.216a2.4,2.4,0,0,0,2.28-1.14,6.6,6.6,0,0,0,.66-3.24A6.683,6.683,0,0,0-11.76-7.416Zm-3.264,5.484a8.1,8.1,0,0,1-.24-2.232,8.079,8.079,0,0,1,.24-2.28.962.962,0,0,1,.984-.732.945.945,0,0,1,.984.732,8.173,8.173,0,0,1,.228,2.28,8.187,8.187,0,0,1-.228,2.232.952.952,0,0,1-.984.78A.969.969,0,0,1-15.024-1.932ZM-7.3.228-2.556-8.5h-.888L-8.2.228Zm.624-4.968a2.056,2.056,0,0,0,.636-1.536,2.056,2.056,0,0,0-.636-1.536A2.086,2.086,0,0,0-8.208-8.46a2.094,2.094,0,0,0-1.548.648,2.1,2.1,0,0,0-.636,1.536A2.1,2.1,0,0,0-9.756-4.74a2.094,2.094,0,0,0,1.548.648A2.067,2.067,0,0,0-6.672-4.74Zm-.876-.876a.916.916,0,0,1-.66.276.9.9,0,0,1-.66-.276.9.9,0,0,1-.276-.66.916.916,0,0,1,.276-.66.9.9,0,0,1,.66-.276.916.916,0,0,1,.66.276.905.905,0,0,1,.264.66A.886.886,0,0,1-7.548-5.616ZM-.972-.468A2.122,2.122,0,0,0-.336-2,2.129,2.129,0,0,0-.972-3.552,2.1,2.1,0,0,0-2.52-4.188a2.056,2.056,0,0,0-1.536.636A2.064,2.064,0,0,0-4.692-2,2.075,2.075,0,0,0-4.056-.468,2.056,2.056,0,0,0-2.52.168,2.1,2.1,0,0,0-.972-.468ZM-1.86-2.676A.879.879,0,0,1-1.584-2a.846.846,0,0,1-.276.648.9.9,0,0,1-.66.276.889.889,0,0,1-.648-.276A.846.846,0,0,1-3.444-2a.879.879,0,0,1,.276-.672A.878.878,0,0,1-2.52-2.94.886.886,0,0,1-1.86-2.676Z" transform="translate(1513.158 1337.723)" fill="#242549"/><path d="M-15.054-2.6H-16.7a3.467,3.467,0,0,0,.42,1.632A2.659,2.659,0,0,0-13.77.216a2.817,2.817,0,0,0,2.208-.828A2.657,2.657,0,0,0-10.818-2.5a2.047,2.047,0,0,0-.636-1.62,1.206,1.206,0,0,0-.66-.4,1.5,1.5,0,0,0,.588-.444,1.839,1.839,0,0,0,.444-1.26,2.08,2.08,0,0,0-.744-1.692,2.933,2.933,0,0,0-1.968-.624,3.261,3.261,0,0,0-1.1.156,2.195,2.195,0,0,0-.78.456A2.5,2.5,0,0,0-16.326-7a4.258,4.258,0,0,0-.216,1.2h1.56A1.618,1.618,0,0,1-14.718-6.8a1.023,1.023,0,0,1,.876-.372,1.077,1.077,0,0,1,.8.3,1.156,1.156,0,0,1,.276.792.979.979,0,0,1-.552,1,3.074,3.074,0,0,1-1.14.156v1.2a3.348,3.348,0,0,1,1.212.156,1.1,1.1,0,0,1,.684,1.116,1.259,1.259,0,0,1-.36.972,1.245,1.245,0,0,1-.864.336,1.128,1.128,0,0,1-1.1-.612A1.779,1.779,0,0,1-15.054-2.6ZM-4.014-7.08V-8.388h-6l-.024,1.5H-5.8A11.7,11.7,0,0,0-7.338-4.752,10.189,10.189,0,0,0-8.838,0H-7.1a7.807,7.807,0,0,1,.276-1.872A12.474,12.474,0,0,1-6.174-3.8,10.948,10.948,0,0,1-5.058-5.76,11.649,11.649,0,0,1-4.014-7.08ZM-1.146,0V-1.752H-2.922V0Zm2.8-2.268H-.018A2.493,2.493,0,0,0,.858-.432,3,3,0,0,0,2.85.228,2.733,2.733,0,0,0,5.106-.708a3.2,3.2,0,0,0,.756-2.1,2.678,2.678,0,0,0-.78-2.064A2.7,2.7,0,0,0,3.234-5.58a2.692,2.692,0,0,0-.876.132,3.72,3.72,0,0,0-.612.336l.312-1.86H5.526V-8.388H.846L.246-3.7l1.5.072a1.1,1.1,0,0,1,.6-.516,1.393,1.393,0,0,1,.528-.084,1.08,1.08,0,0,1,.948.456,1.859,1.859,0,0,1,.3,1.092,1.8,1.8,0,0,1-.324,1.1,1.106,1.106,0,0,1-.948.432,1.035,1.035,0,0,1-.816-.3A1.485,1.485,0,0,1,1.65-2.268ZM9.714.228,14.454-8.5h-.888L8.814.228Zm.624-4.968a2.056,2.056,0,0,0,.636-1.536,2.056,2.056,0,0,0-.636-1.536A2.086,2.086,0,0,0,8.8-8.46a2.094,2.094,0,0,0-1.548.648,2.1,2.1,0,0,0-.636,1.536A2.1,2.1,0,0,0,7.254-4.74,2.094,2.094,0,0,0,8.8-4.092,2.067,2.067,0,0,0,10.338-4.74Zm-.876-.876a.916.916,0,0,1-.66.276.9.9,0,0,1-.66-.276.9.9,0,0,1-.276-.66.916.916,0,0,1,.276-.66.9.9,0,0,1,.66-.276.916.916,0,0,1,.66.276.905.905,0,0,1,.264.66A.886.886,0,0,1,9.462-5.616ZM16.038-.468A2.122,2.122,0,0,0,16.674-2a2.129,2.129,0,0,0-.636-1.548,2.1,2.1,0,0,0-1.548-.636,2.056,2.056,0,0,0-1.536.636A2.064,2.064,0,0,0,12.318-2a2.075,2.075,0,0,0,.636,1.536A2.056,2.056,0,0,0,14.49.168,2.1,2.1,0,0,0,16.038-.468ZM15.15-2.676A.879.879,0,0,1,15.426-2a.846.846,0,0,1-.276.648.9.9,0,0,1-.66.276.889.889,0,0,1-.648-.276A.846.846,0,0,1,13.566-2a.879.879,0,0,1,.276-.672.878.878,0,0,1,.648-.264A.886.886,0,0,1,15.15-2.676Z" transform="translate(1371.554 1487.483)" fill="#242549"/><path d="M-11.238-1.668A4.014,4.014,0,0,0-11.634,0h5.82V-1.476H-9.522a2.043,2.043,0,0,1,.4-.456c.144-.132.432-.348.852-.648l.672-.468A5.98,5.98,0,0,0-6.39-4.14a2.668,2.668,0,0,0,.564-1.668,2.543,2.543,0,0,0-.8-1.98,2.972,2.972,0,0,0-2.136-.744A2.439,2.439,0,0,0-11.142-7.26a4.108,4.108,0,0,0-.4,1.752h1.62a2.821,2.821,0,0,1,.192-1.044,1.034,1.034,0,0,1,1.032-.576,1.072,1.072,0,0,1,.864.36,1.4,1.4,0,0,1,.3.9,1.738,1.738,0,0,1-.528,1.212A12.235,12.235,0,0,1-9.546-3.468,4.7,4.7,0,0,0-11.238-1.668Zm7.884-.6H-5.022A2.493,2.493,0,0,0-4.146-.432a3,3,0,0,0,1.992.66A2.733,2.733,0,0,0,.1-.708a3.2,3.2,0,0,0,.756-2.1,2.678,2.678,0,0,0-.78-2.064A2.7,2.7,0,0,0-1.77-5.58a2.692,2.692,0,0,0-.876.132,3.72,3.72,0,0,0-.612.336l.312-1.86H.522V-8.388h-4.68l-.6,4.692,1.5.072a1.1,1.1,0,0,1,.6-.516,1.393,1.393,0,0,1,.528-.084,1.08,1.08,0,0,1,.948.456,1.859,1.859,0,0,1,.3,1.092,1.8,1.8,0,0,1-.324,1.1,1.106,1.106,0,0,1-.948.432,1.035,1.035,0,0,1-.816-.3A1.485,1.485,0,0,1-3.354-2.268ZM4.71.228,9.45-8.5H8.562L3.81.228ZM5.334-4.74A2.056,2.056,0,0,0,5.97-6.276a2.056,2.056,0,0,0-.636-1.536A2.086,2.086,0,0,0,3.8-8.46a2.094,2.094,0,0,0-1.548.648,2.1,2.1,0,0,0-.636,1.536A2.1,2.1,0,0,0,2.25-4.74,2.094,2.094,0,0,0,3.8-4.092,2.067,2.067,0,0,0,5.334-4.74Zm-.876-.876a.916.916,0,0,1-.66.276.9.9,0,0,1-.66-.276.9.9,0,0,1-.276-.66.916.916,0,0,1,.276-.66.9.9,0,0,1,.66-.276.916.916,0,0,1,.66.276.905.905,0,0,1,.264.66A.886.886,0,0,1,4.458-5.616ZM11.034-.468A2.122,2.122,0,0,0,11.67-2a2.129,2.129,0,0,0-.636-1.548,2.1,2.1,0,0,0-1.548-.636,2.056,2.056,0,0,0-1.536.636A2.064,2.064,0,0,0,7.314-2,2.075,2.075,0,0,0,7.95-.468,2.056,2.056,0,0,0,9.486.168,2.1,2.1,0,0,0,11.034-.468Zm-.888-2.208A.879.879,0,0,1,10.422-2a.846.846,0,0,1-.276.648.9.9,0,0,1-.66.276.889.889,0,0,1-.648-.276A.846.846,0,0,1,8.562-2a.879.879,0,0,1,.276-.672.878.878,0,0,1,.648-.264A.886.886,0,0,1,10.146-2.676Z" transform="translate(1404.958 1504.123)" fill="#242549"/><path d="M-3.09-7.416a2.4,2.4,0,0,0-2.28-1.14,2.394,2.394,0,0,0-2.268,1.14A6.548,6.548,0,0,0-8.3-4.164a6.467,6.467,0,0,0,.66,3.24A2.394,2.394,0,0,0-5.37.216,2.4,2.4,0,0,0-3.09-.924a6.6,6.6,0,0,0,.66-3.24A6.683,6.683,0,0,0-3.09-7.416ZM-6.354-1.932a8.1,8.1,0,0,1-.24-2.232,8.079,8.079,0,0,1,.24-2.28.962.962,0,0,1,.984-.732.945.945,0,0,1,.984.732,8.173,8.173,0,0,1,.228,2.28,8.187,8.187,0,0,1-.228,2.232.952.952,0,0,1-.984.78A.969.969,0,0,1-6.354-1.932ZM1.374.228,6.114-8.5H5.226L.474.228ZM2-4.74a2.056,2.056,0,0,0,.636-1.536A2.056,2.056,0,0,0,2-7.812,2.086,2.086,0,0,0,.462-8.46a2.094,2.094,0,0,0-1.548.648,2.1,2.1,0,0,0-.636,1.536A2.1,2.1,0,0,0-1.086-4.74a2.094,2.094,0,0,0,1.548.648A2.067,2.067,0,0,0,2-4.74Zm-.876-.876a.916.916,0,0,1-.66.276A.9.9,0,0,1-.2-5.616a.9.9,0,0,1-.276-.66A.916.916,0,0,1-.2-6.936a.9.9,0,0,1,.66-.276.916.916,0,0,1,.66.276.905.905,0,0,1,.264.66A.886.886,0,0,1,1.122-5.616ZM7.7-.468A2.122,2.122,0,0,0,8.334-2,2.129,2.129,0,0,0,7.7-3.552,2.1,2.1,0,0,0,6.15-4.188a2.056,2.056,0,0,0-1.536.636A2.064,2.064,0,0,0,3.978-2,2.075,2.075,0,0,0,4.614-.468,2.056,2.056,0,0,0,6.15.168,2.1,2.1,0,0,0,7.7-.468ZM6.81-2.676A.879.879,0,0,1,7.086-2a.846.846,0,0,1-.276.648.9.9,0,0,1-.66.276A.889.889,0,0,1,5.5-1.356.846.846,0,0,1,5.226-2,.879.879,0,0,1,5.5-2.676.878.878,0,0,1,6.15-2.94.886.886,0,0,1,6.81-2.676Z" transform="translate(1438.359 1537.405)" fill="#242549"/><line x2="311.597" transform="translate(1204.536 1544.405)" fill="none" stroke="#e3ded5" stroke-width="2"/><circle cx="4" cy="4" r="4" transform="translate(1434.359 1540.405)" fill="#242549"/><path d="M4.08-4.176v1.6c0,.8-.352,1.088-.912,1.088s-.912-.288-.912-1.088V-8.624c0-.8.352-1.1.912-1.1s.912.3.912,1.1v1.2H5.744V-8.512c0-1.792-.9-2.816-2.624-2.816S.5-10.3.5-8.512v5.824C.5-.9,1.392.128,3.12.128S5.744-.9,5.744-2.688V-4.176ZM6.3-9.6h1.84V0H9.9V-9.6h1.84v-1.6H6.3Zm10.112-1.6H13.84L12.048,0h1.616l.3-2.032h2.16L16.432,0h1.776ZM15.04-9.216l.848,5.664h-1.7ZM21.616-11.2H19.024V0h1.76V-4.208h.832c1.76,0,2.624-.976,2.624-2.768V-8.432C24.24-10.224,23.376-11.2,21.616-11.2Zm0,1.6c.56,0,.864.256.864,1.056v1.68c0,.8-.3,1.056-.864,1.056h-.832V-9.6Zm2.928,0h1.84V0h1.76V-9.6h1.84v-1.6h-5.44Zm7.824.976c0-.8.352-1.1.912-1.1s.912.3.912,1.1v6.048c0,.8-.352,1.1-.912,1.1s-.912-.3-.912-1.1Zm-1.76,5.936A2.486,2.486,0,0,0,33.28.128a2.486,2.486,0,0,0,2.672-2.816V-8.512a2.486,2.486,0,0,0-2.672-2.816,2.486,2.486,0,0,0-2.672,2.816ZM39.744-11.2H37.088V0h2.768a2.381,2.381,0,0,0,2.672-2.656v-.912a2.265,2.265,0,0,0-1.312-2.4,2.2,2.2,0,0,0,1.136-2.256v-.4C42.352-10.352,41.568-11.2,39.744-11.2Zm-.112,6.16c.8,0,1.136.32,1.136,1.36V-2.7c0,.832-.32,1.1-.912,1.1H38.848V-5.04ZM39.7-9.6c.624,0,.9.352.9,1.152v.624c0,.9-.4,1.184-1.056,1.184h-.688V-9.6ZM46.176,0C47.936,0,48.8-.976,48.8-2.768V-4.224c0-1.792-.864-2.768-2.624-2.768h-.832V-11.2h-1.76V0Zm-.832-1.6V-5.392h.832c.56,0,.864.256.864,1.056v1.68c0,.8-.3,1.056-.864,1.056ZM51.568,0V-11.2h-1.76V0Zm3.088,0H52.848V-11.2h1.568v7.088l.64-2.464L56.5-11.2h1.936V0H56.848V-7.888l-.72,2.752Zm1.808-13.7c-.048.592-.32.736-.8.736-.464,0-.7-.144-.752-.736H53.824a1.651,1.651,0,0,0,1.84,1.776A1.654,1.654,0,0,0,57.536-13.7ZM61.68-9.6h1.84V0h1.76V-9.6h1.84v-1.6H61.68Zm10.112-1.6H69.216L67.424,0H69.04l.3-2.032H71.5L71.808,0h1.776ZM70.416-9.216l.848,5.664h-1.7ZM76.992-11.2H74.4V0h1.76V-4.208h.832c1.76,0,2.624-.976,2.624-2.768V-8.432C79.616-10.224,78.752-11.2,76.992-11.2Zm0,1.6c.56,0,.864.256.864,1.056v1.68c0,.8-.3,1.056-.864,1.056H76.16V-9.6Zm6.72,4.464.72-2.752V0h1.584V-11.2H84.08L82.64-6.576,82-4.112V-11.2H80.432V0H82.24ZM90.4,0h1.728V-1.264h.656c1.76,0,2.624-.976,2.624-2.768V-7.088c0-1.792-.864-2.768-2.624-2.768h-.656V-11.2H90.4v1.344h-.656c-1.76,0-2.624.976-2.624,2.768v3.056c0,1.792.864,2.768,2.624,2.768H90.4Zm2.384-8.3c.56,0,.88.3.88,1.1v3.28c0,.8-.32,1.12-.88,1.12h-.656V-8.3ZM90.4-2.8h-.656c-.56,0-.88-.32-.88-1.12V-7.2c0-.8.32-1.1.88-1.1H90.4Z" transform="translate(1416.959 1483.789)" fill="#292b45" opacity="0.325"/><g transform="matrix(1, 0, 0, 1, 1152.13, 1278.16)" filter="url(#a)"><path d="M8,0H347a8,8,0,0,1,8,8V21.993H0V8A8,8,0,0,1,8,0Z" transform="translate(364 360) rotate(180)" fill="#242549"/></g><g transform="translate(0 5)" style="isolation:isolate"><text transform="translate(1336.168 1625.215)" fill="#fff9ea" font-size="10" font-family="Helvetica-Bold, Helvetica" font-weight="700" style="isolation:isolate"><tspan x="-112.865" y="0">2.5%    100 . </tspan></text></g><path d="M3.368,0H10.1a3.368,3.368,0,0,1,3.368,3.368V10.1A3.368,3.368,0,0,1,10.1,13.471H3.368A3.368,3.368,0,0,1,0,10.1V3.368A3.368,3.368,0,0,1,3.368,0Z" transform="translate(1171.133 1593.629)" fill="#c2b7f5"/><path d="M3.061-10.608H.606V0H2.273V-3.986h.788c1.667,0,2.485-.924,2.485-2.622V-7.986C5.547-9.684,4.728-10.608,3.061-10.608Zm0,1.515c.53,0,.818.242.818,1V-6.5c0,.758-.288,1-.818,1H2.273V-9.093Zm4.925,0h2.879v-1.515H6.319V0h4.546V-1.515H7.986V-4.622h2.288V-6.138H7.986ZM15.7,0h1.712L15.094-5.88l2.319-4.728H15.746L13.563-5.986v-4.622H11.9V0h1.667V-3.258l.515-.97Zm2,.015h.258c1.667,0,2.364-.758,2.425-2.7l.182-6.41H22.02V0h1.7V-10.608H19l-.273,8.017C18.7-1.606,18.458-1.5,17.7-1.5ZM28.688-10.608h-2.44L24.551,0h1.531l.288-1.925h2.046L28.7,0h1.682Zm-1.3,1.879.8,5.365H26.581Zm6.077-1.879H31.143V0H32.6V-7.5L33.84,0h1.576l1.152-7.608V0h1.576V-10.608H35.826L34.689-3.076Zm7.562,6.062h1.894V0h1.7V-10.608h-1.7v4.546H41.024v-4.546H39.357V0h1.667ZM48.283,0c1.667,0,2.485-.924,2.485-2.622V-4c0-1.7-.818-2.622-2.485-2.622h-.788v-3.986H45.828V0Zm-.788-1.515V-5.107h.788c.53,0,.818.242.818,1v1.591c0,.758-.288,1-.818,1ZM53.39,0V-10.608H51.723V0Zm2.925,0H54.6V-10.608h1.485v6.714l.606-2.334,1.364-4.38h1.834V0h-1.5V-7.471l-.682,2.607Zm1.712-12.972c-.045.561-.3.7-.758.7-.439,0-.667-.136-.712-.7H55.527a1.564,1.564,0,0,0,1.743,1.682,1.567,1.567,0,0,0,1.773-1.682ZM66.1,0A2.3,2.3,0,0,0,68.62-2.622V-3.758A2.3,2.3,0,0,0,66.1-6.38h-.97V-9.093h3v-1.515H63.468V0Zm-.97-1.515V-4.865h.97c.53,0,.849.242.849,1v1.349c0,.758-.318,1-.849,1Zm7.517-1.031A2.354,2.354,0,0,0,75.182.121a2.354,2.354,0,0,0,2.531-2.667V-8.062a2.354,2.354,0,0,0-2.531-2.667,2.354,2.354,0,0,0-2.531,2.667v2H71.409v-4.546H69.742V0h1.667V-4.546h1.243Zm1.667-5.622c0-.758.333-1.046.864-1.046s.864.288.864,1.046V-2.44c0,.758-.333,1.046-.864,1.046s-.864-.288-.864-1.046ZM85.29,1.425v-2.91h-.727v-9.123H79.9l-.379,7.744a2.2,2.2,0,0,1-.409,1.379h-.652v2.91h1.622V0h3.561V1.425ZM81.456-9.093h1.409v7.608H80.683a1.88,1.88,0,0,0,.47-1.409Zm9.563-1.515H89.367v4.289L87.4-10.608H85.73l2.061,4.349L85.73,0h1.712l1.515-4.713.409.818V0h1.652V-3.895l.409-.8L92.943,0h1.712L92.61-6.3l2.046-4.3H92.989l-1.97,4.289Zm6.016,1.515h2.879v-1.515H95.368V0h4.546V-1.515H97.035V-4.622h2.288V-6.138H97.035Zm3.425,0H102.2V0h1.667V-9.093h1.743v-1.515H100.46Z" transform="translate(1187.972 1605.773)" fill="#242549"/><path d="M3.368,0H10.1a3.368,3.368,0,0,1,3.368,3.368V10.1A3.368,3.368,0,0,1,10.1,13.471H3.368A3.368,3.368,0,0,1,0,10.1V3.368A3.368,3.368,0,0,1,3.368,0Z" transform="translate(1339.245 1593.629)" fill="#6bcc6b"/><path d="M3.122-10.608H.606V0H3.228A2.255,2.255,0,0,0,5.759-2.516v-.864A2.145,2.145,0,0,0,4.516-5.653,2.083,2.083,0,0,0,5.592-7.789v-.379C5.592-9.805,4.849-10.608,3.122-10.608ZM3.016-4.774c.758,0,1.076.3,1.076,1.288v.924c0,.788-.3,1.046-.864,1.046H2.273V-4.774Zm.061-4.319c.591,0,.849.333.849,1.091v.591c0,.849-.379,1.121-1,1.121H2.273v-2.8Zm5.213.924c0-.758.333-1.046.864-1.046s.864.288.864,1.046V-2.44c0,.758-.333,1.046-.864,1.046S8.29-1.682,8.29-2.44ZM6.623-2.546A2.354,2.354,0,0,0,9.153.121a2.354,2.354,0,0,0,2.531-2.667V-8.062a2.354,2.354,0,0,0-2.531-2.667A2.354,2.354,0,0,0,6.623-8.062Zm9.35-4.865c0,.849-.379,1.121-1,1.121h-.5v1.515h.409c.758,0,1.091.364,1.091,1.349v.834c0,.94-.333,1.2-.864,1.2s-.864-.288-.864-1.046V-3.713H12.669v1.167c0,1.7.849,2.667,2.485,2.667s2.485-.97,2.485-2.667v-.834a2.164,2.164,0,0,0-1.167-2.228A2.067,2.067,0,0,0,17.64-7.789v-.273c0-1.7-.849-2.667-2.485-2.667S12.7-9.79,12.7-8.093V-7.3H14.23v-.864c0-.758.349-1.046.879-1.046s.864.258.864,1.212Zm5.3-3.2H18.761V0h2.622a2.255,2.255,0,0,0,2.531-2.516v-.864a2.145,2.145,0,0,0-1.243-2.273,2.083,2.083,0,0,0,1.076-2.137v-.379C23.747-9.805,23-10.608,21.277-10.608Zm-.106,5.835c.758,0,1.076.3,1.076,1.288v.924c0,.788-.3,1.046-.864,1.046h-.955V-4.774Zm.061-4.319c.591,0,.849.333.849,1.091v.591c0,.849-.379,1.121-1,1.121h-.652v-2.8Zm6.138-1.515H24.914V0h1.667V-3.986h.788c1.667,0,2.485-.924,2.485-2.622V-7.986C29.855-9.684,29.036-10.608,27.369-10.608Zm0,1.515c.53,0,.818.242.818,1V-6.5c0,.758-.288,1-.818,1h-.788V-9.093Zm6.956-1.515h-2.44L30.188,0h1.531l.288-1.925h2.046L34.34,0h1.682Zm-1.3,1.879.8,5.365H32.219Zm3.289-.364h1.743V0H39.72V-9.093h1.743v-1.515H36.31ZM47.192,0a2.3,2.3,0,0,0,2.516-2.622V-3.758A2.3,2.3,0,0,0,47.192-6.38h-.97V-9.093h3v-1.515H44.555V0Zm-.97-1.515V-4.865h.97c.53,0,.849.242.849,1v1.349c0,.758-.318,1-.849,1Zm7.517-1.031A2.354,2.354,0,0,0,56.269.121,2.354,2.354,0,0,0,58.8-2.546V-8.062a2.354,2.354,0,0,0-2.531-2.667,2.354,2.354,0,0,0-2.531,2.667v2H52.5v-4.546H50.829V0H52.5V-4.546h1.243Zm1.667-5.622c0-.758.333-1.046.864-1.046s.864.288.864,1.046V-2.44c0,.758-.333,1.046-.864,1.046s-.864-.288-.864-1.046ZM66.377,1.425v-2.91H65.65v-9.123H60.982L60.6-2.864a2.2,2.2,0,0,1-.409,1.379h-.652v2.91h1.622V0h3.561V1.425ZM62.543-9.093h1.409v7.608H61.77a1.88,1.88,0,0,0,.47-1.409Zm9.563-1.515H70.454v4.289l-1.97-4.289H66.817l2.061,4.349L66.817,0h1.712l1.515-4.713.409.818V0h1.652V-3.895l.409-.8L74.03,0h1.712L73.7-6.3l2.046-4.3H74.076l-1.97,4.289Zm6.016,1.515H81v-1.515H76.455V0H81V-1.515H78.122V-4.622H80.41V-6.138H78.122Zm3.425,0H83.29V0h1.667V-9.093H86.7v-1.515H81.547Zm9.578-1.515h-2.44L86.988,0h1.531l.288-1.925h2.046L91.14,0h1.682Zm-1.3,1.879.8,5.365H89.018Z" transform="translate(1356.083 1605.773)" fill="#242549"/></g><path d="M-9.64-27.32l1.788.9-.312-1.98h1.08L-7.4-26.42l1.788-.9.336,1.02-1.968.336,1.4,1.4-.864.636L-7.624-25.7l-.924,1.776-.864-.636,1.4-1.4L-9.976-26.3Zm7.416,1.452v-.468a1.206,1.206,0,0,0-.174-.75.624.624,0,0,0-.51-.21q-.7,0-.7.828v.684H-4.816v-.624a2.216,2.216,0,0,1,.492-1.554A1.877,1.877,0,0,1-2.872-28.5a1.894,1.894,0,0,1,1.464.546,2.227,2.227,0,0,1,.5,1.566v.216a1.66,1.66,0,0,1-.924,1.728A1.719,1.719,0,0,1-.9-22.676v.66a2.227,2.227,0,0,1-.5,1.566,1.894,1.894,0,0,1-1.464.546,1.894,1.894,0,0,1-1.464-.546,2.227,2.227,0,0,1-.5-1.566v-.924h1.248v1.008q0,.828.684.828a.624.624,0,0,0,.51-.21,1.181,1.181,0,0,0,.174-.738v-.66a1.3,1.3,0,0,0-.2-.822.811.811,0,0,0-.66-.246h-.324v-1.2h.4a.792.792,0,0,0,.594-.2A.964.964,0,0,0-2.224-25.868ZM1.928-28.4Q3.9-28.4,3.9-26.324v1.092q0,2.076-1.968,2.076H1.3V-20H-.016v-8.4Zm0,1.2H1.3v2.844h.624a.621.621,0,0,0,.486-.18.912.912,0,0,0,.162-.612v-1.26a.912.912,0,0,0-.162-.612A.621.621,0,0,0,1.928-27.2Zm5.04,3.348L5.864-20H4.508v-8.4H5.684v5.316l.48-1.848L7.244-28.4H8.7V-20H7.508v-5.916ZM9.248-27.2v-1.2h4.08v1.2h-1.38V-20h-1.32v-7.2Zm5.976,0v2.34h1.812v1.2H15.224v2.46H17.5V-20H13.9v-8.4h3.6v1.2Zm2.724,7.212v-1.2a.981.981,0,0,0,.642-.15,1.073,1.073,0,0,0,.174-.714L18.98-28.4h3.732V-20H21.368v-7.2H20.216l-.144,5.076a2.56,2.56,0,0,1-.48,1.644,1.855,1.855,0,0,1-1.44.492Zm8.232-3.864L25.076-20H23.72v-8.4H24.9v5.316l.48-1.848,1.08-3.468h1.452V-20H26.72v-5.916ZM32.7-28.4a2.02,2.02,0,0,1,1.488.474,2,2,0,0,1,.468,1.458v.3a1.669,1.669,0,0,1-.852,1.692,1.7,1.7,0,0,1,.984,1.8v.684a2.007,2.007,0,0,1-.51,1.482A2.025,2.025,0,0,1,32.78-20H30.7v-8.4Zm-.084,4.62h-.588v2.58h.756a.661.661,0,0,0,.516-.186.958.958,0,0,0,.168-.642v-.732a1.216,1.216,0,0,0-.2-.8A.839.839,0,0,0,32.612-23.78Zm.048-3.42h-.636v2.22h.516a.792.792,0,0,0,.594-.2.964.964,0,0,0,.2-.684v-.468Q33.332-27.2,32.66-27.2ZM40.448-20l-1.284-3.348-.408.768V-20h-1.32v-8.4h1.32v3.66l1.728-3.66H41.8l-1.836,3.744L41.8-20Zm4.416-3.852L43.76-20H42.4v-8.4H43.58v5.316l.48-1.848L45.14-28.4h1.452V-20H45.4v-5.916Zm3.984.252V-20h-1.32v-8.4h1.32v3.6h1.5v-3.6h1.344V-20H50.348v-3.6Zm5.016-2.868v4.536q0,.828.684.828t.684-.828v-4.536q0-.828-.684-.828T53.864-26.468Zm-1.32,4.452v-4.368a2.2,2.2,0,0,1,.516-1.56,1.938,1.938,0,0,1,1.488-.552,1.938,1.938,0,0,1,1.488.552,2.2,2.2,0,0,1,.516,1.56v4.368a2.2,2.2,0,0,1-.516,1.56,1.938,1.938,0,0,1-1.488.552,1.938,1.938,0,0,1-1.488-.552A2.2,2.2,0,0,1,52.544-22.016ZM57.02-27.2v-1.2H61.1v1.2H59.72V-20H58.4v-7.2ZM63-27.2v2.34h1.812v1.2H63v2.46h2.28V-20h-3.6v-8.4h3.6v1.2Zm6.024-1.2L70.364-20H69.032L68.8-21.524h-1.62L66.956-20H65.744l1.344-8.4Zm-1.032,1.488-.636,4.248h1.272Zm2.6-.288v-1.2h4.08v1.2h-1.38V-20h-1.32v-7.2Zm6.6-1.2q1.968,0,1.968,2.076v1.092q0,2.076-1.968,2.076h-.624V-20h-1.32v-8.4Zm0,1.2h-.624v2.844h.624a.621.621,0,0,0,.486-.18.912.912,0,0,0,.162-.612v-1.26a.912.912,0,0,0-.162-.612A.621.621,0,0,0,77.192-27.2Zm3.9,0v2.34H82.9v1.2H81.092v2.46h2.28V-20h-3.6v-8.4h3.6v1.2Z" transform="translate(30.697 635.449)" fill="#242549" opacity="0.5"/></g></svg>