<svg xmlns="http://www.w3.org/2000/svg" width="375" height="526" viewBox="0 0 375 526"><g transform="translate(0 -141)"><rect width="375" height="526" transform="translate(0 141)" fill="none"/><g transform="translate(0 198.23)"><g transform="translate(0 10.716)"><g transform="translate(32 0.054)"><rect width="72" height="300" fill="#e3ded5" opacity="0.5"/><rect width="179" height="300" transform="translate(144)" fill="#ffbe28" opacity="0.102"/></g><line x2="322.218" transform="translate(32.282 299.612)" stroke-width="1" stroke="#e3ded5" stroke-linecap="square" stroke-linejoin="bevel" fill="none"/><line x2="322.218" transform="translate(32.282 249.676)" stroke-width="1" stroke="#e3ded5" stroke-linecap="square" stroke-linejoin="bevel" fill="none"/><line x2="355" transform="translate(0 199.054)" fill="none" stroke="#e3ded5" stroke-linejoin="bevel" stroke-width="30"/><line x2="322.218" transform="translate(32.282 149.806)" stroke-width="1" stroke="#e3ded5" stroke-linecap="square" stroke-linejoin="bevel" fill="none"/><line x2="322.218" transform="translate(32.282 99.871)" stroke-width="1" stroke="#e3ded5" stroke-linecap="square" stroke-linejoin="bevel" fill="none"/><line x2="322.218" transform="translate(32.282 49.935)" stroke-width="1" stroke="#e3ded5" stroke-linecap="square" stroke-linejoin="bevel" fill="none"/><line y1="299.057" transform="translate(319.082 0.554)" stroke-width="1" stroke="#e3ded5" stroke-linecap="square" stroke-linejoin="bevel" fill="none"/><line y1="299.057" transform="translate(283.232 0.554)" stroke-width="1" stroke="#e3ded5" stroke-linecap="square" stroke-linejoin="bevel" fill="none"/><line y1="299.057" transform="translate(245.382 0.554)" stroke-width="1" stroke="#e3ded5" stroke-linecap="square" stroke-linejoin="bevel" fill="none"/><line y1="299.057" transform="translate(211.532 0.554)" stroke-width="1" stroke="#e3ded5" stroke-linecap="square" stroke-linejoin="bevel" fill="none"/><line y1="351.612" transform="translate(175.682)" fill="none" stroke="#e3ded5" stroke-linejoin="bevel" stroke-width="1"/><line y1="299.612" transform="translate(139.832)" stroke-width="1" stroke="#e3ded5" stroke-linecap="square" stroke-linejoin="bevel" fill="none"/><path d="M0,351.612V0" transform="translate(103.982)" fill="none" stroke="#e3ded5" stroke-width="1"/><line y1="299.057" transform="translate(68.132 0.554)" stroke-width="1" stroke="#e3ded5" stroke-linecap="square" stroke-linejoin="bevel" fill="none"/><path d="M0,299.057V0" transform="translate(32.282 0.554)" fill="none" stroke="#e3ded5" stroke-linecap="square" stroke-width="1"/><line y1="299.057" transform="translate(249.382 0.554)" stroke-width="1" stroke="#e3ded5" stroke-linecap="square" stroke-linejoin="bevel" fill="none"/><line x1="10.453" y2="10.453" transform="translate(242.155 284.826)" stroke-width="2" stroke="#e3ded5" stroke-linecap="square" stroke-linejoin="bevel" fill="none"/><line x1="10.453" y2="10.453" transform="translate(242.155 278.644)" stroke-width="2" stroke="#e3ded5" stroke-linecap="square" stroke-linejoin="bevel" fill="none"/><line x2="182.269" transform="translate(32.742 199.997)" fill="none" stroke="#292b45" stroke-width="2" opacity="0.325" style="isolation:isolate"/></g><g transform="translate(165.48 388.747)"><path d="M2.424-8.4q1.968,0,1.968,2.076v1.092q0,2.076-1.968,2.076H1.8V0H.48V-8.4Zm0,1.2H1.8v2.844h.624a.621.621,0,0,0,.486-.18.912.912,0,0,0,.162-.612v-1.26A.912.912,0,0,0,2.91-7.02.621.621,0,0,0,2.424-7.2Zm3.9,0v2.34H8.136v1.2H6.324V-1.2H8.6V0H5V-8.4H8.6v1.2ZM12.432,0,11.148-3.348l-.408.768V0H9.42V-8.4h1.32v3.66L12.468-8.4h1.32L11.952-4.656,13.788,0Zm1.584.012v-1.2a.981.981,0,0,0,.642-.15,1.073,1.073,0,0,0,.174-.714L15.048-8.4H18.78V0H17.436V-7.2H16.284L16.14-2.124A2.56,2.56,0,0,1,15.66-.48a1.855,1.855,0,0,1-1.44.492Zm8.7-8.412L24.06,0H22.728L22.5-1.524H20.88L20.652,0H19.44l1.344-8.4ZM21.684-6.912l-.636,4.248H22.32ZM26.5-8.4l.972,5.964.9-5.964H30.2V0H28.956V-6.024L28.044,0H26.8l-.984-5.94V0H24.66V-8.4Zm5.988,4.8V0h-1.32V-8.4h1.32v3.6h1.5V-8.4h1.344V0H33.984V-3.6ZM38.232,0H36.288V-8.4h1.32v3.156h.624q1.968,0,1.968,2.076v1.092Q40.2,0,38.232,0Zm-.624-1.2h.624a.621.621,0,0,0,.486-.18.912.912,0,0,0,.162-.612v-1.26a.912.912,0,0,0-.162-.612.621.621,0,0,0-.486-.18h-.624ZM42.276,0h-1.32V-8.4h1.32Zm.96,0V-8.4h1.176v5.316l.48-1.848L45.972-8.4h1.452V0H46.236V-5.916L45.7-3.852,44.592,0Zm2.712-10.272h.8a1.309,1.309,0,0,1-.36.978,1.428,1.428,0,0,1-1.044.354,1.361,1.361,0,0,1-1.014-.348,1.426,1.426,0,0,1-.366-.984h.816a.632.632,0,0,0,.156.438.613.613,0,0,0,.408.114.663.663,0,0,0,.432-.12A.6.6,0,0,0,45.948-10.272ZM52.344,0H50.256V-8.4h3.7v1.2H51.576v2.148h.768a1.95,1.95,0,0,1,1.488.534,2.163,2.163,0,0,1,.5,1.542v.9a2.163,2.163,0,0,1-.5,1.542A1.95,1.95,0,0,1,52.344,0Zm-.768-1.2h.768q.672,0,.672-.792V-3.06q0-.792-.672-.792h-.768Zm5.952-.816V-3.6h-.984V0h-1.32V-8.4h1.32v3.6h.984V-6.384a2.2,2.2,0,0,1,.516-1.56A1.938,1.938,0,0,1,59.532-8.5a1.938,1.938,0,0,1,1.488.552,2.2,2.2,0,0,1,.516,1.56v4.368a2.2,2.2,0,0,1-.516,1.56A1.938,1.938,0,0,1,59.532.1a1.938,1.938,0,0,1-1.488-.552A2.2,2.2,0,0,1,57.528-2.016Zm1.32-4.452v4.536q0,.828.684.828t.684-.828V-6.468q0-.828-.684-.828T58.848-6.468Zm8.688,7.6H66.228V0h-2.82V1.128H62.124v-2.3h.516a1.883,1.883,0,0,0,.324-1.092l.3-6.132h3.7v7.224h.576ZM64.5-7.2l-.24,4.908a1.669,1.669,0,0,1-.372,1.116h1.728V-7.2Zm7.572-1.2V-5l1.56-3.4h1.32l-1.62,3.408L74.952,0H73.6L72.4-3.72l-.324.636V0H70.764V-3.084l-.324-.648L69.24,0H67.884l1.632-4.956L67.884-8.4H69.2L70.764-5V-8.4Zm4.764,1.2v2.34h1.812v1.2H76.836V-1.2h2.28V0h-3.6V-8.4h3.6v1.2Zm2.712,0V-8.4h4.08v1.2h-1.38V0h-1.32V-7.2Z" transform="translate(-0.48 10.272)" fill="#242549"/></g><g transform="translate(49.48 388.747)"><path d="M2.472-8.4a2.02,2.02,0,0,1,1.488.474,2,2,0,0,1,.468,1.458v.3a1.669,1.669,0,0,1-.852,1.692,1.7,1.7,0,0,1,.984,1.8v.684A2.007,2.007,0,0,1,4.05-.51,2.025,2.025,0,0,1,2.556,0H.48V-8.4ZM2.388-3.78H1.8V-1.2h.756a.661.661,0,0,0,.516-.186.958.958,0,0,0,.168-.642V-2.76a1.216,1.216,0,0,0-.2-.8A.839.839,0,0,0,2.388-3.78ZM2.436-7.2H1.8v2.22h.516a.792.792,0,0,0,.594-.2.964.964,0,0,0,.2-.684v-.468Q3.108-7.2,2.436-7.2Zm4.128.732v4.536q0,.828.684.828t.684-.828V-6.468q0-.828-.684-.828T6.564-6.468ZM5.244-2.016V-6.384a2.2,2.2,0,0,1,.516-1.56A1.938,1.938,0,0,1,7.248-8.5a1.938,1.938,0,0,1,1.488.552,2.2,2.2,0,0,1,.516,1.56v4.368a2.2,2.2,0,0,1-.516,1.56A1.938,1.938,0,0,1,7.248.1,1.938,1.938,0,0,1,5.76-.456,2.2,2.2,0,0,1,5.244-2.016Zm7.4-3.852v-.468a1.206,1.206,0,0,0-.174-.75.624.624,0,0,0-.51-.21q-.7,0-.7.828v.684H10.056v-.624a2.216,2.216,0,0,1,.492-1.554A1.877,1.877,0,0,1,12-8.5a1.894,1.894,0,0,1,1.464.546,2.227,2.227,0,0,1,.5,1.566v.216a1.66,1.66,0,0,1-.924,1.728,1.719,1.719,0,0,1,.924,1.764v.66a2.227,2.227,0,0,1-.5,1.566A1.894,1.894,0,0,1,12,.1,1.894,1.894,0,0,1,10.536-.45a2.227,2.227,0,0,1-.5-1.566V-2.94H11.28v1.008q0,.828.684.828a.624.624,0,0,0,.51-.21,1.181,1.181,0,0,0,.174-.738v-.66a1.3,1.3,0,0,0-.2-.822.811.811,0,0,0-.66-.246H11.46v-1.2h.4a.792.792,0,0,0,.594-.2A.964.964,0,0,0,12.648-5.868Zm4.2-2.532a2.02,2.02,0,0,1,1.488.474A2,2,0,0,1,18.8-6.468v.3a1.669,1.669,0,0,1-.852,1.692,1.7,1.7,0,0,1,.984,1.8v.684a2.007,2.007,0,0,1-.51,1.482A2.025,2.025,0,0,1,16.932,0H14.856V-8.4Zm-.084,4.62h-.588V-1.2h.756a.661.661,0,0,0,.516-.186.958.958,0,0,0,.168-.642V-2.76a1.216,1.216,0,0,0-.2-.8A.839.839,0,0,0,16.764-3.78Zm.048-3.42h-.636v2.22h.516a.792.792,0,0,0,.594-.2.964.964,0,0,0,.2-.684v-.468Q17.484-7.2,16.812-7.2Zm4.86-1.2q1.968,0,1.968,2.076v1.092q0,2.076-1.968,2.076h-.624V0h-1.32V-8.4Zm0,1.2h-.624v2.844h.624a.621.621,0,0,0,.486-.18.912.912,0,0,0,.162-.612v-1.26a.912.912,0,0,0-.162-.612A.621.621,0,0,0,21.672-7.2ZM27.18-8.4,28.524,0H27.192l-.228-1.524h-1.62L25.116,0H23.9l1.344-8.4ZM26.148-6.912l-.636,4.248h1.272Zm2.6-.288V-8.4h4.08v1.2h-1.38V0h-1.32V-7.2Zm8.976,3.348L36.624,0H35.268V-8.4h1.176v5.316l.48-1.848L38-8.4h1.452V0H38.268V-5.916Zm3.984.252V0h-1.32V-8.4h1.32v3.6h1.5V-8.4h1.344V0H43.212V-3.6Zm5.8-4.8A2.02,2.02,0,0,1,49-7.926a2,2,0,0,1,.468,1.458v.3a1.669,1.669,0,0,1-.852,1.692,1.7,1.7,0,0,1,.984,1.8v.684a2.007,2.007,0,0,1-.51,1.482A2.025,2.025,0,0,1,47.592,0H45.516V-8.4Zm-.084,4.62h-.588V-1.2h.756a.661.661,0,0,0,.516-.186.958.958,0,0,0,.168-.642V-2.76a1.216,1.216,0,0,0-.2-.8A.839.839,0,0,0,47.424-3.78Zm.048-3.42h-.636v2.22h.516a.792.792,0,0,0,.594-.2.964.964,0,0,0,.2-.684v-.468Q48.144-7.2,47.472-7.2Zm4.236,0v2.34H53.52v1.2H51.708V-1.2h2.28V0h-3.6V-8.4h3.6v1.2Zm5.676,4.068h1.248v1.116a2.227,2.227,0,0,1-.5,1.566A1.894,1.894,0,0,1,56.664.1,1.894,1.894,0,0,1,55.2-.45a2.227,2.227,0,0,1-.5-1.566V-6.384a2.227,2.227,0,0,1,.5-1.566A1.894,1.894,0,0,1,56.664-8.5a1.894,1.894,0,0,1,1.464.546,2.227,2.227,0,0,1,.5,1.566v.816H57.384v-.9q0-.828-.684-.828t-.684.828v4.536q0,.816.684.816t.684-.816ZM59.052-7.2V-8.4h4.08v1.2h-1.38V0h-1.32V-7.2Zm7.116,3.348L65.064,0H63.708V-8.4h1.176v5.316l.48-1.848L66.444-8.4H67.9V0H66.708V-5.916ZM68.832,0V-8.4h1.32v7.2h1.5V-8.4H73v7.224h.576v2.3H72.288V0Zm7.92-3.852L75.648,0H74.292V-8.4h1.176v5.316l.48-1.848L77.028-8.4H78.48V0H77.292V-5.916ZM79.416,0V-8.4h1.176v5.316l.48-1.848L82.152-8.4H83.6V0H82.416V-5.916l-.54,2.064L80.772,0Zm2.712-10.272h.8a1.309,1.309,0,0,1-.36.978,1.428,1.428,0,0,1-1.044.354,1.361,1.361,0,0,1-1.014-.348,1.426,1.426,0,0,1-.366-.984h.816a.632.632,0,0,0,.156.438.613.613,0,0,0,.408.114.663.663,0,0,0,.432-.12A.6.6,0,0,0,82.128-10.272Z" transform="translate(-0.48 10.272)" fill="#242549"/></g><rect width="13" height="13" rx="3" transform="translate(147 387.77)" fill="#c2b7f5"/><rect width="13" height="13" rx="3" transform="translate(31 387.77)" fill="#1bad1b"/><g transform="translate(47.198 405.105)"><g transform="translate(2 3)"><path d="M1.248-7.176V-4.3q0,.528.432.528T2.112-4.3v-2.88q0-.528-.432-.528T1.248-7.176Zm-.84,2.82v-2.76a1.408,1.408,0,0,1,.324-1A1.232,1.232,0,0,1,1.68-8.46a1.232,1.232,0,0,1,.948.348,1.408,1.408,0,0,1,.324,1v2.76a1.408,1.408,0,0,1-.324,1,1.232,1.232,0,0,1-.948.348A1.232,1.232,0,0,1,.732-3.36,1.408,1.408,0,0,1,.408-4.356ZM1.68,0,4.992-8.4h.78L2.46,0ZM5.412-4.1v2.88q0,.528.432.528t.432-.528V-4.1q0-.528-.432-.528T5.412-4.1Zm-.84,2.82v-2.76a1.408,1.408,0,0,1,.324-1,1.232,1.232,0,0,1,.948-.348,1.232,1.232,0,0,1,.948.348,1.408,1.408,0,0,1,.324,1v2.76a1.408,1.408,0,0,1-.324,1A1.232,1.232,0,0,1,5.844.06,1.232,1.232,0,0,1,4.9-.288,1.408,1.408,0,0,1,4.572-1.284ZM11.856-8.4a2.02,2.02,0,0,1,1.488.474,2,2,0,0,1,.468,1.458v.3a1.669,1.669,0,0,1-.852,1.692,1.7,1.7,0,0,1,.984,1.8v.684a2.007,2.007,0,0,1-.51,1.482A2.025,2.025,0,0,1,11.94,0H9.864V-8.4Zm-.084,4.62h-.588V-1.2h.756a.661.661,0,0,0,.516-.186.958.958,0,0,0,.168-.642V-2.76a1.216,1.216,0,0,0-.2-.8A.839.839,0,0,0,11.772-3.78ZM11.82-7.2h-.636v2.22H11.7a.792.792,0,0,0,.594-.2.964.964,0,0,0,.2-.684v-.468Q12.492-7.2,11.82-7.2Zm4.128.732v4.536q0,.828.684.828t.684-.828V-6.468q0-.828-.684-.828T15.948-6.468Zm-1.32,4.452V-6.384a2.2,2.2,0,0,1,.516-1.56A1.938,1.938,0,0,1,16.632-8.5a1.938,1.938,0,0,1,1.488.552,2.2,2.2,0,0,1,.516,1.56v4.368a2.2,2.2,0,0,1-.516,1.56A1.938,1.938,0,0,1,16.632.1a1.938,1.938,0,0,1-1.488-.552A2.2,2.2,0,0,1,14.628-2.016Zm7.4-3.852v-.468a1.206,1.206,0,0,0-.174-.75.624.624,0,0,0-.51-.21q-.7,0-.7.828v.684H19.44v-.624a2.216,2.216,0,0,1,.492-1.554A1.877,1.877,0,0,1,21.384-8.5a1.894,1.894,0,0,1,1.464.546,2.227,2.227,0,0,1,.5,1.566v.216a1.66,1.66,0,0,1-.924,1.728,1.719,1.719,0,0,1,.924,1.764v.66a2.227,2.227,0,0,1-.5,1.566A1.894,1.894,0,0,1,21.384.1,1.894,1.894,0,0,1,19.92-.45a2.227,2.227,0,0,1-.5-1.566V-2.94h1.248v1.008q0,.828.684.828a.624.624,0,0,0,.51-.21,1.181,1.181,0,0,0,.174-.738v-.66a1.3,1.3,0,0,0-.2-.822.811.811,0,0,0-.66-.246h-.324v-1.2h.4a.792.792,0,0,0,.594-.2A.964.964,0,0,0,22.032-5.868Zm4.2-2.532a2.02,2.02,0,0,1,1.488.474,2,2,0,0,1,.468,1.458v.3a1.669,1.669,0,0,1-.852,1.692,1.7,1.7,0,0,1,.984,1.8v.684A2.007,2.007,0,0,1,27.81-.51,2.025,2.025,0,0,1,26.316,0H24.24V-8.4Zm-.084,4.62H25.56V-1.2h.756a.661.661,0,0,0,.516-.186A.958.958,0,0,0,27-2.028V-2.76a1.216,1.216,0,0,0-.2-.8A.839.839,0,0,0,26.148-3.78ZM26.2-7.2H25.56v2.22h.516a.792.792,0,0,0,.594-.2.964.964,0,0,0,.2-.684v-.468Q26.868-7.2,26.2-7.2Zm4.86-1.2q1.968,0,1.968,2.076v1.092q0,2.076-1.968,2.076h-.624V0h-1.32V-8.4Zm0,1.2h-.624v2.844h.624a.621.621,0,0,0,.486-.18.912.912,0,0,0,.162-.612v-1.26a.912.912,0,0,0-.162-.612A.621.621,0,0,0,31.056-7.2Zm5.508-1.2L37.908,0H36.576l-.228-1.524h-1.62L34.5,0H33.288l1.344-8.4ZM35.532-6.912,34.9-2.664h1.272Zm2.6-.288V-8.4h4.08v1.2h-1.38V0h-1.32V-7.2ZM45.72-8.4,47.064,0H45.732L45.5-1.524h-1.62L43.656,0H42.444l1.344-8.4ZM44.688-6.912l-.636,4.248h1.272ZM52-3.852,50.892,0H49.536V-8.4h1.176v5.316l.48-1.848L52.272-8.4h1.452V0H52.536V-5.916ZM55.98-3.6V0H54.66V-8.4h1.32v3.6h1.5V-8.4h1.344V0H57.48V-3.6Zm5.8-4.8a2.02,2.02,0,0,1,1.488.474,2,2,0,0,1,.468,1.458v.3a1.669,1.669,0,0,1-.852,1.692,1.7,1.7,0,0,1,.984,1.8v.684a2.007,2.007,0,0,1-.51,1.482A2.025,2.025,0,0,1,61.86,0H59.784V-8.4Zm-.084,4.62H61.1V-1.2h.756a.661.661,0,0,0,.516-.186.958.958,0,0,0,.168-.642V-2.76a1.216,1.216,0,0,0-.2-.8A.839.839,0,0,0,61.692-3.78ZM61.74-7.2H61.1v2.22h.516a.792.792,0,0,0,.594-.2.964.964,0,0,0,.2-.684v-.468Q62.412-7.2,61.74-7.2Zm4.236,0v2.34h1.812v1.2H65.976V-1.2h2.28V0h-3.6V-8.4h3.6v1.2Zm5.676,4.068H72.9v1.116A2.227,2.227,0,0,1,72.4-.45,1.894,1.894,0,0,1,70.932.1,1.894,1.894,0,0,1,69.468-.45a2.227,2.227,0,0,1-.5-1.566V-6.384a2.227,2.227,0,0,1,.5-1.566A1.894,1.894,0,0,1,70.932-8.5,1.894,1.894,0,0,1,72.4-7.95a2.227,2.227,0,0,1,.5,1.566v.816H71.652v-.9q0-.828-.684-.828t-.684.828v4.536q0,.816.684.816t.684-.816ZM73.32-7.2V-8.4H77.4v1.2H76.02V0H74.7V-7.2Zm7.116,3.348L79.332,0H77.976V-8.4h1.176v5.316l.48-1.848L80.712-8.4h1.452V0H80.976V-5.916ZM83.1,0V-8.4h1.32v7.2h1.5V-8.4h1.344v7.224h.576v2.3H86.556V0Zm7.92-3.852L89.916,0H88.56V-8.4h1.176v5.316l.48-1.848L91.3-8.4h1.452V0H91.56V-5.916ZM93.684,0V-8.4H94.86v5.316l.48-1.848L96.42-8.4h1.452V0H96.684V-5.916l-.54,2.064L95.04,0ZM96.4-10.272h.8a1.309,1.309,0,0,1-.36.978A1.428,1.428,0,0,1,95.8-8.94a1.361,1.361,0,0,1-1.014-.348,1.426,1.426,0,0,1-.366-.984h.816a.632.632,0,0,0,.156.438.613.613,0,0,0,.408.114.663.663,0,0,0,.432-.12A.6.6,0,0,0,96.4-10.272Zm5.112,3.864v-.936a1.427,1.427,0,0,0,.972-.264,1.969,1.969,0,0,0,.48-.792h.888V0h-1.32V-6.408Zm5.148-.06v4.536q0,.828.684.828t.684-.828V-6.468q0-.828-.684-.828T106.656-6.468Zm-1.32,4.452V-6.384a2.2,2.2,0,0,1,.516-1.56A1.938,1.938,0,0,1,107.34-8.5a1.938,1.938,0,0,1,1.488.552,2.2,2.2,0,0,1,.516,1.56v4.368a2.2,2.2,0,0,1-.516,1.56A1.938,1.938,0,0,1,107.34.1a1.938,1.938,0,0,1-1.488-.552A2.2,2.2,0,0,1,105.336-2.016Zm6.072-4.452v4.536q0,.828.684.828t.684-.828V-6.468q0-.828-.684-.828T111.408-6.468Zm-1.32,4.452V-6.384a2.2,2.2,0,0,1,.516-1.56,1.938,1.938,0,0,1,1.488-.552,1.938,1.938,0,0,1,1.488.552,2.2,2.2,0,0,1,.516,1.56v4.368a2.2,2.2,0,0,1-.516,1.56A1.938,1.938,0,0,1,112.092.1,1.938,1.938,0,0,1,110.6-.456,2.2,2.2,0,0,1,110.088-2.016ZM116.424-7.2V-8.4h4.08v1.2h-1.38V0H117.8V-7.2Zm6.6,7.2H121.08V-8.4h1.32v3.156h.624q1.968,0,1.968,2.076v1.092Q124.992,0,123.024,0ZM122.4-1.2h.624a.621.621,0,0,0,.486-.18.912.912,0,0,0,.162-.612v-1.26a.912.912,0,0,0-.162-.612.621.621,0,0,0-.486-.18H122.4ZM127.068,0h-1.32V-8.4h1.32Zm3.54-3.132h1.248v1.116a2.227,2.227,0,0,1-.5,1.566A1.894,1.894,0,0,1,129.888.1a1.894,1.894,0,0,1-1.464-.546,2.227,2.227,0,0,1-.5-1.566V-6.384a2.227,2.227,0,0,1,.5-1.566,1.894,1.894,0,0,1,1.464-.546,1.894,1.894,0,0,1,1.464.546,2.227,2.227,0,0,1,.5,1.566v.816h-1.248v-.9q0-.828-.684-.828t-.684.828v4.536q0,.816.684.816t.684-.816Zm2.052,1.86h1.272V0H132.66Zm6.636-4.6v-.468a1.206,1.206,0,0,0-.174-.75.624.624,0,0,0-.51-.21q-.7,0-.7.828v.684H136.7v-.624a2.216,2.216,0,0,1,.492-1.554,1.877,1.877,0,0,1,1.452-.534,1.894,1.894,0,0,1,1.464.546,2.227,2.227,0,0,1,.5,1.566v.216a1.66,1.66,0,0,1-.924,1.728,1.719,1.719,0,0,1,.924,1.764v.66a2.227,2.227,0,0,1-.5,1.566A1.894,1.894,0,0,1,138.648.1a1.894,1.894,0,0,1-1.464-.546,2.227,2.227,0,0,1-.5-1.566V-2.94h1.248v1.008q0,.828.684.828a.624.624,0,0,0,.51-.21,1.181,1.181,0,0,0,.174-.738v-.66a1.3,1.3,0,0,0-.2-.822.811.811,0,0,0-.66-.246h-.324v-1.2h.4a.792.792,0,0,0,.594-.2A.964.964,0,0,0,139.3-5.868ZM143.448-8.4q1.968,0,1.968,2.076v1.092q0,2.076-1.968,2.076h-.624V0H141.5V-8.4Zm0,1.2h-.624v2.844h.624a.621.621,0,0,0,.486-.18.912.912,0,0,0,.162-.612v-1.26a.912.912,0,0,0-.162-.612A.621.621,0,0,0,143.448-7.2Zm5.04,3.348L147.384,0h-1.356V-8.4H147.2v5.316l.48-1.848,1.08-3.468h1.452V0h-1.188V-5.916Zm2.28-3.348V-8.4h4.08v1.2h-1.38V0h-1.32V-7.2Zm5.976,0v2.34h1.812v1.2h-1.812V-1.2h2.28V0h-3.6V-8.4h3.6v1.2ZM159.468.012v-1.2a.981.981,0,0,0,.642-.15,1.073,1.073,0,0,0,.174-.714L160.5-8.4h3.732V0h-1.344V-7.2h-1.152l-.144,5.076a2.56,2.56,0,0,1-.48,1.644,1.855,1.855,0,0,1-1.44.492ZM166.56-7.2v2.34h1.812v1.2H166.56V-1.2h2.28V0h-3.6V-8.4h3.6v1.2Zm3.1,7.2V-8.4h1.176v5.316l.48-1.848,1.08-3.468h1.452V0h-1.188V-5.916l-.54,2.064L171.012,0Zm2.712-10.272h.8a1.309,1.309,0,0,1-.36.978,1.428,1.428,0,0,1-1.044.354,1.361,1.361,0,0,1-1.014-.348,1.425,1.425,0,0,1-.366-.984h.816a.632.632,0,0,0,.156.438.613.613,0,0,0,.408.114.663.663,0,0,0,.432-.12A.6.6,0,0,0,172.368-10.272Z" transform="translate(-0.408 10.272)" fill="#242549"/></g></g><path d="M1.32,2.028V6.564q0,.828.684.828t.684-.828V2.028Q2.688,1.2,2,1.2T1.32,2.028ZM0,6.48V2.112A2.2,2.2,0,0,1,.516.552,1.938,1.938,0,0,1,2,0,1.938,1.938,0,0,1,3.492.552a2.2,2.2,0,0,1,.516,1.56V6.48a2.2,2.2,0,0,1-.516,1.56A1.938,1.938,0,0,1,2,8.592,1.938,1.938,0,0,1,.516,8.04,2.2,2.2,0,0,1,0,6.48Z" transform="translate(16.23 320.42) rotate(-45)" fill="#242549" opacity="0.665"/><path d="M1.32,2.028V6.564q0,.828.684.828t.684-.828V2.028Q2.688,1.2,2,1.2T1.32,2.028ZM0,6.48V2.112A2.2,2.2,0,0,1,.516.552,1.938,1.938,0,0,1,2,0,1.938,1.938,0,0,1,3.492.552a2.2,2.2,0,0,1,.516,1.56V6.48a2.2,2.2,0,0,1-.516,1.56A1.938,1.938,0,0,1,2,8.592,1.938,1.938,0,0,1,.516,8.04,2.2,2.2,0,0,1,0,6.48Zm4.86.744H6.132V8.5H4.86Zm2.172-1.44H8.28v.78q0,.816.684.816t.684-.816V4.716q0-.828-.684-.828t-.684.828v.252H7.032L7.272.1h3.48V1.3H8.46l-.108,2A1.253,1.253,0,0,1,9.5,2.688q1.464,0,1.464,1.92V6.48a2.227,2.227,0,0,1-.5,1.566A1.894,1.894,0,0,1,9,8.592a1.894,1.894,0,0,1-1.464-.546,2.227,2.227,0,0,1-.5-1.566ZM13.32,1.3V.1H17.4V1.3H16.02V8.5H14.7V1.3Zm6.6,7.2H17.976V.1H19.3V3.252h.624q1.968,0,1.968,2.076V6.42Q21.888,8.5,19.92,8.5ZM19.3,7.3h.624a.621.621,0,0,0,.486-.18.912.912,0,0,0,.162-.612V5.244a.912.912,0,0,0-.162-.612.621.621,0,0,0-.486-.18H19.3Zm4.668,1.2h-1.32V.1h1.32ZM27.5,5.364h1.248V6.48a2.227,2.227,0,0,1-.5,1.566,2.236,2.236,0,0,1-2.928,0,2.227,2.227,0,0,1-.5-1.566V2.112a2.227,2.227,0,0,1,.5-1.566,2.236,2.236,0,0,1,2.928,0,2.227,2.227,0,0,1,.5,1.566v.816H27.5v-.9q0-.828-.684-.828t-.684.828V6.564q0,.816.684.816t.684-.816Zm1.932-4.188,1.788.9L30.912.1h1.08l-.312,1.98,1.788-.9L33.8,2.2l-1.968.336,1.4,1.4-.864.636L31.452,2.8l-.924,1.776-.864-.636,1.4-1.4L29.1,2.2Z" transform="translate(51.934 337.566) rotate(-45)" fill="#242549" opacity="0.665"/><path d="M0,1.992V1.056A1.427,1.427,0,0,0,.972.792,1.969,1.969,0,0,0,1.452,0H2.34V8.4H1.02V1.992ZM7.62,0l.972,5.964L9.492,0h1.836V8.4H10.08V2.376L9.168,8.4H7.92L6.936,2.46V8.4H5.784V0Zm4.3,8.412v-1.2a.981.981,0,0,0,.642-.15,1.073,1.073,0,0,0,.174-.714L12.948,0H16.68V8.4H15.336V1.2H14.184L14.04,6.276a2.56,2.56,0,0,1-.48,1.644,1.855,1.855,0,0,1-1.44.492ZM19.008,4.8V8.4h-1.32V0h1.32V3.6h1.5V0h1.344V8.4H20.508V4.8Z" transform="translate(92.304 333.182) rotate(-45)" fill="#242549" opacity="0.665"/><path d="M0,1.992V1.056A1.427,1.427,0,0,0,.972.792,1.969,1.969,0,0,0,1.452,0H2.34V8.4H1.02V1.992ZM3.936,7.128H5.208V8.4H3.936Zm2.172-1.44H7.356v.78q0,.816.684.816t.684-.816V4.62q0-.828-.684-.828t-.684.828v.252H6.108L6.348,0h3.48V1.2H7.536l-.108,2A1.253,1.253,0,0,1,8.58,2.592q1.464,0,1.464,1.92V6.384a2.227,2.227,0,0,1-.5,1.566A1.894,1.894,0,0,1,8.076,8.5,1.894,1.894,0,0,1,6.612,7.95a2.227,2.227,0,0,1-.5-1.566ZM14.6,0l.972,5.964L16.476,0h1.836V8.4H17.064V2.376L16.152,8.4H14.9L13.92,2.46V8.4H12.768V0Zm4.3,8.412v-1.2a.981.981,0,0,0,.642-.15,1.073,1.073,0,0,0,.174-.714L19.932,0h3.732V8.4H22.32V1.2H21.168l-.144,5.076a2.56,2.56,0,0,1-.48,1.644,1.855,1.855,0,0,1-1.44.492ZM25.992,4.8V8.4h-1.32V0h1.32V3.6h1.5V0h1.344V8.4H27.492V4.8Z" transform="translate(123.215 338.12) rotate(-45)" fill="#242549" opacity="0.665"/><path d="M2.616,2.16a1.206,1.206,0,0,0-.174-.75.624.624,0,0,0-.51-.21q-.684,0-.684.828v.9H0V2.112A2.227,2.227,0,0,1,.5.546,1.894,1.894,0,0,1,1.968,0,1.894,1.894,0,0,1,3.432.546a2.227,2.227,0,0,1,.5,1.566A3.641,3.641,0,0,1,3.666,3.5a4.277,4.277,0,0,1-.66,1.128q-.39.468-.774.876a5.942,5.942,0,0,0-.654.822,1.451,1.451,0,0,0-.27.786.994.994,0,0,0,.012.18h2.5V8.5H0V7.464A2.892,2.892,0,0,1,.27,6.21a4.091,4.091,0,0,1,.654-1q.384-.426.768-.84A3.9,3.9,0,0,0,2.346,3.4,2.825,2.825,0,0,0,2.616,2.16ZM8.436.1,9.408,6.06,10.308.1h1.836V8.5H10.9V2.472L9.984,8.5H8.736l-.984-5.94V8.5H6.6V.1Zm4.3,8.412v-1.2a.981.981,0,0,0,.642-.15,1.073,1.073,0,0,0,.174-.714L13.764.1H17.5V8.5H16.152V1.3H15l-.144,5.076a2.56,2.56,0,0,1-.48,1.644,1.855,1.855,0,0,1-1.44.492ZM19.824,4.9V8.5H18.5V.1h1.32V3.7h1.5V.1h1.344V8.5H21.324V4.9Z" transform="translate(163.358 333.691) rotate(-45)" fill="#242549" opacity="0.665"/><path d="M2.616,2.16a1.206,1.206,0,0,0-.174-.75.624.624,0,0,0-.51-.21q-.684,0-.684.828v.9H0V2.112A2.227,2.227,0,0,1,.5.546,1.894,1.894,0,0,1,1.968,0,1.894,1.894,0,0,1,3.432.546a2.227,2.227,0,0,1,.5,1.566A3.641,3.641,0,0,1,3.666,3.5a4.277,4.277,0,0,1-.66,1.128q-.39.468-.774.876a5.942,5.942,0,0,0-.654.822,1.451,1.451,0,0,0-.27.786.994.994,0,0,0,.012.18h2.5V8.5H0V7.464A2.892,2.892,0,0,1,.27,6.21a4.091,4.091,0,0,1,.654-1q.384-.426.768-.84A3.9,3.9,0,0,0,2.346,3.4,2.825,2.825,0,0,0,2.616,2.16ZM4.752,7.224H6.024V8.5H4.752Zm2.172-1.44H8.172v.78q0,.816.684.816t.684-.816V4.716q0-.828-.684-.828t-.684.828v.252H6.924L7.164.1h3.48V1.3H8.352l-.108,2A1.253,1.253,0,0,1,9.4,2.688q1.464,0,1.464,1.92V6.48a2.227,2.227,0,0,1-.5,1.566,1.894,1.894,0,0,1-1.464.546,1.894,1.894,0,0,1-1.464-.546,2.227,2.227,0,0,1-.5-1.566ZM15.42.1l.972,5.964L17.292.1h1.836V8.5H17.88V2.472L16.968,8.5H15.72l-.984-5.94V8.5H13.584V.1Zm4.3,8.412v-1.2a.981.981,0,0,0,.642-.15,1.073,1.073,0,0,0,.174-.714L20.748.1H24.48V8.5H23.136V1.3H21.984L21.84,6.372a2.56,2.56,0,0,1-.48,1.644,1.855,1.855,0,0,1-1.44.492ZM26.808,4.9V8.5h-1.32V.1h1.32V3.7h1.5V.1h1.344V8.5H28.308V4.9Z" transform="translate(194.27 338.629) rotate(-45)" fill="#242549" opacity="0.665"/><path d="M2.616,2.628V2.16a1.206,1.206,0,0,0-.174-.75.624.624,0,0,0-.51-.21q-.684,0-.684.828v.54H0V2.112A2.227,2.227,0,0,1,.5.546,1.894,1.894,0,0,1,1.968,0,1.894,1.894,0,0,1,3.432.546a2.227,2.227,0,0,1,.5,1.566v.216a1.66,1.66,0,0,1-.924,1.728A1.719,1.719,0,0,1,3.936,5.82v.66a2.227,2.227,0,0,1-.5,1.566,1.894,1.894,0,0,1-1.464.546A1.894,1.894,0,0,1,.5,8.046,2.227,2.227,0,0,1,0,6.48v-.7H1.248v.78q0,.828.684.828a.624.624,0,0,0,.51-.21,1.181,1.181,0,0,0,.174-.738v-.66a1.3,1.3,0,0,0-.2-.822.811.811,0,0,0-.66-.246H1.308v-1.2h.516a.792.792,0,0,0,.594-.2A.964.964,0,0,0,2.616,2.628ZM8.508.1,9.48,6.06,10.38.1h1.836V8.5H10.968V2.472L10.056,8.5H8.808l-.984-5.94V8.5H6.672V.1Zm4.3,8.412v-1.2a.981.981,0,0,0,.642-.15,1.073,1.073,0,0,0,.174-.714L13.836.1h3.732V8.5H16.224V1.3H15.072l-.144,5.076a2.56,2.56,0,0,1-.48,1.644,1.855,1.855,0,0,1-1.44.492ZM19.9,4.9V8.5h-1.32V.1H19.9V3.7h1.5V.1H22.74V8.5H21.4V4.9Z" transform="translate(235.008 333.742) rotate(-45)" fill="#242549" opacity="0.665"/><path d="M0,6.876v-1.2L2.4,0H3.84V5.676h.624v1.2H3.84V8.4h-1.3V6.876Zm1.212-1.2H2.544V2.52ZM8.748,0,9.72,5.964,10.62,0h1.836V8.4H11.208V2.376L10.3,8.4H9.048L8.064,2.46V8.4H6.912V0Zm4.3,8.412v-1.2a.981.981,0,0,0,.642-.15,1.073,1.073,0,0,0,.174-.714L14.076,0h3.732V8.4H16.464V1.2H15.312l-.144,5.076a2.56,2.56,0,0,1-.48,1.644,1.855,1.855,0,0,1-1.44.492ZM20.136,4.8V8.4h-1.32V0h1.32V3.6h1.5V0H22.98V8.4H21.636V4.8Z" transform="translate(270.756 333.979) rotate(-45)" fill="#242549" opacity="0.665"/><path d="M0,5.688H1.248v.78q0,.816.684.816t.684-.816V4.62q0-.828-.684-.828t-.684.828v.252H0L.24,0H3.72V1.2H1.428l-.108,2a1.253,1.253,0,0,1,1.152-.612q1.464,0,1.464,1.92V6.384a2.227,2.227,0,0,1-.5,1.566A1.894,1.894,0,0,1,1.968,8.5,1.894,1.894,0,0,1,.5,7.95,2.227,2.227,0,0,1,0,6.384ZM8.5,0l.972,5.964L10.368,0H12.2V8.4H10.956V2.376L10.044,8.4H8.8L7.812,2.46V8.4H6.66V0Zm4.3,8.412v-1.2a.981.981,0,0,0,.642-.15,1.073,1.073,0,0,0,.174-.714L13.824,0h3.732V8.4H16.212V1.2H15.06l-.144,5.076a2.56,2.56,0,0,1-.48,1.644A1.855,1.855,0,0,1,13,8.412ZM19.884,4.8V8.4h-1.32V0h1.32V3.6h1.5V0h1.344V8.4H21.384V4.8Z" transform="translate(306.784 333.801) rotate(-45)" fill="#242549" opacity="0.665"/><path d="M0,6.48v-4.3Q0,0,2.016,0A1.894,1.894,0,0,1,3.48.546a2.227,2.227,0,0,1,.5,1.566v.216H2.736v-.3q0-.828-.684-.828a.66.66,0,0,0-.552.228,1.337,1.337,0,0,0-.18.8V3.768a1.241,1.241,0,0,1,1.224-.744q1.464,0,1.464,1.92V6.48a2.2,2.2,0,0,1-.516,1.56A1.938,1.938,0,0,1,2,8.592,1.938,1.938,0,0,1,.516,8.04,2.2,2.2,0,0,1,0,6.48ZM2.688,5.052q0-.828-.684-.828t-.684.828V6.564q0,.816.684.816t.684-.816ZM8.52.1,9.492,6.06,10.392.1h1.836V8.5H10.98V2.472L10.068,8.5H8.82l-.984-5.94V8.5H6.684V.1Zm4.3,8.412v-1.2a.981.981,0,0,0,.642-.15,1.073,1.073,0,0,0,.174-.714L13.848.1H17.58V8.5H16.236V1.3H15.084L14.94,6.372a2.56,2.56,0,0,1-.48,1.644,1.855,1.855,0,0,1-1.44.492ZM19.908,4.9V8.5h-1.32V.1h1.32V3.7h1.5V.1h1.344V8.5H21.408V4.9Z" transform="translate(342.549 333.75) rotate(-45)" fill="#242549" opacity="0.665"/><path d="M2.616,2.16a3.532,3.532,0,0,1-1.3,2.628A3.635,3.635,0,0,0,0,7.464V8.5H3.816V7.3H1.32a.908.908,0,0,1-.012-.18c0-.444.216-.84,1-1.68A4.611,4.611,0,0,0,3.936,2.112C3.936.768,3.264,0,1.968,0S0,.768,0,2.112v.816H1.248v-.9c0-.6.264-.828.684-.828S2.616,1.4,2.616,2.16ZM4.692,5.784v.7c0,1.344.672,2.112,1.968,2.112S8.628,7.824,8.628,6.48V4.608c0-1.236-.492-1.92-1.464-1.92a1.24,1.24,0,0,0-1.14.612H6l.108-2h2.3V.1H4.932l-.24,4.872H5.94V4.716c0-.6.264-.828.684-.828s.684.228.684.828V6.564c0,.6-.264.816-.684.816s-.684-.216-.684-.816v-.78Zm6.024-3.756c0-.6.264-.828.684-.828s.684.228.684.828V6.564c0,.6-.264.828-.684.828s-.684-.228-.684-.828ZM9.4,6.48a1.864,1.864,0,0,0,2,2.112,1.864,1.864,0,0,0,2-2.112V2.112A1.864,1.864,0,0,0,11.4,0a1.864,1.864,0,0,0-2,2.112Zm5.628-5.16c0-.372.156-.528.432-.528s.432.156.432.528V4.2c0,.372-.168.528-.432.528s-.432-.156-.432-.528Zm-.84,2.82a1.179,1.179,0,0,0,1.272,1.344A1.179,1.179,0,0,0,16.728,4.14V1.38A1.179,1.179,0,0,0,15.456.036,1.179,1.179,0,0,0,14.184,1.38ZM15.456,8.5h.78L19.548.1h-.78Zm3.732-4.1c0-.372.156-.528.432-.528s.432.156.432.528v2.88c0,.372-.168.528-.432.528s-.432-.156-.432-.528Zm-.84,2.82A1.179,1.179,0,0,0,19.62,8.556a1.179,1.179,0,0,0,1.272-1.344V4.452A1.179,1.179,0,0,0,19.62,3.108a1.179,1.179,0,0,0-1.272,1.344Z" transform="translate(5.266 64.708) rotate(-45)" fill="#242549" opacity="0.665"/><path d="M2.616,2.16a3.532,3.532,0,0,1-1.3,2.628A3.635,3.635,0,0,0,0,7.464V8.5H3.816V7.3H1.32a.908.908,0,0,1-.012-.18c0-.444.216-.84,1-1.68A4.611,4.611,0,0,0,3.936,2.112C3.936.768,3.264,0,1.968,0S0,.768,0,2.112v.816H1.248v-.9c0-.6.264-.828.684-.828S2.616,1.4,2.616,2.16Zm3.348-.132c0-.6.264-.828.684-.828s.684.228.684.828V6.564c0,.6-.264.828-.684.828s-.684-.228-.684-.828ZM4.644,6.48a1.864,1.864,0,0,0,2,2.112,1.864,1.864,0,0,0,2-2.112V2.112A1.864,1.864,0,0,0,6.648,0a1.864,1.864,0,0,0-2,2.112Zm6.072-4.452c0-.6.264-.828.684-.828s.684.228.684.828V6.564c0,.6-.264.828-.684.828s-.684-.228-.684-.828ZM9.4,6.48a1.864,1.864,0,0,0,2,2.112,1.864,1.864,0,0,0,2-2.112V2.112A1.864,1.864,0,0,0,11.4,0a1.864,1.864,0,0,0-2,2.112Zm5.628-5.16c0-.372.156-.528.432-.528s.432.156.432.528V4.2c0,.372-.168.528-.432.528s-.432-.156-.432-.528Zm-.84,2.82a1.179,1.179,0,0,0,1.272,1.344A1.179,1.179,0,0,0,16.728,4.14V1.38A1.179,1.179,0,0,0,15.456.036,1.179,1.179,0,0,0,14.184,1.38ZM15.456,8.5h.78L19.548.1h-.78Zm3.732-4.1c0-.372.156-.528.432-.528s.432.156.432.528v2.88c0,.372-.168.528-.432.528s-.432-.156-.432-.528Zm-.84,2.82A1.179,1.179,0,0,0,19.62,8.556a1.179,1.179,0,0,0,1.272-1.344V4.452A1.179,1.179,0,0,0,19.62,3.108a1.179,1.179,0,0,0-1.272,1.344Z" transform="translate(5.266 114.644) rotate(-45)" fill="#242549" opacity="0.665"/><path d="M0,2.088H1.02V8.5H2.34V.1H1.452A1.308,1.308,0,0,1,0,1.152Zm3.876,3.7v.7c0,1.344.672,2.112,1.968,2.112S7.812,7.824,7.812,6.48V4.608c0-1.236-.492-1.92-1.464-1.92a1.24,1.24,0,0,0-1.14.612H5.184l.108-2H7.6V.1H4.116l-.24,4.872H5.124V4.716c0-.6.264-.828.684-.828s.684.228.684.828V6.564c0,.6-.264.816-.684.816s-.684-.216-.684-.816v-.78ZM9.9,2.028c0-.6.264-.828.684-.828s.684.228.684.828V6.564c0,.6-.264.828-.684.828S9.9,7.164,9.9,6.564ZM8.58,6.48a1.864,1.864,0,0,0,2,2.112,1.864,1.864,0,0,0,2-2.112V2.112a1.864,1.864,0,0,0-2-2.112,1.864,1.864,0,0,0-2,2.112Zm5.628-5.16c0-.372.156-.528.432-.528s.432.156.432.528V4.2c0,.372-.168.528-.432.528s-.432-.156-.432-.528Zm-.84,2.82A1.179,1.179,0,0,0,14.64,5.484,1.179,1.179,0,0,0,15.912,4.14V1.38A1.179,1.179,0,0,0,14.64.036,1.179,1.179,0,0,0,13.368,1.38ZM14.64,8.5h.78L18.732.1h-.78Zm3.732-4.1c0-.372.156-.528.432-.528s.432.156.432.528v2.88c0,.372-.168.528-.432.528s-.432-.156-.432-.528Zm-.84,2.82A1.179,1.179,0,0,0,18.8,8.556a1.179,1.179,0,0,0,1.272-1.344V4.452A1.179,1.179,0,0,0,18.8,3.108a1.179,1.179,0,0,0-1.272,1.344Z" transform="translate(5.843 164.002) rotate(-45)" fill="#242549" opacity="0.665"/><path d="M0,2.088H1.02V8.5H2.34V.1H1.452A1.308,1.308,0,0,1,0,1.152Zm5.148-.06c0-.6.264-.828.684-.828s.684.228.684.828V6.564c0,.6-.264.828-.684.828s-.684-.228-.684-.828ZM3.828,6.48a1.864,1.864,0,0,0,2,2.112,1.864,1.864,0,0,0,2-2.112V2.112A1.864,1.864,0,0,0,5.832,0a1.864,1.864,0,0,0-2,2.112ZM9.9,2.028c0-.6.264-.828.684-.828s.684.228.684.828V6.564c0,.6-.264.828-.684.828S9.9,7.164,9.9,6.564ZM8.58,6.48a1.864,1.864,0,0,0,2,2.112,1.864,1.864,0,0,0,2-2.112V2.112a1.864,1.864,0,0,0-2-2.112,1.864,1.864,0,0,0-2,2.112Zm5.628-5.16c0-.372.156-.528.432-.528s.432.156.432.528V4.2c0,.372-.168.528-.432.528s-.432-.156-.432-.528Zm-.84,2.82A1.179,1.179,0,0,0,14.64,5.484,1.179,1.179,0,0,0,15.912,4.14V1.38A1.179,1.179,0,0,0,14.64.036,1.179,1.179,0,0,0,13.368,1.38ZM14.64,8.5h.78L18.732.1h-.78Zm3.732-4.1c0-.372.156-.528.432-.528s.432.156.432.528v2.88c0,.372-.168.528-.432.528s-.432-.156-.432-.528Zm-.84,2.82A1.179,1.179,0,0,0,18.8,8.556a1.179,1.179,0,0,0,1.272-1.344V4.452A1.179,1.179,0,0,0,18.8,3.108a1.179,1.179,0,0,0-1.272,1.344Z" transform="translate(5.843 213.937) rotate(-45)" fill="#242549" opacity="0.665"/><path d="M0,5.784v.7C0,7.824.672,8.592,1.968,8.592S3.936,7.824,3.936,6.48V4.608c0-1.236-.492-1.92-1.464-1.92a1.24,1.24,0,0,0-1.14.612H1.308l.108-2h2.3V.1H.24L0,4.968H1.248V4.716c0-.6.264-.828.684-.828s.684.228.684.828V6.564c0,.6-.264.816-.684.816s-.684-.216-.684-.816v-.78ZM6.024,2.028c0-.6.264-.828.684-.828s.684.228.684.828V6.564c0,.6-.264.828-.684.828s-.684-.228-.684-.828ZM4.7,6.48a1.864,1.864,0,0,0,2,2.112,1.864,1.864,0,0,0,2-2.112V2.112A1.864,1.864,0,0,0,6.708,0a1.864,1.864,0,0,0-2,2.112Zm5.628-5.16c0-.372.156-.528.432-.528s.432.156.432.528V4.2c0,.372-.168.528-.432.528s-.432-.156-.432-.528Zm-.84,2.82a1.179,1.179,0,0,0,1.272,1.344A1.179,1.179,0,0,0,12.036,4.14V1.38A1.179,1.179,0,0,0,10.764.036,1.179,1.179,0,0,0,9.492,1.38ZM10.764,8.5h.78L14.856.1h-.78Zm3.732-4.1c0-.372.156-.528.432-.528s.432.156.432.528v2.88c0,.372-.168.528-.432.528s-.432-.156-.432-.528Zm-.84,2.82a1.179,1.179,0,0,0,1.272,1.344A1.179,1.179,0,0,0,16.2,7.212V4.452a1.179,1.179,0,0,0-1.272-1.344,1.179,1.179,0,0,0-1.272,1.344Z" transform="translate(8.583 261.131) rotate(-45)" fill="#242549" opacity="0.665"/><path d="M2.616,2.628c0,.672-.3.888-.792.888H1.308v1.2h.444c.6,0,.864.288.864,1.068v.66c0,.744-.264.948-.684.948s-.684-.228-.684-.828v-.78H0v.7C0,7.824.672,8.592,1.968,8.592S3.936,7.824,3.936,6.48V5.82a1.7,1.7,0,0,0-.924-1.752V4.044a1.62,1.62,0,0,0,.924-1.716V2.112C3.936.768,3.264,0,1.968,0S0,.768,0,2.112v.456H1.248v-.54c0-.6.264-.828.684-.828s.684.2.684.96Zm3.42-.6c0-.6.264-.828.684-.828s.684.228.684.828V6.564c0,.6-.264.828-.684.828s-.684-.228-.684-.828ZM4.716,6.48a1.864,1.864,0,0,0,2,2.112,1.864,1.864,0,0,0,2-2.112V2.112A1.864,1.864,0,0,0,6.72,0a1.864,1.864,0,0,0-2,2.112Zm6.072-4.452c0-.6.264-.828.684-.828s.684.228.684.828V6.564c0,.6-.264.828-.684.828s-.684-.228-.684-.828ZM9.468,6.48a1.864,1.864,0,0,0,2,2.112,1.864,1.864,0,0,0,2-2.112V2.112a1.864,1.864,0,0,0-2-2.112,1.864,1.864,0,0,0-2,2.112ZM15.1,1.32c0-.372.156-.528.432-.528s.432.156.432.528V4.2c0,.372-.168.528-.432.528S15.1,4.572,15.1,4.2Zm-.84,2.82a1.179,1.179,0,0,0,1.272,1.344A1.179,1.179,0,0,0,16.8,4.14V1.38A1.179,1.179,0,0,0,15.528.036,1.179,1.179,0,0,0,14.256,1.38ZM15.528,8.5h.78L19.62.1h-.78Zm3.732-4.1c0-.372.156-.528.432-.528s.432.156.432.528v2.88c0,.372-.168.528-.432.528s-.432-.156-.432-.528Zm-.84,2.82a1.179,1.179,0,0,0,1.272,1.344,1.179,1.179,0,0,0,1.272-1.344V4.452a1.179,1.179,0,0,0-1.272-1.344A1.179,1.179,0,0,0,18.42,4.452Z" transform="translate(5.215 14.824) rotate(-45)" fill="#242549" opacity="0.665"/><path d="M63.982,439.4l35.85-29.96,35.85-24.968,35.85-24.967,35.85-19.974,35.85-19.974,35.85-39.95,35.85-39.948s38.63-47.581,45.165-55.532" transform="translate(4.149 -149.045)" fill="none" stroke="#1bad1b" stroke-miterlimit="10" stroke-width="4"/><path d="M171.532,459.373l-71.7-49.935-35.85-29.962L28.132,359.5" transform="translate(4.149 -149.045)" fill="none" stroke="#c2b8f3" stroke-miterlimit="10" stroke-width="4"/><circle cx="4" cy="4" r="4" transform="translate(99.982 256.392)" fill="#242549"/><circle cx="4" cy="4" r="4" transform="translate(135.832 231.436)" fill="#242549"/><circle cx="4" cy="4" r="4" transform="translate(135.832 282.353)" fill="#242549"/><circle cx="4" cy="4" r="4" transform="translate(171.682 206.469)" fill="#242549"/><circle cx="4" cy="4" r="4" transform="translate(207.532 186.73)" fill="#242549"/><circle cx="4" cy="4" r="4" transform="translate(243.382 166.508)" fill="#242549"/><circle cx="4" cy="4" r="4" transform="translate(279.232 126.558)" fill="#242549"/><circle cx="4" cy="4" r="4" transform="translate(315.082 86.325)" fill="#242549"/><circle cx="4" cy="4" r="4" transform="translate(350.931 42.402)" fill="#242549"/><circle cx="4" cy="4" r="4" transform="translate(64.132 226.696)" fill="#242549"/><path d="M-126.324-5.742h2.288V-3.7a4.083,4.083,0,0,1-.924,2.871,3.472,3.472,0,0,1-2.684,1,3.472,3.472,0,0,1-2.684-1,4.083,4.083,0,0,1-.924-2.871V-11.7a4.083,4.083,0,0,1,.924-2.871,3.472,3.472,0,0,1,2.684-1,3.472,3.472,0,0,1,2.684,1,4.083,4.083,0,0,1,.924,2.871v1.5h-2.288v-1.65q0-1.518-1.254-1.518t-1.254,1.518v8.316q0,1.5,1.254,1.5t1.254-1.5Zm3.058-7.458v-2.2h7.48v2.2h-2.53V0h-2.42V-13.2Zm13.9-2.2L-106.9,0h-2.442l-.418-2.794h-2.97L-113.146,0h-2.222l2.464-15.4Zm-1.892,2.728-1.166,7.788h2.332Zm9.042-2.728q3.608,0,3.608,3.806v2q0,3.806-3.608,3.806h-1.144V0h-2.42V-15.4Zm0,2.2h-1.144v5.214h1.144a1.138,1.138,0,0,0,.891-.33,1.673,1.673,0,0,0,.3-1.122v-2.31a1.673,1.673,0,0,0-.3-1.122A1.138,1.138,0,0,0-102.212-13.2Zm4.026,0v-2.2h7.48v2.2h-2.53V0h-2.42V-13.2Zm10.758,1.342v8.316q0,1.518,1.254,1.518t1.254-1.518v-8.316q0-1.518-1.254-1.518T-87.428-11.858ZM-89.848-3.7V-11.7a4.03,4.03,0,0,1,.946-2.86,3.553,3.553,0,0,1,2.728-1.012,3.553,3.553,0,0,1,2.728,1.012A4.03,4.03,0,0,1-82.5-11.7V-3.7a4.03,4.03,0,0,1-.946,2.86A3.553,3.553,0,0,1-86.174.176,3.553,3.553,0,0,1-88.9-.836,4.03,4.03,0,0,1-89.848-3.7Zm12.562-11.7a3.7,3.7,0,0,1,2.728.869,3.67,3.67,0,0,1,.858,2.673v.55q0,2.376-1.562,3.1,1.8.7,1.8,3.3v1.254a3.68,3.68,0,0,1-.935,2.717A3.712,3.712,0,0,1-77.132,0h-3.806V-15.4Zm-.154,8.47h-1.078V-2.2h1.386a1.213,1.213,0,0,0,.946-.341,1.757,1.757,0,0,0,.308-1.177V-5.06a2.229,2.229,0,0,0-.363-1.463A1.537,1.537,0,0,0-77.44-6.93Zm.088-6.27h-1.166v4.07h.946A1.453,1.453,0,0,0-76.483-9.5a1.767,1.767,0,0,0,.363-1.254v-.858Q-76.12-13.2-77.352-13.2ZM-68.442,0h-3.564V-15.4h2.42v5.786h1.144q3.608,0,3.608,3.806v2Q-64.834,0-68.442,0Zm-1.144-2.2h1.144a1.138,1.138,0,0,0,.891-.33,1.673,1.673,0,0,0,.3-1.122v-2.31a1.673,1.673,0,0,0-.3-1.122,1.138,1.138,0,0,0-.891-.33h-1.144ZM-61.028,0h-2.42V-15.4h2.42Zm1.76,0V-15.4h2.156v9.746l.88-3.388,1.98-6.358h2.662V0h-2.178V-10.846l-.99,3.784L-56.782,0ZM-54.3-18.832h1.474a2.4,2.4,0,0,1-.66,1.793,2.619,2.619,0,0,1-1.914.649,2.5,2.5,0,0,1-1.859-.638,2.613,2.613,0,0,1-.671-1.8h1.5a1.158,1.158,0,0,0,.286.8,1.125,1.125,0,0,0,.748.209,1.215,1.215,0,0,0,.792-.22A1.106,1.106,0,0,0-54.3-18.832Zm7.172,5.632v-2.2h7.48v2.2h-2.53V0h-2.42V-13.2Zm13.9-2.2L-30.756,0H-33.2l-.418-2.794h-2.97L-37,0h-2.222l2.464-15.4Zm-1.892,2.728-1.166,7.788h2.332ZM-26.07-15.4q3.608,0,3.608,3.806v2q0,3.806-3.608,3.806h-1.144V0h-2.42V-15.4Zm0,2.2h-1.144v5.214h1.144a1.138,1.138,0,0,0,.891-.33,1.673,1.673,0,0,0,.3-1.122v-2.31a1.673,1.673,0,0,0-.3-1.122A1.138,1.138,0,0,0-26.07-13.2Zm9.24,6.138L-18.854,0H-21.34V-15.4h2.156v9.746l.88-3.388,1.98-6.358h2.662V0H-15.84V-10.846ZM-7.634,0V-1.738h-.9q-3.608,0-3.608-3.806v-4.2q0-3.806,3.608-3.806h.9V-15.4h2.376v1.848h.9q3.608,0,3.608,3.806v4.2q0,3.806-3.608,3.806h-.9V0Zm3.278-11.418h-.9V-3.85h.9q1.21,0,1.21-1.54V-9.9Q-3.146-11.418-4.356-11.418ZM-7.634-3.85v-7.568h-.9q-1.21,0-1.21,1.518v4.51q0,1.54,1.21,1.54Z" transform="translate(350.932 218.867)" fill="#a6a4a6"/><path d="M90.059,500.686H31.019l-5.773,10,5.773,10h59.04l5.773-10Z" transform="translate(4.149 -149.045)" fill="#242549"/><path d="M-2.6-1.98H-3.637V0H-5.408V-1.98H-9.052V-3.561l3.383-5.586h2.031V-3.4H-2.6ZM-5.408-3.4V-7.37L-7.712-3.4ZM.5-5.789a.973.973,0,0,0,.714-.3A.973.973,0,0,0,1.5-6.8a.973.973,0,0,0-.3-.714.973.973,0,0,0-.714-.3.973.973,0,0,0-.714.3.973.973,0,0,0-.3.714.973.973,0,0,0,.3.714A.973.973,0,0,0,.5-5.789ZM2.856-6.8a2.28,2.28,0,0,1-.689,1.669A2.272,2.272,0,0,1,.5-4.437a2.275,2.275,0,0,1-1.669-.692A2.275,2.275,0,0,1-1.866-6.8a2.275,2.275,0,0,1,.692-1.669A2.275,2.275,0,0,1,.5-9.16a2.275,2.275,0,0,1,1.669.692A2.275,2.275,0,0,1,2.856-6.8ZM7.674-2.177a.973.973,0,0,0-.3-.714.973.973,0,0,0-.714-.3.973.973,0,0,0-.714.3.973.973,0,0,0-.3.714.973.973,0,0,0,.3.714.973.973,0,0,0,.714.3.973.973,0,0,0,.714-.3A.973.973,0,0,0,7.674-2.177Zm1.352,0A2.275,2.275,0,0,1,8.334-.508,2.275,2.275,0,0,1,6.665.184,2.275,2.275,0,0,1,5-.508,2.275,2.275,0,0,1,4.3-2.177,2.272,2.272,0,0,1,5-3.85a2.28,2.28,0,0,1,1.669-.689,2.275,2.275,0,0,1,1.669.692A2.275,2.275,0,0,1,9.026-2.177ZM5.656-9.2h.965L1.492.241H.508Z" transform="translate(64.689 366.64)" fill="#fff9ea"/><path d="M162.646,500.686H108.605l-5.773,10,5.773,10h54.041l5.773-10Z" transform="translate(4.149 -149.045)" fill="#242549"/><path d="M-7.249-2.463a1.746,1.746,0,0,0,.413.911,1.169,1.169,0,0,0,.889.321A1.2,1.2,0,0,0-4.923-1.7a1.938,1.938,0,0,0,.352-1.19,2.068,2.068,0,0,0-.33-1.19A1.156,1.156,0,0,0-5.929-4.57a1.769,1.769,0,0,0-.571.083,1.136,1.136,0,0,0-.641.565L-8.766-4l.647-5.084h5.072v1.536H-6.811l-.33,2.012A3.782,3.782,0,0,1-6.487-5.9a2.768,2.768,0,0,1,.958-.146,2.879,2.879,0,0,1,1.993.768,2.856,2.856,0,0,1,.851,2.234A3.505,3.505,0,0,1-3.5-.762a2.978,2.978,0,0,1-2.45,1,3.254,3.254,0,0,1-2.158-.7,2.737,2.737,0,0,1-.939-2ZM.5-5.789a.973.973,0,0,0,.714-.3A.973.973,0,0,0,1.5-6.8a.973.973,0,0,0-.3-.714.973.973,0,0,0-.714-.3.973.973,0,0,0-.714.3.973.973,0,0,0-.3.714.973.973,0,0,0,.3.714A.973.973,0,0,0,.5-5.789ZM2.856-6.8a2.28,2.28,0,0,1-.689,1.669A2.272,2.272,0,0,1,.5-4.437a2.275,2.275,0,0,1-1.669-.692A2.275,2.275,0,0,1-1.866-6.8a2.275,2.275,0,0,1,.692-1.669A2.275,2.275,0,0,1,.5-9.16a2.275,2.275,0,0,1,1.669.692A2.275,2.275,0,0,1,2.856-6.8ZM7.674-2.177a.973.973,0,0,0-.3-.714.973.973,0,0,0-.714-.3.973.973,0,0,0-.714.3.973.973,0,0,0-.3.714.973.973,0,0,0,.3.714.973.973,0,0,0,.714.3.973.973,0,0,0,.714-.3A.973.973,0,0,0,7.674-2.177Zm1.352,0A2.275,2.275,0,0,1,8.334-.508,2.275,2.275,0,0,1,6.665.184,2.275,2.275,0,0,1,5-.508,2.275,2.275,0,0,1,4.3-2.177,2.272,2.272,0,0,1,5-3.85a2.28,2.28,0,0,1,1.669-.689,2.275,2.275,0,0,1,1.669.692A2.275,2.275,0,0,1,9.026-2.177ZM5.656-9.2h.965L1.492.241H.508Z" transform="translate(139.816 366.6)" fill="#fff9ea"/><path d="M345.009,500.686H180.3l-5.773,10,5.773,10h164.7l5.773-10Z" transform="translate(4.149 -149.045)" fill="#242549"/><path d="M-2.6-1.98H-3.637V0H-5.408V-1.98H-9.052V-3.561l3.383-5.586h2.031V-3.4H-2.6ZM-5.408-3.4V-7.37L-7.712-3.4ZM.5-5.789a.973.973,0,0,0,.714-.3A.973.973,0,0,0,1.5-6.8a.973.973,0,0,0-.3-.714.973.973,0,0,0-.714-.3.973.973,0,0,0-.714.3.973.973,0,0,0-.3.714.973.973,0,0,0,.3.714A.973.973,0,0,0,.5-5.789ZM2.856-6.8a2.28,2.28,0,0,1-.689,1.669A2.272,2.272,0,0,1,.5-4.437a2.275,2.275,0,0,1-1.669-.692A2.275,2.275,0,0,1-1.866-6.8a2.275,2.275,0,0,1,.692-1.669A2.275,2.275,0,0,1,.5-9.16a2.275,2.275,0,0,1,1.669.692A2.275,2.275,0,0,1,2.856-6.8ZM7.674-2.177a.973.973,0,0,0-.3-.714.973.973,0,0,0-.714-.3.973.973,0,0,0-.714.3.973.973,0,0,0-.3.714.973.973,0,0,0,.3.714.973.973,0,0,0,.714.3.973.973,0,0,0,.714-.3A.973.973,0,0,0,7.674-2.177Zm1.352,0A2.275,2.275,0,0,1,8.334-.508,2.275,2.275,0,0,1,6.665.184,2.275,2.275,0,0,1,5-.508,2.275,2.275,0,0,1,4.3-2.177,2.272,2.272,0,0,1,5-3.85a2.28,2.28,0,0,1,1.669-.689,2.275,2.275,0,0,1,1.669.692A2.275,2.275,0,0,1,9.026-2.177ZM5.656-9.2h.965L1.492.241H.508Z" transform="translate(266.807 366.6)" fill="#fff9ea"/><path d="M28.748,543.728H39.225l2.113,6.543-2.113,6.641H28.748l-1.99-6.361Z" transform="translate(3.242 -135.958)" fill="#242549"/></g><path d="M.36-7.32l1.788.9L1.836-8.4h1.08L2.6-6.42l1.788-.9L4.728-6.3,2.76-5.964l1.4,1.4L3.3-3.924,2.376-5.7,1.452-3.924.588-4.56l1.4-1.4L.024-6.3ZM7.776-5.868v-.468a1.206,1.206,0,0,0-.174-.75.624.624,0,0,0-.51-.21q-.7,0-.7.828v.684H5.184v-.624a2.216,2.216,0,0,1,.492-1.554A1.877,1.877,0,0,1,7.128-8.5a1.894,1.894,0,0,1,1.464.546,2.227,2.227,0,0,1,.5,1.566v.216A1.66,1.66,0,0,1,8.172-4.44,1.719,1.719,0,0,1,9.1-2.676v.66a2.227,2.227,0,0,1-.5,1.566A1.894,1.894,0,0,1,7.128.1,1.894,1.894,0,0,1,5.664-.45a2.227,2.227,0,0,1-.5-1.566V-2.94H6.408v1.008q0,.828.684.828a.624.624,0,0,0,.51-.21,1.181,1.181,0,0,0,.174-.738v-.66a1.3,1.3,0,0,0-.2-.822.811.811,0,0,0-.66-.246H6.588v-1.2h.4a.792.792,0,0,0,.594-.2A.964.964,0,0,0,7.776-5.868ZM11.928-8.4Q13.9-8.4,13.9-6.324v1.092q0,2.076-1.968,2.076H11.3V0H9.984V-8.4Zm0,1.2H11.3v2.844h.624a.621.621,0,0,0,.486-.18.912.912,0,0,0,.162-.612v-1.26a.912.912,0,0,0-.162-.612A.621.621,0,0,0,11.928-7.2Zm5.04,3.348L15.864,0H14.508V-8.4h1.176v5.316l.48-1.848L17.244-8.4H18.7V0H17.508V-5.916ZM19.248-7.2V-8.4h4.08v1.2h-1.38V0h-1.32V-7.2Zm5.976,0v2.34h1.812v1.2H25.224V-1.2H27.5V0H23.9V-8.4h3.6v1.2ZM27.948.012v-1.2a.981.981,0,0,0,.642-.15,1.073,1.073,0,0,0,.174-.714L28.98-8.4h3.732V0H31.368V-7.2H30.216l-.144,5.076a2.56,2.56,0,0,1-.48,1.644,1.855,1.855,0,0,1-1.44.492ZM36.18-3.852,35.076,0H33.72V-8.4H34.9v5.316l.48-1.848L36.456-8.4h1.452V0H36.72V-5.916ZM42.7-8.4a2.02,2.02,0,0,1,1.488.474,2,2,0,0,1,.468,1.458v.3A1.669,1.669,0,0,1,43.8-4.476a1.7,1.7,0,0,1,.984,1.8v.684a2.007,2.007,0,0,1-.51,1.482A2.025,2.025,0,0,1,42.78,0H40.7V-8.4Zm-.084,4.62h-.588V-1.2h.756a.661.661,0,0,0,.516-.186.958.958,0,0,0,.168-.642V-2.76a1.216,1.216,0,0,0-.2-.8A.839.839,0,0,0,42.612-3.78ZM42.66-7.2h-.636v2.22h.516a.792.792,0,0,0,.594-.2.964.964,0,0,0,.2-.684v-.468Q43.332-7.2,42.66-7.2ZM50.448,0,49.164-3.348l-.408.768V0h-1.32V-8.4h1.32v3.66L50.484-8.4H51.8L49.968-4.656,51.8,0Zm4.416-3.852L53.76,0H52.4V-8.4H53.58v5.316l.48-1.848L55.14-8.4h1.452V0H55.4V-5.916Zm3.984.252V0h-1.32V-8.4h1.32v3.6h1.5V-8.4h1.344V0H60.348V-3.6Zm5.016-2.868v4.536q0,.828.684.828t.684-.828V-6.468q0-.828-.684-.828T63.864-6.468Zm-1.32,4.452V-6.384a2.2,2.2,0,0,1,.516-1.56A1.938,1.938,0,0,1,64.548-8.5a1.938,1.938,0,0,1,1.488.552,2.2,2.2,0,0,1,.516,1.56v4.368a2.2,2.2,0,0,1-.516,1.56A1.938,1.938,0,0,1,64.548.1,1.938,1.938,0,0,1,63.06-.456,2.2,2.2,0,0,1,62.544-2.016ZM67.02-7.2V-8.4H71.1v1.2H69.72V0H68.4V-7.2ZM73-7.2v2.34h1.812v1.2H73V-1.2h2.28V0h-3.6V-8.4h3.6v1.2ZM79.02-8.4,80.364,0H79.032L78.8-1.524h-1.62L76.956,0H75.744l1.344-8.4ZM77.988-6.912l-.636,4.248h1.272Zm2.6-.288V-8.4h4.08v1.2h-1.38V0h-1.32V-7.2Zm6.6-1.2q1.968,0,1.968,2.076v1.092q0,2.076-1.968,2.076h-.624V0h-1.32V-8.4Zm0,1.2h-.624v2.844h.624a.621.621,0,0,0,.486-.18.912.912,0,0,0,.162-.612v-1.26a.912.912,0,0,0-.162-.612A.621.621,0,0,0,87.192-7.2Zm3.9,0v2.34H92.9v1.2H91.092V-1.2h2.28V0h-3.6V-8.4h3.6v1.2Z" transform="translate(30.697 637.449)" fill="#242549" opacity="0.5"/></g></svg>