<svg xmlns="http://www.w3.org/2000/svg" width="728" height="374" viewBox="0 0 728 374"><g transform="translate(-120 -293)"><rect width="728" height="374" rx="8" transform="translate(120 293)" fill="#fff9ea"/><g transform="translate(120 268.011)"><path d="M8,0H181.935a0,0,0,0,1,0,0V284.921a0,0,0,0,1,0,0H0a0,0,0,0,1,0,0V8A8,8,0,0,1,8,0Z" transform="translate(0 25)" fill="#e3ded5" opacity="0.5"/><path d="M0,0H405.853a8,8,0,0,1,8,8V284.921a0,0,0,0,1,0,0H0a0,0,0,0,1,0,0V0A0,0,0,0,1,0,0Z" transform="translate(313.889 25)" fill="#ffbe28" opacity="0.102"/><path d="M107.905,0h14.154l2.851,8.842-2.851,8.975H107.905l-2.69-8.6Z" transform="translate(288.768 367.172)" fill="#242549"/><text transform="translate(116.545 377.21)" fill="#fff9ea" font-size="15" font-family="BebasNeueBold, Bebas Neue"><tspan x="0" y="0">4%</tspan></text><text transform="translate(483.222 377.21)" fill="#fff9ea" font-size="15" font-family="BebasNeueBold, Bebas Neue"><tspan x="0" y="0">4%</tspan></text><path d="M3.691-14.336H.8V-1.845H2.763V-6.538h.928c1.963,0,2.926-1.089,2.926-3.087v-1.624C6.617-13.248,5.653-14.336,3.691-14.336Zm0,1.784c.625,0,.964.286.964,1.178V-9.5c0,.892-.339,1.178-.964,1.178H2.763v-4.229Zm5.8,0h3.39v-1.784H7.527V-1.845H12.88V-3.63H9.49V-7.288h2.694V-9.072H9.49ZM18.572-1.845h2.016l-2.73-6.924,2.73-5.567H18.625L16.056-8.894v-5.443H14.093V-1.845h1.963V-5.682l.607-1.142Zm2.355.018h.3c1.963,0,2.784-.892,2.855-3.176l.214-7.548h1.713V-1.845h2V-14.336H22.462L22.14-4.9c-.036,1.16-.321,1.285-1.213,1.285ZM33.863-14.336H30.991l-2,12.491h1.8l.339-2.266h2.409l.339,2.266h1.981Zm-1.535,2.213.946,6.317H31.383Zm7.155-2.213h-2.73V-1.845h1.713v-8.833L39.93-1.845h1.856L43.142-10.8v8.958H45V-14.336h-2.73L40.929-5.468Zm8.9,7.138h2.23v5.353h2V-14.336h-2v5.353h-2.23v-5.353H46.425V-1.845h1.963Zm8.547,5.353c1.963,0,2.926-1.089,2.926-3.087V-6.556c0-2-.964-3.087-2.926-3.087h-.928v-4.693H54.044V-1.845ZM56.007-3.63V-7.859h.928c.625,0,.964.286.964,1.178v1.874c0,.892-.339,1.178-.964,1.178Zm6.941,1.784V-14.336H60.985V-1.845Zm3.444,0H64.375V-14.336h1.749v7.905l.714-2.748,1.606-5.157H70.6V-1.845H68.836v-8.8l-.8,3.069ZM69.6-17.12a1.844,1.844,0,0,1-2.088,1.981,1.841,1.841,0,0,1-2.052-1.981h1.213c.054.66.321.821.839.821.535,0,.839-.161.892-.821ZM77.918-1.845c1.963,0,2.962-1.089,2.962-3.087V-6.271c0-2-1-3.087-2.962-3.087H76.776v-3.194h3.533v-1.784h-5.5V-1.845ZM76.776-3.63V-7.573h1.142c.625,0,1,.286,1,1.178v1.588c0,.892-.375,1.178-1,1.178Zm8.85-1.213c0,2,1.053,3.141,2.98,3.141s2.98-1.142,2.98-3.141v-6.5c0-2-1.053-3.141-2.98-3.141s-2.98,1.142-2.98,3.141v2.355H84.163v-5.353H82.2V-1.845h1.963V-7.2h1.463Zm1.963-6.62c0-.892.393-1.231,1.017-1.231s1.017.339,1.017,1.231v6.745c0,.892-.393,1.231-1.017,1.231s-1.017-.339-1.017-1.231Zm12.918,11.3V-3.594h-.856V-14.336h-5.5l-.446,9.119a2.587,2.587,0,0,1-.482,1.624H92.46V-.168h1.909V-1.845h4.193V-.168ZM95.993-12.552h1.659v8.958H95.083a2.213,2.213,0,0,0,.553-1.66Zm11.259-1.784h-1.945v5.05l-2.32-5.05h-1.963l2.427,5.121-2.427,7.37h2.016l1.784-5.55.482.964v4.586h1.945V-6.431l.482-.946,1.784,5.532h2.016l-2.409-7.423,2.409-5.068h-1.963l-2.32,5.05Zm7.084,1.784h3.39v-1.784h-5.353V-1.845h5.353V-3.63h-3.39V-7.288h2.694V-9.072h-2.694Zm4.033,0h2.052V-1.845h1.963V-12.552h2.052v-1.784h-6.067Z" transform="translate(95.553 384.724)" fill="#242549"/><path d="M3.762-14.336H.8V-1.845H3.887a2.655,2.655,0,0,0,2.98-2.962V-5.824c0-1.32-.41-2.266-1.463-2.677A2.453,2.453,0,0,0,6.67-11.017v-.446C6.67-13.39,5.8-14.336,3.762-14.336Zm-.125,6.87c.892,0,1.267.357,1.267,1.517v1.089c0,.928-.357,1.231-1.017,1.231H2.763V-7.466Zm.071-5.086c.7,0,1,.393,1,1.285v.7c0,1-.446,1.32-1.178,1.32H2.763v-3.3Zm6.138,1.089c0-.892.393-1.231,1.017-1.231s1.017.339,1.017,1.231v6.745c0,.892-.393,1.231-1.017,1.231S9.846-3.826,9.846-4.718ZM7.884-4.843c0,2,1.053,3.141,2.98,3.141s2.98-1.142,2.98-3.141v-6.5c0-2-1.053-3.141-2.98-3.141s-2.98,1.142-2.98,3.141Zm11.009-5.728c0,1-.446,1.32-1.178,1.32h-.589v1.784h.482c.892,0,1.285.428,1.285,1.588V-4.9c0,1.106-.393,1.41-1.017,1.41s-1.017-.339-1.017-1.231v-1.5H15v1.374c0,2,1,3.141,2.926,3.141s2.926-1.142,2.926-3.141v-.981a2.548,2.548,0,0,0-1.374-2.623,2.434,2.434,0,0,0,1.374-2.57v-.321c0-2-1-3.141-2.926-3.141s-2.891,1.106-2.891,3.1v.928h1.8v-1.017c0-.892.41-1.231,1.035-1.231s1.017.3,1.017,1.428Zm6.245-3.765H22.176V-1.845h3.087a2.655,2.655,0,0,0,2.98-2.962V-5.824c0-1.32-.41-2.266-1.463-2.677a2.453,2.453,0,0,0,1.267-2.516v-.446C28.046-13.39,27.172-14.336,25.138-14.336Zm-.125,6.87c.892,0,1.267.357,1.267,1.517v1.089c0,.928-.357,1.231-1.017,1.231H24.139V-7.466Zm.071-5.086c.7,0,1,.393,1,1.285v.7c0,1-.446,1.32-1.178,1.32h-.767v-3.3Zm7.226-1.784H29.42V-1.845h1.963V-6.538h.928c1.963,0,2.926-1.089,2.926-3.087v-1.624C35.237-13.248,34.274-14.336,32.311-14.336Zm0,1.784c.625,0,.964.286.964,1.178V-9.5c0,.892-.339,1.178-.964,1.178h-.928v-4.229Zm8.19-1.784H37.628l-2,12.491h1.8l.339-2.266H40.18l.339,2.266H42.5Zm-1.535,2.213.946,6.317H38.021Zm3.872-.428H44.89V-1.845h1.963V-12.552h2.052v-1.784H42.838ZM56.185-7.573l.8-3.069v8.8h1.766V-14.336H56.6L54.99-9.179l-.714,2.748v-7.905H52.527V-1.845h2.016Zm5.924.375h2.23v5.353h2V-14.336h-2v5.353h-2.23v-5.353H60.146V-1.845h1.963Zm8.618-7.138H67.765V-1.845h3.087a2.655,2.655,0,0,0,2.98-2.962V-5.824c0-1.32-.41-2.266-1.463-2.677a2.453,2.453,0,0,0,1.267-2.516v-.446C73.636-13.39,72.761-14.336,70.727-14.336ZM70.6-7.466c.892,0,1.267.357,1.267,1.517v1.089c0,.928-.357,1.231-1.017,1.231H69.728V-7.466Zm.071-5.086c.7,0,1,.393,1,1.285v.7c0,1-.446,1.32-1.178,1.32h-.767v-3.3Zm6.3,0h3.39v-1.784H75.01V-1.845h5.353V-3.63h-3.39V-7.288h2.694V-9.072H76.972ZM85.412-6.5v1.784c0,.892-.393,1.213-1.017,1.213s-1.017-.321-1.017-1.213v-6.745c0-.892.393-1.231,1.017-1.231s1.017.339,1.017,1.231v1.338h1.856v-1.213c0-2-1-3.141-2.926-3.141s-2.926,1.142-2.926,3.141v6.5c0,2,1,3.141,2.926,3.141s2.926-1.142,2.926-3.141V-6.5Zm2.48-6.049h2.052V-1.845h1.963V-12.552h2.052v-1.784H87.892ZM98.473-7.573l.8-3.069v8.8h1.766V-14.336H98.884L97.278-9.179l-.714,2.748v-7.905H94.815V-1.845h2.016Zm3.586,5.728H107.2V-.168h1.909V-3.594h-.856V-14.336h-2V-3.63h-2.23V-14.336H102.06V-1.845Zm11.776-5.728.8-3.069v8.8h1.766V-14.336h-2.159l-1.606,5.157-.714,2.748v-7.905h-1.749V-1.845h2.016Zm5.977,5.728H117.8V-14.336h1.749v7.905l.714-2.748,1.606-5.157h2.159V-1.845h-1.766v-8.8l-.8,3.069Zm3.212-15.275a1.844,1.844,0,0,1-2.088,1.981,1.841,1.841,0,0,1-2.052-1.981H120.1c.054.66.321.821.839.821.535,0,.839-.161.892-.821Z" transform="translate(253.465 384.724)" fill="#242549"/><rect width="13.995" height="13.995" rx="3" transform="translate(77.972 368.905)" fill="#c2b7f5"/><rect width="13.995" height="14.996" rx="3" transform="translate(235.916 368.905)" fill="#1bad1b"/><path d="M1.929-12.516c0-.553.232-.785.642-.785.393,0,.642.232.642.785v4.283c0,.553-.25.785-.642.785-.41,0-.642-.232-.642-.785ZM.68-8.323a1.753,1.753,0,0,0,1.891,2,1.753,1.753,0,0,0,1.891-2v-4.1a1.753,1.753,0,0,0-1.891-2,1.753,1.753,0,0,0-1.891,2ZM2.571-1.845h1.16L8.656-14.336H7.5Zm5.549-6.1c0-.553.232-.785.642-.785.393,0,.642.232.642.785v4.283c0,.553-.25.785-.642.785-.41,0-.642-.232-.642-.785ZM6.872-3.754a1.753,1.753,0,0,0,1.891,2,1.753,1.753,0,0,0,1.891-2v-4.1a1.753,1.753,0,0,0-1.891-2,1.753,1.753,0,0,0-1.891,2ZM17.7-14.336H14.74V-1.845h3.087a2.655,2.655,0,0,0,2.98-2.962V-5.824c0-1.32-.41-2.266-1.463-2.677a2.453,2.453,0,0,0,1.267-2.516v-.446C20.611-13.39,19.736-14.336,17.7-14.336Zm-.125,6.87c.892,0,1.267.357,1.267,1.517v1.089c0,.928-.357,1.231-1.017,1.231H16.7V-7.466Zm.071-5.086c.7,0,1,.393,1,1.285v.7c0,1-.446,1.32-1.178,1.32H16.7v-3.3Zm6.138,1.089c0-.892.393-1.231,1.017-1.231s1.017.339,1.017,1.231v6.745c0,.892-.393,1.231-1.017,1.231s-1.017-.339-1.017-1.231Zm-1.963,6.62c0,2,1.053,3.141,2.98,3.141s2.98-1.142,2.98-3.141v-6.5c0-2-1.053-3.141-2.98-3.141s-2.98,1.142-2.98,3.141Zm11.009-5.728c0,1-.446,1.32-1.178,1.32h-.589v1.784h.482c.892,0,1.285.428,1.285,1.588V-4.9c0,1.106-.393,1.41-1.017,1.41S30.8-3.826,30.8-4.718v-1.5H28.944v1.374c0,2,1,3.141,2.926,3.141S34.8-2.844,34.8-4.843v-.981a2.548,2.548,0,0,0-1.374-2.623,2.434,2.434,0,0,0,1.374-2.57v-.321c0-2-1-3.141-2.926-3.141s-2.891,1.106-2.891,3.1v.928h1.8v-1.017c0-.892.41-1.231,1.035-1.231s1.017.3,1.017,1.428Zm6.245-3.765H36.116V-1.845H39.2a2.655,2.655,0,0,0,2.98-2.962V-5.824c0-1.32-.41-2.266-1.463-2.677a2.453,2.453,0,0,0,1.267-2.516v-.446C41.987-13.39,41.113-14.336,39.078-14.336Zm-.125,6.87c.892,0,1.267.357,1.267,1.517v1.089c0,.928-.357,1.231-1.017,1.231H38.079V-7.466Zm.071-5.086c.7,0,1,.393,1,1.285v.7c0,1-.446,1.32-1.178,1.32h-.767v-3.3Zm7.226-1.784H43.361V-1.845h1.963V-6.538h.928c1.963,0,2.926-1.089,2.926-3.087v-1.624C49.178-13.248,48.214-14.336,46.251-14.336Zm0,1.784c.625,0,.964.286.964,1.178V-9.5c0,.892-.339,1.178-.964,1.178h-.928v-4.229Zm8.19-1.784H51.569l-2,12.491h1.8l.339-2.266H54.12l.339,2.266H56.44Zm-1.535,2.213.946,6.317H51.961Zm3.872-.428h2.052V-1.845h1.963V-12.552h2.052v-1.784H56.779Zm11.277-1.784H65.183l-2,12.491h1.8l.339-2.266h2.409l.339,2.266h1.981Zm-1.535,2.213.946,6.317H65.575Zm10.866,4.55.8-3.069v8.8h1.766V-14.336H77.8L76.192-9.179l-.714,2.748v-7.905H73.73V-1.845h2.016Zm5.924.375h2.23v5.353h2V-14.336h-2v5.353h-2.23v-5.353H81.349V-1.845h1.963Zm8.618-7.138H88.968V-1.845h3.087a2.655,2.655,0,0,0,2.98-2.962V-5.824c0-1.32-.41-2.266-1.463-2.677a2.453,2.453,0,0,0,1.267-2.516v-.446C94.838-13.39,93.964-14.336,91.93-14.336ZM91.8-7.466c.892,0,1.267.357,1.267,1.517v1.089c0,.928-.357,1.231-1.017,1.231H90.931V-7.466Zm.071-5.086c.7,0,1,.393,1,1.285v.7c0,1-.446,1.32-1.178,1.32h-.767v-3.3Zm6.3,0h3.39v-1.784H96.212V-1.845h5.353V-3.63h-3.39V-7.288h2.694V-9.072H98.175Zm8.44,6.049v1.784c0,.892-.393,1.213-1.017,1.213s-1.017-.321-1.017-1.213v-6.745c0-.892.393-1.231,1.017-1.231s1.017.339,1.017,1.231v1.338h1.856v-1.213c0-2-1-3.141-2.926-3.141s-2.926,1.142-2.926,3.141v6.5c0,2,1,3.141,2.926,3.141s2.926-1.142,2.926-3.141V-6.5Zm2.48-6.049h2.052V-1.845h1.963V-12.552h2.052v-1.784h-6.067Zm10.581,4.979.8-3.069v8.8h1.766V-14.336h-2.159L118.48-9.179l-.714,2.748v-7.905h-1.749V-1.845h2.016Zm3.961,5.728h5.139V-.168h1.909V-3.594h-.856V-14.336h-2V-3.63H125.6V-14.336h-1.963Zm11.776-5.728.8-3.069v8.8h1.766V-14.336h-2.159l-1.606,5.157L133.5-6.431v-7.905h-1.749V-1.845h2.016Zm5.977,5.728h-2.016V-14.336h1.749v7.905l.714-2.748,1.606-5.157H145.6V-1.845h-1.766v-8.8l-.8,3.069ZM144.6-17.12a1.844,1.844,0,0,1-2.088,1.981,1.841,1.841,0,0,1-2.052-1.981h1.213c.054.66.321.821.839.821.535,0,.839-.161.892-.821ZM151.758-7.2h2.23v5.353h2V-14.336h-2v5.353h-2.23v-5.353H149.8V-1.845h1.963Zm10.01-7.138H158.9l-2,12.491h1.8l.339-2.266h2.409l.339,2.266h1.981Zm-1.535,2.213.946,6.317h-1.891Zm5.656.749h1.517v9.529h1.963V-14.336h-1.32a1.944,1.944,0,0,1-2.159,1.57Zm7.655-.089c0-.892.393-1.231,1.017-1.231s1.017.339,1.017,1.231v6.745c0,.892-.393,1.231-1.017,1.231s-1.017-.339-1.017-1.231Zm-1.963,6.62c0,2,1.053,3.141,2.98,3.141s2.98-1.142,2.98-3.141v-6.5c0-2-1.053-3.141-2.98-3.141s-2.98,1.142-2.98,3.141Zm9.029-6.62c0-.892.393-1.231,1.017-1.231s1.017.339,1.017,1.231v6.745c0,.892-.393,1.231-1.017,1.231s-1.017-.339-1.017-1.231Zm-1.963,6.62c0,2,1.053,3.141,2.98,3.141s2.98-1.142,2.98-3.141v-6.5c0-2-1.053-3.141-2.98-3.141s-2.98,1.142-2.98,3.141Zm9.421-7.709h2.052V-1.845h1.963V-12.552h2.052v-1.784h-6.067Zm9.814,10.707c1.963,0,2.926-1.089,2.926-3.087V-6.556c0-2-.964-3.087-2.926-3.087h-.928v-4.693h-1.963V-1.845Zm-.928-1.784V-7.859h.928c.625,0,.964.286.964,1.178v1.874c0,.892-.339,1.178-.964,1.178ZM203.9-1.845V-14.336h-1.963V-1.845ZM209.159-6.5v1.784c0,.892-.393,1.213-1.017,1.213s-1.017-.321-1.017-1.213v-6.745c0-.892.393-1.231,1.017-1.231s1.017.339,1.017,1.231v1.338h1.856v-1.213c0-2-1-3.141-2.926-3.141s-2.926,1.142-2.926,3.141v6.5c0,2,1,3.141,2.926,3.141s2.926-1.142,2.926-3.141V-6.5Zm3.051,2.766v1.892H214.1V-3.737Zm9.867-6.834c0,1-.446,1.32-1.178,1.32h-.589v1.784h.482c.892,0,1.285.428,1.285,1.588V-4.9c0,1.106-.393,1.41-1.017,1.41s-1.017-.339-1.017-1.231v-1.5h-1.856v1.374c0,2,1,3.141,2.926,3.141s2.926-1.142,2.926-3.141v-.981a2.548,2.548,0,0,0-1.374-2.623,2.434,2.434,0,0,0,1.374-2.57v-.321c0-2-1-3.141-2.926-3.141s-2.891,1.106-2.891,3.1v.928h1.8v-1.017c0-.892.41-1.231,1.035-1.231s1.017.3,1.017,1.428Zm6.174-3.765h-2.891V-1.845h1.963V-6.538h.928c1.963,0,2.926-1.089,2.926-3.087v-1.624C231.178-13.248,230.214-14.336,228.251-14.336Zm0,1.784c.625,0,.964.286.964,1.178V-9.5c0,.892-.339,1.178-.964,1.178h-.928v-4.229Zm7.494,4.979.8-3.069v8.8h1.766V-14.336h-2.159L234.55-9.179l-.714,2.748v-7.905h-1.749V-1.845H234.1Zm3.39-4.979h2.052V-1.845h1.963V-12.552H245.2v-1.784h-6.067Zm8.886,0h3.39v-1.784h-5.353V-1.845h5.353V-3.63h-3.39V-7.288h2.694V-9.072h-2.694Zm4.05,10.725h.3c1.963,0,2.784-.892,2.855-3.176l.214-7.548h1.713V-1.845h2V-14.336h-5.549l-.321,9.44c-.036,1.16-.321,1.285-1.213,1.285Zm10.545-10.725h3.39v-1.784h-5.353V-1.845h5.353V-3.63h-3.39V-7.288h2.694V-9.072h-2.694Zm6.62,10.707h-2.016V-14.336h1.749v7.905l.714-2.748,1.606-5.157h2.159V-1.845h-1.767v-8.8l-.8,3.069Zm3.212-15.275a1.844,1.844,0,0,1-2.088,1.981,1.841,1.841,0,0,1-2.052-1.981h1.213c.054.66.321.821.839.821.535,0,.839-.161.892-.821Z" transform="translate(419.526 384.724)" fill="#242549"/><g transform="translate(0 24.989)"><line y2="285.512" transform="translate(114.174 0)" fill="none" stroke="#e3ded5" stroke-linejoin="bevel" stroke-width="2"/><line y2="285.066" transform="translate(181.085 0)" fill="none" stroke="#e3ded5" stroke-linejoin="bevel" stroke-width="2"/><line y2="285.512" transform="translate(247.997 0)" fill="none" stroke="#e3ded5" stroke-linejoin="bevel" stroke-width="2"/><path d="M0,.5V285.556" transform="translate(314.039 -0.489)" fill="none" stroke="#e3ded5" stroke-width="2"/><line y2="285.512" transform="translate(381.821 0)" fill="none" stroke="#e3ded5" stroke-linejoin="bevel" stroke-width="2"/><line y2="285.512" transform="translate(450.517 0)" fill="none" stroke="#e3ded5" stroke-linejoin="bevel" stroke-width="2"/><path d="M0,30V315.512" transform="translate(446.502 -30)" fill="none" stroke="#e3ded5" stroke-width="2"/><line y2="285.512" transform="translate(515.644 0)" fill="none" stroke="#e3ded5" stroke-linejoin="bevel" stroke-width="2"/><line y2="285.512" transform="translate(582.556 0)" fill="none" stroke="#e3ded5" stroke-linejoin="bevel" stroke-width="2"/><line y2="285.512" transform="translate(649.468 0)" fill="none" stroke="#e3ded5" stroke-linejoin="bevel" stroke-width="2"/><path d="M728,.07H0" transform="translate(0 197.112)" fill="none" stroke="#e3ded5" stroke-width="22"/><path d="M589.018,0H45" transform="translate(2.284 197.182)" fill="none" stroke="#292b45" stroke-width="2" opacity="0.325"/><g transform="translate(11.877 233.098)" style="isolation:isolate"><path d="M.7-5.559v1.035c0,2,1,3.141,2.926,3.141S6.553-2.525,6.553-4.524V-7.308c0-1.838-.732-2.855-2.177-2.855a1.872,1.872,0,0,0-1.713.91l.161-2.98H6.231v-1.784H1.057L.7-6.772H2.556v-.375c0-.892.393-1.231,1.017-1.231S4.59-8.039,4.59-7.147V-4.4c0,.892-.393,1.213-1.017,1.213S2.556-3.507,2.556-4.4v-1.16Zm8.957-5.585c0-.892.393-1.231,1.017-1.231s1.017.339,1.017,1.231V-4.4c0,.892-.393,1.231-1.017,1.231S9.657-3.507,9.657-4.4ZM7.695-4.524c0,2,1.053,3.141,2.98,3.141s2.98-1.142,2.98-3.141v-6.5c0-2-1.053-3.141-2.98-3.141s-2.98,1.142-2.98,3.141ZM16.063-12.2c0-.553.232-.785.642-.785.393,0,.642.232.642.785v4.283c0,.553-.25.785-.642.785-.41,0-.642-.232-.642-.785ZM14.814-8a1.753,1.753,0,0,0,1.891,2A1.753,1.753,0,0,0,18.6-8v-4.1a1.753,1.753,0,0,0-1.891-2,1.753,1.753,0,0,0-1.891,2Zm1.891,6.478h1.16L22.79-14.017H21.63Zm5.549-6.1c0-.553.232-.785.642-.785.393,0,.642.232.642.785v4.283c0,.553-.25.785-.642.785-.41,0-.642-.232-.642-.785ZM21.005-3.435a1.753,1.753,0,0,0,1.891,2,1.753,1.753,0,0,0,1.891-2v-4.1a1.753,1.753,0,0,0-1.891-2,1.753,1.753,0,0,0-1.891,2Z" transform="translate(-0.7 14.16)" fill="#242549"/></g><g transform="translate(11.295 190.794)" style="isolation:isolate"><path d="M2.16-11.055H3.677v9.529H5.639V-14.017H4.319a1.944,1.944,0,0,1-2.159,1.57Zm7.655-.089c0-.892.393-1.231,1.017-1.231s1.017.339,1.017,1.231V-4.4c0,.892-.393,1.231-1.017,1.231S9.815-3.507,9.815-4.4ZM7.852-4.524c0,2,1.053,3.141,2.98,3.141s2.98-1.142,2.98-3.141v-6.5c0-2-1.053-3.141-2.98-3.141s-2.98,1.142-2.98,3.141Zm9.029-6.62c0-.892.393-1.231,1.017-1.231s1.017.339,1.017,1.231V-4.4c0,.892-.393,1.231-1.017,1.231S16.881-3.507,16.881-4.4Zm-1.963,6.62c0,2,1.053,3.141,2.98,3.141s2.98-1.142,2.98-3.141v-6.5c0-2-1.053-3.141-2.98-3.141s-2.98,1.142-2.98,3.141ZM23.286-12.2c0-.553.232-.785.642-.785.393,0,.642.232.642.785v4.283c0,.553-.25.785-.642.785-.41,0-.642-.232-.642-.785ZM22.037-8a1.753,1.753,0,0,0,1.891,2A1.753,1.753,0,0,0,25.82-8v-4.1a1.753,1.753,0,0,0-1.891-2,1.753,1.753,0,0,0-1.891,2Zm1.891,6.478h1.16l4.925-12.491h-1.16Zm5.549-6.1c0-.553.232-.785.642-.785.393,0,.642.232.642.785v4.283c0,.553-.25.785-.642.785-.41,0-.642-.232-.642-.785ZM28.229-3.435a1.753,1.753,0,0,0,1.891,2,1.753,1.753,0,0,0,1.891-2v-4.1a1.753,1.753,0,0,0-1.891-2,1.753,1.753,0,0,0-1.891,2Z" transform="translate(-2.16 14.16)" fill="#242549"/></g><g transform="translate(11.295 143.903)" style="isolation:isolate"><path d="M2.16-11.055H3.677v9.529H5.639V-14.017H4.319a1.944,1.944,0,0,1-2.159,1.57Zm5.763,5.5v1.035c0,2,1,3.141,2.926,3.141s2.926-1.142,2.926-3.141V-7.308c0-1.838-.732-2.855-2.177-2.855a1.872,1.872,0,0,0-1.713.91l.161-2.98h3.408v-1.784H8.28L7.923-6.772H9.779v-.375c0-.892.393-1.231,1.017-1.231s1.017.339,1.017,1.231V-4.4c0,.892-.393,1.213-1.017,1.213S9.779-3.507,9.779-4.4v-1.16Zm8.957-5.585c0-.892.393-1.231,1.017-1.231s1.017.339,1.017,1.231V-4.4c0,.892-.393,1.231-1.017,1.231S16.881-3.507,16.881-4.4Zm-1.963,6.62c0,2,1.053,3.141,2.98,3.141s2.98-1.142,2.98-3.141v-6.5c0-2-1.053-3.141-2.98-3.141s-2.98,1.142-2.98,3.141ZM23.286-12.2c0-.553.232-.785.642-.785.393,0,.642.232.642.785v4.283c0,.553-.25.785-.642.785-.41,0-.642-.232-.642-.785ZM22.037-8a1.753,1.753,0,0,0,1.891,2A1.753,1.753,0,0,0,25.82-8v-4.1a1.753,1.753,0,0,0-1.891-2,1.753,1.753,0,0,0-1.891,2Zm1.891,6.478h1.16l4.925-12.491h-1.16Zm5.549-6.1c0-.553.232-.785.642-.785.393,0,.642.232.642.785v4.283c0,.553-.25.785-.642.785-.41,0-.642-.232-.642-.785ZM28.229-3.435a1.753,1.753,0,0,0,1.891,2,1.753,1.753,0,0,0,1.891-2v-4.1a1.753,1.753,0,0,0-1.891-2,1.753,1.753,0,0,0-1.891,2Z" transform="translate(-2.16 14.16)" fill="#242549"/></g><path d="M4.69-10.948C4.69-7.343.8-6.737.8-3.061v1.535H6.474V-3.311H2.763a1.351,1.351,0,0,1-.018-.268c0-2.052,3.908-3.515,3.908-7.441,0-2-1-3.141-2.926-3.141S.8-13.018.8-11.019v1.213H2.656v-1.338c0-.892.393-1.231,1.017-1.231S4.69-12.072,4.69-10.948Zm4.978-.2c0-.892.393-1.231,1.017-1.231s1.017.339,1.017,1.231V-4.4c0,.892-.393,1.231-1.017,1.231S9.668-3.507,9.668-4.4ZM7.705-4.524c0,2,1.053,3.141,2.98,3.141s2.98-1.142,2.98-3.141v-6.5c0-2-1.053-3.141-2.98-3.141s-2.98,1.142-2.98,3.141Zm9.029-6.62c0-.892.393-1.231,1.017-1.231s1.017.339,1.017,1.231V-4.4c0,.892-.393,1.231-1.017,1.231S16.734-3.507,16.734-4.4Zm-1.963,6.62c0,2,1.053,3.141,2.98,3.141s2.98-1.142,2.98-3.141v-6.5c0-2-1.053-3.141-2.98-3.141s-2.98,1.142-2.98,3.141ZM23.14-12.2c0-.553.232-.785.642-.785.393,0,.642.232.642.785v4.283c0,.553-.25.785-.642.785-.41,0-.642-.232-.642-.785ZM21.891-8a1.753,1.753,0,0,0,1.891,2,1.753,1.753,0,0,0,1.891-2v-4.1a1.753,1.753,0,0,0-1.891-2,1.753,1.753,0,0,0-1.891,2Zm1.891,6.478h1.16l4.925-12.491h-1.16Zm5.549-6.1c0-.553.232-.785.642-.785.393,0,.642.232.642.785v4.283c0,.553-.25.785-.642.785-.41,0-.642-.232-.642-.785ZM28.082-3.435a1.753,1.753,0,0,0,1.891,2,1.753,1.753,0,0,0,1.891-2v-4.1a1.753,1.753,0,0,0-1.891-2,1.753,1.753,0,0,0-1.891,2Z" transform="translate(9.281 113.291)" fill="#242549"/><path d="M4.69-10.948C4.69-7.343.8-6.737.8-3.061v1.535H6.474V-3.311H2.763a1.351,1.351,0,0,1-.018-.268c0-2.052,3.908-3.515,3.908-7.441,0-2-1-3.141-2.926-3.141S.8-13.018.8-11.019v1.213H2.656v-1.338c0-.892.393-1.231,1.017-1.231S4.69-12.072,4.69-10.948ZM7.777-5.559v1.035c0,2,1,3.141,2.926,3.141s2.926-1.142,2.926-3.141V-7.308c0-1.838-.732-2.855-2.177-2.855a1.872,1.872,0,0,0-1.713.91l.161-2.98h3.408v-1.784H8.134L7.777-6.772H9.632v-.375c0-.892.393-1.231,1.017-1.231s1.017.339,1.017,1.231V-4.4c0,.892-.393,1.213-1.017,1.213S9.632-3.507,9.632-4.4v-1.16Zm8.957-5.585c0-.892.393-1.231,1.017-1.231s1.017.339,1.017,1.231V-4.4c0,.892-.393,1.231-1.017,1.231S16.734-3.507,16.734-4.4Zm-1.963,6.62c0,2,1.053,3.141,2.98,3.141s2.98-1.142,2.98-3.141v-6.5c0-2-1.053-3.141-2.98-3.141s-2.98,1.142-2.98,3.141ZM23.14-12.2c0-.553.232-.785.642-.785.393,0,.642.232.642.785v4.283c0,.553-.25.785-.642.785-.41,0-.642-.232-.642-.785ZM21.891-8a1.753,1.753,0,0,0,1.891,2,1.753,1.753,0,0,0,1.891-2v-4.1a1.753,1.753,0,0,0-1.891-2,1.753,1.753,0,0,0-1.891,2Zm1.891,6.478h1.16l4.925-12.491h-1.16Zm5.549-6.1c0-.553.232-.785.642-.785.393,0,.642.232.642.785v4.283c0,.553-.25.785-.642.785-.41,0-.642-.232-.642-.785ZM28.082-3.435a1.753,1.753,0,0,0,1.891,2,1.753,1.753,0,0,0,1.891-2v-4.1a1.753,1.753,0,0,0-1.891-2,1.753,1.753,0,0,0-1.891,2Z" transform="translate(8.835 68.785)" fill="#242549"/><path d="M4.57-10.252c0,1-.446,1.32-1.178,1.32H2.625v1.784h.66c.892,0,1.285.428,1.285,1.588v.981c0,1.106-.393,1.41-1.017,1.41S2.536-3.507,2.536-4.4v-1.16H.68v1.035c0,2,1,3.141,2.926,3.141S6.533-2.525,6.533-4.524v-.981A2.548,2.548,0,0,0,5.159-8.129,2.434,2.434,0,0,0,6.533-10.7v-.321c0-2-1-3.141-2.926-3.141S.68-13.018.68-11.019v.678H2.536v-.8c0-.892.393-1.231,1.017-1.231s1.017.3,1.017,1.428Zm5.085-.892c0-.892.393-1.231,1.017-1.231s1.017.339,1.017,1.231V-4.4c0,.892-.393,1.231-1.017,1.231S9.655-3.507,9.655-4.4ZM7.692-4.524c0,2,1.053,3.141,2.98,3.141s2.98-1.142,2.98-3.141v-6.5c0-2-1.053-3.141-2.98-3.141s-2.98,1.142-2.98,3.141Zm9.029-6.62c0-.892.393-1.231,1.017-1.231s1.017.339,1.017,1.231V-4.4c0,.892-.393,1.231-1.017,1.231S16.721-3.507,16.721-4.4Zm-1.963,6.62c0,2,1.053,3.141,2.98,3.141s2.98-1.142,2.98-3.141v-6.5c0-2-1.053-3.141-2.98-3.141s-2.98,1.142-2.98,3.141ZM23.127-12.2c0-.553.232-.785.642-.785.393,0,.642.232.642.785v4.283c0,.553-.25.785-.642.785-.41,0-.642-.232-.642-.785ZM21.878-8a1.753,1.753,0,0,0,1.891,2A1.753,1.753,0,0,0,25.66-8v-4.1a1.753,1.753,0,0,0-1.891-2,1.753,1.753,0,0,0-1.891,2Zm1.891,6.478h1.16l4.925-12.491h-1.16Zm5.549-6.1c0-.553.232-.785.642-.785.393,0,.642.232.642.785v4.283c0,.553-.25.785-.642.785-.41,0-.642-.232-.642-.785ZM28.069-3.435a1.753,1.753,0,0,0,1.891,2,1.753,1.753,0,0,0,1.891-2v-4.1a1.753,1.753,0,0,0-1.891-2,1.753,1.753,0,0,0-1.891,2Z" transform="translate(8.848 23.832)" fill="#242549"/><line x1="727.742" transform="translate(0 285.932)" fill="none" stroke="#e3ded5" stroke-linejoin="bevel" stroke-width="2"/><line x1="669.117" transform="translate(47.262 240.901)" fill="none" stroke="#e3ded5" stroke-linejoin="bevel" stroke-width="2"/><line x1="669.117" transform="translate(47.262 151.678)" fill="none" stroke="#e3ded5" stroke-linejoin="bevel" stroke-width="2"/><line x1="669.117" transform="translate(47.262 107.067)" fill="none" stroke="#e3ded5" stroke-linejoin="bevel" stroke-width="2"/><line x1="669.117" transform="translate(47.262 62.456)" fill="none" stroke="#e3ded5" stroke-linejoin="bevel" stroke-width="2"/><path d="M-3740.205,1651.051l67.318,16.907,66.912,26.767,66.912,22.306,66.912,22.306" transform="translate(3787.061 -1453.823)" fill="none" stroke="#c2b8f3" stroke-miterlimit="10" stroke-width="5"/><line x1="669.117" transform="translate(47.262 17.845)" fill="none" stroke="#e3ded5" stroke-linejoin="bevel" stroke-width="2"/><g transform="translate(95.096 290.723)" style="isolation:isolate"><path d="M-24.39-5.559v1.035c0,2,1,3.141,2.926,3.141s2.926-1.142,2.926-3.141V-7.308c0-1.838-.732-2.855-2.177-2.855a1.872,1.872,0,0,0-1.713.91l.161-2.98h3.408v-1.784h-5.175l-.357,7.245h1.856v-.375c0-.892.393-1.231,1.017-1.231s1.017.339,1.017,1.231V-4.4c0,.892-.393,1.213-1.017,1.213s-1.017-.321-1.017-1.213v-1.16Zm8.957-5.585c0-.892.393-1.231,1.017-1.231s1.017.339,1.017,1.231V-4.4c0,.892-.393,1.231-1.017,1.231s-1.017-.339-1.017-1.231ZM-17.4-4.524c0,2,1.053,3.141,2.98,3.141s2.98-1.142,2.98-3.141v-6.5c0-2-1.053-3.141-2.98-3.141s-2.98,1.142-2.98,3.141Zm9.029-6.62c0-.892.393-1.231,1.017-1.231s1.017.339,1.017,1.231V-4.4c0,.892-.393,1.231-1.017,1.231S-8.367-3.507-8.367-4.4Zm-1.963,6.62c0,2,1.053,3.141,2.98,3.141s2.98-1.142,2.98-3.141v-6.5c0-2-1.053-3.141-2.98-3.141s-2.98,1.142-2.98,3.141Zm6.655-7.709h2.052V-1.526H.341V-12.233H2.393v-1.784H-3.674ZM6.14-1.526c1.963,0,2.926-1.089,2.926-3.087V-6.237c0-2-.964-3.087-2.926-3.087H5.212v-4.693H3.249V-1.526ZM5.212-3.311V-7.54H6.14c.625,0,.964.286.964,1.178v1.874c0,.892-.339,1.178-.964,1.178Zm6.941,1.784V-14.017H10.19V-1.526Zm5.264-4.657V-4.4c0,.892-.393,1.213-1.017,1.213S15.382-3.507,15.382-4.4v-6.745c0-.892.393-1.231,1.017-1.231s1.017.339,1.017,1.231v1.338h1.856v-1.213c0-2-1-3.141-2.926-3.141s-2.926,1.142-2.926,3.141v6.5c0,2,1,3.141,2.926,3.141s2.926-1.142,2.926-3.141v-1.66Z" transform="translate(24.39 14.16)" fill="#242549"/></g><g transform="translate(165.347 291.312)" style="isolation:isolate"><path d="M-17.53-11.038h1.517v9.529h1.963V-14h-1.32a1.944,1.944,0,0,1-2.159,1.57ZM-6.2-14H-8.93V-1.509h1.713v-8.833l1.463,8.833H-3.9l1.356-8.958v8.958H-.686V-14h-2.73L-4.754-5.131ZM.188-1.491h.3c1.963,0,2.784-.892,2.855-3.176l.214-7.548H5.274V-1.509h2V-14H1.723L1.4-4.56C1.366-3.4,1.08-3.275.188-3.275ZM10.734-6.862h2.23v5.353h2V-14h-2v5.353h-2.23V-14H8.771V-1.509h1.963Z" transform="translate(17.53 14)" fill="#242549"/></g><g transform="translate(226.962 290.866)" style="isolation:isolate"><path d="M-23.35-11.038h1.517v9.529h1.963V-14h-1.32a1.944,1.944,0,0,1-2.159,1.57ZM-17.5-3.4v1.892h1.891V-3.4Zm3.23-2.141v1.035c0,2,1,3.141,2.926,3.141s2.926-1.142,2.926-3.141V-7.29c0-1.838-.732-2.855-2.177-2.855a1.872,1.872,0,0,0-1.713.91l.161-2.98h3.408V-14h-5.175l-.357,7.245h1.856V-7.13c0-.892.393-1.231,1.017-1.231s1.017.339,1.017,1.231v2.748c0,.892-.393,1.213-1.017,1.213s-1.017-.321-1.017-1.213v-1.16ZM-1.635-14h-2.73V-1.509h1.713v-8.833l1.463,8.833H.667l1.356-8.958v8.958H3.879V-14H1.149L-.19-5.131ZM4.753-1.491h.3c1.963,0,2.784-.892,2.855-3.176l.214-7.548H9.838V-1.509h2V-14H6.287L5.966-4.56C5.931-3.4,5.645-3.275,4.753-3.275ZM15.3-6.862h2.23v5.353h2V-14h-2v5.353H15.3V-14H13.335V-1.509H15.3Z" transform="translate(23.35 14)" fill="#242549"/></g><g transform="translate(297.748 291.169)" style="isolation:isolate"><path d="M-15-10.948c0,3.6-3.89,4.211-3.89,7.887v1.535h5.674V-3.311h-3.711a1.351,1.351,0,0,1-.018-.268c0-2.052,3.908-3.515,3.908-7.441,0-2-1-3.141-2.926-3.141s-2.926,1.142-2.926,3.141v1.213h1.856v-1.338c0-.892.393-1.231,1.017-1.231S-15-12.072-15-10.948Zm8.654-3.069h-2.73V-1.526h1.713v-8.833L-5.9-1.526h1.856l1.356-8.958v8.958H-.833V-14.017h-2.73L-4.9-5.149ZM.042-1.508h.3c1.963,0,2.784-.892,2.855-3.176l.214-7.548H5.127V-1.526h2V-14.017H1.576l-.321,9.44C1.219-3.418.934-3.293.042-3.293ZM10.587-6.879h2.23v5.353h2V-14.017h-2v5.353h-2.23v-5.353H8.624V-1.526h1.963Z" transform="translate(18.89 14.16)" fill="#242549"/></g><g transform="translate(359.363 290.723)" style="isolation:isolate"><path d="M-20.82-10.948c0,3.6-3.89,4.211-3.89,7.887v1.535h5.674V-3.311h-3.711a1.351,1.351,0,0,1-.018-.268c0-2.052,3.908-3.515,3.908-7.441,0-2-1-3.141-2.926-3.141s-2.926,1.142-2.926,3.141v1.213h1.856v-1.338c0-.892.393-1.231,1.017-1.231S-20.82-12.072-20.82-10.948Zm3.176,7.53v1.892h1.891V-3.418Zm3.23-2.141v1.035c0,2,1,3.141,2.926,3.141s2.926-1.142,2.926-3.141V-7.308c0-1.838-.732-2.855-2.177-2.855a1.872,1.872,0,0,0-1.713.91l.161-2.98h3.408v-1.784h-5.175l-.357,7.245h1.856v-.375c0-.892.393-1.231,1.017-1.231s1.017.339,1.017,1.231V-4.4c0,.892-.393,1.213-1.017,1.213s-1.017-.321-1.017-1.213v-1.16Zm12.633-8.458h-2.73V-1.526H-2.8v-8.833l1.463,8.833H.52l1.356-8.958v8.958H3.732V-14.017H1L-.336-5.149ZM4.606-1.508h.3c1.963,0,2.784-.892,2.855-3.176l.214-7.548H9.692V-1.526h2V-14.017H6.141L5.82-4.577C5.784-3.418,5.5-3.293,4.606-3.293ZM15.152-6.879h2.23v5.353h2V-14.017h-2v5.353h-2.23v-5.353H13.189V-1.526h1.963Z" transform="translate(24.71 14.16)" fill="#242549"/></g><g transform="translate(431.701 290.723)" style="isolation:isolate"><path d="M-15.12-10.252c0,1-.446,1.32-1.178,1.32h-.767v1.784h.66c.892,0,1.285.428,1.285,1.588v.981c0,1.106-.393,1.41-1.017,1.41s-1.017-.339-1.017-1.231v-1.16H-19.01v1.035c0,2,1,3.141,2.926,3.141s2.926-1.142,2.926-3.141v-.981a2.548,2.548,0,0,0-1.374-2.623,2.434,2.434,0,0,0,1.374-2.57v-.321c0-2-1-3.141-2.926-3.141s-2.926,1.142-2.926,3.141v.678h1.856v-.8c0-.892.393-1.231,1.017-1.231s1.017.3,1.017,1.428Zm8.761-3.765h-2.73V-1.526h1.713v-8.833l1.463,8.833h1.856L-2.7-10.484v8.958H-.846V-14.017h-2.73L-4.914-5.149ZM.029-1.508h.3c1.963,0,2.784-.892,2.855-3.176L3.4-12.233H5.114V-1.526h2V-14.017H1.563l-.321,9.44C1.206-3.418.921-3.293.029-3.293ZM10.574-6.879H12.8v5.353h2V-14.017h-2v5.353h-2.23v-5.353H8.611V-1.526h1.963Z" transform="translate(19.01 14.16)" fill="#242549"/></g><g transform="translate(498.152 290.866)" style="isolation:isolate"><path d="M-19.41-3.775h3.783v2.266H-13.7V-3.775h.928V-5.56H-13.7V-14h-2.141L-19.41-5.56Zm1.8-1.784,1.981-4.693V-5.56ZM-6.4-14h-2.73V-1.509h1.713v-8.833l1.463,8.833H-4.1l1.356-8.958v8.958H-.889V-14h-2.73L-4.957-5.131ZM-.015-1.491h.3c1.963,0,2.784-.892,2.855-3.176l.214-7.548H5.071V-1.509h2V-14H1.52L1.2-4.56C1.163-3.4.878-3.275-.015-3.275ZM10.531-6.862h2.23v5.353h2V-14h-2v5.353h-2.23V-14H8.568V-1.509h1.963Z" transform="translate(19.41 14)" fill="#242549"/></g><g transform="translate(565.78 290.866)" style="isolation:isolate"><path d="M-18.99-5.542v1.035c0,2,1,3.141,2.926,3.141s2.926-1.142,2.926-3.141V-7.29c0-1.838-.732-2.855-2.177-2.855a1.872,1.872,0,0,0-1.713.91l.161-2.98h3.408V-14h-5.175l-.357,7.245h1.856V-7.13c0-.892.393-1.231,1.017-1.231S-15.1-8.022-15.1-7.13v2.748c0,.892-.393,1.213-1.017,1.213s-1.017-.321-1.017-1.213v-1.16ZM-6.357-14h-2.73V-1.509h1.713v-8.833l1.463,8.833h1.856L-2.7-10.467v8.958H-.844V-14h-2.73L-4.912-5.131ZM.031-1.491h.3c1.963,0,2.784-.892,2.855-3.176L3.4-12.216H5.116V-1.509h2V-14H1.565L1.244-4.56C1.208-3.4.923-3.275.031-3.275ZM10.576-6.862h2.23v5.353h2V-14h-2v5.353h-2.23V-14H8.613V-1.509h1.963Z" transform="translate(18.99 14)" fill="#242549"/></g><g transform="translate(632.551 290.723)" style="isolation:isolate"><path d="M-19.03-4.524c0,2,1.053,3.141,2.98,3.141s2.98-1.142,2.98-3.141V-6.808c0-1.838-.732-2.855-2.177-2.855a1.868,1.868,0,0,0-1.82,1.106v-2.284c0-1.2.393-1.535,1.088-1.535.625,0,1.017.339,1.017,1.231v.446h1.856v-.321c0-2-1-3.141-2.926-3.141-2.034,0-3,1.142-3,3.248Zm2.98-3.355c.625,0,1.017.339,1.017,1.231V-4.4c0,.892-.393,1.213-1.017,1.213s-1.017-.321-1.017-1.213V-6.647C-17.067-7.54-16.675-7.879-16.05-7.879Zm9.689-6.139h-2.73V-1.526h1.713v-8.833l1.463,8.833H-4.06L-2.7-10.484v8.958H-.848V-14.017h-2.73L-4.916-5.149ZM.026-1.508h.3c1.963,0,2.784-.892,2.855-3.176L3.4-12.233H5.112V-1.526h2V-14.017H1.561L1.24-4.577C1.2-3.418.919-3.293.026-3.293ZM10.572-6.879H12.8v5.353h2V-14.017h-2v5.353h-2.23v-5.353H8.609V-1.526h1.963Z" transform="translate(19.03 14.16)" fill="#242549"/></g><path d="M-3664.5,1699.358l66.689-26.544,66.936-21.853,66.887-21.866,66.911-18.737,66.912-17.845,66.912-35.689,66.912-35.689,66.912-35.689,71.149-37.7" transform="translate(3778.896 -1431.913)" fill="none" stroke="#1bad1b" stroke-miterlimit="10" stroke-width="5"/><line x1="13.382" y2="8.922" transform="translate(442.041 265.437)" fill="none" stroke="#e3ded5" stroke-linejoin="bevel" stroke-width="2"/><line x1="13.382" y2="8.922" transform="translate(442.041 272.129)" fill="none" stroke="#e3ded5" stroke-linejoin="bevel" stroke-width="2"/><ellipse cx="4.461" cy="4.461" rx="4.461" ry="4.461" transform="translate(444.271 156.14)" fill="#242549"/><ellipse cx="4.461" cy="4.461" rx="4.461" ry="4.461" transform="translate(511.183 120.451)" fill="#242549"/><ellipse cx="4.461" cy="4.461" rx="4.461" ry="4.461" transform="translate(578.095 84.762)" fill="#242549"/><ellipse cx="4.461" cy="4.461" rx="4.461" ry="4.461" transform="translate(645.007 49.072)" fill="#242549"/><ellipse cx="4.461" cy="4.461" rx="4.461" ry="4.461" transform="translate(377.36 173.984)" fill="#242549"/><ellipse cx="4.461" cy="4.461" rx="4.461" ry="4.461" transform="translate(310.448 192.721)" fill="#242549"/><ellipse cx="4.461" cy="4.461" rx="4.461" ry="4.461" transform="translate(243.536 214.134)" fill="#242549"/><ellipse cx="4.461" cy="4.461" rx="4.461" ry="4.461" transform="translate(176.625 236.44)" fill="#242549"/><ellipse cx="4.461" cy="4.461" rx="4.461" ry="4.461" transform="translate(109.713 263.207)" fill="#242549"/><ellipse cx="4.461" cy="4.461" rx="4.461" ry="4.461" transform="translate(109.713 209.673)" fill="#242549"/><ellipse cx="4.461" cy="4.461" rx="4.461" ry="4.461" transform="translate(243.536 258.746)" fill="#242549"/><g transform="translate(172.411 219.258)" style="isolation:isolate"><path d="M3-4.917a2.4,2.4,0,0,0,.566,1.25,1.6,1.6,0,0,0,1.22.44,1.646,1.646,0,0,0,1.407-.649A2.66,2.66,0,0,0,6.678-5.51a2.838,2.838,0,0,0-.453-1.634A1.587,1.587,0,0,0,4.814-7.81,2.428,2.428,0,0,0,4.03-7.7a1.559,1.559,0,0,0-.88.775l-2.23-.1.889-6.979H8.769V-11.9H3.6L3.15-9.134a5.191,5.191,0,0,1,.9-.5,3.8,3.8,0,0,1,1.316-.2A3.952,3.952,0,0,1,8.1-8.777,3.921,3.921,0,0,1,9.266-5.71,4.812,4.812,0,0,1,8.142-2.582,4.087,4.087,0,0,1,4.779-1.206a4.467,4.467,0,0,1-2.962-.967A3.758,3.758,0,0,1,.527-4.917Zm9.822-2.814A11.9,11.9,0,0,0,13.181-4.4a1.438,1.438,0,0,0,1.464,1.154A1.418,1.418,0,0,0,16.1-4.4a12.332,12.332,0,0,0,.344-3.333,12.194,12.194,0,0,0-.344-3.381,1.406,1.406,0,0,0-1.451-1.1,1.426,1.426,0,0,0-1.464,1.1A11.769,11.769,0,0,0,12.823-7.732Zm1.821-6.526a3.569,3.569,0,0,1,3.385,1.7A9.832,9.832,0,0,1,19-7.732a9.78,9.78,0,0,1-.971,4.818,3.574,3.574,0,0,1-3.385,1.69,3.574,3.574,0,0,1-3.385-1.69,9.78,9.78,0,0,1-.971-4.818,9.832,9.832,0,0,1,.971-4.827A3.569,3.569,0,0,1,14.644-14.258Zm8.41,4.775a1.335,1.335,0,0,0,.98-.405,1.335,1.335,0,0,0,.405-.98,1.335,1.335,0,0,0-.405-.98,1.335,1.335,0,0,0-.98-.405,1.335,1.335,0,0,0-.98.405,1.335,1.335,0,0,0-.405.98,1.335,1.335,0,0,0,.405.98A1.335,1.335,0,0,0,23.055-9.483ZM26.3-10.868a3.13,3.13,0,0,1-.945,2.292,3.118,3.118,0,0,1-2.3.95,3.122,3.122,0,0,1-2.291-.95,3.123,3.123,0,0,1-.95-2.292,3.123,3.123,0,0,1,.95-2.292,3.122,3.122,0,0,1,2.291-.95,3.122,3.122,0,0,1,2.291.95A3.123,3.123,0,0,1,26.3-10.868Zm6.613,6.343a1.335,1.335,0,0,0-.405-.98,1.335,1.335,0,0,0-.98-.405,1.335,1.335,0,0,0-.98.405,1.335,1.335,0,0,0-.405.98,1.335,1.335,0,0,0,.405.98,1.335,1.335,0,0,0,.98.405,1.335,1.335,0,0,0,.98-.405A1.335,1.335,0,0,0,32.909-4.525Zm1.856,0a3.123,3.123,0,0,1-.95,2.292,3.122,3.122,0,0,1-2.291.95,3.122,3.122,0,0,1-2.291-.95,3.123,3.123,0,0,1-.95-2.292,3.119,3.119,0,0,1,.95-2.3,3.13,3.13,0,0,1,2.291-.945,3.122,3.122,0,0,1,2.291.95A3.123,3.123,0,0,1,34.764-4.525Zm-4.626-9.645h1.324L24.423-1.206h-1.35Z" transform="translate(-0.527 14.258)" fill="#242549"/></g><g transform="translate(104.853 190.707)" style="isolation:isolate"><path d="M3.106-5.2A2.029,2.029,0,0,0,3.59-3.758a1.747,1.747,0,0,0,1.337.514,1.747,1.747,0,0,0,1.337-.514A2.029,2.029,0,0,0,6.748-5.2a2.011,2.011,0,0,0-.492-1.468,1.778,1.778,0,0,0-1.329-.5,1.778,1.778,0,0,0-1.329.5A2.011,2.011,0,0,0,3.106-5.2ZM.527-5.039a3.87,3.87,0,0,1,.484-1.926,3.063,3.063,0,0,1,1.416-1.3,2.948,2.948,0,0,1-1.189-1.32,3.7,3.7,0,0,1-.274-1.329A3.1,3.1,0,0,1,2-13.26a4.118,4.118,0,0,1,2.927-.972,4.118,4.118,0,0,1,2.927.972,3.1,3.1,0,0,1,1.037,2.348,3.7,3.7,0,0,1-.274,1.329A2.538,2.538,0,0,1,7.428-8.35a3.5,3.5,0,0,1,1.4,1.385A3.955,3.955,0,0,1,9.3-5.039,3.6,3.6,0,0,1,8.12-2.325a4.6,4.6,0,0,1-3.3,1.12,4.276,4.276,0,0,1-3.206-1.12A3.749,3.749,0,0,1,.527-5.039Zm2.805-5.594a1.547,1.547,0,0,0,.423,1.124,1.557,1.557,0,0,0,1.172.436A1.539,1.539,0,0,0,6.1-9.509a1.565,1.565,0,0,0,.414-1.124A1.6,1.6,0,0,0,6.1-11.805a1.566,1.566,0,0,0-1.172-.423,1.584,1.584,0,0,0-1.172.423A1.584,1.584,0,0,0,3.333-10.633Zm9.491,2.9A11.9,11.9,0,0,0,13.181-4.4a1.438,1.438,0,0,0,1.464,1.154A1.418,1.418,0,0,0,16.1-4.4a12.332,12.332,0,0,0,.344-3.333,12.194,12.194,0,0,0-.344-3.381,1.406,1.406,0,0,0-1.451-1.1,1.426,1.426,0,0,0-1.464,1.1A11.769,11.769,0,0,0,12.823-7.732Zm1.821-6.526a3.569,3.569,0,0,1,3.385,1.7A9.832,9.832,0,0,1,19-7.732a9.78,9.78,0,0,1-.971,4.818,3.574,3.574,0,0,1-3.385,1.69,3.574,3.574,0,0,1-3.385-1.69,9.78,9.78,0,0,1-.971-4.818,9.832,9.832,0,0,1,.971-4.827A3.569,3.569,0,0,1,14.644-14.258Zm8.41,4.775a1.335,1.335,0,0,0,.98-.405,1.335,1.335,0,0,0,.405-.98,1.335,1.335,0,0,0-.405-.98,1.335,1.335,0,0,0-.98-.405,1.335,1.335,0,0,0-.98.405,1.335,1.335,0,0,0-.405.98,1.335,1.335,0,0,0,.405.98A1.335,1.335,0,0,0,23.055-9.483ZM26.3-10.868a3.13,3.13,0,0,1-.945,2.292,3.118,3.118,0,0,1-2.3.95,3.122,3.122,0,0,1-2.291-.95,3.123,3.123,0,0,1-.95-2.292,3.123,3.123,0,0,1,.95-2.292,3.122,3.122,0,0,1,2.291-.95,3.122,3.122,0,0,1,2.291.95A3.123,3.123,0,0,1,26.3-10.868Zm6.613,6.343a1.335,1.335,0,0,0-.405-.98,1.335,1.335,0,0,0-.98-.405,1.335,1.335,0,0,0-.98.405,1.335,1.335,0,0,0-.405.98,1.335,1.335,0,0,0,.405.98,1.335,1.335,0,0,0,.98.405,1.335,1.335,0,0,0,.98-.405A1.335,1.335,0,0,0,32.909-4.525Zm1.856,0a3.123,3.123,0,0,1-.95,2.292,3.122,3.122,0,0,1-2.291.95,3.122,3.122,0,0,1-2.291-.95,3.123,3.123,0,0,1-.95-2.292,3.119,3.119,0,0,1,.95-2.3,3.13,3.13,0,0,1,2.291-.945,3.122,3.122,0,0,1,2.291.95A3.123,3.123,0,0,1,34.764-4.525Zm-4.626-9.645h1.324L24.423-1.206h-1.35Z" transform="translate(-0.527 14.258)" fill="#242549"/></g><g transform="translate(105.587 241.564)" style="isolation:isolate"><path d="M.625-1.537A5.937,5.937,0,0,1,1.209-4.02,7.02,7.02,0,0,1,3.718-6.695,18.4,18.4,0,0,0,5.94-8.455a2.6,2.6,0,0,0,.775-1.812A2.008,2.008,0,0,0,6.271-11.6,1.565,1.565,0,0,0,5-12.132a1.551,1.551,0,0,0-1.542.845,4.192,4.192,0,0,0-.279,1.551H.764a6.1,6.1,0,0,1,.584-2.605,3.636,3.636,0,0,1,3.529-1.891,4.474,4.474,0,0,1,3.189,1.111A3.841,3.841,0,0,1,9.25-10.18a3.981,3.981,0,0,1-.836,2.492,8.333,8.333,0,0,1-1.8,1.612l-.993.706q-.932.662-1.276.958a2.809,2.809,0,0,0-.579.688H9.276v2.187Zm12.209-6.2A11.9,11.9,0,0,0,13.191-4.4a1.438,1.438,0,0,0,1.464,1.154A1.418,1.418,0,0,0,16.106-4.4a12.332,12.332,0,0,0,.344-3.333,12.194,12.194,0,0,0-.344-3.381,1.406,1.406,0,0,0-1.451-1.1,1.426,1.426,0,0,0-1.464,1.1A11.769,11.769,0,0,0,12.834-7.732Zm1.821-6.526a3.569,3.569,0,0,1,3.385,1.7,9.832,9.832,0,0,1,.971,4.827,9.78,9.78,0,0,1-.971,4.818,3.574,3.574,0,0,1-3.385,1.69,3.574,3.574,0,0,1-3.385-1.69A9.78,9.78,0,0,1,10.3-7.732a9.832,9.832,0,0,1,.971-4.827A3.569,3.569,0,0,1,14.655-14.258Zm8.41,4.775a1.335,1.335,0,0,0,.98-.405,1.335,1.335,0,0,0,.405-.98,1.335,1.335,0,0,0-.405-.98,1.335,1.335,0,0,0-.98-.405,1.335,1.335,0,0,0-.98.405,1.335,1.335,0,0,0-.405.98,1.335,1.335,0,0,0,.405.98A1.335,1.335,0,0,0,23.065-9.483Zm3.241-1.385a3.13,3.13,0,0,1-.945,2.292,3.118,3.118,0,0,1-2.3.95,3.122,3.122,0,0,1-2.291-.95,3.123,3.123,0,0,1-.95-2.292,3.123,3.123,0,0,1,.95-2.292,3.122,3.122,0,0,1,2.291-.95,3.122,3.122,0,0,1,2.291.95A3.123,3.123,0,0,1,26.306-10.868Zm6.613,6.343a1.335,1.335,0,0,0-.405-.98,1.335,1.335,0,0,0-.98-.405,1.335,1.335,0,0,0-.98.405,1.335,1.335,0,0,0-.405.98,1.335,1.335,0,0,0,.405.98,1.335,1.335,0,0,0,.98.405,1.335,1.335,0,0,0,.98-.405A1.335,1.335,0,0,0,32.919-4.525Zm1.856,0a3.123,3.123,0,0,1-.95,2.292,3.122,3.122,0,0,1-2.291.95,3.122,3.122,0,0,1-2.291-.95,3.123,3.123,0,0,1-.95-2.292,3.119,3.119,0,0,1,.95-2.3,3.13,3.13,0,0,1,2.291-.945,3.122,3.122,0,0,1,2.291.95A3.123,3.123,0,0,1,34.775-4.525Zm-4.626-9.645h1.324L24.433-1.206h-1.35Z" transform="translate(-0.625 14.258)" fill="#242549"/></g><g transform="translate(238.659 190.794)" style="isolation:isolate"><path d="M9.464-12.052A15.688,15.688,0,0,0,7.913-10.1,17.278,17.278,0,0,0,6.249-7.19a17.3,17.3,0,0,0-.958,2.875,11.94,11.94,0,0,0-.427,2.788H2.285a15.185,15.185,0,0,1,2.23-7.066,16.69,16.69,0,0,1,2.291-3.172H.508l.035-2.231H9.464Zm3.209,7.145a2.4,2.4,0,0,0,.566,1.25,1.6,1.6,0,0,0,1.22.44,1.646,1.646,0,0,0,1.407-.649A2.66,2.66,0,0,0,16.35-5.5,2.838,2.838,0,0,0,15.9-7.133,1.587,1.587,0,0,0,14.485-7.8a2.428,2.428,0,0,0-.784.113,1.559,1.559,0,0,0-.88.775l-2.23-.1.889-6.979h6.961v2.109H13.274l-.453,2.762a5.191,5.191,0,0,1,.9-.5,3.8,3.8,0,0,1,1.316-.2A3.952,3.952,0,0,1,17.77-8.767,3.921,3.921,0,0,1,18.938-5.7a4.812,4.812,0,0,1-1.124,3.128,4.087,4.087,0,0,1-3.363,1.377,4.467,4.467,0,0,1-2.962-.967A3.757,3.757,0,0,1,10.2-4.907ZM23.053-9.472a1.335,1.335,0,0,0,.98-.405,1.335,1.335,0,0,0,.405-.98,1.335,1.335,0,0,0-.405-.98,1.335,1.335,0,0,0-.98-.405,1.335,1.335,0,0,0-.98.405,1.335,1.335,0,0,0-.405.98,1.335,1.335,0,0,0,.405.98A1.335,1.335,0,0,0,23.053-9.472Zm3.241-1.385a3.13,3.13,0,0,1-.945,2.292,3.118,3.118,0,0,1-2.3.95,3.122,3.122,0,0,1-2.291-.95,3.123,3.123,0,0,1-.95-2.292,3.123,3.123,0,0,1,.95-2.292,3.122,3.122,0,0,1,2.291-.95,3.122,3.122,0,0,1,2.291.95A3.123,3.123,0,0,1,26.294-10.858Zm6.613,6.343a1.335,1.335,0,0,0-.405-.98,1.335,1.335,0,0,0-.98-.405,1.335,1.335,0,0,0-.98.405,1.335,1.335,0,0,0-.405.98,1.335,1.335,0,0,0,.405.98,1.335,1.335,0,0,0,.98.405,1.335,1.335,0,0,0,.98-.405A1.335,1.335,0,0,0,32.906-4.515Zm1.856,0a3.123,3.123,0,0,1-.95,2.292,3.122,3.122,0,0,1-2.291.95,3.122,3.122,0,0,1-2.291-.95,3.123,3.123,0,0,1-.95-2.292,3.119,3.119,0,0,1,.95-2.3,3.13,3.13,0,0,1,2.291-.945,3.122,3.122,0,0,1,2.291.95A3.123,3.123,0,0,1,34.762-4.515ZM30.136-14.16H31.46L24.421-1.195H23.07Z" transform="translate(-0.508 14.16)" fill="#242549"/></g><g transform="translate(301.649 174.647)" style="isolation:isolate"><path d="M1.387-10.25v-1.69A11.005,11.005,0,0,0,3.033-12.1a2.322,2.322,0,0,0,1.22-.662,2.18,2.18,0,0,0,.488-.906,2.08,2.08,0,0,0,.1-.505H6.9V-1.537H4.358V-10.25ZM12.916-7.732A11.9,11.9,0,0,0,13.273-4.4a1.438,1.438,0,0,0,1.464,1.154A1.418,1.418,0,0,0,16.188-4.4a12.332,12.332,0,0,0,.344-3.333,12.194,12.194,0,0,0-.344-3.381,1.406,1.406,0,0,0-1.451-1.1,1.426,1.426,0,0,0-1.464,1.1A11.769,11.769,0,0,0,12.916-7.732Zm1.821-6.526a3.569,3.569,0,0,1,3.385,1.7,9.832,9.832,0,0,1,.971,4.827,9.78,9.78,0,0,1-.971,4.818,3.574,3.574,0,0,1-3.385,1.69,3.574,3.574,0,0,1-3.385-1.69,9.78,9.78,0,0,1-.971-4.818,9.832,9.832,0,0,1,.971-4.827A3.569,3.569,0,0,1,14.737-14.258ZM22.59-7.732A11.9,11.9,0,0,0,22.947-4.4a1.438,1.438,0,0,0,1.464,1.154A1.418,1.418,0,0,0,25.861-4.4a12.332,12.332,0,0,0,.344-3.333,12.194,12.194,0,0,0-.344-3.381,1.406,1.406,0,0,0-1.451-1.1,1.426,1.426,0,0,0-1.464,1.1A11.769,11.769,0,0,0,22.59-7.732Zm1.821-6.526a3.569,3.569,0,0,1,3.385,1.7,9.832,9.832,0,0,1,.971,4.827A9.78,9.78,0,0,1,27.8-2.913a3.574,3.574,0,0,1-3.385,1.69,3.574,3.574,0,0,1-3.385-1.69,9.78,9.78,0,0,1-.971-4.818,9.832,9.832,0,0,1,.971-4.827A3.569,3.569,0,0,1,24.411-14.258Zm8.41,4.775a1.335,1.335,0,0,0,.98-.405,1.335,1.335,0,0,0,.405-.98,1.335,1.335,0,0,0-.405-.98,1.335,1.335,0,0,0-.98-.405,1.335,1.335,0,0,0-.98.405,1.335,1.335,0,0,0-.405.98,1.335,1.335,0,0,0,.405.98A1.335,1.335,0,0,0,32.821-9.483Zm3.241-1.385a3.13,3.13,0,0,1-.945,2.292,3.118,3.118,0,0,1-2.3.95,3.122,3.122,0,0,1-2.291-.95,3.123,3.123,0,0,1-.95-2.292,3.123,3.123,0,0,1,.95-2.292,3.122,3.122,0,0,1,2.291-.95,3.122,3.122,0,0,1,2.291.95A3.123,3.123,0,0,1,36.062-10.868Zm6.613,6.343a1.335,1.335,0,0,0-.405-.98,1.335,1.335,0,0,0-.98-.405,1.335,1.335,0,0,0-.98.405,1.335,1.335,0,0,0-.405.98,1.335,1.335,0,0,0,.405.98,1.335,1.335,0,0,0,.98.405,1.335,1.335,0,0,0,.98-.405A1.335,1.335,0,0,0,42.675-4.525Zm1.856,0a3.123,3.123,0,0,1-.95,2.292,3.122,3.122,0,0,1-2.291.95A3.122,3.122,0,0,1,39-2.234a3.123,3.123,0,0,1-.95-2.292,3.119,3.119,0,0,1,.95-2.3,3.13,3.13,0,0,1,2.291-.945,3.122,3.122,0,0,1,2.291.95A3.123,3.123,0,0,1,44.531-4.525ZM39.9-14.171h1.324L34.189-1.206h-1.35Z" transform="translate(-1.387 14.258)" fill="#242549"/></g><g transform="translate(368.56 156.802)" style="isolation:isolate"><path d="M1.387-10.25v-1.69A11.005,11.005,0,0,0,3.033-12.1a2.322,2.322,0,0,0,1.22-.662,2.18,2.18,0,0,0,.488-.906,2.08,2.08,0,0,0,.1-.505H6.9V-1.537H4.358V-10.25Zm8.994,8.713a5.937,5.937,0,0,1,.584-2.483,7.02,7.02,0,0,1,2.509-2.675A18.4,18.4,0,0,0,15.7-8.455a2.6,2.6,0,0,0,.775-1.812,2.008,2.008,0,0,0-.444-1.333,1.565,1.565,0,0,0-1.272-.532,1.551,1.551,0,0,0-1.542.845,4.192,4.192,0,0,0-.279,1.551H10.52a6.1,6.1,0,0,1,.584-2.605,3.636,3.636,0,0,1,3.529-1.891,4.474,4.474,0,0,1,3.189,1.111,3.841,3.841,0,0,1,1.185,2.941,3.981,3.981,0,0,1-.836,2.492,8.333,8.333,0,0,1-1.8,1.612l-.993.706q-.932.662-1.276.958a2.809,2.809,0,0,0-.579.688h5.515v2.187Zm12.209-6.2A11.9,11.9,0,0,0,22.947-4.4a1.438,1.438,0,0,0,1.464,1.154A1.418,1.418,0,0,0,25.861-4.4a12.332,12.332,0,0,0,.344-3.333,12.194,12.194,0,0,0-.344-3.381,1.406,1.406,0,0,0-1.451-1.1,1.426,1.426,0,0,0-1.464,1.1A11.769,11.769,0,0,0,22.59-7.732Zm1.821-6.526a3.569,3.569,0,0,1,3.385,1.7,9.832,9.832,0,0,1,.971,4.827A9.78,9.78,0,0,1,27.8-2.913a3.574,3.574,0,0,1-3.385,1.69,3.574,3.574,0,0,1-3.385-1.69,9.78,9.78,0,0,1-.971-4.818,9.832,9.832,0,0,1,.971-4.827A3.569,3.569,0,0,1,24.411-14.258Zm8.41,4.775a1.335,1.335,0,0,0,.98-.405,1.335,1.335,0,0,0,.405-.98,1.335,1.335,0,0,0-.405-.98,1.335,1.335,0,0,0-.98-.405,1.335,1.335,0,0,0-.98.405,1.335,1.335,0,0,0-.405.98,1.335,1.335,0,0,0,.405.98A1.335,1.335,0,0,0,32.821-9.483Zm3.241-1.385a3.13,3.13,0,0,1-.945,2.292,3.118,3.118,0,0,1-2.3.95,3.122,3.122,0,0,1-2.291-.95,3.123,3.123,0,0,1-.95-2.292,3.123,3.123,0,0,1,.95-2.292,3.122,3.122,0,0,1,2.291-.95,3.122,3.122,0,0,1,2.291.95A3.123,3.123,0,0,1,36.062-10.868Zm6.613,6.343a1.335,1.335,0,0,0-.405-.98,1.335,1.335,0,0,0-.98-.405,1.335,1.335,0,0,0-.98.405,1.335,1.335,0,0,0-.405.98,1.335,1.335,0,0,0,.405.98,1.335,1.335,0,0,0,.98.405,1.335,1.335,0,0,0,.98-.405A1.335,1.335,0,0,0,42.675-4.525Zm1.856,0a3.123,3.123,0,0,1-.95,2.292,3.122,3.122,0,0,1-2.291.95A3.122,3.122,0,0,1,39-2.234a3.123,3.123,0,0,1-.95-2.292,3.119,3.119,0,0,1,.95-2.3,3.13,3.13,0,0,1,2.291-.945,3.122,3.122,0,0,1,2.291.95A3.123,3.123,0,0,1,44.531-4.525ZM39.9-14.171h1.324L34.189-1.206h-1.35Z" transform="translate(-1.387 14.258)" fill="#242549"/></g><g transform="translate(436.364 138.958)" style="isolation:isolate"><path d="M1.387-10.25v-1.69A11.005,11.005,0,0,0,3.033-12.1a2.322,2.322,0,0,0,1.22-.662,2.18,2.18,0,0,0,.488-.906,2.08,2.08,0,0,0,.1-.505H6.9V-1.537H4.358V-10.25ZM19.154-4.255H17.725v2.719H15.295V-4.255h-5v-2.17l4.644-7.668h2.788V-6.2h1.429ZM15.295-6.2v-5.454L12.132-6.2Zm7.3-1.534A11.9,11.9,0,0,0,22.947-4.4a1.438,1.438,0,0,0,1.464,1.154A1.418,1.418,0,0,0,25.861-4.4a12.332,12.332,0,0,0,.344-3.333,12.194,12.194,0,0,0-.344-3.381,1.406,1.406,0,0,0-1.451-1.1,1.426,1.426,0,0,0-1.464,1.1A11.769,11.769,0,0,0,22.59-7.732Zm1.821-6.526a3.569,3.569,0,0,1,3.385,1.7,9.832,9.832,0,0,1,.971,4.827A9.78,9.78,0,0,1,27.8-2.913a3.574,3.574,0,0,1-3.385,1.69,3.574,3.574,0,0,1-3.385-1.69,9.78,9.78,0,0,1-.971-4.818,9.832,9.832,0,0,1,.971-4.827A3.569,3.569,0,0,1,24.411-14.258Zm8.41,4.775a1.335,1.335,0,0,0,.98-.405,1.335,1.335,0,0,0,.405-.98,1.335,1.335,0,0,0-.405-.98,1.335,1.335,0,0,0-.98-.405,1.335,1.335,0,0,0-.98.405,1.335,1.335,0,0,0-.405.98,1.335,1.335,0,0,0,.405.98A1.335,1.335,0,0,0,32.821-9.483Zm3.241-1.385a3.13,3.13,0,0,1-.945,2.292,3.118,3.118,0,0,1-2.3.95,3.122,3.122,0,0,1-2.291-.95,3.123,3.123,0,0,1-.95-2.292,3.123,3.123,0,0,1,.95-2.292,3.122,3.122,0,0,1,2.291-.95,3.122,3.122,0,0,1,2.291.95A3.123,3.123,0,0,1,36.062-10.868Zm6.613,6.343a1.335,1.335,0,0,0-.405-.98,1.335,1.335,0,0,0-.98-.405,1.335,1.335,0,0,0-.98.405,1.335,1.335,0,0,0-.405.98,1.335,1.335,0,0,0,.405.98,1.335,1.335,0,0,0,.98.405,1.335,1.335,0,0,0,.98-.405A1.335,1.335,0,0,0,42.675-4.525Zm1.856,0a3.123,3.123,0,0,1-.95,2.292,3.122,3.122,0,0,1-2.291.95A3.122,3.122,0,0,1,39-2.234a3.123,3.123,0,0,1-.95-2.292,3.119,3.119,0,0,1,.95-2.3,3.13,3.13,0,0,1,2.291-.945,3.122,3.122,0,0,1,2.291.95A3.123,3.123,0,0,1,44.531-4.525ZM39.9-14.171h1.324L34.189-1.206h-1.35Z" transform="translate(-1.387 14.258)" fill="#242549"/></g><g transform="translate(502.384 103.268)" style="isolation:isolate"><path d="M1.387-10.25v-1.69A11.005,11.005,0,0,0,3.033-12.1a2.322,2.322,0,0,0,1.22-.662,2.18,2.18,0,0,0,.488-.906,2.08,2.08,0,0,0,.1-.505H6.9V-1.537H4.358V-10.25ZM12.873-5.2a2.029,2.029,0,0,0,.484,1.446,1.747,1.747,0,0,0,1.337.514,1.747,1.747,0,0,0,1.337-.514A2.029,2.029,0,0,0,16.514-5.2a2.011,2.011,0,0,0-.492-1.468,1.778,1.778,0,0,0-1.329-.5,1.778,1.778,0,0,0-1.329.5A2.011,2.011,0,0,0,12.873-5.2Zm-2.579.166a3.87,3.87,0,0,1,.484-1.926,3.063,3.063,0,0,1,1.416-1.3A2.948,2.948,0,0,1,11-9.583a3.7,3.7,0,0,1-.274-1.329,3.1,3.1,0,0,1,1.037-2.348,4.118,4.118,0,0,1,2.927-.972,4.118,4.118,0,0,1,2.927.972,3.1,3.1,0,0,1,1.037,2.348,3.7,3.7,0,0,1-.274,1.329A2.538,2.538,0,0,1,17.194-8.35a3.5,3.5,0,0,1,1.4,1.385,3.955,3.955,0,0,1,.47,1.926,3.6,3.6,0,0,1-1.181,2.714,4.6,4.6,0,0,1-3.3,1.12,4.276,4.276,0,0,1-3.206-1.12A3.749,3.749,0,0,1,10.294-5.039ZM13.1-10.633a1.547,1.547,0,0,0,.423,1.124,1.557,1.557,0,0,0,1.172.436,1.539,1.539,0,0,0,1.172-.436,1.565,1.565,0,0,0,.414-1.124,1.6,1.6,0,0,0-.414-1.172,1.566,1.566,0,0,0-1.172-.423,1.584,1.584,0,0,0-1.172.423A1.584,1.584,0,0,0,13.1-10.633Zm9.491,2.9A11.9,11.9,0,0,0,22.947-4.4a1.438,1.438,0,0,0,1.464,1.154A1.418,1.418,0,0,0,25.861-4.4a12.332,12.332,0,0,0,.344-3.333,12.194,12.194,0,0,0-.344-3.381,1.406,1.406,0,0,0-1.451-1.1,1.426,1.426,0,0,0-1.464,1.1A11.769,11.769,0,0,0,22.59-7.732Zm1.821-6.526a3.569,3.569,0,0,1,3.385,1.7,9.832,9.832,0,0,1,.971,4.827A9.78,9.78,0,0,1,27.8-2.913a3.574,3.574,0,0,1-3.385,1.69,3.574,3.574,0,0,1-3.385-1.69,9.78,9.78,0,0,1-.971-4.818,9.832,9.832,0,0,1,.971-4.827A3.569,3.569,0,0,1,24.411-14.258Zm8.41,4.775a1.335,1.335,0,0,0,.98-.405,1.335,1.335,0,0,0,.405-.98,1.335,1.335,0,0,0-.405-.98,1.335,1.335,0,0,0-.98-.405,1.335,1.335,0,0,0-.98.405,1.335,1.335,0,0,0-.405.98,1.335,1.335,0,0,0,.405.98A1.335,1.335,0,0,0,32.821-9.483Zm3.241-1.385a3.13,3.13,0,0,1-.945,2.292,3.118,3.118,0,0,1-2.3.95,3.122,3.122,0,0,1-2.291-.95,3.123,3.123,0,0,1-.95-2.292,3.123,3.123,0,0,1,.95-2.292,3.122,3.122,0,0,1,2.291-.95,3.122,3.122,0,0,1,2.291.95A3.123,3.123,0,0,1,36.062-10.868Zm6.613,6.343a1.335,1.335,0,0,0-.405-.98,1.335,1.335,0,0,0-.98-.405,1.335,1.335,0,0,0-.98.405,1.335,1.335,0,0,0-.405.98,1.335,1.335,0,0,0,.405.98,1.335,1.335,0,0,0,.98.405,1.335,1.335,0,0,0,.98-.405A1.335,1.335,0,0,0,42.675-4.525Zm1.856,0a3.123,3.123,0,0,1-.95,2.292,3.122,3.122,0,0,1-2.291.95A3.122,3.122,0,0,1,39-2.234a3.123,3.123,0,0,1-.95-2.292,3.119,3.119,0,0,1,.95-2.3,3.13,3.13,0,0,1,2.291-.945,3.122,3.122,0,0,1,2.291.95A3.123,3.123,0,0,1,44.531-4.525ZM39.9-14.171h1.324L34.189-1.206h-1.35Z" transform="translate(-1.387 14.258)" fill="#242549"/></g><g transform="translate(568.616 67.579)" style="isolation:isolate"><path d="M.625-1.537A5.937,5.937,0,0,1,1.209-4.02,7.02,7.02,0,0,1,3.718-6.695,18.4,18.4,0,0,0,5.94-8.455a2.6,2.6,0,0,0,.775-1.812A2.008,2.008,0,0,0,6.271-11.6,1.565,1.565,0,0,0,5-12.132a1.551,1.551,0,0,0-1.542.845,4.192,4.192,0,0,0-.279,1.551H.764a6.1,6.1,0,0,1,.584-2.605,3.636,3.636,0,0,1,3.529-1.891,4.474,4.474,0,0,1,3.189,1.111A3.841,3.841,0,0,1,9.25-10.18a3.981,3.981,0,0,1-.836,2.492,8.333,8.333,0,0,1-1.8,1.612l-.993.706q-.932.662-1.276.958a2.809,2.809,0,0,0-.579.688H9.276v2.187Zm9.674,0a5.937,5.937,0,0,1,.584-2.483,7.02,7.02,0,0,1,2.509-2.675,18.4,18.4,0,0,0,2.222-1.76,2.6,2.6,0,0,0,.775-1.812,2.008,2.008,0,0,0-.444-1.333,1.565,1.565,0,0,0-1.272-.532,1.551,1.551,0,0,0-1.542.845,4.192,4.192,0,0,0-.279,1.551H10.438a6.1,6.1,0,0,1,.584-2.605,3.636,3.636,0,0,1,3.529-1.891,4.474,4.474,0,0,1,3.189,1.111,3.841,3.841,0,0,1,1.185,2.941,3.981,3.981,0,0,1-.836,2.492,8.333,8.333,0,0,1-1.8,1.612l-.993.706q-.932.662-1.276.958a2.809,2.809,0,0,0-.579.688H18.95v2.187Zm12.209-6.2A11.9,11.9,0,0,0,22.865-4.4a1.438,1.438,0,0,0,1.464,1.154A1.418,1.418,0,0,0,25.779-4.4a12.332,12.332,0,0,0,.344-3.333,12.194,12.194,0,0,0-.344-3.381,1.406,1.406,0,0,0-1.451-1.1,1.426,1.426,0,0,0-1.464,1.1A11.769,11.769,0,0,0,22.508-7.732Zm1.821-6.526a3.569,3.569,0,0,1,3.385,1.7,9.832,9.832,0,0,1,.971,4.827,9.78,9.78,0,0,1-.971,4.818,3.574,3.574,0,0,1-3.385,1.69,3.574,3.574,0,0,1-3.385-1.69,9.78,9.78,0,0,1-.971-4.818,9.832,9.832,0,0,1,.971-4.827A3.569,3.569,0,0,1,24.329-14.258Zm8.41,4.775a1.335,1.335,0,0,0,.98-.405,1.335,1.335,0,0,0,.405-.98,1.335,1.335,0,0,0-.405-.98,1.335,1.335,0,0,0-.98-.405,1.335,1.335,0,0,0-.98.405,1.335,1.335,0,0,0-.405.98,1.335,1.335,0,0,0,.405.98A1.335,1.335,0,0,0,32.739-9.483Zm3.241-1.385a3.13,3.13,0,0,1-.945,2.292,3.118,3.118,0,0,1-2.3.95,3.122,3.122,0,0,1-2.291-.95,3.123,3.123,0,0,1-.95-2.292,3.123,3.123,0,0,1,.95-2.292,3.122,3.122,0,0,1,2.291-.95,3.122,3.122,0,0,1,2.291.95A3.123,3.123,0,0,1,35.98-10.868Zm6.613,6.343a1.335,1.335,0,0,0-.405-.98,1.335,1.335,0,0,0-.98-.405,1.335,1.335,0,0,0-.98.405,1.335,1.335,0,0,0-.405.98,1.335,1.335,0,0,0,.405.98,1.335,1.335,0,0,0,.98.405,1.335,1.335,0,0,0,.98-.405A1.335,1.335,0,0,0,42.593-4.525Zm1.856,0a3.123,3.123,0,0,1-.95,2.292,3.122,3.122,0,0,1-2.291.95,3.122,3.122,0,0,1-2.291-.95,3.123,3.123,0,0,1-.95-2.292,3.119,3.119,0,0,1,.95-2.3,3.13,3.13,0,0,1,2.291-.945,3.122,3.122,0,0,1,2.291.95A3.123,3.123,0,0,1,44.449-4.525Zm-4.626-9.645h1.324L34.107-1.206h-1.35Z" transform="translate(-0.625 14.258)" fill="#242549"/></g><g transform="translate(635.528 31.753)" style="isolation:isolate"><path d="M.625-1.537A5.937,5.937,0,0,1,1.209-4.02,7.02,7.02,0,0,1,3.718-6.695,18.4,18.4,0,0,0,5.94-8.455a2.6,2.6,0,0,0,.775-1.812A2.008,2.008,0,0,0,6.271-11.6,1.565,1.565,0,0,0,5-12.132a1.551,1.551,0,0,0-1.542.845,4.192,4.192,0,0,0-.279,1.551H.764a6.1,6.1,0,0,1,.584-2.605,3.636,3.636,0,0,1,3.529-1.891,4.474,4.474,0,0,1,3.189,1.111A3.841,3.841,0,0,1,9.25-10.18a3.981,3.981,0,0,1-.836,2.492,8.333,8.333,0,0,1-1.8,1.612l-.993.706q-.932.662-1.276.958a2.809,2.809,0,0,0-.579.688H9.276v2.187Zm21.883-6.2A11.9,11.9,0,0,0,22.865-4.4a1.438,1.438,0,0,0,1.464,1.154A1.418,1.418,0,0,0,25.779-4.4a12.332,12.332,0,0,0,.344-3.333,12.194,12.194,0,0,0-.344-3.381,1.406,1.406,0,0,0-1.451-1.1,1.426,1.426,0,0,0-1.464,1.1A11.769,11.769,0,0,0,22.508-7.732Zm1.821-6.526a3.569,3.569,0,0,1,3.385,1.7,9.832,9.832,0,0,1,.971,4.827,9.78,9.78,0,0,1-.971,4.818,3.574,3.574,0,0,1-3.385,1.69,3.574,3.574,0,0,1-3.385-1.69,9.78,9.78,0,0,1-.971-4.818,9.832,9.832,0,0,1,.971-4.827A3.569,3.569,0,0,1,24.329-14.258Zm8.41,4.775a1.335,1.335,0,0,0,.98-.405,1.335,1.335,0,0,0,.405-.98,1.335,1.335,0,0,0-.405-.98,1.335,1.335,0,0,0-.98-.405,1.335,1.335,0,0,0-.98.405,1.335,1.335,0,0,0-.405.98,1.335,1.335,0,0,0,.405.98A1.335,1.335,0,0,0,32.739-9.483Zm3.241-1.385a3.13,3.13,0,0,1-.945,2.292,3.118,3.118,0,0,1-2.3.95,3.122,3.122,0,0,1-2.291-.95,3.123,3.123,0,0,1-.95-2.292,3.123,3.123,0,0,1,.95-2.292,3.122,3.122,0,0,1,2.291-.95,3.122,3.122,0,0,1,2.291.95A3.123,3.123,0,0,1,35.98-10.868Zm6.613,6.343a1.335,1.335,0,0,0-.405-.98,1.335,1.335,0,0,0-.98-.405,1.335,1.335,0,0,0-.98.405,1.335,1.335,0,0,0-.405.98,1.335,1.335,0,0,0,.405.98,1.335,1.335,0,0,0,.98.405,1.335,1.335,0,0,0,.98-.405A1.335,1.335,0,0,0,42.593-4.525Zm1.856,0a3.123,3.123,0,0,1-.95,2.292,3.122,3.122,0,0,1-2.291.95,3.122,3.122,0,0,1-2.291-.95,3.123,3.123,0,0,1-.95-2.292,3.119,3.119,0,0,1,.95-2.3,3.13,3.13,0,0,1,2.291-.945,3.122,3.122,0,0,1,2.291.95A3.123,3.123,0,0,1,44.449-4.525Zm-4.626-9.645h1.324L34.107-1.206h-1.35Z" transform="translate(-0.625 14.395)" fill="#242549"/><path d="M3.273-5.817A2.6,2.6,0,0,0,3.849-4.07a1.839,1.839,0,0,0,1.464.677A1.626,1.626,0,0,0,6.68-4.047a2.723,2.723,0,0,0,.5-1.7,2.54,2.54,0,0,0-.567-1.779,1.815,1.815,0,0,0-1.391-.618,1.857,1.857,0,0,0-1.18.4A2.278,2.278,0,0,0,3.273-5.817Zm3.668-5.727a1.33,1.33,0,0,0-.247-.7,1.432,1.432,0,0,0-1.272-.622,1.88,1.88,0,0,0-1.811,1.427,8.857,8.857,0,0,0-.4,2.324,2.926,2.926,0,0,1,1.125-.842A3.8,3.8,0,0,1,5.8-10.227a3.8,3.8,0,0,1,2.9,1.2,4.289,4.289,0,0,1,1.13,3.065A5.174,5.174,0,0,1,8.716-2.688,4.092,4.092,0,0,1,5.276-1.27a3.959,3.959,0,0,1-3.7-2.1A8.543,8.543,0,0,1,.656-7.592a19.222,19.222,0,0,1,.128-2.47,7.554,7.554,0,0,1,.887-2.818,4.54,4.54,0,0,1,1.487-1.546,4.009,4.009,0,0,1,2.2-.586,4.355,4.355,0,0,1,2.946.947,3.6,3.6,0,0,1,1.235,2.52Z" transform="translate(8.539 15.012)" fill="#242549"/></g><g transform="translate(239.41 241.59)" style="isolation:isolate"><path d="M.625-1.533a5.937,5.937,0,0,1,.584-2.483A7.02,7.02,0,0,1,3.718-6.692,18.4,18.4,0,0,0,5.94-8.452a2.6,2.6,0,0,0,.775-1.812A2.008,2.008,0,0,0,6.271-11.6,1.565,1.565,0,0,0,5-12.129a1.551,1.551,0,0,0-1.542.845,4.192,4.192,0,0,0-.279,1.551H.764a6.1,6.1,0,0,1,.584-2.605,3.636,3.636,0,0,1,3.529-1.891,4.474,4.474,0,0,1,3.189,1.111A3.841,3.841,0,0,1,9.25-10.177a3.981,3.981,0,0,1-.836,2.492,8.333,8.333,0,0,1-1.8,1.612l-.993.706q-.932.662-1.276.958a2.809,2.809,0,0,0-.579.688H9.276v2.187ZM12.686-4.914a2.4,2.4,0,0,0,.566,1.25,1.6,1.6,0,0,0,1.22.44,1.646,1.646,0,0,0,1.407-.649,2.66,2.66,0,0,0,.484-1.634A2.838,2.838,0,0,0,15.91-7.14,1.587,1.587,0,0,0,14.5-7.807a2.428,2.428,0,0,0-.784.113,1.559,1.559,0,0,0-.88.775l-2.23-.1L11.492-14h6.961v2.109H13.287l-.453,2.762a5.191,5.191,0,0,1,.9-.5,3.8,3.8,0,0,1,1.316-.2,3.952,3.952,0,0,1,2.736,1.054A3.921,3.921,0,0,1,18.95-5.707a4.812,4.812,0,0,1-1.124,3.128A4.087,4.087,0,0,1,14.463-1.2,4.467,4.467,0,0,1,11.5-2.17a3.757,3.757,0,0,1-1.289-2.745ZM23.065-9.48a1.335,1.335,0,0,0,.98-.405,1.335,1.335,0,0,0,.405-.98,1.335,1.335,0,0,0-.405-.98,1.335,1.335,0,0,0-.98-.405,1.335,1.335,0,0,0-.98.405,1.335,1.335,0,0,0-.405.98,1.335,1.335,0,0,0,.405.98A1.335,1.335,0,0,0,23.065-9.48Zm3.241-1.385a3.13,3.13,0,0,1-.945,2.292,3.118,3.118,0,0,1-2.3.95,3.122,3.122,0,0,1-2.291-.95,3.123,3.123,0,0,1-.95-2.292,3.123,3.123,0,0,1,.95-2.292,3.122,3.122,0,0,1,2.291-.95,3.122,3.122,0,0,1,2.291.95A3.123,3.123,0,0,1,26.306-10.865Zm6.613,6.343a1.335,1.335,0,0,0-.405-.98,1.335,1.335,0,0,0-.98-.405,1.335,1.335,0,0,0-.98.405,1.335,1.335,0,0,0-.405.98,1.335,1.335,0,0,0,.405.98,1.335,1.335,0,0,0,.98.405,1.335,1.335,0,0,0,.98-.405A1.335,1.335,0,0,0,32.919-4.522Zm1.856,0a3.123,3.123,0,0,1-.95,2.292,3.122,3.122,0,0,1-2.291.95,3.122,3.122,0,0,1-2.291-.95,3.123,3.123,0,0,1-.95-2.292,3.119,3.119,0,0,1,.95-2.3,3.13,3.13,0,0,1,2.291-.945,3.122,3.122,0,0,1,2.291.95A3.123,3.123,0,0,1,34.775-4.522Zm-4.626-9.645h1.324L24.433-1.2h-1.35Z" transform="translate(-0.625 14.229)" fill="#242549"/></g><path d="M-3611.578,1785h-49.271l-5.151,8.922,5.151,8.922h49.271l5.151-8.922Z" transform="translate(3779.058 -1468.26)" fill="#242549"/><g transform="translate(134.776 321.911)" style="isolation:isolate"><path d="M6.1-2.759H5.173V-.992H3.593V-2.759H.343v-1.41L3.361-9.153H5.173v5.131H6.1ZM3.593-4.022V-7.567L1.538-4.022ZM8.86-6.157A.868.868,0,0,0,9.5-6.42a.868.868,0,0,0,.263-.637A.868.868,0,0,0,9.5-7.695a.868.868,0,0,0-.637-.263.868.868,0,0,0-.637.263.868.868,0,0,0-.263.637.868.868,0,0,0,.263.637A.868.868,0,0,0,8.86-6.157Zm2.107-.9a2.035,2.035,0,0,1-.614,1.49,2.027,2.027,0,0,1-1.492.617,2.03,2.03,0,0,1-1.489-.617,2.03,2.03,0,0,1-.617-1.49,2.03,2.03,0,0,1,.617-1.49A2.03,2.03,0,0,1,8.86-9.164a2.03,2.03,0,0,1,1.489.617A2.03,2.03,0,0,1,10.967-7.058Zm4.3,4.123A.868.868,0,0,0,15-3.572a.868.868,0,0,0-.637-.263.868.868,0,0,0-.637.263.868.868,0,0,0-.263.637.868.868,0,0,0,.263.637.868.868,0,0,0,.637.263A.868.868,0,0,0,15-2.3.868.868,0,0,0,15.265-2.935Zm1.206,0a2.03,2.03,0,0,1-.617,1.49,2.03,2.03,0,0,1-1.489.617,2.03,2.03,0,0,1-1.489-.617,2.03,2.03,0,0,1-.617-1.49,2.027,2.027,0,0,1,.617-1.492,2.034,2.034,0,0,1,1.489-.614,2.03,2.03,0,0,1,1.489.617A2.03,2.03,0,0,1,16.471-2.935ZM13.464-9.2h.861L9.749-.777H8.871Z" transform="translate(-0.343 9.204)" fill="#fff9ea"/></g><path d="M-3468.48,1785h-106.368l-5.151,8.922,5.151,8.922h106.368l5.151-8.922Z" transform="translate(3769.784 -1468.26)" fill="#242549"/><path d="M-7.443-3.189a1.558,1.558,0,0,0,.368.813,1.043,1.043,0,0,0,.793.286,1.07,1.07,0,0,0,.915-.422,1.729,1.729,0,0,0,.314-1.062,1.845,1.845,0,0,0-.294-1.062,1.031,1.031,0,0,0-.917-.433A1.578,1.578,0,0,0-6.775-5a1.013,1.013,0,0,0-.572.5L-8.8-4.56-8.219-9.1h4.525v1.371H-7.053l-.294,1.8a3.374,3.374,0,0,1,.583-.323,2.469,2.469,0,0,1,.855-.13A2.568,2.568,0,0,1-4.131-5.7,2.549,2.549,0,0,1-3.372-3.7,3.128,3.128,0,0,1-4.1-1.672a2.656,2.656,0,0,1-2.186.895,2.9,2.9,0,0,1-1.925-.629,2.442,2.442,0,0,1-.838-1.784ZM-.534-6.157A.868.868,0,0,0,.1-6.42a.868.868,0,0,0,.263-.637A.868.868,0,0,0,.1-7.695a.868.868,0,0,0-.637-.263.868.868,0,0,0-.637.263.868.868,0,0,0-.263.637.868.868,0,0,0,.263.637A.868.868,0,0,0-.534-6.157Zm2.107-.9a2.035,2.035,0,0,1-.614,1.49,2.027,2.027,0,0,1-1.492.617,2.03,2.03,0,0,1-1.489-.617,2.03,2.03,0,0,1-.617-1.49,2.03,2.03,0,0,1,.617-1.49A2.03,2.03,0,0,1-.534-9.164a2.03,2.03,0,0,1,1.489.617A2.03,2.03,0,0,1,1.572-7.058Zm4.3,4.123a.868.868,0,0,0-.263-.637.868.868,0,0,0-.637-.263.868.868,0,0,0-.637.263.868.868,0,0,0-.263.637.868.868,0,0,0,.263.637.868.868,0,0,0,.637.263A.868.868,0,0,0,5.607-2.3.868.868,0,0,0,5.871-2.935Zm1.206,0a2.03,2.03,0,0,1-.617,1.49A2.03,2.03,0,0,1,4.97-.828a2.03,2.03,0,0,1-1.489-.617,2.03,2.03,0,0,1-.617-1.49,2.027,2.027,0,0,1,.617-1.492A2.034,2.034,0,0,1,4.97-5.041a2.03,2.03,0,0,1,1.489.617A2.03,2.03,0,0,1,7.077-2.935ZM4.07-9.2H4.93L.355-.777H-.523Z" transform="translate(250.534 331.116)" fill="#fff9ea"/><path d="M-3046.372,1785h-378.477l-5.151,8.922,5.151,8.922h378.477l5.151-8.922Z" transform="translate(3753.607 -1468.26)" fill="#242549"/><g transform="translate(509.481 321.911)" style="isolation:isolate"><path d="M6.1-2.759H5.173V-.992H3.593V-2.759H.343v-1.41L3.361-9.153H5.173v5.131H6.1ZM3.593-4.022V-7.567L1.538-4.022ZM8.86-6.157A.868.868,0,0,0,9.5-6.42a.868.868,0,0,0,.263-.637A.868.868,0,0,0,9.5-7.695a.868.868,0,0,0-.637-.263.868.868,0,0,0-.637.263.868.868,0,0,0-.263.637.868.868,0,0,0,.263.637A.868.868,0,0,0,8.86-6.157Zm2.107-.9a2.035,2.035,0,0,1-.614,1.49,2.027,2.027,0,0,1-1.492.617,2.03,2.03,0,0,1-1.489-.617,2.03,2.03,0,0,1-.617-1.49,2.03,2.03,0,0,1,.617-1.49A2.03,2.03,0,0,1,8.86-9.164a2.03,2.03,0,0,1,1.489.617A2.03,2.03,0,0,1,10.967-7.058Zm4.3,4.123A.868.868,0,0,0,15-3.572a.868.868,0,0,0-.637-.263.868.868,0,0,0-.637.263.868.868,0,0,0-.263.637.868.868,0,0,0,.263.637.868.868,0,0,0,.637.263A.868.868,0,0,0,15-2.3.868.868,0,0,0,15.265-2.935Zm1.206,0a2.03,2.03,0,0,1-.617,1.49,2.03,2.03,0,0,1-1.489.617,2.03,2.03,0,0,1-1.489-.617,2.03,2.03,0,0,1-.617-1.49,2.027,2.027,0,0,1,.617-1.492,2.034,2.034,0,0,1,1.489-.614,2.03,2.03,0,0,1,1.489.617A2.03,2.03,0,0,1,16.471-2.935ZM13.464-9.2h.861L9.749-.777H8.871Z" transform="translate(-0.343 9.204)" fill="#fff9ea"/></g><g transform="translate(16.366 277.933)" style="isolation:isolate"><path d="M2.583-11.144c0-.892.393-1.231,1.017-1.231s1.017.339,1.017,1.231V-4.4c0,.892-.393,1.231-1.017,1.231S2.583-3.507,2.583-4.4ZM.62-4.524c0,2,1.053,3.141,2.98,3.141S6.58-2.525,6.58-4.524v-6.5c0-2-1.053-3.141-2.98-3.141S.62-13.018.62-11.019ZM8.988-12.2c0-.553.232-.785.642-.785.393,0,.642.232.642.785v4.283c0,.553-.25.785-.642.785-.41,0-.642-.232-.642-.785ZM7.739-8a1.753,1.753,0,0,0,1.891,2,1.753,1.753,0,0,0,1.891-2v-4.1a1.753,1.753,0,0,0-1.891-2,1.753,1.753,0,0,0-1.891,2ZM9.631-1.526h1.16l4.925-12.491h-1.16Zm5.549-6.1c0-.553.232-.785.642-.785.393,0,.642.232.642.785v4.283c0,.553-.25.785-.642.785-.41,0-.642-.232-.642-.785ZM13.931-3.435a1.753,1.753,0,0,0,1.891,2,1.753,1.753,0,0,0,1.891-2v-4.1a1.753,1.753,0,0,0-1.891-2,1.753,1.753,0,0,0-1.891,2Z" transform="translate(-0.62 14.16)" fill="#242549"/></g></g><path d="M5.079-7.153V-5.19c0,.981-.432,1.335-1.119,1.335S2.841-4.208,2.841-5.19v-7.42c0-.981.432-1.354,1.119-1.354s1.119.373,1.119,1.354v1.472H7.12v-1.335c0-2.2-1.1-3.455-3.219-3.455S.682-14.671.682-12.472v7.145c0,2.2,1.1,3.455,3.219,3.455S7.12-3.129,7.12-5.327V-7.153Zm2.728-6.654h2.257V-2.03h2.159V-13.807H14.48V-15.77H7.807Zm12.4-1.963h-3.16l-2.2,13.74h1.982l.373-2.493h2.65l.373,2.493H22.41Zm-1.688,2.434,1.04,6.949H17.483ZM26.59-15.77h-3.18V-2.03H25.57V-7.192H26.59c2.159,0,3.219-1.2,3.219-3.4v-1.786C29.809-14.573,28.749-15.77,26.59-15.77Zm0,1.963c.687,0,1.06.314,1.06,1.3v2.061c0,.981-.373,1.3-1.06,1.3H25.57v-4.652Zm3.592,0h2.257V-2.03H34.6V-13.807h2.257V-15.77H30.182Zm9.6,1.2c0-.981.432-1.354,1.119-1.354s1.119.373,1.119,1.354v7.42c0,.981-.432,1.354-1.119,1.354S39.78-4.208,39.78-5.19ZM37.621-5.327c0,2.2,1.158,3.455,3.278,3.455s3.278-1.256,3.278-3.455v-7.145c0-2.2-1.158-3.455-3.278-3.455s-3.278,1.256-3.278,3.455ZM48.828-15.77H45.57V-2.03h3.4a2.921,2.921,0,0,0,3.278-3.258V-6.407c0-1.453-.451-2.493-1.609-2.944.962-.451,1.394-1.354,1.394-2.768v-.491C52.027-14.73,51.066-15.77,48.828-15.77Zm-.137,7.557c.981,0,1.394.393,1.394,1.668v1.2c0,1.021-.393,1.354-1.119,1.354H47.729v-4.22Zm.079-5.594c.765,0,1.1.432,1.1,1.413v.766c0,1.1-.491,1.453-1.3,1.453h-.844v-3.631ZM56.718-2.03c2.159,0,3.219-1.2,3.219-3.4V-7.212c0-2.2-1.06-3.4-3.219-3.4H55.7V-15.77H53.539V-2.03ZM55.7-3.992V-8.645h1.021c.687,0,1.06.314,1.06,1.3v2.061c0,.981-.373,1.3-1.06,1.3ZM63.333-2.03V-15.77H61.174V-2.03Zm3.788,0H64.9V-15.77h1.924v8.7l.785-3.023,1.766-5.673h2.375V-2.03H69.81v-9.677L68.927-8.33Zm3.533-16.8a2.029,2.029,0,0,1-2.3,2.179A2.025,2.025,0,0,1,66.1-18.832h1.335c.059.726.353.9.922.9.589,0,.922-.177.981-.9Zm5.084,5.025h2.257V-2.03h2.159V-13.807h2.257V-15.77H75.737Zm12.4-1.963h-3.16l-2.2,13.74h1.982l.373-2.493h2.65l.373,2.493H90.34Zm-1.688,2.434,1.04,6.949H85.414Zm8.067-2.434h-3.18V-2.03H93.5V-7.192h1.021c2.159,0,3.219-1.2,3.219-3.4v-1.786C97.74-14.573,96.68-15.77,94.521-15.77Zm0,1.963c.687,0,1.06.314,1.06,1.3v2.061c0,.981-.373,1.3-1.06,1.3H93.5v-4.652Zm8.244,5.476.883-3.376V-2.03h1.943V-15.77h-2.375L101.449-10.1l-.785,3.023v-8.7H98.741V-2.03h2.218Zm8.2,6.3h2.12V-3.58h.8c2.159,0,3.219-1.2,3.219-3.4v-3.749c0-2.2-1.06-3.4-3.219-3.4h-.8V-15.77h-2.12v1.649h-.8c-2.159,0-3.219,1.2-3.219,3.4v3.749c0,2.2,1.06,3.4,3.219,3.4h.8Zm2.924-10.187c.687,0,1.079.373,1.079,1.354v4.024c0,.981-.393,1.374-1.079,1.374h-.8v-6.752Zm-2.924,6.752h-.8c-.687,0-1.079-.393-1.079-1.374v-4.024c0-.981.393-1.354,1.079-1.354h.8Z" transform="translate(594.995 231.339)" fill="#a6a4a6"/><path d="M-130.593-4.828a1.66,1.66,0,0,1,.191-.8,1.532,1.532,0,0,1,.5-.541,2.254,2.254,0,0,1,.753-.306,4.3,4.3,0,0,1,.936-.1,3.088,3.088,0,0,1,.972.136,2.03,2.03,0,0,1,.674.361,1.4,1.4,0,0,1,.392.515,1.482,1.482,0,0,1,.125.593,1.272,1.272,0,0,1-.073.447,1.091,1.091,0,0,1-.2.34,1.12,1.12,0,0,1-.29.238,1.421,1.421,0,0,1-.342.141v.021a1.372,1.372,0,0,1,.507.175,1.179,1.179,0,0,1,.34.306,1.21,1.21,0,0,1,.191.389,1.517,1.517,0,0,1,.06.416,1.817,1.817,0,0,1-.209.9,1.813,1.813,0,0,1-.546.606,2.307,2.307,0,0,1-.758.342,3.409,3.409,0,0,1-.844.107,4.729,4.729,0,0,1-1.017-.1,2.189,2.189,0,0,1-.795-.335,1.613,1.613,0,0,1-.52-.606,2.071,2.071,0,0,1-.193-.917h1.411a.9.9,0,0,0,.073.366.847.847,0,0,0,.2.288.941.941,0,0,0,.314.188,1.164,1.164,0,0,0,.408.068,1.046,1.046,0,0,0,.452-.086.8.8,0,0,0,.285-.217.822.822,0,0,0,.149-.28.966.966,0,0,0,.044-.274.668.668,0,0,0-.222-.572,1.2,1.2,0,0,0-.708-.165H-129v-.988h.57a1.108,1.108,0,0,0,.7-.173.617.617,0,0,0,.206-.5.775.775,0,0,0-.06-.324.546.546,0,0,0-.167-.212.663.663,0,0,0-.254-.115,1.41,1.41,0,0,0-.319-.034,1.039,1.039,0,0,0-.635.18.608.608,0,0,0-.243.52Zm5.64-1.579h1.411v.816h.021a2.748,2.748,0,0,1,.319-.442,1.578,1.578,0,0,1,.371-.306,1.59,1.59,0,0,1,.452-.178,2.5,2.5,0,0,1,.562-.058,2.435,2.435,0,0,1,.538.063,2.213,2.213,0,0,1,.541.2,2.251,2.251,0,0,1,.5.361,2.2,2.2,0,0,1,.413.546,3.073,3.073,0,0,1,.282.755,4.2,4.2,0,0,1,.1.985,5.04,5.04,0,0,1-.149,1.265,2.894,2.894,0,0,1-.45.988,2.08,2.08,0,0,1-.758.643,2.363,2.363,0,0,1-1.074.23,2.315,2.315,0,0,1-.434-.042,1.766,1.766,0,0,1-.429-.141,1.6,1.6,0,0,1-.395-.269,1.651,1.651,0,0,1-.327-.426h-.021V1.5h-1.479Zm2.7,1.161a1.11,1.11,0,0,0-.6.152,1.2,1.2,0,0,0-.392.392,1.751,1.751,0,0,0-.217.544,2.742,2.742,0,0,0-.068.6q0,.162.018.353a2.384,2.384,0,0,0,.071.387,1.994,1.994,0,0,0,.144.379,1.237,1.237,0,0,0,.233.324,1.086,1.086,0,0,0,.34.227,1.175,1.175,0,0,0,.47.086,1.175,1.175,0,0,0,.47-.086,1.086,1.086,0,0,0,.34-.227,1.237,1.237,0,0,0,.233-.324,2,2,0,0,0,.144-.379A2.383,2.383,0,0,0-121-3.2q.018-.191.018-.353a2.742,2.742,0,0,0-.068-.6,1.751,1.751,0,0,0-.217-.544,1.2,1.2,0,0,0-.395-.392A1.113,1.113,0,0,0-122.255-5.246Zm3.884-1.161h1.479v3.513h.021l2.075-3.513h1.553v5.7h-1.474V-4.143h-.026l-2.013,3.435h-1.615Zm7.773,1.2h-1.725v-1.2h4.924v1.2h-1.725v4.5H-110.6Zm5.18,2.107a1.845,1.845,0,0,0,.016.209,1.6,1.6,0,0,0,.063.282,1.51,1.51,0,0,0,.136.306,1.054,1.054,0,0,0,.238.28,1.19,1.19,0,0,0,.366.2,1.534,1.534,0,0,0,.52.078,1.118,1.118,0,0,0,.311-.044,1.033,1.033,0,0,0,.285-.131.962.962,0,0,0,.227-.209.766.766,0,0,0,.139-.28h1.532a1.137,1.137,0,0,1-.068.358,1.729,1.729,0,0,1-.206.408,2.433,2.433,0,0,1-.348.405,2.281,2.281,0,0,1-.5.353,2.923,2.923,0,0,1-.651.248,3.221,3.221,0,0,1-.808.094,3.3,3.3,0,0,1-1.069-.17,2.268,2.268,0,0,1-.873-.538,2.543,2.543,0,0,1-.588-.954,4.155,4.155,0,0,1-.214-1.422,4.016,4.016,0,0,1,.154-1.116,2.673,2.673,0,0,1,.481-.944,2.347,2.347,0,0,1,.836-.651,2.827,2.827,0,0,1,1.226-.243,2.936,2.936,0,0,1,1.276.248,2.1,2.1,0,0,1,.834.7,2.98,2.98,0,0,1,.452,1.1,6.917,6.917,0,0,1,.136,1.427Zm2.368-.983a1.537,1.537,0,0,0-.112-.627,1.143,1.143,0,0,0-.282-.4.986.986,0,0,0-.374-.209,1.385,1.385,0,0,0-.392-.06,1.369,1.369,0,0,0-.387.06.986.986,0,0,0-.374.209,1.143,1.143,0,0,0-.282.4,1.537,1.537,0,0,0-.112.627Zm7.956,3.372h-1.474V-5.2h-1.746l-.031,1.061a15.665,15.665,0,0,1-.115,1.568,4.114,4.114,0,0,1-.29,1.127,1.557,1.557,0,0,1-.544.682,1.539,1.539,0,0,1-.876.23,2.943,2.943,0,0,1-.439-.029,1.264,1.264,0,0,1-.308-.081V-1.885a1.129,1.129,0,0,0,.186.058,1.232,1.232,0,0,0,.274.026.471.471,0,0,0,.3-.1.8.8,0,0,0,.225-.371,3.517,3.517,0,0,0,.146-.745q.052-.476.068-1.229l.042-2.159h4.585Zm1.553-5.7h1.479v3.513h.021l2.075-3.513h1.553v5.7h-1.474V-4.143h-.026L-91.926-.709h-1.615Zm11.035,2.238h1.14a1.872,1.872,0,0,0,.418-.039.674.674,0,0,0,.264-.115.4.4,0,0,0,.136-.188.8.8,0,0,0,.039-.264.672.672,0,0,0-.039-.233.416.416,0,0,0-.133-.183.7.7,0,0,0-.251-.12,1.463,1.463,0,0,0-.392-.044h-1.181Zm-1.479-2.238h2.948a4.1,4.1,0,0,1,.755.068,1.871,1.871,0,0,1,.64.238,1.258,1.258,0,0,1,.442.46,1.473,1.473,0,0,1,.165.735,1.6,1.6,0,0,1-.055.444,1.075,1.075,0,0,1-.149.322.987.987,0,0,1-.217.225,1.54,1.54,0,0,1-.254.154,1.273,1.273,0,0,1,.653.484,1.379,1.379,0,0,1,.225.792,1.851,1.851,0,0,1-.139.729,1.593,1.593,0,0,1-.392.559,1.769,1.769,0,0,1-.617.361,2.433,2.433,0,0,1-.813.128h-3.194Zm1.479,4.648h1.14a1.608,1.608,0,0,0,.515-.068.807.807,0,0,0,.3-.173.505.505,0,0,0,.141-.23.9.9,0,0,0,.034-.235.951.951,0,0,0-.055-.348.486.486,0,0,0-.173-.222.732.732,0,0,0-.308-.115,2.867,2.867,0,0,0-.457-.031h-1.14Zm7.878-4.648h1.479v2.164l2.133-2.164h1.966L-71.4-4.039l2.452,3.33H-70.88l-1.673-2.4-.6.6v1.8h-1.479Zm6.5,0h1.479v3.513h.021l2.075-3.513H-63v5.7h-1.474V-4.143H-64.5L-66.515-.709H-68.13Zm6.54,0h1.479v2.06h2.175v-2.06h1.474v5.7h-1.474V-3.15h-2.175V-.709H-61.59Zm6.2,2.849a3.529,3.529,0,0,1,.2-1.213,2.716,2.716,0,0,1,.58-.954,2.656,2.656,0,0,1,.917-.625,3.121,3.121,0,0,1,1.213-.225,3.169,3.169,0,0,1,1.226.225,2.6,2.6,0,0,1,.915.625,2.725,2.725,0,0,1,.572.954,3.571,3.571,0,0,1,.2,1.213,3.571,3.571,0,0,1-.2,1.213,2.752,2.752,0,0,1-.572.957,2.58,2.58,0,0,1-.915.627,3.169,3.169,0,0,1-1.226.225,3.121,3.121,0,0,1-1.213-.225,2.638,2.638,0,0,1-.917-.627,2.743,2.743,0,0,1-.58-.957A3.529,3.529,0,0,1-55.391-3.558Zm1.542,0a2.932,2.932,0,0,0,.071.64,1.7,1.7,0,0,0,.233.565,1.242,1.242,0,0,0,.423.4,1.263,1.263,0,0,0,.643.152,1.331,1.331,0,0,0,.661-.149,1.183,1.183,0,0,0,.421-.392,1.629,1.629,0,0,0,.222-.559,3.235,3.235,0,0,0,.065-.656,3.247,3.247,0,0,0-.065-.653,1.629,1.629,0,0,0-.222-.562,1.183,1.183,0,0,0-.421-.392,1.331,1.331,0,0,0-.661-.149,1.263,1.263,0,0,0-.643.152,1.242,1.242,0,0,0-.423.4,1.7,1.7,0,0,0-.233.565A2.932,2.932,0,0,0-53.849-3.558ZM-47.267-5.2h-1.725v-1.2h4.924v1.2h-1.725v4.5h-1.474Zm5.18,2.107a1.846,1.846,0,0,0,.016.209,1.6,1.6,0,0,0,.063.282,1.511,1.511,0,0,0,.136.306,1.054,1.054,0,0,0,.238.28,1.19,1.19,0,0,0,.366.2,1.534,1.534,0,0,0,.52.078,1.118,1.118,0,0,0,.311-.044,1.033,1.033,0,0,0,.285-.131.962.962,0,0,0,.227-.209.766.766,0,0,0,.139-.28h1.532a1.137,1.137,0,0,1-.068.358,1.729,1.729,0,0,1-.206.408,2.433,2.433,0,0,1-.348.405,2.281,2.281,0,0,1-.5.353,2.923,2.923,0,0,1-.651.248,3.221,3.221,0,0,1-.808.094A3.3,3.3,0,0,1-41.9-.706a2.268,2.268,0,0,1-.873-.538,2.543,2.543,0,0,1-.588-.954,4.155,4.155,0,0,1-.214-1.422,4.016,4.016,0,0,1,.154-1.116,2.673,2.673,0,0,1,.481-.944,2.347,2.347,0,0,1,.836-.651,2.827,2.827,0,0,1,1.226-.243,2.936,2.936,0,0,1,1.276.248,2.1,2.1,0,0,1,.834.7,2.981,2.981,0,0,1,.452,1.1A6.917,6.917,0,0,1-38.182-3.1Zm2.368-.983a1.537,1.537,0,0,0-.112-.627,1.143,1.143,0,0,0-.282-.4.986.986,0,0,0-.374-.209,1.385,1.385,0,0,0-.392-.06,1.369,1.369,0,0,0-.387.06.986.986,0,0,0-.374.209,1.143,1.143,0,0,0-.282.4,1.537,1.537,0,0,0-.112.627Zm7.13,2.248a2.524,2.524,0,0,0,.029.421,1.007,1.007,0,0,0,.076.261.376.376,0,0,0,.107.141.425.425,0,0,0,.128.065v.235h-1.636a2.755,2.755,0,0,1-.091-.264,1.4,1.4,0,0,1-.05-.4q-.173.178-.337.329a1.885,1.885,0,0,1-.369.264A1.916,1.916,0,0,1-35.2-.6a2.736,2.736,0,0,1-.643.065,2.117,2.117,0,0,1-.7-.112A1.559,1.559,0,0,1-37.1-.98a1.489,1.489,0,0,1-.366-.549,2.06,2.06,0,0,1-.131-.763,1.883,1.883,0,0,1,.11-.651,1.633,1.633,0,0,1,.311-.528,1.661,1.661,0,0,1,.491-.376,2.061,2.061,0,0,1,.651-.2l1.448-.214q.078-.01.17-.031a.54.54,0,0,0,.17-.071A.407.407,0,0,0-34.12-4.5a.447.447,0,0,0,.052-.233.727.727,0,0,0-.044-.259.484.484,0,0,0-.149-.2.734.734,0,0,0-.28-.133,1.713,1.713,0,0,0-.436-.047,1.553,1.553,0,0,0-.478.06.7.7,0,0,0-.285.167.639.639,0,0,0-.152.251,1.667,1.667,0,0,0-.068.306H-37.44a1.721,1.721,0,0,1,.034-.29,2,2,0,0,1,.125-.405,2.168,2.168,0,0,1,.256-.444,1.787,1.787,0,0,1,.434-.41,2.412,2.412,0,0,1,.656-.306,3.245,3.245,0,0,1,.925-.125,4.084,4.084,0,0,1,1.236.154,1.939,1.939,0,0,1,.737.4,1.25,1.25,0,0,1,.355.554,2.116,2.116,0,0,1,.091.609ZM-34.068-3.49q-.136.073-.272.133a1.667,1.667,0,0,1-.361.1l-.392.073a3.546,3.546,0,0,0-.45.11,1.014,1.014,0,0,0-.321.165.655.655,0,0,0-.193.248.9.9,0,0,0-.065.366.8.8,0,0,0,.057.316.587.587,0,0,0,.159.22.667.667,0,0,0,.238.128.991.991,0,0,0,.293.042,1.607,1.607,0,0,0,.214-.018,1.408,1.408,0,0,0,.277-.071,1.514,1.514,0,0,0,.293-.144,1.019,1.019,0,0,0,.261-.238,1.22,1.22,0,0,0,.188-.358,1.531,1.531,0,0,0,.073-.5ZM-30.006-5.2h-1.725v-1.2h4.924v1.2h-1.725v4.5h-1.474Zm4.077-1.2h1.411v.816h.021a2.749,2.749,0,0,1,.319-.442,1.578,1.578,0,0,1,.371-.306,1.59,1.59,0,0,1,.452-.178,2.5,2.5,0,0,1,.562-.058,2.435,2.435,0,0,1,.538.063,2.213,2.213,0,0,1,.541.2,2.251,2.251,0,0,1,.5.361A2.2,2.2,0,0,1-20.8-5.4a3.072,3.072,0,0,1,.282.755,4.2,4.2,0,0,1,.1.985A5.04,5.04,0,0,1-20.563-2.4a2.894,2.894,0,0,1-.45.988,2.08,2.08,0,0,1-.758.643,2.363,2.363,0,0,1-1.074.23,2.315,2.315,0,0,1-.434-.042,1.766,1.766,0,0,1-.429-.141A1.6,1.6,0,0,1-24.1-.988a1.651,1.651,0,0,1-.327-.426h-.021V1.5h-1.479Zm2.7,1.161a1.11,1.11,0,0,0-.6.152,1.2,1.2,0,0,0-.392.392,1.751,1.751,0,0,0-.217.544,2.742,2.742,0,0,0-.068.6q0,.162.018.353a2.383,2.383,0,0,0,.071.387,2,2,0,0,0,.144.379,1.238,1.238,0,0,0,.233.324,1.086,1.086,0,0,0,.34.227,1.175,1.175,0,0,0,.47.086,1.175,1.175,0,0,0,.47-.086,1.086,1.086,0,0,0,.34-.227,1.237,1.237,0,0,0,.233-.324,2,2,0,0,0,.144-.379,2.383,2.383,0,0,0,.071-.387q.018-.191.018-.353a2.742,2.742,0,0,0-.068-.6,1.751,1.751,0,0,0-.217-.544,1.2,1.2,0,0,0-.395-.392A1.113,1.113,0,0,0-23.231-5.246ZM-18.286-3.1a1.846,1.846,0,0,0,.016.209,1.6,1.6,0,0,0,.063.282,1.511,1.511,0,0,0,.136.306,1.054,1.054,0,0,0,.238.28,1.19,1.19,0,0,0,.366.2,1.534,1.534,0,0,0,.52.078,1.118,1.118,0,0,0,.311-.044,1.033,1.033,0,0,0,.285-.131.962.962,0,0,0,.227-.209.766.766,0,0,0,.139-.28h1.532a1.137,1.137,0,0,1-.068.358,1.729,1.729,0,0,1-.206.408,2.433,2.433,0,0,1-.348.405,2.281,2.281,0,0,1-.5.353,2.923,2.923,0,0,1-.651.248,3.221,3.221,0,0,1-.808.094A3.3,3.3,0,0,1-18.1-.706a2.268,2.268,0,0,1-.873-.538,2.543,2.543,0,0,1-.588-.954,4.155,4.155,0,0,1-.214-1.422,4.016,4.016,0,0,1,.154-1.116,2.673,2.673,0,0,1,.481-.944,2.347,2.347,0,0,1,.836-.651,2.827,2.827,0,0,1,1.226-.243,2.936,2.936,0,0,1,1.276.248,2.1,2.1,0,0,1,.834.7,2.98,2.98,0,0,1,.452,1.1A6.917,6.917,0,0,1-14.381-3.1Zm2.368-.983a1.537,1.537,0,0,0-.112-.627,1.143,1.143,0,0,0-.282-.4.986.986,0,0,0-.374-.209,1.385,1.385,0,0,0-.392-.06,1.369,1.369,0,0,0-.387.06.986.986,0,0,0-.374.209,1.143,1.143,0,0,0-.282.4,1.537,1.537,0,0,0-.112.627Z" transform="translate(680.54 305.857)" fill="#242549"/><path d="M3.842-15.77h-3V-2.03H2.723v-9.716L4.333-2.03H6.374l1.492-9.854V-2.03H9.907V-15.77h-3L5.432-6.014Zm12.424,0h-3.16l-2.2,13.74H12.89l.373-2.493h2.65l.373,2.493h2.179Zm-1.688,2.434,1.04,6.949H13.538ZM18.857-2.01h.334c2.159,0,3.062-.981,3.14-3.494l.236-8.3h1.884V-2.03h2.2V-15.77h-6.1L20.192-5.386c-.039,1.276-.353,1.413-1.335,1.413ZM30.28-12.61c0-.981.432-1.354,1.119-1.354s1.119.373,1.119,1.354v7.42c0,.981-.432,1.354-1.119,1.354S30.28-4.208,30.28-5.19ZM28.121-5.327c0,2.2,1.158,3.455,3.278,3.455s3.278-1.256,3.278-3.455v-7.145c0-2.2-1.158-3.455-3.278-3.455s-3.278,1.256-3.278,3.455ZM39.328-15.77H36.07V-2.03h3.4a2.921,2.921,0,0,0,3.278-3.258V-6.407c0-1.453-.451-2.493-1.609-2.944.962-.451,1.394-1.354,1.394-2.768v-.491C42.528-14.73,41.566-15.77,39.328-15.77Zm-.137,7.557c.981,0,1.394.393,1.394,1.668v1.2c0,1.021-.393,1.354-1.119,1.354H38.229v-4.22Zm.079-5.594c.765,0,1.1.432,1.1,1.413v.766c0,1.1-.491,1.453-1.3,1.453h-.844v-3.631Zm6.928,0h3.729V-15.77H44.039V-2.03h5.888V-3.992H46.2V-8.016h2.964V-9.979H46.2Zm8.244-1.963h-3.18V-2.03h2.159V-7.192h1.021c2.159,0,3.219-1.2,3.219-3.4v-1.786C57.66-14.573,56.6-15.77,54.442-15.77Zm0,1.963c.687,0,1.06.314,1.06,1.3v2.061c0,.981-.373,1.3-1.06,1.3H53.421v-4.652Zm6.2,1.2c0-.981.432-1.354,1.119-1.354s1.119.373,1.119,1.354v7.42c0,.981-.432,1.354-1.119,1.354s-1.119-.373-1.119-1.354ZM58.485-5.327c0,2.2,1.158,3.455,3.278,3.455S65.04-3.129,65.04-5.327v-7.145c0-2.2-1.158-3.455-3.278-3.455s-3.278,1.256-3.278,3.455Zm9.755,3.3a4.226,4.226,0,0,0,.2-1.688V-5.877c0-1.276.432-1.747,1.413-1.747h.746V-2.03h2.159V-15.77H69.5c-2.238,0-3.2,1.04-3.2,3.16v1.08A2.739,2.739,0,0,0,67.71-8.743c-1.08.451-1.433,1.492-1.433,2.925V-3.7a4.047,4.047,0,0,1-.236,1.668Zm2.355-11.777v4.22h-.844c-.8,0-1.3-.353-1.3-1.453v-1.354c0-.981.334-1.413,1.1-1.413Zm3.1,0h2.257V-2.03h2.159V-13.807h2.257V-15.77H73.7Zm9.774,5.889h2.453V-2.03h2.2V-15.77h-2.2v5.889H83.471V-15.77H81.312V-2.03h2.159Zm9.4,5.889c2.159,0,3.219-1.2,3.219-3.4V-7.212c0-2.2-1.06-3.4-3.219-3.4H91.852V-15.77H89.692V-2.03ZM91.852-3.992V-8.645h1.021c.687,0,1.06.314,1.06,1.3v2.061c0,.981-.373,1.3-1.06,1.3ZM99.487-2.03V-15.77H97.328V-2.03Zm3.788,0h-2.218V-15.77h1.924v8.7l.785-3.023,1.766-5.673h2.375V-2.03h-1.943v-9.677L105.08-8.33Zm3.533-16.8a2.029,2.029,0,0,1-2.3,2.179,2.025,2.025,0,0,1-2.257-2.179h1.335c.059.726.353.9.922.9.589,0,.922-.177.981-.9ZM5.079,10.692v1.963c0,.981-.432,1.335-1.119,1.335s-1.119-.353-1.119-1.335V5.235c0-.981.432-1.354,1.119-1.354s1.119.373,1.119,1.354V6.707H7.12V5.372c0-2.2-1.1-3.455-3.219-3.455S.682,3.174.682,5.372v7.145c0,2.2,1.1,3.455,3.219,3.455S7.12,14.716,7.12,12.517V10.692Zm3.356,5.123h5.653V17.66h2.1V13.891h-.942V2.075h-2.2V13.852H10.594V2.075H8.435ZM19.524,4.038h3.729V2.075H17.365v13.74h5.888V13.852H19.524V9.828h2.964V7.865H19.524Zm7.223,5.889H29.2v5.889h2.2V2.075H29.2V7.963H26.747V2.075H24.588v13.74h2.159ZM37.758,2.075H34.6l-2.2,13.74h1.982l.373-2.493H37.4l.373,2.493h2.179ZM36.07,4.509l1.04,6.949H35.03Zm8.067-2.434h-3.18v13.74h2.159V10.653h1.021c2.159,0,3.219-1.2,3.219-3.4V5.47C47.356,3.272,46.3,2.075,44.137,2.075Zm0,1.963c.687,0,1.06.314,1.06,1.3V7.394c0,.981-.373,1.3-1.06,1.3H43.117V4.038Zm8.244,5.476.883-3.376v9.677h1.943V2.075H52.832L51.066,7.747l-.785,3.023v-8.7H48.357v13.74h2.218Zm6.575,6.3H56.738V2.075h1.923v8.7l.785-3.023,1.766-5.673h2.375v13.74H61.645V6.138l-.883,3.376Zm3.533-16.8a2.029,2.029,0,0,1-2.3,2.179A2.025,2.025,0,0,1,57.935-.987H59.27c.059.726.353.9.922.9.589,0,.922-.177.981-.9Z" transform="translate(60.593 49.503)" fill="#a6a4a6"/><path d="M4.038-15.77H.859V-2.03H3.018V-7.192H4.038c2.159,0,3.219-1.2,3.219-3.4v-1.786C7.257-14.573,6.2-15.77,4.038-15.77Zm0,1.963c.687,0,1.06.314,1.06,1.3v2.061c0,.981-.373,1.3-1.06,1.3H3.018v-4.652Zm6.379,0h3.729V-15.77H8.258V-2.03h5.888V-3.992H10.417V-8.016h2.964V-9.979H10.417ZM20.27-15.77H17.11l-2.2,13.74h1.982l.373-2.493h2.65L20.29-2.03h2.179Zm-1.688,2.434,1.04,6.949H17.542ZM22.861-2.01h.334c2.159,0,3.062-.981,3.14-3.494l.236-8.3h1.884V-2.03h2.2V-15.77h-6.1L24.2-5.386c-.039,1.276-.353,1.413-1.335,1.413ZM36.325-8.33l.883-3.376V-2.03h1.943V-15.77H36.777L35.01-10.1l-.785,3.023v-8.7H32.3V-2.03H34.52ZM44.9-7.153V-5.19c0,.981-.432,1.335-1.119,1.335s-1.119-.353-1.119-1.335v-7.42c0-.981.432-1.354,1.119-1.354s1.119.373,1.119,1.354v1.472h2.041v-1.335c0-2.2-1.1-3.455-3.219-3.455s-3.219,1.256-3.219,3.455v7.145c0,2.2,1.1,3.455,3.219,3.455s3.219-1.256,3.219-3.455V-7.153Zm2.728-6.654h2.257V-2.03h2.159V-13.807H54.3V-15.77H47.631ZM59.27-8.33l.883-3.376V-2.03H62.1V-15.77H59.721L57.955-10.1,57.17-7.074v-8.7H55.246V-2.03h2.218Zm8.754-7.439V-10.2c0,.923-.432,1.413-1.119,1.413a1.213,1.213,0,0,1-1.256-1.354V-15.77H63.49v5.81c0,1.884.923,3.16,2.689,3.16a2.669,2.669,0,0,0,1.845-.766V-2.03h2.159V-15.77Zm5.908,7.852h2.453V-2.03h2.2V-15.77h-2.2v5.889H73.932V-15.77H71.773V-2.03h2.159Zm9.4,5.889c2.159,0,3.219-1.2,3.219-3.4V-7.212c0-2.2-1.06-3.4-3.219-3.4H82.313V-15.77H80.154V-2.03ZM82.313-3.992V-8.645h1.021c.687,0,1.06.314,1.06,1.3v2.061c0,.981-.373,1.3-1.06,1.3ZM89.948-2.03V-15.77H87.789V-2.03Zm3.788,0H91.518V-15.77h1.923v8.7l.785-3.023,1.766-5.673h2.375V-2.03H96.425v-9.677L95.541-8.33Zm3.533-16.8a2.029,2.029,0,0,1-2.3,2.179,2.025,2.025,0,0,1-2.257-2.179H94.05c.059.726.353.9.922.9.589,0,.922-.177.981-.9ZM5.079,10.692v1.963c0,.981-.432,1.335-1.119,1.335s-1.119-.353-1.119-1.335V5.235c0-.981.432-1.354,1.119-1.354s1.119.373,1.119,1.354V6.707H7.12V5.372c0-2.2-1.1-3.455-3.219-3.455S.682,3.174.682,5.372v7.145c0,2.2,1.1,3.455,3.219,3.455S7.12,14.716,7.12,12.517V10.692Zm3.356,5.123h5.653V17.66h2.1V13.891h-.942V2.075h-2.2V13.852H10.594V2.075H8.435ZM19.524,4.038h3.729V2.075H17.365v13.74h5.888V13.852H19.524V9.828h2.964V7.865H19.524Zm7.223,5.889H29.2v5.889h2.2V2.075H29.2V7.963H26.747V2.075H24.588v13.74h2.159ZM37.758,2.075H34.6l-2.2,13.74h1.982l.373-2.493H37.4l.373,2.493h2.179ZM36.07,4.509l1.04,6.949H35.03Zm8.067-2.434h-3.18v13.74h2.159V10.653h1.021c2.159,0,3.219-1.2,3.219-3.4V5.47C47.356,3.272,46.3,2.075,44.137,2.075Zm0,1.963c.687,0,1.06.314,1.06,1.3V7.394c0,.981-.373,1.3-1.06,1.3H43.117V4.038Zm8.244,5.476.883-3.376v9.677h1.943V2.075H52.832L51.066,7.747l-.785,3.023v-8.7H48.357v13.74h2.218Zm6.575,6.3H56.738V2.075h1.923v8.7l.785-3.023,1.766-5.673h2.375v13.74H61.645V6.138l-.883,3.376Zm3.533-16.8a2.029,2.029,0,0,1-2.3,2.179A2.025,2.025,0,0,1,57.935-.987H59.27c.059.726.353.9.922.9.589,0,.922-.177.981-.9Z" transform="translate(193.524 49.503)" fill="#a6a4a6"/><path d="M3.861-15.419h-3v13.74H2.742V-11.4L4.352-1.679H6.393l1.492-9.854v9.854H9.926v-13.74h-3L5.451-5.663Zm12.424,0h-3.16l-2.2,13.74h1.982l.373-2.493h2.65L16.3-1.679h2.179ZM14.6-12.985l1.04,6.949H13.557ZM21.663-1.679V-13.456H25.2v-1.963H19.5v13.74Zm9.009-6.3.883-3.376v9.677H33.5v-13.74H31.124L29.357-9.746l-.785,3.023v-8.7H26.648v13.74h2.218Zm6.163,6.3a4.226,4.226,0,0,0,.2-1.688V-5.526c0-1.276.432-1.747,1.413-1.747h.746v5.594h2.159v-13.74H38.091c-2.238,0-3.2,1.04-3.2,3.16v1.08a2.739,2.739,0,0,0,1.413,2.787c-1.08.451-1.433,1.492-1.433,2.925v2.12a4.047,4.047,0,0,1-.236,1.668ZM39.19-13.456v4.22h-.844c-.8,0-1.3-.353-1.3-1.453v-1.354c0-.981.334-1.413,1.1-1.413Zm11.7,11.777h2.218l-3-7.616,3-6.124H50.947L48.121-9.432v-5.987H45.962v13.74h2.159V-5.9l.667-1.256Zm7.223-6.3.883-3.376v9.677h1.943v-13.74H58.563L56.8-9.746l-.785,3.023v-8.7H54.088v13.74h2.218Zm6.516.412h2.453v5.889h2.2v-13.74h-2.2V-9.53H64.628v-5.889H62.469v13.74h2.159Zm8.2-4.691c0-.981.432-1.354,1.119-1.354s1.119.373,1.119,1.354v7.42c0,.981-.432,1.354-1.119,1.354s-1.119-.373-1.119-1.354ZM70.673-4.976c0,2.2,1.158,3.455,3.278,3.455s3.278-1.256,3.278-3.455v-7.145c0-2.2-1.158-3.455-3.278-3.455s-3.278,1.256-3.278,3.455Z" transform="translate(327.329 49.152)" fill="#a6a4a6"/></g></g></svg>