<svg xmlns="http://www.w3.org/2000/svg" width="181.43" height="204.375" viewBox="0 0 181.43 204.375"><g transform="translate(-237.809 -228.837)"><path d="M-31.125-3h1.25V0h1.12V-7h-1.12v3h-1.25V-7h-1.1V0h1.1Zm5.61-4h-1.61l-1.12,7h1.01l.19-1.27h1.35L-25.5,0h1.11Zm-.86,1.24.53,3.54H-26.9Zm4.61.87c0,.56-.25.74-.66.74h-.33v1h.27c.5,0,.72.24.72.89v.55c0,.62-.22.79-.57.79s-.57-.19-.57-.69v-.84h-1.04v.77c0,1.12.56,1.76,1.64,1.76s1.64-.64,1.64-1.76v-.55a1.428,1.428,0,0,0-.77-1.47,1.364,1.364,0,0,0,.77-1.44v-.18c0-1.12-.56-1.76-1.64-1.76s-1.62.62-1.62,1.74v.52h1.01v-.57c0-.5.23-.69.58-.69s.57.17.57.8ZM-18.825-3h1.25V0h1.12V-7h-1.12v3h-1.25V-7h-1.1V0h1.1Zm5.61-4h-1.61l-1.12,7h1.01l.19-1.27h1.35L-13.2,0h1.11Zm-.86,1.24.53,3.54h-1.06ZM-9.345-7v2.84c0,.47-.22.72-.57.72a.618.618,0,0,1-.64-.69V-7h-1.1v2.96c0,.96.47,1.61,1.37,1.61a1.36,1.36,0,0,0,.94-.39V0h1.1V-7Zm3.96,3.79.45-1.72V0h.99V-7h-1.21l-.9,2.89-.4,1.54V-7h-.98V0h1.13ZM-3.485-6h1.15V0h1.1V-6h1.15V-7h-3.4Zm5.5,6c1.1,0,1.64-.61,1.64-1.73v-.91c0-1.12-.54-1.73-1.64-1.73h-.52V-7H.395V0Zm-.52-1V-3.37h.52c.35,0,.54.16.54.66v1.05c0,.5-.19.66-.54.66Zm6.03-6H5.865V0h1.73a1.488,1.488,0,0,0,1.67-1.66v-.57a1.415,1.415,0,0,0-.82-1.5,1.375,1.375,0,0,0,.71-1.41v-.25C9.155-6.47,8.665-7,7.525-7Zm-.07,3.85c.5,0,.71.2.71.85v.61c0,.52-.2.69-.57.69h-.63V-3.15ZM7.495-6c.39,0,.56.22.56.72v.39c0,.56-.25.74-.66.74h-.43V-6Zm4.58,3.39v1c0,.5-.22.68-.57.68s-.57-.18-.57-.68V-5.39c0-.5.22-.69.57-.69s.57.19.57.69v.75h1.04v-.68c0-1.12-.56-1.76-1.64-1.76s-1.64.64-1.64,1.76v3.64c0,1.12.56,1.76,1.64,1.76s1.64-.64,1.64-1.76v-.93ZM13.465-6h1.15V0h1.1V-6h1.15V-7h-3.4Zm5.5-1h-1.62V0h1.1V-2.63h.52c1.1,0,1.64-.61,1.64-1.73v-.91C20.6-6.39,20.065-7,18.965-7Zm0,1c.35,0,.54.16.54.66v1.05c0,.5-.19.66-.54.66h-.52V-6Zm3.25,0h1.9V-7h-3V0h3V-1h-1.9V-3.05h1.51v-1h-1.51Zm4.82-1v2.84c0,.47-.22.72-.57.72a.618.618,0,0,1-.64-.69V-7h-1.1v2.96c0,.96.47,1.61,1.37,1.61a1.36,1.36,0,0,0,.94-.39V0h1.1V-7Zm5.53,0h-1.15l-.5,2.4-.26,1.63-.34-1.64L29.715-7h-1.09l1.52,5.4-.01.06c-.09.51-.41.61-.97.57V.01c1.53.1,1.96-.53,2.22-1.79Z" transform="translate(328.724 356.288)" fill="#fff9ea"/><g transform="translate(237.809 228.837)"><path d="M260.574,229.029c9.03-.058,21.638-.183,22.42-.192a57.973,57.973,0,0,0,7.207.175,11.152,11.152,0,0,1,7.391,1.415c9.154,6.034,10.078,8.6,10.078,9.421a7.226,7.226,0,0,1-.158,1.664,5.04,5.04,0,0,0-2.23-.891,3.062,3.062,0,0,1-2.222-1.132,3.12,3.12,0,0,1-.208-2.438.832.832,0,1,0-1.557-.391,4.111,4.111,0,0,0,3.762,5.559,4.461,4.461,0,0,1,2.347,1.257,6.266,6.266,0,0,0,4.444,1.814h.533c3.146,0,3.712,0,5.576,2.03s1.881,2.189,1.914,4.294v.433a4.6,4.6,0,0,1-1.548,3.787l-.566.7h-1.182a6.493,6.493,0,0,1-5.235-2.688c-.325-.325-.666-.674-1.049-1.049a.832.832,0,0,0-1.115,1.157c.374.358.707.7,1.023,1.016a8.081,8.081,0,0,0,6.308,3.162h2a5.069,5.069,0,0,1,5.335,2.414c2,2.68,2,2.7,1.905,3.911,0,.283-.05.616-.058,1.032a6.657,6.657,0,0,1-2.655,4.227l-.474.449A15.7,15.7,0,0,1,316,271.1a17.994,17.994,0,0,0-3.737-1.248.832.832,0,0,0-.225,1.59,34.255,34.255,0,0,1,6.092,2.322,59.692,59.692,0,0,0,5.684,2.305,99.834,99.834,0,0,0,19.332,1.665,16.309,16.309,0,0,1,6.292,1.215,16.393,16.393,0,0,0,3.562.982,70.288,70.288,0,0,0,7.79.416c1.473,0,2.988.058,4.544.125h.649c1.457.067,2.555.108,3.42.191a2.523,2.523,0,0,0-.433.308,5.658,5.658,0,0,0-1.332,4.236,3.845,3.845,0,0,0,3.348,4.285q.165.02.331.026a32.888,32.888,0,0,1-8.247,1.464,28.242,28.242,0,0,1-4.993-.108c-1.722-.141-3.861-.325-7.79-.357a83.378,83.378,0,0,1-14.356-1.307c-1.665-.25-3.562-.541-5.867-.832a49.242,49.242,0,0,0-14.506.175,145.122,145.122,0,0,1-14.556,1.1,51.261,51.261,0,0,0-19.341,3.612,99.735,99.735,0,0,1-11.651,3.554.832.832,0,0,0,.175,1.589.745.745,0,0,0,.191,0,96.627,96.627,0,0,0,10.47-3.121,30.56,30.56,0,0,0-9.462,15.637,36.278,36.278,0,0,0,2.83,14.714c.724,2.23,1.539,4.76,2.438,7.814a28.047,28.047,0,0,1-1.107,20.231,12.485,12.485,0,0,0-.5-5.959,4.336,4.336,0,0,0-5.275-3.126q-.152.039-.3.088a.832.832,0,0,0,.333,1.573,2.771,2.771,0,0,1,3.589,1.574,2.842,2.842,0,0,1,.114.365,9.269,9.269,0,0,1,.283,5.692,6.092,6.092,0,0,1-5.4,2.954c-1.664-.225-1.448-6.475-1.39-8.539v-1.5a17.151,17.151,0,0,0-1.664-5.95c-.258-.666-.541-1.406-.832-2.239-.608-1.665-1.1-3.112-1.664-4.819-.832-2.5-1.748-5.293-3.329-9.52a56.742,56.742,0,0,0-4.794-9.238,26.423,26.423,0,0,1-3.478-7.09,42.769,42.769,0,0,0-5.476-12.991c-1.024-1.9-2.1-3.537-3.137-5.118a21.562,21.562,0,0,1-4.777-12.533c-.208-19.665.225-35.319,7.706-42.934A20.138,20.138,0,0,1,260.574,229.029Z" transform="translate(-237.809 -228.837)" fill="#fff9ea"/><path d="M557.235,360.977c.067-1.748.308-2.663.791-3.088a2.771,2.771,0,0,1,1.856-.433,6.781,6.781,0,0,1,1.04.058c2.638.242,2.938,1.814,2.863,3.47a2.755,2.755,0,0,1-.757,2.039,3.77,3.77,0,0,1-2.754.682C557.135,363.557,557.2,361.876,557.235,360.977Z" transform="translate(-425.832 -304.536)" fill="#fff9ea"/><path d="M481.611,660.122a55.815,55.815,0,0,0,10.494-3.562,6.414,6.414,0,0,0,.266.749,15.164,15.164,0,0,1,1.016,4.294c.141,1.166.241,2,.882,2.455a1.38,1.38,0,0,0,.832.25,1.983,1.983,0,0,0,.45-.05,6.1,6.1,0,0,0,.732-.225,22.261,22.261,0,0,1-3.329,2.4l-1.132.707a17,17,0,0,1-7.265,3.271,32.589,32.589,0,0,0-7.565,2,38.054,38.054,0,0,1-6.533,1.84c-.715.05-1.331.083-1.881.1a.833.833,0,0,0-.666,0,6.308,6.308,0,0,1-3.6-1.14c-.441-.283-.832-.516-1.207-.716a3.9,3.9,0,0,1-2.5-3.537,5.984,5.984,0,0,1,.89-5.759c3.329-.283,10.878-1.531,15.945-2.372C479.214,660.5,480.688,660.263,481.611,660.122Z" transform="translate(-368.742 -480.613)" fill="#fff9ea"/><path d="M349.951,471.151a46.1,46.1,0,0,1,9.155-.832c2.272,0,5.176-.275,7.739-.475,2.413-.191,4.694-.374,5.984-.366.882,0,2.031.125,3.5.267a96.9,96.9,0,0,0,12.392.574,76.074,76.074,0,0,0,8.439-.65,56.447,56.447,0,0,1,9.155-.516,74.187,74.187,0,0,0,22.47-3.379,24.219,24.219,0,0,0-2.879,7.074.832.832,0,0,0,.616.957h.166a.832.832,0,0,0,.791-.632,39.3,39.3,0,0,1,10.037-16.12c.832-.94,1.606-1.823,2.264-2.622,3.645-4.419,4.427-6.5,3.137-15.288a68.28,68.28,0,0,0-2.588-10.311,39.207,39.207,0,0,1-2.43-12.209,29.011,29.011,0,0,1,7.848-18.933,3.894,3.894,0,0,1,3.179-.733,2.14,2.14,0,0,1,1.132.832,11.236,11.236,0,0,0-1.057,9.479,10.469,10.469,0,0,0,.158,1.747c.6,3.387,2.9,13.241,4.028,16.944l.1.308a50.574,50.574,0,0,0,4.053,10.7c.333.524.833,1.165,1.332,1.906a20.673,20.673,0,0,1,4.6,9.1,46.849,46.849,0,0,0,7.848,18.425,33,33,0,0,1,7.057,13.482c.183,2.081.449,4.161.7,6.217,1.664,13.424,3.279,26.1-16.911,37.45a68.986,68.986,0,0,1-26.731,4.427,89.877,89.877,0,0,0-26.589,2.9l-.7.283a6.834,6.834,0,0,1-6.658.192c-3.52-1.407-3.695-2.089-4.2-4.111a3.953,3.953,0,0,1,.832-4.161c.657,0,1.373-.05,2.164-.108a37.039,37.039,0,0,0,6.932-1.914,34.586,34.586,0,0,1,7.04-1.914,9.063,9.063,0,0,0,3.82-1.024,4.521,4.521,0,0,0,.225,3.62l.05.125.091.1a3.437,3.437,0,0,0,2.447.907,5.683,5.683,0,0,0,1.664-.267l-.191.15a29.486,29.486,0,0,1-6.94,3.62.805.805,0,0,0,.524,1.523,30.65,30.65,0,0,0,7.374-3.854c3.171-2.363,3.088-4.161,3.046-5.218v-.308a3.412,3.412,0,0,0-2.929-3.545h.05c2.605-1.606,5.3-3.579,5.743-6.034a5.9,5.9,0,0,0,.724-1.015,4.469,4.469,0,0,0,.275-3.778,5.235,5.235,0,0,0-3.246-3.287,4.614,4.614,0,0,0,1.456-1.623,5.4,5.4,0,0,0,1.781-5.226,5,5,0,0,0-2.722-3.329c-3.2-3.087-5.476-2.5-9.845-1.073a50.929,50.929,0,0,1-13.057,1.864.831.831,0,0,0-.158-.524c-.557-.724-1.065-1.389-1.531-2.006-.682-.89-1.282-1.664-1.848-2.363a.764.764,0,0,0-.142-.175c-3.212-3.886-5.226-4.685-12.8-4.569a164.522,164.522,0,0,1-16.519-.632c-1.706-.133-3.329-.258-4.877-.333-5.485-.283-12.242-.341-16.428-.133l-1.065.058a10.35,10.35,0,0,1-7.1-1.065,4.32,4.32,0,0,1-1.257-3.171c-.2-3.928,3.845-4.727,7.648-5.16A12.243,12.243,0,0,0,349.951,471.151Z" transform="translate(-298.349 -327.752)" fill="#fff9ea"/><path d="M450.448,623.877a15.926,15.926,0,0,0,9.57-4.785c.383.483.782,1.016,1.223,1.6l1.223,1.6c-1.914,0-3.87,0-5.825-.116a.832.832,0,0,0-.092,1.606c1.306.075,2.63.116,3.945.125a59.68,59.68,0,0,0,17.243-1.989,9.67,9.67,0,0,1,5.826-.891,7.276,7.276,0,0,0-1.9.633c-3.678,1.814-3.453,3.1-2.788,6.907.067.408.15.832.225,1.331a2.67,2.67,0,0,0,1.148,1.964,2.846,2.846,0,0,0,1.548.4,5.937,5.937,0,0,0,.632,0,47.22,47.22,0,0,1-11.8,4.269l-4.161.683c-5.26.832-13.2,2.189-16.211,2.388h0a9.713,9.713,0,0,1-7.79-3.712,12.219,12.219,0,0,1,.275-7.024,10.06,10.06,0,0,1,4.6-4.061A15.461,15.461,0,0,1,450.448,623.877Z" transform="translate(-358.051 -458.557)" fill="#fff9ea"/><path d="M607.76,402.055a20.921,20.921,0,0,1-.649,3.329c-.108.4-.233.832-.366,1.281A7.274,7.274,0,0,1,607.76,402.055Z" transform="translate(-454.952 -330.8)" fill="#fff9ea"/><path d="M536.012,690.586v.183c.191,1.115.358,2.073-1.332,2.663a2.829,2.829,0,0,1-2.622-.058,2.788,2.788,0,0,1-.05-2.4,2.306,2.306,0,0,1,1.723-1.091,5.587,5.587,0,0,1,.832-.067C535.264,689.828,535.9,689.987,536.012,690.586Z" transform="translate(-410.843 -500.191)" fill="#fff9ea"/><path d="M542.714,659.117a16.649,16.649,0,0,0-1.132-4.719,3.038,3.038,0,0,1-.258-.832c.591-.291,1.157-.583,1.664-.882a3.686,3.686,0,0,1,3.745,2.5,2.828,2.828,0,0,1-.175,2.5,6.473,6.473,0,0,1-3.645,2.7A8.067,8.067,0,0,1,542.714,659.117Z" transform="translate(-416.471 -478.326)" fill="#fff9ea"/><path d="M535.618,635.448c-.075-.05-.308-.2-.424-.832-.083-.483-.158-.932-.225-1.34-.649-3.687-.683-3.911,1.914-5.193a5.21,5.21,0,0,1,2.322-.574,3.9,3.9,0,0,1,1.664.367,3.421,3.421,0,0,1,1.9,2.264,4.445,4.445,0,0,1-3.612,4.952C537.8,635.431,536.209,635.822,535.618,635.448Z" transform="translate(-412.513 -463.511)" fill="#fff9ea"/></g><path d="M452.612,446.038l-21.847-12.613a2.071,2.071,0,0,0-3.107,1.794v25.227a2.071,2.071,0,0,0,3.107,1.793l21.847-12.613A2.071,2.071,0,0,0,452.612,446.038Z" transform="translate(-111.753 -120.264)" fill="#fff9ea"/></g></svg>