<svg xmlns="http://www.w3.org/2000/svg" width="123" height="37" viewBox="0 0 123 37"><g transform="translate(1935.795 1733.12)"><path d="M-408.669-1315.258a3.022,3.022,0,0,0-2.046-.085l-.488.141-.055,1.923c-.07,2.424.044,10.71.148,10.836a.538.538,0,0,0,.293.107h0a4.6,4.6,0,0,0,1.458-.048,3.148,3.148,0,0,0,1.364-.969,8.68,8.68,0,0,0,1.5-4.038,20.2,20.2,0,0,0,.03-3.935C-406.84-1313.442-407.565-1314.735-408.669-1315.258Z" transform="translate(-1457.395 -402.313)" fill="#19528b"/><path d="M-1180.664-1337.4a2.086,2.086,0,0,0-2.135-.406c-.951.423-1.561,1.677-1.85,3.8a27.639,27.639,0,0,0,.041,5.982c.356,2.188,1.067,3.57,2.07,4.025h0a2.223,2.223,0,0,0,1.561-.022c1.153-.537,1.771-2.082,1.973-4.93C-1178.723-1332.925-1179.374-1336.238-1180.664-1337.4Z" transform="translate(-712.11 -380.666)" fill="#19528b"/><path d="M5.1-1338.331a1.353,1.353,0,0,0-.857-.37,2.36,2.36,0,0,0-.455.1,1.546,1.546,0,0,0-.731.5,5.723,5.723,0,0,0-1.305,2.939,8.939,8.939,0,0,0-.181,1.724h0c.033.054,2.77.018,4.044-.053l.635-.035-.037-.955C6.136-1336.415,5.758-1337.722,5.1-1338.331Z" transform="translate(-1855.169 -379.943)" fill="#19528b"/><path d="M-1935.8-1733.12v37h123v-37Zm27.12,17.894.561,0c.309,0,.918-.025,1.353-.051a2.691,2.691,0,0,0,1.123-.2,2.9,2.9,0,0,0,1.411-2.125l.145-.58.5-.018.5-.018v7.335l-.5-.018-.5-.018-.141-.58a3.023,3.023,0,0,0-1.4-2.149,8.715,8.715,0,0,0-2.4-.245l-.652-.02v1.378c0,1.5.082,3.532.187,4.635.147,1.537.537,2.386,1.238,2.693a5.4,5.4,0,0,0,.942.212,5.585,5.585,0,0,1,.8.16c.148.077.157.873.01.929-.115.045-10.827.041-10.936,0-.051-.021-.076-.173-.076-.454,0-.506-.032-.483.941-.665a1.757,1.757,0,0,0,1.343-.716c.639-.842.777-2.464.778-9.142,0-6.272-.119-7.591-.78-8.56a2.078,2.078,0,0,0-1.615-.763l-.637-.077-.018-.5-.017-.5.2-.036c.11-.02,3.968-.028,8.574-.019l8.375.017.039.244c.022.134.057,1.512.079,3.061l.039,2.817-.432.132c-.65.2-.646.2-.938-.577-.718-1.911-1.542-3.012-2.669-3.568-.777-.384-1.137-.43-3.332-.43h-1.91l-.033.32c-.062.6-.159,4.467-.158,6.287Zm16.867,11.436a8.551,8.551,0,0,1-.991.218,16.266,16.266,0,0,1-2.734,0,6.576,6.576,0,0,1-3.742-1.821,6.845,6.845,0,0,1-1.743-2.946,10.955,10.955,0,0,1,0-6.274,7.359,7.359,0,0,1,3.56-4.236,8.4,8.4,0,0,1,7.539.17,7.329,7.329,0,0,1,3.345,5.807,14.327,14.327,0,0,1-.119,3.3A7.25,7.25,0,0,1-1891.807-1703.79Zm16.3-11.212a2.434,2.434,0,0,1-.64-.246,4.223,4.223,0,0,0-1.854-.466,2.914,2.914,0,0,0-1.888.626c-.139.15-.14.159-.174,2.4-.034,2.221.039,4.93.163,6.019.106.928.351,1.385.858,1.6a9.02,9.02,0,0,0,1.587.219,1.2,1.2,0,0,1,.03.473l-.018.473-4.492.015c-2.471.008-4.527-.008-4.571-.036h0c-.055-.035-.073-.176-.061-.472l.018-.422.212-.045c.117-.025.368-.075.558-.11a1.336,1.336,0,0,0,1.116-1.06,31.7,31.7,0,0,0,.227-5.438c0-4.022-.079-4.972-.483-5.51-.219-.292-.377-.375-.909-.477l-.614-.121c-.122-.026-.137-.065-.137-.365s.018-.343.137-.392c.182-.075,6.195-1.284,6.387-1.284h.15l-.029.9c-.016.5-.042,1.216-.057,1.6l-.028.7.218-.4a5.457,5.457,0,0,1,2.519-2.529,3.4,3.4,0,0,1,1.657-.342c.837,0,1.673.274,1.673.549C-1873.955-1718.949-1875.429-1715.033-1875.51-1715Zm16.246,4.282a11.308,11.308,0,0,1-.609,2.485,7.354,7.354,0,0,1-5.992,4.637,22.6,22.6,0,0,1-3.6.022h0c-.6-.061-2.442-.369-3.085-.516l-.445-.1.035-2.388c.083-5.75.094-8.888.04-11.941a18.788,18.788,0,0,0-.183-3.749,2.008,2.008,0,0,0-.607-1.132,2.09,2.09,0,0,0-.592-.221c-.756-.171-.715-.143-.735-.49-.011-.2.01-.332.061-.372.068-.054,6.267-1.243,6.465-1.24a24.462,24.462,0,0,1,.036,3.542c-.021,1.947-.023,3.54-.006,3.54s.244-.1.5-.219a6.1,6.1,0,0,1,2.55-.558,5.374,5.374,0,0,1,1.378.065c2.338.487,4.069,2.411,4.673,5.2A14.756,14.756,0,0,1-1859.265-1710.719Zm14.8-1.791-.02.305-4.492.016-4.492.016.017.534a7.621,7.621,0,0,0,.793,3.281,3.9,3.9,0,0,0,.829,1.1,4.326,4.326,0,0,0,3.46,1.367,4.617,4.617,0,0,0,2.73-.762,2.082,2.082,0,0,1,.524-.275c.127,0,.419.378.419.542,0,.269-.871,1.136-1.72,1.714a7.764,7.764,0,0,1-2.756,1.069,11.312,11.312,0,0,1-2.838-.005,7.231,7.231,0,0,1-5.869-5.852,8.972,8.972,0,0,1-.153-1.74,8.765,8.765,0,0,1,.434-3.328,7.153,7.153,0,0,1,3.7-4.395,7.443,7.443,0,0,1,6.126-.144c1.877.946,2.981,2.834,3.261,5.577A8.106,8.106,0,0,1-1844.466-1712.51Zm12.379,4.02a3.808,3.808,0,0,1-.224,1.443,5.062,5.062,0,0,1-3.826,3.311,6.328,6.328,0,0,1-2.1.2c-.768.008-1.505,0-1.639-.011h0a16.641,16.641,0,0,1-3.375-.743l-.28-.121-.038-1.395c-.021-.767-.045-1.792-.054-2.279l-.016-.884.168-.081a1.291,1.291,0,0,1,.414-.092l.246-.011.21.519c.818,2.024,1.777,3.115,3.03,3.447a3.98,3.98,0,0,0,1.728,0,2.156,2.156,0,0,0,1.539-2.137c.006-1.221-.662-1.807-3.182-2.8a6.581,6.581,0,0,1-2.755-1.6,3.873,3.873,0,0,1-1.1-2.682,4.511,4.511,0,0,1,1.3-3.534,5.821,5.821,0,0,1,3.895-1.694,12.476,12.476,0,0,1,4.98.692l.219.093.039,1.243c.022.684.044,1.6.049,2.036l.01.793-.294.11c-.464.173-.5.152-.754-.537-.725-1.93-1.566-2.844-2.878-3.123a1.958,1.958,0,0,0-1.952.534,1.945,1.945,0,0,0-.562,1.375,1.7,1.7,0,0,0,.478,1.453,8.125,8.125,0,0,0,2.906,1.685c1.969.827,2.908,1.53,3.419,2.556A4.075,4.075,0,0,1-1832.087-1708.49Z" transform="translate(0 0)" fill="#19528b"/></g></svg>