<svg xmlns="http://www.w3.org/2000/svg" width="67" height="26" viewBox="0 0 67 26"><g transform="translate(-196 -736)"><g transform="translate(196 736)" fill="#fff" stroke="#707070" stroke-width="1" opacity="0"><rect width="67" height="26" stroke="none"/><rect x="0.5" y="0.5" width="66" height="25" fill="none"/></g><g transform="translate(-2453.281 -361.617)"><path d="M2682.681,1104.976a1.38,1.38,0,0,1,.384.144,1.3,1.3,0,0,1,.394.735,12.126,12.126,0,0,1,.119,2.433c.035,1.981.028,4.018-.026,7.75l-.022,1.55.289.067c.415.095,1.609.294,2,.335a14.677,14.677,0,0,0,2.335-.015,4.772,4.772,0,0,0,3.889-3.01,7.319,7.319,0,0,0,.4-1.613h0a9.555,9.555,0,0,0-.073-2.223,4.074,4.074,0,0,0-3.033-3.374,3.52,3.52,0,0,0-.894-.042,3.974,3.974,0,0,0-1.655.362,3.445,3.445,0,0,1-.327.143c-.015,0-.013-1.037,0-2.3a15.933,15.933,0,0,0-.023-2.3c-.132-.007-4.167.774-4.2.8s-.046.112-.039.241C2682.217,1104.883,2682.191,1104.865,2682.681,1104.976Zm3.672,5.213.036-1.248.317-.091a1.962,1.962,0,0,1,1.328.055c.717.336,1.186,1.179,1.436,2.551a13.033,13.033,0,0,1-.019,2.554,5.626,5.626,0,0,1-.975,2.621,2.041,2.041,0,0,1-.886.629,2.979,2.979,0,0,1-.947.031.354.354,0,0,1-.19-.069C2686.381,1117.14,2686.308,1111.762,2686.353,1110.189Z" fill="#19528b"/><path d="M2697.146,1117.974a7.279,7.279,0,0,0,1.842,0,5.025,5.025,0,0,0,1.789-.694c.551-.374,1.116-.937,1.116-1.112,0-.107-.19-.352-.272-.352a1.357,1.357,0,0,0-.34.178,3,3,0,0,1-1.772.494,2.808,2.808,0,0,1-2.246-.887,2.532,2.532,0,0,1-.538-.716,4.931,4.931,0,0,1-.515-2.129l-.011-.346,2.915-.01,2.916-.01.013-.2h.01a5.108,5.108,0,0,0-.042-.631,4.2,4.2,0,0,0-2.117-3.62,4.834,4.834,0,0,0-3.976.093,4.648,4.648,0,0,0-2.4,2.853,5.688,5.688,0,0,0-.281,2.16,5.852,5.852,0,0,0,.1,1.129A4.694,4.694,0,0,0,2697.146,1117.974Zm-.91-7.467a3.712,3.712,0,0,1,.847-1.908,1,1,0,0,1,.475-.327,1.538,1.538,0,0,1,.3-.063.883.883,0,0,1,.556.24,3.7,3.7,0,0,1,.718,2.5l.024.62-.412.023c-.825.047-2.6.07-2.625.035A5.837,5.837,0,0,1,2696.236,1110.507Z" fill="#19528b"/><path d="M2674.8,1108.9l.4.078c.345.067.448.121.59.31.263.349.314.966.314,3.576a20.6,20.6,0,0,1-.147,3.53.866.866,0,0,1-.724.688c-.123.023-.286.056-.362.072l-.138.03-.012.274c-.009.192,0,.284.039.307s1.367.028,2.967.023l2.915-.01.011-.307a.771.771,0,0,0-.02-.307,5.868,5.868,0,0,1-1.03-.142c-.329-.137-.488-.437-.557-1.037-.08-.707-.128-2.448-.106-3.907s.023-1.459.113-1.559a1.892,1.892,0,0,1,1.225-.406,2.751,2.751,0,0,1,1.2.3,1.552,1.552,0,0,0,.415.16h.005c.053-.02,1.009-2.562,1.012-2.682,0-.178-.543-.356-1.086-.356a2.213,2.213,0,0,0-1.076.222,3.547,3.547,0,0,0-1.635,1.642l-.141.256.018-.456c.01-.251.026-.719.037-1.04l.019-.584h-.1c-.125,0-4.028.784-4.146.833-.077.032-.089.06-.089.255S2674.726,1108.884,2674.8,1108.9Z" fill="#19528b"/><path d="M2702.626,1116.543l.025.905.182.078a10.827,10.827,0,0,0,2.191.483c.087.006.564.012,1.064.006a4.064,4.064,0,0,0,1.362-.13,3.285,3.285,0,0,0,2.483-2.149,2.448,2.448,0,0,0,.145-.937h.01a2.638,2.638,0,0,0-.264-1.441,3.822,3.822,0,0,0-2.219-1.659,5.282,5.282,0,0,1-1.887-1.094,1.1,1.1,0,0,1-.31-.943,1.293,1.293,0,0,1,1.632-1.24c.851.182,1.4.774,1.868,2.027.168.449.189.462.489.349l.191-.071-.007-.515c0-.284-.018-.879-.032-1.322l-.025-.807-.142-.062a8.091,8.091,0,0,0-3.232-.448,3.773,3.773,0,0,0-2.528,1.1,2.928,2.928,0,0,0-.847,2.294,2.516,2.516,0,0,0,.713,1.741,4.264,4.264,0,0,0,1.788,1.035c1.637.643,2.066,1.025,2.066,1.817a1.4,1.4,0,0,1-1,1.387,2.584,2.584,0,0,1-1.121,0c-.813-.217-1.435-.925-1.966-2.239l-.136-.337-.16.007a.89.89,0,0,0-.269.06l-.109.052.01.574C2702.6,1115.38,2702.612,1116.043,2702.626,1116.543Z" fill="#19528b"/><path d="M2655.3,1104.531l.414.051a1.345,1.345,0,0,1,1.048.5c.429.628.506,1.484.506,5.555,0,4.334-.09,5.387-.5,5.935a1.137,1.137,0,0,1-.871.464c-.632.118-.611.1-.611.432,0,.182.016.282.049.294.073.028,7.026.03,7.1,0,.093-.033.093-.549-.007-.6a3.564,3.564,0,0,0-.522-.1,3.55,3.55,0,0,1-.611-.137c-.451-.2-.7-.749-.8-1.749-.069-.715-.122-2.033-.122-3.008v-.894l.424.013a5.671,5.671,0,0,1,1.557.16,1.956,1.956,0,0,1,.91,1.4l.091.376.322.012.322.011v-4.761l-.322.011-.322.012-.094.376a1.88,1.88,0,0,1-.916,1.379,1.734,1.734,0,0,1-.729.131c-.278.017-.678.033-.878.033h-.364v-1.192c0-1.182.06-3.692.1-4.081l.021-.208h1.24c1.424,0,1.662.03,2.162.279a3.834,3.834,0,0,1,1.732,2.316c.19.506.187.5.609.375l.28-.085-.026-1.828c-.014-1.006-.037-1.9-.051-1.987l-.026-.158-5.436-.011c-2.989-.006-5.494,0-5.565.012l-.13.023.011.325Z" fill="#19528b"/><path d="M2665.341,1110.824a7.114,7.114,0,0,0,0,4.073,4.45,4.45,0,0,0,1.132,1.912,4.265,4.265,0,0,0,2.429,1.182,10.509,10.509,0,0,0,1.775,0,5.4,5.4,0,0,0,.643-.141h.006a4.7,4.7,0,0,0,3.314-3.758,9.276,9.276,0,0,0,.077-2.139,4.755,4.755,0,0,0-2.171-3.769,5.452,5.452,0,0,0-4.894-.11A4.776,4.776,0,0,0,2665.341,1110.824Zm2.771-.045c.187-1.377.583-2.191,1.2-2.466a1.357,1.357,0,0,1,1.386.264c.837.761,1.26,2.912,1.079,5.483-.131,1.849-.533,2.851-1.281,3.2a1.443,1.443,0,0,1-1.013.014c-.651-.3-1.113-1.192-1.344-2.612A17.937,17.937,0,0,1,2668.112,1110.779Z" fill="#19528b"/></g></g></svg>