<svg xmlns="http://www.w3.org/2000/svg" width="11.285" height="11.288" viewBox="0 0 11.285 11.288"><path d="M-789.723,3171.857l4.291-4.291-.014-.041c-.219.068-.442.123-.65.21a.5.5,0,0,0-.176.224c-.069.122-.108.259-.183.374-.225.362-.594.361-.761-.029a3.492,3.492,0,0,1-.248-.919.672.672,0,0,1,.419-.7,3.654,3.654,0,0,1,.675-.257c.923-.254,1.851-.494,2.778-.736a2.842,2.842,0,0,1,.384-.069.662.662,0,0,1,.561.194q1.042,1.032,2.073,2.073a.748.748,0,0,1-.009.986,2.216,2.216,0,0,1-.194.219c-.951.95-1.908,1.9-2.848,2.856a.833.833,0,0,1-.817.259c-.08-.016-.155-.03-.233-.042a.37.37,0,0,0-.438.285.37.37,0,0,0,0,.161c.021.147.043.294.059.441a.6.6,0,0,1-.188.5l-3,3a1.063,1.063,0,0,1-.675.337.615.615,0,0,1-.511-.176l-2.043-2.042a.69.69,0,0,1-.186-.683c.128-.53.259-1.059.4-1.583q.251-.944.522-1.882a1.1,1.1,0,0,1,.365-.565.586.586,0,0,1,.48-.147,4.727,4.727,0,0,1,.921.252c.359.151.376.491.056.716a2.222,2.222,0,0,1-.408.207.485.485,0,0,0-.3.341c-.043.168-.084.337-.125.508Zm2.114,2.351c.287-.286.577-.57.86-.86a.541.541,0,0,0,.061-.762.589.589,0,0,0-.066-.064q-.252-.261-.513-.513a.574.574,0,0,0-.81-.059.506.506,0,0,0-.063.063l-.7.7c-.334.334-.675.667-1,1.009a.6.6,0,0,0-.01.85l.006.006c.174.181.355.355.533.533a.513.513,0,0,0,.374.161.679.679,0,0,0,.494-.222Zm4.516-4.515h0c.292-.293.59-.581.878-.879a.558.558,0,0,0,.056-.786.561.561,0,0,0-.066-.064l-.493-.493a.584.584,0,0,0-.824-.049.55.55,0,0,0-.043.042q-.858.849-1.707,1.708a.59.59,0,0,0-.041.833c.012.013.025.026.039.038.145.151.3.289.444.444a.607.607,0,0,0,.851.117.576.576,0,0,0,.119-.119C-783.627,3170.214-783.356,3169.957-783.093,3169.694Z" transform="translate(-3165.622 -780.392) rotate(-90)" fill="#fffdec"/></svg>