<svg xmlns="http://www.w3.org/2000/svg" xmlns:xlink="http://www.w3.org/1999/xlink" width="509.5" height="535.576" viewBox="0 0 509.5 535.576"><defs><filter id="a" x="301.5" y="33.576" width="208" height="56" filterUnits="userSpaceOnUse"><feOffset dy="2" input="SourceAlpha"/><feGaussianBlur stdDeviation="3" result="b"/><feFlood flood-opacity="0.161"/><feComposite operator="in" in2="b"/><feComposite in="SourceGraphic"/></filter></defs><g transform="translate(-121.5 -187.424)"><g transform="translate(7485 -5763)"><line y2="165" transform="translate(-7299 5985)" fill="none" stroke="#e3ddd5" stroke-width="2"/><line y2="165" transform="translate(-7259 5985)" fill="none" stroke="#e3ddd5" stroke-width="2"/><line y2="165" transform="translate(-7219 5985)" fill="none" stroke="#e3ddd5" stroke-width="2"/><line y2="165" transform="translate(-7179 5985)" fill="none" stroke="#e3ddd5" stroke-width="2"/><line y2="165" transform="translate(-7139 5985)" fill="none" stroke="#e3ddd5" stroke-width="2"/><line y2="165" transform="translate(-7099 5985)" fill="none" stroke="#e3ddd5" stroke-width="2"/><line y2="165" transform="translate(-7059 5985)" fill="none" stroke="#e3ddd5" stroke-width="2"/><line y2="165" transform="translate(-7019 5985)" fill="none" stroke="#e3ddd5" stroke-width="2"/><line y2="165" transform="translate(-6979 5985)" fill="none" stroke="#e3ddd5" stroke-width="2"/><line y2="165" transform="translate(-6939 5985)" fill="none" stroke="#e3ddd5" stroke-width="2"/><line y2="165" transform="translate(-6899 5985)" fill="none" stroke="#e3ddd5" stroke-width="2"/><line x1="489" transform="translate(-7343 6150)" fill="none" stroke="#e3ddd5" stroke-width="2"/><line y2="488" transform="matrix(0, 1, -1, 0, -6854.915, 6110)" fill="none" stroke="#e3ddd5" stroke-width="2"/><line y2="488" transform="matrix(0, 1, -1, 0, -6854.915, 6070)" fill="none" stroke="#e3ddd5" stroke-width="2"/><line y2="488" transform="matrix(0, 1, -1, 0, -6854.915, 6030)" fill="none" stroke="#e3ddd5" stroke-width="2"/><line y2="488" transform="matrix(0, 1, -1, 0, -6854.915, 5990)" fill="none" stroke="#e3ddd5" stroke-width="2"/></g><path d="M3.3-13.2V0H.88V-15.4H8.514V0H6.05V-13.2Zm9.2,1.342v8.316q0,1.518,1.254,1.518T15-3.542v-8.316q0-1.518-1.254-1.518T12.5-11.858ZM10.076-3.7V-11.7a4.03,4.03,0,0,1,.946-2.86,3.553,3.553,0,0,1,2.728-1.012,3.553,3.553,0,0,1,2.728,1.012,4.03,4.03,0,0,1,.946,2.86V-3.7a4.03,4.03,0,0,1-.946,2.86A3.553,3.553,0,0,1,13.75.176,3.553,3.553,0,0,1,11.022-.836,4.03,4.03,0,0,1,10.076-3.7ZM22.55-15.4q3.608,0,3.608,3.806v2q0,3.806-3.608,3.806H21.406V0h-2.42V-15.4Zm0,2.2H21.406v5.214H22.55a1.138,1.138,0,0,0,.891-.33,1.673,1.673,0,0,0,.3-1.122v-2.31a1.673,1.673,0,0,0-.3-1.122A1.138,1.138,0,0,0,22.55-13.2Zm4.026,0v-2.2h7.48v2.2h-2.53V0h-2.42V-13.2Zm12.1-2.2q3.608,0,3.608,3.806v2q0,3.806-3.608,3.806H37.532V0h-2.42V-15.4Zm0,2.2H37.532v5.214h1.144a1.138,1.138,0,0,0,.891-.33,1.673,1.673,0,0,0,.3-1.122v-2.31a1.673,1.673,0,0,0-.3-1.122A1.138,1.138,0,0,0,38.676-13.2Zm7.15,0v4.29h3.322v2.2H45.826V-2.2h4.18V0h-6.6V-15.4h6.6v2.2Zm4.972,0v-2.2h7.48v2.2h-2.53V0h-2.42V-13.2Zm17.314-2.2L70.576,0H68.134l-.418-2.794h-2.97L64.328,0H62.106L64.57-15.4ZM66.22-12.672,65.054-4.884h2.332ZM79.662-15.4l-2.6,11.484A5.81,5.81,0,0,1,75.592-.748a4.567,4.567,0,0,1-3.41.77V-2.134a2.9,2.9,0,0,0,1.5-.2,1.345,1.345,0,0,0,.638-1.056l.022-.132L70.994-15.4h2.4l1.32,5.258.748,3.608.572-3.586,1.1-5.28ZM90.068,2.068h-2.4V0H82.5V2.068H80.146V-2.156h.946a3.452,3.452,0,0,0,.594-2l.55-11.242h6.776V-2.156h1.056ZM84.5-13.2l-.44,9a3.06,3.06,0,0,1-.682,2.046h3.168V-13.2ZM95.92-7.062,93.9,0H91.41V-15.4h2.156v9.746l.88-3.388,1.98-6.358h2.662V0H96.91V-10.846ZM100.1-13.2v-2.2h7.48v2.2h-2.53V0h-2.42V-13.2Zm10.758,1.342v8.316q0,1.518,1.254,1.518t1.254-1.518v-8.316q0-1.518-1.254-1.518T110.858-11.858ZM108.438-3.7V-11.7a4.03,4.03,0,0,1,.946-2.86,3.553,3.553,0,0,1,2.728-1.012,3.553,3.553,0,0,1,2.728,1.012,4.03,4.03,0,0,1,.946,2.86V-3.7a4.03,4.03,0,0,1-.946,2.86A3.553,3.553,0,0,1,112.112.176a3.553,3.553,0,0,1-2.728-1.012A4.03,4.03,0,0,1,108.438-3.7Zm12.474-11.7q3.608,0,3.608,3.806v2q0,3.806-3.608,3.806h-1.144V0h-2.42V-15.4Zm0,2.2h-1.144v5.214h1.144a1.138,1.138,0,0,0,.891-.33,1.673,1.673,0,0,0,.3-1.122v-2.31a1.673,1.673,0,0,0-.3-1.122A1.138,1.138,0,0,0,120.912-13.2Zm9.24,6.138L128.128,0h-2.486V-15.4H127.8v9.746l.88-3.388,1.98-6.358h2.662V0h-2.178V-10.846Zm9.394,0L137.522,0h-2.486V-15.4h2.156v9.746l.88-3.388,1.98-6.358h2.662V0h-2.178V-10.846ZM153.362,0l-2.354-6.138L150.26-4.73V0h-2.42V-15.4h2.42v6.71l3.168-6.71h2.42l-3.366,6.864L155.848,0Zm8.1-7.062L159.434,0h-2.486V-15.4H159.1v9.746l.88-3.388,1.98-6.358h2.662V0h-2.178V-10.846Zm7.3.462V0h-2.42V-15.4h2.42v6.6h2.75v-6.6h2.464V0h-2.464V-6.6Zm9.2-5.258v8.316q0,1.518,1.254,1.518t1.254-1.518v-8.316q0-1.518-1.254-1.518T177.958-11.858ZM175.538-3.7V-11.7a4.03,4.03,0,0,1,.946-2.86,3.553,3.553,0,0,1,2.728-1.012,3.553,3.553,0,0,1,2.728,1.012,4.03,4.03,0,0,1,.946,2.86V-3.7a4.03,4.03,0,0,1-.946,2.86A3.553,3.553,0,0,1,179.212.176a3.553,3.553,0,0,1-2.728-1.012A4.03,4.03,0,0,1,175.538-3.7Zm8.206-9.5v-2.2h7.48v2.2h-2.53V0h-2.42V-13.2Zm10.956,0v4.29h3.322v2.2H194.7V-2.2h4.18V0h-6.6V-15.4h6.6v2.2Zm11.044-2.2L208.208,0h-2.442l-.418-2.794h-2.97L201.96,0h-2.222L202.2-15.4Zm-1.892,2.728-1.166,7.788h2.332Zm4.774-.528v-2.2h7.48v2.2h-2.53V0h-2.42V-13.2Zm12.1-2.2q3.608,0,3.608,3.806v2q0,3.806-3.608,3.806h-1.144V0h-2.42V-15.4Zm0,2.2h-1.144v5.214h1.144a1.138,1.138,0,0,0,.891-.33,1.673,1.673,0,0,0,.3-1.122v-2.31a1.673,1.673,0,0,0-.3-1.122A1.138,1.138,0,0,0,220.726-13.2Zm6.952,1.342v8.316q0,1.518,1.254,1.518t1.254-1.518v-8.316q0-1.518-1.254-1.518T227.678-11.858ZM225.258-3.7V-11.7a4.03,4.03,0,0,1,.946-2.86,3.553,3.553,0,0,1,2.728-1.012,3.553,3.553,0,0,1,2.728,1.012,4.03,4.03,0,0,1,.946,2.86V-3.7a4.03,4.03,0,0,1-.946,2.86A3.553,3.553,0,0,1,228.932.176,3.553,3.553,0,0,1,226.2-.836,4.03,4.03,0,0,1,225.258-3.7ZM237.82-15.4a3.7,3.7,0,0,1,2.728.869,3.67,3.67,0,0,1,.858,2.673v.55q0,2.376-1.562,3.1,1.8.7,1.8,3.3v1.254a3.68,3.68,0,0,1-.935,2.717A3.712,3.712,0,0,1,237.974,0h-3.806V-15.4Zm-.154,8.47h-1.078V-2.2h1.386a1.213,1.213,0,0,0,.946-.341,1.757,1.757,0,0,0,.308-1.177V-5.06a2.229,2.229,0,0,0-.363-1.463A1.537,1.537,0,0,0,237.666-6.93Zm.088-6.27h-1.166v4.07h.946a1.453,1.453,0,0,0,1.089-.374,1.767,1.767,0,0,0,.363-1.254v-.858Q238.986-13.2,237.754-13.2Zm15.818-2.2a3.7,3.7,0,0,1,2.728.869,3.67,3.67,0,0,1,.858,2.673v.55q0,2.376-1.562,3.1,1.8.7,1.8,3.3v1.254a3.68,3.68,0,0,1-.935,2.717A3.712,3.712,0,0,1,253.726,0H249.92V-15.4Zm-.154,8.47H252.34V-2.2h1.386a1.213,1.213,0,0,0,.946-.341,1.757,1.757,0,0,0,.308-1.177V-5.06a2.229,2.229,0,0,0-.363-1.463A1.537,1.537,0,0,0,253.418-6.93Zm.088-6.27H252.34v4.07h.946a1.453,1.453,0,0,0,1.089-.374,1.767,1.767,0,0,0,.363-1.254v-.858Q254.738-13.2,253.506-13.2Zm13.552,1.584a2.211,2.211,0,0,0-.319-1.375,1.145,1.145,0,0,0-.935-.385q-1.254,0-1.254,1.518v1.65h-2.288v-1.5a4.083,4.083,0,0,1,.924-2.871,3.472,3.472,0,0,1,2.684-1,3.472,3.472,0,0,1,2.684,1,4.083,4.083,0,0,1,.924,2.871,6.675,6.675,0,0,1-.495,2.552,7.842,7.842,0,0,1-1.21,2.068q-.715.858-1.419,1.606a10.892,10.892,0,0,0-1.2,1.507,2.66,2.66,0,0,0-.495,1.441,1.825,1.825,0,0,0,.022.33h4.576V0h-7V-1.892a5.3,5.3,0,0,1,.495-2.3,7.5,7.5,0,0,1,1.2-1.826q.7-.781,1.408-1.54a7.158,7.158,0,0,0,1.2-1.793A5.179,5.179,0,0,0,267.058-11.616Zm6.138-.242v8.316q0,1.518,1.254,1.518T275.7-3.542v-8.316q0-1.518-1.254-1.518T273.2-11.858ZM270.776-3.7V-11.7a4.03,4.03,0,0,1,.946-2.86,3.553,3.553,0,0,1,2.728-1.012,3.553,3.553,0,0,1,2.728,1.012,4.03,4.03,0,0,1,.946,2.86V-3.7a4.03,4.03,0,0,1-.946,2.86A3.553,3.553,0,0,1,274.45.176a3.553,3.553,0,0,1-2.728-1.012A4.03,4.03,0,0,1,270.776-3.7Zm10.406-8.052v-1.716a2.617,2.617,0,0,0,1.782-.484,3.609,3.609,0,0,0,.88-1.452h1.628V0h-2.42V-11.748ZM295.5-11.7v7.876q0,4-3.7,4a3.472,3.472,0,0,1-2.684-1A4.083,4.083,0,0,1,288.2-3.7v-.4h2.288v.55q0,1.518,1.254,1.518a1.21,1.21,0,0,0,1.012-.418,2.452,2.452,0,0,0,.33-1.474V-6.732a2.274,2.274,0,0,1-2.244,1.364q-2.684,0-2.684-3.52V-11.7a4.03,4.03,0,0,1,.946-2.86,3.553,3.553,0,0,1,2.728-1.012,3.553,3.553,0,0,1,2.728,1.012A4.03,4.03,0,0,1,295.5-11.7Zm-4.928,2.618q0,1.518,1.254,1.518t1.254-1.518v-2.772q0-1.5-1.254-1.5t-1.254,1.5ZM302.962,0h-2.42V-15.4h6.38v2.2h-3.96Zm7.81-11.858v8.316q0,1.518,1.254,1.518t1.254-1.518v-8.316q0-1.518-1.254-1.518T310.772-11.858ZM308.352-3.7V-11.7a4.03,4.03,0,0,1,.946-2.86,3.553,3.553,0,0,1,2.728-1.012,3.553,3.553,0,0,1,2.728,1.012,4.03,4.03,0,0,1,.946,2.86V-3.7a4.03,4.03,0,0,1-.946,2.86A3.553,3.553,0,0,1,312.026.176,3.553,3.553,0,0,1,309.3-.836,4.03,4.03,0,0,1,308.352-3.7Zm18.3,5.764h-2.4V0h-5.17V2.068h-2.354V-2.156h.946a3.452,3.452,0,0,0,.594-2l.55-11.242H325.6V-2.156h1.056ZM321.09-13.2l-.44,9a3.061,3.061,0,0,1-.682,2.046h3.168V-13.2Zm14.872-2.2-2.6,11.484a5.81,5.81,0,0,1-1.474,3.168,4.567,4.567,0,0,1-3.41.77V-2.134a2.9,2.9,0,0,0,1.5-.2,1.345,1.345,0,0,0,.638-1.056l.022-.132L327.294-15.4h2.4l1.32,5.258.748,3.608.572-3.586,1.1-5.28Z" transform="translate(121.5 460.498)" fill="#2a204c"/><text transform="translate(148 718)" fill="#292c45" font-size="12" font-family="Arial-BoldMT, Arial" font-weight="700" letter-spacing="-0.01em"><tspan x="0" y="0">доля</tspan><tspan y="0" xml:space="preserve" fill="#3f51b5"> мужчин</tspan></text><text transform="translate(259 718)" fill="#292c45" font-size="12" font-family="Arial-BoldMT, Arial" font-weight="700" letter-spacing="-0.01em"><tspan x="0" y="0">доля</tspan><tspan y="0" xml:space="preserve" fill="#ff4081"> женщин</tspan></text><rect width="17" height="17" transform="translate(126 706)" fill="#3f51b5"/><rect width="17" height="17" transform="translate(237 706)" fill="#ff4081"/><text transform="translate(121.5 487.498)" fill="#2a204c" font-size="14" font-family="Arial-BoldMT, Arial" font-weight="700"><tspan x="0" y="0">Возраст аудитории </tspan></text><g transform="translate(9135 -1234)"><line y2="165" transform="translate(-8952 1739)" fill="none" stroke="#e3ddd5" stroke-width="2"/><line y2="165" transform="translate(-8912 1739)" fill="none" stroke="#e3ddd5" stroke-width="2"/><line y2="165" transform="translate(-8872 1739)" fill="none" stroke="#e3ddd5" stroke-width="2"/><line y2="165" transform="translate(-8832 1739)" fill="none" stroke="#e3ddd5" stroke-width="2"/><line y2="165" transform="translate(-8792 1739)" fill="none" stroke="#e3ddd5" stroke-width="2"/><line x1="210" transform="translate(-8993 1904)" fill="none" stroke="#e3ddd5" stroke-width="2"/><line y2="210" transform="matrix(0, 1, -1, 0, -8783, 1864)" fill="none" stroke="#e3ddd5" stroke-width="2"/><line y2="210" transform="matrix(0, 1, -1, 0, -8783, 1824)" fill="none" stroke="#e3ddd5" stroke-width="2"/><line y2="210" transform="matrix(0, 1, -1, 0, -8783, 1784)" fill="none" stroke="#e3ddd5" stroke-width="2"/><line y2="210" transform="matrix(0, 1, -1, 0, -8783, 1744)" fill="none" stroke="#e3ddd5" stroke-width="2"/></g><text transform="translate(144 699)" fill="#292c45" font-size="12" font-family="Arial-BoldMT, Arial" font-weight="700"><tspan x="-6.674" y="0">12</tspan></text><text transform="translate(144 684)" fill="#a9a7a9" font-size="12" font-family="Arial-BoldMT, Arial" font-weight="700"><tspan x="0" y="0">Возраст зрителя (лет)</tspan></text><text transform="translate(183 699)" fill="#292c45" font-size="12" font-family="Arial-BoldMT, Arial" font-weight="700"><tspan x="-6.674" y="0">18</tspan></text><text transform="translate(223 699)" fill="#292c45" font-size="12" font-family="Arial-BoldMT, Arial" font-weight="700"><tspan x="-6.674" y="0">25</tspan></text><text transform="translate(263 699)" fill="#292c45" font-size="12" font-family="Arial-BoldMT, Arial" font-weight="700"><tspan x="-6.674" y="0">35</tspan></text><text transform="translate(304 699)" fill="#292c45" font-size="12" font-family="Arial-BoldMT, Arial" font-weight="700"><tspan x="-10.178" y="0">45+</tspan></text><path d="M-5.1-10.78v7.56q0,1.38,1.14,1.38t1.14-1.38v-7.56q0-1.38-1.14-1.38T-5.1-10.78ZM-7.3-3.36v-7.28a3.663,3.663,0,0,1,.86-2.6,3.23,3.23,0,0,1,2.48-.92,3.23,3.23,0,0,1,2.48.92,3.663,3.663,0,0,1,.86,2.6v7.28a3.663,3.663,0,0,1-.86,2.6A3.23,3.23,0,0,1-3.96.16,3.23,3.23,0,0,1-6.44-.76,3.663,3.663,0,0,1-7.3-3.36Z" transform="translate(137 677)" fill="#292c45"/><path d="M-13.68-10.68v-1.56a2.379,2.379,0,0,0,1.62-.44,3.282,3.282,0,0,0,.8-1.32h1.48V0h-2.2V-10.68Zm8.58-.1v7.56q0,1.38,1.14,1.38t1.14-1.38v-7.56q0-1.38-1.14-1.38T-5.1-10.78ZM-7.3-3.36v-7.28a3.663,3.663,0,0,1,.86-2.6,3.23,3.23,0,0,1,2.48-.92,3.23,3.23,0,0,1,2.48.92,3.663,3.663,0,0,1,.86,2.6v7.28a3.663,3.663,0,0,1-.86,2.6A3.23,3.23,0,0,1-3.96.16,3.23,3.23,0,0,1-6.44-.76,3.663,3.663,0,0,1-7.3-3.36Z" transform="translate(138 637)" fill="#292c45"/><path d="M-10.68-10.56a2.01,2.01,0,0,0-.29-1.25,1.041,1.041,0,0,0-.85-.35q-1.14,0-1.14,1.38v1.5h-2.08v-1.36a3.712,3.712,0,0,1,.84-2.61,3.156,3.156,0,0,1,2.44-.91,3.156,3.156,0,0,1,2.44.91,3.712,3.712,0,0,1,.84,2.61,6.068,6.068,0,0,1-.45,2.32,7.128,7.128,0,0,1-1.1,1.88q-.65.78-1.29,1.46a9.9,9.9,0,0,0-1.09,1.37,2.418,2.418,0,0,0-.45,1.31,1.657,1.657,0,0,0,.02.3h4.16V0h-6.36V-1.72a4.82,4.82,0,0,1,.45-2.09A6.819,6.819,0,0,1-13.5-5.47q.64-.71,1.28-1.4A6.508,6.508,0,0,0-11.13-8.5,4.708,4.708,0,0,0-10.68-10.56Zm5.58-.22v7.56q0,1.38,1.14,1.38t1.14-1.38v-7.56q0-1.38-1.14-1.38T-5.1-10.78ZM-7.3-3.36v-7.28a3.663,3.663,0,0,1,.86-2.6,3.23,3.23,0,0,1,2.48-.92,3.23,3.23,0,0,1,2.48.92,3.663,3.663,0,0,1,.86,2.6v7.28a3.663,3.663,0,0,1-.86,2.6A3.23,3.23,0,0,1-3.96.16,3.23,3.23,0,0,1-6.44-.76,3.663,3.663,0,0,1-7.3-3.36Z" transform="translate(138 597)" fill="#292c45"/><path d="M-10.8-9.78v-.78a2.01,2.01,0,0,0-.29-1.25,1.041,1.041,0,0,0-.85-.35q-1.14,0-1.14,1.38v.9h-2.08v-.76a3.712,3.712,0,0,1,.84-2.61,3.156,3.156,0,0,1,2.44-.91,3.156,3.156,0,0,1,2.44.91,3.712,3.712,0,0,1,.84,2.61v.36q0,2.24-1.54,2.88,1.54.68,1.54,2.94v1.1A3.712,3.712,0,0,1-9.44-.75a3.156,3.156,0,0,1-2.44.91,3.156,3.156,0,0,1-2.44-.91,3.712,3.712,0,0,1-.84-2.61V-4.52h2.08v1.3q0,1.38,1.14,1.38a1.041,1.041,0,0,0,.85-.35,1.968,1.968,0,0,0,.29-1.23v-1.1a2.16,2.16,0,0,0-.34-1.37,1.351,1.351,0,0,0-1.1-.41h-.74v-2h.86a1.32,1.32,0,0,0,.99-.34A1.607,1.607,0,0,0-10.8-9.78Zm5.7-1v7.56q0,1.38,1.14,1.38t1.14-1.38v-7.56q0-1.38-1.14-1.38T-5.1-10.78ZM-7.3-3.36v-7.28a3.663,3.663,0,0,1,.86-2.6,3.23,3.23,0,0,1,2.48-.92,3.23,3.23,0,0,1,2.48.92,3.663,3.663,0,0,1,.86,2.6v7.28a3.663,3.663,0,0,1-.86,2.6A3.23,3.23,0,0,1-3.96.16,3.23,3.23,0,0,1-6.44-.76,3.663,3.663,0,0,1-7.3-3.36Z" transform="translate(138 557)" fill="#292c45"/><path d="M-15.56-2.54v-2l4-9.46h2.4v9.46h1.04v2H-9.16V0h-2.16V-2.54Zm2.02-2h2.22V-9.8Zm8.44-6.24v7.56q0,1.38,1.14,1.38t1.14-1.38v-7.56q0-1.38-1.14-1.38T-5.1-10.78ZM-7.3-3.36v-7.28a3.663,3.663,0,0,1,.86-2.6,3.23,3.23,0,0,1,2.48-.92,3.23,3.23,0,0,1,2.48.92,3.663,3.663,0,0,1,.86,2.6v7.28a3.663,3.663,0,0,1-.86,2.6A3.23,3.23,0,0,1-3.96.16,3.23,3.23,0,0,1-6.44-.76,3.663,3.663,0,0,1-7.3-3.36Z" transform="translate(138 517)" fill="#292c45"/><rect width="38" height="59" transform="translate(144 610)" fill="#3f51b5"/><rect width="38" height="99" transform="translate(184 570)" fill="#3f51b5"/><rect width="38" height="123" transform="translate(224 546)" fill="#3f51b5"/><rect width="38" height="71" transform="translate(264 598)" fill="#3f51b5"/><rect width="38" height="39" transform="translate(304 630)" fill="#3f51b5"/><text transform="translate(163 603)" fill="#292c45" font-size="12" font-family="Arial-BoldMT, Arial" font-weight="700"><tspan x="-12.009" y="0">15%</tspan></text><text transform="translate(203 563)" fill="#292c45" font-size="12" font-family="Arial-BoldMT, Arial" font-weight="700"><tspan x="-12.009" y="0">25%</tspan></text><text transform="translate(243 539)" fill="#292c45" font-size="12" font-family="Arial-BoldMT, Arial" font-weight="700"><tspan x="-12.009" y="0">31%</tspan></text><text transform="translate(283 591)" fill="#292c45" font-size="12" font-family="Arial-BoldMT, Arial" font-weight="700"><tspan x="-12.009" y="0">18%</tspan></text><text transform="translate(323 623)" fill="#292c45" font-size="12" font-family="Arial-BoldMT, Arial" font-weight="700"><tspan x="-12.009" y="0">10%</tspan></text><rect width="38" height="33" transform="translate(144 636)" fill="#ff4081"/><rect width="38" height="51" transform="translate(184 618)" fill="#ff4081"/><rect width="38" height="69" transform="translate(224 600)" fill="#ff4081"/><rect width="38" height="43" transform="translate(264 626)" fill="#ff4081"/><rect width="38" height="24" transform="translate(304 645)" fill="#ff4081"/><circle cx="2" cy="2" r="2" transform="translate(181 668)" fill="#292c45"/><circle cx="2" cy="2" r="2" transform="translate(142 668)" fill="#292c45"/><circle cx="2" cy="2" r="2" transform="translate(221 668)" fill="#292c45"/><circle cx="2" cy="2" r="2" transform="translate(261 668)" fill="#292c45"/><circle cx="2" cy="2" r="2" transform="translate(301 668)" fill="#292c45"/><text transform="translate(228 596)" fill="#fffaee" font-size="10" font-family="Arial-BoldMT, Arial" font-weight="700"><tspan x="0" y="0">44%</tspan><tspan x="0" y="15">56%</tspan></text><text transform="translate(188 614)" fill="#fffaee" font-size="10" font-family="Arial-BoldMT, Arial" font-weight="700"><tspan x="0" y="0">48%</tspan><tspan x="0" y="15">52%</tspan></text><text transform="translate(149 632)" fill="#fffaee" font-size="10" font-family="Arial-BoldMT, Arial" font-weight="700"><tspan x="0" y="0">44%</tspan><tspan x="0" y="15">56%</tspan></text><text transform="translate(268 622)" fill="#fffaee" font-size="10" font-family="Arial-BoldMT, Arial" font-weight="700"><tspan x="0" y="0">&lt; 40%</tspan><tspan x="0" y="15">&gt; 60%</tspan></text><text transform="translate(309 641)" fill="#fffaee" font-size="10" font-family="Arial-BoldMT, Arial" font-weight="700"><tspan x="0" y="0">&lt; 40%</tspan><tspan x="0" y="15">&gt; 60%</tspan></text><g transform="translate(392 643)" fill="none" stroke="#2a1e4d" stroke-width="2"><rect width="237" height="28" stroke="none"/><rect x="1" y="1" width="235" height="26" fill="none"/></g><g transform="translate(392 643)" fill="none" stroke="#2a1e4d" stroke-width="2"><rect width="237" height="28" stroke="none"/><rect x="1" y="1" width="235" height="26" fill="none"/></g><g transform="translate(392 643)" fill="none" stroke="#2a1e4d" stroke-width="2"><rect width="71" height="28" stroke="none"/><rect x="1" y="1" width="69" height="26" fill="none"/></g><g transform="translate(393 643)" fill="#281c49" stroke="#2a1e4d" stroke-width="2"><rect width="71" height="28" stroke="none"/><rect x="1" y="1" width="69" height="26" fill="none"/></g><g transform="translate(463 643)" fill="#281c49" stroke="#2a1e4d" stroke-width="2" opacity="0.66"><rect width="78" height="28" stroke="none"/><rect x="1" y="1" width="76" height="26" fill="none"/></g><g transform="translate(541 643)" fill="#2a1e4d" stroke="#2a1e4d" stroke-width="2" opacity="0.331"><rect width="77" height="28" stroke="none"/><rect x="1" y="1" width="75" height="26" fill="none"/></g><path d="M-17.077-12.144a2.312,2.312,0,0,0-.333-1.437,1.2,1.2,0,0,0-.978-.4q-1.311,0-1.311,1.587v1.725h-2.392v-1.564a4.268,4.268,0,0,1,.966-3,3.63,3.63,0,0,1,2.806-1.047,3.63,3.63,0,0,1,2.806,1.047,4.268,4.268,0,0,1,.966,3,6.978,6.978,0,0,1-.517,2.668A8.2,8.2,0,0,1-16.33-7.406q-.747.9-1.483,1.679a11.388,11.388,0,0,0-1.253,1.575,2.781,2.781,0,0,0-.517,1.507,1.905,1.905,0,0,0,.023.345h4.784V0h-7.314V-1.978a5.543,5.543,0,0,1,.517-2.4A7.842,7.842,0,0,1-20.32-6.29q.736-.817,1.472-1.61a7.484,7.484,0,0,0,1.253-1.875A5.415,5.415,0,0,0-17.077-12.144Zm11.523-.092V-4q0,4.186-3.864,4.186A3.63,3.63,0,0,1-12.224-.863a4.268,4.268,0,0,1-.966-3v-.414H-10.8V-3.7q0,1.587,1.311,1.587a1.265,1.265,0,0,0,1.058-.437,2.563,2.563,0,0,0,.345-1.541V-7.038a2.378,2.378,0,0,1-2.346,1.426q-2.806,0-2.806-3.68v-2.944a4.213,4.213,0,0,1,.989-2.99A3.714,3.714,0,0,1-9.4-16.284a3.714,3.714,0,0,1,2.852,1.058A4.213,4.213,0,0,1-5.554-12.236ZM-10.706-9.5q0,1.587,1.311,1.587T-8.084-9.5v-2.9q0-1.564-1.311-1.564T-10.706-12.4Zm6.831,7.061h2.438V0H-3.875ZM.288-5.2H2.68V-3.7q0,1.564,1.311,1.564T5.3-3.7V-7.245q0-1.587-1.311-1.587T2.68-7.245v.483H.288L.748-16.1h6.67v2.3H3.025L2.817-9.959a2.4,2.4,0,0,1,2.208-1.173q2.806,0,2.806,3.68v3.588a4.268,4.268,0,0,1-.966,3A3.63,3.63,0,0,1,4.06.184,3.63,3.63,0,0,1,1.254-.863a4.268,4.268,0,0,1-.966-3Zm10.695-8.556v5.52q0,1.012.828,1.012t.828-1.012v-5.52q0-1.012-.828-1.012T10.983-13.754Zm-1.61,5.4v-5.29a2.7,2.7,0,0,1,.621-1.909,2.362,2.362,0,0,1,1.817-.667,2.362,2.362,0,0,1,1.817.667,2.7,2.7,0,0,1,.621,1.909v5.29a2.7,2.7,0,0,1-.621,1.909,2.362,2.362,0,0,1-1.817.667A2.362,2.362,0,0,1,9.993-6.44,2.7,2.7,0,0,1,9.372-8.349ZM11.811,0l6.348-16.1h1.495L13.306,0Zm7.153-7.866v5.52q0,1.012.828,1.012t.828-1.012v-5.52q0-1.012-.828-1.012T18.964-7.866Zm-1.61,5.405v-5.29a2.7,2.7,0,0,1,.621-1.909,2.362,2.362,0,0,1,1.817-.667,2.362,2.362,0,0,1,1.817.667,2.7,2.7,0,0,1,.621,1.909v5.29a2.7,2.7,0,0,1-.621,1.909,2.362,2.362,0,0,1-1.817.667,2.362,2.362,0,0,1-1.817-.667A2.7,2.7,0,0,1,17.354-2.461Z" transform="translate(430 618)" fill="#291d4c"/><path d="M-17.215-11.247v-.9a2.312,2.312,0,0,0-.333-1.437,1.2,1.2,0,0,0-.978-.4q-1.311,0-1.311,1.587v1.035h-2.392v-.874a4.268,4.268,0,0,1,.966-3,3.63,3.63,0,0,1,2.806-1.047,3.63,3.63,0,0,1,2.806,1.047,4.268,4.268,0,0,1,.966,3v.414q0,2.576-1.771,3.312,1.771.782,1.771,3.381v1.265a4.268,4.268,0,0,1-.966,3A3.63,3.63,0,0,1-18.458.184,3.63,3.63,0,0,1-21.264-.863a4.268,4.268,0,0,1-.966-3V-5.2h2.392V-3.7q0,1.587,1.311,1.587a1.2,1.2,0,0,0,.978-.4,2.263,2.263,0,0,0,.333-1.415V-5.2a2.484,2.484,0,0,0-.391-1.576,1.554,1.554,0,0,0-1.265-.471h-.851v-2.3h.989a1.519,1.519,0,0,0,1.139-.391A1.848,1.848,0,0,0-17.215-11.247Zm9.108,0v-.9a2.312,2.312,0,0,0-.333-1.437,1.2,1.2,0,0,0-.977-.4q-1.311,0-1.311,1.587v1.035h-2.392v-.874a4.268,4.268,0,0,1,.966-3,3.63,3.63,0,0,1,2.806-1.047,3.63,3.63,0,0,1,2.806,1.047,4.268,4.268,0,0,1,.966,3v.414q0,2.576-1.771,3.312,1.771.782,1.771,3.381v1.265a4.268,4.268,0,0,1-.966,3A3.63,3.63,0,0,1-9.349.184,3.63,3.63,0,0,1-12.155-.863a4.268,4.268,0,0,1-.966-3V-5.2h2.392V-3.7q0,1.587,1.311,1.587a1.2,1.2,0,0,0,.977-.4,2.264,2.264,0,0,0,.333-1.415V-5.2A2.484,2.484,0,0,0-8.5-6.773a1.554,1.554,0,0,0-1.265-.471h-.851v-2.3h.989a1.519,1.519,0,0,0,1.139-.391A1.848,1.848,0,0,0-8.108-11.247Zm4.232,8.809h2.438V0H-3.875Zm5.842-9.844v-1.794a2.736,2.736,0,0,0,1.863-.506A3.774,3.774,0,0,0,4.75-16.1h1.7V0H3.922V-12.282Zm9.016-1.472v5.52q0,1.012.828,1.012t.828-1.012v-5.52q0-1.012-.828-1.012T10.983-13.754Zm-1.61,5.4v-5.29a2.7,2.7,0,0,1,.621-1.909,2.362,2.362,0,0,1,1.817-.667,2.362,2.362,0,0,1,1.817.667,2.7,2.7,0,0,1,.621,1.909v5.29a2.7,2.7,0,0,1-.621,1.909,2.362,2.362,0,0,1-1.817.667A2.362,2.362,0,0,1,9.993-6.44,2.7,2.7,0,0,1,9.372-8.349ZM11.811,0l6.348-16.1h1.495L13.306,0Zm7.153-7.866v5.52q0,1.012.828,1.012t.828-1.012v-5.52q0-1.012-.828-1.012T18.964-7.866Zm-1.61,5.405v-5.29a2.7,2.7,0,0,1,.621-1.909,2.362,2.362,0,0,1,1.817-.667,2.362,2.362,0,0,1,1.817.667,2.7,2.7,0,0,1,.621,1.909v5.29a2.7,2.7,0,0,1-.621,1.909,2.362,2.362,0,0,1-1.817.667,2.362,2.362,0,0,1-1.817-.667A2.7,2.7,0,0,1,17.354-2.461Z" transform="translate(506 618)" fill="#291d4c"/><path d="M-17.215-11.247v-.9a2.312,2.312,0,0,0-.333-1.437,1.2,1.2,0,0,0-.978-.4q-1.311,0-1.311,1.587v1.035h-2.392v-.874a4.268,4.268,0,0,1,.966-3,3.63,3.63,0,0,1,2.806-1.047,3.63,3.63,0,0,1,2.806,1.047,4.268,4.268,0,0,1,.966,3v.414q0,2.576-1.771,3.312,1.771.782,1.771,3.381v1.265a4.268,4.268,0,0,1-.966,3A3.63,3.63,0,0,1-18.458.184,3.63,3.63,0,0,1-21.264-.863a4.268,4.268,0,0,1-.966-3V-5.2h2.392V-3.7q0,1.587,1.311,1.587a1.2,1.2,0,0,0,.978-.4,2.263,2.263,0,0,0,.333-1.415V-5.2a2.484,2.484,0,0,0-.391-1.576,1.554,1.554,0,0,0-1.265-.471h-.851v-2.3h.989a1.519,1.519,0,0,0,1.139-.391A1.848,1.848,0,0,0-17.215-11.247Zm6.555-1.15V-3.7q0,1.587,1.311,1.587T-8.038-3.7V-12.4q0-1.587-1.311-1.587T-10.66-12.4Zm-2.53,8.533v-8.372a4.213,4.213,0,0,1,.989-2.99,3.714,3.714,0,0,1,2.852-1.058A3.714,3.714,0,0,1-6.5-15.226a4.213,4.213,0,0,1,.989,2.99v8.372A4.213,4.213,0,0,1-6.5-.874,3.714,3.714,0,0,1-9.349.184,3.714,3.714,0,0,1-12.2-.874,4.213,4.213,0,0,1-13.19-3.864Zm9.315,1.426h2.438V0H-3.875Zm5.842-9.844v-1.794a2.736,2.736,0,0,0,1.863-.506A3.774,3.774,0,0,0,4.75-16.1h1.7V0H3.922V-12.282Zm9.016-1.472v5.52q0,1.012.828,1.012t.828-1.012v-5.52q0-1.012-.828-1.012T10.983-13.754Zm-1.61,5.4v-5.29a2.7,2.7,0,0,1,.621-1.909,2.362,2.362,0,0,1,1.817-.667,2.362,2.362,0,0,1,1.817.667,2.7,2.7,0,0,1,.621,1.909v5.29a2.7,2.7,0,0,1-.621,1.909,2.362,2.362,0,0,1-1.817.667A2.362,2.362,0,0,1,9.993-6.44,2.7,2.7,0,0,1,9.372-8.349ZM11.811,0l6.348-16.1h1.495L13.306,0Zm7.153-7.866v5.52q0,1.012.828,1.012t.828-1.012v-5.52q0-1.012-.828-1.012T18.964-7.866Zm-1.61,5.405v-5.29a2.7,2.7,0,0,1,.621-1.909,2.362,2.362,0,0,1,1.817-.667,2.362,2.362,0,0,1,1.817.667,2.7,2.7,0,0,1,.621,1.909v5.29a2.7,2.7,0,0,1-.621,1.909,2.362,2.362,0,0,1-1.817.667,2.362,2.362,0,0,1-1.817-.667A2.7,2.7,0,0,1,17.354-2.461Z" transform="translate(582 618)" fill="#291d4c"/><path d="M6.5,0,13,10H0Z" transform="translate(436 636) rotate(180)" fill="#281c49"/><path d="M6.5,0,13,10H0Z" transform="translate(512 636) rotate(180)" fill="#281c49"/><path d="M6.5,0,13,10H0Z" transform="translate(588 636) rotate(180)" fill="#281c49"/><g transform="translate(-3153.934 -241.718)"><path d="M3595.1,795.149v3.945a3.869,3.869,0,1,0,7.738,0v-4.755" transform="translate(0.206 0.082)" fill="none" stroke="#281c49" stroke-linejoin="round" stroke-width="1.5"/><path d="M3559.71,808.984v12.605h17.411V804.934h8.286" transform="translate(0 0.128)" fill="none" stroke="#281c49" stroke-linecap="square" stroke-miterlimit="10" stroke-width="1.5"/><path d="M3564.6,797.684h-2.911a6.752,6.752,0,0,0-6.751,6.751v17.154h4.776" transform="translate(0 0.128)" fill="none" stroke="#281c49" stroke-miterlimit="10" stroke-width="1.5"/><line x1="20.464" transform="translate(3572.454 797.761)" fill="none" stroke="#281c49" stroke-miterlimit="10" stroke-width="1.5"/><path d="M3564.5,794.339v4.755a3.87,3.87,0,0,0,7.739,0v-4.755" transform="translate(0.049 0.082)" fill="none" stroke="#281c49" stroke-linejoin="round" stroke-width="1.5"/><line y2="12.605" transform="translate(3590.476 809.112)" fill="none" stroke="#281c49" stroke-linecap="square" stroke-miterlimit="10" stroke-width="1.5"/><line y2="12.605" transform="translate(3608.092 809.112)" fill="none" stroke="#281c49" stroke-linecap="square" stroke-miterlimit="10" stroke-width="1.5"/><path d="M3612.5,805.5v16.088h-26.962V804.435a6.752,6.752,0,0,1,6.751-6.751h2.641" transform="translate(0.262 0.128)" fill="none" stroke="#281c49" stroke-linecap="square" stroke-miterlimit="10" stroke-width="1.5"/><path d="M3602.944,797.684h2.81a6.731,6.731,0,0,1,1.963.29" transform="translate(0.262 0.077)" fill="none" stroke="#281c49" stroke-miterlimit="10" stroke-width="1.5"/><rect width="5.943" height="8.918" rx="1.35" stroke-width="1.5" fill="none" stroke="#281c49" stroke-linecap="square" stroke-miterlimit="10" transform="translate(3613.934 805.589) rotate(-180)"/><g transform="translate(3555.681 761.718)"><path d="M3579.706,780.553l.79.067a2.342,2.342,0,0,1,2.138,2.529l-.077.919a2.341,2.341,0,0,1-2.529,2.138l-.79-.066" transform="translate(-3555.681 -761.718)" fill="none" stroke="#281c49" stroke-linecap="square" stroke-linejoin="round" stroke-width="1.5"/><path d="M3558.633,784.413l-.806-.067a2.342,2.342,0,0,1-2.138-2.529l.077-.92a2.341,2.341,0,0,1,2.529-2.138l.79.066" transform="translate(-3555.681 -761.718)" fill="none" stroke="#281c49" stroke-linejoin="round" stroke-width="1.5"/><path d="M3564.841,787.2a4.267,4.267,0,0,0,7.795.653" transform="translate(-3555.681 -761.718)" fill="none" stroke="#281c49" stroke-linecap="square" stroke-linejoin="round" stroke-width="1.5"/><line x1="0.105" y2="1.258" transform="translate(18.706 18.187)" stroke-width="1.5" stroke="#281c49" stroke-linecap="square" stroke-linejoin="round" fill="none"/><line y1="1.258" x2="0.105" transform="translate(8.421 17.326)" stroke-width="1.5" stroke="#281c49" stroke-linecap="square" stroke-linejoin="round" fill="none"/><path d="M3581.058,780.743l3.784-15.467a12.825,12.825,0,0,1-7.46-.34l-8.415-2.985a4.049,4.049,0,0,0-4.059.8l-3,2.691-1.641-.137a3.453,3.453,0,0,0-3.731,3.153l-.381,4.549a7.752,7.752,0,0,0,.049,1.73l.612,4.318" transform="translate(-3555.681 -761.718)" fill="none" stroke="#281c49" stroke-miterlimit="10" stroke-width="1.5"/><path d="M3580,777c-1.655.359-8.638,1.6-13.918-2.425a13.363,13.363,0,0,1-2.356-2.314.188.188,0,0,0-.336.107,3.139,3.139,0,0,1-.9,2.119,4.269,4.269,0,0,1-3.133,1.047l-.7,8.288a10.347,10.347,0,0,0,9.447,11.175h0a10.346,10.346,0,0,0,11.175-9.446Z" transform="translate(-3555.681 -761.718)" fill="none" stroke="#281c49" stroke-linecap="square" stroke-miterlimit="10" stroke-width="1.5"/></g><g transform="translate(3583.376 761.769)"><path d="M3607.469,775.54l.922,8.266a10.347,10.347,0,0,1-9.136,11.431h0a10.348,10.348,0,0,1-11.431-9.136l-.981-8.793" transform="translate(-3583.115 -761.769)" fill="none" stroke="#281c49" stroke-linecap="square" stroke-miterlimit="10" stroke-width="1.5"/><path d="M3607.835,778.826l.788-.088a2.343,2.343,0,0,1,2.587,2.068l.1.917a2.342,2.342,0,0,1-2.068,2.587l-.787.088" transform="translate(-3583.115 -761.769)" fill="none" stroke="#281c49" stroke-linecap="square" stroke-linejoin="round" stroke-width="1.5"/><path d="M3587.908,786.691l-.8.09a2.343,2.343,0,0,1-2.587-2.068l-.1-.917a2.341,2.341,0,0,1,2.067-2.587l.788-.088" transform="translate(-3583.115 -761.769)" fill="none" stroke="#281c49" stroke-linecap="square" stroke-linejoin="round" stroke-width="1.5"/><path d="M3594.537,788.225a4.267,4.267,0,0,0,7.775-.868" transform="translate(-3583.115 -761.769)" fill="none" stroke="#281c49" stroke-linecap="square" stroke-linejoin="round" stroke-width="1.5"/><line x2="0.14" y2="1.254" transform="translate(19.479 17.43)" stroke-width="1.5" stroke="#281c49" stroke-linecap="square" stroke-linejoin="round" fill="none"/><line x1="0.14" y1="1.254" transform="translate(9.222 18.574)" stroke-width="1.5" stroke="#281c49" stroke-linecap="square" stroke-linejoin="round" fill="none"/><path d="M3583.123,772.2a10.333,10.333,0,0,0,.056,1.566l.4,3.6.657,5.887.975,8.741a4.051,4.051,0,0,0,4.475,3.577l5.591-.624" transform="translate(-3583.115 -761.769)" fill="none" stroke="#281c49" stroke-miterlimit="10" stroke-width="1.5"/><path d="M3602.97,794.087l5.69-.635a4.051,4.051,0,0,0,3.577-4.475l-2.231-20a5.4,5.4,0,0,0-5.967-4.768l-2.1.233a3.781,3.781,0,0,0-4.033-2.653l-5.67.633a10.251,10.251,0,0,0-7.955,5.44" transform="translate(-3583.115 -761.769)" fill="none" stroke="#281c49" stroke-miterlimit="10" stroke-width="1.5"/><g transform="translate(3.521 6.426)"><path d="M3607.8,778.537l-.562-5.042a10.288,10.288,0,0,0-2.193-5.3,23.859,23.859,0,0,1-14.457,7.045,24.1,24.1,0,0,1-3.955.111c.011.146.022.292.038.439l.592,5.3" transform="translate(-3586.636 -768.195)" fill="none" stroke="#281c49" stroke-linecap="square" stroke-miterlimit="10" stroke-width="1.5"/></g></g></g><g transform="translate(-3168.05 -243.349)"><path d="M3652.608,793.677v4.237a3.448,3.448,0,0,0,6.9,0v-4.237" transform="translate(0.022 0.169)" fill="none" stroke="#281c49" stroke-linejoin="round" stroke-width="1.5"/><path d="M3665.32,780.645h.706a2.087,2.087,0,0,1,2.086,2.087v.822a2.086,2.086,0,0,1-2.086,2.086h-.706" transform="translate(0.048 0.092)" fill="none" stroke="#281c49" stroke-linecap="square" stroke-linejoin="round" stroke-width="1.5"/><path d="M3646.9,785.64h-.721a2.087,2.087,0,0,1-2.087-2.086v-.822a2.088,2.088,0,0,1,2.087-2.087h.706" transform="translate(0 0.092)" fill="none" stroke="#281c49" stroke-linejoin="round" stroke-width="1.5"/><path d="M3652.616,788.376a3.8,3.8,0,0,0,6.97,0" transform="translate(0.022 0.126)" fill="none" stroke="#281c49" stroke-linecap="square" stroke-linejoin="round" stroke-width="1.5"/><line y2="1.124" transform="translate(3660.678 780.542)" stroke-width="1.5" stroke="#281c49" stroke-linecap="square" stroke-linejoin="round" fill="none"/><line y1="1.124" transform="translate(3651.446 780.542)" stroke-width="1.5" stroke="#281c49" stroke-linecap="square" stroke-linejoin="round" fill="none"/><line y2="16.333" transform="translate(3663.9 807.016)" fill="none" stroke="#281c49" stroke-linecap="square" stroke-miterlimit="10" stroke-width="1.5"/><line y2="16.333" transform="translate(3648.255 807.016)" fill="none" stroke="#281c49" stroke-linecap="square" stroke-miterlimit="10" stroke-width="1.5"/><path d="M3644.089,803.623v19.436h24.023V802.673a6.015,6.015,0,0,0-6.015-6.015H3659.5" transform="translate(0 0.29)" fill="none" stroke="#281c49" stroke-linecap="square" stroke-miterlimit="10" stroke-width="1.5"/><path d="M3652.608,796.658h-2.5a6.018,6.018,0,0,0-1.749.259" transform="translate(0 0.162)" fill="none" stroke="#281c49" stroke-miterlimit="10" stroke-width="1.5"/><rect width="5.295" height="7.946" rx="1.203" stroke-width="1.5" fill="none" stroke="#281c49" stroke-linecap="square" stroke-miterlimit="10" transform="translate(3643.05 795.858)"/><path d="M3646.9,777.368l-.015,7.742a9.219,9.219,0,0,0,9.219,9.219h0a9.22,9.22,0,0,0,9.219-9.219v-9.469" transform="translate(0 0.087)" fill="none" stroke="#281c49" stroke-miterlimit="10" stroke-width="1.5"/><path d="M3644.089,783.143V768.966a2.433,2.433,0,0,1,2.434-2.433h16.247a6.262,6.262,0,0,0,4.722-2.143,6.268,6.268,0,0,1,2.649,5.284,6.367,6.367,0,0,1-6.414,6.114H3648.1a1.2,1.2,0,0,0-1.2,1.2v2.138" fill="none" stroke="#281c49" stroke-linecap="square" stroke-miterlimit="10" stroke-width="1.5"/><line y1="6.02" transform="translate(3667.199 774.875)" fill="none" stroke="#281c49" stroke-miterlimit="10" stroke-width="1.5"/><path d="M3677.662,790.687a9.177,9.177,0,0,1-4.674,1.271h0a9.21,9.21,0,0,1-7.8-4.3" transform="translate(0.058 0.127)" fill="none" stroke="#281c49" stroke-linecap="square" stroke-miterlimit="10" stroke-width="1.5"/><path d="M3669.5,791.307v4.237a3.447,3.447,0,0,0,6.895,0v-4.237" transform="translate(0.062 0.156)" fill="none" stroke="#281c49" stroke-linejoin="round" stroke-width="1.5"/><path d="M3669.5,786.005a3.8,3.8,0,0,0,6.969,0" transform="translate(0.062 0.114)" fill="none" stroke="#281c49" stroke-linecap="square" stroke-linejoin="round" stroke-width="1.5"/><line y2="1.124" transform="translate(3677.6 778.16)" stroke-width="1.5" stroke="#281c49" stroke-linecap="square" stroke-linejoin="round" fill="none"/><line y1="1.124" transform="translate(3668.385 778.16)" stroke-width="1.5" stroke="#281c49" stroke-linecap="square" stroke-linejoin="round" fill="none"/><line x1="9.751" transform="translate(3668.174 823.349)" fill="none" stroke="#281c49" stroke-miterlimit="10" stroke-width="1.5"/><path d="M3659.5,794.656l.586-.076a34.717,34.717,0,0,1,4.5-.292h4.905" transform="translate(0.041 0.151)" fill="none" stroke="#281c49" stroke-miterlimit="10" stroke-width="1.5"/><line y1="0.59" x2="4.523" transform="translate(3648.093 795.713)" fill="none" stroke="#281c49" stroke-miterlimit="10" stroke-width="1.5"/><path d="M3686.382,794.656l-.586-.076a34.717,34.717,0,0,0-4.5-.292h-4.906" transform="translate(0.083 0.151)" fill="none" stroke="#281c49" stroke-miterlimit="10" stroke-width="1.5"/><line x1="4.523" y1="0.59" transform="translate(3693.393 795.713)" fill="none" stroke="#281c49" stroke-miterlimit="10" stroke-width="1.5"/><path d="M3669.5,772.291l4.884,3.116a.838.838,0,0,0,.466.142h3.01" transform="translate(0.064)" fill="none" stroke="#281c49" stroke-miterlimit="10" stroke-width="1.5"/><path d="M3682.535,766.363a6.58,6.58,0,0,0-5.519-3.014h-6.743a1.788,1.788,0,0,0-1.789,1.788" transform="translate(0.069)" fill="none" stroke="#281c49" stroke-miterlimit="10" stroke-width="1.5"/><g transform="translate(3677.987 763.861)"><path d="M3680.671,777.828h3.194a12.366,12.366,0,0,0,9.438-4.362.467.467,0,0,1,.825.287,4.364,4.364,0,0,0,.06.548,4.217,4.217,0,0,0,3.6,3.434,4.3,4.3,0,0,0,1.3-.036v7.411a9.22,9.22,0,0,1-9.22,9.219h0a9.22,9.22,0,0,1-9.219-9.219Z" transform="translate(-3677.863 -763.789)" fill="none" stroke="#281c49" stroke-linecap="square" stroke-miterlimit="10" stroke-width="1.5"/><path d="M3686.382,793.677v4.237a3.448,3.448,0,1,0,6.9,0v-4.237" transform="translate(-3677.863 -763.693)" fill="none" stroke="#281c49" stroke-linejoin="round" stroke-width="1.5"/><path d="M3686.382,793.658h-6.874a1.645,1.645,0,0,1-1.645-1.645V775.872a12.011,12.011,0,0,1,12.011-12.011h0a12.011,12.011,0,0,1,12.012,12.011v16.141a1.646,1.646,0,0,1-1.645,1.645h-6.964" transform="translate(-3677.863 -763.861)" fill="none" stroke="#281c49" stroke-linejoin="round" stroke-width="1.5"/><path d="M3699.094,780.645h.705a2.087,2.087,0,0,1,2.087,2.087v.822a2.086,2.086,0,0,1-2.087,2.086h-.705" transform="translate(-3677.863 -763.771)" fill="none" stroke="#281c49" stroke-linecap="square" stroke-linejoin="round" stroke-width="1.5"/><path d="M3680.671,785.64h-.721a2.086,2.086,0,0,1-2.087-2.086v-.822a2.087,2.087,0,0,1,2.087-2.087h.705" transform="translate(-3677.863 -763.771)" fill="none" stroke="#281c49" stroke-linecap="square" stroke-linejoin="round" stroke-width="1.5"/><path d="M3686.39,787.654a3.8,3.8,0,0,0,6.969,0" transform="translate(-3677.863 -763.74)" fill="none" stroke="#281c49" stroke-linecap="square" stroke-linejoin="round" stroke-width="1.5"/><line y2="1.124" transform="translate(16.552 16.679)" stroke-width="1.5" stroke="#281c49" stroke-linecap="square" stroke-linejoin="round" fill="none"/><line y1="1.124" transform="translate(7.356 16.679)" stroke-width="1.5" stroke="#281c49" stroke-linecap="square" stroke-linejoin="round" fill="none"/><rect width="5.295" height="7.946" rx="1.203" stroke-width="1.5" fill="none" stroke="#281c49" stroke-linecap="square" stroke-miterlimit="10" transform="translate(25.063 39.942) rotate(-180)"/><line y2="16.333" transform="translate(4.255 43.155)" fill="none" stroke="#281c49" stroke-linecap="square" stroke-miterlimit="10" stroke-width="1.5"/><line y2="16.333" transform="translate(19.858 43.155)" fill="none" stroke="#281c49" stroke-linecap="square" stroke-miterlimit="10" stroke-width="1.5"/><path d="M3701.886,803.623v19.436h-24.023V802.673a6.015,6.015,0,0,1,6.015-6.015h2.5" transform="translate(-3677.863 -763.571)" fill="none" stroke="#281c49" stroke-linecap="square" stroke-miterlimit="10" stroke-width="1.5"/><path d="M3693.367,796.658h2.5a6.015,6.015,0,0,1,1.749.259" transform="translate(-3677.863 -763.7)" fill="none" stroke="#281c49" stroke-miterlimit="10" stroke-width="1.5"/></g></g><g transform="translate(-3091.64 -321.59)"><g transform="translate(3646.64 841.59)"><g transform="translate(19.074 20.936)"><path d="M3667.921,874.186l-.012,6.065a7.679,7.679,0,0,0,7.679,7.679h0a7.679,7.679,0,0,0,7.678-7.679v-6.173l-8.979.074-1.045-2.612a.6.6,0,0,0-1.116,0l-1.045,2.612Z" transform="translate(-3665.583 -862.552)" fill="none" stroke="#281c49" stroke-linecap="square" stroke-miterlimit="10" stroke-width="1.5"/><path d="M3672.679,887.387v3.53a2.872,2.872,0,0,0,5.743,0v-3.53" transform="translate(-3665.583 -862.552)" fill="none" stroke="#281c49" stroke-linejoin="round" stroke-width="1.5"/><path d="M3672.679,887.371h-5.726a1.37,1.37,0,0,1-1.37-1.37V872.557a10,10,0,0,1,10-10.005h0a10,10,0,0,1,10,10.005V886a1.37,1.37,0,0,1-1.37,1.37h-5.8" transform="translate(-3665.583 -862.552)" fill="none" stroke="#281c49" stroke-linejoin="round" stroke-width="1.5"/><path d="M3683.266,876.533h.588a1.738,1.738,0,0,1,1.738,1.737v.685a1.738,1.738,0,0,1-1.738,1.738h-.588" transform="translate(-3665.583 -862.552)" fill="none" stroke="#281c49" stroke-linecap="square" stroke-linejoin="round" stroke-width="1.5"/><path d="M3667.921,880.693h-.6a1.738,1.738,0,0,1-1.738-1.738v-.685a1.738,1.738,0,0,1,1.738-1.737h.588" transform="translate(-3665.583 -862.552)" fill="none" stroke="#281c49" stroke-linecap="square" stroke-linejoin="round" stroke-width="1.5"/><path d="M3672.685,882.37a3.166,3.166,0,0,0,5.8,0" transform="translate(-3665.583 -862.552)" fill="none" stroke="#281c49" stroke-linecap="square" stroke-linejoin="round" stroke-width="1.5"/><line y2="0.937" transform="translate(13.787 13.824)" stroke-width="1.5" stroke="#281c49" stroke-linecap="square" stroke-linejoin="round" fill="none"/><line y1="0.937" transform="translate(6.127 13.824)" stroke-width="1.5" stroke="#281c49" stroke-linecap="square" stroke-linejoin="round" fill="none"/><path d="M3672.679,889.87h-2.086a5.01,5.01,0,0,0-5.01,5.01v6.736h20.009V894.88a5.01,5.01,0,0,0-5.01-5.01h-2.16" transform="translate(-3665.583 -862.552)" fill="none" stroke="#281c49" stroke-linecap="square" stroke-miterlimit="10" stroke-width="1.5"/></g><line y1="7.857" transform="translate(33.991 14.375)" fill="none" stroke="#281c49" stroke-miterlimit="10" stroke-width="1.5"/><path d="M3701.137,856.5v8.3a10.329,10.329,0,0,1-10.329,10.329h0a10.272,10.272,0,0,1-5.216-1.412" transform="translate(-3646.38 -841.599)" fill="none" stroke="#281c49" stroke-miterlimit="10" stroke-width="1.5"/><path d="M3686.9,874.4v4.747a3.863,3.863,0,1,0,7.725,0V874.4" transform="translate(-3646.431 -841.607)" fill="none" stroke="#281c49" stroke-linejoin="round" stroke-width="1.5"/><path d="M3701.137,859.8h.791a2.337,2.337,0,0,1,2.337,2.338v.921a2.337,2.337,0,0,1-2.337,2.338h-.791" transform="translate(-3646.38 -841.599)" fill="none" stroke="#281c49" stroke-linecap="square" stroke-linejoin="round" stroke-width="1.5"/><path d="M3677.35,862.6v-.461a2.338,2.338,0,0,1,2.338-2.338h.791" transform="translate(-3646.494 -841.598)" fill="none" stroke="#281c49" stroke-linecap="square" stroke-linejoin="round" stroke-width="1.5"/><path d="M3686.9,867.385a4.259,4.259,0,0,0,7.808,0" transform="translate(-3646.43 -841.602)" fill="none" stroke="#281c49" stroke-linecap="square" stroke-linejoin="round" stroke-width="1.5"/><line y2="1.26" transform="translate(49.516 17.994)" stroke-width="1.5" stroke="#281c49" stroke-linecap="square" stroke-linejoin="round" fill="none"/><line y1="1.26" transform="translate(39.128 17.994)" stroke-width="1.5" stroke="#281c49" stroke-linecap="square" stroke-linejoin="round" fill="none"/><line y1="2.723" transform="translate(35.638 45.776)" fill="none" stroke="#281c49" stroke-miterlimit="10" stroke-width="1.5"/><path d="M3699.5,889.023v12.593h-13.906" transform="translate(-3646.38 -841.616)" fill="none" stroke="#281c49" stroke-linecap="square" stroke-miterlimit="10" stroke-width="1.5"/><path d="M3694.62,877.743h2.906a6.739,6.739,0,0,1,6.739,6.739v17.134H3699.5" transform="translate(-3646.38 -841.616)" fill="none" stroke="#281c49" stroke-linecap="square" stroke-miterlimit="10" stroke-width="1.5"/><path d="M3686.9,877.743" transform="translate(-3646.459 -841.606)" fill="none" stroke="#281c49" stroke-linecap="square" stroke-miterlimit="10" stroke-width="1.5"/><path d="M3666.467,877.743" transform="translate(-3646.551 -841.606)" fill="none" stroke="#281c49" stroke-linecap="square" stroke-miterlimit="10" stroke-width="1.5"/><path d="M3656.34,874.4v4.747a3.862,3.862,0,1,0,7.725,0V874.4" transform="translate(-3646.589 -841.607)" fill="none" stroke="#281c49" stroke-linejoin="round" stroke-width="1.5"/><path d="M3670.582,859.8h.791a2.337,2.337,0,0,1,2.337,2.338v.589" transform="translate(-3646.526 -841.598)" fill="none" stroke="#281c49" stroke-linejoin="round" stroke-width="1.5"/><path d="M3649.941,865.4h-.808a2.338,2.338,0,0,1-2.337-2.338v-.921a2.338,2.338,0,0,1,2.337-2.338h.791" transform="translate(-3646.64 -841.599)" fill="none" stroke="#281c49" stroke-linejoin="round" stroke-width="1.5"/><path d="M3656.349,867.385a4.259,4.259,0,0,0,7.808,0" transform="translate(-3646.589 -841.602)" fill="none" stroke="#281c49" stroke-linecap="square" stroke-linejoin="round" stroke-width="1.5"/><line y2="1.26" transform="translate(18.785 17.994)" stroke-width="1.5" stroke="#281c49" stroke-linecap="square" stroke-linejoin="round" fill="none"/><line y1="1.26" transform="translate(8.397 17.994)" stroke-width="1.5" stroke="#281c49" stroke-linecap="square" stroke-linejoin="round" fill="none"/><line y2="2.762" transform="translate(22.404 45.776)" fill="none" stroke="#281c49" stroke-miterlimit="10" stroke-width="1.5"/><line y2="12.593" transform="translate(4.823 47.407)" fill="none" stroke="#281c49" stroke-linecap="square" stroke-miterlimit="10" stroke-width="1.5"/><line x1="1.517" transform="translate(17.506 36.137)" fill="none" stroke="#281c49" stroke-linecap="square" stroke-miterlimit="10" stroke-width="1.5"/><line y1="9.698" transform="translate(24.05 12.598)" fill="none" stroke="#281c49" stroke-miterlimit="10" stroke-width="1.5"/><path d="M3649.941,856.13l-.017,8.674a10.328,10.328,0,0,0,10.329,10.329h0a10.283,10.283,0,0,0,5.33-1.479" transform="translate(-3646.64 -841.599)" fill="none" stroke="#281c49" stroke-miterlimit="10" stroke-width="1.5"/><line x2="1.303" transform="translate(39.132 32.799)" fill="none" stroke="#281c49" stroke-miterlimit="10" stroke-width="1.5"/><path d="M3694.62,874.4h5.716a4.044,4.044,0,0,0,4.044-4.043V850.276a5.392,5.392,0,0,0-5.392-5.392h-2.1a3.774,3.774,0,0,0-3.708-3.079h-5.694a10.245,10.245,0,0,0-10.245,10.245v10.638" transform="translate(-3646.38 -841.59)" fill="none" stroke="#281c49" stroke-miterlimit="10" stroke-width="1.5"/><g transform="translate(34.099 7.356)"><path d="M3701.137,859.512v-5.064a10.289,10.289,0,0,0-1.588-5.5,23.819,23.819,0,0,1-15.123,5.39,24.087,24.087,0,0,1-3.936-.328c-.006.146-.011.292-.011.44v5.327" transform="translate(-3680.479 -848.946)" fill="none" stroke="#281c49" stroke-linecap="square" stroke-miterlimit="10" stroke-width="1.5"/></g><path d="M3646.8,862.6V846.717a2.726,2.726,0,0,1,2.726-2.726h18.2a7.013,7.013,0,0,0,5.289-2.4,7.02,7.02,0,0,1,2.968,5.92,7.134,7.134,0,0,1-7.186,6.851h-17.508a1.348,1.348,0,0,0-1.348,1.348v2.4" transform="translate(-3646.64 -841.59)" fill="none" stroke="#281c49" stroke-linecap="square" stroke-miterlimit="10" stroke-width="1.5"/><line y1="6.744" transform="translate(26.109 11.673)" fill="none" stroke="#281c49" stroke-miterlimit="10" stroke-width="1.5"/><path d="M3656.285,877.743h-2.906a6.739,6.739,0,0,0-6.739,6.739v17.134h18.943" transform="translate(-3646.64 -841.616)" fill="none" stroke="#281c49" stroke-linecap="square" stroke-miterlimit="10" stroke-width="1.5"/></g><line y2="4.874" transform="translate(3682.277 896.716)" fill="none" stroke="#281c49" stroke-linecap="square" stroke-miterlimit="10" stroke-width="1.5"/><line y2="4.874" transform="translate(3669.044 896.716)" fill="none" stroke="#281c49" stroke-linecap="square" stroke-miterlimit="10" stroke-width="1.5"/></g><text transform="translate(430 595)" fill="#291d4c" font-size="12" font-family="Arial-BoldMT, Arial" font-weight="700"><tspan x="-22.09" y="0">парами</tspan></text><text transform="translate(506 595)" fill="#291d4c" font-size="12" font-family="Arial-BoldMT, Arial" font-weight="700"><tspan x="-33.955" y="0">с друзьями</tspan></text><text transform="translate(582 595)" fill="#291d4c" font-size="12" font-family="Arial-BoldMT, Arial" font-weight="700"><tspan x="-26.35" y="0">семьями</tspan></text><text transform="translate(393 487)" fill="#2a224b" font-size="14" font-family="Arial-BoldMT, Arial" font-weight="700"><tspan x="0" y="0">Состав посещения</tspan></text><text transform="translate(163 402)" fill="#292c45" font-size="12" font-family="Arial-BoldMT, Arial" font-weight="700"><tspan x="-11.625" y="0">Янв</tspan></text><text transform="translate(203 402)" fill="#292c45" font-size="12" font-family="Arial-BoldMT, Arial" font-weight="700"><tspan x="-12.146" y="0">Фев</tspan></text><text transform="translate(243 402)" fill="#292c45" font-size="12" font-family="Arial-BoldMT, Arial" font-weight="700"><tspan x="-14.933" y="0">Март</tspan></text><text transform="translate(283 402)" fill="#292c45" font-size="12" font-family="Arial-BoldMT, Arial" font-weight="700"><tspan x="-11.622" y="0">Апр</tspan></text><text transform="translate(323 402)" fill="#292c45" font-size="12" font-family="Arial-BoldMT, Arial" font-weight="700"><tspan x="-12.097" y="0">Май</tspan></text><text transform="translate(363 402)" fill="#292c45" font-size="12" font-family="Arial-BoldMT, Arial" font-weight="700"><tspan x="-16.749" y="0">Июнь</tspan></text><text transform="translate(403 402)" fill="#292c45" font-size="12" font-family="Arial-BoldMT, Arial" font-weight="700"><tspan x="-16.787" y="0">Июль</tspan></text><text transform="translate(443 402)" fill="#292c45" font-size="12" font-family="Arial-BoldMT, Arial" font-weight="700"><tspan x="-10.521" y="0">Авг</tspan></text><text transform="translate(483 402)" fill="#292c45" font-size="12" font-family="Arial-BoldMT, Arial" font-weight="700"><tspan x="-11.294" y="0">Сен</tspan></text><text transform="translate(523 402)" fill="#292c45" font-size="12" font-family="Arial-BoldMT, Arial" font-weight="700"><tspan x="-10.608" y="0">Окт</tspan></text><text transform="translate(563 402)" fill="#292c45" font-size="12" font-family="Arial-BoldMT, Arial" font-weight="700"><tspan x="-11.42" y="0">Ноя</tspan></text><text transform="translate(603 402)" fill="#292c45" font-size="12" font-family="Arial-BoldMT, Arial" font-weight="700"><tspan x="-10.688" y="0">Дек</tspan></text><g transform="translate(144 243)" fill="#ff8a65" stroke="#ff8965" stroke-width="1"><rect width="26" height="143" stroke="none"/><rect x="0.5" y="0.5" width="25" height="142" fill="none"/></g><rect width="28" height="155" transform="translate(154 231)" fill="#ffa726"/><g transform="translate(184 333)" fill="#ff8a65" stroke="#ff8965" stroke-width="1"><rect width="26" height="53" stroke="none"/><rect x="0.5" y="0.5" width="25" height="52" fill="none"/></g><rect width="28" height="47" transform="translate(194 339)" fill="#ffa726"/><rect width="26" height="67" transform="translate(224 319)" fill="#ff8a65"/><rect width="28" height="68" transform="translate(234 318)" fill="#ffa726"/><g transform="translate(264 364)" fill="#ff8a65" stroke="#ff8965" stroke-width="1"><rect width="26" height="22" stroke="none"/><rect x="0.5" y="0.5" width="25" height="21" fill="none"/></g><rect width="28" height="31" transform="translate(274 355)" fill="#ffa726"/><g transform="translate(304 324)" fill="#ff8a65" stroke="#ff8965" stroke-width="1"><rect width="26" height="62" stroke="none"/><rect x="0.5" y="0.5" width="25" height="61" fill="none"/></g><rect width="28" height="70" transform="translate(314 316)" fill="#ffa726"/><g transform="translate(344 354)" fill="#ff8a65" stroke="#ff8965" stroke-width="1"><rect width="26" height="32" stroke="none"/><rect x="0.5" y="0.5" width="25" height="31" fill="none"/></g><rect width="28" height="48" transform="translate(354 338)" fill="#ffa726"/><g transform="translate(384 354)" fill="#ff8a65" stroke="#ff8965" stroke-width="1"><rect width="26" height="32" stroke="none"/><rect x="0.5" y="0.5" width="25" height="31" fill="none"/></g><rect width="28" height="65" transform="translate(394 321)" fill="#ffa726"/><g transform="translate(424 367)" fill="#ff8a65" stroke="#ff8965" stroke-width="1"><rect width="26" height="19" stroke="none"/><rect x="0.5" y="0.5" width="25" height="18" fill="none"/></g><rect width="28" height="49" transform="translate(434 337)" fill="#ffa726"/><g transform="translate(464 368)" fill="#ff8a65" stroke="#ff8965" stroke-width="1"><rect width="26" height="18" stroke="none"/><rect x="0.5" y="0.5" width="25" height="17" fill="none"/></g><rect width="28" height="13" transform="translate(474 373)" fill="#ffa726"/><g transform="translate(504 327)" fill="#ff8a65" stroke="#ff8965" stroke-width="1"><rect width="26" height="59" stroke="none"/><rect x="0.5" y="0.5" width="25" height="58" fill="none"/></g><rect width="28" height="87" transform="translate(514 299)" fill="#ffa726"/><g transform="translate(544 328)" fill="#ff8a65" stroke="#ff8965" stroke-width="1"><rect width="26" height="58" stroke="none"/><rect x="0.5" y="0.5" width="25" height="57" fill="none"/></g><rect width="28" height="64" transform="translate(554 322)" fill="#ffa726"/><rect width="26" height="78" transform="translate(584 308)" fill="#ff8a65"/><rect width="28" height="81" transform="translate(594 305)" fill="#ffa726"/><path d="M-13.68-10.68v-1.56a2.379,2.379,0,0,0,1.62-.44,3.282,3.282,0,0,0,.8-1.32h1.48V0h-2.2V-10.68Zm8.58-.1v7.56q0,1.38,1.14,1.38t1.14-1.38v-7.56q0-1.38-1.14-1.38T-5.1-10.78ZM-7.3-3.36v-7.28a3.663,3.663,0,0,1,.86-2.6,3.23,3.23,0,0,1,2.48-.92,3.23,3.23,0,0,1,2.48.92,3.663,3.663,0,0,1,.86,2.6v7.28a3.663,3.663,0,0,1-.86,2.6A3.23,3.23,0,0,1-3.96.16,3.23,3.23,0,0,1-6.44-.76,3.663,3.663,0,0,1-7.3-3.36Z" transform="translate(138 394)" fill="#292c45"/><path d="M-13.68-10.68v-1.56a2.379,2.379,0,0,0,1.62-.44,3.282,3.282,0,0,0,.8-1.32h1.48V0h-2.2V-10.68Zm6.46,6.16h2.08v1.3q0,1.36,1.14,1.36t1.14-1.36V-6.3q0-1.38-1.14-1.38T-5.14-6.3v.42H-7.22l.4-8.12h5.8v2H-4.84l-.18,3.34A2.089,2.089,0,0,1-3.1-9.68q2.44,0,2.44,3.2v3.12A3.712,3.712,0,0,1-1.5-.75,3.156,3.156,0,0,1-3.94.16,3.156,3.156,0,0,1-6.38-.75a3.712,3.712,0,0,1-.84-2.61Z" transform="translate(138 354)" fill="#292c45"/><path d="M-10.68-10.56a2.01,2.01,0,0,0-.29-1.25,1.041,1.041,0,0,0-.85-.35q-1.14,0-1.14,1.38v1.5h-2.08v-1.36a3.712,3.712,0,0,1,.84-2.61,3.156,3.156,0,0,1,2.44-.91,3.156,3.156,0,0,1,2.44.91,3.712,3.712,0,0,1,.84,2.61,6.068,6.068,0,0,1-.45,2.32,7.128,7.128,0,0,1-1.1,1.88q-.65.78-1.29,1.46a9.9,9.9,0,0,0-1.09,1.37,2.418,2.418,0,0,0-.45,1.31,1.657,1.657,0,0,0,.02.3h4.16V0h-6.36V-1.72a4.82,4.82,0,0,1,.45-2.09A6.819,6.819,0,0,1-13.5-5.47q.64-.71,1.28-1.4A6.508,6.508,0,0,0-11.13-8.5,4.708,4.708,0,0,0-10.68-10.56Zm5.58-.22v7.56q0,1.38,1.14,1.38t1.14-1.38v-7.56q0-1.38-1.14-1.38T-5.1-10.78ZM-7.3-3.36v-7.28a3.663,3.663,0,0,1,.86-2.6,3.23,3.23,0,0,1,2.48-.92,3.23,3.23,0,0,1,2.48.92,3.663,3.663,0,0,1,.86,2.6v7.28a3.663,3.663,0,0,1-.86,2.6A3.23,3.23,0,0,1-3.96.16,3.23,3.23,0,0,1-6.44-.76,3.663,3.663,0,0,1-7.3-3.36Z" transform="translate(139 314)" fill="#292c45"/><path d="M-10.68-10.56a2.01,2.01,0,0,0-.29-1.25,1.041,1.041,0,0,0-.85-.35q-1.14,0-1.14,1.38v1.5h-2.08v-1.36a3.712,3.712,0,0,1,.84-2.61,3.156,3.156,0,0,1,2.44-.91,3.156,3.156,0,0,1,2.44.91,3.712,3.712,0,0,1,.84,2.61,6.068,6.068,0,0,1-.45,2.32,7.128,7.128,0,0,1-1.1,1.88q-.65.78-1.29,1.46a9.9,9.9,0,0,0-1.09,1.37,2.418,2.418,0,0,0-.45,1.31,1.657,1.657,0,0,0,.02.3h4.16V0h-6.36V-1.72a4.82,4.82,0,0,1,.45-2.09A6.819,6.819,0,0,1-13.5-5.47q.64-.71,1.28-1.4A6.508,6.508,0,0,0-11.13-8.5,4.708,4.708,0,0,0-10.68-10.56Zm3.46,6.04h2.08v1.3q0,1.36,1.14,1.36t1.14-1.36V-6.3q0-1.38-1.14-1.38T-5.14-6.3v.42H-7.22l.4-8.12h5.8v2H-4.84l-.18,3.34A2.089,2.089,0,0,1-3.1-9.68q2.44,0,2.44,3.2v3.12A3.712,3.712,0,0,1-1.5-.75,3.156,3.156,0,0,1-3.94.16,3.156,3.156,0,0,1-6.38-.75a3.712,3.712,0,0,1-.84-2.61Z" transform="translate(139 274)" fill="#292c45"/><path d="M-10.8-9.78v-.78a2.01,2.01,0,0,0-.29-1.25,1.041,1.041,0,0,0-.85-.35q-1.14,0-1.14,1.38v.9h-2.08v-.76a3.712,3.712,0,0,1,.84-2.61,3.156,3.156,0,0,1,2.44-.91,3.156,3.156,0,0,1,2.44.91,3.712,3.712,0,0,1,.84,2.61v.36q0,2.24-1.54,2.88,1.54.68,1.54,2.94v1.1A3.712,3.712,0,0,1-9.44-.75a3.156,3.156,0,0,1-2.44.91,3.156,3.156,0,0,1-2.44-.91,3.712,3.712,0,0,1-.84-2.61V-4.52h2.08v1.3q0,1.38,1.14,1.38a1.041,1.041,0,0,0,.85-.35,1.968,1.968,0,0,0,.29-1.23v-1.1a2.16,2.16,0,0,0-.34-1.37,1.351,1.351,0,0,0-1.1-.41h-.74v-2h.86a1.32,1.32,0,0,0,.99-.34A1.607,1.607,0,0,0-10.8-9.78Zm5.7-1v7.56q0,1.38,1.14,1.38t1.14-1.38v-7.56q0-1.38-1.14-1.38T-5.1-10.78ZM-7.3-3.36v-7.28a3.663,3.663,0,0,1,.86-2.6,3.23,3.23,0,0,1,2.48-.92,3.23,3.23,0,0,1,2.48.92,3.663,3.663,0,0,1,.86,2.6v7.28a3.663,3.663,0,0,1-.86,2.6A3.23,3.23,0,0,1-3.96.16,3.23,3.23,0,0,1-6.44-.76,3.663,3.663,0,0,1-7.3-3.36Z" transform="translate(139 234)" fill="#292c45"/><text transform="translate(163 224)" fill="#292c45" font-size="12" font-family="Arial-BoldMT, Arial" font-weight="700"><tspan x="-12.176" y="0">+5%</tspan></text><text transform="translate(203 326)" fill="#292c45" font-size="12" font-family="Arial-BoldMT, Arial" font-weight="700"><tspan x="-10.67" y="0">-5%</tspan></text><text transform="translate(283 348)" fill="#292c45" font-size="12" font-family="Arial-BoldMT, Arial" font-weight="700"><tspan x="-12.176" y="0">+9%</tspan></text><text transform="translate(243 311)" fill="#292c45" font-size="12" font-family="Arial-BoldMT, Arial" font-weight="700"><tspan x="-12.176" y="0">+0%</tspan></text><text transform="translate(323 309)" fill="#292c45" font-size="12" font-family="Arial-BoldMT, Arial" font-weight="700"><tspan x="-12.176" y="0">+6%</tspan></text><text transform="translate(363 331)" fill="#292c45" font-size="12" font-family="Arial-BoldMT, Arial" font-weight="700"><tspan x="-15.513" y="0">+15%</tspan></text><text transform="translate(403 314)" fill="#292c45" font-size="12" font-family="Arial-BoldMT, Arial" font-weight="700"><tspan x="-15.513" y="0">+37%</tspan></text><text transform="translate(443 330)" fill="#292c45" font-size="12" font-family="Arial-BoldMT, Arial" font-weight="700"><tspan x="-15.513" y="0">+30%</tspan></text><text transform="translate(483 361)" fill="#292c45" font-size="12" font-family="Arial-BoldMT, Arial" font-weight="700"><tspan x="-10.67" y="0">-6%</tspan></text><text transform="translate(523 292)" fill="#292c45" font-size="12" font-family="Arial-BoldMT, Arial" font-weight="700"><tspan x="-15.513" y="0">+22%</tspan></text><text transform="translate(563 315)" fill="#292c45" font-size="12" font-family="Arial-BoldMT, Arial" font-weight="700"><tspan x="-12.176" y="0">+3%</tspan></text><text transform="translate(603 298)" fill="#292c45" font-size="12" font-family="Arial-BoldMT, Arial" font-weight="700"><tspan x="-12.176" y="0">+9%</tspan></text><text transform="translate(362 420)" fill="#292c45" font-size="12" font-family="Arial-BoldMT, Arial" font-weight="700"><tspan x="0" y="0">зрители в</tspan><tspan y="0" xml:space="preserve" fill="#ffa726"> 2019 </tspan><tspan y="0">году (млн чел)</tspan></text><text transform="translate(151 420)" fill="#292c45" font-size="12" font-family="Arial-BoldMT, Arial" font-weight="700"><tspan x="0" y="0">зрители в</tspan><tspan y="0" xml:space="preserve" fill="#ff8a65"> 2018 </tspan><tspan y="0">году (млн чел)</tspan></text><rect width="15" height="15" transform="translate(341 409)" fill="#ffa726"/><rect width="15" height="15" transform="translate(130 409)" fill="#ff8a65"/><text transform="translate(168 242)" fill="#fff9ec" font-size="10" font-family="Arial-BoldMT, Arial" font-weight="700"><tspan x="-9.731" y="0">29.5</tspan></text><text transform="translate(208 350)" fill="#fff9ec" font-size="10" font-family="Arial-BoldMT, Arial" font-weight="700"><tspan x="-9.731" y="0">16.0</tspan></text><text transform="translate(248 329)" fill="#fff9ec" font-size="10" font-family="Arial-BoldMT, Arial" font-weight="700"><tspan x="-9.731" y="0">18.8</tspan></text><text transform="translate(288 366)" fill="#fff9ec" font-size="10" font-family="Arial-BoldMT, Arial" font-weight="700"><tspan x="-9.731" y="0">13.9</tspan></text><text transform="translate(328 327)" fill="#fff9ec" font-size="10" font-family="Arial-BoldMT, Arial" font-weight="700"><tspan x="-9.731" y="0">18.9</tspan></text><text transform="translate(368 349)" fill="#fff9ec" font-size="10" font-family="Arial-BoldMT, Arial" font-weight="700"><tspan x="-9.731" y="0">16.3</tspan></text><text transform="translate(408 332)" fill="#fff9ec" font-size="10" font-family="Arial-BoldMT, Arial" font-weight="700"><tspan x="-9.731" y="0">19.2</tspan></text><text transform="translate(448 348)" fill="#fff9ec" font-size="10" font-family="Arial-BoldMT, Arial" font-weight="700"><tspan x="-9.731" y="0">16.3</tspan></text><text transform="translate(488 384)" fill="#fff9ec" font-size="10" font-family="Arial-BoldMT, Arial" font-weight="700"><tspan x="-9.456" y="0">11.6</tspan></text><text transform="translate(528 310)" fill="#fff9ec" font-size="10" font-family="Arial-BoldMT, Arial" font-weight="700"><tspan x="-9.731" y="0">21.0</tspan></text><text transform="translate(568 333)" fill="#fff9ec" font-size="10" font-family="Arial-BoldMT, Arial" font-weight="700"><tspan x="-9.731" y="0">18.1</tspan></text><text transform="translate(608 316)" fill="#fff9ec" font-size="10" font-family="Arial-BoldMT, Arial" font-weight="700"><tspan x="-9.731" y="0">20.4</tspan></text><g transform="translate(8671.977 -4671.313)"><g transform="matrix(1, 0, 0, 1, -8550.48, 4858.74)" filter="url(#a)"><rect width="190" height="38" transform="translate(310.5 40.58)" fill="#fbf5e8"/></g><path d="M.879-6.223h3.6a2.8,2.8,0,0,1,1.658.4A1.414,1.414,0,0,1,6.691-4.6a1.433,1.433,0,0,1-.3.908,1.438,1.438,0,0,1-.759.516,1.612,1.612,0,0,1,.961.592,1.576,1.576,0,0,1,.316.949A1.478,1.478,0,0,1,6.375-.454,2.375,2.375,0,0,1,4.8,0H.879ZM2.537-3.639H3.6a2.376,2.376,0,0,0,1.11-.193.65.65,0,0,0,.343-.609A.582.582,0,0,0,4.731-5,2.685,2.685,0,0,0,3.6-5.168H2.537Zm0,2.584h1.3a2.314,2.314,0,0,0,1.025-.17.628.628,0,0,0,.322-.609.634.634,0,0,0-.369-.63,3.914,3.914,0,0,0-1.436-.173H2.537ZM16.9-1.529V0H11.13a3.975,3.975,0,0,1,.563-1.644A10.937,10.937,0,0,1,13.544-3.7a11.646,11.646,0,0,0,1.365-1.406,1.811,1.811,0,0,0,.34-1.008,1.146,1.146,0,0,0-.3-.847,1.1,1.1,0,0,0-.817-.3,1.1,1.1,0,0,0-.82.311,1.6,1.6,0,0,0-.352,1.031l-1.641-.164a2.69,2.69,0,0,1,.92-1.951,3.089,3.089,0,0,1,1.934-.592,2.8,2.8,0,0,1,2,.686A2.249,2.249,0,0,1,16.9-6.234a2.968,2.968,0,0,1-.208,1.1,4.492,4.492,0,0,1-.659,1.1,10.548,10.548,0,0,1-1.078,1.1q-.779.715-.987.949a2.842,2.842,0,0,0-.337.457Zm3.956-7.1a2.347,2.347,0,0,1,1.951.891,5.686,5.686,0,0,1,.838,3.5,5.7,5.7,0,0,1-.844,3.5,2.343,2.343,0,0,1-1.945.879,2.458,2.458,0,0,1-2.021-.964,5.7,5.7,0,0,1-.768-3.437,5.675,5.675,0,0,1,.844-3.492A2.343,2.343,0,0,1,20.858-8.625Zm0,1.365a.823.823,0,0,0-.533.19,1.278,1.278,0,0,0-.363.683,9.415,9.415,0,0,0-.17,2.15,9.346,9.346,0,0,0,.152,2.077,1.46,1.46,0,0,0,.384.753.819.819,0,0,0,.53.188.823.823,0,0,0,.533-.19,1.278,1.278,0,0,0,.363-.683,9.332,9.332,0,0,0,.17-2.145,9.346,9.346,0,0,0-.152-2.077,1.481,1.481,0,0,0-.384-.756A.811.811,0,0,0,20.858-7.26ZM29.021,0H27.375V-6.205a5.676,5.676,0,0,1-2.127,1.248V-6.451a4.762,4.762,0,0,0,1.4-.8,3.039,3.039,0,0,0,1.037-1.374h1.336Zm2.556-1.986,1.594-.176a1.153,1.153,0,0,0,.3.721.9.9,0,0,0,.65.234,1.061,1.061,0,0,0,.867-.469,3.993,3.993,0,0,0,.457-1.945A1.966,1.966,0,0,1,33.9-2.9a2.32,2.32,0,0,1-1.749-.782,2.852,2.852,0,0,1-.735-2.036,2.9,2.9,0,0,1,.776-2.106,2.637,2.637,0,0,1,1.978-.8,2.662,2.662,0,0,1,2.145,1.011,5.222,5.222,0,0,1,.838,3.325,5.286,5.286,0,0,1-.873,3.4A2.824,2.824,0,0,1,34,.152a2.4,2.4,0,0,1-1.629-.536A2.588,2.588,0,0,1,31.577-1.986Zm3.727-3.6a1.878,1.878,0,0,0-.366-1.236,1.081,1.081,0,0,0-.847-.439.949.949,0,0,0-.759.36,1.838,1.838,0,0,0-.3,1.181A1.876,1.876,0,0,0,33.359-4.5a1.029,1.029,0,0,0,.82.39,1.018,1.018,0,0,0,.8-.375A1.638,1.638,0,0,0,35.3-5.584Zm6.653-.639h5.525V0H45.836V-4.893H43.6V0H41.957ZM48.949-3.2a3.366,3.366,0,0,1,.4-1.588A2.775,2.775,0,0,1,50.5-5.959a3.4,3.4,0,0,1,1.655-.4,3.107,3.107,0,0,1,2.314.917,3.168,3.168,0,0,1,.9,2.317,3.206,3.206,0,0,1-.911,2.341,3.08,3.08,0,0,1-2.294.929,3.613,3.613,0,0,1-1.632-.387A2.653,2.653,0,0,1,49.353-1.38,3.778,3.778,0,0,1,48.949-3.2Zm1.688.088a2.062,2.062,0,0,0,.439,1.418A1.4,1.4,0,0,0,52.16-1.2a1.387,1.387,0,0,0,1.081-.492,2.09,2.09,0,0,0,.437-1.43,2.052,2.052,0,0,0-.437-1.406,1.387,1.387,0,0,0-1.081-.492,1.4,1.4,0,0,0-1.084.492A2.062,2.062,0,0,0,50.636-3.111Zm14.9-1.271-1.623.293a1.178,1.178,0,0,0-.372-.732,1.124,1.124,0,0,0-.753-.246,1.23,1.23,0,0,0-.981.425,2.177,2.177,0,0,0-.366,1.421,2.518,2.518,0,0,0,.372,1.564,1.222,1.222,0,0,0,1,.457,1.11,1.11,0,0,0,.768-.267A1.6,1.6,0,0,0,64-2.385l1.617.275a2.87,2.87,0,0,1-.967,1.682,2.993,2.993,0,0,1-1.916.568,2.849,2.849,0,0,1-2.177-.861,3.339,3.339,0,0,1-.812-2.385,3.347,3.347,0,0,1,.814-2.4,2.893,2.893,0,0,1,2.2-.858,3.006,3.006,0,0,1,1.808.489A2.711,2.711,0,0,1,65.539-4.383ZM66.8-6.223h1.535v.914a2.3,2.3,0,0,1,.809-.762,2.229,2.229,0,0,1,1.131-.293,2.372,2.372,0,0,1,1.84.85,3.439,3.439,0,0,1,.756,2.367,3.543,3.543,0,0,1-.762,2.423,2.373,2.373,0,0,1-1.846.864,2.1,2.1,0,0,1-.935-.205,3.15,3.15,0,0,1-.882-.7V2.367H66.8ZM68.43-3.217a2.4,2.4,0,0,0,.416,1.55,1.273,1.273,0,0,0,1.014.5,1.19,1.19,0,0,0,.955-.46A2.37,2.37,0,0,0,71.2-3.135,2.249,2.249,0,0,0,70.8-4.588a1.214,1.214,0,0,0-.973-.475,1.263,1.263,0,0,0-1,.466A2.073,2.073,0,0,0,68.43-3.217Zm7.039-1.107-1.494-.27a2.327,2.327,0,0,1,.867-1.336,3.173,3.173,0,0,1,1.828-.434A3.94,3.94,0,0,1,78.31-6.1a1.636,1.636,0,0,1,.759.662,3.4,3.4,0,0,1,.22,1.474l-.018,1.922a6.672,6.672,0,0,0,.079,1.21,3.532,3.532,0,0,0,.3.835H78.017q-.064-.164-.158-.486Q77.818-.633,77.8-.68a2.968,2.968,0,0,1-.9.615,2.584,2.584,0,0,1-1.025.205,2.12,2.12,0,0,1-1.515-.521A1.733,1.733,0,0,1,73.8-1.7a1.77,1.77,0,0,1,.252-.94,1.646,1.646,0,0,1,.706-.633,5.518,5.518,0,0,1,1.31-.384,8.971,8.971,0,0,0,1.6-.4v-.164a.853.853,0,0,0-.234-.677,1.4,1.4,0,0,0-.885-.2,1.178,1.178,0,0,0-.686.173A1.2,1.2,0,0,0,75.468-4.324Zm2.2,1.336a10.292,10.292,0,0,1-1,.252,3.018,3.018,0,0,0-.9.287.687.687,0,0,0-.322.58.808.808,0,0,0,.258.6.9.9,0,0,0,.656.252,1.426,1.426,0,0,0,.85-.293,1.031,1.031,0,0,0,.393-.545,3.251,3.251,0,0,0,.064-.8Zm3.318-3.234h3.6a2.8,2.8,0,0,1,1.658.4A1.414,1.414,0,0,1,86.8-4.6a1.433,1.433,0,0,1-.3.908,1.438,1.438,0,0,1-.759.516,1.612,1.612,0,0,1,.961.592,1.576,1.576,0,0,1,.316.949,1.478,1.478,0,0,1-.533,1.181A2.375,2.375,0,0,1,84.909,0h-3.92Zm1.658,2.584h1.061a2.376,2.376,0,0,0,1.11-.193.65.65,0,0,0,.343-.609A.582.582,0,0,0,84.842-5a2.685,2.685,0,0,0-1.134-.167H82.647Zm0,2.584h1.3a2.314,2.314,0,0,0,1.025-.17.628.628,0,0,0,.322-.609.634.634,0,0,0-.369-.63,3.914,3.914,0,0,0-1.436-.173h-.844Zm5.7-5.168H89.99v2.279h2.355V-6.223H94V0H92.346V-2.613H89.99V0H88.344ZM99.32-1.98l1.641.275a2.691,2.691,0,0,1-1,1.374,2.935,2.935,0,0,1-1.708.472,2.784,2.784,0,0,1-2.4-1.061,3.563,3.563,0,0,1-.615-2.145,3.436,3.436,0,0,1,.809-2.423,2.663,2.663,0,0,1,2.045-.876,2.762,2.762,0,0,1,2.191.917,4.057,4.057,0,0,1,.768,2.81H96.923a1.666,1.666,0,0,0,.4,1.14,1.246,1.246,0,0,0,.949.407,1.008,1.008,0,0,0,.65-.211A1.3,1.3,0,0,0,99.32-1.98Zm.094-1.664a1.585,1.585,0,0,0-.369-1.087,1.133,1.133,0,0,0-.855-.372,1.144,1.144,0,0,0-.891.393,1.519,1.519,0,0,0-.346,1.066Zm2.972-2.578h1.646v2.279h2.355V-6.223h1.652V0h-1.652V-2.613h-2.355V0h-1.646Zm7.331,0H111.3v3.908l2.531-3.908h1.617V0h-1.582V-3.979L111.3,0h-1.582Zm7.466,0h1.646v2.514h1.313a2.98,2.98,0,0,1,.905-1.925,2.91,2.91,0,0,1,2.077-.729,2.89,2.89,0,0,1,2.15.85,3.343,3.343,0,0,1,.838,2.449,4,4,0,0,1-.313,1.641,2.623,2.623,0,0,1-.958,1.134,2.975,2.975,0,0,1-1.682.431,2.851,2.851,0,0,1-2.227-.812,2.83,2.83,0,0,1-.791-1.731H118.83V0h-1.646ZM123.1-5.08a1.143,1.143,0,0,0-1,.439,2.45,2.45,0,0,0-.313,1.4,2.872,2.872,0,0,0,.337,1.661,1.218,1.218,0,0,0,1.022.431,1.059,1.059,0,0,0,.949-.483,2.676,2.676,0,0,0,.316-1.45,2.605,2.605,0,0,0-.343-1.591A1.2,1.2,0,0,0,123.1-5.08ZM6.287,9.617,4.664,9.91a1.178,1.178,0,0,0-.372-.732,1.124,1.124,0,0,0-.753-.246,1.23,1.23,0,0,0-.981.425,2.177,2.177,0,0,0-.366,1.421,2.518,2.518,0,0,0,.372,1.564,1.222,1.222,0,0,0,1,.457,1.11,1.11,0,0,0,.768-.267,1.6,1.6,0,0,0,.422-.917l1.617.275A2.87,2.87,0,0,1,5.4,13.572a2.993,2.993,0,0,1-1.916.568,2.849,2.849,0,0,1-2.177-.861A3.339,3.339,0,0,1,.5,10.895a3.347,3.347,0,0,1,.814-2.4,2.893,2.893,0,0,1,2.2-.858,3.006,3.006,0,0,1,1.808.489A2.711,2.711,0,0,1,6.287,9.617Zm4.278-1.84H16.09V14H14.444V9.107H12.211V14H10.565Zm7.146,0h1.535v.914a2.3,2.3,0,0,1,.809-.762,2.229,2.229,0,0,1,1.131-.293,2.372,2.372,0,0,1,1.84.85,3.439,3.439,0,0,1,.756,2.367,3.543,3.543,0,0,1-.762,2.423,2.373,2.373,0,0,1-1.846.864,2.1,2.1,0,0,1-.935-.205,3.15,3.15,0,0,1-.882-.7v3.135H17.71Zm1.629,3.006a2.4,2.4,0,0,0,.416,1.55,1.273,1.273,0,0,0,1.014.5,1.19,1.19,0,0,0,.955-.46,2.37,2.37,0,0,0,.381-1.509,2.249,2.249,0,0,0-.393-1.453,1.214,1.214,0,0,0-.973-.475,1.263,1.263,0,0,0-1,.466A2.073,2.073,0,0,0,19.339,10.783Zm9.232,1.236,1.641.275a2.691,2.691,0,0,1-1,1.374,2.935,2.935,0,0,1-1.708.472,2.784,2.784,0,0,1-2.4-1.061,3.563,3.563,0,0,1-.615-2.145A3.436,3.436,0,0,1,25.3,8.513a2.663,2.663,0,0,1,2.045-.876,2.762,2.762,0,0,1,2.191.917,4.057,4.057,0,0,1,.768,2.81H26.174a1.666,1.666,0,0,0,.4,1.14,1.246,1.246,0,0,0,.949.407,1.008,1.008,0,0,0,.65-.211A1.3,1.3,0,0,0,28.571,12.02Zm.094-1.664A1.585,1.585,0,0,0,28.3,9.269a1.188,1.188,0,0,0-1.746.021,1.519,1.519,0,0,0-.346,1.066Zm8,3.645H31.955v1.641H30.619V12.652h.674a3.653,3.653,0,0,0,.7-1.465,15.791,15.791,0,0,0,.328-3.41h5.021v4.875h.668v2.988H36.666Zm-.955-1.348.006-3.521H33.724a6.561,6.561,0,0,1-.82,3.521ZM39.03,7.777h1.646v2.584h1.652a6.082,6.082,0,0,1,1.485.138,1.6,1.6,0,0,1,.867.6,1.741,1.741,0,0,1,.354,1.09,1.572,1.572,0,0,1-.621,1.356A3.15,3.15,0,0,1,42.551,14H39.03Zm1.646,5.18h1.529a1.552,1.552,0,0,0,.867-.187.69.69,0,0,0,.27-.609.622.622,0,0,0-.349-.618,3.223,3.223,0,0,0-1.251-.167H40.676Zm5.3-5.18H47.62V14H45.973ZM54.291,14H49.58v1.641H48.244V12.652h.674a3.653,3.653,0,0,0,.7-1.465,15.791,15.791,0,0,0,.328-3.41h5.021v4.875h.668v2.988H54.291Zm-.955-1.348.006-3.521H51.349a6.561,6.561,0,0,1-.82,3.521Zm2.675-4.875h1.752L59.251,12.2,60.7,7.777h1.705l-2.2,5.988-.393,1.084a4.419,4.419,0,0,1-.413.832,1.8,1.8,0,0,1-.451.466,1.972,1.972,0,0,1-.627.278,3.256,3.256,0,0,1-.841.1,4.362,4.362,0,0,1-.932-.1l-.146-1.289a3.642,3.642,0,0,0,.7.076,1.033,1.033,0,0,0,.85-.337,2.338,2.338,0,0,0,.422-.858Zm7.3,0h1.518V12.67h1.893V7.777h1.518V12.67h1.916V7.777H71.67V12.67h.674v2.971h-1.33V14H63.309Zm10,0H74.89v3.908l2.531-3.908h1.617V14H77.456V10.021L74.89,14H73.308Zm7.345,0h2.039l1.547,4.336L85.8,7.777H87.83V14h-1.4V9.9L84.912,14H83.506L82.059,9.9V14H80.653Zm11.86,0h4.2v1.33H94.159V14H92.512Zm4.4,3.023a3.366,3.366,0,0,1,.4-1.588,2.775,2.775,0,0,1,1.146-1.172,3.4,3.4,0,0,1,1.655-.4,3.107,3.107,0,0,1,2.314.917,3.168,3.168,0,0,1,.9,2.317,3.206,3.206,0,0,1-.911,2.341,3.08,3.08,0,0,1-2.294.929,3.613,3.613,0,0,1-1.632-.387A2.653,2.653,0,0,1,97.32,12.62,3.778,3.778,0,0,1,96.916,10.8Zm1.688.088a2.062,2.062,0,0,0,.439,1.418,1.437,1.437,0,0,0,2.165,0,2.09,2.09,0,0,0,.437-1.43,2.052,2.052,0,0,0-.437-1.406,1.437,1.437,0,0,0-2.165,0A2.062,2.062,0,0,0,98.6,10.889ZM109.493,14h-4.711v1.641h-1.336V12.652h.674a3.653,3.653,0,0,0,.7-1.465,15.791,15.791,0,0,0,.328-3.41h5.021v4.875h.668v2.988h-1.342Zm-.955-1.348.006-3.521h-1.992a6.561,6.561,0,0,1-.82,3.521Zm2.927-1.852a3.366,3.366,0,0,1,.4-1.588,2.775,2.775,0,0,1,1.146-1.172,3.4,3.4,0,0,1,1.655-.4,3.107,3.107,0,0,1,2.314.917,3.168,3.168,0,0,1,.9,2.317,3.206,3.206,0,0,1-.911,2.341,3.08,3.08,0,0,1-2.294.929,3.613,3.613,0,0,1-1.632-.387,2.653,2.653,0,0,1-1.181-1.134A3.778,3.778,0,0,1,111.465,10.8Zm1.688.088a2.062,2.062,0,0,0,.439,1.418,1.437,1.437,0,0,0,2.165,0,2.09,2.09,0,0,0,.437-1.43,2.052,2.052,0,0,0-.437-1.406,1.437,1.437,0,0,0-2.165,0A2.062,2.062,0,0,0,113.152,10.889Zm5.792-3.111h2.039l1.547,4.336,1.559-4.336h2.033V14h-1.4V9.9L123.2,14H121.8l-1.447-4.1V14h-1.406Z" transform="translate(-8184.976 4915)" fill="#2a2846"/></g><g transform="translate(8855 -1324)"><path d="M2907.431,692.221h-40v-18h40l6,9Z" transform="translate(-11140.43 1056.776)" fill="#2a224b"/><text transform="translate(-8265 1744)" fill="#fff9ec" font-size="12" font-family="Arial-BoldMT, Arial" font-weight="700" letter-spacing="-0.01em"><tspan x="0" y="0">2020</tspan></text></g><path d="M7.11-15.72H4.77v4.05H.75v2.34H4.77v4.11H7.11V-9.33h4.02v-2.34H7.11Zm15.66-.24c0-3.36-1.77-5.28-5.01-5.28s-5.01,1.92-5.01,5.28v3.84c0,3.09,1.23,4.8,3.66,4.8a3.141,3.141,0,0,0,3.06-1.86v3.84c0,2.01-.66,2.58-1.83,2.58-1.05,0-1.71-.57-1.71-2.07v-.75H12.81v.54c0,3.36,1.68,5.28,4.92,5.28,3.42,0,5.04-1.92,5.04-5.46Zm-5.01,5.64c-1.05,0-1.71-.57-1.71-2.07v-3.78c0-1.5.66-2.04,1.71-2.04s1.71.54,1.71,2.04v3.78C19.47-10.89,18.81-10.32,17.76-10.32Zm9.12-7.62c0-.93.39-1.32,1.08-1.32.66,0,1.08.39,1.08,1.32v7.2c0,.93-.42,1.32-1.08,1.32-.69,0-1.08-.39-1.08-1.32Zm-2.1,7.05c0,2.16,1.11,3.36,3.18,3.36s3.18-1.2,3.18-3.36v-6.9c0-2.16-1.11-3.36-3.18-3.36s-3.18,1.2-3.18,3.36ZM27.96,0h1.95l8.28-21H36.24Zm9.33-10.26c0-.93.39-1.32,1.08-1.32.66,0,1.08.39,1.08,1.32v7.2c0,.93-.42,1.32-1.08,1.32-.69,0-1.08-.39-1.08-1.32Zm-2.1,7.05c0,2.16,1.11,3.36,3.18,3.36s3.18-1.2,3.18-3.36v-6.9c0-2.16-1.11-3.36-3.18-3.36s-3.18,1.2-3.18,3.36Z" transform="translate(441 258.5)" fill="#2a2846"/><path d="M6.248-15.4H2.706L.242,0H2.464l.418-2.794h2.97L6.27,0H8.712ZM4.356-12.672,5.522-4.884H3.19ZM17.8-15.4h-2.53l-1.1,5.28L13.6-6.534l-.748-3.608L11.528-15.4H9.13L12.474-3.52l-.022.132c-.2,1.122-.9,1.342-2.134,1.254V.022c3.366.22,4.312-1.166,4.884-3.938ZM28.2,2.068V-2.156H27.148V-15.4H20.372l-.55,11.242a3.189,3.189,0,0,1-.594,2h-.946V2.068h2.354V0h5.17V2.068ZM22.638-13.2h2.046V-2.156H21.516A2.728,2.728,0,0,0,22.2-4.2ZM34.056-7.062l.99-3.784V0h2.178V-15.4H34.562l-1.98,6.358L31.7-5.654V-15.4H29.546V0h2.486Zm4.18-6.138h2.53V0h2.42V-13.2h2.53v-2.2h-7.48Zm10.758,1.342c0-1.1.484-1.518,1.254-1.518s1.254.418,1.254,1.518v8.316c0,1.1-.484,1.518-1.254,1.518s-1.254-.418-1.254-1.518ZM46.574-3.7c0,2.464,1.3,3.872,3.674,3.872S53.922-1.232,53.922-3.7V-11.7c0-2.464-1.3-3.872-3.674-3.872s-3.674,1.408-3.674,3.872ZM59.048-15.4H55.484V0H57.9V-5.786h1.144c2.42,0,3.608-1.342,3.608-3.806v-2C62.656-14.058,61.468-15.4,59.048-15.4Zm0,2.2c.77,0,1.188.352,1.188,1.452v2.31c0,1.1-.418,1.452-1.188,1.452H57.9V-13.2Zm9.24,6.138.99-3.784V0h2.178V-15.4H68.794l-1.98,6.358-.88,3.388V-15.4H63.778V0h2.486ZM75.2,0a4.736,4.736,0,0,0,.22-1.892v-2.42c0-1.43.484-1.958,1.584-1.958h.836V0h2.42V-15.4H76.6c-2.508,0-3.586,1.166-3.586,3.542v1.21c0,1.584.506,2.618,1.584,3.124C73.392-7.018,73-5.852,73-4.246V-1.87A4.535,4.535,0,0,1,72.732,0Zm2.64-13.2v4.73H76.89c-.9,0-1.452-.4-1.452-1.628v-1.518c0-1.1.374-1.584,1.232-1.584ZM90.948,0h2.486L90.068-8.536,93.434-15.4h-2.42L87.846-8.69V-15.4h-2.42V0h2.42V-4.73l.748-1.408Zm8.1-7.062.99-3.784V0h2.178V-15.4H99.55L97.57-9.042l-.88,3.388V-15.4H94.534V0H97.02Zm7.3.462h2.75V0h2.464V-15.4H109.1v6.6h-2.75v-6.6h-2.42V0h2.42Zm9.2-5.258c0-1.1.484-1.518,1.254-1.518s1.254.418,1.254,1.518v8.316c0,1.1-.484,1.518-1.254,1.518s-1.254-.418-1.254-1.518ZM113.124-3.7c0,2.464,1.3,3.872,3.674,3.872s3.674-1.408,3.674-3.872V-11.7c0-2.464-1.3-3.872-3.674-3.872s-3.674,1.408-3.674,3.872Zm8.206-9.5h2.53V0h2.42V-13.2h2.53v-2.2h-7.48Zm10.956,0h4.18v-2.2h-6.6V0h6.6V-2.2h-4.18V-6.71h3.322v-2.2h-3.322Zm11.044-2.2h-3.542L137.324,0h2.222l.418-2.794h2.97L143.352,0h2.442Zm-1.892,2.728L142.6-4.884h-2.332Zm4.774-.528h2.53V0h2.42V-13.2h2.53v-2.2h-7.48Zm12.1-2.2h-3.564V0h2.42V-5.786h1.144c2.42,0,3.608-1.342,3.608-3.806v-2C161.92-14.058,160.732-15.4,158.312-15.4Zm0,2.2c.77,0,1.188.352,1.188,1.452v2.31c0,1.1-.418,1.452-1.188,1.452h-1.144V-13.2Zm6.952,1.342c0-1.1.484-1.518,1.254-1.518s1.254.418,1.254,1.518v8.316c0,1.1-.484,1.518-1.254,1.518s-1.254-.418-1.254-1.518ZM162.844-3.7c0,2.464,1.3,3.872,3.674,3.872s3.674-1.408,3.674-3.872V-11.7c0-2.464-1.3-3.872-3.674-3.872s-3.674,1.408-3.674,3.872Zm12.562-11.7h-3.652V0h3.806c2.42,0,3.674-1.276,3.674-3.652V-4.906c0-1.628-.506-2.794-1.8-3.3,1.078-.506,1.562-1.518,1.562-3.1v-.55C178.992-14.234,177.914-15.4,175.406-15.4Zm-.154,8.47c1.1,0,1.562.44,1.562,1.87v1.342c0,1.144-.44,1.518-1.254,1.518h-1.386V-6.93Zm.088-6.27c.858,0,1.232.484,1.232,1.584v.858c0,1.232-.55,1.628-1.452,1.628h-.946V-13.2Z" transform="translate(122 203)" fill="#2a224b"/><path d="M7.832-15.4c-2.42,0-3.388.9-3.388,3.366v8.668C4.444-.9,5.412,0,7.832,0H8.58V-1.98H7.986c-.77,0-1.122-.286-1.122-1.386v-8.668c0-1.1.352-1.386,1.122-1.386H8.58V-15.4Zm6.644,4.642c0,1.232-.55,1.628-1.452,1.628H12.3v2.2h.594c1.1,0,1.584.528,1.584,1.958v1.21c0,1.364-.484,1.738-1.254,1.738s-1.254-.418-1.254-1.518V-5.39H9.68V-3.7c0,2.464,1.232,3.872,3.608,3.872S16.9-1.232,16.9-3.7v-1.21c0-1.562-.484-2.706-1.694-3.234,1.166-.484,1.694-1.518,1.694-3.168v-.4c0-2.464-1.232-3.872-3.608-3.872s-3.564,1.364-3.564,3.828V-10.6h2.222v-1.254c0-1.1.506-1.518,1.276-1.518s1.254.374,1.254,1.76ZM22.088-15.4H18.524V0h2.42V-5.786h1.144c2.42,0,3.608-1.342,3.608-3.806v-2C25.7-14.058,24.508-15.4,22.088-15.4Zm0,2.2c.77,0,1.188.352,1.188,1.452v2.31c0,1.1-.418,1.452-1.188,1.452H20.944V-13.2Zm9.24,6.138.99-3.784V0H34.5V-15.4H31.834l-1.98,6.358-.88,3.388V-15.4H26.818V0H29.3Zm4.18-6.138h2.53V0h2.42V-13.2h2.53v-2.2h-7.48Zm10.956,0h4.18v-2.2h-6.6V0h6.6V-2.2h-4.18V-6.71h3.322v-2.2H46.464ZM51.458.022h.374c2.42,0,3.432-1.1,3.52-3.916l.264-9.306h2.112V0h2.464V-15.4H53.35l-.4,11.638c-.044,1.43-.4,1.584-1.5,1.584ZM66.55-7.062l.99-3.784V0h2.178V-15.4H67.056l-1.98,6.358L64.2-5.654V-15.4H62.04V0h2.486ZM72.358,0,71.72,2.2h.99L73.766-.242v-2.09H71.434V0ZM82.28-15.4H78.914V0h2.112V-10.89L82.83,0h2.288L86.79-11.044V0h2.288V-15.4H85.712L84.062-4.466ZM90.156.022h.374c2.42,0,3.432-1.1,3.52-3.916l.264-9.306h2.112V0H98.89V-15.4H92.048l-.4,11.638c-.044,1.43-.4,1.584-1.5,1.584Zm13-6.622h2.75V0h2.464V-15.4h-2.464v6.6h-2.75v-6.6h-2.42V0h2.42Zm6.974,4.268V0h2.332V-2.332ZM122.562-15.4v6.248c0,1.034-.484,1.584-1.254,1.584A1.36,1.36,0,0,1,119.9-9.086V-15.4h-2.42v6.512c0,2.112,1.034,3.542,3.014,3.542a2.992,2.992,0,0,0,2.068-.858V0h2.42V-15.4Zm6.622,2.2h4.18v-2.2h-6.6V0h6.6V-2.2h-4.18V-6.71h3.322v-2.2h-3.322ZM134.178.022h.374c2.42,0,3.432-1.1,3.52-3.916l.264-9.306h2.112V0h2.464V-15.4H136.07l-.4,11.638c-.044,1.43-.4,1.584-1.5,1.584ZM144.76-2.332V0h2.332V-2.332ZM148.324-15.4v1.98h.594c.77,0,1.122.286,1.122,1.386v8.668c0,1.1-.352,1.386-1.122,1.386h-.594V0h.748c2.42,0,3.388-.9,3.388-3.366v-8.668c0-2.464-.968-3.366-3.388-3.366Z" transform="translate(302 203)" fill="rgba(42,34,75,0.5)"/></g></svg>