<svg xmlns="http://www.w3.org/2000/svg" xmlns:xlink="http://www.w3.org/1999/xlink" width="288.676" height="265" viewBox="0 0 288.676 265"><defs><filter id="a" x="15.676" y="0" width="20" height="228" filterUnits="userSpaceOnUse"><feOffset dy="3" input="SourceAlpha"/><feGaussianBlur stdDeviation="3" result="b"/><feFlood flood-opacity="0.161"/><feComposite operator="in" in2="b"/><feComposite in="SourceGraphic"/></filter><filter id="c" x="112.676" y="33" width="176" height="50" filterUnits="userSpaceOnUse"><feOffset dy="2" input="SourceAlpha"/><feGaussianBlur stdDeviation="3" result="d"/><feFlood flood-opacity="0.161"/><feComposite operator="in" in2="d"/><feComposite in="SourceGraphic"/></filter></defs><g transform="translate(-25.324 -165)"><line y2="165" transform="translate(305 195)" fill="none" stroke="#e3ddd5" stroke-width="2"/><g transform="matrix(1, 0, 0, 1, 25.32, 165)" filter="url(#a)"><path d="M0,89.539v210" transform="translate(25.68 -83.54)" fill="none" stroke="#2a1e4d" stroke-width="2"/></g><text transform="translate(88 400)" fill="#292c45" font-size="10" font-family="Helvetica-Bold, Helvetica" font-weight="700"><tspan x="0" y="0">Зрители в</tspan><tspan y="0" xml:space="preserve" fill="#ffa726"> 2019 </tspan><tspan y="0">году (млн чел)</tspan></text><text transform="translate(88 425)" fill="#292c45" font-size="10" font-family="Helvetica-Bold, Helvetica" font-weight="700"><tspan x="0" y="0">Зрители в</tspan><tspan y="0" xml:space="preserve" fill="#ff8a65"> 2018 </tspan><tspan y="0">году (млн чел)</tspan></text><rect width="17" height="17" transform="translate(63 388)" fill="#ffa726"/><rect width="17" height="17" transform="translate(63 413)" fill="#ff8a65"/><path d="M-15.048-11.748v-1.716a2.617,2.617,0,0,0,1.782-.484,3.61,3.61,0,0,0,.88-1.452h1.628V0h-2.42V-11.748Zm9.438-.11v8.316q0,1.518,1.254,1.518T-3.1-3.542v-8.316q0-1.518-1.254-1.518T-5.61-11.858ZM-8.03-3.7V-11.7a4.03,4.03,0,0,1,.946-2.86,3.553,3.553,0,0,1,2.728-1.012,3.553,3.553,0,0,1,2.728,1.012A4.03,4.03,0,0,1-.682-11.7V-3.7a4.03,4.03,0,0,1-.946,2.86A3.553,3.553,0,0,1-4.356.176,3.553,3.553,0,0,1-7.084-.836,4.03,4.03,0,0,1-8.03-3.7Z" transform="translate(41 368)" fill="#292c45"/><path d="M-15.048-11.748v-1.716a2.617,2.617,0,0,0,1.782-.484,3.61,3.61,0,0,0,.88-1.452h1.628V0h-2.42V-11.748Zm7.106,6.776h2.288v1.43q0,1.5,1.254,1.5t1.254-1.5V-6.93q0-1.518-1.254-1.518T-5.654-6.93v.462H-7.942L-7.5-15.4h6.38v2.2h-4.2l-.2,3.674A2.3,2.3,0,0,1-3.41-10.648q2.684,0,2.684,3.52V-3.7A4.083,4.083,0,0,1-1.65-.825a3.472,3.472,0,0,1-2.684,1,3.472,3.472,0,0,1-2.684-1A4.083,4.083,0,0,1-7.942-3.7Z" transform="translate(41 328)" fill="#292c45"/><path d="M-11.748-11.616a2.211,2.211,0,0,0-.319-1.375A1.145,1.145,0,0,0-13-13.376q-1.254,0-1.254,1.518v1.65h-2.288v-1.5a4.083,4.083,0,0,1,.924-2.871,3.472,3.472,0,0,1,2.684-1,3.472,3.472,0,0,1,2.684,1A4.083,4.083,0,0,1-9.328-11.7a6.675,6.675,0,0,1-.495,2.552,7.841,7.841,0,0,1-1.21,2.068q-.715.858-1.419,1.606a10.893,10.893,0,0,0-1.2,1.507,2.66,2.66,0,0,0-.495,1.441,1.822,1.822,0,0,0,.022.33h4.576V0h-7V-1.892a5.3,5.3,0,0,1,.5-2.3,7.5,7.5,0,0,1,1.2-1.826q.7-.781,1.408-1.54a7.159,7.159,0,0,0,1.2-1.793A5.179,5.179,0,0,0-11.748-11.616Zm6.138-.242v8.316q0,1.518,1.254,1.518T-3.1-3.542v-8.316q0-1.518-1.254-1.518T-5.61-11.858ZM-8.03-3.7V-11.7a4.03,4.03,0,0,1,.946-2.86,3.553,3.553,0,0,1,2.728-1.012,3.553,3.553,0,0,1,2.728,1.012A4.03,4.03,0,0,1-.682-11.7V-3.7a4.03,4.03,0,0,1-.946,2.86A3.553,3.553,0,0,1-4.356.176,3.553,3.553,0,0,1-7.084-.836,4.03,4.03,0,0,1-8.03-3.7Z" transform="translate(42 288)" fill="#292c45"/><path d="M-11.748-11.616a2.211,2.211,0,0,0-.319-1.375A1.145,1.145,0,0,0-13-13.376q-1.254,0-1.254,1.518v1.65h-2.288v-1.5a4.083,4.083,0,0,1,.924-2.871,3.472,3.472,0,0,1,2.684-1,3.472,3.472,0,0,1,2.684,1A4.083,4.083,0,0,1-9.328-11.7a6.675,6.675,0,0,1-.495,2.552,7.841,7.841,0,0,1-1.21,2.068q-.715.858-1.419,1.606a10.893,10.893,0,0,0-1.2,1.507,2.66,2.66,0,0,0-.495,1.441,1.822,1.822,0,0,0,.022.33h4.576V0h-7V-1.892a5.3,5.3,0,0,1,.5-2.3,7.5,7.5,0,0,1,1.2-1.826q.7-.781,1.408-1.54a7.159,7.159,0,0,0,1.2-1.793A5.179,5.179,0,0,0-11.748-11.616Zm3.806,6.644h2.288v1.43q0,1.5,1.254,1.5t1.254-1.5V-6.93q0-1.518-1.254-1.518T-5.654-6.93v.462H-7.942L-7.5-15.4h6.38v2.2h-4.2l-.2,3.674A2.3,2.3,0,0,1-3.41-10.648q2.684,0,2.684,3.52V-3.7A4.083,4.083,0,0,1-1.65-.825a3.472,3.472,0,0,1-2.684,1,3.472,3.472,0,0,1-2.684-1A4.083,4.083,0,0,1-7.942-3.7Z" transform="translate(42 248)" fill="#292c45"/><path d="M-11.88-10.758v-.858a2.211,2.211,0,0,0-.319-1.375,1.145,1.145,0,0,0-.935-.385q-1.254,0-1.254,1.518v.99h-2.288V-11.7a4.083,4.083,0,0,1,.924-2.871,3.472,3.472,0,0,1,2.684-1,3.472,3.472,0,0,1,2.684,1A4.083,4.083,0,0,1-9.46-11.7v.4q0,2.464-1.694,3.168,1.694.748,1.694,3.234V-3.7a4.083,4.083,0,0,1-.924,2.871,3.472,3.472,0,0,1-2.684,1,3.472,3.472,0,0,1-2.684-1A4.083,4.083,0,0,1-16.676-3.7V-4.972h2.288v1.43q0,1.518,1.254,1.518a1.145,1.145,0,0,0,.935-.385,2.165,2.165,0,0,0,.319-1.353v-1.21a2.376,2.376,0,0,0-.374-1.507,1.486,1.486,0,0,0-1.21-.451h-.814v-2.2h.946A1.453,1.453,0,0,0-12.243-9.5,1.767,1.767,0,0,0-11.88-10.758Zm6.27-1.1v8.316q0,1.518,1.254,1.518T-3.1-3.542v-8.316q0-1.518-1.254-1.518T-5.61-11.858ZM-8.03-3.7V-11.7a4.03,4.03,0,0,1,.946-2.86,3.553,3.553,0,0,1,2.728-1.012,3.553,3.553,0,0,1,2.728,1.012A4.03,4.03,0,0,1-.682-11.7V-3.7a4.03,4.03,0,0,1-.946,2.86A3.553,3.553,0,0,1-4.356.176,3.553,3.553,0,0,1-7.084-.836,4.03,4.03,0,0,1-8.03-3.7Z" transform="translate(42 208)" fill="#292c45"/><line x1="252" transform="translate(61 360)" fill="none" stroke="#e3ddd5" stroke-width="2"/><line y2="251.485" transform="matrix(0, 1, -1, 0, 312.528, 320)" fill="none" stroke="#e3ddd5" stroke-width="2"/><line y2="251.485" transform="matrix(0, 1, -1, 0, 312.528, 280)" fill="none" stroke="#e3ddd5" stroke-width="2"/><line y2="251.485" transform="matrix(0, 1, -1, 0, 312.528, 240)" fill="none" stroke="#e3ddd5" stroke-width="2"/><line y2="251.485" transform="matrix(0, 1, -1, 0, 312.528, 200)" fill="none" stroke="#e3ddd5" stroke-width="2"/><text transform="translate(82 375)" fill="#292c45" font-size="12" font-family="Helvetica-Bold, Helvetica" font-weight="700"><tspan x="-11.587" y="0">Янв</tspan></text><text transform="translate(122 375)" fill="#292c45" font-size="12" font-family="Helvetica-Bold, Helvetica" font-weight="700"><tspan x="-11.918" y="0">Фев</tspan></text><text transform="translate(162 375)" fill="#292c45" font-size="12" font-family="Helvetica-Bold, Helvetica" font-weight="700"><tspan x="-15" y="0">Март</tspan></text><text transform="translate(202 375)" fill="#292c45" font-size="12" font-family="Helvetica-Bold, Helvetica" font-weight="700"><tspan x="-11.663" y="0">Апр</tspan></text><text transform="translate(242 375)" fill="#292c45" font-size="12" font-family="Helvetica-Bold, Helvetica" font-weight="700"><tspan x="-12" y="0">Май</tspan></text><g transform="translate(63 216)" fill="#ff8a65" stroke="#ff8965" stroke-width="1"><rect width="26" height="143" stroke="none"/><rect x="0.5" y="0.5" width="25" height="142" fill="none"/></g><rect width="28" height="155" transform="translate(73 204)" fill="#ffa726"/><g transform="translate(103 306)" fill="#ff8a65" stroke="#ff8965" stroke-width="1"><rect width="26" height="53" stroke="none"/><rect x="0.5" y="0.5" width="25" height="52" fill="none"/></g><rect width="28" height="47" transform="translate(113 312)" fill="#ffa726"/><rect width="26" height="67" transform="translate(143 292)" fill="#ff8a65"/><rect width="28" height="68" transform="translate(153 291)" fill="#ffa726"/><g transform="translate(183 337)" fill="#ff8a65" stroke="#ff8965" stroke-width="1"><rect width="26" height="22" stroke="none"/><rect x="0.5" y="0.5" width="25" height="21" fill="none"/></g><rect width="28" height="31" transform="translate(193 328)" fill="#ffa726"/><g transform="translate(223 297)" fill="#ff8a65" stroke="#ff8965" stroke-width="1"><rect width="26" height="62" stroke="none"/><rect x="0.5" y="0.5" width="25" height="61" fill="none"/></g><rect width="28" height="70" transform="translate(233 289)" fill="#ffa726"/><g transform="translate(263 327)" fill="#ff8a65" stroke="#ff8965" stroke-width="1"><rect width="26" height="32" stroke="none"/><rect x="0.5" y="0.5" width="25" height="31" fill="none"/></g><text transform="translate(82 197)" fill="#292c45" font-size="12" font-family="Helvetica-Bold, Helvetica" font-weight="700"><tspan x="-12.176" y="0">+5%</tspan></text><text transform="translate(122 299)" fill="#292c45" font-size="12" font-family="Helvetica-Bold, Helvetica" font-weight="700"><tspan x="-10.67" y="0">-5%</tspan></text><text transform="translate(202 321)" fill="#292c45" font-size="12" font-family="Helvetica-Bold, Helvetica" font-weight="700"><tspan x="-12.176" y="0">+9%</tspan></text><text transform="translate(162 284)" fill="#292c45" font-size="12" font-family="Helvetica-Bold, Helvetica" font-weight="700"><tspan x="-12.176" y="0">+0%</tspan></text><text transform="translate(242 282)" fill="#292c45" font-size="12" font-family="Helvetica-Bold, Helvetica" font-weight="700"><tspan x="-12.176" y="0">+6%</tspan></text><text transform="translate(282 304)" fill="#292c45" font-size="12" font-family="Helvetica-Bold, Helvetica" font-weight="700"><tspan x="-15.513" y="0">+15%</tspan></text><text transform="translate(87 215)" fill="#fff9ec" font-size="10" font-family="Helvetica-Bold, Helvetica" font-weight="700"><tspan x="-9.731" y="0">29.5</tspan></text><text transform="translate(127 323)" fill="#fff9ec" font-size="10" font-family="Helvetica-Bold, Helvetica" font-weight="700"><tspan x="-9.731" y="0">16.0</tspan></text><text transform="translate(167 302)" fill="#fff9ec" font-size="10" font-family="Helvetica-Bold, Helvetica" font-weight="700"><tspan x="-9.731" y="0">18.8</tspan></text><text transform="translate(207 339)" fill="#fff9ec" font-size="10" font-family="Helvetica-Bold, Helvetica" font-weight="700"><tspan x="-9.731" y="0">13.9</tspan></text><text transform="translate(247 300)" fill="#fff9ec" font-size="10" font-family="Helvetica-Bold, Helvetica" font-weight="700"><tspan x="-9.731" y="0">18.9</tspan></text><text transform="translate(287 322)" fill="#fff9ec" font-size="10" font-family="Helvetica-Bold, Helvetica" font-weight="700"><tspan x="-9.731" y="0">16.3</tspan></text><line y2="165" transform="translate(105 195)" fill="none" stroke="#e3ddd5" stroke-width="2"/><line y2="165" transform="translate(145 195)" fill="none" stroke="#e3ddd5" stroke-width="2"/><line y2="165" transform="translate(185 195)" fill="none" stroke="#e3ddd5" stroke-width="2"/><line y2="165" transform="translate(225 195)" fill="none" stroke="#e3ddd5" stroke-width="2"/><line y2="165" transform="translate(265 195)" fill="none" stroke="#e3ddd5" stroke-width="2"/><text transform="translate(282 375)" fill="#292c45" font-size="12" font-family="Helvetica-Bold, Helvetica" font-weight="700"><tspan x="-16.465" y="0">Июнь</tspan></text><rect width="28" height="48" transform="translate(273 311)" fill="#ffa726"/><g transform="translate(8387 -4700.313)"><g transform="matrix(1, 0, 0, 1, -8361.68, 4865.31)" filter="url(#c)"><rect width="158" height="32" transform="translate(121.68 40)" fill="#fbf5e8"/></g><path d="M5.214-11.528v2.97H8.162v1.716H5.214v3.014H3.5V-6.842H.55V-8.558H3.5v-2.97Zm5.654-.22v-1.716a2.617,2.617,0,0,0,1.782-.484,3.61,3.61,0,0,0,.88-1.452h1.628V0h-2.42V-11.748Zm9.218-.11v8.316q0,1.518,1.254,1.518t1.254-1.518v-8.316q0-1.518-1.254-1.518T20.086-11.858ZM17.666-3.7V-11.7a4.03,4.03,0,0,1,.946-2.86,3.553,3.553,0,0,1,2.728-1.012,3.553,3.553,0,0,1,2.728,1.012,4.03,4.03,0,0,1,.946,2.86V-3.7a4.03,4.03,0,0,1-.946,2.86A3.553,3.553,0,0,1,21.34.176,3.553,3.553,0,0,1,18.612-.836,4.03,4.03,0,0,1,17.666-3.7Zm10.1-9.46v5.28q0,.968.792.968t.792-.968v-5.28q0-.968-.792-.968T27.764-13.156Zm-1.54,5.17v-5.06a2.582,2.582,0,0,1,.594-1.826,2.26,2.26,0,0,1,1.738-.638,2.26,2.26,0,0,1,1.738.638,2.582,2.582,0,0,1,.594,1.826v5.06a2.582,2.582,0,0,1-.594,1.826,2.26,2.26,0,0,1-1.738.638,2.26,2.26,0,0,1-1.738-.638A2.582,2.582,0,0,1,26.224-7.986ZM28.556,0l6.072-15.4h1.43L29.986,0ZM35.4-7.524v5.28q0,.968.792.968t.792-.968v-5.28q0-.968-.792-.968T35.4-7.524Zm-1.54,5.17v-5.06a2.582,2.582,0,0,1,.594-1.826,2.26,2.26,0,0,1,1.738-.638,2.26,2.26,0,0,1,1.738.638,2.582,2.582,0,0,1,.594,1.826v5.06a2.582,2.582,0,0,1-.594,1.826A2.26,2.26,0,0,1,36.19.11a2.26,2.26,0,0,1-1.738-.638A2.582,2.582,0,0,1,33.858-2.354Z" transform="translate(-8234 4929)" fill="#2a2846"/><text transform="translate(-8192 4919)" fill="#2a2846" font-size="10" font-family="HelveticaNeue-Bold, Helvetica Neue" font-weight="700" letter-spacing="0.005em"><tspan x="0" y="0">в 2019 по сравнению</tspan><tspan letter-spacing="-0.01em"><tspan x="0" y="10">с предыдущим годом</tspan></tspan></text></g></g></svg>