<svg xmlns="http://www.w3.org/2000/svg" xmlns:xlink="http://www.w3.org/1999/xlink" width="287.676" height="248" viewBox="0 0 287.676 248"><defs><filter id="a" x="15.676" y="0" width="20" height="228" filterUnits="userSpaceOnUse"><feOffset dy="3" input="SourceAlpha"/><feGaussianBlur stdDeviation="3" result="b"/><feFlood flood-opacity="0.161"/><feComposite operator="in" in2="b"/><feComposite in="SourceGraphic"/></filter></defs><g transform="translate(-25.324 -523)"><g transform="matrix(1, 0, 0, 1, 25.32, 523)" filter="url(#a)"><path d="M0,89.539v210" transform="translate(25.68 -83.54)" fill="none" stroke="#2a1e4d" stroke-width="2"/></g><path d="M-15.048-11.748v-1.716a2.617,2.617,0,0,0,1.782-.484,3.61,3.61,0,0,0,.88-1.452h1.628V0h-2.42V-11.748Zm9.438-.11v8.316q0,1.518,1.254,1.518T-3.1-3.542v-8.316q0-1.518-1.254-1.518T-5.61-11.858ZM-8.03-3.7V-11.7a4.03,4.03,0,0,1,.946-2.86,3.553,3.553,0,0,1,2.728-1.012,3.553,3.553,0,0,1,2.728,1.012A4.03,4.03,0,0,1-.682-11.7V-3.7a4.03,4.03,0,0,1-.946,2.86A3.553,3.553,0,0,1-4.356.176,3.553,3.553,0,0,1-7.084-.836,4.03,4.03,0,0,1-8.03-3.7Z" transform="translate(41 726)" fill="#292c45"/><path d="M-15.048-11.748v-1.716a2.617,2.617,0,0,0,1.782-.484,3.61,3.61,0,0,0,.88-1.452h1.628V0h-2.42V-11.748Zm7.106,6.776h2.288v1.43q0,1.5,1.254,1.5t1.254-1.5V-6.93q0-1.518-1.254-1.518T-5.654-6.93v.462H-7.942L-7.5-15.4h6.38v2.2h-4.2l-.2,3.674A2.3,2.3,0,0,1-3.41-10.648q2.684,0,2.684,3.52V-3.7A4.083,4.083,0,0,1-1.65-.825a3.472,3.472,0,0,1-2.684,1,3.472,3.472,0,0,1-2.684-1A4.083,4.083,0,0,1-7.942-3.7Z" transform="translate(41 686)" fill="#292c45"/><path d="M-11.748-11.616a2.211,2.211,0,0,0-.319-1.375A1.145,1.145,0,0,0-13-13.376q-1.254,0-1.254,1.518v1.65h-2.288v-1.5a4.083,4.083,0,0,1,.924-2.871,3.472,3.472,0,0,1,2.684-1,3.472,3.472,0,0,1,2.684,1A4.083,4.083,0,0,1-9.328-11.7a6.675,6.675,0,0,1-.495,2.552,7.841,7.841,0,0,1-1.21,2.068q-.715.858-1.419,1.606a10.893,10.893,0,0,0-1.2,1.507,2.66,2.66,0,0,0-.495,1.441,1.822,1.822,0,0,0,.022.33h4.576V0h-7V-1.892a5.3,5.3,0,0,1,.5-2.3,7.5,7.5,0,0,1,1.2-1.826q.7-.781,1.408-1.54a7.159,7.159,0,0,0,1.2-1.793A5.179,5.179,0,0,0-11.748-11.616Zm6.138-.242v8.316q0,1.518,1.254,1.518T-3.1-3.542v-8.316q0-1.518-1.254-1.518T-5.61-11.858ZM-8.03-3.7V-11.7a4.03,4.03,0,0,1,.946-2.86,3.553,3.553,0,0,1,2.728-1.012,3.553,3.553,0,0,1,2.728,1.012A4.03,4.03,0,0,1-.682-11.7V-3.7a4.03,4.03,0,0,1-.946,2.86A3.553,3.553,0,0,1-4.356.176,3.553,3.553,0,0,1-7.084-.836,4.03,4.03,0,0,1-8.03-3.7Z" transform="translate(42 646)" fill="#292c45"/><path d="M-11.748-11.616a2.211,2.211,0,0,0-.319-1.375A1.145,1.145,0,0,0-13-13.376q-1.254,0-1.254,1.518v1.65h-2.288v-1.5a4.083,4.083,0,0,1,.924-2.871,3.472,3.472,0,0,1,2.684-1,3.472,3.472,0,0,1,2.684,1A4.083,4.083,0,0,1-9.328-11.7a6.675,6.675,0,0,1-.495,2.552,7.841,7.841,0,0,1-1.21,2.068q-.715.858-1.419,1.606a10.893,10.893,0,0,0-1.2,1.507,2.66,2.66,0,0,0-.495,1.441,1.822,1.822,0,0,0,.022.33h4.576V0h-7V-1.892a5.3,5.3,0,0,1,.5-2.3,7.5,7.5,0,0,1,1.2-1.826q.7-.781,1.408-1.54a7.159,7.159,0,0,0,1.2-1.793A5.179,5.179,0,0,0-11.748-11.616Zm3.806,6.644h2.288v1.43q0,1.5,1.254,1.5t1.254-1.5V-6.93q0-1.518-1.254-1.518T-5.654-6.93v.462H-7.942L-7.5-15.4h6.38v2.2h-4.2l-.2,3.674A2.3,2.3,0,0,1-3.41-10.648q2.684,0,2.684,3.52V-3.7A4.083,4.083,0,0,1-1.65-.825a3.472,3.472,0,0,1-2.684,1,3.472,3.472,0,0,1-2.684-1A4.083,4.083,0,0,1-7.942-3.7Z" transform="translate(42 606)" fill="#292c45"/><path d="M-11.88-10.758v-.858a2.211,2.211,0,0,0-.319-1.375,1.145,1.145,0,0,0-.935-.385q-1.254,0-1.254,1.518v.99h-2.288V-11.7a4.083,4.083,0,0,1,.924-2.871,3.472,3.472,0,0,1,2.684-1,3.472,3.472,0,0,1,2.684,1A4.083,4.083,0,0,1-9.46-11.7v.4q0,2.464-1.694,3.168,1.694.748,1.694,3.234V-3.7a4.083,4.083,0,0,1-.924,2.871,3.472,3.472,0,0,1-2.684,1,3.472,3.472,0,0,1-2.684-1A4.083,4.083,0,0,1-16.676-3.7V-4.972h2.288v1.43q0,1.518,1.254,1.518a1.145,1.145,0,0,0,.935-.385,2.165,2.165,0,0,0,.319-1.353v-1.21a2.376,2.376,0,0,0-.374-1.507,1.486,1.486,0,0,0-1.21-.451h-.814v-2.2h.946A1.453,1.453,0,0,0-12.243-9.5,1.767,1.767,0,0,0-11.88-10.758Zm6.27-1.1v8.316q0,1.518,1.254,1.518T-3.1-3.542v-8.316q0-1.518-1.254-1.518T-5.61-11.858ZM-8.03-3.7V-11.7a4.03,4.03,0,0,1,.946-2.86,3.553,3.553,0,0,1,2.728-1.012,3.553,3.553,0,0,1,2.728,1.012A4.03,4.03,0,0,1-.682-11.7V-3.7a4.03,4.03,0,0,1-.946,2.86A3.553,3.553,0,0,1-4.356.176,3.553,3.553,0,0,1-7.084-.836,4.03,4.03,0,0,1-8.03-3.7Z" transform="translate(42 566)" fill="#292c45"/><text transform="translate(85 766)" fill="#292c45" font-size="10" font-family="Helvetica-Bold, Helvetica" font-weight="700" letter-spacing="-0.01em"><tspan x="0" y="0">доля</tspan><tspan y="0" xml:space="preserve" fill="#3f51b5"> мужчин</tspan></text><text transform="translate(180 766)" fill="#292c45" font-size="10" font-family="Helvetica-Bold, Helvetica" font-weight="700" letter-spacing="-0.01em"><tspan x="0" y="0">доля</tspan><tspan y="0" xml:space="preserve" fill="#ff4081"> женщин</tspan></text><rect width="17" height="17" transform="translate(63 754)" fill="#3f51b5"/><rect width="17" height="17" transform="translate(158 754)" fill="#ff4081"/><text transform="translate(65.5 538.498)" fill="#2a204c" font-size="14" font-family="Helvetica-Bold, Helvetica" font-weight="700"><tspan x="0" y="0">Возраст аудитории </tspan></text><g transform="translate(65 553)"><line y2="165" transform="translate(49)" fill="none" stroke="#e3ddd5" stroke-width="2"/><line y2="165" transform="translate(96)" fill="none" stroke="#e3ddd5" stroke-width="2"/><line y2="165" transform="translate(143)" fill="none" stroke="#e3ddd5" stroke-width="2"/><line y2="165" transform="translate(190)" fill="none" stroke="#e3ddd5" stroke-width="2"/><line y2="165" transform="translate(238)" fill="none" stroke="#e3ddd5" stroke-width="2"/><line x1="248" transform="translate(0 165)" fill="none" stroke="#e3ddd5" stroke-width="2"/><line y2="248" transform="matrix(0, 1, -1, 0, 248, 125)" fill="none" stroke="#e3ddd5" stroke-width="2"/><line y2="248" transform="matrix(0, 1, -1, 0, 248, 85)" fill="none" stroke="#e3ddd5" stroke-width="2"/><line y2="248" transform="matrix(0, 1, -1, 0, 248, 45)" fill="none" stroke="#e3ddd5" stroke-width="2"/><line y2="248" transform="matrix(0, 1, -1, 0, 248, 5)" fill="none" stroke="#e3ddd5" stroke-width="2"/></g><text transform="translate(67 733)" fill="#292c45" font-size="12" font-family="Helvetica-Bold, Helvetica" font-weight="700"><tspan x="-6.674" y="0">12</tspan></text><text transform="translate(63 746)" fill="#a9a7a9" font-size="12" font-family="Helvetica-Bold, Helvetica" font-weight="700"><tspan x="0" y="0">Возраст зрителя (лет)</tspan></text><text transform="translate(106 733)" fill="#292c45" font-size="12" font-family="Helvetica-Bold, Helvetica" font-weight="700"><tspan x="-6.674" y="0">18</tspan></text><text transform="translate(146 733)" fill="#292c45" font-size="12" font-family="Helvetica-Bold, Helvetica" font-weight="700"><tspan x="-6.674" y="0">25</tspan></text><text transform="translate(186 733)" fill="#292c45" font-size="12" font-family="Helvetica-Bold, Helvetica" font-weight="700"><tspan x="-6.674" y="0">35</tspan></text><text transform="translate(227 733)" fill="#292c45" font-size="12" font-family="Helvetica-Bold, Helvetica" font-weight="700"><tspan x="-10.178" y="0">45+</tspan></text><rect width="46" height="59" transform="translate(67 658)" fill="#3f51b5"/><rect width="44" height="99" transform="translate(115 618)" fill="#3f51b5"/><rect width="45" height="123" transform="translate(162 594)" fill="#3f51b5"/><rect width="45" height="71" transform="translate(209 646)" fill="#3f51b5"/><rect width="46" height="39" transform="translate(256 678)" fill="#3f51b5"/><text transform="translate(87 651)" fill="#292c45" font-size="12" font-family="Helvetica-Bold, Helvetica" font-weight="700"><tspan x="-12.009" y="0">15%</tspan></text><text transform="translate(135 611)" fill="#292c45" font-size="12" font-family="Helvetica-Bold, Helvetica" font-weight="700"><tspan x="-12.009" y="0">25%</tspan></text><text transform="translate(182 587)" fill="#292c45" font-size="12" font-family="Helvetica-Bold, Helvetica" font-weight="700"><tspan x="-12.009" y="0">31%</tspan></text><text transform="translate(229 639)" fill="#292c45" font-size="12" font-family="Helvetica-Bold, Helvetica" font-weight="700"><tspan x="-12.009" y="0">18%</tspan></text><text transform="translate(276 671)" fill="#292c45" font-size="12" font-family="Helvetica-Bold, Helvetica" font-weight="700"><tspan x="-12.009" y="0">10%</tspan></text><rect width="46" height="33" transform="translate(67 684)" fill="#ff4081"/><rect width="44" height="51" transform="translate(115 666)" fill="#ff4081"/><rect width="45" height="69" transform="translate(162 648)" fill="#ff4081"/><rect width="45" height="43" transform="translate(209 674)" fill="#ff4081"/><rect width="46" height="24" transform="translate(256 693)" fill="#ff4081"/><circle cx="2" cy="2" r="2" transform="translate(104 716)" fill="#292c45"/><circle cx="2" cy="2" r="2" transform="translate(65 716)" fill="#292c45"/><circle cx="2" cy="2" r="2" transform="translate(144 716)" fill="#292c45"/><circle cx="2" cy="2" r="2" transform="translate(184 716)" fill="#292c45"/><circle cx="2" cy="2" r="2" transform="translate(224 716)" fill="#292c45"/><text transform="translate(166 644)" fill="#fffaee" font-size="10" font-family="Helvetica-Bold, Helvetica" font-weight="700"><tspan x="0" y="0">44%</tspan><tspan x="0" y="15">56%</tspan></text><text transform="translate(120 662)" fill="#fffaee" font-size="10" font-family="Helvetica-Bold, Helvetica" font-weight="700"><tspan x="0" y="0">48%</tspan><tspan x="0" y="15">52%</tspan></text><text transform="translate(73 680)" fill="#fffaee" font-size="10" font-family="Helvetica-Bold, Helvetica" font-weight="700"><tspan x="0" y="0">44%</tspan><tspan x="0" y="15">56%</tspan></text><text transform="translate(214 670)" fill="#fffaee" font-size="10" font-family="Helvetica-Bold, Helvetica" font-weight="700"><tspan x="0" y="0">&lt; 40%</tspan><tspan x="0" y="15">&gt; 60%</tspan></text><text transform="translate(262 689)" fill="#fffaee" font-size="10" font-family="Helvetica-Bold, Helvetica" font-weight="700"><tspan x="0" y="0">&lt; 40%</tspan><tspan x="0" y="15">&gt; 60%</tspan></text></g></svg>