<svg xmlns="http://www.w3.org/2000/svg" width="199.916" height="218.373" viewBox="0 0 199.916 218.373"><g transform="translate(-108.802 -48.259)"><g transform="translate(108.802 48.259)"><path d="M149.534,119.707c9.894-.064,23.71-.2,24.567-.21a63.52,63.52,0,0,0,7.9.192,12.217,12.217,0,0,1,8.1,1.55c10.031,6.611,11.043,9.42,11.043,10.322a7.925,7.925,0,0,1-.173,1.824,5.52,5.52,0,0,0-2.444-.976,3.358,3.358,0,0,1-2.435-1.24,3.421,3.421,0,0,1-.228-2.672.912.912,0,1,0-1.705-.429,4.505,4.505,0,0,0,4.122,6.092,4.882,4.882,0,0,1,2.572,1.377,6.867,6.867,0,0,0,4.869,1.988h.584c3.447,0,4.067,0,6.11,2.225s2.061,2.4,2.1,4.706v.474a5.044,5.044,0,0,1-1.7,4.149l-.62.766H210.9a7.113,7.113,0,0,1-5.736-2.945c-.356-.356-.729-.739-1.149-1.149a.912.912,0,0,0-1.222,1.267c.41.393.775.767,1.122,1.113a8.855,8.855,0,0,0,6.913,3.465h2.189a5.553,5.553,0,0,1,5.845,2.645c2.189,2.936,2.189,2.954,2.088,4.286,0,.31-.055.674-.064,1.13a7.293,7.293,0,0,1-2.909,4.632l-.52.492a17.194,17.194,0,0,1-7.186,1.021,19.76,19.76,0,0,0-4.095-1.367.912.912,0,0,0-.246,1.741,37.543,37.543,0,0,1,6.675,2.544,65.451,65.451,0,0,0,6.229,2.526,109.292,109.292,0,0,0,21.183,1.824,17.867,17.867,0,0,1,6.894,1.332,17.975,17.975,0,0,0,3.9,1.076,77.094,77.094,0,0,0,8.536.456c1.614,0,3.273.064,4.979.137h.711c1.6.073,2.8.119,3.748.21a2.756,2.756,0,0,0-.474.337,6.2,6.2,0,0,0-1.459,4.641,4.214,4.214,0,0,0,3.668,4.7q.181.022.363.029a36.037,36.037,0,0,1-9.037,1.6,31,31,0,0,1-5.471-.119c-1.888-.155-4.231-.356-8.536-.392a91.307,91.307,0,0,1-15.73-1.432c-1.823-.273-3.9-.593-6.429-.912a53.982,53.982,0,0,0-15.895.192,158.915,158.915,0,0,1-15.949,1.2,56.175,56.175,0,0,0-21.193,3.957,109.283,109.283,0,0,1-12.766,3.894.912.912,0,0,0,.191,1.742.83.83,0,0,0,.21,0,106.038,106.038,0,0,0,11.471-3.419,33.481,33.481,0,0,0-10.368,17.135,39.75,39.75,0,0,0,3.1,16.122c.793,2.444,1.687,5.216,2.672,8.563a30.732,30.732,0,0,1-1.213,22.168,13.683,13.683,0,0,0-.547-6.529,4.751,4.751,0,0,0-5.781-3.426q-.166.043-.329.1a.912.912,0,0,0,.365,1.724,3.036,3.036,0,0,1,3.933,1.724,3.067,3.067,0,0,1,.125.4,10.156,10.156,0,0,1,.31,6.237,6.677,6.677,0,0,1-5.918,3.238c-1.824-.246-1.587-7.095-1.523-9.356V248.76a18.8,18.8,0,0,0-1.824-6.521c-.283-.729-.593-1.541-.912-2.453-.666-1.824-1.2-3.411-1.823-5.28-.912-2.735-1.915-5.8-3.647-10.432a62.214,62.214,0,0,0-5.253-10.122,28.949,28.949,0,0,1-3.811-7.769,46.863,46.863,0,0,0-6-14.235c-1.122-2.079-2.3-3.876-3.438-5.609a23.625,23.625,0,0,1-5.235-13.733c-.228-21.549.246-38.7,8.444-47.045A22.066,22.066,0,0,1,149.534,119.707Z" transform="translate(-124.589 -119.497)" fill="#fff9ea"/><path d="M351.294,214.646c.073-1.915.337-2.918.866-3.383a3.036,3.036,0,0,1,2.034-.474,7.361,7.361,0,0,1,1.14.064c2.89.264,3.219,1.988,3.137,3.8a3.019,3.019,0,0,1-.83,2.234,4.13,4.13,0,0,1-3.018.748C351.185,217.473,351.257,215.631,351.294,214.646Z" transform="translate(-207.309 -152.8)" fill="#fff9ea"/></g><g transform="translate(156.274 118.431)"><path d="M305.869,426.962a61.189,61.189,0,0,0,11.5-3.9,6.908,6.908,0,0,0,.292.821,16.628,16.628,0,0,1,1.113,4.705c.155,1.277.264,2.189.967,2.69a1.512,1.512,0,0,0,.912.274,2.142,2.142,0,0,0,.492-.055,6.644,6.644,0,0,0,.8-.246,24.4,24.4,0,0,1-3.647,2.626l-1.24.775a18.632,18.632,0,0,1-7.961,3.584,35.694,35.694,0,0,0-8.289,2.189,41.72,41.72,0,0,1-7.158,2.015c-.784.055-1.459.091-2.061.109a.912.912,0,0,0-.73,0,6.913,6.913,0,0,1-3.94-1.249c-.483-.31-.912-.565-1.322-.784a4.269,4.269,0,0,1-2.735-3.876,6.556,6.556,0,0,1,.976-6.31c3.647-.31,11.919-1.678,17.472-2.6C303.243,427.382,304.857,427.117,305.869,426.962Z" transform="translate(-228.55 -306.007)" fill="#fff9ea"/><path d="M207.766,320.144a50.537,50.537,0,0,1,10.032-.912c2.489,0,5.672-.3,8.481-.519,2.644-.21,5.143-.411,6.556-.4.967,0,2.225.137,3.83.291a106.071,106.071,0,0,0,13.578.629,83.4,83.4,0,0,0,9.247-.711,61.823,61.823,0,0,1,10.031-.565,81.281,81.281,0,0,0,24.621-3.7A26.538,26.538,0,0,0,290.986,322a.913.913,0,0,0,.674,1.049h.183a.913.913,0,0,0,.866-.693,43.068,43.068,0,0,1,11-17.664c.912-1.031,1.76-2,2.48-2.873,3.994-4.842,4.852-7.122,3.438-16.752a74.7,74.7,0,0,0-2.836-11.3,42.975,42.975,0,0,1-2.663-13.378,31.79,31.79,0,0,1,8.6-20.746,4.266,4.266,0,0,1,3.484-.8,2.34,2.34,0,0,1,1.24.912,12.312,12.312,0,0,0-1.158,10.387,11.524,11.524,0,0,0,.173,1.915c.657,3.712,3.183,14.508,4.413,18.567l.109.337a55.429,55.429,0,0,0,4.441,11.727c.365.574.912,1.277,1.459,2.088a22.653,22.653,0,0,1,5.043,9.967,51.328,51.328,0,0,0,8.6,20.189,36.151,36.151,0,0,1,7.733,14.773c.2,2.279.492,4.56.766,6.812,1.823,14.709,3.593,28.6-18.53,41.036a75.57,75.57,0,0,1-29.291,4.852,98.49,98.49,0,0,0-29.136,3.183l-.766.31a7.484,7.484,0,0,1-7.295.21c-3.858-1.541-4.049-2.289-4.605-4.5a4.33,4.33,0,0,1,.912-4.56c.72,0,1.5-.055,2.371-.119a40.583,40.583,0,0,0,7.6-2.1,37.917,37.917,0,0,1,7.715-2.1,9.923,9.923,0,0,0,4.185-1.122,4.953,4.953,0,0,0,.246,3.967l.055.137.1.109a3.768,3.768,0,0,0,2.681.994,6.217,6.217,0,0,0,1.824-.292l-.21.164a32.311,32.311,0,0,1-7.605,3.967.882.882,0,0,0,.575,1.668,33.582,33.582,0,0,0,8.079-4.222c3.475-2.59,3.383-4.559,3.338-5.718v-.337a3.738,3.738,0,0,0-3.21-3.884h.055c2.854-1.761,5.809-3.921,6.292-6.612a6.5,6.5,0,0,0,.794-1.113,4.9,4.9,0,0,0,.3-4.14,5.737,5.737,0,0,0-3.557-3.6,5.055,5.055,0,0,0,1.6-1.778,5.918,5.918,0,0,0,1.951-5.727,5.471,5.471,0,0,0-2.982-3.647c-3.511-3.383-6-2.736-10.788-1.176a55.809,55.809,0,0,1-14.308,2.042.912.912,0,0,0-.173-.575c-.611-.793-1.167-1.522-1.678-2.2-.748-.975-1.4-1.824-2.025-2.59a.847.847,0,0,0-.155-.191c-3.52-4.259-5.727-5.134-14.025-5.007a180.319,180.319,0,0,1-18.1-.693c-1.87-.146-3.647-.283-5.344-.365-6.009-.311-13.414-.374-18-.146l-1.167.064a11.346,11.346,0,0,1-7.779-1.167,4.736,4.736,0,0,1-1.377-3.475c-.218-4.3,4.213-5.179,8.381-5.654A13.412,13.412,0,0,0,207.766,320.144Z" transform="translate(-197.581 -238.757)" fill="#fff9ea"/><path d="M278.733,401.711a17.459,17.459,0,0,0,10.487-5.243c.419.529.857,1.112,1.34,1.75l1.341,1.751c-2.1,0-4.241,0-6.384-.128a.912.912,0,0,0-.1,1.76c1.432.082,2.882.128,4.322.137a65.386,65.386,0,0,0,18.895-2.18,10.6,10.6,0,0,1,6.384-.976,7.974,7.974,0,0,0-2.079.693c-4.031,1.988-3.785,3.4-3.055,7.569.073.447.165.912.246,1.459a2.929,2.929,0,0,0,1.258,2.152,3.122,3.122,0,0,0,1.7.438,6.61,6.61,0,0,0,.693,0,51.717,51.717,0,0,1-12.931,4.678l-4.559.748c-5.763.912-14.463,2.4-17.763,2.617h0a10.642,10.642,0,0,1-8.536-4.067,13.389,13.389,0,0,1,.3-7.7,11.024,11.024,0,0,1,5.043-4.45A16.947,16.947,0,0,1,278.733,401.711Z" transform="translate(-223.846 -296.304)" fill="#fff9ea"/><path d="M387.559,242.433a22.93,22.93,0,0,1-.711,3.647c-.118.438-.255.912-.4,1.4A7.971,7.971,0,0,1,387.559,242.433Z" transform="translate(-266.478 -240.098)" fill="#fff9ea"/><path d="M337.869,447.5v.2c.21,1.222.392,2.271-1.459,2.918a3.1,3.1,0,0,1-2.873-.064,3.055,3.055,0,0,1-.055-2.626,2.528,2.528,0,0,1,1.888-1.195,6.182,6.182,0,0,1,.912-.073C337.048,446.673,337.751,446.846,337.869,447.5Z" transform="translate(-247.072 -314.62)" fill="#fff9ea"/><path d="M341.522,427.361a18.242,18.242,0,0,0-1.24-5.17,3.3,3.3,0,0,1-.283-.912c.647-.319,1.267-.638,1.823-.967a4.04,4.04,0,0,1,4.1,2.735,3.1,3.1,0,0,1-.191,2.736,7.1,7.1,0,0,1-3.994,2.963A8.728,8.728,0,0,1,341.522,427.361Z" transform="translate(-249.548 -305.001)" fill="#fff9ea"/><path d="M336.343,411.141c-.083-.055-.338-.219-.466-.912-.091-.529-.173-1.021-.246-1.468-.711-4.04-.748-4.286,2.1-5.691a5.712,5.712,0,0,1,2.544-.629,4.261,4.261,0,0,1,1.824.4,3.745,3.745,0,0,1,2.079,2.48,4.869,4.869,0,0,1-3.957,5.426C338.732,411.122,336.99,411.55,336.343,411.141Z" transform="translate(-247.807 -298.484)" fill="#fff9ea"/></g><path d="M24.2,1.674a3.343,3.343,0,0,1,5.794,0L53.739,42.9a3.343,3.343,0,0,1-2.9,5.012H3.348A3.343,3.343,0,0,1,.451,42.9Z" transform="translate(235.494 128.971) rotate(90)" fill="#fff9ea"/></g></svg>