<svg xmlns="http://www.w3.org/2000/svg" width="244.5" height="93.5" viewBox="0 0 244.5 93.5"><g transform="translate(-128.25 -335.25)"><path d="M178.466,580.687c-2.263-.685-3.688-1.684-3.688-2.795,0-2.071,4.955-3.749,11.064-3.749a31.126,31.126,0,0,1,3.688.213" transform="translate(41.731 -203.27)" fill="none" stroke="#242549" stroke-linecap="round" stroke-linejoin="round" stroke-width="1.5"/><path d="M197.369,575.594c2.264.684,3.689,1.683,3.689,2.794,0,2.071-4.955,3.749-11.064,3.749a31.121,31.121,0,0,1-3.689-.213" transform="translate(37.673 -203.765)" fill="none" stroke="#242549" stroke-linecap="round" stroke-linejoin="round" stroke-width="1.5"/><ellipse cx="14.802" cy="5.623" rx="14.802" ry="5.623" transform="translate(212.819 369)" fill="none" stroke="#242549" stroke-linecap="round" stroke-linejoin="round" stroke-width="1.5"/><path d="M191.217,588.5a36.565,36.565,0,0,1-14.756,0c-4.411-.972-7.378-2.789-7.378-4.871v-3.749" transform="translate(43.735 -205.23)" fill="none" stroke="#242549" stroke-linecap="round" stroke-linejoin="round" stroke-width="1.5"/><path d="M191.217,588.5a36.565,36.565,0,0,1-14.756,0c-4.411-.972-7.378-2.789-7.378-4.871v-3.749" transform="translate(43.735 -197.648)" fill="none" stroke="#242549" stroke-linecap="round" stroke-linejoin="round" stroke-width="1.5"/><path d="M212.766,579.877v3.749c0,1.426-1.393,2.727-3.688,3.715" transform="translate(29.657 -205.228)" fill="none" stroke="#242549" stroke-linecap="round" stroke-linejoin="round" stroke-width="1.5"/><path d="M212.766,579.877v3.749c0,1.426-1.393,2.727-3.688,3.715" transform="translate(29.657 -197.646)" fill="none" stroke="#242549" stroke-linecap="round" stroke-linejoin="round" stroke-width="1.5"/><path d="M191.217,594.227a34.736,34.736,0,0,1-7.377.752c-8.15,0-14.757-2.518-14.757-5.623v-3.749" transform="translate(43.735 -207.185)" fill="none" stroke="#242549" stroke-linecap="round" stroke-linejoin="round" stroke-width="1.5"/><path d="M191.217,594.227a34.736,34.736,0,0,1-7.377.752c-8.15,0-14.757-2.518-14.757-5.623v-3.749" transform="translate(43.735 -199.603)" fill="none" stroke="#242549" stroke-linecap="round" stroke-linejoin="round" stroke-width="1.5"/><path d="M212.766,585.6v3.748c0,1.427-1.393,2.728-3.688,3.715" transform="translate(29.657 -207.181)" fill="none" stroke="#242549" stroke-linecap="round" stroke-linejoin="round" stroke-width="1.5"/><path d="M212.766,585.6v3.748c0,1.427-1.393,2.728-3.688,3.715" transform="translate(29.657 -199.599)" fill="none" stroke="#242549" stroke-linecap="round" stroke-linejoin="round" stroke-width="1.5"/><path d="M169.083,591.331v3.749c0,3.1,6.627,5.623,14.8,5.623s14.8-2.517,14.8-5.623v-3.749" transform="translate(43.735 -201.55)" fill="none" stroke="#242549" stroke-linecap="round" stroke-linejoin="round" stroke-width="1.5"/><path d="M271.054,535.628c2.269.684,3.7,1.687,3.7,2.8,0,2.074-4.964,3.755-11.086,3.755a31.22,31.22,0,0,1-3.7-.213" transform="translate(9.735 -182.494)" fill="none" stroke="#242549" stroke-linecap="round" stroke-linejoin="round" stroke-width="1.5"/><path d="M252.2,540.724c-2.269-.685-3.7-1.688-3.7-2.8,0-2.075,4.964-3.755,11.086-3.755a31.08,31.08,0,0,1,3.7.214" transform="translate(13.772 -181.995)" fill="none" stroke="#242549" stroke-linecap="round" stroke-linejoin="round" stroke-width="1.5"/><ellipse cx="14.802" cy="5.633" rx="14.802" ry="5.633" transform="translate(258.577 350.3)" fill="none" stroke="#242549" stroke-linecap="round" stroke-linejoin="round" stroke-width="1.5"/><path d="M264.972,548.514a34.77,34.77,0,0,1-7.391.754c-8.165,0-14.783-2.523-14.783-5.633v-3.755" transform="translate(15.779 -183.945)" fill="none" stroke="#242549" stroke-linecap="round" stroke-linejoin="round" stroke-width="1.5"/><path d="M286.475,539.879v3.755c0,1.428-1.4,2.737-3.7,3.726" transform="translate(1.705 -183.945)" fill="none" stroke="#242549" stroke-linecap="round" stroke-linejoin="round" stroke-width="1.5"/><path d="M264.972,554.24a34.77,34.77,0,0,1-7.391.754c-8.165,0-14.783-2.523-14.783-5.633V545.6" transform="translate(15.779 -185.901)" fill="none" stroke="#242549" stroke-linecap="round" stroke-linejoin="round" stroke-width="1.5"/><path d="M286.475,545.6v3.755c0,1.428-1.4,2.737-3.7,3.726" transform="translate(1.705 -185.9)" fill="none" stroke="#242549" stroke-linecap="round" stroke-linejoin="round" stroke-width="1.5"/><path d="M264.972,559.952a34.758,34.758,0,0,1-7.391.754c-8.165,0-14.783-2.523-14.783-5.634v-3.755" transform="translate(15.779 -187.852)" fill="none" stroke="#242549" stroke-linecap="round" stroke-linejoin="round" stroke-width="1.5"/><path d="M286.475,551.316v3.755c0,1.428-1.4,2.737-3.7,3.726" transform="translate(1.705 -187.851)" fill="none" stroke="#242549" stroke-linecap="round" stroke-linejoin="round" stroke-width="1.5"/><path d="M264.972,565.664a34.774,34.774,0,0,1-7.391.754c-8.165,0-14.783-2.523-14.783-5.634v-3.755" transform="translate(15.779 -189.802)" fill="none" stroke="#242549" stroke-linecap="round" stroke-linejoin="round" stroke-width="1.5"/><path d="M286.475,557.028v3.755c0,1.428-1.4,2.737-3.7,3.726" transform="translate(1.705 -189.802)" fill="none" stroke="#242549" stroke-linecap="round" stroke-linejoin="round" stroke-width="1.5"/><path d="M264.972,571.378a34.73,34.73,0,0,1-7.391.754c-8.165,0-14.783-2.522-14.783-5.633v-3.755" transform="translate(15.779 -191.754)" fill="none" stroke="#242549" stroke-linecap="round" stroke-linejoin="round" stroke-width="1.5"/><path d="M286.475,562.74V566.5c0,1.428-1.4,2.737-3.7,3.726" transform="translate(1.705 -191.753)" fill="none" stroke="#242549" stroke-linecap="round" stroke-linejoin="round" stroke-width="1.5"/><path d="M264.972,577.089a34.726,34.726,0,0,1-7.391.754c-8.165,0-14.783-2.523-14.783-5.633v-3.755" transform="translate(15.779 -193.705)" fill="none" stroke="#242549" stroke-linecap="round" stroke-linejoin="round" stroke-width="1.5"/><path d="M286.475,568.452v3.755c0,1.428-1.4,2.737-3.7,3.726" transform="translate(1.705 -193.704)" fill="none" stroke="#242549" stroke-linecap="round" stroke-linejoin="round" stroke-width="1.5"/><path d="M264.972,582.8a34.73,34.73,0,0,1-7.391.754c-8.165,0-14.783-2.523-14.783-5.633v-3.755" transform="translate(15.779 -195.656)" fill="none" stroke="#242549" stroke-linecap="round" stroke-linejoin="round" stroke-width="1.5"/><path d="M286.475,574.164v3.755c0,1.428-1.4,2.737-3.7,3.726" transform="translate(1.705 -195.654)" fill="none" stroke="#242549" stroke-linecap="round" stroke-linejoin="round" stroke-width="1.5"/><path d="M264.972,588.515a34.8,34.8,0,0,1-7.391.754c-8.165,0-14.783-2.523-14.783-5.634V579.88" transform="translate(15.779 -197.606)" fill="none" stroke="#242549" stroke-linecap="round" stroke-linejoin="round" stroke-width="1.5"/><path d="M286.475,579.876v3.755c0,1.428-1.4,2.737-3.7,3.726" transform="translate(1.705 -197.605)" fill="none" stroke="#242549" stroke-linecap="round" stroke-linejoin="round" stroke-width="1.5"/><path d="M264.972,594.236a34.813,34.813,0,0,1-7.391.754c-8.165,0-14.783-2.523-14.783-5.634V585.6" transform="translate(15.779 -199.56)" fill="none" stroke="#242549" stroke-linecap="round" stroke-linejoin="round" stroke-width="1.5"/><path d="M286.475,585.6v3.755c0,1.428-1.4,2.738-3.7,3.726" transform="translate(1.705 -199.56)" fill="none" stroke="#242549" stroke-linecap="round" stroke-linejoin="round" stroke-width="1.5"/><path d="M272.4,591.3v3.755c0,3.111-6.627,5.634-14.8,5.634s-14.8-2.523-14.8-5.634V591.3" transform="translate(15.779 -201.508)" fill="none" stroke="#242549" stroke-linecap="round" stroke-linejoin="round" stroke-width="1.5"/><path d="M-25.72,0h2.2V-4.64L-20.74-14h-2.1l-1.68,6.38L-26.2-14h-2.3l2.78,9.36Zm7.58-10.78c0-1,.44-1.38,1.14-1.38s1.14.38,1.14,1.38v7.56c0,1-.44,1.38-1.14,1.38s-1.14-.38-1.14-1.38Zm-2.2,7.42c0,2.24,1.18,3.52,3.34,3.52s3.34-1.28,3.34-3.52v-7.28c0-2.24-1.18-3.52-3.34-3.52s-3.34,1.28-3.34,3.52Zm8-10.64V-3.34c0,2.24,1.12,3.52,3.28,3.52S-5.78-1.1-5.78-3.34V-14H-7.86V-3.2c0,1-.44,1.36-1.14,1.36s-1.14-.36-1.14-1.36V-14Zm10.52,2H.48V0h2.2V-12h2.3v-2h-6.8Zm7.66-2V-3.34C5.84-1.1,6.96.18,9.12.18S12.4-1.1,12.4-3.34V-14H10.32V-3.2c0,1-.44,1.36-1.14,1.36S8.04-2.2,8.04-3.2V-14Zm11.38,0H13.9V0h3.46c2.2,0,3.34-1.16,3.34-3.32V-4.46c0-1.48-.46-2.54-1.64-3,.98-.46,1.42-1.38,1.42-2.82v-.5C20.48-12.94,19.5-14,17.22-14Zm-.14,7.7c1,0,1.42.4,1.42,1.7v1.22C18.5-2.34,18.1-2,17.36-2H16.1V-6.3Zm.08-5.7c.78,0,1.12.44,1.12,1.44v.78c0,1.12-.5,1.48-1.32,1.48H16.1V-12Zm7.06,0h3.8v-2h-6V0h6V-2h-3.8V-6.1h3.02v-2H24.22Z" transform="translate(323.004 421.008)" fill="#242549"/><path d="M5.82,0H8.08L5.02-7.76,8.08-14H5.88L3-7.9V-14H.8V0H3V-4.3l.68-1.28Zm7.36-6.42.9-3.44V0h1.98V-14H13.64l-1.8,5.78-.8,3.08V-14H9.08V0h2.26ZM19.82-6h2.5V0h2.24V-14H22.32v6h-2.5v-6h-2.2V0h2.2Zm8.36-4.78c0-1,.44-1.38,1.14-1.38s1.14.38,1.14,1.38v7.56c0,1-.44,1.38-1.14,1.38s-1.14-.38-1.14-1.38Zm-2.2,7.42c0,2.24,1.18,3.52,3.34,3.52s3.34-1.28,3.34-3.52v-7.28c0-2.24-1.18-3.52-3.34-3.52s-3.34,1.28-3.34,3.52ZM39.2-10.78c0-1,.44-1.38,1.14-1.38s1.14.38,1.14,1.38v7.56c0,1-.44,1.38-1.14,1.38S39.2-2.22,39.2-3.22ZM37-3.36C37-1.12,38.18.16,40.34.16s3.34-1.28,3.34-3.52v-7.28c0-2.24-1.18-3.52-3.34-3.52S37-12.88,37-10.64ZM47.3-6h2.5V0h2.24V-14H49.8v6H47.3v-6H45.1V0h2.2ZM53.02.02h.34c2.2,0,3.12-1,3.2-3.56L56.8-12h1.92V0h2.24V-14H54.74L54.38-3.42c-.04,1.3-.36,1.44-1.36,1.44ZM67.52-14H64.3L62.06,0h2.02l.38-2.54h2.7L67.54,0h2.22ZM65.8-11.52l1.06,7.08H64.74ZM73.04,0H70.78V-14h1.96v8.86l.8-3.08L75.34-14h2.42V0H75.78V-9.86l-.9,3.44ZM75.3-17.12c-.06.74-.4.92-1,.92-.58,0-.88-.18-.94-.92H72a2.064,2.064,0,0,0,2.3,2.22,2.067,2.067,0,0,0,2.34-2.22ZM81.56-6h2.5V0H86.3V-14H84.06v6h-2.5v-6h-2.2V0h2.2Z" transform="translate(135.223 421.033)" fill="#242549"/><path d="M122.832,589.625Z" transform="translate(60.022 -200.986)" fill="#e0d7ef"/><path d="M116.235,521.473H64.5a2.231,2.231,0,0,0-2.213,2.249v34.4a.446.446,0,0,0,.443.45H118a.446.446,0,0,0,.443-.45v-34.4A2.231,2.231,0,0,0,116.235,521.473Zm.807,34.771a.891.891,0,0,1-.884.9H64.574a.892.892,0,0,1-.884-.9h0V523.8a.892.892,0,0,1,.884-.9h51.583a.892.892,0,0,1,.884.9h0Z" transform="translate(79.717 -177.589)" fill="#242549"/><path d="M118.578,604.767h-25.3a.707.707,0,0,1-.7.712H82.75a.706.706,0,0,1-.7-.712h-25.3s-1.606,0-2.035-1.045a.054.054,0,0,0-.1.02v1.015c.01,1.6,2.14,1.6,2.14,1.6h61.827s2.131,0,2.141-1.6V603.71a.05.05,0,0,0-.04-.057.049.049,0,0,0-.056.04h0C120.216,604.767,118.578,604.767,118.578,604.767Z" transform="translate(82.389 -205.655)" fill="#242549"/><path d="M120.549,592.141l-4.734-14.431a.442.442,0,0,0-.419-.308H59.871a.442.442,0,0,0-.419.308l-4.734,14.431a2.132,2.132,0,0,0,1.005,2.816,2.059,2.059,0,0,0,1,.2h25.3c0-.285.314-.516.7-.516h9.829c.385,0,.7.231.7.516h25.3a2.1,2.1,0,0,0,2.195-2A2.155,2.155,0,0,0,120.549,592.141Z" transform="translate(82.479 -196.69)" fill="#242549"/><path d="M.308-7.206H.9A1.684,1.684,0,0,1,.948-7.65a1.184,1.184,0,0,1,.171-.4.933.933,0,0,1,.3-.283.865.865,0,0,1,.444-.108,1.087,1.087,0,0,1,.371.063.89.89,0,0,1,.3.182.9.9,0,0,1,.206.283.856.856,0,0,1,.077.367,1.191,1.191,0,0,1-.08.455,1.2,1.2,0,0,1-.238.364,2.449,2.449,0,0,1-.4.332q-.238.164-.553.36-.259.154-.5.329a2.344,2.344,0,0,0-.427.406,2.012,2.012,0,0,0-.311.542A2.635,2.635,0,0,0,.168-4H3.409v-.525H.861a.941.941,0,0,1,.178-.409,1.924,1.924,0,0,1,.329-.332,3.645,3.645,0,0,1,.423-.29q.231-.136.462-.276T2.7-6.142a2.266,2.266,0,0,0,.385-.36,1.656,1.656,0,0,0,.269-.451,1.546,1.546,0,0,0,.1-.581,1.459,1.459,0,0,0-.122-.616A1.273,1.273,0,0,0,3-8.6a1.471,1.471,0,0,0-.493-.273A1.9,1.9,0,0,0,1.9-8.963a1.75,1.75,0,0,0-.7.133,1.429,1.429,0,0,0-.514.367,1.483,1.483,0,0,0-.3.556A2.007,2.007,0,0,0,.308-7.206Z" transform="translate(189.861 360.926)" fill="#242549"/><path d="M365.694,589.625Z" transform="translate(-27.495 -200.986)" fill="#e0d7ef"/><path d="M330.569,580.64c-3.449-.062-6.9-.107-10.346-.2q-3.4-.084-6.792-.265a75.7,75.7,0,0,1-9.287-.917,8.765,8.765,0,0,1-7.118-6.366,21.96,21.96,0,0,1-.788-4.055,122.279,122.279,0,0,1-.8-18.432c.074-3.265.3-6.529.539-9.786a28.458,28.458,0,0,1,.93-5.876,8.852,8.852,0,0,1,6.279-6.589,28.908,28.908,0,0,1,5.354-.774c8.01-.662,16.034-.8,24.057-.722,4.4.041,8.791.186,13.183.384,2.666.12,5.328.391,7.989.668a11.8,11.8,0,0,1,4.044.994,9.317,9.317,0,0,1,5.093,6.9,63.194,63.194,0,0,1,1.03,8.731c.262,3.958.322,7.919.238,11.887-.065,3-.269,6-.449,8.995a45.259,45.259,0,0,1-.82,6.437,8.97,8.97,0,0,1-5.792,7.2,17.072,17.072,0,0,1-3.95.782c-7.379.8-14.785.861-22.19.957h-.406Z" transform="translate(0.101 -179.355)" fill="#242549"/><path d="M265.641,523.837V517.5a7.946,7.946,0,0,1,7.891-8h82.853a7.946,7.946,0,0,1,7.891,8v76a7.946,7.946,0,0,1-7.891,8H273.532a7.946,7.946,0,0,1-7.891-8V573" transform="translate(7.725 -173.5)" fill="none" stroke="#242549" stroke-linecap="round" stroke-linejoin="round" stroke-width="1.5"/><path d="M138.346,572.61V593.5a7.946,7.946,0,0,1-7.891,8H47.6a7.946,7.946,0,0,1-7.891-8v-76a7.946,7.946,0,0,1,7.891-8h82.853a7.946,7.946,0,0,1,7.891,8v24.6" transform="translate(89.289 -173.5)" fill="none" stroke="#242549" stroke-linecap="round" stroke-linejoin="round" stroke-width="1.5"/><path d="M-4.91-7H-6.53V0h1.1V-2.63h.52c1.1,0,1.64-.61,1.64-1.73v-.91C-3.27-6.39-3.81-7-4.91-7Zm0,1c.35,0,.54.16.54.66v1.05c0,.5-.19.66-.54.66h-.52V-6ZM.86-7H-.29l-.5,2.4-.26,1.63-.34-1.64L-1.99-7H-3.08l1.52,5.4-.01.06c-.09.51-.41.61-.97.57V.01C-1.01.11-.58-.52-.32-1.78ZM3.07,0A1.515,1.515,0,0,0,4.73-1.73v-.75A1.515,1.515,0,0,0,3.07-4.21H2.43V-6H4.41V-7H1.33V0ZM2.43-1V-3.21h.64c.35,0,.56.16.56.66v.89c0,.5-.21.66-.56.66Zm3.04-.06V0H6.53V-1.06Z" transform="translate(332 390)" fill="#e0d7ed"/><path d="M-4.91-7H-6.53V0h1.1V-2.63h.52c1.1,0,1.64-.61,1.64-1.73v-.91C-3.27-6.39-3.81-7-4.91-7Zm0,1c.35,0,.54.16.54.66v1.05c0,.5-.19.66-.54.66h-.52V-6ZM.86-7H-.29l-.5,2.4-.26,1.63-.34-1.64L-1.99-7H-3.08l1.52,5.4-.01.06c-.09.51-.41.61-.97.57V.01C-1.01.11-.58-.52-.32-1.78ZM3.07,0A1.515,1.515,0,0,0,4.73-1.73v-.75A1.515,1.515,0,0,0,3.07-4.21H2.43V-6H4.41V-7H1.33V0ZM2.43-1V-3.21h.64c.35,0,.56.16.56.66v.89c0,.5-.21.66-.56.66Zm3.04-.06V0H6.53V-1.06Z" transform="translate(169 390)" fill="#e0d7ed"/><path d="M-2.61-15.486H-.145V0h3.19V-20.3H.9C.406-18.937-.145-17.748-2.61-17.748Z" transform="translate(330 377)" fill="#e0d7ed"/><path d="M-15.834-15.631c0-1.45.638-2,1.653-2s1.653.551,1.653,2V-4.669c0,1.45-.638,2-1.653,2s-1.653-.551-1.653-2Zm-3.19,10.759c0,3.248,1.711,5.1,4.843,5.1s4.843-1.856,4.843-5.1V-15.428c0-3.248-1.711-5.1-4.843-5.1s-4.843,1.856-4.843,5.1Zm11.745,1.8V0H-4.2V-3.074Zm4.64-.609H3.509V0H6.641V-3.683H8.149v-2.9H6.641V-20.3H3.161l-5.8,13.717ZM.29-6.583,3.509-14.21v7.627ZM9.4-20.3v2.9h6.351L11.078,0h3.19l4.7-17.516V-20.3Z" transform="translate(170 377)" fill="#242549"/></g></svg>