<svg xmlns="http://www.w3.org/2000/svg" width="246.5" height="93.5" viewBox="0 0 246.5 93.5"><g transform="translate(-38.961 -508.75)"><g transform="translate(123.529 542.5)"><path d="M178.466,580.687c-2.263-.685-3.688-1.684-3.688-2.795,0-2.071,4.955-3.749,11.064-3.749a31.126,31.126,0,0,1,3.688.213" transform="translate(-171.088 -572.27)" fill="none" stroke="#242549" stroke-linecap="round" stroke-linejoin="round" stroke-width="1.5"/><path d="M197.369,575.594c2.264.684,3.689,1.683,3.689,2.794,0,2.071-4.955,3.749-11.064,3.749a31.121,31.121,0,0,1-3.689-.213" transform="translate(-175.145 -572.765)" fill="none" stroke="#242549" stroke-linecap="round" stroke-linejoin="round" stroke-width="1.5"/><ellipse cx="14.802" cy="5.623" rx="14.802" ry="5.623" transform="translate(0 0)" stroke-width="1.5" stroke="#242549" stroke-linecap="round" stroke-linejoin="round" fill="none"/><path d="M191.217,588.5a36.565,36.565,0,0,1-14.756,0c-4.411-.972-7.378-2.789-7.378-4.871v-3.749" transform="translate(-169.083 -574.23)" fill="none" stroke="#242549" stroke-linecap="round" stroke-linejoin="round" stroke-width="1.5"/><path d="M191.217,588.5a36.565,36.565,0,0,1-14.756,0c-4.411-.972-7.378-2.789-7.378-4.871v-3.749" transform="translate(-169.083 -566.648)" fill="none" stroke="#242549" stroke-linecap="round" stroke-linejoin="round" stroke-width="1.5"/><path d="M212.766,579.877v3.749c0,1.426-1.393,2.727-3.688,3.715" transform="translate(-183.162 -574.228)" fill="none" stroke="#242549" stroke-linecap="round" stroke-linejoin="round" stroke-width="1.5"/><path d="M212.766,579.877v3.749c0,1.426-1.393,2.727-3.688,3.715" transform="translate(-183.162 -566.646)" fill="none" stroke="#242549" stroke-linecap="round" stroke-linejoin="round" stroke-width="1.5"/><path d="M191.217,594.227a34.736,34.736,0,0,1-7.377.752c-8.15,0-14.757-2.518-14.757-5.623v-3.749" transform="translate(-169.083 -576.185)" fill="none" stroke="#242549" stroke-linecap="round" stroke-linejoin="round" stroke-width="1.5"/><path d="M191.217,594.227a34.736,34.736,0,0,1-7.377.752c-8.15,0-14.757-2.518-14.757-5.623v-3.749" transform="translate(-169.083 -568.603)" fill="none" stroke="#242549" stroke-linecap="round" stroke-linejoin="round" stroke-width="1.5"/><path d="M212.766,585.6v3.748c0,1.427-1.393,2.728-3.688,3.715" transform="translate(-183.162 -576.181)" fill="none" stroke="#242549" stroke-linecap="round" stroke-linejoin="round" stroke-width="1.5"/><path d="M212.766,585.6v3.748c0,1.427-1.393,2.728-3.688,3.715" transform="translate(-183.162 -568.599)" fill="none" stroke="#242549" stroke-linecap="round" stroke-linejoin="round" stroke-width="1.5"/><path d="M169.083,591.331v3.749c0,3.1,6.627,5.623,14.8,5.623s14.8-2.517,14.8-5.623v-3.749" transform="translate(-169.083 -570.55)" fill="none" stroke="#242549" stroke-linecap="round" stroke-linejoin="round" stroke-width="1.5"/></g><g transform="translate(171.288 523.8)"><path d="M271.054,535.628c2.269.684,3.7,1.687,3.7,2.8,0,2.074-4.964,3.755-11.086,3.755a31.22,31.22,0,0,1-3.7-.213" transform="translate(-248.842 -532.793)" fill="none" stroke="#242549" stroke-linecap="round" stroke-linejoin="round" stroke-width="1.5"/><path d="M252.2,540.724c-2.269-.685-3.7-1.688-3.7-2.8,0-2.075,4.964-3.755,11.086-3.755a31.08,31.08,0,0,1,3.7.214" transform="translate(-244.806 -532.295)" fill="none" stroke="#242549" stroke-linecap="round" stroke-linejoin="round" stroke-width="1.5"/><ellipse cx="14.802" cy="5.633" rx="14.802" ry="5.633" fill="none" stroke="#242549" stroke-linecap="round" stroke-linejoin="round" stroke-width="1.5"/><path d="M264.972,548.514a34.77,34.77,0,0,1-7.391.754c-8.165,0-14.783-2.523-14.783-5.633v-3.755" transform="translate(-242.798 -534.245)" fill="none" stroke="#242549" stroke-linecap="round" stroke-linejoin="round" stroke-width="1.5"/><path d="M286.475,539.879v3.755c0,1.428-1.4,2.737-3.7,3.726" transform="translate(-256.872 -534.245)" fill="none" stroke="#242549" stroke-linecap="round" stroke-linejoin="round" stroke-width="1.5"/><path d="M264.972,554.24a34.77,34.77,0,0,1-7.391.754c-8.165,0-14.783-2.523-14.783-5.633V545.6" transform="translate(-242.798 -536.201)" fill="none" stroke="#242549" stroke-linecap="round" stroke-linejoin="round" stroke-width="1.5"/><path d="M286.475,545.6v3.755c0,1.428-1.4,2.737-3.7,3.726" transform="translate(-256.872 -536.2)" fill="none" stroke="#242549" stroke-linecap="round" stroke-linejoin="round" stroke-width="1.5"/><path d="M264.972,559.952a34.758,34.758,0,0,1-7.391.754c-8.165,0-14.783-2.523-14.783-5.634v-3.755" transform="translate(-242.798 -538.152)" fill="none" stroke="#242549" stroke-linecap="round" stroke-linejoin="round" stroke-width="1.5"/><path d="M286.475,551.316v3.755c0,1.428-1.4,2.737-3.7,3.726" transform="translate(-256.872 -538.151)" fill="none" stroke="#242549" stroke-linecap="round" stroke-linejoin="round" stroke-width="1.5"/><path d="M264.972,565.664a34.774,34.774,0,0,1-7.391.754c-8.165,0-14.783-2.523-14.783-5.634v-3.755" transform="translate(-242.798 -540.102)" fill="none" stroke="#242549" stroke-linecap="round" stroke-linejoin="round" stroke-width="1.5"/><path d="M286.475,557.028v3.755c0,1.428-1.4,2.737-3.7,3.726" transform="translate(-256.872 -540.102)" fill="none" stroke="#242549" stroke-linecap="round" stroke-linejoin="round" stroke-width="1.5"/><path d="M264.972,571.378a34.73,34.73,0,0,1-7.391.754c-8.165,0-14.783-2.522-14.783-5.633v-3.755" transform="translate(-242.798 -542.054)" fill="none" stroke="#242549" stroke-linecap="round" stroke-linejoin="round" stroke-width="1.5"/><path d="M286.475,562.74V566.5c0,1.428-1.4,2.737-3.7,3.726" transform="translate(-256.872 -542.053)" fill="none" stroke="#242549" stroke-linecap="round" stroke-linejoin="round" stroke-width="1.5"/><path d="M264.972,577.089a34.726,34.726,0,0,1-7.391.754c-8.165,0-14.783-2.523-14.783-5.633v-3.755" transform="translate(-242.798 -544.004)" fill="none" stroke="#242549" stroke-linecap="round" stroke-linejoin="round" stroke-width="1.5"/><path d="M286.475,568.452v3.755c0,1.428-1.4,2.737-3.7,3.726" transform="translate(-256.872 -544.004)" fill="none" stroke="#242549" stroke-linecap="round" stroke-linejoin="round" stroke-width="1.5"/><path d="M264.972,582.8a34.73,34.73,0,0,1-7.391.754c-8.165,0-14.783-2.523-14.783-5.633v-3.755" transform="translate(-242.798 -545.955)" fill="none" stroke="#242549" stroke-linecap="round" stroke-linejoin="round" stroke-width="1.5"/><path d="M286.475,574.164v3.755c0,1.428-1.4,2.737-3.7,3.726" transform="translate(-256.872 -545.954)" fill="none" stroke="#242549" stroke-linecap="round" stroke-linejoin="round" stroke-width="1.5"/><path d="M264.972,588.515a34.8,34.8,0,0,1-7.391.754c-8.165,0-14.783-2.523-14.783-5.634V579.88" transform="translate(-242.798 -547.906)" fill="none" stroke="#242549" stroke-linecap="round" stroke-linejoin="round" stroke-width="1.5"/><path d="M286.475,579.876v3.755c0,1.428-1.4,2.737-3.7,3.726" transform="translate(-256.872 -547.905)" fill="none" stroke="#242549" stroke-linecap="round" stroke-linejoin="round" stroke-width="1.5"/><path d="M264.972,594.236a34.813,34.813,0,0,1-7.391.754c-8.165,0-14.783-2.523-14.783-5.634V585.6" transform="translate(-242.798 -549.86)" fill="none" stroke="#242549" stroke-linecap="round" stroke-linejoin="round" stroke-width="1.5"/><path d="M286.475,585.6v3.755c0,1.428-1.4,2.738-3.7,3.726" transform="translate(-256.872 -549.86)" fill="none" stroke="#242549" stroke-linecap="round" stroke-linejoin="round" stroke-width="1.5"/><path d="M272.4,591.3v3.755c0,3.111-6.627,5.634-14.8,5.634s-14.8-2.523-14.8-5.634V591.3" transform="translate(-242.798 -551.808)" fill="none" stroke="#242549" stroke-linecap="round" stroke-linejoin="round" stroke-width="1.5"/></g><path d="M-25.72,0h2.2V-4.64L-20.74-14h-2.1l-1.68,6.38L-26.2-14h-2.3l2.78,9.36Zm7.58-10.78c0-1,.44-1.38,1.14-1.38s1.14.38,1.14,1.38v7.56c0,1-.44,1.38-1.14,1.38s-1.14-.38-1.14-1.38Zm-2.2,7.42c0,2.24,1.18,3.52,3.34,3.52s3.34-1.28,3.34-3.52v-7.28c0-2.24-1.18-3.52-3.34-3.52s-3.34,1.28-3.34,3.52Zm8-10.64V-3.34c0,2.24,1.12,3.52,3.28,3.52S-5.78-1.1-5.78-3.34V-14H-7.86V-3.2c0,1-.44,1.36-1.14,1.36s-1.14-.36-1.14-1.36V-14Zm10.52,2H.48V0h2.2V-12h2.3v-2h-6.8Zm7.66-2V-3.34C5.84-1.1,6.96.18,9.12.18S12.4-1.1,12.4-3.34V-14H10.32V-3.2c0,1-.44,1.36-1.14,1.36S8.04-2.2,8.04-3.2V-14Zm11.38,0H13.9V0h3.46c2.2,0,3.34-1.16,3.34-3.32V-4.46c0-1.48-.46-2.54-1.64-3,.98-.46,1.42-1.38,1.42-2.82v-.5C20.48-12.94,19.5-14,17.22-14Zm-.14,7.7c1,0,1.42.4,1.42,1.7v1.22C18.5-2.34,18.1-2,17.36-2H16.1V-6.3Zm.08-5.7c.78,0,1.12.44,1.12,1.44v.78c0,1.12-.5,1.48-1.32,1.48H16.1V-12Zm7.06,0h3.8v-2h-6V0h6V-2h-3.8V-6.1h3.02v-2H24.22Z" transform="translate(235.715 594.508)" fill="#242549"/><path d="M5.82,0H8.08L5.02-7.76,8.08-14H5.88L3-7.9V-14H.8V0H3V-4.3l.68-1.28Zm7.36-6.42.9-3.44V0h1.98V-14H13.64l-1.8,5.78-.8,3.08V-14H9.08V0h2.26ZM19.82-6h2.5V0h2.24V-14H22.32v6h-2.5v-6h-2.2V0h2.2Zm8.36-4.78c0-1,.44-1.38,1.14-1.38s1.14.38,1.14,1.38v7.56c0,1-.44,1.38-1.14,1.38s-1.14-.38-1.14-1.38Zm-2.2,7.42c0,2.24,1.18,3.52,3.34,3.52s3.34-1.28,3.34-3.52v-7.28c0-2.24-1.18-3.52-3.34-3.52s-3.34,1.28-3.34,3.52ZM39.2-10.78c0-1,.44-1.38,1.14-1.38s1.14.38,1.14,1.38v7.56c0,1-.44,1.38-1.14,1.38S39.2-2.22,39.2-3.22ZM37-3.36C37-1.12,38.18.16,40.34.16s3.34-1.28,3.34-3.52v-7.28c0-2.24-1.18-3.52-3.34-3.52S37-12.88,37-10.64ZM47.3-6h2.5V0h2.24V-14H49.8v6H47.3v-6H45.1V0h2.2ZM53.02.02h.34c2.2,0,3.12-1,3.2-3.56L56.8-12h1.92V0h2.24V-14H54.74L54.38-3.42c-.04,1.3-.36,1.44-1.36,1.44ZM67.52-14H64.3L62.06,0h2.02l.38-2.54h2.7L67.54,0h2.22ZM65.8-11.52l1.06,7.08H64.74ZM73.04,0H70.78V-14h1.96v8.86l.8-3.08L75.34-14h2.42V0H75.78V-9.86l-.9,3.44ZM75.3-17.12c-.06.74-.4.92-1,.92-.58,0-.88-.18-.94-.92H72a2.064,2.064,0,0,0,2.3,2.22,2.067,2.067,0,0,0,2.34-2.22ZM81.56-6h2.5V0H86.3V-14H84.06v6h-2.5v-6h-2.2V0h2.2Z" transform="translate(45.934 594.533)" fill="#242549"/><path d="M122.832,589.625Z" transform="translate(-29.267 -27.486)" fill="#e0d7ef"/><g transform="translate(49.308 517.384)"><path d="M116.235,521.473H64.5a2.231,2.231,0,0,0-2.213,2.249v34.4a.446.446,0,0,0,.443.45H118a.446.446,0,0,0,.443-.45v-34.4A2.231,2.231,0,0,0,116.235,521.473Zm.807,34.771a.891.891,0,0,1-.884.9H64.574a.892.892,0,0,1-.884-.9h0V523.8a.892.892,0,0,1,.884-.9h51.583a.892.892,0,0,1,.884.9h0Z" transform="translate(-57.253 -521.473)" fill="#242549"/><path d="M118.578,604.767h-25.3a.707.707,0,0,1-.7.712H82.75a.706.706,0,0,1-.7-.712h-25.3s-1.606,0-2.035-1.045a.054.054,0,0,0-.1.02v1.015c.01,1.6,2.14,1.6,2.14,1.6h61.827s2.131,0,2.141-1.6V603.71a.05.05,0,0,0-.04-.057.049.049,0,0,0-.056.04h0C120.216,604.767,118.578,604.767,118.578,604.767Z" transform="translate(-54.553 -549.539)" fill="#242549"/><path d="M120.549,592.141l-4.734-14.431a.442.442,0,0,0-.419-.308H59.871a.442.442,0,0,0-.419.308l-4.734,14.431a2.132,2.132,0,0,0,1.005,2.816,2.059,2.059,0,0,0,1,.2h25.3c0-.285.314-.516.7-.516h9.829c.385,0,.7.231.7.516h25.3a2.1,2.1,0,0,0,2.195-2A2.155,2.155,0,0,0,120.549,592.141Z" transform="translate(-54.521 -540.574)" fill="#242549"/><g transform="translate(22.148 38.123)"><path d="M97.681,581.053a1.48,1.48,0,0,0,.008-.338,1.46,1.46,0,0,0-1.574-1.341,1.458,1.458,0,0,0-1.567,1.679v3.466a1.376,1.376,0,0,0-.008.338,1.457,1.457,0,0,0,1.573,1.339h0a1.43,1.43,0,0,0,.332-.009,1.47,1.47,0,0,0,1.234-1.667h0Zm-1.031,3.533c0,.442-.176.656-.535.656s-.534-.215-.534-.656v-3.6c0-.442.175-.657.534-.657h0c.361,0,.535.215.535.658Z" transform="translate(-90.754 -579.368)" fill="#e0d7ef"/><path d="M120.645,579.5h-1.03l-1.347,2.906V579.5h-1.031v6.67h1.028V584.12l.319-.611,1,2.659h1.058l-1.433-3.7Z" transform="translate(-98.746 -579.414)" fill="#e0d7ef"/><path d="M100.417,586.166h1.03V580.45h1.174v5.716h1.048V579.5h-3.252Z" transform="translate(-92.825 -579.412)" fill="#e0d7ef"/><path d="M91.078,579.5l-1.347,2.906V579.5H88.7v6.671h1.03v-2.053l.321-.611,1,2.659h1.058l-1.433-3.7,1.435-2.974Z" transform="translate(-88.701 -579.412)" fill="#e0d7ef"/><path d="M111.914,586.166h2.812v-.952h-1.782V583.26h1.417v-.952h-1.417V580.45h1.782V579.5h-2.812Z" transform="translate(-96.872 -579.412)" fill="#e0d7ef"/><path d="M106.593,586.166H109.4v-.952h-1.778V583.26h1.417v-.952h-1.417V580.45h1.783V579.5h-2.811Z" transform="translate(-94.999 -579.412)" fill="#e0d7ef"/></g><text transform="translate(44.264 18.042)" fill="#242549" font-size="7" font-family="Helvetica-Bold, Helvetica" font-weight="700" baseline-shift="3.9995999620726357"><tspan x="0" y="0">2</tspan></text></g><path d="M365.694,589.625Z" transform="translate(-114.784 -27.486)" fill="#e0d7ef"/><g transform="translate(205.342 520.79)"><path d="M333.1,580.64c-3.7-.062-7.394-.107-11.09-.2q-3.641-.084-7.28-.265a86.794,86.794,0,0,1-9.954-.917,9.2,9.2,0,0,1-7.63-6.366,20.662,20.662,0,0,1-.845-4.055,114.154,114.154,0,0,1-.861-18.432c.08-3.265.323-6.529.577-9.786a26.706,26.706,0,0,1,1-5.876,9.157,9.157,0,0,1,6.73-6.589,33.07,33.07,0,0,1,5.739-.774c8.585-.662,17.185-.8,25.785-.722,4.715.041,9.422.186,14.13.384,2.858.12,5.711.391,8.563.668a13.4,13.4,0,0,1,4.334.994,9.409,9.409,0,0,1,5.459,6.9,59.149,59.149,0,0,1,1.1,8.731c.281,3.958.345,7.919.255,11.887-.069,3-.288,6-.481,8.995a42.379,42.379,0,0,1-.879,6.437,9.133,9.133,0,0,1-6.208,7.2,19.462,19.462,0,0,1-4.233.782c-7.909.8-15.847.861-23.784.957h-.435Z" transform="translate(-295.372 -526.645)" fill="#242549"/><g transform="translate(25.939 36.796)"><path d="M344.382,584.211a1.481,1.481,0,0,0,.008-.338,1.58,1.58,0,0,0-3.141.338v3.466a1.44,1.44,0,0,0-.008.338,1.458,1.458,0,0,0,1.573,1.339h0a1.435,1.435,0,0,0,.332-.009,1.471,1.471,0,0,0,1.234-1.667h0Zm-1.031,3.533c0,.442-.176.656-.535.656s-.534-.215-.534-.656v-3.6c0-.443.175-.657.534-.657h0c.361,0,.535.215.535.658Z" transform="translate(-337.455 -582.526)" fill="#e0d7ef"/><path d="M367.346,582.661h-1.03l-1.347,2.906v-2.906h-1.03v6.67h1.028v-2.053l.318-.611,1,2.66h1.059l-1.434-3.7Z" transform="translate(-345.447 -582.572)" fill="#e0d7ef"/><path d="M347.117,589.324h1.03v-5.717h1.173v5.717h1.049v-6.669h-3.252Z" transform="translate(-339.526 -582.57)" fill="#e0d7ef"/><path d="M337.779,582.659l-1.347,2.906v-2.906H335.4v6.67h1.03v-2.053l.32-.611,1,2.66h1.058l-1.434-3.7,1.435-2.974Z" transform="translate(-335.402 -582.57)" fill="#e0d7ef"/><path d="M358.615,589.324h2.812v-.952h-1.782v-1.955h1.417v-.952h-1.417v-1.858h1.782v-.952h-2.812Z" transform="translate(-343.573 -582.57)" fill="#e0d7ef"/><path d="M353.293,589.324H356.1v-.952h-1.779v-1.955h1.417v-.952h-1.417v-1.858h1.784v-.952h-2.811Z" transform="translate(-341.7 -582.57)" fill="#e0d7ef"/></g><path d="M352.9,564.469a4.716,4.716,0,0,1-3.625-1.369,5.5,5.5,0,0,1-1.258-3.863V548.422a5.5,5.5,0,0,1,1.258-3.863,5.489,5.489,0,0,1,7.252,0,5.5,5.5,0,0,1,1.257,3.863v10.815a5.5,5.5,0,0,1-1.257,3.863,4.723,4.723,0,0,1-3.632,1.369Zm0-18.305c-1.122,0-1.667.671-1.667,2.053V559.45c0,1.38.544,2.053,1.667,2.053s1.667-.671,1.667-2.053V548.217c0-1.386-.546-2.053-1.672-2.053Zm-11.578,18.305A4.727,4.727,0,0,1,337.7,563.1a5.5,5.5,0,0,1-1.256-3.863V548.422a5.5,5.5,0,0,1,1.251-3.864,5.487,5.487,0,0,1,7.252,0,5.509,5.509,0,0,1,1.251,3.863v10.815a5.509,5.509,0,0,1-1.251,3.863,4.716,4.716,0,0,1-3.624,1.369Zm0-18.305c-1.122,0-1.669.671-1.669,2.053V559.45c0,1.38.547,2.053,1.669,2.053s1.666-.671,1.666-2.053V548.217C342.99,546.831,342.447,546.164,341.324,546.164Zm-8.843,18.065H329.93a.335.335,0,0,1-.333-.336h0V548.362h-2.154a.335.335,0,0,1-.333-.338h0v-1.651a.34.34,0,0,1,.327-.336,3.056,3.056,0,0,0,3.134-2.387.33.33,0,0,1,.309-.222h1.6a.335.335,0,0,1,.333.338h0v20.126a.335.335,0,0,1-.333.335Z" transform="translate(-306.544 -532.292)" fill="#e0d7ef"/></g><path d="M265.641,523.837V517.5a7.946,7.946,0,0,1,7.891-8h82.853a7.946,7.946,0,0,1,7.891,8v76a7.946,7.946,0,0,1-7.891,8H273.532a7.946,7.946,0,0,1-7.891-8V573" transform="translate(-79.564)" fill="none" stroke="#242549" stroke-linecap="round" stroke-linejoin="round" stroke-width="1.5"/><path d="M138.346,572.61V593.5a7.946,7.946,0,0,1-7.891,8H47.6a7.946,7.946,0,0,1-7.891-8v-76a7.946,7.946,0,0,1,7.891-8h82.853a7.946,7.946,0,0,1,7.891,8v24.6" fill="none" stroke="#242549" stroke-linecap="round" stroke-linejoin="round" stroke-width="1.5"/><path d="M.411-3.682v-2.9L6.2-20.306H9.686V-6.584H11.2v2.9H9.686V0H6.556V-3.682Zm2.931-2.9H6.556v-7.632Z" transform="translate(70.711 550.5)" fill="#242549"/><path d="M.66-14v2.9H7.011L2.342,6.3h3.19l4.7-17.516V-14Z" transform="translate(82.051 544.2)" fill="#242549"/></g></svg>