<svg xmlns="http://www.w3.org/2000/svg" width="172.974" height="58.688" viewBox="0 0 172.974 58.688"><g transform="translate(4146.653 44.879)"><path d="M-4146.647-15.144c-.025-4.23.033-8.519.086-12.808q.015-1.163.091-2.325a20.7,20.7,0,0,1,.715-4.311,14.131,14.131,0,0,1,1.049-2.666,11.313,11.313,0,0,1,4.013-4.362,15.458,15.458,0,0,1,3.264-1.552,24.8,24.8,0,0,1,3.5-.914q1.066-.2,2.144-.337c.731-.09,1.468-.159,2.2-.219,2.933-.239,5.872-.258,8.811-.229,1.071.011,2.141.027,3.211.038,2.2.022,4.4.018,6.6-.046.181-.005.362,0,.541,0a.139.139,0,0,1,.119.119,2.2,2.2,0,0,1,.01.227c-.022.943-.05,1.885-.069,2.828-.013.7-.031,1.4-.02,2.1a12.32,12.32,0,0,0,.154,1.817,5.862,5.862,0,0,0,.35,1.272,3.277,3.277,0,0,0,1.717,1.791,5.218,5.218,0,0,0,1.25.384,8.84,8.84,0,0,0,1.123.129c1.837.1,3.676.107,5.515.065.572-.013,1.145-.051,1.714-.1a7.054,7.054,0,0,0,1.378-.25,4.357,4.357,0,0,0,.756-.3,2.775,2.775,0,0,0,1.249-1.275,5.034,5.034,0,0,0,.422-1.437,15.5,15.5,0,0,0,.16-2c.037-1.521.072-3.041.036-4.563,0-.091,0-.182.006-.273,0-.051.071-.121.117-.118.121.008.241.01.36.03a25.644,25.644,0,0,1,4.384,1.08,16.1,16.1,0,0,1,2.989,1.4,12.18,12.18,0,0,1,4.964,5.7,16.66,16.66,0,0,1,1.006,3.212,14.634,14.634,0,0,1,.261,2.034c.053.759.094,1.518.14,2.277,0,.061.008.121.011.182.035.958.08,1.915.1,2.873.157,6.266.161,12.533.094,18.8q-.023,2.053-.094,4.106a27.117,27.117,0,0,1-.425,4.08,17.455,17.455,0,0,1-1.275,4.125A12.165,12.165,0,0,1-4085.25,9.8a13.128,13.128,0,0,1-2.514,1.61,17.885,17.885,0,0,1-3.479,1.267,25.734,25.734,0,0,1-3.018.587.532.532,0,0,1-.177.007.153.153,0,0,1-.1-.084.59.59,0,0,1-.021-.18c-.008-.334-.012-.669-.025-1a15.957,15.957,0,0,0-.17-1.862,4.376,4.376,0,0,0-.28-1.008A2.794,2.794,0,0,0-4096.5,7.6a4.217,4.217,0,0,0-.856-.289,9.527,9.527,0,0,0-1.34-.2c-1.7-.127-3.4-.127-5.107-.1-.406.005-.814.012-1.22.034a14.883,14.883,0,0,0-1.709.17,5.957,5.957,0,0,0-1.3.362,5.268,5.268,0,0,0-.61.3,2.848,2.848,0,0,0-1.223,1.419,5.174,5.174,0,0,0-.352,1.6c-.033.455-.045.911-.061,1.367-.014.41-.018.821-.029,1.232a.164.164,0,0,1-.176.166c-.1,0-.21,0-.316,0q-3.572.008-7.143.093c-2.667.064-5.336.092-8,.019q-1.356-.037-2.709-.138c-.781-.059-1.562-.129-2.341-.221q-1.414-.167-2.812-.45a24.558,24.558,0,0,1-3.055-.817,16.852,16.852,0,0,1-3.4-1.577,12.1,12.1,0,0,1-3.909-3.8A13.261,13.261,0,0,1-4145.76,3.2a13.456,13.456,0,0,1-.4-1.824c-.052-.376-.1-.754-.125-1.133-.048-.652-.084-1.305-.115-1.959-.2-4.24-.2-8.485-.244-12.728C-4146.648-14.657-4146.647-14.87-4146.647-15.144Zm36.319-8.165h0q-.012.228-.021.456a26.567,26.567,0,0,0,.028,3.282,10.125,10.125,0,0,0,.194,1.306,4.784,4.784,0,0,0,.284.865,3.257,3.257,0,0,0,1.633,1.693,5.106,5.106,0,0,0,1.114.369,8.971,8.971,0,0,0,1.523.185c.362.015.724.022,1.084.036,1.25.052,2.5.057,3.751.03a24.948,24.948,0,0,0,2.526-.16,5.806,5.806,0,0,0,1.529-.383,2.879,2.879,0,0,0,1.666-1.758,6.072,6.072,0,0,0,.273-1.1,13.414,13.414,0,0,0,.147-1.817c.03-1.353.05-2.706.051-4.059a27.346,27.346,0,0,0-.113-2.87,7.128,7.128,0,0,0-.254-1.387,2.915,2.915,0,0,0-1.941-2c-.042-.015-.086-.027-.129-.04a6.275,6.275,0,0,0-1.282-.261c-.539-.054-1.079-.1-1.622-.111-.482-.006-.965-.03-1.447-.04a41.77,41.77,0,0,0-4.787.128,7.73,7.73,0,0,0-1.244.219,4.862,4.862,0,0,0-1.256.5,2.865,2.865,0,0,0-1.25,1.452,4.542,4.542,0,0,0-.161.474,5.394,5.394,0,0,0-.19,1.122c-.026.425-.048.85-.057,1.275C-4110.3-25.041-4110.313-24.175-4110.328-23.308ZM-4094.546-3.8h.005c0-.35,0-.7,0-1.049-.014-1.125-.007-2.25-.121-3.372a7.123,7.123,0,0,0-.243-1.343,2.914,2.914,0,0,0-1.925-2.018,6.918,6.918,0,0,0-1.23-.286,14.22,14.22,0,0,0-1.487-.117,51.918,51.918,0,0,0-6.053.023c-.36.025-.721.062-1.078.117a6.284,6.284,0,0,0-1.265.332,4.151,4.151,0,0,0-.81.4,2.849,2.849,0,0,0-1.092,1.3,4.18,4.18,0,0,0-.179.516,5.429,5.429,0,0,0-.2,1.166c-.024.44-.044.881-.058,1.321-.03,1.094-.053,2.189-.083,3.283a25.694,25.694,0,0,0,.054,3.145,7.018,7.018,0,0,0,.386,1.822,3.32,3.32,0,0,0,1.98,2,5.9,5.9,0,0,0,1.086.3,10.951,10.951,0,0,0,1.619.15c1.807.062,3.615.092,5.423.019a15.745,15.745,0,0,0,1.934-.178,4.912,4.912,0,0,0,1.42-.436,2.794,2.794,0,0,0,1.308-1.336,4.286,4.286,0,0,0,.3-.86,7.2,7.2,0,0,0,.187-1.215c.037-.607.069-1.214.09-1.822C-4094.56-2.549-4094.557-3.172-4094.546-3.8Z" transform="translate(0.001 0)" fill="#fff9ea"/><path d="M-2047.442,231.476q0-4.273,0-8.546,0-.226.008-.452a.168.168,0,0,1,.175-.166c.121-.006.241-.008.361-.009l12.526-.045c.935,0,1.869,0,2.8.078a9.8,9.8,0,0,1,2.088.367,5.069,5.069,0,0,1,1.077.462,3.652,3.652,0,0,1,1.579,1.8,5.118,5.118,0,0,1,.34,1.308,7.13,7.13,0,0,1,.063.721,20.3,20.3,0,0,1-.1,2.664,8.491,8.491,0,0,1-.226,1.29,5.31,5.31,0,0,1-.369,1.018,3.674,3.674,0,0,1-1.843,1.787,5.782,5.782,0,0,1-1.516.433,8.7,8.7,0,0,1-1.35.106c-.06,0-.12,0-.181.008a.1.1,0,0,0-.076.131,1.824,1.824,0,0,0,.422.525,14.458,14.458,0,0,1,1.537,1.529c.473.528.963,1.039,1.462,1.542q1.017,1.029,2.022,2.07c.125.129.235.273.35.412.025.029-.009.1-.048.1-.075.006-.149.017-.224.017l-5.517.009c-.075,0-.151,0-.226-.005a.3.3,0,0,1-.2-.088c-.063-.064-.127-.128-.19-.194l-5.123-5.361c-.115-.12-.228-.241-.336-.367a.93.93,0,0,0-.716-.329l-.135,0h-2.533a1.061,1.061,0,0,0-.224.018.107.107,0,0,0-.09.091c-.01.1-.023.209-.024.313,0,.558,0,1.115,0,1.673q0,1.9,0,3.8c0,.438-.012.426-.42.442-1.6.061-3.195.042-4.792-.007-.075,0-.149-.014-.223-.023a.152.152,0,0,1-.11-.127c0-.045-.01-.09-.011-.135,0-.136,0-.271,0-.407Zm9.442-1.314c.621-.013,1.57-.027,2.518-.053a12.434,12.434,0,0,0,1.8-.172,2.318,2.318,0,0,0,1.031-.433,1.42,1.42,0,0,0,.561-1.558,1.418,1.418,0,0,0-1.015-1.11,5.153,5.153,0,0,0-.57-.14,13.443,13.443,0,0,0-1.57-.179c-.827-.044-1.655-.092-2.484-.087q-1.875.011-3.75.032a2.279,2.279,0,0,0-.313.03.1.1,0,0,0-.06.06.685.685,0,0,0-.028.176c0,.286,0,.572,0,.859q0,.994,0,1.988c0,.12,0,.241.006.361a.16.16,0,0,0,.161.177c.06,0,.12.006.18.007Z" transform="translate(-2000.303 -254.381)" fill="#fff9ea"/><path d="M-2522.275,239.538c-.964.014-1.929.03-2.893.042a22.289,22.289,0,0,1-2.393-.087,10.555,10.555,0,0,1-2-.362,5.775,5.775,0,0,1-1.127-.462,3.888,3.888,0,0,1-1.963-2.531,3.7,3.7,0,0,1-.128-.756c-.019-.406-.054-.812-.066-1.218q-.118-3.887-.024-7.774a9.342,9.342,0,0,1,.1-1.351,5.759,5.759,0,0,1,.273-1.047,3.624,3.624,0,0,1,1.667-1.949,5.493,5.493,0,0,1,1.342-.528,11.564,11.564,0,0,1,1.826-.3,25.222,25.222,0,0,1,2.574-.083c1.868.02,3.737,0,5.605-.04.723-.016,1.446,0,2.169.055a10.217,10.217,0,0,1,2.136.35,5.515,5.515,0,0,1,1.208.5,3.869,3.869,0,0,1,1.682,1.888,5.21,5.21,0,0,1,.406,1.889c.039,1.084.079,2.168.094,3.253.016,1.205,0,2.411,0,3.616q0,1.108-.074,2.213a6.346,6.346,0,0,1-.282,1.506c-.044.143-.1.285-.156.424a3.839,3.839,0,0,1-1.9,2.031,5.918,5.918,0,0,1-1.409.477,11.259,11.259,0,0,1-1.567.209c-.963.067-1.927.067-2.891.051-.739-.013-1.477-.022-2.215-.033Zm4.958-9.26h0c0-.075,0-.151,0-.226-.02-.708-.037-1.416-.065-2.123a4.183,4.183,0,0,0-.177-1.067,1.806,1.806,0,0,0-1.123-1.215c-.084-.032-.17-.062-.256-.087a5.154,5.154,0,0,0-1.069-.176c-1.083-.076-2.167-.095-3.252-.068-.467.012-.933.048-1.4.083a4.228,4.228,0,0,0-.581.089,3.437,3.437,0,0,0-.973.35,1.812,1.812,0,0,0-.7.687,2.356,2.356,0,0,0-.232.586,5.386,5.386,0,0,0-.136,1.21c-.025.979-.048,1.958-.063,2.937-.006.391.008.783.023,1.175a4.869,4.869,0,0,0,.157,1.025,2.2,2.2,0,0,0,1.7,1.69c.029.008.06.011.089.019a5.752,5.752,0,0,0,1.208.152c1.13.032,2.26.043,3.389.017a11.39,11.39,0,0,0,1.216-.1,3.3,3.3,0,0,0,1-.279,1.763,1.763,0,0,0,.888-.924,2.729,2.729,0,0,0,.131-.384,4.98,4.98,0,0,0,.165-1.115C-2517.358,231.784-2517.339,231.031-2517.317,230.278Z" transform="translate(-1537.712 -253.266)" fill="#fff9ea"/><path d="M-913.01,221.77c1.122.007,2.388.017,3.654.021.589,0,1.176.038,1.76.1a9.207,9.207,0,0,1,1.861.357,5.534,5.534,0,0,1,1,.418,3.473,3.473,0,0,1,1.642,1.91,6.58,6.58,0,0,1,.357,1.721c.053.616.087,1.233.08,1.851-.018,1.763,0,3.527.024,5.29.005.467,0,.935-.017,1.4a9.144,9.144,0,0,1-.269,1.967,4.71,4.71,0,0,1-.384,1.012,3.627,3.627,0,0,1-1.342,1.435,5.155,5.155,0,0,1-1.24.539,8.922,8.922,0,0,1-2.318.35q-2.011.049-4.024.069c-1.718.015-3.436.011-5.154-.037-.573-.016-1.144-.052-1.713-.124a8.545,8.545,0,0,1-1.676-.361,6.866,6.866,0,0,1-.713-.283,3.486,3.486,0,0,1-1.955-2.353,8.635,8.635,0,0,1-.269-1.921c-.018-.437-.021-.874-.018-1.311.013-1.764,0-3.527-.027-5.29-.01-.617.013-1.236.038-1.853a7.1,7.1,0,0,1,.265-1.648q.043-.152.095-.3A3.63,3.63,0,0,1-921.5,222.6a6.229,6.229,0,0,1,1.579-.534,11.037,11.037,0,0,1,1.657-.212C-916.56,221.768-914.857,221.791-913.01,221.77Zm.008,4.189a22.035,22.035,0,0,0-2.369.077c-.24.024-.48.053-.716.1a3.434,3.434,0,0,0-.9.3,1.836,1.836,0,0,0-.952,1.1,3.33,3.33,0,0,0-.176.929c-.017.422-.032.843-.039,1.265q-.021,1.266-.031,2.532a10.537,10.537,0,0,0,.073,1.354,4.242,4.242,0,0,0,.119.62,2.1,2.1,0,0,0,1.675,1.589,6.978,6.978,0,0,0,1.164.15q.948.05,1.9.08c.316.011.633.016.949,0a13.4,13.4,0,0,0,1.8-.149,5.935,5.935,0,0,0,.789-.192,2.6,2.6,0,0,0,.535-.239,1.3,1.3,0,0,0,.574-.675,5.221,5.221,0,0,0,.271-1.14,19.138,19.138,0,0,0,.169-2.434,26.634,26.634,0,0,0-.085-2.665c-.022-.24-.051-.48-.094-.717a2.475,2.475,0,0,0-.231-.683,1.668,1.668,0,0,0-.75-.758,3.009,3.009,0,0,0-.461-.183,4.47,4.47,0,0,0-1.022-.176C-911.56,225.989-912.312,225.952-913,225.959Z" transform="translate(-3071.048 -253.917)" fill="#fff9ea"/><path d="M-1394.162,220.841l7.64.041c.491,0,.476-.024.475.46q0,1.65,0,3.3c0,.105-.006.21-.012.315a.15.15,0,0,1-.121.116c-.045.005-.09.012-.135.013-.106,0-.211,0-.317,0q-4.52,0-9.041,0c-.919,0-1.838.021-2.757.042a5.885,5.885,0,0,0-1.342.171,3.638,3.638,0,0,0-.554.189,1.513,1.513,0,0,0-.806.817,3.173,3.173,0,0,0-.192.6,5.685,5.685,0,0,0-.109.805c-.03.511-.052,1.024-.054,1.536-.005.859,0,1.718.014,2.577a5.756,5.756,0,0,0,.122,1.3,3.96,3.96,0,0,0,.138.476,1.928,1.928,0,0,0,1.565,1.278,6.319,6.319,0,0,0,.673.084c.616.041,1.233.085,1.85.1q2.418.07,4.837,0c.18,0,.361-.014.541-.027a.172.172,0,0,0,.174-.17c.005-.135.007-.271.007-.407q0-2.4,0-4.792c0-.136,0-.271,0-.407a.307.307,0,0,1,.022-.132.169.169,0,0,1,.093-.084.953.953,0,0,1,.223-.02h4.837a.994.994,0,0,1,.224.018.168.168,0,0,1,.092.085.313.313,0,0,1,.024.131c0,.12,0,.241,0,.362q0,4.521,0,9.041c0,.121,0,.241,0,.362,0,.207-.073.223-.249.231-.045,0-.091,0-.136,0q-4.859.034-9.719.066c-.708,0-1.417-.009-2.125-.01-1.085,0-2.17-.048-3.253-.1a10.334,10.334,0,0,1-2.274-.345,5.66,5.66,0,0,1-1.093-.424,3.453,3.453,0,0,1-1.693-1.92,6.931,6.931,0,0,1-.371-1.672,15.59,15.59,0,0,1-.09-1.624c0-.452-.006-.9-.007-1.356q0-1.808,0-3.616c0-.618.008-1.236.019-1.853a11.369,11.369,0,0,1,.18-1.8,5.457,5.457,0,0,1,.292-1.043,3.523,3.523,0,0,1,1.716-1.9,5.855,5.855,0,0,1,1.49-.513,11.252,11.252,0,0,1,1.521-.209c1.2-.085,2.409-.091,3.614-.109,1.356-.02,2.712-.018,4.068-.025Z" transform="translate(-2610.51 -253.006)" fill="#fff9ea"/><path d="M-1570.2,231.534q0,4.3,0,8.592c0,.613.059.567-.551.57q-2.239.01-4.477.018c-.135,0-.27-.01-.405-.022-.023,0-.052-.036-.062-.061a.43.43,0,0,1-.021-.133c0-.136,0-.271,0-.407q0-8.524,0-17.048c0-.166.005-.331.01-.5a.134.134,0,0,1,.11-.123c.09-.008.18-.018.269-.019q2.4-.021,4.794-.038a1.685,1.685,0,0,1,.268.023.1.1,0,0,1,.062.06.376.376,0,0,1,.028.131c0,.151,0,.3,0,.452q0,4.251,0,8.5Z" transform="translate(-2449.802 -254.485)" fill="#fff9ea"/><path d="M-1534.829,731.652q0-2.011,0-4.022c0-.135.005-.271.011-.406a.156.156,0,0,1,.15-.139c.075,0,.151-.006.226-.006h4.248a4.54,4.54,0,0,1,1.2.163,2.961,2.961,0,0,1,1.909,1.543,4.462,4.462,0,0,1,.442,1.324,8.8,8.8,0,0,1,.009,3.057,4.409,4.409,0,0,1-.427,1.281,3.176,3.176,0,0,1-2.525,1.756,5.478,5.478,0,0,1-.721.043c-1.371,0-2.742,0-4.113,0-.09,0-.18-.005-.271-.012a.165.165,0,0,1-.136-.156c-.005-.135-.009-.271-.009-.406Q-1534.829,733.663-1534.829,731.652Zm2.067-.011q0,1.287,0,2.575a2.6,2.6,0,0,0,.021.359.139.139,0,0,0,.091.084.934.934,0,0,0,.223.022q.994,0,1.988,0c.075,0,.151,0,.226-.008a1.45,1.45,0,0,0,1.1-.62,2.528,2.528,0,0,0,.238-.433,3.4,3.4,0,0,0,.255-1,9.489,9.489,0,0,0-.009-2.029,3.669,3.669,0,0,0-.172-.793,2.992,2.992,0,0,0-.175-.415,1.26,1.26,0,0,0-.9-.687,2.539,2.539,0,0,0-.537-.065q-1.039,0-2.078,0c-.03,0-.06,0-.09,0a.17.17,0,0,0-.178.163c0,.135-.006.271-.006.406Q-1532.762,730.421-1532.762,731.641Z" transform="translate(-2488.764 -735.191)" fill="#fff9ea"/><path d="M-1250.255,725.746c.249.013.6.032.941.047a4.7,4.7,0,0,1,.8.125,3.121,3.121,0,0,1,1.278.648,1.9,1.9,0,0,1,.477.6,5.19,5.19,0,0,1,.554,1.664,10.811,10.811,0,0,1,.055,2.48,6.689,6.689,0,0,1-.213,1.337c-.041.145-.076.292-.128.433a2.637,2.637,0,0,1-1.962,1.76,6.36,6.36,0,0,1-1.206.174,14.788,14.788,0,0,1-2.347-.063,3.591,3.591,0,0,1-1.433-.517,1.84,1.84,0,0,1-.52-.5,3.647,3.647,0,0,1-.652-1.523,10.713,10.713,0,0,1-.152-1.437,9.8,9.8,0,0,1,.151-2.385,7.21,7.21,0,0,1,.2-.787,2.761,2.761,0,0,1,.872-1.294,2.646,2.646,0,0,1,1.034-.535,7.319,7.319,0,0,1,1.743-.224C-1250.624,725.742-1250.488,725.746-1250.255,725.746Zm2.087,4.577c-.011-.316-.015-.648-.035-.978a3.008,3.008,0,0,0-.379-1.334,1.02,1.02,0,0,0-.611-.5,2.989,2.989,0,0,0-.35-.087,6.123,6.123,0,0,0-1.888.009,1.2,1.2,0,0,0-.875.574,1.524,1.524,0,0,0-.217.493c-.04.176-.069.354-.1.533a12.037,12.037,0,0,0-.081,1.983,6.942,6.942,0,0,0,.09.943,2.673,2.673,0,0,0,.181.651,1.03,1.03,0,0,0,.553.568,2.563,2.563,0,0,0,.428.139,4.958,4.958,0,0,0,1.617.064,2.41,2.41,0,0,0,.742-.187,1.055,1.055,0,0,0,.549-.513,3.056,3.056,0,0,0,.181-.461,4.344,4.344,0,0,0,.168-1.022C-1248.18,730.91-1248.176,730.624-1248.169,730.323Z" transform="translate(-2755.623 -733.919)" fill="#fff9ea"/><path d="M-1734.1,730.174c0,.723,0,1.446,0,2.169a7.327,7.327,0,0,1-.109,1.349,3.46,3.46,0,0,1-.729,1.63,2.3,2.3,0,0,1-.816.626,3.806,3.806,0,0,1-1.4.336,20.542,20.542,0,0,1-2.258,0c-.284-.017-.566-.077-.849-.119a1.341,1.341,0,0,1-.175-.044,2.594,2.594,0,0,1-1.449-1.281,5.32,5.32,0,0,1-.372-1.438,9.554,9.554,0,0,1-.076-1.217q0-2.3,0-4.608c0-.12.008-.24.014-.36a.147.147,0,0,1,.116-.12.4.4,0,0,1,.043-.008h1.717a.189.189,0,0,1,.087.02c.025.014.057.04.06.063.013.134.025.269.025.4q0,2.259,0,4.518a7.261,7.261,0,0,0,.083,1.26,2.917,2.917,0,0,0,.14.522,1.091,1.091,0,0,0,.6.638,1.662,1.662,0,0,0,.608.157c.346.013.692.015,1.039.015a1.982,1.982,0,0,0,.532-.094,1.2,1.2,0,0,0,.777-.641,2.772,2.772,0,0,0,.277-1.041c.02-.24.025-.481.025-.722q0-2.259,0-4.518c0-.15.007-.3.013-.451a.141.141,0,0,1,.114-.121c.06-.006.119-.014.179-.014q.746,0,1.491,0a.653.653,0,0,1,.179.019.109.109,0,0,1,.084.094c.007.12.018.24.018.359q0,1.31,0,2.62Z" transform="translate(-2291.04 -735.191)" fill="#fff9ea"/><path d="M-1040.1,726.891h-1.708a2.482,2.482,0,0,0-.671.075,1.772,1.772,0,0,0-.253.094.409.409,0,0,0-.186.191.794.794,0,0,0-.064.168,3.486,3.486,0,0,0,0,1.166.569.569,0,0,0,.453.452,3.253,3.253,0,0,0,.762.08q.723,0,1.446,0c.211,0,.421.012.632.023a2.367,2.367,0,0,1,.786.193,1.878,1.878,0,0,1,1,.937,2.6,2.6,0,0,1,.278,1.086c.008.346,0,.693,0,1.039a2.443,2.443,0,0,1-.127.709,1.861,1.861,0,0,1-1,1.163,3.29,3.29,0,0,1-1.082.3,8.267,8.267,0,0,1-1.218.048c-.512-.02-1.024-.029-1.535-.062a12.393,12.393,0,0,1-1.924-.258.982.982,0,0,1-.13-.037.146.146,0,0,1-.105-.133c0-.376,0-.752,0-1.128a.132.132,0,0,1,.119-.115c.06,0,.12,0,.18,0a31.456,31.456,0,0,0,3.431.113,4.606,4.606,0,0,0,.585-.045,1.477,1.477,0,0,0,.387-.117.551.551,0,0,0,.348-.49,6.267,6.267,0,0,0-.009-.857.636.636,0,0,0-.5-.576,1.737,1.737,0,0,0-.492-.054c-.558,0-1.115,0-1.672,0a3.906,3.906,0,0,1-.941-.1,3.517,3.517,0,0,1-.515-.165,1.88,1.88,0,0,1-1.146-1.308,1.992,1.992,0,0,1-.06-.264,7.572,7.572,0,0,1,0-1.937,2.322,2.322,0,0,1,.147-.519,1.635,1.635,0,0,1,.764-.86,3.309,3.309,0,0,1,1.155-.368,10.136,10.136,0,0,1,1.984-.049c.586.033,1.173.064,1.756.144.268.037.537.072.8.114a2.333,2.333,0,0,1,.306.078.138.138,0,0,1,.106.131c0,.376,0,.752,0,1.128,0,.04-.086.108-.131.107-.105,0-.211,0-.316-.01Z" transform="translate(-2955.417 -733.462)" fill="#fff9ea"/><path d="M-2100.727,726.885c-.6,0-1.169,0-1.742,0a2.692,2.692,0,0,0-.715.092.559.559,0,0,0-.438.465,3.151,3.151,0,0,0-.006,1.079.577.577,0,0,0,.536.527,3.555,3.555,0,0,0,.673.064c.482,0,.964,0,1.445,0,.211,0,.422.012.633.022a2.409,2.409,0,0,1,.787.188,1.869,1.869,0,0,1,.985.89,2.363,2.363,0,0,1,.293,1.035c.011.406,0,.813,0,1.219a2.138,2.138,0,0,1-.114.62,1.871,1.871,0,0,1-1.036,1.189,3.313,3.313,0,0,1-1.041.289,8.865,8.865,0,0,1-1.308.048c-.482-.019-.965-.028-1.445-.06a12.373,12.373,0,0,1-1.924-.257.6.6,0,0,1-.17-.056.251.251,0,0,1-.077-.1.208.208,0,0,1-.013-.088c0-.331,0-.663,0-.994,0-.125.074-.184.207-.177l.09.006a31.283,31.283,0,0,0,3.386.115,5.549,5.549,0,0,0,.63-.044,1.52,1.52,0,0,0,.388-.114.567.567,0,0,0,.359-.483,3.764,3.764,0,0,0,0-.857.646.646,0,0,0-.536-.594,2.168,2.168,0,0,0-.447-.047c-.557-.006-1.114,0-1.672,0a4.119,4.119,0,0,1-.942-.1,3.221,3.221,0,0,1-.391-.11,1.981,1.981,0,0,1-1.35-1.662,1.393,1.393,0,0,1-.021-.225c0-.482-.006-.964,0-1.445a2.018,2.018,0,0,1,.169-.745,1.7,1.7,0,0,1,.762-.864,3.267,3.267,0,0,1,1.154-.372,10.024,10.024,0,0,1,1.984-.051c.6.034,1.2.066,1.8.148a8.4,8.4,0,0,1,1.023.172c.116.031.165.078.166.181,0,.361,0,.722-.006,1.084a.128.128,0,0,1-.119.114c-.1,0-.21,0-.315,0C-2099.638,726.946-2100.195,726.915-2100.727,726.885Z" transform="translate(-1944.787 -733.455)" fill="#fff9ea"/><path d="M-1932.87,727.07h3.39c.136,0,.271,0,.407,0,.109,0,.179.063.179.16q0,.655,0,1.31a.153.153,0,0,1-.151.138c-.121,0-.241.006-.362.006-.663,0-1.326,0-1.988,0a3.032,3.032,0,0,0-.36.018.157.157,0,0,0-.092.083.329.329,0,0,0-.021.132c0,.135,0,.271,0,.407q0,3.164,0,6.328c0,.15-.008.3-.014.451a.179.179,0,0,1-.123.117,1.787,1.787,0,0,1-.18.014q-.723,0-1.446,0a1.467,1.467,0,0,1-.179-.019.149.149,0,0,1-.112-.124c0-.045-.01-.09-.01-.135,0-.135,0-.271,0-.407q0-3.141,0-6.282c0-.15-.007-.3-.013-.451a.137.137,0,0,0-.115-.118c-.12-.006-.24-.014-.36-.014h-1.9c-.121,0-.241,0-.361-.007a.148.148,0,0,1-.151-.136c0-.045-.009-.09-.009-.135q0-.542,0-1.085a1.14,1.14,0,0,1,.015-.134.143.143,0,0,1,.124-.109c.135,0,.271-.011.406-.011Z" transform="translate(-2105.683 -735.183)" fill="#fff9ea"/><path d="M-1327.83,731.728q0-2.057,0-4.114a3.308,3.308,0,0,1,.024-.359c0-.023.036-.049.061-.062a.189.189,0,0,1,.087-.02h1.718a.4.4,0,0,1,.045.008.143.143,0,0,1,.118.116c.006.135.014.271.014.406q0,3.413,0,6.826c0,.5,0,.995,0,1.492a1.1,1.1,0,0,1-.027.221c-.005.024-.036.047-.06.062a.18.18,0,0,1-.085.025q-.859,0-1.718,0a.3.3,0,0,1-.044-.008.156.156,0,0,1-.12-.118c-.006-.135-.012-.271-.012-.406Q-1327.831,733.763-1327.83,731.728Z" transform="translate(-2686.01 -735.279)" fill="#fff9ea"/></g></svg>