<svg xmlns="http://www.w3.org/2000/svg" width="151.258" height="16.941" viewBox="0 0 151.258 16.941"><g transform="translate(-200.132 -231.576)"><path d="M207.086,243.354h-2.468v5.571h-4.486V232.881h6.5a5.273,5.273,0,0,1,5.383,5.236,5.157,5.157,0,0,1-4.935,5.237m-1.57-6.908h-.9v3.342h.9c1.346,0,2.019-.668,2.019-1.671s-.673-1.671-2.019-1.671" transform="translate(0 -0.857)" fill="#fff9ea"/><path d="M250.29,248.925l-.763-2.451h-4.755l-.763,2.451H239.3l5.608-16.044h4.486L255,248.925Zm-3.118-10.473h-.045l-1.3,4.457h2.647Z" transform="translate(-25.71 -0.857)" fill="#fff9ea"/><path d="M304.822,248.925l-3.544-6.017h-.045v6.017h-4.486V232.881h6.28c3.141,0,5.608,2.006,5.608,5.125a4.234,4.234,0,0,1-2.916,4.234l4.262,6.685Zm-2.692-12.478h-.9v3.12h.9c1.189,0,2.019-.446,2.019-1.56s-.808-1.559-2.019-1.559" transform="translate(-63.534 -0.857)" fill="#fff9ea"/><path d="M354.087,248.925l-.763-2.451h-4.755l-.763,2.451H343.1l5.608-16.044h4.486l5.608,16.044Zm-3.118-10.473h-.045l-1.3,4.457h2.647Z" transform="translate(-94.016 -0.857)" fill="#fff9ea"/><path d="M404.049,248.517a8.118,8.118,0,0,1-8.075-8.448,8.228,8.228,0,0,1,8.523-8.492,7.549,7.549,0,0,1,6.281,2.675l-2.691,3.121c-1.346-1.337-2.288-1.783-3.589-1.783a4.127,4.127,0,0,0-4.037,4.458c0,2.43,1.5,4.458,4.037,4.458a3.833,3.833,0,0,0,3.14-1.337V241.83H404.5l.449-3.567h7.178v5.8c-1.795,2.675-3.813,4.458-8.075,4.458" transform="translate(-128.791 0)" fill="#fff9ea"/><path d="M463.78,248.925l-3.544-6.017h-.045v6.017H455.7V232.881h6.28c3.141,0,5.608,2.006,5.608,5.125a4.234,4.234,0,0,1-2.916,4.234l4.262,6.685Zm-2.692-12.478h-.9v3.12h.9c1.189,0,2.019-.446,2.019-1.56s-.808-1.559-2.019-1.559" transform="translate(-168.064 -0.857)" fill="#fff9ea"/><path d="M511.738,248.925l-.763-2.451H506.22l-.763,2.451h-4.711l5.608-16.044h4.487l5.607,16.044Zm-3.118-10.473h-.045l-1.3,4.457h2.647Z" transform="translate(-197.691 -0.857)" fill="#fff9ea"/><path d="M563.843,243.354h-2.468v5.571h-4.486V232.881h6.505a5.273,5.273,0,0,1,5.384,5.236,5.157,5.157,0,0,1-4.935,5.237m-1.57-6.908h-.9v3.342h.9c1.346,0,2.019-.668,2.019-1.671s-.673-1.671-2.019-1.671" transform="translate(-234.659 -0.857)" fill="#fff9ea"/><path d="M610.7,248.925v-6.239h-4.935v6.239H601.28V232.881h4.486v5.794H610.7v-5.794h4.487v16.044Z" transform="translate(-263.798 -0.857)" fill="#fff9ea"/></g></svg>