<svg xmlns="http://www.w3.org/2000/svg" width="168" height="81.778" viewBox="0 0 168 81.778"><g transform="translate(11041 -524.222)"><g transform="translate(-11033.7 509.953)"><path d="M35.22,31.666A15.047,15.047,0,0,0,20.115,46.62l-.16,31.564a1.5,1.5,0,0,0,3.007.017h0l.16-31.564a12.023,12.023,0,1,1,4.33,9.3,1.5,1.5,0,1,0-1.928,2.306,15.03,15.03,0,1,0,9.7-26.578Z" transform="translate(0 -0.961)" fill="#fff9ea"/><path d="M56.783,14.269a1.5,1.5,0,0,0-1.512,1.5l-.219,43.588a1.5,1.5,0,0,0,1.493,1.512h0a1.5,1.5,0,0,0,1.512-1.495h0l.219-43.589a1.5,1.5,0,0,0-1.495-1.511Z" transform="translate(-1.94)" fill="#fff9ea"/><path d="M123.365,32.11a15.046,15.046,0,0,0-15.106,14.954l-.068,13.528a1.5,1.5,0,0,0,1.495,1.512h0a1.5,1.5,0,0,0,1.512-1.495h0l.068-13.528a12.025,12.025,0,0,1,24.049.121l-.068,13.528a1.5,1.5,0,0,0,1.493,1.512h0a1.5,1.5,0,0,0,1.512-1.495v0l.068-13.527A15.048,15.048,0,0,0,123.365,32.11Z" transform="translate(-4.877 -0.986)" fill="#fff9ea"/><path d="M101.339,54.946,85.855,27.813a4.46,4.46,0,0,0-3.893-2.274h0a4.461,4.461,0,0,0-3.916,2.234L71.607,38.8,62.29,54.749a4.561,4.561,0,0,0-.464,1.1c-.013.045-.023.094-.033.138s-.026.094-.035.147a4.516,4.516,0,0,0,4.4,5.4l14.242.073h.009L97.4,61.69a4.524,4.524,0,0,0,4.532-4.759A4.529,4.529,0,0,0,101.339,54.946Zm-19.393-26.4a1.474,1.474,0,0,1,1.3.756l6.119,10.722a1.8,1.8,0,0,1-.01,1.795L85.7,48.079a1.221,1.221,0,0,1-2.114-.011L77.221,36.92a1.8,1.8,0,0,1,.009-1.795l3.411-5.839a1.444,1.444,0,0,1,1.047-.724A1.467,1.467,0,0,1,81.946,28.545Z" transform="translate(-2.305 -0.623)" fill="#fff9ea"/></g><text transform="translate(-10957 603)" fill="#fff9ea" font-size="12" font-family="ArialMT, Arial"><tspan x="-83.678" y="0">Поиск эффективных решений</tspan></text></g></svg>