<svg xmlns="http://www.w3.org/2000/svg" width="800.895" height="411.485" viewBox="0 0 800.895 411.485"><g transform="translate(-64 -4268)"><rect width="151" height="319" transform="translate(109 4268)" fill="#e3ded5" opacity="0.5"/><rect width="456" height="319" transform="translate(408 4268)" fill="#ffbe28" opacity="0.102"/><path d="M108.23,0H124.1l3.2,9.91-3.2,10.06H108.23l-3.015-9.636Z" transform="translate(392.393 4659.516)" fill="#242549"/><path d="M4.04-14H.8V0H3V-5.26H4.04c2.2,0,3.28-1.22,3.28-3.46v-1.82C7.32-12.78,6.24-14,4.04-14Zm0,2c.7,0,1.08.32,1.08,1.32v2.1c0,1-.38,1.32-1.08,1.32H3V-12Zm6.5,0h3.8v-2h-6V0h6V-2h-3.8V-6.1h3.02v-2H10.54ZM20.72,0h2.26L19.92-7.76,22.98-14h-2.2L17.9-7.9V-14H15.7V0h2.2V-4.3l.68-1.28Zm2.64.02h.34c2.2,0,3.12-1,3.2-3.56L27.14-12h1.92V0H31.3V-14H25.08L24.72-3.42c-.04,1.3-.36,1.44-1.36,1.44ZM37.86-14H34.64L32.4,0h2.02l.38-2.54h2.7L37.88,0H40.1Zm-1.72,2.48L37.2-4.44H35.08ZM44.16-14H41.1V0h1.92V-9.9L44.66,0h2.08l1.52-10.04V0h2.08V-14H47.28l-1.5,9.94Zm9.98,8h2.5V0h2.24V-14H56.64v6h-2.5v-6h-2.2V0h2.2Zm9.58,6C65.92,0,67-1.22,67-3.46V-5.28c0-2.24-1.08-3.46-3.28-3.46H62.68V-14h-2.2V0ZM62.68-2V-6.74h1.04c.7,0,1.08.32,1.08,1.32v2.1c0,1-.38,1.32-1.08,1.32Zm7.78,2V-14h-2.2V0Zm3.86,0H72.06V-14h1.96v8.86l.8-3.08L76.62-14h2.42V0H77.06V-9.86l-.9,3.44Zm3.6-17.12a2.067,2.067,0,0,1-2.34,2.22,2.064,2.064,0,0,1-2.3-2.22h1.36c.06.74.36.92.94.92.6,0,.94-.18,1-.92ZM87.24,0c2.2,0,3.32-1.22,3.32-3.46v-1.5c0-2.24-1.12-3.46-3.32-3.46H85.96V-12h3.96v-2H83.76V0ZM85.96-2V-6.42h1.28c.7,0,1.12.32,1.12,1.32v1.78c0,1-.42,1.32-1.12,1.32Zm9.92-1.36c0,2.24,1.18,3.52,3.34,3.52s3.34-1.28,3.34-3.52v-7.28c0-2.24-1.18-3.52-3.34-3.52s-3.34,1.28-3.34,3.52V-8H94.24v-6h-2.2V0h2.2V-6h1.64Zm2.2-7.42c0-1,.44-1.38,1.14-1.38s1.14.38,1.14,1.38v7.56c0,1-.44,1.38-1.14,1.38s-1.14-.38-1.14-1.38ZM112.56,1.88V-1.96h-.96V-14h-6.16l-.5,10.22a2.9,2.9,0,0,1-.54,1.82h-.86V1.88h2.14V0h4.7V1.88ZM107.5-12h1.86V-1.96h-2.88a2.48,2.48,0,0,0,.62-1.86Zm12.62-2h-2.18v5.66L115.34-14h-2.2l2.72,5.74L113.14,0h2.26l2-6.22.54,1.08V0h2.18V-5.14l.54-1.06,2,6.2h2.26l-2.7-8.32,2.7-5.68h-2.2l-2.6,5.66Zm7.94,2h3.8v-2h-6V0h6V-2h-3.8V-6.1h3.02v-2h-3.02Zm4.52,0h2.3V0h2.2V-12h2.3v-2h-6.8Z" transform="translate(164 4677.249)" fill="#242549"/><path d="M4.12-14H.8V0H4.26C6.46,0,7.6-1.16,7.6-3.32V-4.46c0-1.48-.46-2.54-1.64-3,.98-.46,1.42-1.38,1.42-2.82v-.5C7.38-12.94,6.4-14,4.12-14ZM3.98-6.3c1,0,1.42.4,1.42,1.7v1.22C5.4-2.34,5-2,4.26-2H3V-6.3ZM4.06-12c.78,0,1.12.44,1.12,1.44v.78c0,1.12-.5,1.48-1.32,1.48H3V-12Zm6.88,1.22c0-1,.44-1.38,1.14-1.38s1.14.38,1.14,1.38v7.56c0,1-.44,1.38-1.14,1.38s-1.14-.38-1.14-1.38ZM8.74-3.36C8.74-1.12,9.92.16,12.08.16s3.34-1.28,3.34-3.52v-7.28c0-2.24-1.18-3.52-3.34-3.52s-3.34,1.28-3.34,3.52ZM21.08-9.78c0,1.12-.5,1.48-1.32,1.48H19.1v2h.54c1,0,1.44.48,1.44,1.78v1.1c0,1.24-.44,1.58-1.14,1.58S18.8-2.22,18.8-3.22V-4.9H16.72v1.54C16.72-1.12,17.84.16,20,.16s3.28-1.28,3.28-3.52v-1.1c0-1.42-.44-2.46-1.54-2.94,1.06-.44,1.54-1.38,1.54-2.88v-.36c0-2.24-1.12-3.52-3.28-3.52s-3.24,1.24-3.24,3.48v1.04h2.02v-1.14c0-1,.46-1.38,1.16-1.38s1.14.34,1.14,1.6Zm7-4.22H24.76V0h3.46c2.2,0,3.34-1.16,3.34-3.32V-4.46c0-1.48-.46-2.54-1.64-3,.98-.46,1.42-1.38,1.42-2.82v-.5C31.34-12.94,30.36-14,28.08-14Zm-.14,7.7c1,0,1.42.4,1.42,1.7v1.22c0,1.04-.4,1.38-1.14,1.38H26.96V-6.3Zm.08-5.7c.78,0,1.12.44,1.12,1.44v.78c0,1.12-.5,1.48-1.32,1.48h-.86V-12Zm8.1-2H32.88V0h2.2V-5.26h1.04c2.2,0,3.28-1.22,3.28-3.46v-1.82C39.4-12.78,38.32-14,36.12-14Zm0,2c.7,0,1.08.32,1.08,1.32v2.1c0,1-.38,1.32-1.08,1.32H35.08V-12Zm9.18-2H42.08L39.84,0h2.02l.38-2.54h2.7L45.32,0h2.22Zm-1.72,2.48,1.06,7.08H42.52ZM47.92-12h2.3V0h2.2V-12h2.3v-2h-6.8ZM62.88-6.42l.9-3.44V0h1.98V-14H63.34l-1.8,5.78-.8,3.08V-14H58.78V0h2.26ZM69.52-6h2.5V0h2.24V-14H72.02v6h-2.5v-6h-2.2V0h2.2Zm9.66-8H75.86V0h3.46c2.2,0,3.34-1.16,3.34-3.32V-4.46c0-1.48-.46-2.54-1.64-3,.98-.46,1.42-1.38,1.42-2.82v-.5C82.44-12.94,81.46-14,79.18-14Zm-.14,7.7c1,0,1.42.4,1.42,1.7v1.22c0,1.04-.4,1.38-1.14,1.38H78.06V-6.3Zm.08-5.7c.78,0,1.12.44,1.12,1.44v.78c0,1.12-.5,1.48-1.32,1.48h-.86V-12Zm7.06,0h3.8v-2h-6V0h6V-2h-3.8V-6.1H89.2v-2H86.18Zm9.46,6.78v2c0,1-.44,1.36-1.14,1.36s-1.14-.36-1.14-1.36v-7.56c0-1,.44-1.38,1.14-1.38s1.14.38,1.14,1.38v1.5h2.08v-1.36c0-2.24-1.12-3.52-3.28-3.52s-3.28,1.28-3.28,3.52v7.28c0,2.24,1.12,3.52,3.28,3.52s3.28-1.28,3.28-3.52V-5.22ZM98.42-12h2.3V0h2.2V-12h2.3v-2h-6.8Zm11.86,5.58.9-3.44V0h1.98V-14h-2.42l-1.8,5.78-.8,3.08V-14h-1.96V0h2.26ZM114.3,0h5.76V1.88h2.14V-1.96h-.96V-14H119V-2h-2.5V-14h-2.2V0Zm13.2-6.42.9-3.44V0h1.98V-14h-2.42l-1.8,5.78-.8,3.08V-14H123.4V0h2.26ZM134.2,0h-2.26V-14h1.96v8.86l.8-3.08L136.5-14h2.42V0h-1.98V-9.86l-.9,3.44Zm3.6-17.12a2.067,2.067,0,0,1-2.34,2.22,2.064,2.064,0,0,1-2.3-2.22h1.36c.06.74.36.92.94.92.6,0,.94-.18,1-.92Z" transform="translate(341 4677.249)" fill="#242549"/><rect width="13" height="13" transform="translate(144 4663)" fill="#c2b7f5"/><rect width="13" height="13" transform="translate(321 4663)" fill="#ff9169"/><path d="M2.08-11.96c0-.62.26-.88.72-.88.44,0,.72.26.72.88v4.8c0,.62-.28.88-.72.88-.46,0-.72-.26-.72-.88ZM.68-7.26A1.965,1.965,0,0,0,2.8-5.02,1.965,1.965,0,0,0,4.92-7.26v-4.6A1.965,1.965,0,0,0,2.8-14.1,1.965,1.965,0,0,0,.68-11.86ZM2.8,0H4.1L9.62-14H8.32ZM9.02-6.84c0-.62.26-.88.72-.88.44,0,.72.26.72.88v4.8c0,.62-.28.88-.72.88-.46,0-.72-.26-.72-.88Zm-1.4,4.7A1.965,1.965,0,0,0,9.74.1a1.965,1.965,0,0,0,2.12-2.24v-4.6A1.965,1.965,0,0,0,9.74-8.98,1.965,1.965,0,0,0,7.62-6.74ZM19.76-14H16.44V0H19.9c2.2,0,3.34-1.16,3.34-3.32V-4.46c0-1.48-.46-2.54-1.64-3,.98-.46,1.42-1.38,1.42-2.82v-.5C23.02-12.94,22.04-14,19.76-14Zm-.14,7.7c1,0,1.42.4,1.42,1.7v1.22c0,1.04-.4,1.38-1.14,1.38H18.64V-6.3ZM19.7-12c.78,0,1.12.44,1.12,1.44v.78c0,1.12-.5,1.48-1.32,1.48h-.86V-12Zm6.88,1.22c0-1,.44-1.38,1.14-1.38s1.14.38,1.14,1.38v7.56c0,1-.44,1.38-1.14,1.38s-1.14-.38-1.14-1.38Zm-2.2,7.42c0,2.24,1.18,3.52,3.34,3.52s3.34-1.28,3.34-3.52v-7.28c0-2.24-1.18-3.52-3.34-3.52s-3.34,1.28-3.34,3.52ZM36.72-9.78c0,1.12-.5,1.48-1.32,1.48h-.66v2h.54c1,0,1.44.48,1.44,1.78v1.1c0,1.24-.44,1.58-1.14,1.58s-1.14-.38-1.14-1.38V-4.9H32.36v1.54c0,2.24,1.12,3.52,3.28,3.52s3.28-1.28,3.28-3.52v-1.1c0-1.42-.44-2.46-1.54-2.94,1.06-.44,1.54-1.38,1.54-2.88v-.36c0-2.24-1.12-3.52-3.28-3.52s-3.24,1.24-3.24,3.48v1.04h2.02v-1.14c0-1,.46-1.38,1.16-1.38s1.14.34,1.14,1.6Zm7-4.22H40.4V0h3.46c2.2,0,3.34-1.16,3.34-3.32V-4.46c0-1.48-.46-2.54-1.64-3,.98-.46,1.42-1.38,1.42-2.82v-.5C46.98-12.94,46-14,43.72-14Zm-.14,7.7c1,0,1.42.4,1.42,1.7v1.22C45-2.34,44.6-2,43.86-2H42.6V-6.3Zm.08-5.7c.78,0,1.12.44,1.12,1.44v.78c0,1.12-.5,1.48-1.32,1.48H42.6V-12Zm8.1-2H48.52V0h2.2V-5.26h1.04c2.2,0,3.28-1.22,3.28-3.46v-1.82C55.04-12.78,53.96-14,51.76-14Zm0,2c.7,0,1.08.32,1.08,1.32v2.1c0,1-.38,1.32-1.08,1.32H50.72V-12Zm9.18-2H57.72L55.48,0H57.5l.38-2.54h2.7L60.96,0h2.22Zm-1.72,2.48,1.06,7.08H58.16ZM63.56-12h2.3V0h2.2V-12h2.3v-2h-6.8ZM76.2-14H72.98L70.74,0h2.02l.38-2.54h2.7L76.22,0h2.22Zm-1.72,2.48,1.06,7.08H73.42Zm12.18,5.1.9-3.44V0h1.98V-14H87.12l-1.8,5.78-.8,3.08V-14H82.56V0h2.26ZM93.3-6h2.5V0h2.24V-14H95.8v6H93.3v-6H91.1V0h2.2Zm9.66-8H99.64V0h3.46c2.2,0,3.34-1.16,3.34-3.32V-4.46c0-1.48-.46-2.54-1.64-3,.98-.46,1.42-1.38,1.42-2.82v-.5C106.22-12.94,105.24-14,102.96-14Zm-.14,7.7c1,0,1.42.4,1.42,1.7v1.22c0,1.04-.4,1.38-1.14,1.38h-1.26V-6.3Zm.08-5.7c.78,0,1.12.44,1.12,1.44v.78c0,1.12-.5,1.48-1.32,1.48h-.86V-12Zm7.06,0h3.8v-2h-6V0h6V-2h-3.8V-6.1h3.02v-2h-3.02Zm9.46,6.78v2c0,1-.44,1.36-1.14,1.36s-1.14-.36-1.14-1.36v-7.56c0-1,.44-1.38,1.14-1.38s1.14.38,1.14,1.38v1.5h2.08v-1.36c0-2.24-1.12-3.52-3.28-3.52s-3.28,1.28-3.28,3.52v7.28c0,2.24,1.12,3.52,3.28,3.52s3.28-1.28,3.28-3.52V-5.22ZM122.2-12h2.3V0h2.2V-12H129v-2h-6.8Zm11.86,5.58.9-3.44V0h1.98V-14h-2.42l-1.8,5.78-.8,3.08V-14h-1.96V0h2.26ZM138.5,0h5.76V1.88h2.14V-1.96h-.96V-14H143.2V-2h-2.5V-14h-2.2Zm13.2-6.42.9-3.44V0h1.98V-14h-2.42l-1.8,5.78-.8,3.08V-14H147.6V0h2.26ZM158.4,0h-2.26V-14h1.96v8.86l.8-3.08L160.7-14h2.42V0h-1.98V-9.86l-.9,3.44ZM162-17.12a2.067,2.067,0,0,1-2.34,2.22,2.064,2.064,0,0,1-2.3-2.22h1.36c.06.74.36.92.94.92.6,0,.94-.18,1-.92ZM170.02-6h2.5V0h2.24V-14h-2.24v6h-2.5v-6h-2.2V0h2.2Zm11.22-8h-3.22L175.78,0h2.02l.38-2.54h2.7L181.26,0h2.22Zm-1.72,2.48,1.06,7.08h-2.12Zm6.34.84h1.7V0h2.2V-14h-1.48a2.179,2.179,0,0,1-2.42,1.76Zm8.58-.1c0-1,.44-1.38,1.14-1.38s1.14.38,1.14,1.38v7.56c0,1-.44,1.38-1.14,1.38s-1.14-.38-1.14-1.38Zm-2.2,7.42c0,2.24,1.18,3.52,3.34,3.52s3.34-1.28,3.34-3.52v-7.28c0-2.24-1.18-3.52-3.34-3.52s-3.34,1.28-3.34,3.52Zm10.12-7.42c0-1,.44-1.38,1.14-1.38s1.14.38,1.14,1.38v7.56c0,1-.44,1.38-1.14,1.38s-1.14-.38-1.14-1.38Zm-2.2,7.42c0,2.24,1.18,3.52,3.34,3.52s3.34-1.28,3.34-3.52v-7.28c0-2.24-1.18-3.52-3.34-3.52s-3.34,1.28-3.34,3.52ZM210.72-12h2.3V0h2.2V-12h2.3v-2h-6.8Zm11,12c2.2,0,3.28-1.22,3.28-3.46V-5.28c0-2.24-1.08-3.46-3.28-3.46h-1.04V-14h-2.2V0Zm-1.04-2V-6.74h1.04c.7,0,1.08.32,1.08,1.32v2.1c0,1-.38,1.32-1.08,1.32Zm7.78,2V-14h-2.2V0Zm5.9-5.22v2c0,1-.44,1.36-1.14,1.36s-1.14-.36-1.14-1.36v-7.56c0-1,.44-1.38,1.14-1.38s1.14.38,1.14,1.38v1.5h2.08v-1.36c0-2.24-1.12-3.52-3.28-3.52s-3.28,1.28-3.28,3.52v7.28c0,2.24,1.12,3.52,3.28,3.52s3.28-1.28,3.28-3.52V-5.22Zm3.42,3.1V0h2.12V-2.12Zm11.06-7.66c0,1.12-.5,1.48-1.32,1.48h-.66v2h.54c1,0,1.44.48,1.44,1.78v1.1c0,1.24-.44,1.58-1.14,1.58s-1.14-.38-1.14-1.38V-4.9h-2.08v1.54c0,2.24,1.12,3.52,3.28,3.52s3.28-1.28,3.28-3.52v-1.1c0-1.42-.44-2.46-1.54-2.94,1.06-.44,1.54-1.38,1.54-2.88v-.36c0-2.24-1.12-3.52-3.28-3.52s-3.24,1.24-3.24,3.48v1.04h2.02v-1.14c0-1,.46-1.38,1.16-1.38s1.14.34,1.14,1.6ZM255.76-14h-3.24V0h2.2V-5.26h1.04c2.2,0,3.28-1.22,3.28-3.46v-1.82C259.04-12.78,257.96-14,255.76-14Zm0,2c.7,0,1.08.32,1.08,1.32v2.1c0,1-.38,1.32-1.08,1.32h-1.04V-12Zm8.4,5.58.9-3.44V0h1.98V-14h-2.42l-1.8,5.78-.8,3.08V-14h-1.96V0h2.26Zm3.8-5.58h2.3V0h2.2V-12h2.3v-2h-6.8Zm9.96,0h3.8v-2h-6V0h6V-2h-3.8V-6.1h3.02v-2h-3.02ZM282.46.02h.34c2.2,0,3.12-1,3.2-3.56l.24-8.46h1.92V0h2.24V-14h-6.22l-.36,10.58c-.04,1.3-.36,1.44-1.36,1.44ZM294.28-12h3.8v-2h-6V0h6V-2h-3.8V-6.1h3.02v-2h-3.02ZM301.7,0h-2.26V-14h1.96v8.86l.8-3.08L304-14h2.42V0h-1.98V-9.86l-.9,3.44Zm3.6-17.12a2.067,2.067,0,0,1-2.34,2.22,2.064,2.064,0,0,1-2.3-2.22h1.36c.06.74.36.92.94.92.6,0,.94-.18,1-.92Z" transform="translate(527.159 4676.516)" fill="#242549"/><g transform="translate(3848.725 2838)"><line y2="320" transform="translate(-3664.75 1430)" fill="none" stroke="#e3ded5" stroke-linejoin="bevel" stroke-width="2"/><line y2="365" transform="translate(-3589.75 1430)" fill="none" stroke="#e3ded5" stroke-linejoin="bevel" stroke-width="2"/><line y2="320" transform="translate(-3514.75 1430)" fill="none" stroke="#e3ded5" stroke-linejoin="bevel" stroke-width="2"/><line y2="365" transform="translate(-3439.75 1430)" fill="none" stroke="#e3ded5" stroke-linejoin="bevel" stroke-width="2"/><line y2="320" transform="translate(-3364.75 1430)" fill="none" stroke="#e3ded5" stroke-linejoin="bevel" stroke-width="2"/><line y2="320" transform="translate(-3287.75 1430)" fill="none" stroke="#e3ded5" stroke-linejoin="bevel" stroke-width="2"/><path d="M0,30V353.971" transform="translate(-3292.25 1400)" fill="none" stroke="#e3ded5" stroke-width="2"/><line y2="320" transform="translate(-3214.75 1430)" fill="none" stroke="#e3ded5" stroke-linejoin="bevel" stroke-width="2"/><line y2="320" transform="translate(-3139.75 1430)" fill="none" stroke="#e3ded5" stroke-linejoin="bevel" stroke-width="2"/><line y2="320" transform="translate(-3064.75 1430)" fill="none" stroke="#e3ded5" stroke-linejoin="bevel" stroke-width="2"/><path d="M799.725.07H0" transform="translate(-3784.725 1650.93)" fill="none" stroke="#e3ded5" stroke-width="22"/><path d="M654.778,0H45" transform="translate(-3784.725 1651)" fill="none" stroke="#292b45" stroke-width="2" opacity="0.325"/><g style="isolation:isolate"><path d="M2.82-10.78c0-1,.44-1.38,1.14-1.38s1.14.38,1.14,1.38v7.56c0,1-.44,1.38-1.14,1.38S2.82-2.22,2.82-3.22ZM.62-3.36C.62-1.12,1.8.16,3.96.16S7.3-1.12,7.3-3.36v-7.28c0-2.24-1.18-3.52-3.34-3.52S.62-12.88.62-10.64ZM10-11.96c0-.62.26-.88.72-.88.44,0,.72.26.72.88v4.8c0,.62-.28.88-.72.88-.46,0-.72-.26-.72-.88ZM8.6-7.26a1.965,1.965,0,0,0,2.12,2.24,1.965,1.965,0,0,0,2.12-2.24v-4.6a1.965,1.965,0,0,0-2.12-2.24A1.965,1.965,0,0,0,8.6-11.86ZM10.72,0h1.3l5.52-14h-1.3Zm6.22-6.84c0-.62.26-.88.72-.88.44,0,.72.26.72.88v4.8c0,.62-.28.88-.72.88-.46,0-.72-.26-.72-.88Zm-1.4,4.7A1.965,1.965,0,0,0,17.66.1a1.965,1.965,0,0,0,2.12-2.24v-4.6a1.965,1.965,0,0,0-2.12-2.24,1.965,1.965,0,0,0-2.12,2.24Z" transform="translate(-3775 1755.665)" fill="#242549"/></g><g style="isolation:isolate"><path d="M.7-4.52v1.16C.7-1.12,1.82.16,3.98.16S7.26-1.12,7.26-3.36V-6.48c0-2.06-.82-3.2-2.44-3.2A2.1,2.1,0,0,0,2.9-8.66L3.08-12H6.9v-2H1.1L.7-5.88H2.78V-6.3c0-1,.44-1.38,1.14-1.38S5.06-7.3,5.06-6.3v3.08c0,1-.44,1.36-1.14,1.36S2.78-2.22,2.78-3.22v-1.3Zm10.04-6.26c0-1,.44-1.38,1.14-1.38s1.14.38,1.14,1.38v7.56c0,1-.44,1.38-1.14,1.38s-1.14-.38-1.14-1.38ZM8.54-3.36C8.54-1.12,9.72.16,11.88.16s3.34-1.28,3.34-3.52v-7.28c0-2.24-1.18-3.52-3.34-3.52s-3.34,1.28-3.34,3.52Zm9.38-8.6c0-.62.26-.88.72-.88.44,0,.72.26.72.88v4.8c0,.62-.28.88-.72.88-.46,0-.72-.26-.72-.88Zm-1.4,4.7a1.965,1.965,0,0,0,2.12,2.24,1.965,1.965,0,0,0,2.12-2.24v-4.6a1.965,1.965,0,0,0-2.12-2.24,1.965,1.965,0,0,0-2.12,2.24ZM18.64,0h1.3l5.52-14h-1.3Zm6.22-6.84c0-.62.26-.88.72-.88.44,0,.72.26.72.88v4.8c0,.62-.28.88-.72.88-.46,0-.72-.26-.72-.88Zm-1.4,4.7A1.965,1.965,0,0,0,25.58.1,1.965,1.965,0,0,0,27.7-2.14v-4.6a1.965,1.965,0,0,0-2.12-2.24,1.965,1.965,0,0,0-2.12,2.24Z" transform="translate(-3780.112 1705.414)" fill="#242549"/></g><g transform="translate(0 2.469)" style="isolation:isolate"><path d="M2.16-10.68h1.7V0h2.2V-14H4.58a2.179,2.179,0,0,1-2.42,1.76Zm8.58-.1c0-1,.44-1.38,1.14-1.38s1.14.38,1.14,1.38v7.56c0,1-.44,1.38-1.14,1.38s-1.14-.38-1.14-1.38ZM8.54-3.36C8.54-1.12,9.72.16,11.88.16s3.34-1.28,3.34-3.52v-7.28c0-2.24-1.18-3.52-3.34-3.52s-3.34,1.28-3.34,3.52Zm10.12-7.42c0-1,.44-1.38,1.14-1.38s1.14.38,1.14,1.38v7.56c0,1-.44,1.38-1.14,1.38s-1.14-.38-1.14-1.38Zm-2.2,7.42c0,2.24,1.18,3.52,3.34,3.52s3.34-1.28,3.34-3.52v-7.28c0-2.24-1.18-3.52-3.34-3.52s-3.34,1.28-3.34,3.52Zm9.38-8.6c0-.62.26-.88.72-.88.44,0,.72.26.72.88v4.8c0,.62-.28.88-.72.88-.46,0-.72-.26-.72-.88Zm-1.4,4.7a1.965,1.965,0,0,0,2.12,2.24,1.965,1.965,0,0,0,2.12-2.24v-4.6a1.965,1.965,0,0,0-2.12-2.24,1.965,1.965,0,0,0-2.12,2.24ZM26.56,0h1.3l5.52-14h-1.3Zm6.22-6.84c0-.62.26-.88.72-.88.44,0,.72.26.72.88v4.8c0,.62-.28.88-.72.88-.46,0-.72-.26-.72-.88Zm-1.4,4.7A1.965,1.965,0,0,0,33.5.1a1.965,1.965,0,0,0,2.12-2.24v-4.6A1.965,1.965,0,0,0,33.5-8.98a1.965,1.965,0,0,0-2.12,2.24Z" transform="translate(-3782.225 1655.531)" fill="#242549"/></g><g style="isolation:isolate"><path d="M2.16-10.68h1.7V0h2.2V-14H4.58a2.179,2.179,0,0,1-2.42,1.76ZM8.62-4.52v1.16C8.62-1.12,9.74.16,11.9.16s3.28-1.28,3.28-3.52V-6.48c0-2.06-.82-3.2-2.44-3.2a2.1,2.1,0,0,0-1.92,1.02L11-12h3.82v-2H9.02l-.4,8.12H10.7V-6.3c0-1,.44-1.38,1.14-1.38s1.14.38,1.14,1.38v3.08c0,1-.44,1.36-1.14,1.36S10.7-2.22,10.7-3.22v-1.3Zm10.04-6.26c0-1,.44-1.38,1.14-1.38s1.14.38,1.14,1.38v7.56c0,1-.44,1.38-1.14,1.38s-1.14-.38-1.14-1.38Zm-2.2,7.42c0,2.24,1.18,3.52,3.34,3.52s3.34-1.28,3.34-3.52v-7.28c0-2.24-1.18-3.52-3.34-3.52s-3.34,1.28-3.34,3.52Zm9.38-8.6c0-.62.26-.88.72-.88.44,0,.72.26.72.88v4.8c0,.62-.28.88-.72.88-.46,0-.72-.26-.72-.88Zm-1.4,4.7a1.965,1.965,0,0,0,2.12,2.24,1.965,1.965,0,0,0,2.12-2.24v-4.6a1.965,1.965,0,0,0-2.12-2.24,1.965,1.965,0,0,0-2.12,2.24ZM26.56,0h1.3l5.52-14h-1.3Zm6.22-6.84c0-.62.26-.88.72-.88.44,0,.72.26.72.88v4.8c0,.62-.28.88-.72.88-.46,0-.72-.26-.72-.88Zm-1.4,4.7A1.965,1.965,0,0,0,33.5.1a1.965,1.965,0,0,0,2.12-2.24v-4.6A1.965,1.965,0,0,0,33.5-8.98a1.965,1.965,0,0,0-2.12,2.24Z" transform="translate(-3782.225 1605.445)" fill="#242549"/></g><path d="M5.16-10.56C5.16-6.52.8-5.84.8-1.72V0H7.16V-2H3a1.514,1.514,0,0,1-.02-.3c0-2.3,4.38-3.94,4.38-8.34,0-2.24-1.12-3.52-3.28-3.52S.8-12.88.8-10.64v1.36H2.88v-1.5c0-1,.44-1.38,1.14-1.38S5.16-11.82,5.16-10.56Zm5.58-.22c0-1,.44-1.38,1.14-1.38s1.14.38,1.14,1.38v7.56c0,1-.44,1.38-1.14,1.38s-1.14-.38-1.14-1.38ZM8.54-3.36C8.54-1.12,9.72.16,11.88.16s3.34-1.28,3.34-3.52v-7.28c0-2.24-1.18-3.52-3.34-3.52s-3.34,1.28-3.34,3.52Zm10.12-7.42c0-1,.44-1.38,1.14-1.38s1.14.38,1.14,1.38v7.56c0,1-.44,1.38-1.14,1.38s-1.14-.38-1.14-1.38Zm-2.2,7.42c0,2.24,1.18,3.52,3.34,3.52s3.34-1.28,3.34-3.52v-7.28c0-2.24-1.18-3.52-3.34-3.52s-3.34,1.28-3.34,3.52Zm9.38-8.6c0-.62.26-.88.72-.88.44,0,.72.26.72.88v4.8c0,.62-.28.88-.72.88-.46,0-.72-.26-.72-.88Zm-1.4,4.7a1.965,1.965,0,0,0,2.12,2.24,1.965,1.965,0,0,0,2.12-2.24v-4.6a1.965,1.965,0,0,0-2.12-2.24,1.965,1.965,0,0,0-2.12,2.24ZM26.56,0h1.3l5.52-14h-1.3Zm6.22-6.84c0-.62.26-.88.72-.88.44,0,.72.26.72.88v4.8c0,.62-.28.88-.72.88-.46,0-.72-.26-.72-.88Zm-1.4,4.7A1.965,1.965,0,0,0,33.5.1a1.965,1.965,0,0,0,2.12-2.24v-4.6A1.965,1.965,0,0,0,33.5-8.98a1.965,1.965,0,0,0-2.12,2.24Z" transform="translate(-3782.225 1555.266)" fill="#242549"/><path d="M5.16-10.56C5.16-6.52.8-5.84.8-1.72V0H7.16V-2H3a1.514,1.514,0,0,1-.02-.3c0-2.3,4.38-3.94,4.38-8.34,0-2.24-1.12-3.52-3.28-3.52S.8-12.88.8-10.64v1.36H2.88v-1.5c0-1,.44-1.38,1.14-1.38S5.16-11.82,5.16-10.56ZM8.62-4.52v1.16C8.62-1.12,9.74.16,11.9.16s3.28-1.28,3.28-3.52V-6.48c0-2.06-.82-3.2-2.44-3.2a2.1,2.1,0,0,0-1.92,1.02L11-12h3.82v-2H9.02l-.4,8.12H10.7V-6.3c0-1,.44-1.38,1.14-1.38s1.14.38,1.14,1.38v3.08c0,1-.44,1.36-1.14,1.36S10.7-2.22,10.7-3.22v-1.3Zm10.04-6.26c0-1,.44-1.38,1.14-1.38s1.14.38,1.14,1.38v7.56c0,1-.44,1.38-1.14,1.38s-1.14-.38-1.14-1.38Zm-2.2,7.42c0,2.24,1.18,3.52,3.34,3.52s3.34-1.28,3.34-3.52v-7.28c0-2.24-1.18-3.52-3.34-3.52s-3.34,1.28-3.34,3.52Zm9.38-8.6c0-.62.26-.88.72-.88.44,0,.72.26.72.88v4.8c0,.62-.28.88-.72.88-.46,0-.72-.26-.72-.88Zm-1.4,4.7a1.965,1.965,0,0,0,2.12,2.24,1.965,1.965,0,0,0,2.12-2.24v-4.6a1.965,1.965,0,0,0-2.12-2.24,1.965,1.965,0,0,0-2.12,2.24ZM26.56,0h1.3l5.52-14h-1.3Zm6.22-6.84c0-.62.26-.88.72-.88.44,0,.72.26.72.88v4.8c0,.62-.28.88-.72.88-.46,0-.72-.26-.72-.88Zm-1.4,4.7A1.965,1.965,0,0,0,33.5.1a1.965,1.965,0,0,0,2.12-2.24v-4.6A1.965,1.965,0,0,0,33.5-8.98a1.965,1.965,0,0,0-2.12,2.24Z" transform="translate(-3782.725 1505.383)" fill="#242549"/><path d="M5.04-9.78c0,1.12-.5,1.48-1.32,1.48H2.86v2H3.6c1,0,1.44.48,1.44,1.78v1.1c0,1.24-.44,1.58-1.14,1.58S2.76-2.22,2.76-3.22v-1.3H.68v1.16C.68-1.12,1.8.16,3.96.16S7.24-1.12,7.24-3.36v-1.1c0-1.42-.44-2.46-1.54-2.94,1.06-.44,1.54-1.38,1.54-2.88v-.36c0-2.24-1.12-3.52-3.28-3.52S.68-12.88.68-10.64v.76H2.76v-.9c0-1,.44-1.38,1.14-1.38s1.14.34,1.14,1.6Zm5.7-1c0-1,.44-1.38,1.14-1.38s1.14.38,1.14,1.38v7.56c0,1-.44,1.38-1.14,1.38s-1.14-.38-1.14-1.38ZM8.54-3.36C8.54-1.12,9.72.16,11.88.16s3.34-1.28,3.34-3.52v-7.28c0-2.24-1.18-3.52-3.34-3.52s-3.34,1.28-3.34,3.52Zm10.12-7.42c0-1,.44-1.38,1.14-1.38s1.14.38,1.14,1.38v7.56c0,1-.44,1.38-1.14,1.38s-1.14-.38-1.14-1.38Zm-2.2,7.42c0,2.24,1.18,3.52,3.34,3.52s3.34-1.28,3.34-3.52v-7.28c0-2.24-1.18-3.52-3.34-3.52s-3.34,1.28-3.34,3.52Zm9.38-8.6c0-.62.26-.88.72-.88.44,0,.72.26.72.88v4.8c0,.62-.28.88-.72.88-.46,0-.72-.26-.72-.88Zm-1.4,4.7a1.965,1.965,0,0,0,2.12,2.24,1.965,1.965,0,0,0,2.12-2.24v-4.6a1.965,1.965,0,0,0-2.12-2.24,1.965,1.965,0,0,0-2.12,2.24ZM26.56,0h1.3l5.52-14h-1.3Zm6.22-6.84c0-.62.26-.88.72-.88.44,0,.72.26.72.88v4.8c0,.62-.28.88-.72.88-.46,0-.72-.26-.72-.88Zm-1.4,4.7A1.965,1.965,0,0,0,33.5.1a1.965,1.965,0,0,0,2.12-2.24v-4.6A1.965,1.965,0,0,0,33.5-8.98a1.965,1.965,0,0,0-2.12,2.24Z" transform="translate(-3782.725 1455)" fill="#242549"/><line x1="750" transform="translate(-3739.75 1750)" fill="none" stroke="#e3ded5" stroke-linejoin="bevel" stroke-width="2"/><line x1="750" transform="translate(-3739.75 1700)" fill="none" stroke="#e3ded5" stroke-linejoin="bevel" stroke-width="2"/><line x1="750" transform="translate(-3739.75 1600)" fill="none" stroke="#e3ded5" stroke-linejoin="bevel" stroke-width="2"/><line x1="750" transform="translate(-3739.75 1550)" fill="none" stroke="#e3ded5" stroke-linejoin="bevel" stroke-width="2"/><line x1="750" transform="translate(-3739.75 1500)" fill="none" stroke="#e3ded5" stroke-linejoin="bevel" stroke-width="2"/><path d="M-3740.205,1651.051-3664.75,1670l75,30,75,25,75,25" fill="none" stroke="#c2b8f3" stroke-miterlimit="10" stroke-width="5"/><line x1="750" transform="translate(-3739.75 1450)" fill="none" stroke="#e3ded5" stroke-linejoin="bevel" stroke-width="2"/><g style="isolation:isolate"><path d="M-24.39-4.52v1.16c0,2.24,1.12,3.52,3.28,3.52s3.28-1.28,3.28-3.52V-6.48c0-2.06-.82-3.2-2.44-3.2a2.1,2.1,0,0,0-1.92,1.02l.18-3.34h3.82v-2h-5.8l-.4,8.12h2.08V-6.3c0-1,.44-1.38,1.14-1.38s1.14.38,1.14,1.38v3.08c0,1-.44,1.36-1.14,1.36s-1.14-.36-1.14-1.36v-1.3Zm10.04-6.26c0-1,.44-1.38,1.14-1.38s1.14.38,1.14,1.38v7.56c0,1-.44,1.38-1.14,1.38s-1.14-.38-1.14-1.38Zm-2.2,7.42c0,2.24,1.18,3.52,3.34,3.52s3.34-1.28,3.34-3.52v-7.28c0-2.24-1.18-3.52-3.34-3.52s-3.34,1.28-3.34,3.52Zm10.12-7.42c0-1,.44-1.38,1.14-1.38s1.14.38,1.14,1.38v7.56c0,1-.44,1.38-1.14,1.38s-1.14-.38-1.14-1.38Zm-2.2,7.42C-8.63-1.12-7.45.16-5.29.16s3.34-1.28,3.34-3.52v-7.28c0-2.24-1.18-3.52-3.34-3.52s-3.34,1.28-3.34,3.52ZM-1.17-12h2.3V0h2.2V-12h2.3v-2h-6.8Zm11,12c2.2,0,3.28-1.22,3.28-3.46V-5.28c0-2.24-1.08-3.46-3.28-3.46H8.79V-14H6.59V0ZM8.79-2V-6.74H9.83c.7,0,1.08.32,1.08,1.32v2.1c0,1-.38,1.32-1.08,1.32Zm7.78,2V-14h-2.2V0Zm5.9-5.22v2c0,1-.44,1.36-1.14,1.36s-1.14-.36-1.14-1.36v-7.56c0-1,.44-1.38,1.14-1.38s1.14.38,1.14,1.38v1.5h2.08v-1.36c0-2.24-1.12-3.52-3.28-3.52s-3.28,1.28-3.28,3.52v7.28c0,2.24,1.12,3.52,3.28,3.52s3.28-1.28,3.28-3.52V-5.22Z" transform="translate(-3661.744 1770)" fill="#242549"/></g><g style="isolation:isolate"><path d="M-17.53-10.68h1.7V0h2.2V-14h-1.48a2.179,2.179,0,0,1-2.42,1.76ZM-4.83-14H-7.89V0h1.92V-9.9L-4.33,0h2.08L-.73-10.04V0H1.35V-14H-1.71l-1.5,9.94ZM2.33.02h.34c2.2,0,3.12-1,3.2-3.56L6.11-12H8.03V0h2.24V-14H4.05L3.69-3.42c-.04,1.3-.36,1.44-1.36,1.44ZM14.15-6h2.5V0h2.24V-14H16.65v6h-2.5v-6h-2.2V0h2.2Z" transform="translate(-3589.861 1770.5)" fill="#242549"/></g><g style="isolation:isolate"><path d="M-23.35-10.68h1.7V0h2.2V-14h-1.48a2.179,2.179,0,0,1-2.42,1.76Zm6.56,8.56V0h2.12V-2.12Zm3.62-2.4v1.16c0,2.24,1.12,3.52,3.28,3.52s3.28-1.28,3.28-3.52V-6.48c0-2.06-.82-3.2-2.44-3.2a2.1,2.1,0,0,0-1.92,1.02l.18-3.34h3.82v-2h-5.8l-.4,8.12h2.08V-6.3c0-1,.44-1.38,1.14-1.38s1.14.38,1.14,1.38v3.08c0,1-.44,1.36-1.14,1.36s-1.14-.36-1.14-1.36v-1.3ZM.99-14H-2.07V0H-.15V-9.9L1.49,0H3.57L5.09-10.04V0H7.17V-14H4.11L2.61-4.06ZM8.15.02h.34c2.2,0,3.12-1,3.2-3.56L11.93-12h1.92V0h2.24V-14H9.87L9.51-3.42c-.04,1.3-.36,1.44-1.36,1.44ZM19.97-6h2.5V0h2.24V-14H22.47v6h-2.5v-6h-2.2V0h2.2Z" transform="translate(-3514.978 1770)" fill="#242549"/></g><g style="isolation:isolate"><path d="M-14.53-10.56c0,4.04-4.36,4.72-4.36,8.84V0h6.36V-2h-4.16a1.514,1.514,0,0,1-.02-.3c0-2.3,4.38-3.94,4.38-8.34,0-2.24-1.12-3.52-3.28-3.52s-3.28,1.28-3.28,3.52v1.36h2.08v-1.5c0-1,.44-1.38,1.14-1.38S-14.53-11.82-14.53-10.56ZM-4.83-14H-7.89V0h1.92V-9.9L-4.33,0h2.08L-.73-10.04V0H1.35V-14H-1.71l-1.5,9.94ZM2.33.02h.34c2.2,0,3.12-1,3.2-3.56L6.11-12H8.03V0h2.24V-14H4.05L3.69-3.42c-.04,1.3-.36,1.44-1.36,1.44ZM14.15-6h2.5V0h2.24V-14H16.65v6h-2.5v-6h-2.2V0h2.2Z" transform="translate(-3440.095 1770.5)" fill="#242549"/></g><g style="isolation:isolate"><path d="M-20.35-10.56c0,4.04-4.36,4.72-4.36,8.84V0h6.36V-2h-4.16a1.514,1.514,0,0,1-.02-.3c0-2.3,4.38-3.94,4.38-8.34,0-2.24-1.12-3.52-3.28-3.52s-3.28,1.28-3.28,3.52v1.36h2.08v-1.5c0-1,.44-1.38,1.14-1.38S-20.35-11.82-20.35-10.56Zm3.56,8.44V0h2.12V-2.12Zm3.62-2.4v1.16c0,2.24,1.12,3.52,3.28,3.52s3.28-1.28,3.28-3.52V-6.48c0-2.06-.82-3.2-2.44-3.2a2.1,2.1,0,0,0-1.92,1.02l.18-3.34h3.82v-2h-5.8l-.4,8.12h2.08V-6.3c0-1,.44-1.38,1.14-1.38s1.14.38,1.14,1.38v3.08c0,1-.44,1.36-1.14,1.36s-1.14-.36-1.14-1.36v-1.3ZM.99-14H-2.07V0H-.15V-9.9L1.49,0H3.57L5.09-10.04V0H7.17V-14H4.11L2.61-4.06ZM8.15.02h.34c2.2,0,3.12-1,3.2-3.56L11.93-12h1.92V0h2.24V-14H9.87L9.51-3.42c-.04,1.3-.36,1.44-1.36,1.44ZM19.97-6h2.5V0h2.24V-14H22.47v6h-2.5v-6h-2.2V0h2.2Z" transform="translate(-3365.212 1770)" fill="#242549"/></g><g style="isolation:isolate"><path d="M-14.65-9.78c0,1.12-.5,1.48-1.32,1.48h-.86v2h.74c1,0,1.44.48,1.44,1.78v1.1c0,1.24-.44,1.58-1.14,1.58s-1.14-.38-1.14-1.38v-1.3h-2.08v1.16c0,2.24,1.12,3.52,3.28,3.52s3.28-1.28,3.28-3.52v-1.1c0-1.42-.44-2.46-1.54-2.94,1.06-.44,1.54-1.38,1.54-2.88v-.36c0-2.24-1.12-3.52-3.28-3.52s-3.28,1.28-3.28,3.52v.76h2.08v-.9c0-1,.44-1.38,1.14-1.38s1.14.34,1.14,1.6ZM-4.83-14H-7.89V0h1.92V-9.9L-4.33,0h2.08L-.73-10.04V0H1.35V-14H-1.71l-1.5,9.94ZM2.33.02h.34c2.2,0,3.12-1,3.2-3.56L6.11-12H8.03V0h2.24V-14H4.05L3.69-3.42c-.04,1.3-.36,1.44-1.36,1.44ZM14.15-6h2.5V0h2.24V-14H16.65v6h-2.5v-6h-2.2V0h2.2Z" transform="translate(-3289.83 1770)" fill="#242549"/></g><g style="isolation:isolate"><path d="M-19.41-2.54h4.24V0h2.16V-2.54h1.04v-2h-1.04V-14h-2.4l-4,9.46Zm2.02-2,2.22-5.26v5.26ZM-4.83-14H-7.89V0h1.92V-9.9L-4.33,0h2.08L-.73-10.04V0H1.35V-14H-1.71l-1.5,9.94ZM2.33.02h.34c2.2,0,3.12-1,3.2-3.56L6.11-12H8.03V0h2.24V-14H4.05L3.69-3.42c-.04,1.3-.36,1.44-1.36,1.44ZM14.15-6h2.5V0h2.24V-14H16.65v6h-2.5v-6h-2.2V0h2.2Z" transform="translate(-3214.946 1770)" fill="#242549"/></g><g style="isolation:isolate"><path d="M-18.99-4.52v1.16c0,2.24,1.12,3.52,3.28,3.52s3.28-1.28,3.28-3.52V-6.48c0-2.06-.82-3.2-2.44-3.2a2.1,2.1,0,0,0-1.92,1.02l.18-3.34h3.82v-2h-5.8l-.4,8.12h2.08V-6.3c0-1,.44-1.38,1.14-1.38s1.14.38,1.14,1.38v3.08c0,1-.44,1.36-1.14,1.36s-1.14-.36-1.14-1.36v-1.3ZM-4.83-14H-7.89V0h1.92V-9.9L-4.33,0h2.08L-.73-10.04V0H1.35V-14H-1.71l-1.5,9.94ZM2.33.02h.34c2.2,0,3.12-1,3.2-3.56L6.11-12H8.03V0h2.24V-14H4.05L3.69-3.42c-.04,1.3-.36,1.44-1.36,1.44ZM14.15-6h2.5V0h2.24V-14H16.65v6h-2.5v-6h-2.2V0h2.2Z" transform="translate(-3139.564 1770)" fill="#242549"/></g><g style="isolation:isolate"><path d="M-19.03-3.36c0,2.24,1.18,3.52,3.34,3.52s3.34-1.28,3.34-3.52V-5.92c0-2.06-.82-3.2-2.44-3.2a2.094,2.094,0,0,0-2.04,1.24v-2.56c0-1.34.44-1.72,1.22-1.72.7,0,1.14.38,1.14,1.38v.5h2.08v-.36c0-2.24-1.12-3.52-3.28-3.52-2.28,0-3.36,1.28-3.36,3.64Zm3.34-3.76c.7,0,1.14.38,1.14,1.38v2.52c0,1-.44,1.36-1.14,1.36s-1.14-.36-1.14-1.36V-5.74C-16.83-6.74-16.39-7.12-15.69-7.12ZM-4.83-14H-7.89V0h1.92V-9.9L-4.33,0h2.08L-.73-10.04V0H1.35V-14H-1.71l-1.5,9.94ZM2.33.02h.34c2.2,0,3.12-1,3.2-3.56L6.11-12H8.03V0h2.24V-14H4.05L3.69-3.42c-.04,1.3-.36,1.44-1.36,1.44ZM14.15-6h2.5V0h2.24V-14H16.65v6h-2.5v-6h-2.2V0h2.2Z" transform="translate(-3064.681 1770)" fill="#242549"/></g><path d="M-3664.5,1729.75l74.75-29.75,75.027-24.493L-3439.75,1651l75-21,75-20,75-40,75-40,75-40,79.75-42.25" fill="none" stroke="#ff906d" stroke-miterlimit="10" stroke-width="5"/><line x1="15" y2="10" transform="translate(-3297.25 1727.5)" fill="none" stroke="#e3ded5" stroke-linejoin="bevel" stroke-width="2"/><line x1="15" y2="10" transform="translate(-3297.25 1735)" fill="none" stroke="#e3ded5" stroke-linejoin="bevel" stroke-width="2"/><circle cx="5" cy="5" r="5" transform="translate(-3294.75 1605)" fill="#242549"/><circle cx="5" cy="5" r="5" transform="translate(-3219.75 1565)" fill="#242549"/><circle cx="5" cy="5" r="5" transform="translate(-3144.75 1525)" fill="#242549"/><circle cx="5" cy="5" r="5" transform="translate(-3069.75 1485)" fill="#242549"/><circle cx="5" cy="5" r="5" transform="translate(-3369.75 1625)" fill="#242549"/><circle cx="5" cy="5" r="5" transform="translate(-3444.75 1646)" fill="#242549"/><circle cx="5" cy="5" r="5" transform="translate(-3519.75 1670)" fill="#242549"/><circle cx="5" cy="5" r="5" transform="translate(-3594.75 1695)" fill="#242549"/><circle cx="5" cy="5" r="5" transform="translate(-3669.75 1725)" fill="#242549"/><circle cx="5" cy="5" r="5" transform="translate(-3669.75 1665)" fill="#242549"/><circle cx="5" cy="5" r="5" transform="translate(-3519.75 1720)" fill="#242549"/><g style="isolation:isolate"><path d="M3.3-3.789a2.686,2.686,0,0,0,.635,1.4A1.8,1.8,0,0,0,5.3-1.895,1.845,1.845,0,0,0,6.88-2.622a2.981,2.981,0,0,0,.542-1.831,3.181,3.181,0,0,0-.508-1.831,1.779,1.779,0,0,0-1.582-.747,2.722,2.722,0,0,0-.879.127,1.747,1.747,0,0,0-.986.869l-2.5-.117,1-7.822h7.8v2.363H3.975l-.508,3.1a5.818,5.818,0,0,1,1.006-.557A4.259,4.259,0,0,1,5.947-9.3,4.429,4.429,0,0,1,9.014-8.115a4.394,4.394,0,0,1,1.309,3.438,5.393,5.393,0,0,1-1.26,3.506A4.581,4.581,0,0,1,5.293.371,5.007,5.007,0,0,1,1.973-.713,4.211,4.211,0,0,1,.527-3.789ZM14.31-6.943a13.338,13.338,0,0,0,.4,3.735,1.612,1.612,0,0,0,1.641,1.294,1.59,1.59,0,0,0,1.626-1.294,13.82,13.82,0,0,0,.386-3.735,13.666,13.666,0,0,0-.386-3.789,1.576,1.576,0,0,0-1.626-1.23,1.6,1.6,0,0,0-1.641,1.23A13.189,13.189,0,0,0,14.31-6.943Zm2.041-7.314a4,4,0,0,1,3.794,1.9,11.019,11.019,0,0,1,1.089,5.41,10.96,10.96,0,0,1-1.089,5.4A4.006,4.006,0,0,1,16.351.352a4.006,4.006,0,0,1-3.794-1.895,10.96,10.96,0,0,1-1.089-5.4,11.019,11.019,0,0,1,1.089-5.41A4,4,0,0,1,16.351-14.258Zm9.427,5.352a1.5,1.5,0,0,0,1.1-.454,1.5,1.5,0,0,0,.454-1.1,1.5,1.5,0,0,0-.454-1.1,1.5,1.5,0,0,0-1.1-.454,1.5,1.5,0,0,0-1.1.454,1.5,1.5,0,0,0-.454,1.1,1.5,1.5,0,0,0,.454,1.1A1.5,1.5,0,0,0,25.778-8.906Zm3.633-1.553a3.508,3.508,0,0,1-1.06,2.568,3.5,3.5,0,0,1-2.573,1.064A3.5,3.5,0,0,1,23.21-7.891a3.5,3.5,0,0,1-1.064-2.568,3.5,3.5,0,0,1,1.064-2.568,3.5,3.5,0,0,1,2.568-1.064,3.5,3.5,0,0,1,2.568,1.064A3.5,3.5,0,0,1,29.411-10.459ZM36.823-3.35a1.5,1.5,0,0,0-.454-1.1,1.5,1.5,0,0,0-1.1-.454,1.5,1.5,0,0,0-1.1.454,1.5,1.5,0,0,0-.454,1.1,1.5,1.5,0,0,0,.454,1.1,1.5,1.5,0,0,0,1.1.454,1.5,1.5,0,0,0,1.1-.454A1.5,1.5,0,0,0,36.823-3.35Zm2.08,0A3.5,3.5,0,0,1,37.838-.781,3.5,3.5,0,0,1,35.27.283,3.5,3.5,0,0,1,32.7-.781,3.5,3.5,0,0,1,31.637-3.35,3.5,3.5,0,0,1,32.7-5.923a3.508,3.508,0,0,1,2.568-1.06,3.5,3.5,0,0,1,2.568,1.064A3.5,3.5,0,0,1,38.9-3.35ZM33.717-14.16H35.2L27.311.371H25.8Z" transform="translate(-3600 1690)" fill="#242549"/></g><g transform="translate(-0.725 -2)" style="isolation:isolate"><path d="M3.418-4.111A2.274,2.274,0,0,0,3.96-2.49a1.958,1.958,0,0,0,1.5.576,1.958,1.958,0,0,0,1.5-.576A2.274,2.274,0,0,0,7.5-4.111a2.254,2.254,0,0,0-.552-1.646,1.993,1.993,0,0,0-1.489-.562,1.993,1.993,0,0,0-1.489.562A2.254,2.254,0,0,0,3.418-4.111ZM.527-3.926a4.337,4.337,0,0,1,.542-2.158A3.433,3.433,0,0,1,2.656-7.539,3.3,3.3,0,0,1,1.323-9.019a4.145,4.145,0,0,1-.308-1.489A3.476,3.476,0,0,1,2.178-13.14a4.616,4.616,0,0,1,3.281-1.089A4.616,4.616,0,0,1,8.74-13.14,3.476,3.476,0,0,1,9.9-10.508a4.145,4.145,0,0,1-.308,1.489A2.844,2.844,0,0,1,8.262-7.637,3.924,3.924,0,0,1,9.834-6.084a4.432,4.432,0,0,1,.527,2.158A4.037,4.037,0,0,1,9.038-.884,5.158,5.158,0,0,1,5.342.371,4.793,4.793,0,0,1,1.748-.884,4.2,4.2,0,0,1,.527-3.926ZM3.672-10.2a1.734,1.734,0,0,0,.474,1.26,1.745,1.745,0,0,0,1.313.488,1.725,1.725,0,0,0,1.313-.488,1.754,1.754,0,0,0,.464-1.26,1.8,1.8,0,0,0-.464-1.313,1.755,1.755,0,0,0-1.313-.474,1.775,1.775,0,0,0-1.313.474A1.775,1.775,0,0,0,3.672-10.2ZM14.31-6.943a13.338,13.338,0,0,0,.4,3.735,1.612,1.612,0,0,0,1.641,1.294,1.59,1.59,0,0,0,1.626-1.294,13.82,13.82,0,0,0,.386-3.735,13.666,13.666,0,0,0-.386-3.789,1.576,1.576,0,0,0-1.626-1.23,1.6,1.6,0,0,0-1.641,1.23A13.189,13.189,0,0,0,14.31-6.943Zm2.041-7.314a4,4,0,0,1,3.794,1.9,11.019,11.019,0,0,1,1.089,5.41,10.96,10.96,0,0,1-1.089,5.4A4.006,4.006,0,0,1,16.351.352a4.006,4.006,0,0,1-3.794-1.895,10.96,10.96,0,0,1-1.089-5.4,11.019,11.019,0,0,1,1.089-5.41A4,4,0,0,1,16.351-14.258Zm9.427,5.352a1.5,1.5,0,0,0,1.1-.454,1.5,1.5,0,0,0,.454-1.1,1.5,1.5,0,0,0-.454-1.1,1.5,1.5,0,0,0-1.1-.454,1.5,1.5,0,0,0-1.1.454,1.5,1.5,0,0,0-.454,1.1,1.5,1.5,0,0,0,.454,1.1A1.5,1.5,0,0,0,25.778-8.906Zm3.633-1.553a3.508,3.508,0,0,1-1.06,2.568,3.5,3.5,0,0,1-2.573,1.064A3.5,3.5,0,0,1,23.21-7.891a3.5,3.5,0,0,1-1.064-2.568,3.5,3.5,0,0,1,1.064-2.568,3.5,3.5,0,0,1,2.568-1.064,3.5,3.5,0,0,1,2.568,1.064A3.5,3.5,0,0,1,29.411-10.459ZM36.823-3.35a1.5,1.5,0,0,0-.454-1.1,1.5,1.5,0,0,0-1.1-.454,1.5,1.5,0,0,0-1.1.454,1.5,1.5,0,0,0-.454,1.1,1.5,1.5,0,0,0,.454,1.1,1.5,1.5,0,0,0,1.1.454,1.5,1.5,0,0,0,1.1-.454A1.5,1.5,0,0,0,36.823-3.35Zm2.08,0A3.5,3.5,0,0,1,37.838-.781,3.5,3.5,0,0,1,35.27.283,3.5,3.5,0,0,1,32.7-.781,3.5,3.5,0,0,1,31.637-3.35,3.5,3.5,0,0,1,32.7-5.923a3.508,3.508,0,0,1,2.568-1.06,3.5,3.5,0,0,1,2.568,1.064A3.5,3.5,0,0,1,38.9-3.35ZM33.717-14.16H35.2L27.311.371H25.8Z" transform="translate(-3675 1660)" fill="#242549"/></g><g transform="translate(0 -5)" style="isolation:isolate"><path d="M.625,0a6.654,6.654,0,0,1,.654-2.783,7.869,7.869,0,0,1,2.813-3,20.625,20.625,0,0,0,2.49-1.973,2.915,2.915,0,0,0,.869-2.031,2.25,2.25,0,0,0-.5-1.494,1.754,1.754,0,0,0-1.426-.6,1.739,1.739,0,0,0-1.729.947,4.7,4.7,0,0,0-.312,1.738H.781a6.841,6.841,0,0,1,.654-2.92,4.075,4.075,0,0,1,3.955-2.119,5.015,5.015,0,0,1,3.574,1.245,4.305,4.305,0,0,1,1.328,3.3,4.462,4.462,0,0,1-.937,2.793A9.34,9.34,0,0,1,7.334-5.088L6.221-4.3Q5.176-3.555,4.79-3.223a3.148,3.148,0,0,0-.649.771h6.182V0ZM14.31-6.943a13.338,13.338,0,0,0,.4,3.735,1.612,1.612,0,0,0,1.641,1.294,1.59,1.59,0,0,0,1.626-1.294,13.82,13.82,0,0,0,.386-3.735,13.666,13.666,0,0,0-.386-3.789,1.576,1.576,0,0,0-1.626-1.23,1.6,1.6,0,0,0-1.641,1.23A13.189,13.189,0,0,0,14.31-6.943Zm2.041-7.314a4,4,0,0,1,3.794,1.9,11.019,11.019,0,0,1,1.089,5.41,10.96,10.96,0,0,1-1.089,5.4A4.006,4.006,0,0,1,16.351.352a4.006,4.006,0,0,1-3.794-1.895,10.96,10.96,0,0,1-1.089-5.4,11.019,11.019,0,0,1,1.089-5.41A4,4,0,0,1,16.351-14.258Zm9.427,5.352a1.5,1.5,0,0,0,1.1-.454,1.5,1.5,0,0,0,.454-1.1,1.5,1.5,0,0,0-.454-1.1,1.5,1.5,0,0,0-1.1-.454,1.5,1.5,0,0,0-1.1.454,1.5,1.5,0,0,0-.454,1.1,1.5,1.5,0,0,0,.454,1.1A1.5,1.5,0,0,0,25.778-8.906Zm3.633-1.553a3.508,3.508,0,0,1-1.06,2.568,3.5,3.5,0,0,1-2.573,1.064A3.5,3.5,0,0,1,23.21-7.891a3.5,3.5,0,0,1-1.064-2.568,3.5,3.5,0,0,1,1.064-2.568,3.5,3.5,0,0,1,2.568-1.064,3.5,3.5,0,0,1,2.568,1.064A3.5,3.5,0,0,1,29.411-10.459ZM36.823-3.35a1.5,1.5,0,0,0-.454-1.1,1.5,1.5,0,0,0-1.1-.454,1.5,1.5,0,0,0-1.1.454,1.5,1.5,0,0,0-.454,1.1,1.5,1.5,0,0,0,.454,1.1,1.5,1.5,0,0,0,1.1.454,1.5,1.5,0,0,0,1.1-.454A1.5,1.5,0,0,0,36.823-3.35Zm2.08,0A3.5,3.5,0,0,1,37.838-.781,3.5,3.5,0,0,1,35.27.283,3.5,3.5,0,0,1,32.7-.781,3.5,3.5,0,0,1,31.637-3.35,3.5,3.5,0,0,1,32.7-5.923a3.508,3.508,0,0,1,2.568-1.06,3.5,3.5,0,0,1,2.568,1.064A3.5,3.5,0,0,1,38.9-3.35ZM33.717-14.16H35.2L27.311.371H25.8Z" transform="translate(-3675 1720)" fill="#242549"/></g><g transform="translate(-0.725 -7)" style="isolation:isolate"><path d="M10.547-11.8A17.583,17.583,0,0,0,8.809-9.6,19.365,19.365,0,0,0,6.943-6.348,19.386,19.386,0,0,0,5.869-3.125,13.381,13.381,0,0,0,5.391,0H2.5A17.018,17.018,0,0,1,5-7.92a18.706,18.706,0,0,1,2.568-3.555H.508l.039-2.5h10Zm3.6,8.008a2.686,2.686,0,0,0,.635,1.4,1.8,1.8,0,0,0,1.367.493,1.845,1.845,0,0,0,1.577-.728,2.981,2.981,0,0,0,.542-1.831,3.181,3.181,0,0,0-.508-1.831,1.779,1.779,0,0,0-1.582-.747A2.722,2.722,0,0,0,15.3-6.9a1.747,1.747,0,0,0-.986.869l-2.5-.117,1-7.822h7.8v2.363H14.818l-.508,3.1a5.818,5.818,0,0,1,1.006-.557A4.259,4.259,0,0,1,16.79-9.3a4.429,4.429,0,0,1,3.066,1.182,4.394,4.394,0,0,1,1.309,3.438,5.393,5.393,0,0,1-1.26,3.506A4.581,4.581,0,0,1,16.136.371a5.007,5.007,0,0,1-3.32-1.084A4.211,4.211,0,0,1,11.37-3.789ZM25.778-8.906a1.5,1.5,0,0,0,1.1-.454,1.5,1.5,0,0,0,.454-1.1,1.5,1.5,0,0,0-.454-1.1,1.5,1.5,0,0,0-1.1-.454,1.5,1.5,0,0,0-1.1.454,1.5,1.5,0,0,0-.454,1.1,1.5,1.5,0,0,0,.454,1.1A1.5,1.5,0,0,0,25.778-8.906Zm3.633-1.553a3.508,3.508,0,0,1-1.06,2.568,3.5,3.5,0,0,1-2.573,1.064A3.5,3.5,0,0,1,23.21-7.891a3.5,3.5,0,0,1-1.064-2.568,3.5,3.5,0,0,1,1.064-2.568,3.5,3.5,0,0,1,2.568-1.064,3.5,3.5,0,0,1,2.568,1.064A3.5,3.5,0,0,1,29.411-10.459ZM36.823-3.35a1.5,1.5,0,0,0-.454-1.1,1.5,1.5,0,0,0-1.1-.454,1.5,1.5,0,0,0-1.1.454,1.5,1.5,0,0,0-.454,1.1,1.5,1.5,0,0,0,.454,1.1,1.5,1.5,0,0,0,1.1.454,1.5,1.5,0,0,0,1.1-.454A1.5,1.5,0,0,0,36.823-3.35Zm2.08,0A3.5,3.5,0,0,1,37.838-.781,3.5,3.5,0,0,1,35.27.283,3.5,3.5,0,0,1,32.7-.781,3.5,3.5,0,0,1,31.637-3.35,3.5,3.5,0,0,1,32.7-5.923a3.508,3.508,0,0,1,2.568-1.06,3.5,3.5,0,0,1,2.568,1.064A3.5,3.5,0,0,1,38.9-3.35ZM33.717-14.16H35.2L27.311.371H25.8Z" transform="translate(-3525 1665)" fill="#242549"/></g><g style="isolation:isolate"><path d="M1.387-9.766V-11.66a12.337,12.337,0,0,0,1.846-.176A2.6,2.6,0,0,0,4.6-12.578a2.444,2.444,0,0,0,.547-1.016,2.331,2.331,0,0,0,.107-.566H7.568V0H4.717V-9.766ZM14.31-6.943a13.338,13.338,0,0,0,.4,3.735,1.612,1.612,0,0,0,1.641,1.294,1.59,1.59,0,0,0,1.626-1.294,13.82,13.82,0,0,0,.386-3.735,13.666,13.666,0,0,0-.386-3.789,1.576,1.576,0,0,0-1.626-1.23,1.6,1.6,0,0,0-1.641,1.23A13.189,13.189,0,0,0,14.31-6.943Zm2.041-7.314a4,4,0,0,1,3.794,1.9,11.019,11.019,0,0,1,1.089,5.41,10.96,10.96,0,0,1-1.089,5.4A4.006,4.006,0,0,1,16.351.352a4.006,4.006,0,0,1-3.794-1.895,10.96,10.96,0,0,1-1.089-5.4,11.019,11.019,0,0,1,1.089-5.41A4,4,0,0,1,16.351-14.258Zm8.8,7.314a13.338,13.338,0,0,0,.4,3.735,1.612,1.612,0,0,0,1.641,1.294A1.59,1.59,0,0,0,28.82-3.208a13.82,13.82,0,0,0,.386-3.735,13.666,13.666,0,0,0-.386-3.789,1.576,1.576,0,0,0-1.626-1.23,1.6,1.6,0,0,0-1.641,1.23A13.189,13.189,0,0,0,25.153-6.943Zm2.041-7.314a4,4,0,0,1,3.794,1.9,11.019,11.019,0,0,1,1.089,5.41,10.96,10.96,0,0,1-1.089,5.4A4.006,4.006,0,0,1,27.194.352,4.006,4.006,0,0,1,23.4-1.543a10.96,10.96,0,0,1-1.089-5.4,11.019,11.019,0,0,1,1.089-5.41A4,4,0,0,1,27.194-14.258Zm9.427,5.352a1.5,1.5,0,0,0,1.1-.454,1.5,1.5,0,0,0,.454-1.1,1.5,1.5,0,0,0-.454-1.1,1.5,1.5,0,0,0-1.1-.454,1.5,1.5,0,0,0-1.1.454,1.5,1.5,0,0,0-.454,1.1,1.5,1.5,0,0,0,.454,1.1A1.5,1.5,0,0,0,36.621-8.906Zm3.633-1.553a3.508,3.508,0,0,1-1.06,2.568,3.5,3.5,0,0,1-2.573,1.064,3.5,3.5,0,0,1-2.568-1.064,3.5,3.5,0,0,1-1.064-2.568,3.5,3.5,0,0,1,1.064-2.568,3.5,3.5,0,0,1,2.568-1.064,3.5,3.5,0,0,1,2.568,1.064A3.5,3.5,0,0,1,40.254-10.459ZM47.666-3.35a1.5,1.5,0,0,0-.454-1.1,1.5,1.5,0,0,0-1.1-.454,1.5,1.5,0,0,0-1.1.454,1.5,1.5,0,0,0-.454,1.1,1.5,1.5,0,0,0,.454,1.1,1.5,1.5,0,0,0,1.1.454,1.5,1.5,0,0,0,1.1-.454A1.5,1.5,0,0,0,47.666-3.35Zm2.08,0A3.5,3.5,0,0,1,48.681-.781,3.5,3.5,0,0,1,46.113.283,3.5,3.5,0,0,1,43.545-.781,3.5,3.5,0,0,1,42.48-3.35a3.5,3.5,0,0,1,1.064-2.573,3.508,3.508,0,0,1,2.568-1.06,3.5,3.5,0,0,1,2.568,1.064A3.5,3.5,0,0,1,49.746-3.35ZM44.56-14.16h1.484L38.154.371H36.64Z" transform="translate(-3456 1640)" fill="#242549"/></g><g style="isolation:isolate"><path d="M1.387-9.766V-11.66a12.337,12.337,0,0,0,1.846-.176A2.6,2.6,0,0,0,4.6-12.578a2.444,2.444,0,0,0,.547-1.016,2.331,2.331,0,0,0,.107-.566H7.568V0H4.717V-9.766ZM11.468,0a6.654,6.654,0,0,1,.654-2.783,7.869,7.869,0,0,1,2.813-3,20.625,20.625,0,0,0,2.49-1.973,2.915,2.915,0,0,0,.869-2.031,2.25,2.25,0,0,0-.5-1.494,1.754,1.754,0,0,0-1.426-.6,1.739,1.739,0,0,0-1.729.947,4.7,4.7,0,0,0-.312,1.738H11.624a6.841,6.841,0,0,1,.654-2.92,4.075,4.075,0,0,1,3.955-2.119,5.015,5.015,0,0,1,3.574,1.245,4.305,4.305,0,0,1,1.328,3.3A4.462,4.462,0,0,1,20.2-6.895a9.34,9.34,0,0,1-2.021,1.807L17.064-4.3q-1.045.742-1.431,1.074a3.148,3.148,0,0,0-.649.771h6.182V0ZM25.153-6.943a13.338,13.338,0,0,0,.4,3.735,1.612,1.612,0,0,0,1.641,1.294A1.59,1.59,0,0,0,28.82-3.208a13.82,13.82,0,0,0,.386-3.735,13.666,13.666,0,0,0-.386-3.789,1.576,1.576,0,0,0-1.626-1.23,1.6,1.6,0,0,0-1.641,1.23A13.189,13.189,0,0,0,25.153-6.943Zm2.041-7.314a4,4,0,0,1,3.794,1.9,11.019,11.019,0,0,1,1.089,5.41,10.96,10.96,0,0,1-1.089,5.4A4.006,4.006,0,0,1,27.194.352,4.006,4.006,0,0,1,23.4-1.543a10.96,10.96,0,0,1-1.089-5.4,11.019,11.019,0,0,1,1.089-5.41A4,4,0,0,1,27.194-14.258Zm9.427,5.352a1.5,1.5,0,0,0,1.1-.454,1.5,1.5,0,0,0,.454-1.1,1.5,1.5,0,0,0-.454-1.1,1.5,1.5,0,0,0-1.1-.454,1.5,1.5,0,0,0-1.1.454,1.5,1.5,0,0,0-.454,1.1,1.5,1.5,0,0,0,.454,1.1A1.5,1.5,0,0,0,36.621-8.906Zm3.633-1.553a3.508,3.508,0,0,1-1.06,2.568,3.5,3.5,0,0,1-2.573,1.064,3.5,3.5,0,0,1-2.568-1.064,3.5,3.5,0,0,1-1.064-2.568,3.5,3.5,0,0,1,1.064-2.568,3.5,3.5,0,0,1,2.568-1.064,3.5,3.5,0,0,1,2.568,1.064A3.5,3.5,0,0,1,40.254-10.459ZM47.666-3.35a1.5,1.5,0,0,0-.454-1.1,1.5,1.5,0,0,0-1.1-.454,1.5,1.5,0,0,0-1.1.454,1.5,1.5,0,0,0-.454,1.1,1.5,1.5,0,0,0,.454,1.1,1.5,1.5,0,0,0,1.1.454,1.5,1.5,0,0,0,1.1-.454A1.5,1.5,0,0,0,47.666-3.35Zm2.08,0A3.5,3.5,0,0,1,48.681-.781,3.5,3.5,0,0,1,46.113.283,3.5,3.5,0,0,1,43.545-.781,3.5,3.5,0,0,1,42.48-3.35a3.5,3.5,0,0,1,1.064-2.573,3.508,3.508,0,0,1,2.568-1.06,3.5,3.5,0,0,1,2.568,1.064A3.5,3.5,0,0,1,49.746-3.35ZM44.56-14.16h1.484L38.154.371H36.64Z" transform="translate(-3381 1620)" fill="#242549"/></g><g style="isolation:isolate"><path d="M1.387-9.766V-11.66a12.337,12.337,0,0,0,1.846-.176A2.6,2.6,0,0,0,4.6-12.578a2.444,2.444,0,0,0,.547-1.016,2.331,2.331,0,0,0,.107-.566H7.568V0H4.717V-9.766ZM21.3-3.047H19.7V0H16.976V-3.047H11.37V-5.479l5.205-8.594H19.7v8.848h1.6ZM16.976-5.225v-6.113L13.431-5.225Zm8.177-1.719a13.338,13.338,0,0,0,.4,3.735,1.612,1.612,0,0,0,1.641,1.294A1.59,1.59,0,0,0,28.82-3.208a13.82,13.82,0,0,0,.386-3.735,13.666,13.666,0,0,0-.386-3.789,1.576,1.576,0,0,0-1.626-1.23,1.6,1.6,0,0,0-1.641,1.23A13.189,13.189,0,0,0,25.153-6.943Zm2.041-7.314a4,4,0,0,1,3.794,1.9,11.019,11.019,0,0,1,1.089,5.41,10.96,10.96,0,0,1-1.089,5.4A4.006,4.006,0,0,1,27.194.352,4.006,4.006,0,0,1,23.4-1.543a10.96,10.96,0,0,1-1.089-5.4,11.019,11.019,0,0,1,1.089-5.41A4,4,0,0,1,27.194-14.258Zm9.427,5.352a1.5,1.5,0,0,0,1.1-.454,1.5,1.5,0,0,0,.454-1.1,1.5,1.5,0,0,0-.454-1.1,1.5,1.5,0,0,0-1.1-.454,1.5,1.5,0,0,0-1.1.454,1.5,1.5,0,0,0-.454,1.1,1.5,1.5,0,0,0,.454,1.1A1.5,1.5,0,0,0,36.621-8.906Zm3.633-1.553a3.508,3.508,0,0,1-1.06,2.568,3.5,3.5,0,0,1-2.573,1.064,3.5,3.5,0,0,1-2.568-1.064,3.5,3.5,0,0,1-1.064-2.568,3.5,3.5,0,0,1,1.064-2.568,3.5,3.5,0,0,1,2.568-1.064,3.5,3.5,0,0,1,2.568,1.064A3.5,3.5,0,0,1,40.254-10.459ZM47.666-3.35a1.5,1.5,0,0,0-.454-1.1,1.5,1.5,0,0,0-1.1-.454,1.5,1.5,0,0,0-1.1.454,1.5,1.5,0,0,0-.454,1.1,1.5,1.5,0,0,0,.454,1.1,1.5,1.5,0,0,0,1.1.454,1.5,1.5,0,0,0,1.1-.454A1.5,1.5,0,0,0,47.666-3.35Zm2.08,0A3.5,3.5,0,0,1,48.681-.781,3.5,3.5,0,0,1,46.113.283,3.5,3.5,0,0,1,43.545-.781,3.5,3.5,0,0,1,42.48-3.35a3.5,3.5,0,0,1,1.064-2.573,3.508,3.508,0,0,1,2.568-1.06,3.5,3.5,0,0,1,2.568,1.064A3.5,3.5,0,0,1,49.746-3.35ZM44.56-14.16h1.484L38.154.371H36.64Z" transform="translate(-3305 1600)" fill="#242549"/></g><g transform="translate(-1)" style="isolation:isolate"><path d="M1.387-9.766V-11.66a12.337,12.337,0,0,0,1.846-.176A2.6,2.6,0,0,0,4.6-12.578a2.444,2.444,0,0,0,.547-1.016,2.331,2.331,0,0,0,.107-.566H7.568V0H4.717V-9.766ZM14.261-4.111A2.274,2.274,0,0,0,14.8-2.49a1.958,1.958,0,0,0,1.5.576,1.958,1.958,0,0,0,1.5-.576,2.274,2.274,0,0,0,.542-1.621,2.254,2.254,0,0,0-.552-1.646A1.993,1.993,0,0,0,16.3-6.318a1.993,1.993,0,0,0-1.489.562A2.254,2.254,0,0,0,14.261-4.111Zm-2.891.186a4.337,4.337,0,0,1,.542-2.158A3.433,3.433,0,0,1,13.5-7.539a3.3,3.3,0,0,1-1.333-1.479,4.145,4.145,0,0,1-.308-1.489,3.476,3.476,0,0,1,1.162-2.632A4.616,4.616,0,0,1,16.3-14.229a4.616,4.616,0,0,1,3.281,1.089,3.476,3.476,0,0,1,1.162,2.632,4.145,4.145,0,0,1-.308,1.489A2.844,2.844,0,0,1,19.1-7.637a3.924,3.924,0,0,1,1.572,1.553A4.432,4.432,0,0,1,21.2-3.926,4.037,4.037,0,0,1,19.881-.884a5.158,5.158,0,0,1-3.7,1.255A4.793,4.793,0,0,1,12.591-.884,4.2,4.2,0,0,1,11.37-3.926Zm3.145-6.27a1.734,1.734,0,0,0,.474,1.26,1.745,1.745,0,0,0,1.313.488,1.725,1.725,0,0,0,1.313-.488,1.754,1.754,0,0,0,.464-1.26,1.8,1.8,0,0,0-.464-1.313,1.755,1.755,0,0,0-1.313-.474,1.775,1.775,0,0,0-1.313.474A1.775,1.775,0,0,0,14.515-10.2ZM25.153-6.943a13.338,13.338,0,0,0,.4,3.735,1.612,1.612,0,0,0,1.641,1.294A1.59,1.59,0,0,0,28.82-3.208a13.82,13.82,0,0,0,.386-3.735,13.666,13.666,0,0,0-.386-3.789,1.576,1.576,0,0,0-1.626-1.23,1.6,1.6,0,0,0-1.641,1.23A13.189,13.189,0,0,0,25.153-6.943Zm2.041-7.314a4,4,0,0,1,3.794,1.9,11.019,11.019,0,0,1,1.089,5.41,10.96,10.96,0,0,1-1.089,5.4A4.006,4.006,0,0,1,27.194.352,4.006,4.006,0,0,1,23.4-1.543a10.96,10.96,0,0,1-1.089-5.4,11.019,11.019,0,0,1,1.089-5.41A4,4,0,0,1,27.194-14.258Zm9.427,5.352a1.5,1.5,0,0,0,1.1-.454,1.5,1.5,0,0,0,.454-1.1,1.5,1.5,0,0,0-.454-1.1,1.5,1.5,0,0,0-1.1-.454,1.5,1.5,0,0,0-1.1.454,1.5,1.5,0,0,0-.454,1.1,1.5,1.5,0,0,0,.454,1.1A1.5,1.5,0,0,0,36.621-8.906Zm3.633-1.553a3.508,3.508,0,0,1-1.06,2.568,3.5,3.5,0,0,1-2.573,1.064,3.5,3.5,0,0,1-2.568-1.064,3.5,3.5,0,0,1-1.064-2.568,3.5,3.5,0,0,1,1.064-2.568,3.5,3.5,0,0,1,2.568-1.064,3.5,3.5,0,0,1,2.568,1.064A3.5,3.5,0,0,1,40.254-10.459ZM47.666-3.35a1.5,1.5,0,0,0-.454-1.1,1.5,1.5,0,0,0-1.1-.454,1.5,1.5,0,0,0-1.1.454,1.5,1.5,0,0,0-.454,1.1,1.5,1.5,0,0,0,.454,1.1,1.5,1.5,0,0,0,1.1.454,1.5,1.5,0,0,0,1.1-.454A1.5,1.5,0,0,0,47.666-3.35Zm2.08,0A3.5,3.5,0,0,1,48.681-.781,3.5,3.5,0,0,1,46.113.283,3.5,3.5,0,0,1,43.545-.781,3.5,3.5,0,0,1,42.48-3.35a3.5,3.5,0,0,1,1.064-2.573,3.508,3.508,0,0,1,2.568-1.06,3.5,3.5,0,0,1,2.568,1.064A3.5,3.5,0,0,1,49.746-3.35ZM44.56-14.16h1.484L38.154.371H36.64Z" transform="translate(-3230 1560)" fill="#242549"/></g><g transform="translate(-1)" style="isolation:isolate"><path d="M.625,0a6.654,6.654,0,0,1,.654-2.783,7.869,7.869,0,0,1,2.813-3,20.625,20.625,0,0,0,2.49-1.973,2.915,2.915,0,0,0,.869-2.031,2.25,2.25,0,0,0-.5-1.494,1.754,1.754,0,0,0-1.426-.6,1.739,1.739,0,0,0-1.729.947,4.7,4.7,0,0,0-.312,1.738H.781a6.841,6.841,0,0,1,.654-2.92,4.075,4.075,0,0,1,3.955-2.119,5.015,5.015,0,0,1,3.574,1.245,4.305,4.305,0,0,1,1.328,3.3,4.462,4.462,0,0,1-.937,2.793A9.34,9.34,0,0,1,7.334-5.088L6.221-4.3Q5.176-3.555,4.79-3.223a3.148,3.148,0,0,0-.649.771h6.182V0ZM11.468,0a6.654,6.654,0,0,1,.654-2.783,7.869,7.869,0,0,1,2.813-3,20.625,20.625,0,0,0,2.49-1.973,2.915,2.915,0,0,0,.869-2.031,2.25,2.25,0,0,0-.5-1.494,1.754,1.754,0,0,0-1.426-.6,1.739,1.739,0,0,0-1.729.947,4.7,4.7,0,0,0-.312,1.738H11.624a6.841,6.841,0,0,1,.654-2.92,4.075,4.075,0,0,1,3.955-2.119,5.015,5.015,0,0,1,3.574,1.245,4.305,4.305,0,0,1,1.328,3.3A4.462,4.462,0,0,1,20.2-6.895a9.34,9.34,0,0,1-2.021,1.807L17.064-4.3q-1.045.742-1.431,1.074a3.148,3.148,0,0,0-.649.771h6.182V0ZM25.153-6.943a13.338,13.338,0,0,0,.4,3.735,1.612,1.612,0,0,0,1.641,1.294A1.59,1.59,0,0,0,28.82-3.208a13.82,13.82,0,0,0,.386-3.735,13.666,13.666,0,0,0-.386-3.789,1.576,1.576,0,0,0-1.626-1.23,1.6,1.6,0,0,0-1.641,1.23A13.189,13.189,0,0,0,25.153-6.943Zm2.041-7.314a4,4,0,0,1,3.794,1.9,11.019,11.019,0,0,1,1.089,5.41,10.96,10.96,0,0,1-1.089,5.4A4.006,4.006,0,0,1,27.194.352,4.006,4.006,0,0,1,23.4-1.543a10.96,10.96,0,0,1-1.089-5.4,11.019,11.019,0,0,1,1.089-5.41A4,4,0,0,1,27.194-14.258Zm9.427,5.352a1.5,1.5,0,0,0,1.1-.454,1.5,1.5,0,0,0,.454-1.1,1.5,1.5,0,0,0-.454-1.1,1.5,1.5,0,0,0-1.1-.454,1.5,1.5,0,0,0-1.1.454,1.5,1.5,0,0,0-.454,1.1,1.5,1.5,0,0,0,.454,1.1A1.5,1.5,0,0,0,36.621-8.906Zm3.633-1.553a3.508,3.508,0,0,1-1.06,2.568,3.5,3.5,0,0,1-2.573,1.064,3.5,3.5,0,0,1-2.568-1.064,3.5,3.5,0,0,1-1.064-2.568,3.5,3.5,0,0,1,1.064-2.568,3.5,3.5,0,0,1,2.568-1.064,3.5,3.5,0,0,1,2.568,1.064A3.5,3.5,0,0,1,40.254-10.459ZM47.666-3.35a1.5,1.5,0,0,0-.454-1.1,1.5,1.5,0,0,0-1.1-.454,1.5,1.5,0,0,0-1.1.454,1.5,1.5,0,0,0-.454,1.1,1.5,1.5,0,0,0,.454,1.1,1.5,1.5,0,0,0,1.1.454,1.5,1.5,0,0,0,1.1-.454A1.5,1.5,0,0,0,47.666-3.35Zm2.08,0A3.5,3.5,0,0,1,48.681-.781,3.5,3.5,0,0,1,46.113.283,3.5,3.5,0,0,1,43.545-.781,3.5,3.5,0,0,1,42.48-3.35a3.5,3.5,0,0,1,1.064-2.573,3.508,3.508,0,0,1,2.568-1.06,3.5,3.5,0,0,1,2.568,1.064A3.5,3.5,0,0,1,49.746-3.35ZM44.56-14.16h1.484L38.154.371H36.64Z" transform="translate(-3155 1520)" fill="#242549"/></g><g transform="translate(-1)" style="isolation:isolate"><path d="M.625,0a6.654,6.654,0,0,1,.654-2.783,7.869,7.869,0,0,1,2.813-3,20.625,20.625,0,0,0,2.49-1.973,2.915,2.915,0,0,0,.869-2.031,2.25,2.25,0,0,0-.5-1.494,1.754,1.754,0,0,0-1.426-.6,1.739,1.739,0,0,0-1.729.947,4.7,4.7,0,0,0-.312,1.738H.781a6.841,6.841,0,0,1,.654-2.92,4.075,4.075,0,0,1,3.955-2.119,5.015,5.015,0,0,1,3.574,1.245,4.305,4.305,0,0,1,1.328,3.3,4.462,4.462,0,0,1-.937,2.793A9.34,9.34,0,0,1,7.334-5.088L6.221-4.3Q5.176-3.555,4.79-3.223a3.148,3.148,0,0,0-.649.771h6.182V0ZM25.153-6.943a13.338,13.338,0,0,0,.4,3.735,1.612,1.612,0,0,0,1.641,1.294A1.59,1.59,0,0,0,28.82-3.208a13.82,13.82,0,0,0,.386-3.735,13.666,13.666,0,0,0-.386-3.789,1.576,1.576,0,0,0-1.626-1.23,1.6,1.6,0,0,0-1.641,1.23A13.189,13.189,0,0,0,25.153-6.943Zm2.041-7.314a4,4,0,0,1,3.794,1.9,11.019,11.019,0,0,1,1.089,5.41,10.96,10.96,0,0,1-1.089,5.4A4.006,4.006,0,0,1,27.194.352,4.006,4.006,0,0,1,23.4-1.543a10.96,10.96,0,0,1-1.089-5.4,11.019,11.019,0,0,1,1.089-5.41A4,4,0,0,1,27.194-14.258Zm9.427,5.352a1.5,1.5,0,0,0,1.1-.454,1.5,1.5,0,0,0,.454-1.1,1.5,1.5,0,0,0-.454-1.1,1.5,1.5,0,0,0-1.1-.454,1.5,1.5,0,0,0-1.1.454,1.5,1.5,0,0,0-.454,1.1,1.5,1.5,0,0,0,.454,1.1A1.5,1.5,0,0,0,36.621-8.906Zm3.633-1.553a3.508,3.508,0,0,1-1.06,2.568,3.5,3.5,0,0,1-2.573,1.064,3.5,3.5,0,0,1-2.568-1.064,3.5,3.5,0,0,1-1.064-2.568,3.5,3.5,0,0,1,1.064-2.568,3.5,3.5,0,0,1,2.568-1.064,3.5,3.5,0,0,1,2.568,1.064A3.5,3.5,0,0,1,40.254-10.459ZM47.666-3.35a1.5,1.5,0,0,0-.454-1.1,1.5,1.5,0,0,0-1.1-.454,1.5,1.5,0,0,0-1.1.454,1.5,1.5,0,0,0-.454,1.1,1.5,1.5,0,0,0,.454,1.1,1.5,1.5,0,0,0,1.1.454,1.5,1.5,0,0,0,1.1-.454A1.5,1.5,0,0,0,47.666-3.35Zm2.08,0A3.5,3.5,0,0,1,48.681-.781,3.5,3.5,0,0,1,46.113.283,3.5,3.5,0,0,1,43.545-.781,3.5,3.5,0,0,1,42.48-3.35a3.5,3.5,0,0,1,1.064-2.573,3.508,3.508,0,0,1,2.568-1.06,3.5,3.5,0,0,1,2.568,1.064A3.5,3.5,0,0,1,49.746-3.35ZM44.56-14.16h1.484L38.154.371H36.64Z" transform="translate(-3080 1480)" fill="#242549"/><path d="M3.589-4.707a2.916,2.916,0,0,0,.646,1.958,2.061,2.061,0,0,0,1.641.759,1.822,1.822,0,0,0,1.533-.733,3.052,3.052,0,0,0,.559-1.9,2.846,2.846,0,0,0-.636-1.994,2.035,2.035,0,0,0-1.559-.692A2.081,2.081,0,0,0,4.45-6.86,2.554,2.554,0,0,0,3.589-4.707ZM7.7-11.125a1.491,1.491,0,0,0-.277-.79A1.6,1.6,0,0,0,6-12.612a2.107,2.107,0,0,0-2.03,1.6,9.926,9.926,0,0,0-.451,2.6,3.28,3.28,0,0,1,1.261-.943,4.256,4.256,0,0,1,1.641-.3A4.263,4.263,0,0,1,9.664-8.306a4.806,4.806,0,0,1,1.266,3.435A5.8,5.8,0,0,1,9.69-1.2,4.587,4.587,0,0,1,5.834.39,4.437,4.437,0,0,1,1.692-1.958,9.575,9.575,0,0,1,.656-6.7,21.542,21.542,0,0,1,.8-9.464a8.466,8.466,0,0,1,.995-3.158,5.089,5.089,0,0,1,1.666-1.733,4.494,4.494,0,0,1,2.466-.656,4.882,4.882,0,0,1,3.3,1.061,4.036,4.036,0,0,1,1.384,2.825Z" transform="translate(-3069.725 1480.6)" fill="#242549"/></g><g transform="translate(0 -5)" style="isolation:isolate"><path d="M.625,0a6.654,6.654,0,0,1,.654-2.783,7.869,7.869,0,0,1,2.813-3,20.625,20.625,0,0,0,2.49-1.973,2.915,2.915,0,0,0,.869-2.031,2.25,2.25,0,0,0-.5-1.494,1.754,1.754,0,0,0-1.426-.6,1.739,1.739,0,0,0-1.729.947,4.7,4.7,0,0,0-.312,1.738H.781a6.841,6.841,0,0,1,.654-2.92,4.075,4.075,0,0,1,3.955-2.119,5.015,5.015,0,0,1,3.574,1.245,4.305,4.305,0,0,1,1.328,3.3,4.462,4.462,0,0,1-.937,2.793A9.34,9.34,0,0,1,7.334-5.088L6.221-4.3Q5.176-3.555,4.79-3.223a3.148,3.148,0,0,0-.649.771h6.182V0ZM14.144-3.789a2.686,2.686,0,0,0,.635,1.4,1.8,1.8,0,0,0,1.367.493,1.845,1.845,0,0,0,1.577-.728,2.981,2.981,0,0,0,.542-1.831,3.181,3.181,0,0,0-.508-1.831,1.779,1.779,0,0,0-1.582-.747A2.722,2.722,0,0,0,15.3-6.9a1.747,1.747,0,0,0-.986.869l-2.5-.117,1-7.822h7.8v2.363H14.818l-.508,3.1a5.818,5.818,0,0,1,1.006-.557A4.259,4.259,0,0,1,16.79-9.3a4.429,4.429,0,0,1,3.066,1.182,4.394,4.394,0,0,1,1.309,3.438,5.393,5.393,0,0,1-1.26,3.506A4.581,4.581,0,0,1,16.136.371a5.007,5.007,0,0,1-3.32-1.084A4.211,4.211,0,0,1,11.37-3.789ZM25.778-8.906a1.5,1.5,0,0,0,1.1-.454,1.5,1.5,0,0,0,.454-1.1,1.5,1.5,0,0,0-.454-1.1,1.5,1.5,0,0,0-1.1-.454,1.5,1.5,0,0,0-1.1.454,1.5,1.5,0,0,0-.454,1.1,1.5,1.5,0,0,0,.454,1.1A1.5,1.5,0,0,0,25.778-8.906Zm3.633-1.553a3.508,3.508,0,0,1-1.06,2.568,3.5,3.5,0,0,1-2.573,1.064A3.5,3.5,0,0,1,23.21-7.891a3.5,3.5,0,0,1-1.064-2.568,3.5,3.5,0,0,1,1.064-2.568,3.5,3.5,0,0,1,2.568-1.064,3.5,3.5,0,0,1,2.568,1.064A3.5,3.5,0,0,1,29.411-10.459ZM36.823-3.35a1.5,1.5,0,0,0-.454-1.1,1.5,1.5,0,0,0-1.1-.454,1.5,1.5,0,0,0-1.1.454,1.5,1.5,0,0,0-.454,1.1,1.5,1.5,0,0,0,.454,1.1,1.5,1.5,0,0,0,1.1.454,1.5,1.5,0,0,0,1.1-.454A1.5,1.5,0,0,0,36.823-3.35Zm2.08,0A3.5,3.5,0,0,1,37.838-.781,3.5,3.5,0,0,1,35.27.283,3.5,3.5,0,0,1,32.7-.781,3.5,3.5,0,0,1,31.637-3.35,3.5,3.5,0,0,1,32.7-5.923a3.508,3.508,0,0,1,2.568-1.06,3.5,3.5,0,0,1,2.568,1.064A3.5,3.5,0,0,1,38.9-3.35ZM33.717-14.16H35.2L27.311.371H25.8Z" transform="translate(-3525 1720)" fill="#242549"/></g><path d="M-3605,1785h-55.227l-5.773,10,5.773,10H-3605l5.773-10Z" fill="#242549"/><g transform="translate(33)" style="isolation:isolate"><path d="M6.8-1.98H5.757V0H3.986V-1.98H.343V-3.561L3.726-9.147H5.757V-3.4H6.8ZM3.986-3.4V-7.37L1.682-3.4Zm5.9-2.393a.973.973,0,0,0,.714-.3.973.973,0,0,0,.3-.714.973.973,0,0,0-.3-.714.973.973,0,0,0-.714-.3.973.973,0,0,0-.714.3.973.973,0,0,0-.3.714.973.973,0,0,0,.3.714A.973.973,0,0,0,9.89-5.789ZM12.251-6.8a2.28,2.28,0,0,1-.689,1.669,2.272,2.272,0,0,1-1.673.692A2.275,2.275,0,0,1,8.22-5.129,2.275,2.275,0,0,1,7.528-6.8,2.275,2.275,0,0,1,8.22-8.468,2.275,2.275,0,0,1,9.89-9.16a2.275,2.275,0,0,1,1.669.692A2.275,2.275,0,0,1,12.251-6.8Zm4.818,4.621a.973.973,0,0,0-.3-.714.973.973,0,0,0-.714-.3.973.973,0,0,0-.714.3.973.973,0,0,0-.3.714.973.973,0,0,0,.3.714.973.973,0,0,0,.714.3.973.973,0,0,0,.714-.3A.973.973,0,0,0,17.069-2.177Zm1.352,0a2.275,2.275,0,0,1-.692,1.669A2.275,2.275,0,0,1,16.06.184,2.275,2.275,0,0,1,14.39-.508,2.275,2.275,0,0,1,13.7-2.177,2.272,2.272,0,0,1,14.39-3.85a2.28,2.28,0,0,1,1.669-.689,2.275,2.275,0,0,1,1.669.692A2.275,2.275,0,0,1,18.421-2.177ZM15.05-9.2h.965L10.886.241H9.9Z" transform="translate(-3675 1800)" fill="#fff9ea"/></g><path d="M-3455,1785h-119.227l-5.773,10,5.773,10H-3455l5.773-10Z" fill="#242549"/><path d="M-7.249-2.463a1.746,1.746,0,0,0,.413.911,1.169,1.169,0,0,0,.889.321A1.2,1.2,0,0,0-4.923-1.7a1.938,1.938,0,0,0,.352-1.19,2.068,2.068,0,0,0-.33-1.19A1.156,1.156,0,0,0-5.929-4.57a1.769,1.769,0,0,0-.571.083,1.136,1.136,0,0,0-.641.565L-8.766-4l.647-5.084h5.072v1.536H-6.811l-.33,2.012A3.782,3.782,0,0,1-6.487-5.9a2.768,2.768,0,0,1,.958-.146,2.879,2.879,0,0,1,1.993.768,2.856,2.856,0,0,1,.851,2.234A3.505,3.505,0,0,1-3.5-.762a2.978,2.978,0,0,1-2.45,1,3.254,3.254,0,0,1-2.158-.7,2.737,2.737,0,0,1-.939-2ZM.5-5.789a.973.973,0,0,0,.714-.3A.973.973,0,0,0,1.5-6.8a.973.973,0,0,0-.3-.714.973.973,0,0,0-.714-.3.973.973,0,0,0-.714.3.973.973,0,0,0-.3.714.973.973,0,0,0,.3.714A.973.973,0,0,0,.5-5.789ZM2.856-6.8a2.28,2.28,0,0,1-.689,1.669A2.272,2.272,0,0,1,.5-4.437a2.275,2.275,0,0,1-1.669-.692A2.275,2.275,0,0,1-1.866-6.8a2.275,2.275,0,0,1,.692-1.669A2.275,2.275,0,0,1,.5-9.16a2.275,2.275,0,0,1,1.669.692A2.275,2.275,0,0,1,2.856-6.8ZM7.674-2.177a.973.973,0,0,0-.3-.714.973.973,0,0,0-.714-.3.973.973,0,0,0-.714.3.973.973,0,0,0-.3.714.973.973,0,0,0,.3.714.973.973,0,0,0,.714.3.973.973,0,0,0,.714-.3A.973.973,0,0,0,7.674-2.177Zm1.352,0A2.275,2.275,0,0,1,8.334-.508,2.275,2.275,0,0,1,6.665.184,2.275,2.275,0,0,1,5-.508,2.275,2.275,0,0,1,4.3-2.177,2.272,2.272,0,0,1,5-3.85a2.28,2.28,0,0,1,1.669-.689,2.275,2.275,0,0,1,1.669.692A2.275,2.275,0,0,1,9.026-2.177ZM5.656-9.2h.965L1.492.241H.508Z" transform="translate(-3513 1800)" fill="#fff9ea"/><path d="M-3000,1785h-424.227l-5.773,10,5.773,10H-3000l5.773-10Z" fill="#242549"/><g transform="translate(38)" style="isolation:isolate"><path d="M6.8-1.98H5.757V0H3.986V-1.98H.343V-3.561L3.726-9.147H5.757V-3.4H6.8ZM3.986-3.4V-7.37L1.682-3.4Zm5.9-2.393a.973.973,0,0,0,.714-.3.973.973,0,0,0,.3-.714.973.973,0,0,0-.3-.714.973.973,0,0,0-.714-.3.973.973,0,0,0-.714.3.973.973,0,0,0-.3.714.973.973,0,0,0,.3.714A.973.973,0,0,0,9.89-5.789ZM12.251-6.8a2.28,2.28,0,0,1-.689,1.669,2.272,2.272,0,0,1-1.673.692A2.275,2.275,0,0,1,8.22-5.129,2.275,2.275,0,0,1,7.528-6.8,2.275,2.275,0,0,1,8.22-8.468,2.275,2.275,0,0,1,9.89-9.16a2.275,2.275,0,0,1,1.669.692A2.275,2.275,0,0,1,12.251-6.8Zm4.818,4.621a.973.973,0,0,0-.3-.714.973.973,0,0,0-.714-.3.973.973,0,0,0-.714.3.973.973,0,0,0-.3.714.973.973,0,0,0,.3.714.973.973,0,0,0,.714.3.973.973,0,0,0,.714-.3A.973.973,0,0,0,17.069-2.177Zm1.352,0a2.275,2.275,0,0,1-.692,1.669A2.275,2.275,0,0,1,16.06.184,2.275,2.275,0,0,1,14.39-.508,2.275,2.275,0,0,1,13.7-2.177,2.272,2.272,0,0,1,14.39-3.85a2.28,2.28,0,0,1,1.669-.689,2.275,2.275,0,0,1,1.669.692A2.275,2.275,0,0,1,18.421-2.177ZM15.05-9.2h.965L10.886.241H9.9Z" transform="translate(-3260 1800)" fill="#fff9ea"/></g></g><path d="M5.61-5.742v2.2c0,1.1-.484,1.5-1.254,1.5S3.1-2.442,3.1-3.542v-8.316c0-1.1.484-1.518,1.254-1.518s1.254.418,1.254,1.518v1.65H7.9v-1.5c0-2.464-1.232-3.872-3.608-3.872S.682-14.168.682-11.7V-3.7C.682-1.232,1.914.176,4.29.176S7.9-1.232,7.9-3.7V-5.742ZM8.668-13.2H11.2V0h2.42V-13.2h2.53v-2.2H8.668Zm13.9-2.2H19.03L16.566,0h2.222l.418-2.794h2.97L22.594,0h2.442ZM20.68-12.672l1.166,7.788H19.514ZM29.722-15.4H26.158V0h2.42V-5.786h1.144c2.42,0,3.608-1.342,3.608-3.806v-2C33.33-14.058,32.142-15.4,29.722-15.4Zm0,2.2c.77,0,1.188.352,1.188,1.452v2.31c0,1.1-.418,1.452-1.188,1.452H28.578V-13.2Zm4.026,0h2.53V0H38.7V-13.2h2.53v-2.2h-7.48Zm10.758,1.342c0-1.1.484-1.518,1.254-1.518s1.254.418,1.254,1.518v8.316c0,1.1-.484,1.518-1.254,1.518s-1.254-.418-1.254-1.518ZM42.086-3.7c0,2.464,1.3,3.872,3.674,3.872S49.434-1.232,49.434-3.7V-11.7c0-2.464-1.3-3.872-3.674-3.872s-3.674,1.408-3.674,3.872ZM54.648-15.4H51V0H54.8c2.42,0,3.674-1.276,3.674-3.652V-4.906c0-1.628-.506-2.794-1.8-3.3,1.078-.506,1.562-1.518,1.562-3.1v-.55C58.234-14.234,57.156-15.4,54.648-15.4Zm-.154,8.47c1.1,0,1.562.44,1.562,1.87v1.342c0,1.144-.44,1.518-1.254,1.518H53.416V-6.93Zm.088-6.27c.858,0,1.232.484,1.232,1.584v.858c0,1.232-.55,1.628-1.452,1.628h-.946V-13.2ZM63.492,0C65.912,0,67.1-1.342,67.1-3.806v-2c0-2.464-1.188-3.806-3.608-3.806H62.348V-15.4h-2.42V0ZM62.348-2.2V-7.414h1.144c.77,0,1.188.352,1.188,1.452v2.31c0,1.1-.418,1.452-1.188,1.452ZM70.906,0V-15.4h-2.42V0Zm4.246,0H72.666V-15.4h2.156v9.746l.88-3.388,1.98-6.358h2.662V0H78.166V-10.846l-.99,3.784Zm3.96-18.832a2.274,2.274,0,0,1-2.574,2.442,2.27,2.27,0,0,1-2.53-2.442h1.5c.066.814.4,1.012,1.034,1.012.66,0,1.034-.2,1.1-1.012Zm5.7,5.632h2.53V0h2.42V-13.2h2.53v-2.2H84.81Zm13.9-2.2H95.172L92.708,0H94.93l.418-2.794h2.97L98.736,0h2.442Zm-1.892,2.728,1.166,7.788H95.656Zm9.042-2.728H102.3V0h2.42V-5.786h1.144c2.42,0,3.608-1.342,3.608-3.806v-2C109.472-14.058,108.284-15.4,105.864-15.4Zm0,2.2c.77,0,1.188.352,1.188,1.452v2.31c0,1.1-.418,1.452-1.188,1.452H104.72V-13.2Zm9.24,6.138.99-3.784V0h2.178V-15.4H115.61l-1.98,6.358-.88,3.388V-15.4h-2.156V0h2.486ZM124.3,0h2.376V-1.738h.9c2.42,0,3.608-1.342,3.608-3.806v-4.2c0-2.464-1.188-3.806-3.608-3.806h-.9V-15.4H124.3v1.848h-.9c-2.42,0-3.608,1.342-3.608,3.806v4.2c0,2.464,1.188,3.806,3.608,3.806h.9Zm3.278-11.418c.77,0,1.21.418,1.21,1.518v4.51c0,1.1-.44,1.54-1.21,1.54h-.9v-7.568ZM124.3-3.85h-.9c-.77,0-1.21-.44-1.21-1.54V-9.9c0-1.1.44-1.518,1.21-1.518h.9Z" transform="translate(723 4497)" fill="#a6a4a6"/><path d="M-130.576-4.617a1.861,1.861,0,0,1,.214-.9,1.717,1.717,0,0,1,.565-.606,2.527,2.527,0,0,1,.844-.343,4.816,4.816,0,0,1,1.049-.108,3.461,3.461,0,0,1,1.09.152,2.275,2.275,0,0,1,.756.4,1.566,1.566,0,0,1,.439.577,1.66,1.66,0,0,1,.141.665,1.426,1.426,0,0,1-.082.5,1.223,1.223,0,0,1-.223.381,1.256,1.256,0,0,1-.325.267,1.592,1.592,0,0,1-.384.158v.023a1.538,1.538,0,0,1,.568.2,1.322,1.322,0,0,1,.381.343,1.357,1.357,0,0,1,.214.437,1.7,1.7,0,0,1,.067.466A2.037,2.037,0,0,1-125.5-.99a2.032,2.032,0,0,1-.612.68,2.586,2.586,0,0,1-.85.384,3.821,3.821,0,0,1-.946.12,5.3,5.3,0,0,1-1.14-.114,2.454,2.454,0,0,1-.891-.375,1.808,1.808,0,0,1-.583-.68A2.321,2.321,0,0,1-130.734-2h1.582a1.012,1.012,0,0,0,.082.41.95.95,0,0,0,.229.322,1.055,1.055,0,0,0,.352.211,1.3,1.3,0,0,0,.457.076,1.173,1.173,0,0,0,.507-.1.894.894,0,0,0,.319-.243.921.921,0,0,0,.167-.313,1.083,1.083,0,0,0,.05-.308.748.748,0,0,0-.249-.642,1.348,1.348,0,0,0-.794-.185h-.762V-3.879h.639a1.242,1.242,0,0,0,.788-.193.691.691,0,0,0,.231-.562A.868.868,0,0,0-127.2-5a.612.612,0,0,0-.187-.237.743.743,0,0,0-.284-.129,1.58,1.58,0,0,0-.357-.038,1.165,1.165,0,0,0-.712.2.682.682,0,0,0-.272.583Zm6.322-1.77h1.582v.914h.023a3.081,3.081,0,0,1,.357-.5,1.769,1.769,0,0,1,.416-.343,1.782,1.782,0,0,1,.507-.2,2.8,2.8,0,0,1,.63-.064,2.73,2.73,0,0,1,.6.07,2.481,2.481,0,0,1,.606.226,2.523,2.523,0,0,1,.56.4,2.461,2.461,0,0,1,.463.612,3.443,3.443,0,0,1,.316.847,4.708,4.708,0,0,1,.117,1.1,5.648,5.648,0,0,1-.167,1.418,3.243,3.243,0,0,1-.5,1.107,2.332,2.332,0,0,1-.85.721,2.649,2.649,0,0,1-1.2.258,2.6,2.6,0,0,1-.486-.047,1.98,1.98,0,0,1-.48-.158,1.8,1.8,0,0,1-.442-.3,1.851,1.851,0,0,1-.366-.478h-.023V2.473h-1.658Zm3.023,1.3a1.245,1.245,0,0,0-.671.17,1.35,1.35,0,0,0-.439.439,1.962,1.962,0,0,0-.243.609,3.073,3.073,0,0,0-.076.674q0,.182.021.4a2.671,2.671,0,0,0,.079.434,2.236,2.236,0,0,0,.161.425,1.387,1.387,0,0,0,.261.363,1.218,1.218,0,0,0,.381.255,1.317,1.317,0,0,0,.527.1,1.317,1.317,0,0,0,.527-.1,1.218,1.218,0,0,0,.381-.255,1.387,1.387,0,0,0,.261-.363,2.236,2.236,0,0,0,.161-.425,2.671,2.671,0,0,0,.079-.434q.021-.214.021-.4a3.073,3.073,0,0,0-.076-.674,1.962,1.962,0,0,0-.243-.609,1.34,1.34,0,0,0-.442-.439A1.248,1.248,0,0,0-121.23-5.086Zm4.354-1.3h1.658v3.938h.023l2.326-3.937h1.74V0h-1.652V-3.85h-.029L-115.066,0h-1.811Zm8.713,1.348H-110.1V-6.387h5.52v1.348h-1.934V0h-1.652Zm5.807,2.361a2.069,2.069,0,0,0,.018.234,1.8,1.8,0,0,0,.07.316,1.693,1.693,0,0,0,.152.343,1.181,1.181,0,0,0,.267.313,1.334,1.334,0,0,0,.41.229,1.72,1.72,0,0,0,.583.088,1.253,1.253,0,0,0,.349-.05,1.158,1.158,0,0,0,.319-.146,1.078,1.078,0,0,0,.255-.234.858.858,0,0,0,.155-.313h1.717a1.274,1.274,0,0,1-.076.4,1.937,1.937,0,0,1-.231.457,2.727,2.727,0,0,1-.39.454,2.557,2.557,0,0,1-.557.4,3.277,3.277,0,0,1-.729.278,3.611,3.611,0,0,1-.905.105,3.7,3.7,0,0,1-1.2-.19,2.543,2.543,0,0,1-.979-.6,2.85,2.85,0,0,1-.659-1.069,4.657,4.657,0,0,1-.24-1.594,4.5,4.5,0,0,1,.173-1.251,3,3,0,0,1,.539-1.058,2.631,2.631,0,0,1,.938-.729A3.169,3.169,0,0,1-101-6.574a3.291,3.291,0,0,1,1.43.278,2.358,2.358,0,0,1,.935.788,3.34,3.34,0,0,1,.507,1.23,7.752,7.752,0,0,1,.152,1.6Zm2.654-1.1a1.722,1.722,0,0,0-.126-.7,1.281,1.281,0,0,0-.316-.448,1.1,1.1,0,0,0-.419-.234A1.552,1.552,0,0,0-101-5.232a1.534,1.534,0,0,0-.434.067,1.1,1.1,0,0,0-.419.234,1.281,1.281,0,0,0-.316.448,1.722,1.722,0,0,0-.126.7ZM-90.785,0h-1.652V-5.039h-1.957L-94.43-3.85a17.555,17.555,0,0,1-.129,1.758,4.611,4.611,0,0,1-.325,1.263,1.745,1.745,0,0,1-.609.765,1.725,1.725,0,0,1-.981.258,3.3,3.3,0,0,1-.492-.032A1.417,1.417,0,0,1-97.312.07V-1.318a1.266,1.266,0,0,0,.208.064,1.38,1.38,0,0,0,.308.029.528.528,0,0,0,.334-.114.893.893,0,0,0,.252-.416,3.941,3.941,0,0,0,.164-.835q.059-.533.076-1.377l.047-2.42h5.139Zm1.74-6.387h1.658v3.938h.023l2.326-3.937h1.74V0h-1.652V-3.85h-.029L-87.234,0h-1.811Zm12.369,2.508H-75.4a2.1,2.1,0,0,0,.469-.044.756.756,0,0,0,.3-.129.453.453,0,0,0,.152-.211.9.9,0,0,0,.044-.3.753.753,0,0,0-.044-.261.466.466,0,0,0-.149-.205.786.786,0,0,0-.281-.135,1.64,1.64,0,0,0-.439-.05h-1.324Zm-1.658-2.508h3.3a4.6,4.6,0,0,1,.847.076,2.1,2.1,0,0,1,.718.267,1.41,1.41,0,0,1,.5.516,1.651,1.651,0,0,1,.185.823,1.789,1.789,0,0,1-.062.5,1.205,1.205,0,0,1-.167.36,1.107,1.107,0,0,1-.243.252,1.727,1.727,0,0,1-.284.173,1.427,1.427,0,0,1,.732.542,1.545,1.545,0,0,1,.252.888,2.074,2.074,0,0,1-.155.817,1.785,1.785,0,0,1-.439.627,1.983,1.983,0,0,1-.691.4A2.727,2.727,0,0,1-74.754,0h-3.58Zm1.658,5.209H-75.4a1.8,1.8,0,0,0,.577-.076.9.9,0,0,0,.34-.193.566.566,0,0,0,.158-.258,1.011,1.011,0,0,0,.038-.264,1.066,1.066,0,0,0-.062-.39.544.544,0,0,0-.193-.249.82.82,0,0,0-.346-.129,3.214,3.214,0,0,0-.513-.035h-1.277Zm8.83-5.209h1.658v2.426L-63.8-6.387h2.2L-64.23-3.732-61.482,0h-2.162L-65.52-2.7l-.668.674V0h-1.658Zm7.283,0H-58.9v3.938h.023l2.326-3.937h1.74V0h-1.652V-3.85H-56.5L-58.752,0h-1.811Zm7.33,0h1.658v2.309h2.438V-6.387h1.652V0h-1.652V-2.736h-2.437V0h-1.658Zm6.949,3.193a3.955,3.955,0,0,1,.226-1.359,3.044,3.044,0,0,1,.65-1.069,2.977,2.977,0,0,1,1.028-.7,3.5,3.5,0,0,1,1.359-.252,3.553,3.553,0,0,1,1.374.252,2.911,2.911,0,0,1,1.025.7,3.054,3.054,0,0,1,.642,1.069,4,4,0,0,1,.223,1.359,4,4,0,0,1-.223,1.359A3.084,3.084,0,0,1-40.62-.762a2.892,2.892,0,0,1-1.025.7A3.553,3.553,0,0,1-43.02.193a3.5,3.5,0,0,1-1.359-.252,2.957,2.957,0,0,1-1.028-.7,3.074,3.074,0,0,1-.65-1.072A3.955,3.955,0,0,1-46.283-3.193Zm1.729,0a3.286,3.286,0,0,0,.079.718,1.906,1.906,0,0,0,.261.633,1.392,1.392,0,0,0,.475.448,1.416,1.416,0,0,0,.721.17,1.492,1.492,0,0,0,.741-.167,1.326,1.326,0,0,0,.472-.439,1.826,1.826,0,0,0,.249-.627,3.626,3.626,0,0,0,.073-.735,3.639,3.639,0,0,0-.073-.732,1.826,1.826,0,0,0-.249-.63A1.326,1.326,0,0,0-42.278-5a1.492,1.492,0,0,0-.741-.167,1.416,1.416,0,0,0-.721.17,1.392,1.392,0,0,0-.475.448,1.906,1.906,0,0,0-.261.633A3.286,3.286,0,0,0-44.555-3.193Zm7.377-1.846h-1.934V-6.387h5.52v1.348h-1.934V0h-1.652Zm5.807,2.361a2.069,2.069,0,0,0,.018.234,1.8,1.8,0,0,0,.07.316,1.693,1.693,0,0,0,.152.343,1.181,1.181,0,0,0,.267.313,1.334,1.334,0,0,0,.41.229,1.72,1.72,0,0,0,.583.088,1.253,1.253,0,0,0,.349-.05,1.158,1.158,0,0,0,.319-.146,1.078,1.078,0,0,0,.255-.234.858.858,0,0,0,.155-.313h1.717a1.274,1.274,0,0,1-.076.4,1.937,1.937,0,0,1-.231.457,2.727,2.727,0,0,1-.39.454,2.557,2.557,0,0,1-.557.4,3.277,3.277,0,0,1-.729.278,3.611,3.611,0,0,1-.905.105,3.7,3.7,0,0,1-1.2-.19,2.543,2.543,0,0,1-.979-.6A2.85,2.85,0,0,1-32.8-1.67a4.657,4.657,0,0,1-.24-1.594,4.5,4.5,0,0,1,.173-1.251,3,3,0,0,1,.539-1.058,2.631,2.631,0,0,1,.938-.729,3.169,3.169,0,0,1,1.374-.272,3.291,3.291,0,0,1,1.43.278,2.358,2.358,0,0,1,.935.788,3.34,3.34,0,0,1,.507,1.23,7.752,7.752,0,0,1,.152,1.6Zm2.654-1.1a1.722,1.722,0,0,0-.126-.7,1.281,1.281,0,0,0-.316-.448,1.1,1.1,0,0,0-.419-.234,1.552,1.552,0,0,0-.439-.067,1.534,1.534,0,0,0-.434.067,1.1,1.1,0,0,0-.419.234,1.281,1.281,0,0,0-.316.448,1.722,1.722,0,0,0-.126.7Zm7.992,2.52a2.828,2.828,0,0,0,.032.472,1.129,1.129,0,0,0,.085.293.421.421,0,0,0,.12.158.476.476,0,0,0,.144.073V0h-1.834a3.088,3.088,0,0,1-.1-.3,1.568,1.568,0,0,1-.056-.448q-.193.2-.378.369a2.113,2.113,0,0,1-.413.3,2.148,2.148,0,0,1-.527.2,3.067,3.067,0,0,1-.721.073,2.373,2.373,0,0,1-.788-.126A1.747,1.747,0,0,1-25.787-.3,1.669,1.669,0,0,1-26.2-.92a2.309,2.309,0,0,1-.146-.855,2.111,2.111,0,0,1,.123-.729,1.831,1.831,0,0,1,.349-.592,1.862,1.862,0,0,1,.551-.422,2.311,2.311,0,0,1,.729-.226l1.623-.24q.088-.012.19-.035a.605.605,0,0,0,.19-.079.457.457,0,0,0,.146-.152.5.5,0,0,0,.059-.261.815.815,0,0,0-.05-.29A.542.542,0,0,0-22.6-5.03a.823.823,0,0,0-.313-.149,1.92,1.92,0,0,0-.489-.053,1.741,1.741,0,0,0-.536.067.783.783,0,0,0-.319.188.716.716,0,0,0-.17.281,1.869,1.869,0,0,0-.076.343h-1.658a1.929,1.929,0,0,1,.038-.325,2.245,2.245,0,0,1,.141-.454,2.43,2.43,0,0,1,.287-.5,2,2,0,0,1,.486-.46,2.7,2.7,0,0,1,.735-.343,3.638,3.638,0,0,1,1.037-.141,4.578,4.578,0,0,1,1.386.173,2.174,2.174,0,0,1,.826.451,1.4,1.4,0,0,1,.4.621,2.372,2.372,0,0,1,.1.683Zm-1.658-1.857q-.152.082-.3.149a1.869,1.869,0,0,1-.4.114l-.439.082a3.974,3.974,0,0,0-.5.123,1.136,1.136,0,0,0-.36.185.734.734,0,0,0-.217.278,1.007,1.007,0,0,0-.073.41.891.891,0,0,0,.064.354.657.657,0,0,0,.179.246.748.748,0,0,0,.267.144,1.11,1.11,0,0,0,.328.047A1.8,1.8,0,0,0-23.607-1a1.578,1.578,0,0,0,.311-.079,1.7,1.7,0,0,0,.328-.161,1.143,1.143,0,0,0,.293-.267,1.367,1.367,0,0,0,.211-.4,1.715,1.715,0,0,0,.082-.56Zm4.553-1.922h-1.934V-6.387h5.52v1.348h-1.934V0H-17.83Zm4.57-1.348h1.582v.914h.023a3.081,3.081,0,0,1,.357-.5,1.769,1.769,0,0,1,.416-.343,1.782,1.782,0,0,1,.507-.2,2.8,2.8,0,0,1,.63-.064,2.73,2.73,0,0,1,.6.07,2.481,2.481,0,0,1,.606.226,2.523,2.523,0,0,1,.56.4,2.461,2.461,0,0,1,.463.612,3.443,3.443,0,0,1,.316.847,4.708,4.708,0,0,1,.117,1.1,5.648,5.648,0,0,1-.167,1.418,3.243,3.243,0,0,1-.5,1.107,2.332,2.332,0,0,1-.85.721A2.649,2.649,0,0,1-9.8.193a2.6,2.6,0,0,1-.486-.047,1.98,1.98,0,0,1-.48-.158,1.8,1.8,0,0,1-.442-.3,1.851,1.851,0,0,1-.366-.478H-11.6V2.473H-13.26Zm3.023,1.3a1.245,1.245,0,0,0-.671.17,1.35,1.35,0,0,0-.439.439,1.962,1.962,0,0,0-.243.609,3.073,3.073,0,0,0-.076.674q0,.182.021.4a2.671,2.671,0,0,0,.079.434,2.236,2.236,0,0,0,.161.425,1.387,1.387,0,0,0,.261.363,1.218,1.218,0,0,0,.381.255,1.317,1.317,0,0,0,.527.1,1.317,1.317,0,0,0,.527-.1,1.218,1.218,0,0,0,.381-.255,1.387,1.387,0,0,0,.261-.363,2.236,2.236,0,0,0,.161-.425A2.671,2.671,0,0,0-8.827-2.8q.021-.214.021-.4a3.073,3.073,0,0,0-.076-.674,1.962,1.962,0,0,0-.243-.609,1.34,1.34,0,0,0-.442-.439A1.248,1.248,0,0,0-10.236-5.086Zm5.543,2.408a2.069,2.069,0,0,0,.018.234,1.8,1.8,0,0,0,.07.316,1.693,1.693,0,0,0,.152.343,1.181,1.181,0,0,0,.267.313,1.334,1.334,0,0,0,.41.229,1.72,1.72,0,0,0,.583.088,1.253,1.253,0,0,0,.349-.05,1.158,1.158,0,0,0,.319-.146,1.078,1.078,0,0,0,.255-.234A.858.858,0,0,0-2.115-1.9H-.4a1.274,1.274,0,0,1-.076.4,1.937,1.937,0,0,1-.231.457,2.727,2.727,0,0,1-.39.454,2.557,2.557,0,0,1-.557.4,3.277,3.277,0,0,1-.729.278,3.611,3.611,0,0,1-.905.105A3.7,3.7,0,0,1-4.485,0a2.543,2.543,0,0,1-.979-.6A2.85,2.85,0,0,1-6.123-1.67a4.657,4.657,0,0,1-.24-1.594A4.5,4.5,0,0,1-6.19-4.515a3,3,0,0,1,.539-1.058A2.631,2.631,0,0,1-4.714-6.3,3.169,3.169,0,0,1-3.34-6.574,3.291,3.291,0,0,1-1.91-6.3a2.358,2.358,0,0,1,.935.788,3.34,3.34,0,0,1,.507,1.23,7.752,7.752,0,0,1,.152,1.6Zm2.654-1.1a1.722,1.722,0,0,0-.126-.7,1.281,1.281,0,0,0-.316-.448A1.1,1.1,0,0,0-2.9-5.165a1.552,1.552,0,0,0-.439-.067,1.534,1.534,0,0,0-.434.067,1.1,1.1,0,0,0-.419.234,1.281,1.281,0,0,0-.316.448,1.722,1.722,0,0,0-.126.7Z" transform="translate(803 4582)" fill="#242549"/><path d="M4.224-15.4H.858V0H2.97V-10.89L4.774,0H7.062L8.734-11.044V0h2.288V-15.4H7.656L6.006-4.466Zm13.926,0H14.608L12.144,0h2.222l.418-2.794h2.97L18.172,0h2.442Zm-1.892,2.728,1.166,7.788H15.092ZM21.054.022h.374c2.42,0,3.432-1.1,3.52-3.916l.264-9.306h2.112V0h2.464V-15.4H22.946l-.4,11.638c-.044,1.43-.4,1.584-1.5,1.584Zm12.8-11.88c0-1.1.484-1.518,1.254-1.518s1.254.418,1.254,1.518v8.316c0,1.1-.484,1.518-1.254,1.518s-1.254-.418-1.254-1.518ZM31.438-3.7c0,2.464,1.3,3.872,3.674,3.872S38.786-1.232,38.786-3.7V-11.7c0-2.464-1.3-3.872-3.674-3.872s-3.674,1.408-3.674,3.872ZM44-15.4H40.348V0h3.806c2.42,0,3.674-1.276,3.674-3.652V-4.906c0-1.628-.506-2.794-1.8-3.3,1.078-.506,1.562-1.518,1.562-3.1v-.55C47.586-14.234,46.508-15.4,44-15.4Zm-.154,8.47c1.1,0,1.562.44,1.562,1.87v1.342c0,1.144-.44,1.518-1.254,1.518H42.768V-6.93Zm.088-6.27c.858,0,1.232.484,1.232,1.584v.858c0,1.232-.55,1.628-1.452,1.628h-.946V-13.2Zm7.766,0h4.18v-2.2h-6.6V0h6.6V-2.2H51.7V-6.71h3.322v-2.2H51.7Zm9.24-2.2H57.376V0H59.8V-5.786H60.94c2.42,0,3.608-1.342,3.608-3.806v-2C64.548-14.058,63.36-15.4,60.94-15.4Zm0,2.2c.77,0,1.188.352,1.188,1.452v2.31c0,1.1-.418,1.452-1.188,1.452H59.8V-13.2Zm6.952,1.342c0-1.1.484-1.518,1.254-1.518s1.254.418,1.254,1.518v8.316c0,1.1-.484,1.518-1.254,1.518s-1.254-.418-1.254-1.518ZM65.472-3.7c0,2.464,1.3,3.872,3.674,3.872S72.82-1.232,72.82-3.7V-11.7c0-2.464-1.3-3.872-3.674-3.872s-3.674,1.408-3.674,3.872ZM76.406,0a4.736,4.736,0,0,0,.22-1.892v-2.42c0-1.43.484-1.958,1.584-1.958h.836V0h2.42V-15.4H77.814c-2.508,0-3.586,1.166-3.586,3.542v1.21c0,1.584.506,2.618,1.584,3.124-1.21.506-1.606,1.672-1.606,3.278V-1.87A4.535,4.535,0,0,1,73.942,0Zm2.64-13.2v4.73H78.1c-.9,0-1.452-.4-1.452-1.628v-1.518c0-1.1.374-1.584,1.232-1.584Zm3.476,0h2.53V0h2.42V-13.2H90v-2.2h-7.48ZM93.478-6.6h2.75V0h2.464V-15.4H96.228v6.6h-2.75v-6.6h-2.42V0h2.42ZM104.016,0c2.42,0,3.608-1.342,3.608-3.806v-2c0-2.464-1.188-3.806-3.608-3.806h-1.144V-15.4h-2.42V0Zm-1.144-2.2V-7.414h1.144c.77,0,1.188.352,1.188,1.452v2.31c0,1.1-.418,1.452-1.188,1.452ZM111.43,0V-15.4h-2.42V0Zm4.246,0H113.19V-15.4h2.156v9.746l.88-3.388,1.98-6.358h2.662V0H118.69V-10.846l-.99,3.784Zm3.96-18.832a2.274,2.274,0,0,1-2.574,2.442,2.27,2.27,0,0,1-2.53-2.442h1.5c.066.814.4,1.012,1.034,1.012.66,0,1.034-.2,1.1-1.012ZM5.61,14.258v2.2c0,1.1-.484,1.5-1.254,1.5s-1.254-.4-1.254-1.5V8.142c0-1.1.484-1.518,1.254-1.518S5.61,7.042,5.61,8.142v1.65H7.9V8.3c0-2.464-1.232-3.872-3.608-3.872S.682,5.832.682,8.3V16.3c0,2.464,1.232,3.872,3.608,3.872S7.9,18.768,7.9,16.3V14.258ZM9.372,20h6.336v2.068h2.354V17.844H17.006V4.6H14.542V17.8h-2.75V4.6H9.372ZM21.8,6.8h4.18V4.6h-6.6V20h6.6V17.8H21.8V13.29h3.322v-2.2H21.8Zm8.1,6.6h2.75V20h2.464V4.6H32.648v6.6H29.9V4.6h-2.42V20H29.9ZM42.24,4.6H38.7L36.234,20h2.222l.418-2.794h2.97L42.262,20H44.7ZM40.348,7.328l1.166,7.788H39.182ZM49.39,4.6H45.826V20h2.42V14.214H49.39c2.42,0,3.608-1.342,3.608-3.806v-2C53,5.942,51.81,4.6,49.39,4.6Zm0,2.2c.77,0,1.188.352,1.188,1.452v2.31c0,1.1-.418,1.452-1.188,1.452H48.246V6.8Zm9.24,6.138.99-3.784V20H61.8V4.6H59.136l-1.98,6.358-.88,3.388V4.6H54.12V20h2.486ZM66,20H63.514V4.6H65.67v9.746l.88-3.388L68.53,4.6h2.662V20H69.014V9.154l-.99,3.784ZM69.96,1.168a2.554,2.554,0,0,1-5.1,0h1.5c.066.814.4,1.012,1.034,1.012.66,0,1.034-.2,1.1-1.012Z" transform="translate(124 4293.2)" fill="#a6a4a6"/><path d="M4.444-15.4H.88V0H3.3V-5.786H4.444c2.42,0,3.608-1.342,3.608-3.806v-2C8.052-14.058,6.864-15.4,4.444-15.4Zm0,2.2c.77,0,1.188.352,1.188,1.452v2.31c0,1.1-.418,1.452-1.188,1.452H3.3V-13.2Zm7.15,0h4.18v-2.2h-6.6V0h6.6V-2.2h-4.18V-6.71h3.322v-2.2H11.594Zm11.044-2.2H19.1L16.632,0h2.222l.418-2.794h2.97L22.66,0H25.1Zm-1.892,2.728,1.166,7.788H19.58ZM25.542.022h.374c2.42,0,3.432-1.1,3.52-3.916L29.7-13.2h2.112V0h2.464V-15.4H27.434l-.4,11.638c-.044,1.43-.4,1.584-1.5,1.584ZM40.634-7.062l.99-3.784V0H43.8V-15.4H41.14L39.16-9.042l-.88,3.388V-15.4H36.124V0H38.61Zm9.614,1.32v2.2c0,1.1-.484,1.5-1.254,1.5s-1.254-.4-1.254-1.5v-8.316c0-1.1.484-1.518,1.254-1.518s1.254.418,1.254,1.518v1.65h2.288v-1.5c0-2.464-1.232-3.872-3.608-3.872S45.32-14.168,45.32-11.7V-3.7c0,2.464,1.232,3.872,3.608,3.872S52.536-1.232,52.536-3.7V-5.742ZM53.306-13.2h2.53V0h2.42V-13.2h2.53v-2.2h-7.48ZM66.352-7.062l.99-3.784V0H69.52V-15.4H66.858l-1.98,6.358L64-5.654V-15.4H61.842V0h2.486ZM76.164-15.4v6.248c0,1.034-.484,1.584-1.254,1.584A1.36,1.36,0,0,1,73.5-9.086V-15.4h-2.42v6.512c0,2.112,1.034,3.542,3.014,3.542A2.992,2.992,0,0,0,76.164-6.2V0h2.42V-15.4Zm6.622,8.8h2.75V0H88V-15.4H85.536v6.6h-2.75v-6.6h-2.42V0h2.42ZM93.324,0c2.42,0,3.608-1.342,3.608-3.806v-2c0-2.464-1.188-3.806-3.608-3.806H92.18V-15.4H89.76V0ZM92.18-2.2V-7.414h1.144c.77,0,1.188.352,1.188,1.452v2.31c0,1.1-.418,1.452-1.188,1.452ZM100.738,0V-15.4h-2.42V0Zm4.246,0H102.5V-15.4h2.156v9.746l.88-3.388,1.98-6.358h2.662V0H108V-10.846l-.99,3.784Zm3.96-18.832a2.274,2.274,0,0,1-2.574,2.442,2.27,2.27,0,0,1-2.53-2.442h1.5c.066.814.4,1.012,1.034,1.012.66,0,1.034-.2,1.1-1.012ZM5.61,14.258v2.2c0,1.1-.484,1.5-1.254,1.5s-1.254-.4-1.254-1.5V8.142c0-1.1.484-1.518,1.254-1.518S5.61,7.042,5.61,8.142v1.65H7.9V8.3c0-2.464-1.232-3.872-3.608-3.872S.682,5.832.682,8.3V16.3c0,2.464,1.232,3.872,3.608,3.872S7.9,18.768,7.9,16.3V14.258ZM9.372,20h6.336v2.068h2.354V17.844H17.006V4.6H14.542V17.8h-2.75V4.6H9.372ZM21.8,6.8h4.18V4.6h-6.6V20h6.6V17.8H21.8V13.29h3.322v-2.2H21.8Zm8.1,6.6h2.75V20h2.464V4.6H32.648v6.6H29.9V4.6h-2.42V20H29.9ZM42.24,4.6H38.7L36.234,20h2.222l.418-2.794h2.97L42.262,20H44.7ZM40.348,7.328l1.166,7.788H39.182ZM49.39,4.6H45.826V20h2.42V14.214H49.39c2.42,0,3.608-1.342,3.608-3.806v-2C53,5.942,51.81,4.6,49.39,4.6Zm0,2.2c.77,0,1.188.352,1.188,1.452v2.31c0,1.1-.418,1.452-1.188,1.452H48.246V6.8Zm9.24,6.138.99-3.784V20H61.8V4.6H59.136l-1.98,6.358-.88,3.388V4.6H54.12V20h2.486ZM66,20H63.514V4.6H65.67v9.746l.88-3.388L68.53,4.6h2.662V20H69.014V9.154l-.99,3.784ZM69.96,1.168a2.554,2.554,0,0,1-5.1,0h1.5c.066.814.4,1.012,1.034,1.012.66,0,1.034-.2,1.1-1.012Z" transform="translate(273 4293.2)" fill="#a6a4a6"/><path d="M4.224-15.4H.858V0H2.97V-10.89L4.774,0H7.062L8.734-11.044V0h2.288V-15.4H7.656L6.006-4.466Zm13.926,0H14.608L12.144,0h2.222l.418-2.794h2.97L18.172,0h2.442Zm-1.892,2.728,1.166,7.788H15.092ZM24.178,0V-13.2h3.96v-2.2h-6.38V0Zm10.1-7.062.99-3.784V0h2.178V-15.4H34.782L32.8-9.042l-.88,3.388V-15.4H29.766V0h2.486ZM41.184,0a4.736,4.736,0,0,0,.22-1.892v-2.42c0-1.43.484-1.958,1.584-1.958h.836V0h2.42V-15.4H42.592c-2.508,0-3.586,1.166-3.586,3.542v1.21c0,1.584.506,2.618,1.584,3.124-1.21.506-1.606,1.672-1.606,3.278V-1.87A4.535,4.535,0,0,1,38.72,0Zm2.64-13.2v4.73h-.946c-.9,0-1.452-.4-1.452-1.628v-1.518c0-1.1.374-1.584,1.232-1.584ZM56.936,0h2.486L56.056-8.536,59.422-15.4H57L53.834-8.69V-15.4h-2.42V0h2.42V-4.73l.748-1.408Zm8.1-7.062.99-3.784V0H68.2V-15.4H65.538l-1.98,6.358-.88,3.388V-15.4H60.522V0h2.486Zm7.3.462h2.75V0H77.55V-15.4H75.086v6.6h-2.75v-6.6h-2.42V0h2.42Zm9.2-5.258c0-1.1.484-1.518,1.254-1.518s1.254.418,1.254,1.518v8.316c0,1.1-.484,1.518-1.254,1.518s-1.254-.418-1.254-1.518ZM79.112-3.7c0,2.464,1.3,3.872,3.674,3.872S86.46-1.232,86.46-3.7V-11.7c0-2.464-1.3-3.872-3.674-3.872s-3.674,1.408-3.674,3.872Z" transform="translate(423 4293.2)" fill="#a6a4a6"/></g></svg>