<svg xmlns="http://www.w3.org/2000/svg" width="85.5" height="178.96" viewBox="0 0 85.5 178.96"><g transform="translate(-1032.127 -3654.33)"><path d="M.449-9.9v.744c0,1.437.719,2.259,2.1,2.259s2.1-.821,2.1-2.259v-2c0-1.322-.526-2.053-1.566-2.053a1.347,1.347,0,0,0-1.232.654L1.976-14.7H4.427v-1.283H.706l-.257,5.21H1.784v-.269c0-.642.282-.885.731-.885s.731.244.731.885v1.976c0,.642-.282.873-.731.873s-.731-.231-.731-.873V-9.9Z" transform="translate(1093.5 3670.313)" fill="#2a234a"/><g transform="translate(1040 3744.815)"><path d="M158.087,450.05H103.348a2.339,2.339,0,0,0-2.34,2.34V488.2a.468.468,0,0,0,.468.468h58.482a.468.468,0,0,0,.468-.468V452.389A2.339,2.339,0,0,0,158.087,450.05Zm.854,36.2a.936.936,0,0,1-.936.936H103.429a.936.936,0,0,1-.936-.936V452.471a.936.936,0,0,1,.936-.936H158a.936.936,0,0,1,.936.936Z" transform="translate(-95.706 -450.05)" fill="#2a2746"/><path d="M157.883,568.788H131.119a.742.742,0,0,1-.742.742h-10.4a.742.742,0,0,1-.742-.742H92.472s-1.7,0-2.154-1.088a.057.057,0,0,0-.111.02v1.057c.01,1.661,2.265,1.661,2.265,1.661h65.411s2.255,0,2.265-1.661v-1.09a.05.05,0,0,0-.1-.018C159.615,568.788,157.883,568.788,157.883,568.788Z" transform="translate(-90.166 -510.36)" fill="#2a2746"/><path d="M159.958,546.018l-5.008-15.026a.468.468,0,0,0-.444-.32H95.762a.468.468,0,0,0-.444.32L90.31,546.018a2.2,2.2,0,0,0,2.118,3.135h26.764c0-.3.332-.536.742-.536h10.4c.41,0,.742.24.742.536H157.84A2.2,2.2,0,0,0,159.958,546.018Z" transform="translate(-90.123 -491.401)" fill="#2a2746"/></g><g transform="translate(1057.476 3705.336)"><path d="M139.384,381.151c-2.691-.8-4.384-1.969-4.384-3.267,0-2.421,5.888-4.384,13.152-4.384a37.607,37.607,0,0,1,4.384.249" transform="translate(-130.616 -371.308)" fill="none" stroke="#2a2746" stroke-linecap="round" stroke-linejoin="round" stroke-width="1.5"/><path d="M166.152,375.792c2.691.8,4.384,1.969,4.384,3.268,0,2.421-5.888,4.384-13.152,4.384a37.614,37.614,0,0,1-4.384-.249" transform="translate(-139.848 -372.484)" fill="none" stroke="#2a2746" stroke-linecap="round" stroke-linejoin="round" stroke-width="1.5"/><ellipse cx="17.536" cy="6.576" rx="17.536" ry="6.576" transform="translate(0 0)" stroke-width="1.5" stroke="#2a2746" stroke-linecap="round" stroke-linejoin="round" fill="none"/><path d="M152.3,392.58a44.136,44.136,0,0,1-17.536,0c-5.241-1.137-8.768-3.262-8.768-5.7V382.5" transform="translate(-126 -375.924)" fill="none" stroke="#2a2746" stroke-linecap="round" stroke-linejoin="round" stroke-width="1.5"/><path d="M193.384,382.5v4.384c0,1.668-1.656,3.19-4.384,4.35" transform="translate(-158.313 -375.924)" fill="none" stroke="#2a2746" stroke-linecap="round" stroke-linejoin="round" stroke-width="1.5"/><path d="M152.3,401.58a41.885,41.885,0,0,1-8.768.88c-9.684,0-17.536-2.944-17.536-6.576V391.5" transform="translate(-126 -380.54)" fill="none" stroke="#2a2746" stroke-linecap="round" stroke-linejoin="round" stroke-width="1.5"/><path d="M193.384,391.5v4.384c0,1.668-1.656,3.19-4.384,4.35" transform="translate(-158.313 -380.54)" fill="none" stroke="#2a2746" stroke-linecap="round" stroke-linejoin="round" stroke-width="1.5"/><path d="M161.071,400.5v4.384c0,3.632-7.851,6.576-17.536,6.576S126,408.516,126,404.884V400.5" transform="translate(-126 -385.156)" fill="none" stroke="#2a2746" stroke-linecap="round" stroke-linejoin="round" stroke-width="1.5"/></g><g transform="translate(1060.019 3654.683)"><path d="M172.317,290.486c1.063,0,1.884-.547,1.884-2.249v-1.185c0-1.915-.821-2.432-1.884-2.432s-1.885.517-1.885,2.432v1.185C170.432,289.939,171.223,290.486,172.317,290.486Z" transform="translate(-151.332 -278.068)" fill="#2a2746"/><path d="M131.221,271.859v37.288a.69.69,0,0,0,.69.69h9.6a.692.692,0,0,1,.488.2l3.7,3.7a.691.691,0,0,0,.976,0l3.7-3.7a.693.693,0,0,1,.489-.2h9.968a.69.69,0,0,0,.691-.69V271.859a.69.69,0,0,0-.691-.69H131.911A.69.69,0,0,0,131.221,271.859Zm4.147,21.726c0-6.261,6.626-7.294,6.626-13.433,0-1.915-.669-2.432-1.732-2.432s-1.733.578-1.733,2.1v1.934a.345.345,0,0,1-.345.345h-2.47a.345.345,0,0,1-.345-.345v-1.721c0-3.4,1.7-5.349,4.984-5.349s4.984,1.945,4.984,5.349c0,6.686-6.656,9.178-6.656,12.673v.456h6.007a.345.345,0,0,1,.345.345v2.349a.345.345,0,0,1-.345.345h-8.974a.345.345,0,0,1-.345-.345Zm3.129,12.356h-1.1l-1.042-2.718-.331.623v2.1H134.95V299.12h1.072v2.972l1.4-2.972H138.5l-1.491,3.04Zm3.653-1.637a1.63,1.63,0,1,1-3.255,0v-3.547a1.63,1.63,0,1,1,3.255,0Zm4.072,1.637h-1.091v-5.846h-1.218v5.846h-1.072V299.12h3.381Zm3.7-5.846h-1.851v1.9h1.472v.974h-1.472v2h1.851v.974H147V299.12h2.923Zm-2.946-9v-1.671c0-2.037.608-3.617,2.066-4.437-1.4-.76-2.066-2.188-2.066-4.285v-.669c0-3.4,1.854-5.349,5.228-5.349s5.227,1.945,5.227,5.349v.669c0,2.1-.7,3.525-2.067,4.285,1.459.821,2.067,2.4,2.067,4.438v1.671c0,3.4-1.854,5.349-5.227,5.349S146.978,294.5,146.978,291.093Zm6.531,9h-1.851v1.9h1.472v.974h-1.472v2h1.851v.974h-2.923V299.12h2.923Zm4.209,5.846h-1.1l-1.043-2.718-.331.623v2.1h-1.072V299.12h1.072v2.972l1.4-2.972h1.072l-1.491,3.04Z" transform="translate(-131.221 -271.169)" fill="#2a2746"/><path d="M149.733,330.393c-.341,0-.555.185-.555.672v3.683c0,.487.214.673.555.673s.555-.186.555-.673v-3.683C150.289,330.578,150.074,330.393,149.733,330.393Z" transform="translate(-140.431 -301.545)" fill="#2a2746"/><path d="M174.2,307.278V305.3c0-1.672-.7-2.4-1.884-2.4s-1.885.73-1.885,2.4v1.975c0,1.884.821,2.4,1.885,2.4S174.17,309.162,174.2,307.278Z" transform="translate(-151.332 -287.444)" fill="#2a2746"/></g><path d="M-37.73,0h2.26l-3.06-7.76L-35.47-14h-2.2l-2.88,6.1V-14h-2.2V0h2.2V-4.3l.68-1.28Zm7.36-6.42.9-3.44V0h1.98V-14h-2.42l-1.8,5.78-.8,3.08V-14h-1.96V0h2.26Zm6.64.42h2.5V0h2.24V-14h-2.24v6h-2.5v-6h-2.2V0h2.2Zm8.36-4.78c0-1,.44-1.38,1.14-1.38s1.14.38,1.14,1.38v7.56c0,1-.44,1.38-1.14,1.38s-1.14-.38-1.14-1.38Zm-2.2,7.42c0,2.24,1.18,3.52,3.34,3.52s3.34-1.28,3.34-3.52v-7.28c0-2.24-1.18-3.52-3.34-3.52s-3.34,1.28-3.34,3.52Zm13.22-7.42c0-1,.44-1.38,1.14-1.38s1.14.38,1.14,1.38v7.56c0,1-.44,1.38-1.14,1.38s-1.14-.38-1.14-1.38Zm-2.2,7.42C-6.55-1.12-5.37.16-3.21.16S.13-1.12.13-3.36v-7.28c0-2.24-1.18-3.52-3.34-3.52s-3.34,1.28-3.34,3.52ZM3.75-6h2.5V0H8.49V-14H6.25v6H3.75v-6H1.55V0h2.2ZM9.47.02h.34c2.2,0,3.12-1,3.2-3.56L13.25-12h1.92V0h2.24V-14H11.19L10.83-3.42c-.04,1.3-.36,1.44-1.36,1.44ZM23.97-14H20.75L18.51,0h2.02l.38-2.54h2.7L23.99,0h2.22Zm-1.72,2.48,1.06,7.08H21.19ZM29.49,0H27.23V-14h1.96v8.86l.8-3.08L31.79-14h2.42V0H32.23V-9.86l-.9,3.44Zm3.6-17.12a2.067,2.067,0,0,1-2.34,2.22,2.064,2.064,0,0,1-2.3-2.22h1.36c.06.74.36.92.94.92.6,0,.94-.18,1-.92ZM38.01-6h2.5V0h2.24V-14H40.51v6h-2.5v-6h-2.2V0h2.2Z" transform="translate(1074.877 3833.13)" fill="#2a2746"/></g></svg>