<svg xmlns="http://www.w3.org/2000/svg" width="375" height="465.315" viewBox="0 0 375 465.315"><g transform="translate(0 -5049.23)"><g transform="translate(4.149 4900.185)"><line x2="322.65" transform="translate(28.132 459.373)" stroke-width="1" stroke="#e3ded5" stroke-linecap="square" stroke-linejoin="bevel" fill="none"/><line x2="322.65" transform="translate(28.132 409.438)" stroke-width="1" stroke="#e3ded5" stroke-linecap="square" stroke-linejoin="bevel" fill="none"/><path d="M0,0H375" transform="translate(-4.149 358.815)" fill="none" stroke="#e3ded5" stroke-width="30"/><line x2="322.65" transform="translate(28.132 309.567)" stroke-width="1" stroke="#e3ded5" stroke-linecap="square" stroke-linejoin="bevel" fill="none"/><line x2="322.65" transform="translate(28.132 259.632)" stroke-width="1" stroke="#e3ded5" stroke-linecap="square" stroke-linejoin="bevel" fill="none"/><line x2="322.65" transform="translate(28.132 209.696)" stroke-width="1" stroke="#e3ded5" stroke-linecap="square" stroke-linejoin="bevel" fill="none"/><line y1="299.612" transform="translate(314.932 159.761)" stroke-width="1" stroke="#e3ded5" stroke-linecap="square" stroke-linejoin="bevel" fill="none"/><line y1="299.612" transform="translate(279.082 159.761)" stroke-width="1" stroke="#e3ded5" stroke-linecap="square" stroke-linejoin="bevel" fill="none"/><line y1="299.612" transform="translate(241.232 159.761)" stroke-width="1" stroke="#e3ded5" stroke-linecap="square" stroke-linejoin="bevel" fill="none"/><line y1="299.612" transform="translate(207.382 159.761)" stroke-width="1" stroke="#e3ded5" stroke-linecap="square" stroke-linejoin="bevel" fill="none"/><line y1="351.612" transform="translate(171.532 159.761)" fill="none" stroke="#e3ded5" stroke-linejoin="bevel" stroke-width="1"/><line y1="299.612" transform="translate(135.682 159.761)" stroke-width="1" stroke="#e3ded5" stroke-linecap="square" stroke-linejoin="bevel" fill="none"/><line y1="351.612" transform="translate(99.832 159.761)" fill="none" stroke="#e3ded5" stroke-linejoin="bevel" stroke-width="1"/><line y1="299.612" transform="translate(63.982 159.761)" stroke-width="1" stroke="#e3ded5" stroke-linecap="square" stroke-linejoin="bevel" fill="none"/><path d="M0,299.612V0" transform="translate(28.132 159.761)" fill="none" stroke="#e3ded5" stroke-linecap="square" stroke-width="1"/><line y1="299.612" transform="translate(245.232 159.761)" stroke-width="1" stroke="#e3ded5" stroke-linecap="square" stroke-linejoin="bevel" fill="none"/><line x1="10.453" y2="10.453" transform="translate(238.006 444.587)" stroke-width="2" stroke="#e3ded5" stroke-linecap="square" stroke-linejoin="bevel" fill="none"/><line x1="10.453" y2="10.453" transform="translate(238.006 438.405)" stroke-width="2" stroke="#e3ded5" stroke-linecap="square" stroke-linejoin="bevel" fill="none"/><line x2="182.269" transform="translate(28.592 359.758)" fill="none" stroke="#292b45" stroke-width="2" opacity="0.325" style="isolation:isolate"/></g><g transform="translate(4.149 4900.185)"><path d="M2.424-8.4H.48V0H1.8V-3.156h.624c1.32,0,1.968-.732,1.968-2.076V-6.324C4.392-7.668,3.744-8.4,2.424-8.4Zm0,1.2c.42,0,.648.192.648.792v1.26c0,.6-.228.792-.648.792H1.8V-7.2Zm3.9,0H8.6V-8.4H5V0H8.6V-1.2H6.324V-3.66H8.136v-1.2H6.324ZM12.432,0h1.356L11.952-4.656,13.788-8.4h-1.32L10.74-4.74V-8.4H9.42V0h1.32V-2.58l.408-.768Zm1.584.012h.2c1.32,0,1.872-.6,1.92-2.136L16.284-7.2h1.152V0H18.78V-8.4H15.048l-.216,6.348c-.024.78-.216.864-.816.864Zm8.7-8.412H20.784L19.44,0h1.212l.228-1.524H22.5L22.728,0H24.06ZM21.684-6.912l.636,4.248H21.048ZM26.5-8.4H24.66V0h1.152V-5.94L26.8,0h1.248l.912-6.024V0H30.2V-8.4H28.368l-.9,5.964Zm5.988,4.8h1.5V0h1.344V-8.4H33.984v3.6h-1.5V-8.4h-1.32V0h1.32ZM38.232,0C39.552,0,40.2-.732,40.2-2.076V-3.168c0-1.344-.648-2.076-1.968-2.076h-.624V-8.4h-1.32V0Zm-.624-1.2V-4.044h.624c.42,0,.648.192.648.792v1.26c0,.6-.228.792-.648.792ZM42.276,0V-8.4h-1.32V0Zm2.316,0H43.236V-8.4h1.176v5.316l.48-1.848L45.972-8.4h1.452V0H46.236V-5.916L45.7-3.852Zm2.16-10.272a1.24,1.24,0,0,1-1.4,1.332,1.238,1.238,0,0,1-1.38-1.332h.816c.036.444.216.552.564.552s.564-.108.6-.552ZM52.344,0a1.818,1.818,0,0,0,1.992-2.076v-.9a1.818,1.818,0,0,0-1.992-2.076h-.768V-7.2h2.376V-8.4h-3.7V0Zm-.768-1.2V-3.852h.768c.42,0,.672.192.672.792v1.068c0,.6-.252.792-.672.792Zm5.952-.816a1.864,1.864,0,0,0,2,2.112,1.864,1.864,0,0,0,2-2.112V-6.384a1.864,1.864,0,0,0-2-2.112,1.864,1.864,0,0,0-2,2.112V-4.8h-.984V-8.4h-1.32V0h1.32V-3.6h.984Zm1.32-4.452c0-.6.264-.828.684-.828s.684.228.684.828v4.536c0,.6-.264.828-.684.828s-.684-.228-.684-.828Zm8.688,7.6v-2.3H66.96V-8.4h-3.7l-.3,6.132a1.74,1.74,0,0,1-.324,1.092h-.516v2.3h1.284V0h2.82V1.128ZM64.5-7.2h1.116v6.024H63.888a1.488,1.488,0,0,0,.372-1.116Zm7.572-1.2H70.764V-5L69.2-8.4h-1.32l1.632,3.444L67.884,0H69.24l1.2-3.732.324.648V0h1.308V-3.084L72.4-3.72,73.6,0h1.356l-1.62-4.992L74.952-8.4h-1.32L72.072-5Zm4.764,1.2h2.28V-8.4h-3.6V0h3.6V-1.2h-2.28V-3.66h1.812v-1.2H76.836Zm2.712,0h1.38V0h1.32V-7.2h1.38V-8.4h-4.08Z" transform="translate(45.548 595.264)" fill="#2a2648"/></g><g transform="translate(4.149 4900.185)"><path d="M2.472-8.4H.48V0H2.556a1.786,1.786,0,0,0,2-1.992v-.684a1.7,1.7,0,0,0-.984-1.8,1.65,1.65,0,0,0,.852-1.692v-.3C4.428-7.764,3.84-8.4,2.472-8.4ZM2.388-3.78c.6,0,.852.24.852,1.02v.732c0,.624-.24.828-.684.828H1.8V-3.78ZM2.436-7.2c.468,0,.672.264.672.864v.468c0,.672-.3.888-.792.888H1.8V-7.2Zm4.128.732c0-.6.264-.828.684-.828s.684.228.684.828v4.536c0,.6-.264.828-.684.828s-.684-.228-.684-.828ZM5.244-2.016A1.864,1.864,0,0,0,7.248.1a1.864,1.864,0,0,0,2-2.112V-6.384a1.864,1.864,0,0,0-2-2.112,1.864,1.864,0,0,0-2,2.112Zm7.4-3.852c0,.672-.3.888-.792.888h-.4v1.2h.324c.6,0,.864.288.864,1.068v.66c0,.744-.264.948-.684.948s-.684-.228-.684-.828V-2.94H10.032v.924C10.032-.672,10.7.1,12,.1s1.968-.768,1.968-2.112v-.66a1.714,1.714,0,0,0-.924-1.764,1.636,1.636,0,0,0,.924-1.728v-.216C13.968-7.728,13.3-8.5,12-8.5s-1.944.744-1.944,2.088v.624h1.212v-.684c0-.6.276-.828.7-.828s.684.2.684.96Zm4.2-2.532H14.856V0h2.076a1.786,1.786,0,0,0,2-1.992v-.684a1.7,1.7,0,0,0-.984-1.8A1.65,1.65,0,0,0,18.8-6.168v-.3C18.8-7.764,18.216-8.4,16.848-8.4Zm-.084,4.62c.6,0,.852.24.852,1.02v.732c0,.624-.24.828-.684.828h-.756V-3.78Zm.048-3.42c.468,0,.672.264.672.864v.468c0,.672-.3.888-.792.888h-.516V-7.2Zm4.86-1.2H19.728V0h1.32V-3.156h.624c1.32,0,1.968-.732,1.968-2.076V-6.324C23.64-7.668,22.992-8.4,21.672-8.4Zm0,1.2c.42,0,.648.192.648.792v1.26c0,.6-.228.792-.648.792h-.624V-7.2ZM27.18-8.4H25.248L23.9,0h1.212l.228-1.524h1.62L27.192,0h1.332ZM26.148-6.912l.636,4.248H25.512Zm2.6-.288h1.38V0h1.32V-7.2h1.38V-8.4h-4.08Zm8.976,3.348.54-2.064V0h1.188V-8.4H38l-1.08,3.468-.48,1.848V-8.4H35.268V0h1.356Zm3.984.252h1.5V0h1.344V-8.4H43.212v3.6h-1.5V-8.4h-1.32V0h1.32Zm5.8-4.8H45.516V0h2.076a1.786,1.786,0,0,0,2-1.992v-.684a1.7,1.7,0,0,0-.984-1.8,1.65,1.65,0,0,0,.852-1.692v-.3C49.464-7.764,48.876-8.4,47.508-8.4Zm-.084,4.62c.6,0,.852.24.852,1.02v.732c0,.624-.24.828-.684.828h-.756V-3.78Zm.048-3.42c.468,0,.672.264.672.864v.468c0,.672-.3.888-.792.888h-.516V-7.2Zm4.236,0h2.28V-8.4h-3.6V0h3.6V-1.2h-2.28V-3.66H53.52v-1.2H51.708Zm5.676,4.068v1.2c0,.6-.264.816-.684.816s-.684-.216-.684-.816V-6.468c0-.6.264-.828.684-.828s.684.228.684.828v.9h1.248v-.816c0-1.344-.672-2.112-1.968-2.112S54.7-7.728,54.7-6.384v4.368C54.7-.672,55.368.1,56.664.1s1.968-.768,1.968-2.112V-3.132ZM59.052-7.2h1.38V0h1.32V-7.2h1.38V-8.4h-4.08Zm7.116,3.348.54-2.064V0H67.9V-8.4H66.444l-1.08,3.468-.48,1.848V-8.4H63.708V0h1.356ZM70.188,0H68.832V-8.4h1.176v5.316l.48-1.848L71.568-8.4H73.02V0H71.832V-5.916l-.54,2.064Zm2.16-10.272a1.24,1.24,0,0,1-1.4,1.332,1.238,1.238,0,0,1-1.38-1.332h.816c.036.444.216.552.564.552s.564-.108.6-.552ZM73.98,0h3.456V1.128H78.72v-2.3h-.576V-8.4H76.8v7.2H75.3V-8.4H73.98ZM81.9-3.852l.54-2.064V0h1.188V-8.4H82.176L81.1-4.932l-.48,1.848V-8.4H79.44V0H80.8ZM85.92,0H84.564V-8.4H85.74v5.316l.48-1.848L87.3-8.4h1.452V0H87.564V-5.916l-.54,2.064Zm2.16-10.272a1.24,1.24,0,0,1-1.4,1.332,1.238,1.238,0,0,1-1.38-1.332h.816c.036.444.216.552.564.552s.564-.108.6-.552Z" transform="translate(45.548 575.161)" fill="#2a2648"/></g><rect width="13" height="13" transform="translate(31.697 5484.2)" fill="#c2b7f5"/><rect width="13" height="13" transform="translate(31.697 5464.097)" fill="#ff9169"/><g transform="translate(4.149 4900.185)"><path d="M1.248-7.176c0-.372.156-.528.432-.528s.432.156.432.528V-4.3c0,.372-.168.528-.432.528s-.432-.156-.432-.528Zm-.84,2.82A1.179,1.179,0,0,0,1.68-3.012,1.179,1.179,0,0,0,2.952-4.356v-2.76A1.179,1.179,0,0,0,1.68-8.46,1.179,1.179,0,0,0,.408-7.116ZM1.68,0h.78L5.772-8.4h-.78ZM5.412-4.1c0-.372.156-.528.432-.528s.432.156.432.528v2.88c0,.372-.168.528-.432.528s-.432-.156-.432-.528Zm-.84,2.82A1.179,1.179,0,0,0,5.844.06,1.179,1.179,0,0,0,7.116-1.284v-2.76A1.179,1.179,0,0,0,5.844-5.388,1.179,1.179,0,0,0,4.572-4.044ZM11.856-8.4H9.864V0H11.94a1.786,1.786,0,0,0,2-1.992v-.684a1.7,1.7,0,0,0-.984-1.8,1.65,1.65,0,0,0,.852-1.692v-.3C13.812-7.764,13.224-8.4,11.856-8.4Zm-.084,4.62c.6,0,.852.24.852,1.02v.732c0,.624-.24.828-.684.828h-.756V-3.78ZM11.82-7.2c.468,0,.672.264.672.864v.468c0,.672-.3.888-.792.888h-.516V-7.2Zm4.128.732c0-.6.264-.828.684-.828s.684.228.684.828v4.536c0,.6-.264.828-.684.828s-.684-.228-.684-.828Zm-1.32,4.452a1.864,1.864,0,0,0,2,2.112,1.864,1.864,0,0,0,2-2.112V-6.384a1.864,1.864,0,0,0-2-2.112,1.864,1.864,0,0,0-2,2.112Zm7.4-3.852c0,.672-.3.888-.792.888h-.4v1.2h.324c.6,0,.864.288.864,1.068v.66c0,.744-.264.948-.684.948s-.684-.228-.684-.828V-2.94H19.416v.924C19.416-.672,20.088.1,21.384.1s1.968-.768,1.968-2.112v-.66a1.714,1.714,0,0,0-.924-1.764,1.636,1.636,0,0,0,.924-1.728v-.216c0-1.344-.672-2.112-1.968-2.112s-1.944.744-1.944,2.088v.624h1.212v-.684c0-.6.276-.828.7-.828s.684.2.684.96Zm4.2-2.532H24.24V0h2.076a1.786,1.786,0,0,0,2-1.992v-.684a1.7,1.7,0,0,0-.984-1.8,1.65,1.65,0,0,0,.852-1.692v-.3C28.188-7.764,27.6-8.4,26.232-8.4Zm-.084,4.62c.6,0,.852.24.852,1.02v.732c0,.624-.24.828-.684.828H25.56V-3.78ZM26.2-7.2c.468,0,.672.264.672.864v.468c0,.672-.3.888-.792.888H25.56V-7.2Zm4.86-1.2H29.112V0h1.32V-3.156h.624c1.32,0,1.968-.732,1.968-2.076V-6.324C33.024-7.668,32.376-8.4,31.056-8.4Zm0,1.2c.42,0,.648.192.648.792v1.26c0,.6-.228.792-.648.792h-.624V-7.2Zm5.508-1.2H34.632L33.288,0H34.5l.228-1.524h1.62L36.576,0h1.332ZM35.532-6.912l.636,4.248H34.9Zm2.6-.288h1.38V0h1.32V-7.2h1.38V-8.4h-4.08ZM45.72-8.4H43.788L42.444,0h1.212l.228-1.524H45.5L45.732,0h1.332ZM44.688-6.912l.636,4.248H44.052ZM52-3.852l.54-2.064V0h1.188V-8.4H52.272l-1.08,3.468-.48,1.848V-8.4H49.536V0h1.356ZM55.98-3.6h1.5V0h1.344V-8.4H57.48v3.6h-1.5V-8.4H54.66V0h1.32Zm5.8-4.8H59.784V0H61.86a1.786,1.786,0,0,0,2-1.992v-.684a1.7,1.7,0,0,0-.984-1.8,1.65,1.65,0,0,0,.852-1.692v-.3C63.732-7.764,63.144-8.4,61.776-8.4Zm-.084,4.62c.6,0,.852.24.852,1.02v.732c0,.624-.24.828-.684.828H61.1V-3.78ZM61.74-7.2c.468,0,.672.264.672.864v.468c0,.672-.3.888-.792.888H61.1V-7.2Zm4.236,0h2.28V-8.4h-3.6V0h3.6V-1.2h-2.28V-3.66h1.812v-1.2H65.976Zm5.676,4.068v1.2c0,.6-.264.816-.684.816s-.684-.216-.684-.816V-6.468c0-.6.264-.828.684-.828s.684.228.684.828v.9H72.9v-.816c0-1.344-.672-2.112-1.968-2.112s-1.968.768-1.968,2.112v4.368C68.964-.672,69.636.1,70.932.1S72.9-.672,72.9-2.016V-3.132ZM73.32-7.2H74.7V0h1.32V-7.2H77.4V-8.4H73.32Zm7.116,3.348.54-2.064V0h1.188V-8.4H80.712l-1.08,3.468-.48,1.848V-8.4H77.976V0h1.356ZM83.1,0h3.456V1.128H87.84v-2.3h-.576V-8.4H85.92v7.2h-1.5V-8.4H83.1Zm7.92-3.852.54-2.064V0h1.188V-8.4H91.3l-1.08,3.468-.48,1.848V-8.4H88.56V0h1.356ZM95.04,0H93.684V-8.4H94.86v5.316l.48-1.848L96.42-8.4h1.452V0H96.684V-5.916l-.54,2.064ZM97.2-10.272A1.24,1.24,0,0,1,95.8-8.94a1.238,1.238,0,0,1-1.38-1.332h.816c.036.444.216.552.564.552s.564-.108.6-.552Zm4.308,3.864h1.02V0h1.32V-8.4h-.888a1.308,1.308,0,0,1-1.452,1.056Zm5.148-.06c0-.6.264-.828.684-.828s.684.228.684.828v4.536c0,.6-.264.828-.684.828s-.684-.228-.684-.828Zm-1.32,4.452a1.864,1.864,0,0,0,2,2.112,1.864,1.864,0,0,0,2-2.112V-6.384a1.864,1.864,0,0,0-2-2.112,1.864,1.864,0,0,0-2,2.112Zm6.072-4.452c0-.6.264-.828.684-.828s.684.228.684.828v4.536c0,.6-.264.828-.684.828s-.684-.228-.684-.828Zm-1.32,4.452a1.864,1.864,0,0,0,2,2.112,1.864,1.864,0,0,0,2-2.112V-6.384a1.864,1.864,0,0,0-2-2.112,1.864,1.864,0,0,0-2,2.112ZM116.424-7.2h1.38V0h1.32V-7.2h1.38V-8.4h-4.08Zm6.6,7.2c1.32,0,1.968-.732,1.968-2.076V-3.168c0-1.344-.648-2.076-1.968-2.076H122.4V-8.4h-1.32V0ZM122.4-1.2V-4.044h.624c.42,0,.648.192.648.792v1.26c0,.6-.228.792-.648.792ZM127.068,0V-8.4h-1.32V0Zm3.54-3.132v1.2c0,.6-.264.816-.684.816s-.684-.216-.684-.816V-6.468c0-.6.264-.828.684-.828s.684.228.684.828v.9h1.248v-.816c0-1.344-.672-2.112-1.968-2.112s-1.968.768-1.968,2.112v4.368c0,1.344.672,2.112,1.968,2.112s1.968-.768,1.968-2.112V-3.132Zm2.052,1.86V0h1.272V-1.272Zm6.636-4.6c0,.672-.3.888-.792.888h-.4v1.2h.324c.6,0,.864.288.864,1.068v.66c0,.744-.264.948-.684.948s-.684-.228-.684-.828V-2.94H136.68v.924c0,1.344.672,2.112,1.968,2.112s1.968-.768,1.968-2.112v-.66a1.714,1.714,0,0,0-.924-1.764,1.636,1.636,0,0,0,.924-1.728v-.216c0-1.344-.672-2.112-1.968-2.112s-1.944.744-1.944,2.088v.624h1.212v-.684c0-.6.276-.828.7-.828s.684.2.684.96ZM143.448-8.4H141.5V0h1.32V-3.156h.624c1.32,0,1.968-.732,1.968-2.076V-6.324C145.416-7.668,144.768-8.4,143.448-8.4Zm0,1.2c.42,0,.648.192.648.792v1.26c0,.6-.228.792-.648.792h-.624V-7.2Zm5.04,3.348.54-2.064V0h1.188V-8.4h-1.452l-1.08,3.468-.48,1.848V-8.4h-1.176V0h1.356Zm2.28-3.348h1.38V0h1.32V-7.2h1.38V-8.4h-4.08Zm5.976,0h2.28V-8.4h-3.6V0h3.6V-1.2h-2.28V-3.66h1.812v-1.2h-1.812ZM159.468.012h.2c1.32,0,1.872-.6,1.92-2.136l.144-5.076h1.152V0h1.344V-8.4H160.5l-.216,6.348c-.024.78-.216.864-.816.864ZM166.56-7.2h2.28V-8.4h-3.6V0h3.6V-1.2h-2.28V-3.66h1.812v-1.2H166.56ZM171.012,0h-1.356V-8.4h1.176v5.316l.48-1.848,1.08-3.468h1.452V0h-1.188V-5.916l-.54,2.064Zm2.16-10.272a1.24,1.24,0,0,1-1.4,1.332,1.238,1.238,0,0,1-1.38-1.332h.816c.036.444.216.552.564.552s.564-.108.6-.552Z" transform="translate(45.548 554.335)" fill="#2a2648"/></g><path d="M-3.06-6.468c0-.6.264-.828.684-.828s.684.228.684.828v4.536c0,.6-.264.828-.684.828s-.684-.228-.684-.828ZM-4.38-2.016A1.864,1.864,0,0,0-2.376.1a1.864,1.864,0,0,0,2-2.112V-6.384a1.864,1.864,0,0,0-2-2.112,1.864,1.864,0,0,0-2,2.112Z" transform="translate(25.335 5372.561) rotate(-45)" fill="#a6a4a6"/><path d="M1.692-6.468c0-.6.264-.828.684-.828s.684.228.684.828v4.536c0,.6-.264.828-.684.828s-.684-.228-.684-.828ZM.372-2.016A1.864,1.864,0,0,0,2.376.1a1.864,1.864,0,0,0,2-2.112V-6.384a1.864,1.864,0,0,0-2-2.112,1.864,1.864,0,0,0-2,2.112Zm4.86.744V0H6.5V-1.272ZM7.4-2.712v.7C7.4-.672,8.076.1,9.372.1S11.34-.672,11.34-2.016V-3.888c0-1.236-.492-1.92-1.464-1.92A1.259,1.259,0,0,0,8.724-5.2l.108-2h2.292V-8.4H7.644L7.4-3.528H8.652V-3.78c0-.6.264-.828.684-.828s.684.228.684.828v1.848c0,.6-.264.816-.684.816s-.684-.216-.684-.816v-.78ZM13.692-7.2h1.38V0h1.32V-7.2h1.38V-8.4h-4.08Zm6.6,7.2c1.32,0,1.968-.732,1.968-2.076V-3.168c0-1.344-.648-2.076-1.968-2.076h-.624V-8.4h-1.32V0Zm-.624-1.2V-4.044h.624c.42,0,.648.192.648.792v1.26c0,.6-.228.792-.648.792ZM24.336,0V-8.4h-1.32V0Zm3.54-3.132v1.2c0,.6-.264.816-.684.816s-.684-.216-.684-.816V-6.468c0-.6.264-.828.684-.828s.684.228.684.828v.9h1.248v-.816c0-1.344-.672-2.112-1.968-2.112s-1.968.768-1.968,2.112v4.368C25.188-.672,25.86.1,27.156.1s1.968-.768,1.968-2.112V-3.132ZM29.808-7.32,29.472-6.3l1.968.336-1.4,1.4.864.636L31.824-5.7l.924,1.776.864-.636-1.4-1.4L34.176-6.3,33.84-7.32l-1.788.9.312-1.98h-1.08L31.6-6.42Z" transform="translate(57.678 5393.066) rotate(-45)" fill="#a6a4a6"/><path d="M-22.332-6.408h1.02V0h1.32V-8.4h-.888a1.308,1.308,0,0,1-1.452,1.056Zm7.62-1.992h-1.836V0H-15.4V-5.94L-14.412,0h1.248l.912-6.024V0H-11V-8.4H-12.84l-.9,5.964Zm4.3,8.412h.2c1.32,0,1.872-.6,1.92-2.136L-8.148-7.2H-7V0h1.344V-8.4H-9.384L-9.6-2.052c-.024.78-.216.864-.816.864ZM-3.324-3.6h1.5V0H-.48V-8.4H-1.824v3.6h-1.5V-8.4h-1.32V0h1.32Z" transform="translate(114.034 5372.561) rotate(-45)" fill="#a6a4a6"/><path d="M-29.316-6.408h1.02V0h1.32V-8.4h-.888a1.308,1.308,0,0,1-1.452,1.056Zm3.936,5.136V0h1.272V-1.272Zm2.172-1.44v.7C-23.208-.672-22.536.1-21.24.1s1.968-.768,1.968-2.112V-3.888c0-1.236-.492-1.92-1.464-1.92a1.259,1.259,0,0,0-1.152.612l.108-2h2.292V-8.4h-3.48l-.24,4.872h1.248V-3.78c0-.6.264-.828.684-.828s.684.228.684.828v1.848c0,.6-.264.816-.684.816s-.684-.216-.684-.816v-.78Zm8.5-5.688h-1.836V0H-15.4V-5.94L-14.412,0h1.248l.912-6.024V0H-11V-8.4H-12.84l-.9,5.964Zm4.3,8.412h.2c1.32,0,1.872-.6,1.92-2.136L-8.148-7.2H-7V0h1.344V-8.4H-9.384L-9.6-2.052c-.024.78-.216.864-.816.864ZM-3.324-3.6h1.5V0H-.48V-8.4H-1.824v3.6h-1.5V-8.4h-1.32V0h1.32Z" transform="translate(149.885 5372.561) rotate(-45)" fill="#a6a4a6"/><path d="M-20.532-6.336c0,2.424-2.616,2.832-2.616,5.3V0h3.816V-1.2h-2.5a.908.908,0,0,1-.012-.18c0-1.38,2.628-2.364,2.628-5,0-1.344-.672-2.112-1.968-2.112s-1.968.768-1.968,2.112v.816H-21.9v-.9c0-.6.264-.828.684-.828S-20.532-7.092-20.532-6.336Zm5.82-2.064h-1.836V0H-15.4V-5.94L-14.412,0h1.248l.912-6.024V0H-11V-8.4H-12.84l-.9,5.964Zm4.3,8.412h.2c1.32,0,1.872-.6,1.92-2.136L-8.148-7.2H-7V0h1.344V-8.4H-9.384L-9.6-2.052c-.024.78-.216.864-.816.864ZM-3.324-3.6h1.5V0H-.48V-8.4H-1.824v3.6h-1.5V-8.4h-1.32V0h1.32Z" transform="translate(185.734 5372.561) rotate(-45)" fill="#a6a4a6"/><path d="M-27.516-6.336c0,2.424-2.616,2.832-2.616,5.3V0h3.816V-1.2h-2.5a.908.908,0,0,1-.012-.18c0-1.38,2.628-2.364,2.628-5,0-1.344-.672-2.112-1.968-2.112s-1.968.768-1.968,2.112v.816h1.248v-.9c0-.6.264-.828.684-.828S-27.516-7.092-27.516-6.336Zm2.136,5.064V0h1.272V-1.272Zm2.172-1.44v.7C-23.208-.672-22.536.1-21.24.1s1.968-.768,1.968-2.112V-3.888c0-1.236-.492-1.92-1.464-1.92a1.259,1.259,0,0,0-1.152.612l.108-2h2.292V-8.4h-3.48l-.24,4.872h1.248V-3.78c0-.6.264-.828.684-.828s.684.228.684.828v1.848c0,.6-.264.816-.684.816s-.684-.216-.684-.816v-.78Zm8.5-5.688h-1.836V0H-15.4V-5.94L-14.412,0h1.248l.912-6.024V0H-11V-8.4H-12.84l-.9,5.964Zm4.3,8.412h.2c1.32,0,1.872-.6,1.92-2.136L-8.148-7.2H-7V0h1.344V-8.4H-9.384L-9.6-2.052c-.024.78-.216.864-.816.864ZM-3.324-3.6h1.5V0H-.48V-8.4H-1.824v3.6h-1.5V-8.4h-1.32V0h1.32Z" transform="translate(221.584 5372.561) rotate(-45)" fill="#a6a4a6"/><path d="M-20.6-5.868c0,.672-.3.888-.792.888h-.516v1.2h.444c.6,0,.864.288.864,1.068v.66c0,.744-.264.948-.684.948s-.684-.228-.684-.828v-.78H-23.22v.7C-23.22-.672-22.548.1-21.252.1s1.968-.768,1.968-2.112v-.66a1.714,1.714,0,0,0-.924-1.764,1.636,1.636,0,0,0,.924-1.728v-.216c0-1.344-.672-2.112-1.968-2.112s-1.968.768-1.968,2.112v.456h1.248v-.54c0-.6.264-.828.684-.828s.684.2.684.96ZM-14.712-8.4h-1.836V0H-15.4V-5.94L-14.412,0h1.248l.912-6.024V0H-11V-8.4H-12.84l-.9,5.964Zm4.3,8.412h.2c1.32,0,1.872-.6,1.92-2.136L-8.148-7.2H-7V0h1.344V-8.4H-9.384L-9.6-2.052c-.024.78-.216.864-.816.864ZM-3.324-3.6h1.5V0H-.48V-8.4H-1.824v3.6h-1.5V-8.4h-1.32V0h1.32Z" transform="translate(257.434 5372.561) rotate(-45)" fill="#a6a4a6"/><path d="M-23.46-1.524h2.544V0h1.3V-1.524H-19v-1.2h-.624V-8.4h-1.44l-2.4,5.676Zm1.212-1.2,1.332-3.156v3.156ZM-14.712-8.4h-1.836V0H-15.4V-5.94L-14.412,0h1.248l.912-6.024V0H-11V-8.4H-12.84l-.9,5.964Zm4.3,8.412h.2c1.32,0,1.872-.6,1.92-2.136L-8.148-7.2H-7V0h1.344V-8.4H-9.384L-9.6-2.052c-.024.78-.216.864-.816.864ZM-3.324-3.6h1.5V0H-.48V-8.4H-1.824v3.6h-1.5V-8.4h-1.32V0h1.32Z" transform="translate(293.284 5372.561) rotate(-45)" fill="#a6a4a6"/><path d="M-23.208-2.712v.7C-23.208-.672-22.536.1-21.24.1s1.968-.768,1.968-2.112V-3.888c0-1.236-.492-1.92-1.464-1.92a1.259,1.259,0,0,0-1.152.612l.108-2h2.292V-8.4h-3.48l-.24,4.872h1.248V-3.78c0-.6.264-.828.684-.828s.684.228.684.828v1.848c0,.6-.264.816-.684.816s-.684-.216-.684-.816v-.78Zm8.5-5.688h-1.836V0H-15.4V-5.94L-14.412,0h1.248l.912-6.024V0H-11V-8.4H-12.84l-.9,5.964Zm4.3,8.412h.2c1.32,0,1.872-.6,1.92-2.136L-8.148-7.2H-7V0h1.344V-8.4H-9.384L-9.6-2.052c-.024.78-.216.864-.816.864ZM-3.324-3.6h1.5V0H-.48V-8.4H-1.824v3.6h-1.5V-8.4h-1.32V0h1.32Z" transform="translate(329.134 5372.561) rotate(-45)" fill="#a6a4a6"/><path d="M-23.232-2.016a1.864,1.864,0,0,0,2,2.112,1.864,1.864,0,0,0,2-2.112V-3.552c0-1.236-.492-1.92-1.464-1.92a1.256,1.256,0,0,0-1.224.744V-6.264c0-.8.264-1.032.732-1.032.42,0,.684.228.684.828v.3h1.248v-.216c0-1.344-.672-2.112-1.968-2.112-1.368,0-2.016.768-2.016,2.184Zm2-2.256c.42,0,.684.228.684.828v1.512c0,.6-.264.816-.684.816s-.684-.216-.684-.816V-3.444C-21.912-4.044-21.648-4.272-21.228-4.272ZM-14.712-8.4h-1.836V0H-15.4V-5.94L-14.412,0h1.248l.912-6.024V0H-11V-8.4H-12.84l-.9,5.964Zm4.3,8.412h.2c1.32,0,1.872-.6,1.92-2.136L-8.148-7.2H-7V0h1.344V-8.4H-9.384L-9.6-2.052c-.024.78-.216.864-.816.864ZM-3.324-3.6h1.5V0H-.48V-8.4H-1.824v3.6h-1.5V-8.4h-1.32V0h1.32Z" transform="translate(364.984 5372.561) rotate(-45)" fill="#a6a4a6"/><path d="M-18.684-6.336a3.532,3.532,0,0,1-1.3,2.628A3.635,3.635,0,0,0-21.3-1.032V0h3.816V-1.2h-2.5a.908.908,0,0,1-.012-.18c0-.444.216-.84,1-1.68a4.611,4.611,0,0,0,1.632-3.324c0-1.344-.672-2.112-1.968-2.112S-21.3-7.728-21.3-6.384v.816h1.248v-.9c0-.6.264-.828.684-.828S-18.684-7.092-18.684-6.336Zm2.076,3.624v.7C-16.608-.672-15.936.1-14.64.1s1.968-.768,1.968-2.112V-3.888c0-1.236-.492-1.92-1.464-1.92a1.24,1.24,0,0,0-1.14.612H-15.3l.108-2h2.3V-8.4h-3.48l-.24,4.872h1.248V-3.78c0-.6.264-.828.684-.828s.684.228.684.828v1.848c0,.6-.264.816-.684.816s-.684-.216-.684-.816v-.78Zm6.024-3.756c0-.6.264-.828.684-.828s.684.228.684.828v4.536c0,.6-.264.828-.684.828s-.684-.228-.684-.828ZM-11.9-2.016A1.864,1.864,0,0,0-9.9.1a1.864,1.864,0,0,0,2-2.112V-6.384A1.864,1.864,0,0,0-9.9-8.5a1.864,1.864,0,0,0-2,2.112Zm5.628-5.16c0-.372.156-.528.432-.528s.432.156.432.528V-4.3c0,.372-.168.528-.432.528s-.432-.156-.432-.528Zm-.84,2.82A1.179,1.179,0,0,0-5.844-3.012,1.179,1.179,0,0,0-4.572-4.356v-2.76A1.179,1.179,0,0,0-5.844-8.46,1.179,1.179,0,0,0-7.116-7.116ZM-5.844,0h.78l3.312-8.4h-.78Zm3.732-4.1c0-.372.156-.528.432-.528s.432.156.432.528v2.88c0,.372-.168.528-.432.528s-.432-.156-.432-.528Zm-.84,2.82A1.179,1.179,0,0,0-1.68.06,1.179,1.179,0,0,0-.408-1.284v-2.76A1.179,1.179,0,0,0-1.68-5.388,1.179,1.179,0,0,0-2.952-4.044Z" transform="translate(26.335 5104.885) rotate(-45)" fill="#a6a4a6"/><path d="M-18.684-6.336a3.532,3.532,0,0,1-1.3,2.628A3.635,3.635,0,0,0-21.3-1.032V0h3.816V-1.2h-2.5a.908.908,0,0,1-.012-.18c0-.444.216-.84,1-1.68a4.611,4.611,0,0,0,1.632-3.324c0-1.344-.672-2.112-1.968-2.112S-21.3-7.728-21.3-6.384v.816h1.248v-.9c0-.6.264-.828.684-.828S-18.684-7.092-18.684-6.336Zm3.348-.132c0-.6.264-.828.684-.828s.684.228.684.828v4.536c0,.6-.264.828-.684.828s-.684-.228-.684-.828Zm-1.32,4.452a1.864,1.864,0,0,0,2,2.112,1.864,1.864,0,0,0,2-2.112V-6.384a1.864,1.864,0,0,0-2-2.112,1.864,1.864,0,0,0-2,2.112Zm6.072-4.452c0-.6.264-.828.684-.828s.684.228.684.828v4.536c0,.6-.264.828-.684.828s-.684-.228-.684-.828ZM-11.9-2.016A1.864,1.864,0,0,0-9.9.1a1.864,1.864,0,0,0,2-2.112V-6.384A1.864,1.864,0,0,0-9.9-8.5a1.864,1.864,0,0,0-2,2.112Zm5.628-5.16c0-.372.156-.528.432-.528s.432.156.432.528V-4.3c0,.372-.168.528-.432.528s-.432-.156-.432-.528Zm-.84,2.82A1.179,1.179,0,0,0-5.844-3.012,1.179,1.179,0,0,0-4.572-4.356v-2.76A1.179,1.179,0,0,0-5.844-8.46,1.179,1.179,0,0,0-7.116-7.116ZM-5.844,0h.78l3.312-8.4h-.78Zm3.732-4.1c0-.372.156-.528.432-.528s.432.156.432.528v2.88c0,.372-.168.528-.432.528s-.432-.156-.432-.528Zm-.84,2.82A1.179,1.179,0,0,0-1.68.06,1.179,1.179,0,0,0-.408-1.284v-2.76A1.179,1.179,0,0,0-1.68-5.388,1.179,1.179,0,0,0-2.952-4.044Z" transform="translate(26.335 5154.82) rotate(-45)" fill="#a6a4a6"/><path d="M-20.484-6.408h1.02V0h1.32V-8.4h-.888a1.308,1.308,0,0,1-1.452,1.056Zm3.876,3.7v.7C-16.608-.672-15.936.1-14.64.1s1.968-.768,1.968-2.112V-3.888c0-1.236-.492-1.92-1.464-1.92a1.24,1.24,0,0,0-1.14.612H-15.3l.108-2h2.3V-8.4h-3.48l-.24,4.872h1.248V-3.78c0-.6.264-.828.684-.828s.684.228.684.828v1.848c0,.6-.264.816-.684.816s-.684-.216-.684-.816v-.78Zm6.024-3.756c0-.6.264-.828.684-.828s.684.228.684.828v4.536c0,.6-.264.828-.684.828s-.684-.228-.684-.828ZM-11.9-2.016A1.864,1.864,0,0,0-9.9.1a1.864,1.864,0,0,0,2-2.112V-6.384A1.864,1.864,0,0,0-9.9-8.5a1.864,1.864,0,0,0-2,2.112Zm5.628-5.16c0-.372.156-.528.432-.528s.432.156.432.528V-4.3c0,.372-.168.528-.432.528s-.432-.156-.432-.528Zm-.84,2.82A1.179,1.179,0,0,0-5.844-3.012,1.179,1.179,0,0,0-4.572-4.356v-2.76A1.179,1.179,0,0,0-5.844-8.46,1.179,1.179,0,0,0-7.116-7.116ZM-5.844,0h.78l3.312-8.4h-.78Zm3.732-4.1c0-.372.156-.528.432-.528s.432.156.432.528v2.88c0,.372-.168.528-.432.528s-.432-.156-.432-.528Zm-.84,2.82A1.179,1.179,0,0,0-1.68.06,1.179,1.179,0,0,0-.408-1.284v-2.76A1.179,1.179,0,0,0-1.68-5.388,1.179,1.179,0,0,0-2.952-4.044Z" transform="translate(26.335 5204.755) rotate(-45)" fill="#a6a4a6"/><path d="M-20.484-6.408h1.02V0h1.32V-8.4h-.888a1.308,1.308,0,0,1-1.452,1.056Zm5.148-.06c0-.6.264-.828.684-.828s.684.228.684.828v4.536c0,.6-.264.828-.684.828s-.684-.228-.684-.828Zm-1.32,4.452a1.864,1.864,0,0,0,2,2.112,1.864,1.864,0,0,0,2-2.112V-6.384a1.864,1.864,0,0,0-2-2.112,1.864,1.864,0,0,0-2,2.112Zm6.072-4.452c0-.6.264-.828.684-.828s.684.228.684.828v4.536c0,.6-.264.828-.684.828s-.684-.228-.684-.828ZM-11.9-2.016A1.864,1.864,0,0,0-9.9.1a1.864,1.864,0,0,0,2-2.112V-6.384A1.864,1.864,0,0,0-9.9-8.5a1.864,1.864,0,0,0-2,2.112Zm5.628-5.16c0-.372.156-.528.432-.528s.432.156.432.528V-4.3c0,.372-.168.528-.432.528s-.432-.156-.432-.528Zm-.84,2.82A1.179,1.179,0,0,0-5.844-3.012,1.179,1.179,0,0,0-4.572-4.356v-2.76A1.179,1.179,0,0,0-5.844-8.46,1.179,1.179,0,0,0-7.116-7.116ZM-5.844,0h.78l3.312-8.4h-.78Zm3.732-4.1c0-.372.156-.528.432-.528s.432.156.432.528v2.88c0,.372-.168.528-.432.528s-.432-.156-.432-.528Zm-.84,2.82A1.179,1.179,0,0,0-1.68.06,1.179,1.179,0,0,0-.408-1.284v-2.76A1.179,1.179,0,0,0-1.68-5.388,1.179,1.179,0,0,0-2.952-4.044Z" transform="translate(26.335 5254.69) rotate(-45)" fill="#a6a4a6"/><path d="M-16.608-2.712v.7C-16.608-.672-15.936.1-14.64.1s1.968-.768,1.968-2.112V-3.888c0-1.236-.492-1.92-1.464-1.92a1.24,1.24,0,0,0-1.14.612H-15.3l.108-2h2.3V-8.4h-3.48l-.24,4.872h1.248V-3.78c0-.6.264-.828.684-.828s.684.228.684.828v1.848c0,.6-.264.816-.684.816s-.684-.216-.684-.816v-.78Zm6.024-3.756c0-.6.264-.828.684-.828s.684.228.684.828v4.536c0,.6-.264.828-.684.828s-.684-.228-.684-.828ZM-11.9-2.016A1.864,1.864,0,0,0-9.9.1a1.864,1.864,0,0,0,2-2.112V-6.384A1.864,1.864,0,0,0-9.9-8.5a1.864,1.864,0,0,0-2,2.112Zm5.628-5.16c0-.372.156-.528.432-.528s.432.156.432.528V-4.3c0,.372-.168.528-.432.528s-.432-.156-.432-.528Zm-.84,2.82A1.179,1.179,0,0,0-5.844-3.012,1.179,1.179,0,0,0-4.572-4.356v-2.76A1.179,1.179,0,0,0-5.844-8.46,1.179,1.179,0,0,0-7.116-7.116ZM-5.844,0h.78l3.312-8.4h-.78Zm3.732-4.1c0-.372.156-.528.432-.528s.432.156.432.528v2.88c0,.372-.168.528-.432.528s-.432-.156-.432-.528Zm-.84,2.82A1.179,1.179,0,0,0-1.68.06,1.179,1.179,0,0,0-.408-1.284v-2.76A1.179,1.179,0,0,0-1.68-5.388,1.179,1.179,0,0,0-2.952-4.044Z" transform="translate(26.335 5304.625) rotate(-45)" fill="#a6a4a6"/><path d="M-18.756-5.868c0,.672-.3.888-.792.888h-.516v1.2h.444c.6,0,.864.288.864,1.068v.66c0,.744-.264.948-.684.948s-.684-.228-.684-.828v-.78h-1.248v.7C-21.372-.672-20.7.1-19.4.1s1.968-.768,1.968-2.112v-.66a1.7,1.7,0,0,0-.924-1.752v-.024a1.62,1.62,0,0,0,.924-1.716v-.216c0-1.344-.672-2.112-1.968-2.112s-1.968.768-1.968,2.112v.456h1.248v-.54c0-.6.264-.828.684-.828s.684.2.684.96Zm3.42-.6c0-.6.264-.828.684-.828s.684.228.684.828v4.536c0,.6-.264.828-.684.828s-.684-.228-.684-.828Zm-1.32,4.452a1.864,1.864,0,0,0,2,2.112,1.864,1.864,0,0,0,2-2.112V-6.384a1.864,1.864,0,0,0-2-2.112,1.864,1.864,0,0,0-2,2.112Zm6.072-4.452c0-.6.264-.828.684-.828s.684.228.684.828v4.536c0,.6-.264.828-.684.828s-.684-.228-.684-.828ZM-11.9-2.016A1.864,1.864,0,0,0-9.9.1a1.864,1.864,0,0,0,2-2.112V-6.384A1.864,1.864,0,0,0-9.9-8.5a1.864,1.864,0,0,0-2,2.112Zm5.628-5.16c0-.372.156-.528.432-.528s.432.156.432.528V-4.3c0,.372-.168.528-.432.528s-.432-.156-.432-.528Zm-.84,2.82A1.179,1.179,0,0,0-5.844-3.012,1.179,1.179,0,0,0-4.572-4.356v-2.76A1.179,1.179,0,0,0-5.844-8.46,1.179,1.179,0,0,0-7.116-7.116ZM-5.844,0h.78l3.312-8.4h-.78Zm3.732-4.1c0-.372.156-.528.432-.528s.432.156.432.528v2.88c0,.372-.168.528-.432.528s-.432-.156-.432-.528Zm-.84,2.82A1.179,1.179,0,0,0-1.68.06,1.179,1.179,0,0,0-.408-1.284v-2.76A1.179,1.179,0,0,0-1.68-5.388,1.179,1.179,0,0,0-2.952-4.044Z" transform="translate(26.335 5054.949) rotate(-45)" fill="#a6a4a6"/><path d="M28.132,459.373,63.982,439.4l35.85-29.96,35.85-24.968,35.85-24.967,35.85-19.974,35.85-19.974,35.85-39.95,35.85-39.948s36.2-60.551,45.165-75.532" transform="translate(4.149 4900.185)" fill="none" stroke="#ff906d" stroke-miterlimit="10" stroke-width="4"/><path d="M171.532,459.373l-71.7-49.935-35.85-29.962L28.132,359.5" transform="translate(4.149 4900.185)" fill="none" stroke="#c2b8f3" stroke-miterlimit="10" stroke-width="4"/><circle cx="4" cy="4" r="4" transform="translate(99.982 5305.622)" fill="#2a2747"/><circle cx="4" cy="4" r="4" transform="translate(135.832 5280.666)" fill="#2a2747"/><circle cx="4" cy="4" r="4" transform="translate(135.832 5331.583)" fill="#2a2747"/><circle cx="4" cy="4" r="4" transform="translate(171.682 5255.699)" fill="#2a2747"/><circle cx="4" cy="4" r="4" transform="translate(207.532 5235.96)" fill="#2a2747"/><circle cx="4" cy="4" r="4" transform="translate(243.382 5215.738)" fill="#2a2747"/><circle cx="4" cy="4" r="4" transform="translate(279.232 5175.788)" fill="#2a2747"/><circle cx="4" cy="4" r="4" transform="translate(315.082 5135.555)" fill="#2a2747"/><circle cx="4" cy="4" r="4" transform="translate(350.931 5075.632)" fill="#2a2747"/><circle cx="4" cy="4" r="4" transform="translate(64.132 5275.926)" fill="#2a2747"/><circle cx="4" cy="4" r="4" transform="translate(64.132 5335.583)" fill="#2a2747"/><path d="M-126.324-5.742v2.2c0,1.1-.484,1.5-1.254,1.5s-1.254-.4-1.254-1.5v-8.316c0-1.1.484-1.518,1.254-1.518s1.254.418,1.254,1.518v1.65h2.288v-1.5c0-2.464-1.232-3.872-3.608-3.872s-3.608,1.408-3.608,3.872V-3.7c0,2.464,1.232,3.872,3.608,3.872s3.608-1.408,3.608-3.872V-5.742Zm3.058-7.458h2.53V0h2.42V-13.2h2.53v-2.2h-7.48Zm13.9-2.2H-112.9L-115.368,0h2.222l.418-2.794h2.97L-109.34,0h2.442Zm-1.892,2.728,1.166,7.788h-2.332Zm9.042-2.728h-3.564V0h2.42V-5.786h1.144c2.42,0,3.608-1.342,3.608-3.806v-2C-98.6-14.058-99.792-15.4-102.212-15.4Zm0,2.2c.77,0,1.188.352,1.188,1.452v2.31c0,1.1-.418,1.452-1.188,1.452h-1.144V-13.2Zm4.026,0h2.53V0h2.42V-13.2h2.53v-2.2h-7.48Zm10.758,1.342c0-1.1.484-1.518,1.254-1.518s1.254.418,1.254,1.518v8.316c0,1.1-.484,1.518-1.254,1.518s-1.254-.418-1.254-1.518ZM-89.848-3.7c0,2.464,1.3,3.872,3.674,3.872S-82.5-1.232-82.5-3.7V-11.7c0-2.464-1.3-3.872-3.674-3.872s-3.674,1.408-3.674,3.872Zm12.562-11.7h-3.652V0h3.806c2.42,0,3.674-1.276,3.674-3.652V-4.906c0-1.628-.506-2.794-1.8-3.3,1.078-.506,1.562-1.518,1.562-3.1v-.55C-73.7-14.234-74.778-15.4-77.286-15.4Zm-.154,8.47c1.1,0,1.562.44,1.562,1.87v1.342c0,1.144-.44,1.518-1.254,1.518h-1.386V-6.93Zm.088-6.27c.858,0,1.232.484,1.232,1.584v.858c0,1.232-.55,1.628-1.452,1.628h-.946V-13.2ZM-68.442,0c2.42,0,3.608-1.342,3.608-3.806v-2c0-2.464-1.188-3.806-3.608-3.806h-1.144V-15.4h-2.42V0Zm-1.144-2.2V-7.414h1.144c.77,0,1.188.352,1.188,1.452v2.31c0,1.1-.418,1.452-1.188,1.452ZM-61.028,0V-15.4h-2.42V0Zm4.246,0h-2.486V-15.4h2.156v9.746l.88-3.388,1.98-6.358h2.662V0h-2.178V-10.846l-.99,3.784Zm3.96-18.832A2.274,2.274,0,0,1-55.4-16.39a2.27,2.27,0,0,1-2.53-2.442h1.5c.066.814.4,1.012,1.034,1.012.66,0,1.034-.2,1.1-1.012Zm5.7,5.632h2.53V0h2.42V-13.2h2.53v-2.2h-7.48Zm13.9-2.2h-3.542L-39.226,0H-37l.418-2.794h2.97L-33.2,0h2.442Zm-1.892,2.728,1.166,7.788h-2.332ZM-26.07-15.4h-3.564V0h2.42V-5.786h1.144c2.42,0,3.608-1.342,3.608-3.806v-2C-22.462-14.058-23.65-15.4-26.07-15.4Zm0,2.2c.77,0,1.188.352,1.188,1.452v2.31c0,1.1-.418,1.452-1.188,1.452h-1.144V-13.2Zm9.24,6.138.99-3.784V0h2.178V-15.4h-2.662L-18.3-9.042l-.88,3.388V-15.4H-21.34V0h2.486ZM-7.634,0h2.376V-1.738h.9c2.42,0,3.608-1.342,3.608-3.806v-4.2c0-2.464-1.188-3.806-3.608-3.806h-.9V-15.4H-7.634v1.848h-.9c-2.42,0-3.608,1.342-3.608,3.806v4.2c0,2.464,1.188,3.806,3.608,3.806h.9Zm3.278-11.418c.77,0,1.21.418,1.21,1.518v4.51c0,1.1-.44,1.54-1.21,1.54h-.9v-7.568ZM-7.634-3.85h-.9c-.77,0-1.21-.44-1.21-1.54V-9.9c0-1.1.44-1.518,1.21-1.518h.9Z" transform="translate(350.932 5268.097)" fill="#a6a4a6"/><path d="M90.059,500.686H31.019l-5.773,10,5.773,10h59.04l5.773-10Z" transform="translate(4.149 4900.185)" fill="#292c45"/><path d="M-2.6-1.98H-3.637V0H-5.408V-1.98H-9.052V-3.561l3.383-5.586h2.031V-3.4H-2.6ZM-5.408-3.4V-7.37L-7.712-3.4ZM.5-5.789a.973.973,0,0,0,.714-.3A.973.973,0,0,0,1.5-6.8a.973.973,0,0,0-.3-.714.973.973,0,0,0-.714-.3.973.973,0,0,0-.714.3.973.973,0,0,0-.3.714.973.973,0,0,0,.3.714A.973.973,0,0,0,.5-5.789ZM2.856-6.8a2.28,2.28,0,0,1-.689,1.669A2.272,2.272,0,0,1,.5-4.437a2.275,2.275,0,0,1-1.669-.692A2.275,2.275,0,0,1-1.866-6.8a2.275,2.275,0,0,1,.692-1.669A2.275,2.275,0,0,1,.5-9.16a2.275,2.275,0,0,1,1.669.692A2.275,2.275,0,0,1,2.856-6.8ZM7.674-2.177a.973.973,0,0,0-.3-.714.973.973,0,0,0-.714-.3.973.973,0,0,0-.714.3.973.973,0,0,0-.3.714.973.973,0,0,0,.3.714.973.973,0,0,0,.714.3.973.973,0,0,0,.714-.3A.973.973,0,0,0,7.674-2.177Zm1.352,0A2.275,2.275,0,0,1,8.334-.508,2.275,2.275,0,0,1,6.665.184,2.275,2.275,0,0,1,5-.508,2.275,2.275,0,0,1,4.3-2.177,2.272,2.272,0,0,1,5-3.85a2.28,2.28,0,0,1,1.669-.689,2.275,2.275,0,0,1,1.669.692A2.275,2.275,0,0,1,9.026-2.177ZM5.656-9.2h.965L1.492.241H.508Z" transform="translate(64.689 5415.871)" fill="#fffaea"/><path d="M162.646,500.686H108.605l-5.773,10,5.773,10h54.041l5.773-10Z" transform="translate(4.149 4900.185)" fill="#292c45"/><path d="M-7.249-2.463a1.746,1.746,0,0,0,.413.911,1.169,1.169,0,0,0,.889.321A1.2,1.2,0,0,0-4.923-1.7a1.938,1.938,0,0,0,.352-1.19,2.068,2.068,0,0,0-.33-1.19A1.156,1.156,0,0,0-5.929-4.57a1.769,1.769,0,0,0-.571.083,1.136,1.136,0,0,0-.641.565L-8.766-4l.647-5.084h5.072v1.536H-6.811l-.33,2.012A3.782,3.782,0,0,1-6.487-5.9a2.768,2.768,0,0,1,.958-.146,2.879,2.879,0,0,1,1.993.768,2.856,2.856,0,0,1,.851,2.234A3.505,3.505,0,0,1-3.5-.762a2.978,2.978,0,0,1-2.45,1,3.254,3.254,0,0,1-2.158-.7,2.737,2.737,0,0,1-.939-2ZM.5-5.789a.973.973,0,0,0,.714-.3A.973.973,0,0,0,1.5-6.8a.973.973,0,0,0-.3-.714.973.973,0,0,0-.714-.3.973.973,0,0,0-.714.3.973.973,0,0,0-.3.714.973.973,0,0,0,.3.714A.973.973,0,0,0,.5-5.789ZM2.856-6.8a2.28,2.28,0,0,1-.689,1.669A2.272,2.272,0,0,1,.5-4.437a2.275,2.275,0,0,1-1.669-.692A2.275,2.275,0,0,1-1.866-6.8a2.275,2.275,0,0,1,.692-1.669A2.275,2.275,0,0,1,.5-9.16a2.275,2.275,0,0,1,1.669.692A2.275,2.275,0,0,1,2.856-6.8ZM7.674-2.177a.973.973,0,0,0-.3-.714.973.973,0,0,0-.714-.3.973.973,0,0,0-.714.3.973.973,0,0,0-.3.714.973.973,0,0,0,.3.714.973.973,0,0,0,.714.3.973.973,0,0,0,.714-.3A.973.973,0,0,0,7.674-2.177Zm1.352,0A2.275,2.275,0,0,1,8.334-.508,2.275,2.275,0,0,1,6.665.184,2.275,2.275,0,0,1,5-.508,2.275,2.275,0,0,1,4.3-2.177,2.272,2.272,0,0,1,5-3.85a2.28,2.28,0,0,1,1.669-.689,2.275,2.275,0,0,1,1.669.692A2.275,2.275,0,0,1,9.026-2.177ZM5.656-9.2h.965L1.492.241H.508Z" transform="translate(139.816 5415.83)" fill="#fffaea"/><path d="M345.009,500.686H180.3l-5.773,10,5.773,10h164.7l5.773-10Z" transform="translate(4.149 4900.185)" fill="#292c45"/><path d="M-2.6-1.98H-3.637V0H-5.408V-1.98H-9.052V-3.561l3.383-5.586h2.031V-3.4H-2.6ZM-5.408-3.4V-7.37L-7.712-3.4ZM.5-5.789a.973.973,0,0,0,.714-.3A.973.973,0,0,0,1.5-6.8a.973.973,0,0,0-.3-.714.973.973,0,0,0-.714-.3.973.973,0,0,0-.714.3.973.973,0,0,0-.3.714.973.973,0,0,0,.3.714A.973.973,0,0,0,.5-5.789ZM2.856-6.8a2.28,2.28,0,0,1-.689,1.669A2.272,2.272,0,0,1,.5-4.437a2.275,2.275,0,0,1-1.669-.692A2.275,2.275,0,0,1-1.866-6.8a2.275,2.275,0,0,1,.692-1.669A2.275,2.275,0,0,1,.5-9.16a2.275,2.275,0,0,1,1.669.692A2.275,2.275,0,0,1,2.856-6.8ZM7.674-2.177a.973.973,0,0,0-.3-.714.973.973,0,0,0-.714-.3.973.973,0,0,0-.714.3.973.973,0,0,0-.3.714.973.973,0,0,0,.3.714.973.973,0,0,0,.714.3.973.973,0,0,0,.714-.3A.973.973,0,0,0,7.674-2.177Zm1.352,0A2.275,2.275,0,0,1,8.334-.508,2.275,2.275,0,0,1,6.665.184,2.275,2.275,0,0,1,5-.508,2.275,2.275,0,0,1,4.3-2.177,2.272,2.272,0,0,1,5-3.85a2.28,2.28,0,0,1,1.669-.689,2.275,2.275,0,0,1,1.669.692A2.275,2.275,0,0,1,9.026-2.177ZM5.656-9.2h.965L1.492.241H.508Z" transform="translate(266.807 5415.83)" fill="#fffaea"/><path d="M28.748,543.728H39.225l2.113,6.543-2.113,6.641H28.748l-1.99-6.361Z" transform="translate(4.149 4900.185)" fill="#2a2549"/><path d="M.36-7.32.024-6.3l1.968.336-1.4,1.4.864.636L2.376-5.7,3.3-3.924l.864-.636-1.4-1.4L4.728-6.3,4.392-7.32,2.6-6.42,2.916-8.4H1.836l.312,1.98ZM7.776-5.868c0,.672-.3.888-.792.888h-.4v1.2h.324c.6,0,.864.288.864,1.068v.66c0,.744-.264.948-.684.948s-.684-.228-.684-.828V-2.94H5.16v.924C5.16-.672,5.832.1,7.128.1S9.1-.672,9.1-2.016v-.66A1.714,1.714,0,0,0,8.172-4.44,1.636,1.636,0,0,0,9.1-6.168v-.216C9.1-7.728,8.424-8.5,7.128-8.5s-1.944.744-1.944,2.088v.624H6.4v-.684c0-.6.276-.828.7-.828s.684.2.684.96ZM11.928-8.4H9.984V0H11.3V-3.156h.624c1.32,0,1.968-.732,1.968-2.076V-6.324C13.9-7.668,13.248-8.4,11.928-8.4Zm0,1.2c.42,0,.648.192.648.792v1.26c0,.6-.228.792-.648.792H11.3V-7.2Zm5.04,3.348.54-2.064V0H18.7V-8.4H17.244l-1.08,3.468-.48,1.848V-8.4H14.508V0h1.356ZM19.248-7.2h1.38V0h1.32V-7.2h1.38V-8.4h-4.08Zm5.976,0H27.5V-8.4H23.9V0h3.6V-1.2h-2.28V-3.66h1.812v-1.2H25.224ZM27.948.012h.2c1.32,0,1.872-.6,1.92-2.136L30.216-7.2h1.152V0h1.344V-8.4H28.98l-.216,6.348c-.024.78-.216.864-.816.864ZM36.18-3.852l.54-2.064V0h1.188V-8.4H36.456l-1.08,3.468L34.9-3.084V-8.4H33.72V0h1.356ZM42.7-8.4H40.7V0H42.78a1.786,1.786,0,0,0,2-1.992v-.684a1.7,1.7,0,0,0-.984-1.8,1.65,1.65,0,0,0,.852-1.692v-.3C44.652-7.764,44.064-8.4,42.7-8.4Zm-.084,4.62c.6,0,.852.24.852,1.02v.732c0,.624-.24.828-.684.828h-.756V-3.78ZM42.66-7.2c.468,0,.672.264.672.864v.468c0,.672-.3.888-.792.888h-.516V-7.2ZM50.448,0H51.8L49.968-4.656,51.8-8.4h-1.32L48.756-4.74V-8.4h-1.32V0h1.32V-2.58l.408-.768Zm4.416-3.852.54-2.064V0h1.188V-8.4H55.14L54.06-4.932l-.48,1.848V-8.4H52.4V0H53.76Zm3.984.252h1.5V0h1.344V-8.4H60.348v3.6h-1.5V-8.4h-1.32V0h1.32Zm5.016-2.868c0-.6.264-.828.684-.828s.684.228.684.828v4.536c0,.6-.264.828-.684.828s-.684-.228-.684-.828Zm-1.32,4.452a1.864,1.864,0,0,0,2,2.112,1.864,1.864,0,0,0,2-2.112V-6.384a1.864,1.864,0,0,0-2-2.112,1.864,1.864,0,0,0-2,2.112ZM67.02-7.2H68.4V0h1.32V-7.2H71.1V-8.4H67.02ZM73-7.2h2.28V-8.4h-3.6V0h3.6V-1.2H73V-3.66h1.812v-1.2H73ZM79.02-8.4H77.088L75.744,0h1.212l.228-1.524H78.8L79.032,0h1.332ZM77.988-6.912l.636,4.248H77.352Zm2.6-.288h1.38V0h1.32V-7.2h1.38V-8.4h-4.08Zm6.6-1.2H85.248V0h1.32V-3.156h.624c1.32,0,1.968-.732,1.968-2.076V-6.324C89.16-7.668,88.512-8.4,87.192-8.4Zm0,1.2c.42,0,.648.192.648.792v1.26c0,.6-.228.792-.648.792h-.624V-7.2Zm3.9,0h2.28V-8.4h-3.6V0h3.6V-1.2h-2.28V-3.66H92.9v-1.2H91.092Z" transform="translate(32.697 5514.449)" fill="#2a2648" opacity="0.5"/><path d="M-31.14-10.56c0,4.04-4.36,4.72-4.36,8.84V0h6.36V-2H-33.3a1.514,1.514,0,0,1-.02-.3c0-2.3,4.38-3.94,4.38-8.34,0-2.24-1.12-3.52-3.28-3.52s-3.28,1.28-3.28,3.52v1.36h2.08v-1.5c0-1,.44-1.38,1.14-1.38S-31.14-11.82-31.14-10.56Zm10.16,7.2v-1.1a3.076,3.076,0,0,0-1.36-2.92,2.941,2.941,0,0,0,1.36-2.82v-.44c0-2.24-1.22-3.52-3.44-3.52s-3.44,1.28-3.44,3.52v.44A2.905,2.905,0,0,0-26.5-7.38a3.076,3.076,0,0,0-1.36,2.92v1.1c0,2.24,1.22,3.52,3.44,3.52S-20.98-1.12-20.98-3.36Zm-4.68-.06v-1.3c0-1.1.46-1.58,1.24-1.58s1.24.48,1.24,1.58v1.3c-.02,1.24-.54,1.58-1.24,1.58S-25.66-2.18-25.66-3.42Zm0-7.14c0-1.26.54-1.6,1.24-1.6s1.24.34,1.24,1.6v.78c0,1.12-.54,1.48-1.24,1.48-.72,0-1.24-.36-1.24-1.48Zm8.02-.22c0-1,.44-1.38,1.14-1.38s1.14.38,1.14,1.38v7.56c0,1-.44,1.38-1.14,1.38s-1.14-.38-1.14-1.38Zm-2.2,7.42c0,2.24,1.18,3.52,3.34,3.52s3.34-1.28,3.34-3.52v-7.28c0-2.24-1.18-3.52-3.34-3.52s-3.34,1.28-3.34,3.52Zm9.38-8.6c0-.62.26-.88.72-.88.44,0,.72.26.72.88v4.8c0,.62-.28.88-.72.88-.46,0-.72-.26-.72-.88Zm-1.4,4.7A1.965,1.965,0,0,0-9.74-5.02,1.965,1.965,0,0,0-7.62-7.26v-4.6A1.965,1.965,0,0,0-9.74-14.1a1.965,1.965,0,0,0-2.12,2.24ZM-9.74,0h1.3l5.52-14h-1.3Zm6.22-6.84c0-.62.26-.88.72-.88.44,0,.72.26.72.88v4.8c0,.62-.28.88-.72.88-.46,0-.72-.26-.72-.88Zm-1.4,4.7A1.965,1.965,0,0,0-2.8.1,1.965,1.965,0,0,0-.68-2.14v-4.6A1.965,1.965,0,0,0-2.8-8.98,1.965,1.965,0,0,0-4.92-6.74Z" transform="translate(349.376 5077.926)" fill="#2a2648"/><path d="M-31.14-10.56c0,4.04-4.36,4.72-4.36,8.84V0h6.36V-2H-33.3a1.514,1.514,0,0,1-.02-.3c0-2.3,4.38-3.94,4.38-8.34,0-2.24-1.12-3.52-3.28-3.52s-3.28,1.28-3.28,3.52v1.36h2.08v-1.5c0-1,.44-1.38,1.14-1.38S-31.14-11.82-31.14-10.56Zm7.92,0c0,4.04-4.36,4.72-4.36,8.84V0h6.36V-2h-4.16a1.514,1.514,0,0,1-.02-.3c0-2.3,4.38-3.94,4.38-8.34,0-2.24-1.12-3.52-3.28-3.52s-3.28,1.28-3.28,3.52v1.36h2.08v-1.5c0-1,.44-1.38,1.14-1.38S-23.22-11.82-23.22-10.56Zm5.58-.22c0-1,.44-1.38,1.14-1.38s1.14.38,1.14,1.38v7.56c0,1-.44,1.38-1.14,1.38s-1.14-.38-1.14-1.38Zm-2.2,7.42c0,2.24,1.18,3.52,3.34,3.52s3.34-1.28,3.34-3.52v-7.28c0-2.24-1.18-3.52-3.34-3.52s-3.34,1.28-3.34,3.52Zm9.38-8.6c0-.62.26-.88.72-.88.44,0,.72.26.72.88v4.8c0,.62-.28.88-.72.88-.46,0-.72-.26-.72-.88Zm-1.4,4.7A1.965,1.965,0,0,0-9.74-5.02,1.965,1.965,0,0,0-7.62-7.26v-4.6A1.965,1.965,0,0,0-9.74-14.1a1.965,1.965,0,0,0-2.12,2.24ZM-9.74,0h1.3l5.52-14h-1.3Zm6.22-6.84c0-.62.26-.88.72-.88.44,0,.72.26.72.88v4.8c0,.62-.28.88-.72.88-.46,0-.72-.26-.72-.88Zm-1.4,4.7A1.965,1.965,0,0,0-2.8.1,1.965,1.965,0,0,0-.68-2.14v-4.6A1.965,1.965,0,0,0-2.8-8.98,1.965,1.965,0,0,0-4.92-6.74Z" transform="translate(314.376 5137.926)" fill="#2a2648"/><path d="M-34.14-10.68h1.7V0h2.2V-14h-1.48a2.179,2.179,0,0,1-2.42,1.76Zm13.16,7.32v-1.1a3.076,3.076,0,0,0-1.36-2.92,2.941,2.941,0,0,0,1.36-2.82v-.44c0-2.24-1.22-3.52-3.44-3.52s-3.44,1.28-3.44,3.52v.44A2.905,2.905,0,0,0-26.5-7.38a3.076,3.076,0,0,0-1.36,2.92v1.1c0,2.24,1.22,3.52,3.44,3.52S-20.98-1.12-20.98-3.36Zm-4.68-.06v-1.3c0-1.1.46-1.58,1.24-1.58s1.24.48,1.24,1.58v1.3c-.02,1.24-.54,1.58-1.24,1.58S-25.66-2.18-25.66-3.42Zm0-7.14c0-1.26.54-1.6,1.24-1.6s1.24.34,1.24,1.6v.78c0,1.12-.54,1.48-1.24,1.48-.72,0-1.24-.36-1.24-1.48Zm8.02-.22c0-1,.44-1.38,1.14-1.38s1.14.38,1.14,1.38v7.56c0,1-.44,1.38-1.14,1.38s-1.14-.38-1.14-1.38Zm-2.2,7.42c0,2.24,1.18,3.52,3.34,3.52s3.34-1.28,3.34-3.52v-7.28c0-2.24-1.18-3.52-3.34-3.52s-3.34,1.28-3.34,3.52Zm9.38-8.6c0-.62.26-.88.72-.88.44,0,.72.26.72.88v4.8c0,.62-.28.88-.72.88-.46,0-.72-.26-.72-.88Zm-1.4,4.7A1.965,1.965,0,0,0-9.74-5.02,1.965,1.965,0,0,0-7.62-7.26v-4.6A1.965,1.965,0,0,0-9.74-14.1a1.965,1.965,0,0,0-2.12,2.24ZM-9.74,0h1.3l5.52-14h-1.3Zm6.22-6.84c0-.62.26-.88.72-.88.44,0,.72.26.72.88v4.8c0,.62-.28.88-.72.88-.46,0-.72-.26-.72-.88Zm-1.4,4.7A1.965,1.965,0,0,0-2.8.1,1.965,1.965,0,0,0-.68-2.14v-4.6A1.965,1.965,0,0,0-2.8-8.98,1.965,1.965,0,0,0-4.92-6.74Z" transform="translate(278.376 5178.926)" fill="#2a2648"/><path d="M-34.14-10.68h1.7V0h2.2V-14h-1.48a2.179,2.179,0,0,1-2.42,1.76Zm6.04,8.14h4.24V0h2.16V-2.54h1.04v-2H-21.7V-14h-2.4l-4,9.46Zm2.02-2,2.22-5.26v5.26Zm8.44-6.24c0-1,.44-1.38,1.14-1.38s1.14.38,1.14,1.38v7.56c0,1-.44,1.38-1.14,1.38s-1.14-.38-1.14-1.38Zm-2.2,7.42c0,2.24,1.18,3.52,3.34,3.52s3.34-1.28,3.34-3.52v-7.28c0-2.24-1.18-3.52-3.34-3.52s-3.34,1.28-3.34,3.52Zm9.38-8.6c0-.62.26-.88.72-.88.44,0,.72.26.72.88v4.8c0,.62-.28.88-.72.88-.46,0-.72-.26-.72-.88Zm-1.4,4.7A1.965,1.965,0,0,0-9.74-5.02,1.965,1.965,0,0,0-7.62-7.26v-4.6A1.965,1.965,0,0,0-9.74-14.1a1.965,1.965,0,0,0-2.12,2.24ZM-9.74,0h1.3l5.52-14h-1.3Zm6.22-6.84c0-.62.26-.88.72-.88.44,0,.72.26.72.88v4.8c0,.62-.28.88-.72.88-.46,0-.72-.26-.72-.88Zm-1.4,4.7A1.965,1.965,0,0,0-2.8.1,1.965,1.965,0,0,0-.68-2.14v-4.6A1.965,1.965,0,0,0-2.8-8.98,1.965,1.965,0,0,0-4.92-6.74Z" transform="translate(242.376 5217.926)" fill="#2a2648"/><path d="M-34.14-10.68h1.7V0h2.2V-14h-1.48a2.179,2.179,0,0,1-2.42,1.76Zm10.92.12c0,4.04-4.36,4.72-4.36,8.84V0h6.36V-2h-4.16a1.514,1.514,0,0,1-.02-.3c0-2.3,4.38-3.94,4.38-8.34,0-2.24-1.12-3.52-3.28-3.52s-3.28,1.28-3.28,3.52v1.36h2.08v-1.5c0-1,.44-1.38,1.14-1.38S-23.22-11.82-23.22-10.56Zm5.58-.22c0-1,.44-1.38,1.14-1.38s1.14.38,1.14,1.38v7.56c0,1-.44,1.38-1.14,1.38s-1.14-.38-1.14-1.38Zm-2.2,7.42c0,2.24,1.18,3.52,3.34,3.52s3.34-1.28,3.34-3.52v-7.28c0-2.24-1.18-3.52-3.34-3.52s-3.34,1.28-3.34,3.52Zm9.38-8.6c0-.62.26-.88.72-.88.44,0,.72.26.72.88v4.8c0,.62-.28.88-.72.88-.46,0-.72-.26-.72-.88Zm-1.4,4.7A1.965,1.965,0,0,0-9.74-5.02,1.965,1.965,0,0,0-7.62-7.26v-4.6A1.965,1.965,0,0,0-9.74-14.1a1.965,1.965,0,0,0-2.12,2.24ZM-9.74,0h1.3l5.52-14h-1.3Zm6.22-6.84c0-.62.26-.88.72-.88.44,0,.72.26.72.88v4.8c0,.62-.28.88-.72.88-.46,0-.72-.26-.72-.88Zm-1.4,4.7A1.965,1.965,0,0,0-2.8.1,1.965,1.965,0,0,0-.68-2.14v-4.6A1.965,1.965,0,0,0-2.8-8.98,1.965,1.965,0,0,0-4.92-6.74Z" transform="translate(207.376 5236.926)" fill="#2a2648"/><path d="M-34.14-10.68h1.7V0h2.2V-14h-1.48a2.179,2.179,0,0,1-2.42,1.76Zm8.58-.1c0-1,.44-1.38,1.14-1.38s1.14.38,1.14,1.38v7.56c0,1-.44,1.38-1.14,1.38s-1.14-.38-1.14-1.38Zm-2.2,7.42c0,2.24,1.18,3.52,3.34,3.52s3.34-1.28,3.34-3.52v-7.28c0-2.24-1.18-3.52-3.34-3.52s-3.34,1.28-3.34,3.52Zm10.12-7.42c0-1,.44-1.38,1.14-1.38s1.14.38,1.14,1.38v7.56c0,1-.44,1.38-1.14,1.38s-1.14-.38-1.14-1.38Zm-2.2,7.42c0,2.24,1.18,3.52,3.34,3.52s3.34-1.28,3.34-3.52v-7.28c0-2.24-1.18-3.52-3.34-3.52s-3.34,1.28-3.34,3.52Zm9.38-8.6c0-.62.26-.88.72-.88.44,0,.72.26.72.88v4.8c0,.62-.28.88-.72.88-.46,0-.72-.26-.72-.88Zm-1.4,4.7A1.965,1.965,0,0,0-9.74-5.02,1.965,1.965,0,0,0-7.62-7.26v-4.6A1.965,1.965,0,0,0-9.74-14.1a1.965,1.965,0,0,0-2.12,2.24ZM-9.74,0h1.3l5.52-14h-1.3Zm6.22-6.84c0-.62.26-.88.72-.88.44,0,.72.26.72.88v4.8c0,.62-.28.88-.72.88-.46,0-.72-.26-.72-.88Zm-1.4,4.7A1.965,1.965,0,0,0-2.8.1,1.965,1.965,0,0,0-.68-2.14v-4.6A1.965,1.965,0,0,0-2.8-8.98,1.965,1.965,0,0,0-4.92-6.74Z" transform="translate(171.376 5256.926)" fill="#2a2648"/><path d="M-27.68-4.52v1.16c0,2.24,1.12,3.52,3.28,3.52s3.28-1.28,3.28-3.52V-6.48c0-2.06-.82-3.2-2.44-3.2a2.1,2.1,0,0,0-1.92,1.02L-25.3-12h3.82v-2h-5.8l-.4,8.12h2.08V-6.3c0-1,.44-1.38,1.14-1.38s1.14.38,1.14,1.38v3.08c0,1-.44,1.36-1.14,1.36s-1.14-.36-1.14-1.36v-1.3Zm10.04-6.26c0-1,.44-1.38,1.14-1.38s1.14.38,1.14,1.38v7.56c0,1-.44,1.38-1.14,1.38s-1.14-.38-1.14-1.38Zm-2.2,7.42c0,2.24,1.18,3.52,3.34,3.52s3.34-1.28,3.34-3.52v-7.28c0-2.24-1.18-3.52-3.34-3.52s-3.34,1.28-3.34,3.52Zm9.38-8.6c0-.62.26-.88.72-.88.44,0,.72.26.72.88v4.8c0,.62-.28.88-.72.88-.46,0-.72-.26-.72-.88Zm-1.4,4.7A1.965,1.965,0,0,0-9.74-5.02,1.965,1.965,0,0,0-7.62-7.26v-4.6A1.965,1.965,0,0,0-9.74-14.1a1.965,1.965,0,0,0-2.12,2.24ZM-9.74,0h1.3l5.52-14h-1.3Zm6.22-6.84c0-.62.26-.88.72-.88.44,0,.72.26.72.88v4.8c0,.62-.28.88-.72.88-.46,0-.72-.26-.72-.88Zm-1.4,4.7A1.965,1.965,0,0,0-2.8.1,1.965,1.965,0,0,0-.68-2.14v-4.6A1.965,1.965,0,0,0-2.8-8.98,1.965,1.965,0,0,0-4.92-6.74Z" transform="translate(100.376 5305.926)" fill="#2a2648"/><path d="M-23.22-10.56c0,4.04-4.36,4.72-4.36,8.84V0h6.36V-2h-4.16a1.514,1.514,0,0,1-.02-.3c0-2.3,4.38-3.94,4.38-8.34,0-2.24-1.12-3.52-3.28-3.52s-3.28,1.28-3.28,3.52v1.36h2.08v-1.5c0-1,.44-1.38,1.14-1.38S-23.22-11.82-23.22-10.56Zm5.58-.22c0-1,.44-1.38,1.14-1.38s1.14.38,1.14,1.38v7.56c0,1-.44,1.38-1.14,1.38s-1.14-.38-1.14-1.38Zm-2.2,7.42c0,2.24,1.18,3.52,3.34,3.52s3.34-1.28,3.34-3.52v-7.28c0-2.24-1.18-3.52-3.34-3.52s-3.34,1.28-3.34,3.52Zm9.38-8.6c0-.62.26-.88.72-.88.44,0,.72.26.72.88v4.8c0,.62-.28.88-.72.88-.46,0-.72-.26-.72-.88Zm-1.4,4.7A1.965,1.965,0,0,0-9.74-5.02,1.965,1.965,0,0,0-7.62-7.26v-4.6A1.965,1.965,0,0,0-9.74-14.1a1.965,1.965,0,0,0-2.12,2.24ZM-9.74,0h1.3l5.52-14h-1.3Zm6.22-6.84c0-.62.26-.88.72-.88.44,0,.72.26.72.88v4.8c0,.62-.28.88-.72.88-.46,0-.72-.26-.72-.88Zm-1.4,4.7A1.965,1.965,0,0,0-2.8.1,1.965,1.965,0,0,0-.68-2.14v-4.6A1.965,1.965,0,0,0-2.8-8.98,1.965,1.965,0,0,0-4.92-6.74Z" transform="translate(64.376 5335.926)" fill="#2a2648"/><path d="M-20.98-3.36v-1.1a3.076,3.076,0,0,0-1.36-2.92,2.941,2.941,0,0,0,1.36-2.82v-.44c0-2.24-1.22-3.52-3.44-3.52s-3.44,1.28-3.44,3.52v.44A2.905,2.905,0,0,0-26.5-7.38a3.076,3.076,0,0,0-1.36,2.92v1.1c0,2.24,1.22,3.52,3.44,3.52S-20.98-1.12-20.98-3.36Zm-4.68-.06v-1.3c0-1.1.46-1.58,1.24-1.58s1.24.48,1.24,1.58v1.3c-.02,1.24-.54,1.58-1.24,1.58S-25.66-2.18-25.66-3.42Zm0-7.14c0-1.26.54-1.6,1.24-1.6s1.24.34,1.24,1.6v.78c0,1.12-.54,1.48-1.24,1.48-.72,0-1.24-.36-1.24-1.48Zm8.02-.22c0-1,.44-1.38,1.14-1.38s1.14.38,1.14,1.38v7.56c0,1-.44,1.38-1.14,1.38s-1.14-.38-1.14-1.38Zm-2.2,7.42c0,2.24,1.18,3.52,3.34,3.52s3.34-1.28,3.34-3.52v-7.28c0-2.24-1.18-3.52-3.34-3.52s-3.34,1.28-3.34,3.52Zm9.38-8.6c0-.62.26-.88.72-.88.44,0,.72.26.72.88v4.8c0,.62-.28.88-.72.88-.46,0-.72-.26-.72-.88Zm-1.4,4.7A1.965,1.965,0,0,0-9.74-5.02,1.965,1.965,0,0,0-7.62-7.26v-4.6A1.965,1.965,0,0,0-9.74-14.1a1.965,1.965,0,0,0-2.12,2.24ZM-9.74,0h1.3l5.52-14h-1.3Zm6.22-6.84c0-.62.26-.88.72-.88.44,0,.72.26.72.88v4.8c0,.62-.28.88-.72.88-.46,0-.72-.26-.72-.88Zm-1.4,4.7A1.965,1.965,0,0,0-2.8.1,1.965,1.965,0,0,0-.68-2.14v-4.6A1.965,1.965,0,0,0-2.8-8.98,1.965,1.965,0,0,0-4.92-6.74Z" transform="translate(64.376 5276.926)" fill="#2a2648"/><path d="M-23.22-10.56c0,4.04-4.36,4.72-4.36,8.84V0h6.36V-2h-4.16a1.514,1.514,0,0,1-.02-.3c0-2.3,4.38-3.94,4.38-8.34,0-2.24-1.12-3.52-3.28-3.52s-3.28,1.28-3.28,3.52v1.36h2.08v-1.5c0-1,.44-1.38,1.14-1.38S-23.22-11.82-23.22-10.56Zm3.46,6.04v1.16c0,2.24,1.12,3.52,3.28,3.52s3.28-1.28,3.28-3.52V-6.48c0-2.06-.82-3.2-2.44-3.2a2.1,2.1,0,0,0-1.92,1.02l.18-3.34h3.82v-2h-5.8l-.4,8.12h2.08V-6.3c0-1,.44-1.38,1.14-1.38s1.14.38,1.14,1.38v3.08c0,1-.44,1.36-1.14,1.36s-1.14-.36-1.14-1.36v-1.3Zm9.3-7.44c0-.62.26-.88.72-.88.44,0,.72.26.72.88v4.8c0,.62-.28.88-.72.88-.46,0-.72-.26-.72-.88Zm-1.4,4.7A1.965,1.965,0,0,0-9.74-5.02,1.965,1.965,0,0,0-7.62-7.26v-4.6A1.965,1.965,0,0,0-9.74-14.1a1.965,1.965,0,0,0-2.12,2.24ZM-9.74,0h1.3l5.52-14h-1.3Zm6.22-6.84c0-.62.26-.88.72-.88.44,0,.72.26.72.88v4.8c0,.62-.28.88-.72.88-.46,0-.72-.26-.72-.88Zm-1.4,4.7A1.965,1.965,0,0,0-2.8.1,1.965,1.965,0,0,0-.68-2.14v-4.6A1.965,1.965,0,0,0-2.8-8.98,1.965,1.965,0,0,0-4.92-6.74Z" transform="translate(135.376 5331.926)" fill="#2a2648"/><path d="M-27.72-14v2h4.38L-26.56,0h2.2l3.24-12.08V-14Zm7.96,9.48v1.16c0,2.24,1.12,3.52,3.28,3.52s3.28-1.28,3.28-3.52V-6.48c0-2.06-.82-3.2-2.44-3.2a2.1,2.1,0,0,0-1.92,1.02l.18-3.34h3.82v-2h-5.8l-.4,8.12h2.08V-6.3c0-1,.44-1.38,1.14-1.38s1.14.38,1.14,1.38v3.08c0,1-.44,1.36-1.14,1.36s-1.14-.36-1.14-1.36v-1.3Zm9.3-7.44c0-.62.26-.88.72-.88.44,0,.72.26.72.88v4.8c0,.62-.28.88-.72.88-.46,0-.72-.26-.72-.88Zm-1.4,4.7A1.965,1.965,0,0,0-9.74-5.02,1.965,1.965,0,0,0-7.62-7.26v-4.6A1.965,1.965,0,0,0-9.74-14.1a1.965,1.965,0,0,0-2.12,2.24ZM-9.74,0h1.3l5.52-14h-1.3Zm6.22-6.84c0-.62.26-.88.72-.88.44,0,.72.26.72.88v4.8c0,.62-.28.88-.72.88-.46,0-.72-.26-.72-.88Zm-1.4,4.7A1.965,1.965,0,0,0-2.8.1,1.965,1.965,0,0,0-.68-2.14v-4.6A1.965,1.965,0,0,0-2.8-8.98,1.965,1.965,0,0,0-4.92-6.74Z" transform="translate(135.376 5281.926)" fill="#2a2648"/></g></svg>